<svg width="58" height="42" viewBox="0 0 58 42" fill="none" xmlns="http://www.w3.org/2000/svg">
<path fill-rule="evenodd" clip-rule="evenodd" d="M15.9485 33.7251C16.3641 33.7114 16.7797 33.6985 17.1953 33.6855C17.2027 34.1154 17.2124 34.5451 17.2161 34.975C17.219 35.2948 17.3102 35.578 17.6932 35.5686C19.3082 35.5291 20.9299 35.7332 22.539 35.4587C22.9747 35.3897 23.4192 35.3537 23.8437 35.2438C24.4549 35.0856 24.8105 35.1654 24.6734 35.8863C24.5267 36.6568 24.8727 36.8358 25.6447 36.8336C33.9517 36.8063 42.2588 36.8164 50.5659 36.8164C52.3239 36.8164 52.3239 36.8164 52.498 35.2093C53.73 35.5111 54.9784 35.7749 56.0822 36.4246C57.3061 37.1448 57.3009 37.8341 56.0496 38.4853C54.0331 39.5346 51.8016 39.8868 49.5865 40.2275C44.3236 41.0382 39.0154 41.3228 33.691 41.5118C29.1274 41.6743 24.5727 41.6017 20.0217 41.4055C14.6202 41.1719 9.22311 40.7773 3.93718 39.5519C2.84222 39.2974 1.76725 38.9711 0.792301 38.4048C-0.242658 37.8039 -0.269329 37.1513 0.745628 36.5188C1.51907 36.0365 2.3577 35.68 3.29117 35.588C4.66025 35.652 6.02488 35.8576 7.40063 35.7217C9.06753 35.6786 10.7352 35.6362 12.4028 35.5931C12.9629 35.5931 13.5237 35.5945 14.0838 35.5938C15.964 35.5923 15.964 35.5916 15.9485 33.7251Z" fill="#C7DF8D"/>
<path fill-rule="evenodd" clip-rule="evenodd" d="M22.54 35.4585C20.9309 35.7338 19.3092 35.529 17.6941 35.5685C17.3111 35.5778 17.22 35.2947 17.217 34.9748C17.2133 34.545 17.2037 34.1152 17.1963 33.6854C17.3993 32.8315 17.0955 31.946 17.3726 31.0972C17.4948 31.0979 17.6171 31.0986 17.7393 31.0994C19.3366 31.1051 20.9346 31.1116 22.5318 31.1173C22.5748 31.3603 22.46 31.6248 22.6711 31.9065C23.2268 31.6334 23.7861 31.3588 24.5143 31.0009C23.7142 30.8801 23.1275 30.9369 22.5452 31.1015C22.4867 31.0433 22.4274 30.9844 22.3689 30.9261C21.6562 29.9594 20.9435 28.9934 20.2315 28.0267C21.9377 28.1935 23.6476 28.3344 25.3485 28.5406C25.9338 28.6118 26.2538 29.1422 26.642 29.5275C26.1561 29.9062 25.6701 30.285 25.0418 30.7752C26.162 30.7752 27.1103 30.7752 28.0585 30.7752C28.3282 31.0447 28.6749 30.929 28.9861 30.9297C36.2456 30.9362 43.5059 30.9362 50.7647 30.9297C51.0758 30.9297 51.4233 31.0447 51.6915 30.773C51.7485 30.7666 51.8048 30.7623 51.8619 30.7608C51.93 30.7594 51.9989 30.758 52.0663 30.7565C53.8214 31.6262 55.5765 32.4959 57.5612 33.4798C55.6846 33.6825 54.0407 33.4144 52.4271 33.6926C52.3642 33.6897 52.3019 33.6875 52.2389 33.6847C52.0285 33.4576 51.747 33.5251 51.4892 33.5251C47.2908 33.5251 43.0917 33.5301 38.8934 33.5337C34.0742 33.5323 29.255 33.528 24.4358 33.5294C22.5081 33.5301 22.5081 33.5359 22.54 35.4585ZM21.4769 32.9796C21.4443 32.6597 21.551 32.2156 21.0539 32.1926C20.5493 32.1689 20.5997 32.5972 20.5879 32.9336C20.5738 33.3224 20.6308 33.7673 21.0916 33.7752C21.6036 33.7839 21.4213 33.2894 21.4769 32.9796ZM18.8173 32.9286C18.7498 32.6705 18.9062 32.2041 18.4172 32.2393C17.9727 32.2709 18.092 32.7165 18.0935 33.0119C18.0949 33.2721 17.972 33.6667 18.4305 33.6689C18.961 33.671 18.7432 33.2261 18.8173 32.9286Z" fill="#BDD744"/>
<path fill-rule="evenodd" clip-rule="evenodd" d="M12.4029 35.593C10.7352 35.6361 9.06831 35.6786 7.40067 35.7217C7.43031 33.6086 7.57922 31.5034 7.76072 29.3967C7.95631 27.1226 7.9652 24.8334 8.16078 22.5593C8.24153 21.6192 8.3008 20.6812 8.33636 19.7411C8.4386 17.0141 9.36243 14.275 8.16893 11.5625C7.98001 11.1334 8.00298 10.6123 7.95557 10.1314C7.90445 9.60746 7.68219 9.49678 7.1962 9.73756C6.35534 10.153 5.49745 10.5354 4.64622 10.9314C4.62547 10.4685 4.60473 10.0049 4.58398 9.54206C5.63821 9.0605 6.64798 8.48119 7.77628 8.15991C7.80888 9.36669 7.81036 9.36812 9.0046 9.37028C10.0907 9.37172 11.1775 9.37243 12.2628 9.37315C13.4652 9.37315 13.4652 9.37315 13.4689 8.16207C14.778 8.42944 15.8885 9.19706 17.1665 9.54062C17.1687 9.946 17.1717 10.3521 17.1739 10.7575C16.8375 10.7905 16.5405 10.6734 16.236 10.5519C15.5003 10.2572 14.7521 9.99271 14.0149 9.70018C13.5904 9.532 13.2993 9.59094 13.2971 10.0869C13.2919 11.2771 12.894 12.3847 12.5784 13.5117C12.4643 13.5412 12.3473 13.5699 12.348 13.718C12.3688 19.6282 12.3903 25.5378 12.4117 31.4473C12.4095 32.8287 12.4066 34.2109 12.4029 35.593ZM11.3427 30.1507C11.3427 29.7223 11.3175 29.2918 11.3494 28.8656C11.3872 28.3531 11.199 28.1267 10.6493 28.1669C10.21 28.1993 9.76619 28.177 9.32465 28.1705C8.99349 28.1662 8.83569 28.3179 8.84606 28.6363C8.87421 29.5211 8.61195 30.3843 8.65715 31.2755C8.68233 31.7657 8.78087 32.0022 9.34909 31.9885C11.8161 31.9289 11.2768 32.3026 11.3427 30.1507Z" fill="#BCD644"/>
<path fill-rule="evenodd" clip-rule="evenodd" d="M52.2398 33.6848C52.302 33.6876 52.365 33.6898 52.4279 33.6927C52.4516 34.1979 52.4746 34.7039 52.4991 35.2092C52.3242 36.8162 52.3242 36.8162 50.5669 36.8162C42.2598 36.8162 33.9528 36.8062 25.6457 36.8335C24.8737 36.8356 24.5277 36.6567 24.6744 35.8862C24.8122 35.1653 24.4566 35.0855 23.8447 35.2437C23.4202 35.3536 22.9757 35.3896 22.54 35.4586C22.5082 33.536 22.5082 33.5302 24.4366 33.5295C29.2558 33.5281 34.075 33.5317 38.8942 33.5338C39.1075 33.7559 39.3883 33.6883 39.6461 33.6883C43.8438 33.6898 48.0414 33.6869 52.2398 33.6848Z" fill="#7DBE43"/>
<path fill-rule="evenodd" clip-rule="evenodd" d="M4.64602 10.9307C5.49651 10.5347 6.35515 10.1523 7.196 9.73686C7.682 9.4968 7.90425 9.60677 7.95537 10.1307C8.00278 10.6116 7.97982 11.1334 8.16873 11.5618C9.36223 14.2743 8.4384 17.0135 8.33616 19.7404C8.3006 20.6813 8.24133 21.6192 8.16058 22.5586C7.965 24.8328 7.95611 27.122 7.76053 29.3961C7.57902 31.5035 7.43011 33.608 7.40048 35.7211C6.02473 35.857 4.6601 35.6514 3.29102 35.5874C4.12595 29.0461 4.9594 22.5055 5.80174 15.9655C5.85137 15.5774 5.78321 15.2461 5.58763 14.9032C4.88309 13.6706 4.64009 12.3272 4.64602 10.9307ZM5.49651 32.1432C6.84781 32.1425 6.85522 32.1432 7.0382 30.8588C7.08265 30.5483 7.10044 30.2234 7.05895 29.9143C6.98338 29.3537 7.43011 28.6443 7.04932 28.2892C6.59962 27.8702 5.87804 28.3978 5.2624 28.3532C4.77196 28.3173 4.59935 28.5695 4.57119 29.0303C4.51934 29.8841 4.45562 30.7416 4.30894 31.5833C4.22892 32.044 4.37191 32.1568 4.78752 32.1439C5.02311 32.136 5.26018 32.1425 5.49651 32.1432Z" fill="#7EBE43"/>
<path fill-rule="evenodd" clip-rule="evenodd" d="M12.4023 35.593C12.4053 34.2108 12.4083 32.8287 12.412 31.4465C12.7053 31.1576 12.572 30.7932 12.572 30.4647C12.5816 25.2517 12.592 20.0379 12.5557 14.8248C12.5527 14.3856 12.9439 13.9479 12.5787 13.5102C12.8935 12.3839 13.2914 11.2756 13.2973 10.0854C13.2995 9.59014 13.5907 9.53049 14.0152 9.69868C14.7523 9.99121 15.5006 10.2557 16.2362 10.5504C16.5407 10.6719 16.8378 10.789 17.1741 10.7559C17.2682 12.3595 16.883 13.8257 15.8132 15.0807C15.602 15.3279 15.5806 15.5881 15.5843 15.8785C15.6643 21.6356 15.7421 27.3935 15.8206 33.1507C15.8236 33.3491 15.7999 33.5553 15.948 33.7243C15.9636 35.5908 15.9636 35.5916 14.0833 35.593C13.5232 35.5944 12.9632 35.593 12.4023 35.593ZM12.9395 30.1722C12.9402 32.2515 12.9402 32.2515 14.7916 32.1394C14.8797 32.1344 14.9686 32.1365 15.056 32.1293C15.2568 32.1135 15.3998 32.0136 15.4005 31.8138C15.4072 30.9858 15.405 30.1585 15.3946 29.3305C15.3916 29.089 15.1694 29.0165 14.9871 28.928C13.0261 27.9829 12.9372 28.0368 12.9395 30.1722Z" fill="#EDEB6C"/>
<path fill-rule="evenodd" clip-rule="evenodd" d="M28.0577 30.7762C27.1095 30.7762 26.1612 30.7762 25.041 30.7762C25.6693 30.2859 26.1552 29.9069 26.6412 29.528C27.4836 29.1987 28.1163 28.5458 28.9119 28.146C32.8873 28.1517 36.8619 28.1575 40.8373 28.1625C43.2028 28.169 45.5683 28.1755 47.9338 28.182C49.2474 28.9916 50.5609 29.8019 51.8744 30.6116C51.8736 30.6619 51.8699 30.7122 51.8618 30.7619C51.8048 30.7633 51.7477 30.7676 51.6914 30.7741C43.8133 30.7748 35.9359 30.7755 28.0577 30.7762Z" fill="#7DBE43"/>
<path fill-rule="evenodd" clip-rule="evenodd" d="M7.77658 8.15901C6.64902 8.48029 5.63925 9.05959 4.58429 9.54114C4.57984 9.51239 4.57317 9.48435 4.57169 9.45632C4.45094 6.48148 5.12881 5.61469 8.12774 4.83198C8.45223 4.74717 8.83895 4.81329 9.22641 4.4144C8.9686 4.22321 8.71671 4.03778 8.46483 3.85163C8.5315 3.84947 8.59744 3.84731 8.66411 3.84588C10.0873 3.84444 11.5112 3.84372 12.9351 3.84229C13.0099 3.84804 13.0855 3.85379 13.1603 3.85882C12.9462 4.04641 12.7321 4.234 12.3669 4.55599C15.2887 5.13745 17.8054 5.99131 17.1668 9.5397C15.8881 9.19615 14.7776 8.42854 13.4692 8.16117C11.5719 8.16117 9.67463 8.15973 7.77658 8.15901Z" fill="#7EBE43"/>
<path fill-rule="evenodd" clip-rule="evenodd" d="M47.9333 28.1825C45.5678 28.176 43.2023 28.1695 40.8375 28.1631C40.5671 27.8949 40.2204 28.0121 39.9092 28.0114C36.6799 28.0013 33.4498 28.007 30.2197 27.997C29.9093 27.9963 29.5611 28.1149 29.2959 27.8352C29.9071 27.1356 30.6576 26.8861 31.6214 26.9307C33.2631 27.0069 34.9122 26.9523 36.5584 26.9523C38.0371 26.8876 39.5277 27.1543 40.9968 26.802C42.1384 27.1327 43.3179 27.0012 44.458 26.9178C45.873 26.8157 46.9502 27.3096 47.9333 28.1825Z" fill="#BDD744"/>
<path fill-rule="evenodd" clip-rule="evenodd" d="M39.247 21.2642C39.5552 21.5164 39.8641 21.7687 40.1886 22.0339C39.2255 22.6283 39.227 22.6269 39.9486 23.4764C40.5672 24.2052 41.1917 24.9297 41.7911 25.6736C41.9259 25.8404 42.3823 26.0869 41.7889 26.2824C41.7155 26.2788 41.6429 26.2745 41.5696 26.2709C40.8495 25.9194 40.0782 26.1128 39.3389 26.1243C38.2439 26.1408 37.1327 25.9237 36.051 26.2644C35.9969 26.2695 35.9429 26.2738 35.8895 26.2781C35.8228 26.2795 35.7554 26.2802 35.6887 26.2817L35.6924 26.2845C35.6406 26.2249 35.588 26.1652 35.5361 26.1056C36.3318 24.8449 37.4342 23.8106 38.3061 22.5823C38.1113 22.2747 37.4883 22.4343 37.5038 22.0835C37.5209 21.6897 38.0291 21.5287 38.3217 21.2642C38.6292 21.1125 38.9373 21.0557 39.247 21.2642Z" fill="#BED747"/>
<path fill-rule="evenodd" clip-rule="evenodd" d="M13.161 3.86023C13.0855 3.85448 13.0106 3.84873 12.9358 3.8437C11.5119 3.57991 10.0888 3.57417 8.66485 3.84729C8.59817 3.84873 8.53224 3.85088 8.46556 3.85304C8.16775 3.6942 8.35518 3.52026 8.4589 3.36357C9.14418 2.33072 9.83687 1.30362 10.5221 0.27149C10.6881 0.0213641 10.8222 -0.161195 11.0748 0.213994C11.7979 1.29069 12.5409 2.35444 13.2744 3.42466C13.3988 3.60651 13.5011 3.78835 13.161 3.86023Z" fill="#BED747"/>
<path fill-rule="evenodd" clip-rule="evenodd" d="M20.231 28.0267C20.9429 28.9934 21.6556 29.9594 22.3683 30.9261C21.5734 30.929 20.777 30.9003 19.9843 30.9441C19.2353 30.9858 18.4641 30.7508 17.7388 31.0994C17.6165 31.0986 17.4943 31.0979 17.3721 31.0972C18.2292 29.9903 19.0997 28.8943 20.231 28.0267Z" fill="#EDEB6C"/>
<path fill-rule="evenodd" clip-rule="evenodd" d="M41.5684 26.2716C41.6417 26.2752 41.7143 26.2795 41.7876 26.2832C41.5891 26.5504 41.2757 26.6512 40.9972 26.8039C39.5288 27.1568 38.0375 26.8896 36.5588 26.9544C36.3321 26.7794 36.1046 26.6044 35.8779 26.4294C35.8779 26.3789 35.8809 26.3285 35.8883 26.2788C35.9424 26.2745 35.9965 26.2702 36.0498 26.2651C37.8901 26.2673 39.7288 26.2695 41.5684 26.2716Z" fill="#7EBE43"/>
<path fill-rule="evenodd" clip-rule="evenodd" d="M39.2468 21.2647C38.9378 21.0562 38.6289 21.1137 38.3207 21.2654C38.1288 21.2 37.9325 21.1439 37.7458 21.0662C37.6192 21.013 37.4658 20.9663 37.4739 20.7829C37.4843 20.5629 38.6956 19.6009 38.8615 19.7159C39.2905 20.0122 39.8558 20.2955 40.0328 20.7161C40.2173 21.1568 39.4853 21.0216 39.2468 21.2647Z" fill="#BCD75C"/>
<path fill-rule="evenodd" clip-rule="evenodd" d="M29.2966 27.8357C29.5611 28.1159 29.9093 27.9963 30.2204 27.9978C33.4505 28.0079 36.6799 28.0021 39.9099 28.0122C40.2211 28.0129 40.5678 27.8955 40.8382 28.1642C36.8628 28.1584 32.8875 28.1527 28.9121 28.1476C29.0403 28.0432 29.1684 27.9394 29.2966 27.8357Z" fill="#C3DB68"/>
<path fill-rule="evenodd" clip-rule="evenodd" d="M35.5353 26.1063C35.5872 26.1663 35.6398 26.2263 35.6916 26.2863C35.5916 26.2667 35.5086 26.2321 35.5353 26.1063Z" fill="#ADD367"/>
<path fill-rule="evenodd" clip-rule="evenodd" d="M35.8885 26.2788C35.8811 26.3287 35.8774 26.3794 35.8781 26.4301C35.8152 26.3808 35.7514 26.3316 35.6885 26.2817C35.7552 26.281 35.8218 26.2803 35.8885 26.2788Z" fill="#ADD367"/>
<path fill-rule="evenodd" clip-rule="evenodd" d="M51.8613 30.7625C51.8695 30.7126 51.8732 30.6619 51.8739 30.6113C51.9384 30.6598 52.0021 30.7089 52.0658 30.7581C51.9984 30.7596 51.9302 30.7603 51.8613 30.7625Z" fill="#BCD75C"/>
<path fill-rule="evenodd" clip-rule="evenodd" d="M28.0576 30.7751C35.9358 30.7744 43.8131 30.7737 51.6913 30.7737C51.4224 31.0464 51.0756 30.9314 50.7645 30.9314C43.505 30.9379 36.2454 30.9379 28.9859 30.9314C28.674 30.9299 28.3273 31.0457 28.0576 30.7751Z" fill="#BCD75C"/>
<path fill-rule="evenodd" clip-rule="evenodd" d="M52.2391 33.6857C48.0408 33.6879 43.8431 33.6908 39.6455 33.6894C39.3877 33.6894 39.1062 33.7573 38.8936 33.5339C43.0919 33.5303 47.2903 33.5259 51.4894 33.5252C51.7472 33.5252 52.0287 33.4572 52.2391 33.6857Z" fill="#A0CE67"/>
<path fill-rule="evenodd" clip-rule="evenodd" d="M21.4768 32.98C21.4212 33.2899 21.6035 33.7845 21.0916 33.7759C20.6307 33.768 20.5737 33.3229 20.5878 32.934C20.5996 32.5975 20.5493 32.169 21.0538 32.1927C21.5509 32.2157 21.4435 32.6593 21.4768 32.98Z" fill="#87C241"/>
<path fill-rule="evenodd" clip-rule="evenodd" d="M22.5453 31.1016C23.1269 30.937 23.7144 30.8802 24.5137 31.0009C23.7862 31.3589 23.2269 31.6335 22.6705 31.9066C22.4594 31.6248 22.5742 31.3603 22.5312 31.1174L22.5453 31.1016Z" fill="#7EBE43"/>
<path fill-rule="evenodd" clip-rule="evenodd" d="M18.8166 32.9292C18.7425 33.227 18.9596 33.6724 18.4299 33.6695C17.9713 33.6674 18.0943 33.2724 18.0928 33.0119C18.0913 32.7162 17.972 32.2701 18.4165 32.2384C18.9062 32.2046 18.7492 32.6709 18.8166 32.9292Z" fill="#7DBE43"/>
<path fill-rule="evenodd" clip-rule="evenodd" d="M17.7383 31.1006C18.4636 30.7498 19.2355 30.9863 19.9838 30.9444C20.7757 30.9003 21.5729 30.9292 22.3678 30.9263C22.4271 30.9856 22.4856 31.0442 22.5441 31.1027L22.5308 31.1179C20.9335 31.1129 19.3363 31.1063 17.7383 31.1006Z" fill="#DCE67E"/>
<path fill-rule="evenodd" clip-rule="evenodd" d="M11.3429 30.1507C11.277 32.3033 11.8163 31.9289 9.34857 31.9893C8.78034 32.0036 8.68181 31.7664 8.65662 31.2763C8.61142 30.3843 8.87368 29.5218 8.84553 28.637C8.83516 28.3186 8.99296 28.1669 9.32412 28.1713C9.76566 28.1777 10.2094 28.2 10.6487 28.1677C11.1985 28.1267 11.3874 28.3531 11.3488 28.8663C11.317 29.2918 11.3429 29.7216 11.3429 30.1507Z" fill="#7DBE43"/>
<path fill-rule="evenodd" clip-rule="evenodd" d="M7.77637 8.15894C9.67441 8.15965 11.5724 8.16037 13.4697 8.16109C13.4653 9.3728 13.4653 9.3728 12.2637 9.3728C11.1776 9.3728 10.0915 9.37209 9.00543 9.36993C7.81044 9.36849 7.80896 9.36705 7.77637 8.15894Z" fill="#EDEB6C"/>
<path fill-rule="evenodd" clip-rule="evenodd" d="M12.579 13.5109C12.945 13.9486 12.5531 14.3863 12.5561 14.8255C12.5924 20.0385 12.582 25.2516 12.5724 30.4655C12.5724 30.7939 12.705 31.1576 12.4123 31.4473C12.3909 25.537 12.3694 19.6274 12.3486 13.7179C12.3479 13.5684 12.4649 13.5403 12.579 13.5109Z" fill="#DCE67E"/>
<path fill-rule="evenodd" clip-rule="evenodd" d="M5.49662 32.1422C5.26029 32.1422 5.02322 32.1358 4.78689 32.143C4.37202 32.1559 4.22829 32.043 4.30831 31.5823C4.45499 30.7407 4.51871 29.8833 4.57056 29.0294C4.59872 28.5687 4.77133 28.3164 5.26177 28.3524C5.87741 28.3976 6.599 27.8694 7.04869 28.2884C7.43022 28.6434 6.98275 29.3528 7.05832 29.9134C7.09981 30.2225 7.08203 30.5474 7.03758 30.8578C6.85533 32.1429 6.84792 32.1422 5.49662 32.1422Z" fill="#BCD644"/>
<path fill-rule="evenodd" clip-rule="evenodd" d="M12.9395 30.1722C12.938 28.036 13.0261 27.9828 14.9879 28.9287C15.1709 29.0171 15.3924 29.089 15.3954 29.3312C15.4065 30.1585 15.408 30.9865 15.4013 31.8146C15.4006 32.0151 15.2568 32.1143 15.0568 32.1301C14.9686 32.1373 14.8805 32.1351 14.7923 32.1402C12.9402 32.2516 12.9402 32.2516 12.9395 30.1722Z" fill="#BED747"/>
<path fill-rule="evenodd" clip-rule="evenodd" d="M8.66406 3.84766C10.0872 3.57376 11.5111 3.57881 12.935 3.84404C11.5111 3.84548 10.0872 3.84621 8.66406 3.84766Z" fill="#B8D770"/>
<path fill-rule="evenodd" clip-rule="evenodd" d="M41.5684 26.2729C39.7288 26.2715 37.8893 26.2693 36.0498 26.2672C37.1307 25.9235 38.242 26.1427 39.3377 26.1261C40.0778 26.1138 40.8483 25.9191 41.5684 26.2729Z" fill="#ADD367"/>
</svg>
