<svg width="28" height="48" viewBox="0 0 28 48" fill="none" xmlns="http://www.w3.org/2000/svg">
<path fill-rule="evenodd" clip-rule="evenodd" d="M15.4543 7.6548C15.5719 11.352 15.6765 15.0492 15.8101 18.7451C16.0149 24.4402 16.24 30.1354 16.4477 35.8306C16.5188 37.7468 16.5668 39.6645 16.6234 41.5807C16.5493 41.592 16.4767 41.6047 16.4055 41.616C14.8515 41.616 13.2961 41.616 11.7421 41.616C11.6463 41.5991 11.5505 41.5836 11.4561 41.5666C11.7494 32.6406 12.0442 23.7132 12.3376 14.7858C12.4088 12.6497 12.4771 10.5137 12.5424 8.37762C12.5511 8.02537 12.6107 7.6548 12.2839 7.38286C12.4291 7.36173 12.5729 7.34059 12.7181 7.31946C13.0913 7.60549 13.527 7.40823 13.9279 7.466C14.4333 7.54349 14.9837 7.29128 15.4543 7.6548Z" fill="#BDD745"/>
<path fill-rule="evenodd" clip-rule="evenodd" d="M16.4054 41.6162C16.4781 41.6049 16.5507 41.5922 16.6233 41.5809C19.695 41.595 22.7651 41.6105 25.8368 41.626C26.1461 41.6274 26.4598 41.6232 26.7648 41.6599C27.3545 41.7318 27.8047 42.008 27.8148 42.6353C27.8235 43.2625 27.3704 43.5458 26.7997 43.66C26.5847 43.7037 26.3509 43.6769 26.1272 43.6811C25.8803 43.4796 25.5855 43.5599 25.3096 43.5599C17.7067 43.5557 10.101 43.5557 2.49811 43.5599C2.22362 43.5599 1.92737 43.481 1.68047 43.6783C1.5396 43.6797 1.3987 43.691 1.25783 43.6797C0.576694 43.6247 -0.010036 43.3879 0.000130173 42.6296C0.0102964 41.8586 0.634785 41.6401 1.3014 41.6345C3.5307 41.6148 5.76147 41.6317 7.99077 41.6218C9.14536 41.6162 10.3014 41.5852 11.4574 41.5654C11.5518 41.5823 11.6477 41.5979 11.7435 41.6148C13.2961 41.798 14.85 41.7966 16.4054 41.6162Z" fill="#EDEB6B"/>
<path fill-rule="evenodd" clip-rule="evenodd" d="M6.40895 46.2852C5.30374 45.197 4.09396 44.268 2.53418 43.8733C2.78688 43.6027 3.11803 43.7267 3.41284 43.7267C10.3999 43.7197 17.3855 43.7197 24.374 43.7267C24.6703 43.7267 25.0015 43.6126 25.2614 43.8635C23.7539 44.2004 22.5108 44.9277 21.635 46.1893C21.5784 46.2499 21.5217 46.3106 21.4651 46.3712L21.4317 46.3669C16.7654 46.3669 12.0991 46.3669 7.43139 46.3641C7.09591 46.3641 6.75168 46.4233 6.42637 46.2824L6.40895 46.2852Z" fill="#BDD744"/>
<path fill-rule="evenodd" clip-rule="evenodd" d="M21.4316 46.3644L21.465 46.3687C21.497 46.4025 21.5362 46.4166 21.5827 46.4124C23.0539 46.4166 24.5236 46.4222 25.9948 46.4265C26.3637 46.4279 26.7442 46.4138 27.0753 46.5843C27.5183 46.8141 27.7449 47.22 27.6403 47.6823C27.5459 48.0911 27.1189 47.8994 26.8473 47.9008C18.2206 47.9106 9.59387 47.9106 0.967137 47.9008C0.694102 47.9008 0.281616 48.0826 0.174145 47.671C0.0695783 47.2665 0.270001 46.9198 0.631627 46.6858C0.978729 46.4617 1.37377 46.4419 1.77316 46.4405C3.01779 46.4363 4.26243 46.4335 5.50561 46.4208C5.8106 46.418 6.13301 46.4899 6.40604 46.2799C6.40749 46.2799 6.42492 46.2756 6.42492 46.2756C6.59484 46.6773 6.96083 46.5011 7.23387 46.5026C11.6983 46.5138 16.1597 46.5124 20.6241 46.5082C20.9001 46.511 21.1964 46.5801 21.4316 46.3644Z" fill="#7DBD43"/>
<path fill-rule="evenodd" clip-rule="evenodd" d="M13.0416 5.48792C12.4868 4.9807 12.343 4.45514 12.9268 3.86197C13.0561 3.73093 13.1998 3.5196 13.1824 3.36038C13.0604 2.20081 14.0654 1.31879 13.9013 0C14.6943 0.84397 14.597 1.69781 14.5156 2.51782C14.4764 2.90529 14.5127 3.16876 14.8105 3.45055C15.448 4.05077 15.3434 4.77639 15.0719 5.50482C14.3936 5.67531 13.7169 5.67954 13.0416 5.48792Z" fill="#ECEB70"/>
<path fill-rule="evenodd" clip-rule="evenodd" d="M12.7182 7.32168C12.573 7.34282 12.4293 7.36396 12.284 7.3851C11.844 7.38088 11.3574 7.36397 11.3807 6.79171C11.4039 6.22791 11.873 6.21945 12.3203 6.26455C12.4554 6.27865 12.5905 6.29274 12.7226 6.30543C13.5679 6.30684 14.4131 6.30684 15.2584 6.30825C15.3891 6.29415 15.5198 6.27865 15.6505 6.26455C16.0993 6.21804 16.564 6.22368 16.5945 6.78889C16.6264 7.3682 16.1065 7.35551 15.6955 7.42175C14.7094 7.19341 13.7102 7.36115 12.7182 7.32168Z" fill="#7EBE44"/>
<path fill-rule="evenodd" clip-rule="evenodd" d="M25.2614 43.8629C25 43.6113 24.6702 43.7258 24.374 43.7258C17.3854 43.7187 10.3998 43.7187 3.41277 43.7258C3.11795 43.7258 2.78536 43.6015 2.53411 43.8728C2.21896 43.9251 1.96191 43.7484 1.67871 43.6778C1.92706 43.4799 2.22186 43.5591 2.49635 43.5591C10.0992 43.5548 17.705 43.5548 25.3078 43.5591C25.5823 43.5591 25.8786 43.4785 26.1255 43.6806C25.8394 43.7498 25.578 43.9265 25.2614 43.8629Z" fill="#E3E98A"/>
<path fill-rule="evenodd" clip-rule="evenodd" d="M12.7236 6.30631C12.59 6.2922 12.4549 6.27809 12.3213 6.26539C12.3547 5.82375 12.4578 5.4442 13.0431 5.48794C13.7184 5.67983 14.3952 5.67559 15.0719 5.50204C15.6166 5.50627 15.4772 5.99871 15.65 6.2668C15.5193 6.28091 15.3886 6.29644 15.2579 6.31055C14.4141 6.06645 13.5688 6.07067 12.7236 6.30631Z" fill="#BED746"/>
<path fill-rule="evenodd" clip-rule="evenodd" d="M12.7178 7.32113C13.7112 7.36069 14.7089 7.19254 15.6965 7.42286C15.6137 7.50058 15.5353 7.57829 15.4539 7.65601C14.9848 7.29145 14.4344 7.54438 13.9276 7.4695C13.5253 7.41015 13.091 7.60796 12.7178 7.32113Z" fill="#B3D677"/>
<path fill-rule="evenodd" clip-rule="evenodd" d="M21.5825 46.4137C21.536 46.4179 21.4968 46.4038 21.4648 46.3698C21.5215 46.3088 21.5781 46.2478 21.6348 46.1869C21.6173 46.262 21.5999 46.3386 21.5825 46.4137Z" fill="#BCD981"/>
<path fill-rule="evenodd" clip-rule="evenodd" d="M16.4056 41.616C14.8516 41.7961 13.2962 41.7975 11.7422 41.616C13.2962 41.616 14.8501 41.616 16.4056 41.616Z" fill="#EEF0A9"/>
<path fill-rule="evenodd" clip-rule="evenodd" d="M21.4315 46.3648C21.1962 46.5817 20.9 46.5122 20.624 46.5122C16.1611 46.5165 11.6982 46.5179 7.23375 46.5066C6.96072 46.5052 6.59618 46.6824 6.4248 46.2783C6.75158 46.4201 7.0943 46.3605 7.42978 46.3605C12.099 46.3662 16.7652 46.3648 21.4315 46.3648Z" fill="#BCD981"/>
<path fill-rule="evenodd" clip-rule="evenodd" d="M12.7236 6.30625C13.5689 6.06949 14.4141 6.06524 15.2593 6.30908C14.4141 6.30908 13.5689 6.30767 12.7236 6.30625Z" fill="#BED981"/>
</svg>
