<svg width="56" height="36" viewBox="0 0 56 36" fill="none" xmlns="http://www.w3.org/2000/svg">
<path fill-rule="evenodd" clip-rule="evenodd" d="M41.4475 11.893C41.8062 12.6567 42.1664 13.4218 42.5251 14.1855C42.5193 14.2728 42.5135 14.3602 42.5063 14.4476C42.5077 14.983 42.5106 15.5198 42.5121 16.0552C42.6558 17.8954 42.5905 19.7397 42.621 21.5813C42.5789 21.5954 42.5339 21.6095 42.4903 21.6207C39.6931 21.6137 36.8974 21.6052 34.1032 21.5982C34.093 21.3178 34.0829 21.0374 34.0741 20.757C34.0712 19.565 34.0683 18.373 34.0654 17.181C34.077 16.1834 34.0887 15.1844 34.0988 14.1869C36.7406 14.1869 39.3853 14.1869 42.0285 14.1869C39.7091 14.0375 37.3927 14.0418 35.0748 14.0319C34.7959 14.0305 34.4851 14.1446 34.2397 13.9023C35.175 12.4468 35.265 10.8448 35.2055 9.18355C35.1416 7.33355 35.191 5.4779 35.191 3.62508C35.191 2.15268 36.3136 0.623922 37.7775 0.104004C37.4479 1.24388 37.0746 2.3753 37.1763 3.58563C37.0035 3.72934 37.0339 3.9266 37.0339 4.11259C37.0325 5.62585 37.0339 7.13769 37.0368 8.65095C37.0368 8.83693 37.0064 9.03419 37.1763 9.17932C37.1792 9.88804 37.1908 10.5968 37.1763 11.3041C37.1676 11.7254 37.3491 11.9099 37.7848 11.8945C38.2713 11.879 38.7593 11.8874 39.2444 11.8846C39.9807 11.8874 40.7127 11.8902 41.4475 11.893ZM37.628 17.9714C37.628 18.9479 37.6279 18.9479 37.9082 19.0282C38.6213 19.2339 38.9452 19.0014 38.9495 18.2842C38.951 18.0236 38.9452 17.7629 38.951 17.5037C38.9626 17.0936 38.8043 16.7696 38.3526 16.7738C37.8821 16.7766 37.5815 17.0302 37.6265 17.5459C37.6381 17.6868 37.628 17.8291 37.628 17.9714ZM40.7199 18.0123C40.7199 17.777 40.7519 17.5361 40.7127 17.3064C40.6415 16.8907 40.3757 16.6695 39.9357 16.8048C39.6626 16.8893 39.5043 17.1218 39.5407 17.4163C39.6046 17.9418 39.3649 18.4956 39.6888 18.993C39.7164 19.0338 39.8253 19.024 39.8979 19.0366C40.6255 19.1606 40.7272 19.0366 40.7199 18.0123ZM37.031 17.9912C37.031 17.7559 37.0616 17.5149 37.0238 17.2853C36.9512 16.8442 36.5198 16.6343 36.1626 16.8358C35.8532 17.0105 35.6804 18.7365 35.9592 18.9577C36.0261 19.0113 36.1364 19.0197 36.2308 19.0338C36.9599 19.1479 37.0398 19.0451 37.031 17.9912Z" fill="#7DBD43"/>
<path fill-rule="evenodd" clip-rule="evenodd" d="M34.0272 11.9031C34.033 12.5695 34.0402 13.2359 34.0475 13.901C33.7832 14.0785 33.4855 14.0334 33.1935 14.0334C29.3987 14.0348 25.6023 14.0334 21.8074 14.0419C21.5228 14.0419 21.2178 13.9559 20.9564 14.1532C20.7545 14.3208 20.8242 14.5491 20.8242 14.7548C20.8227 16.3709 20.8286 17.987 20.8315 19.6031C20.8373 19.9933 20.8431 20.3836 20.8474 20.7725C20.8315 21.0472 20.8155 21.322 20.801 21.5953C17.9661 21.5953 15.1326 21.5953 12.2991 21.5953C12.2919 19.1226 12.2846 16.6485 12.2773 14.1743L12.3006 14.1828C14.8232 14.1799 17.3474 14.1828 19.8686 14.1687C20.1416 14.1673 20.4655 14.2997 20.6804 13.9968C20.6804 13.9573 20.6804 13.9165 20.6804 13.877C21.0159 13.2388 20.7109 12.5498 20.8489 11.896C22.2634 11.889 23.6765 11.8819 25.0911 11.8763C26.6625 11.8763 28.2354 11.8749 29.8082 11.8749C31.2126 11.8847 32.6199 11.8946 34.0272 11.9031ZM15.362 18.1124C15.362 17.8757 15.3504 17.6855 15.3649 17.4966C15.3984 17.0063 15.089 16.7879 14.662 16.771C14.2104 16.7541 14.0361 17.0641 14.0404 17.4783C14.0433 17.7615 14.0709 18.049 14.0346 18.3294C13.9635 18.8873 14.1857 19.0507 14.7652 19.055C15.6598 19.0648 15.2662 18.4491 15.362 18.1124ZM19.0495 18.0631C19.0495 17.8644 19.0379 17.7221 19.0524 17.5826C19.1032 17.0866 18.8534 16.7781 18.3669 16.7865C17.9254 16.795 17.6785 17.0838 17.7221 17.5544C17.7453 17.7883 17.7598 18.0306 17.7206 18.2603C17.5972 18.9704 17.9777 19.1015 18.5935 19.0423C19.4184 18.962 18.8796 18.342 19.0495 18.0631ZM17.1353 18.0011C17.1353 17.7658 17.1658 17.5248 17.1295 17.2952C17.0526 16.8203 16.5849 16.6146 16.216 16.8753C15.9488 17.0641 15.8108 18.7492 16.0577 18.9535C16.1231 19.0085 16.232 19.0197 16.3249 19.0352C17.0526 19.155 17.144 19.0409 17.1353 18.0011Z" fill="#7DBD43"/>
<path fill-rule="evenodd" clip-rule="evenodd" d="M12.288 35.3517C9.75948 35.3672 7.23247 35.3841 4.70254 35.3968C3.81954 35.401 2.93362 35.3714 2.05061 35.4066C1.53649 35.4278 1.384 35.2671 1.38981 34.7655C1.41595 32.4787 1.40144 30.1919 1.40144 27.9052C5.0177 27.9094 8.63395 27.915 12.2517 27.9207C12.2676 29.634 12.2822 31.3473 12.2967 33.0607C12.2938 33.8243 12.2909 34.588 12.288 35.3517Z" fill="#7DBD43"/>
<path fill-rule="evenodd" clip-rule="evenodd" d="M53.2724 27.9149C53.2695 30.2228 53.2651 32.5308 53.2622 34.8387C53.2622 35.1219 53.3247 35.4065 52.8483 35.4037C49.4412 35.3783 46.0355 35.3727 42.627 35.36C42.6357 32.8788 42.6444 30.3975 42.6531 27.9149C46.1924 27.9149 49.7316 27.9149 53.2724 27.9149Z" fill="#7DBD43"/>
<path fill-rule="evenodd" clip-rule="evenodd" d="M20.8215 35.3585C19.3953 35.4205 17.9691 35.4304 16.543 35.3543C16.5488 31.2048 16.556 27.0554 16.5633 22.9059C17.9793 22.9059 19.3939 22.9073 20.8099 22.9073C20.8215 24.6178 20.8331 26.3283 20.8433 28.0374C21.048 28.3037 21.3429 28.1811 21.5927 28.1811C25.4718 28.1896 29.3509 28.191 33.2286 28.1811C33.6686 28.1811 33.962 28.1938 33.9664 28.7673C33.9693 29.3675 33.6309 29.3323 33.2141 29.3309C29.3596 29.3252 25.5052 29.3238 21.6522 29.3337C21.3792 29.3337 21.0582 29.1956 20.8331 29.4816C20.8273 31.4415 20.8244 33.3986 20.8215 35.3585Z" fill="#7DBD43"/>
<path fill-rule="evenodd" clip-rule="evenodd" d="M42.6225 21.5814C42.592 19.7384 42.6559 17.8955 42.5136 16.0554C42.6966 15.5185 42.6995 14.9831 42.5078 14.4477C42.5151 14.3603 42.5209 14.273 42.5267 14.1856C42.8665 14.1588 43.2078 14.1405 43.5477 14.1039C44.3827 14.0137 45.1481 14.1518 45.8016 14.7084C48.7397 17.2121 51.6835 19.7145 54.6215 22.2183C54.7856 22.3578 54.9904 22.5085 54.8859 22.7495C54.7929 22.9664 54.5489 22.8904 54.363 22.896C54.045 22.9087 53.7269 22.9059 53.4089 22.9087C49.8202 22.9101 46.233 22.9129 42.6443 22.9143C42.6356 22.4719 42.6298 22.0266 42.6225 21.5814Z" fill="#EDEB6C"/>
<path fill-rule="evenodd" clip-rule="evenodd" d="M12.2764 14.1772C12.2836 16.65 12.2909 19.1242 12.2967 21.5984C12.2894 21.9844 12.2807 22.3719 12.272 22.758L12.2589 22.7721C8.67899 22.7721 5.09905 22.7721 1.51764 22.7735C1.12987 22.7819 0.753723 22.9341 0.352884 22.8003C0.0203045 22.6875 -0.024722 22.5241 0.180054 22.2775C0.318024 22.1127 0.476318 21.9591 0.638977 21.8182C3.31704 19.5116 5.9806 17.1924 8.679 14.9112C9.7145 14.0391 10.9577 13.8672 12.2764 14.1772Z" fill="#EDEB6C"/>
<path fill-rule="evenodd" clip-rule="evenodd" d="M38.3116 35.3586C36.8999 35.4333 35.4897 35.4163 34.0781 35.3586C34.0766 35.1162 34.0737 34.8725 34.0723 34.6301C34.0766 33.3437 34.0854 32.0573 34.0868 30.7709C34.0883 28.3643 34.0854 25.9578 34.0839 23.5512C34.0839 23.2187 34.0185 22.8693 34.5719 22.8833C35.8223 22.9186 37.0742 22.9214 38.3246 22.9369C38.3217 27.0779 38.3159 31.219 38.3116 35.3586Z" fill="#7DBD43"/>
<path fill-rule="evenodd" clip-rule="evenodd" d="M34.0727 34.6302C34.0741 34.8725 34.077 35.1163 34.0785 35.3587C33.4801 35.4981 32.8818 35.4742 32.2834 35.3572C32.2892 34.2892 32.3096 33.2212 32.2921 32.1545C32.2849 31.6262 31.6183 31.0597 31.0577 31.0513C30.4056 31.04 29.8043 31.5585 29.7985 32.17C29.7884 33.2381 29.8029 34.3047 29.8072 35.3727C29.4166 35.4756 29.0288 35.4827 28.6396 35.3657C28.641 34.323 28.6526 33.2804 28.641 32.2377C28.6352 31.5867 28.1051 31.0781 27.4414 31.0513C26.8271 31.0273 26.1474 31.629 26.143 32.2363C26.1343 33.2789 26.1503 34.3216 26.1576 35.3643C25.7509 35.4756 25.3443 35.4657 24.9347 35.3812C24.9463 34.3357 24.9652 33.2916 24.9652 32.2475C24.9667 31.5895 24.4453 31.0724 23.7903 31.0499C23.1252 31.0287 22.4701 31.6276 22.4672 32.2884C22.4585 33.3099 22.4731 34.3315 22.4774 35.353C21.9255 35.4826 21.3722 35.4869 20.8203 35.3572C20.8232 33.3987 20.8261 31.4402 20.8305 29.4816C24.9754 29.4788 29.1188 29.4859 33.2637 29.4605C33.8389 29.4563 33.9623 29.6564 33.9507 30.1664C33.9202 31.4021 33.9376 32.6407 33.9478 33.8778C33.9507 34.1314 33.8621 34.4062 34.0727 34.6302Z" fill="#E8E96D"/>
<path fill-rule="evenodd" clip-rule="evenodd" d="M38.3115 35.3587C38.3159 31.2191 38.3217 27.078 38.3246 22.9369C38.3391 22.8778 38.3522 22.82 38.3638 22.7608C39.4545 22.7594 40.5481 22.7129 41.6344 22.7693C42.3489 22.8059 42.6133 22.572 42.4971 21.9013C42.4797 21.8098 42.4927 21.7139 42.4913 21.6195C42.5349 21.6083 42.5799 21.5942 42.622 21.5801C42.6292 22.0239 42.6365 22.4692 42.6423 22.9144C42.6438 23.8091 42.6452 24.7053 42.6452 25.6C42.6452 25.6549 42.6452 25.7099 42.6438 25.7648C42.6467 26.4806 42.6496 27.1964 42.6525 27.9107C42.6438 30.3934 42.6351 32.8747 42.6264 35.3559C42.1849 35.4954 41.7404 35.4503 41.2946 35.3784C41.3062 34.3301 41.3236 33.2833 41.3251 32.2364C41.328 31.6136 40.8792 31.0542 40.4058 31.0542C39.9062 31.0542 39.4196 31.6375 39.4153 32.2786C39.4095 33.303 39.4211 34.3273 39.4269 35.3517C39.0566 35.4799 38.6848 35.4743 38.3115 35.3587ZM40.7209 25.7169C40.718 26.9695 40.7921 27.04 41.8189 26.9047C42.044 26.8751 42.1907 26.8244 42.1878 26.575C42.1848 26.0297 42.211 25.4844 42.1819 24.9406C42.1587 24.4995 41.8101 24.3305 41.4195 24.3431C41.0637 24.3544 40.7529 24.5221 40.7253 24.9349C40.7078 25.1956 40.7209 25.4577 40.7209 25.7169ZM38.785 25.7282C38.785 25.8705 38.8039 26.0142 38.7806 26.1537C38.6949 26.7258 38.8997 26.9427 39.5329 26.9244C40.0848 26.9089 40.3477 26.799 40.2751 26.2143C40.2286 25.8409 40.2852 25.4562 40.2591 25.08C40.2286 24.6094 39.9352 24.3319 39.4559 24.3375C38.9883 24.3431 38.7719 24.6362 38.7835 25.0899C38.7908 25.3013 38.7864 25.5154 38.785 25.7282Z" fill="#E8E96D"/>
<path fill-rule="evenodd" clip-rule="evenodd" d="M20.6782 13.88C20.6782 13.9195 20.6782 13.9603 20.6782 13.9998C17.9217 14.011 15.1637 14.0209 12.4072 14.0308C12.4101 14.0068 12.4058 13.9786 12.4189 13.9603C13.4122 12.4315 13.3977 10.7323 13.3483 9.01045C13.2932 7.13224 13.3207 5.25121 13.3164 3.37018C13.312 2.01752 14.8195 0.306978 16.2428 0.0505371C15.6386 1.03826 15.4455 2.15138 15.3946 3.25464C15.3133 4.98913 15.3787 6.72926 15.3845 8.46798C15.4411 9.17671 15.2146 9.90377 15.5181 10.597C15.5181 11.8933 15.5181 11.8947 16.8542 11.8905C17.0474 11.8905 17.2405 11.8848 17.4322 11.8806C18.1903 11.8905 18.9499 11.9003 19.7066 11.9088C20.0304 12.5696 20.3557 13.2248 20.6782 13.88Z" fill="#7FBE44"/>
<path fill-rule="evenodd" clip-rule="evenodd" d="M16.5619 22.9044C16.5546 27.0539 16.5474 31.2034 16.5416 35.3529C16.1988 35.3501 15.8546 35.3473 15.5119 35.3445C15.509 34.3709 15.4828 33.3958 15.509 32.4222C15.5264 31.8065 15.3042 31.3246 14.7233 31.109C14.1162 30.8836 13.8853 31.4317 13.5716 31.7755C13.3755 31.9742 13.4569 32.2236 13.4554 32.4518C13.4467 33.4212 13.4511 34.3906 13.4511 35.36C13.1069 35.3586 12.7627 35.3558 12.4199 35.3529C12.3458 34.5893 12.5709 33.8115 12.295 33.0605C12.2805 31.3472 12.2645 29.6338 12.25 27.9205C12.2558 27.2019 12.2587 26.4833 12.2631 25.7647C12.2616 25.7098 12.2587 25.6534 12.2572 25.5984C12.2572 24.6572 12.2587 23.7146 12.2587 22.7734L12.2718 22.7593C13.3755 22.7593 14.4793 22.7466 15.5801 22.7635C15.9098 22.7678 16.2714 22.6297 16.5619 22.9044ZM16.1306 25.8098C16.1306 25.597 16.1204 25.3843 16.132 25.1715C16.1582 24.7051 15.9897 24.3458 15.4712 24.3388C14.9121 24.3318 14.6463 24.6713 14.6492 25.2081C14.6507 25.5153 14.6768 25.8253 14.6434 26.1296C14.5853 26.6707 14.7073 26.9384 15.3725 26.9257C15.981 26.9144 16.2293 26.751 16.1335 26.162C16.1146 26.0493 16.1306 25.9281 16.1306 25.8098ZM12.722 25.8183C12.873 26.1818 12.3066 26.9511 13.4147 26.9285C14.0741 26.9144 14.2832 26.7341 14.2048 26.124C14.1612 25.7746 14.1859 25.4167 14.1975 25.063C14.215 24.5797 13.9143 24.3543 13.4859 24.3458C13.043 24.3374 12.7714 24.6107 12.7292 25.0489C12.7046 25.28 12.722 25.5181 12.722 25.8183Z" fill="#EBEA6B"/>
<path fill-rule="evenodd" clip-rule="evenodd" d="M27.4745 4.19586C27.701 4.093 27.7838 4.28321 27.8826 4.40015C29.8897 6.80104 31.8924 9.20615 33.8937 11.6113C33.9242 11.6451 33.93 11.6972 33.9474 11.7409C32.5692 11.7423 31.1895 11.7451 29.8084 11.7465C28.7671 11.7451 27.7228 11.7606 26.6815 11.7324C26.2066 11.7198 25.707 11.8733 25.2539 11.6113C25.6228 10.4108 26.0106 9.21461 26.3606 8.00994C26.728 6.73905 27.2319 5.50338 27.4745 4.19586Z" fill="#9FCA44"/>
<path fill-rule="evenodd" clip-rule="evenodd" d="M12.2589 22.7721C12.2589 23.7136 12.2574 24.6565 12.2574 25.598C8.68328 25.6009 5.10914 25.6051 1.535 25.6079C1.52919 24.6636 1.52339 23.7178 1.51758 22.7721C5.10043 22.7735 8.68038 22.7721 12.2589 22.7721Z" fill="#7FBE44"/>
<path fill-rule="evenodd" clip-rule="evenodd" d="M42.6445 25.6037C42.6445 24.7087 42.6431 23.8122 42.6416 22.9171C46.2303 22.9157 49.8175 22.9129 53.4061 22.9115C53.3974 23.8136 53.3887 24.7143 53.3815 25.615C49.8044 25.6108 46.2245 25.6065 42.6445 25.6037Z" fill="#7DBD43"/>
<path fill-rule="evenodd" clip-rule="evenodd" d="M37.1791 3.58559C37.0774 2.37525 37.4521 1.24381 37.7803 0.103921C38.1289 -0.0214808 38.4745 -0.0595326 38.81 0.139138C38.8681 0.318082 38.9059 0.505488 38.9887 0.67316C39.6495 2.05258 39.6262 3.55458 39.6248 5.00164C39.6219 7.2955 39.3866 9.58937 39.2472 11.8847C38.7621 11.8875 38.2741 11.879 37.7876 11.8945C37.3519 11.9086 37.1704 11.7254 37.1791 11.3041C37.1936 10.5968 37.182 9.88808 37.1791 9.17935C37.1791 7.31523 37.1791 5.44971 37.1791 3.58559Z" fill="#BDD744"/>
<path fill-rule="evenodd" clip-rule="evenodd" d="M12.2632 25.7648C12.2588 26.4836 12.2559 27.2024 12.2501 27.9213C8.63387 27.917 5.01761 27.9114 1.3999 27.9058C0.906112 27.8592 0.245305 28.0298 0.0376248 27.4857C-0.151176 26.9882 0.415225 26.664 0.7449 26.3314C0.962747 26.1115 1.22707 25.9339 1.47106 25.7366C5.06843 25.7464 8.66581 25.7563 12.2632 25.7648Z" fill="#BDD747"/>
<path fill-rule="evenodd" clip-rule="evenodd" d="M42.6513 27.9145C42.6484 27.1984 42.6455 26.4824 42.6426 25.7678C46.2356 25.7607 49.8257 25.7551 53.4173 25.748C53.8646 26.2132 54.3105 26.6783 54.7578 27.1435C54.9088 27.3013 55.0845 27.4747 55.0003 27.7002C54.8914 27.9948 54.5951 27.8919 54.3642 27.9018C54.0011 27.9173 53.6351 27.9131 53.2706 27.9159C49.7313 27.9159 46.192 27.9159 42.6513 27.9145Z" fill="#BDD744"/>
<path fill-rule="evenodd" clip-rule="evenodd" d="M17.4306 11.8847C17.2375 11.8875 17.0443 11.8932 16.8526 11.8946C15.5165 11.8988 15.5165 11.8974 15.5165 10.6011C15.4439 9.89384 15.669 9.1668 15.3829 8.47217C15.3771 6.73349 15.3117 4.99341 15.393 3.25895C15.4439 2.15431 15.637 1.04122 16.2412 0.0549298C16.5084 -0.0127013 16.7669 -0.0197426 17.0138 0.126791C17.4277 1.49773 17.6035 2.9067 17.7371 4.32273C17.7371 5.31888 17.7371 6.31362 17.7371 7.30977C17.6354 8.83288 17.5323 10.3588 17.4306 11.8847Z" fill="#BDD744"/>
<path fill-rule="evenodd" clip-rule="evenodd" d="M17.4305 11.8847C17.5321 10.3587 17.6353 8.83278 17.7369 7.30684C17.9635 6.31068 17.9606 5.31592 17.7369 4.31976C17.6033 2.90372 17.4276 1.49473 17.0137 0.123779C18.3004 0.392897 19.76 2.11046 19.7542 3.36587C19.7426 6.21486 19.7237 9.06385 19.7062 11.9128C18.9481 11.9044 18.1886 11.8945 17.4305 11.8847Z" fill="#EDEB71"/>
<path fill-rule="evenodd" clip-rule="evenodd" d="M39.2467 11.8848C39.3861 9.59093 39.6214 7.29706 39.6243 5.00178C39.6272 3.55473 39.6505 2.05273 38.9882 0.673305C38.9054 0.504224 38.8677 0.318227 38.8096 0.139282C40.0281 0.392904 41.4557 2.04004 41.4557 3.20248C41.4557 6.0994 41.4499 8.99492 41.447 11.8918C40.7121 11.8904 39.9801 11.8876 39.2467 11.8848Z" fill="#EDEB6C"/>
<path fill-rule="evenodd" clip-rule="evenodd" d="M27.475 4.19592C27.2325 5.50207 26.7285 6.73776 26.3596 8.0115C26.0096 9.2162 25.6218 10.4124 25.253 11.6129C25.2021 11.6566 25.1513 11.7017 25.1005 11.7454C23.7193 11.7454 22.3382 11.7454 20.957 11.7439C23.0818 9.18801 25.221 6.64618 27.475 4.19592Z" fill="#EDEB6C"/>
<path fill-rule="evenodd" clip-rule="evenodd" d="M22.4787 35.3544C22.4744 34.3329 22.4598 33.3113 22.4686 32.2898C22.4715 31.6276 23.1264 31.0287 23.7916 31.0513C24.4451 31.0724 24.968 31.5895 24.9665 32.2489C24.9651 33.293 24.9462 34.3371 24.936 35.3826C24.1169 35.4192 23.2964 35.4685 22.4787 35.3544Z" fill="#7FBE44"/>
<path fill-rule="evenodd" clip-rule="evenodd" d="M26.1577 35.3656C26.1504 34.323 26.1344 33.2803 26.1432 32.2377C26.1475 31.629 26.8272 31.0287 27.4415 31.0527C28.1052 31.0795 28.6353 31.5867 28.6411 32.2391C28.6528 33.2817 28.6411 34.3244 28.6397 35.367C27.8119 35.4008 26.984 35.4572 26.1577 35.3656Z" fill="#7FBE44"/>
<path fill-rule="evenodd" clip-rule="evenodd" d="M29.8072 35.3726C29.8028 34.3046 29.7883 33.238 29.7985 32.17C29.8043 31.5586 30.4055 31.0401 31.0576 31.0513C31.6182 31.0598 32.2848 31.6262 32.2921 32.1545C32.3095 33.2211 32.2892 34.2891 32.2834 35.3571C31.457 35.4586 30.6321 35.3924 29.8072 35.3726Z" fill="#7FBE44"/>
<path fill-rule="evenodd" clip-rule="evenodd" d="M39.4282 35.3543C39.4224 34.33 39.4108 33.3056 39.4166 32.2813C39.421 31.6388 39.9075 31.0555 40.4071 31.0569C40.8806 31.0569 41.3293 31.6163 41.3264 32.239C41.3235 33.2873 41.3061 34.3342 41.2959 35.3811C40.6714 35.4191 40.0484 35.4656 39.4282 35.3543Z" fill="#7FBE44"/>
<path fill-rule="evenodd" clip-rule="evenodd" d="M13.5732 31.7769C13.8869 31.4331 14.1178 30.885 14.7249 31.1104C15.3058 31.326 15.528 31.8079 15.5106 32.4236C15.4845 33.3972 15.5106 34.3709 15.5135 35.3459C14.8672 35.4375 14.218 35.4191 13.5703 35.3586C13.5718 34.1651 13.5732 32.9703 13.5732 31.7769Z" fill="#7FBE44"/>
<path fill-rule="evenodd" clip-rule="evenodd" d="M20.957 14.1561C21.2184 13.9576 21.5234 14.0441 21.8081 14.0441C25.603 14.037 29.3993 14.0384 33.1942 14.0356C33.4861 14.0356 33.7838 14.081 34.0482 13.9023C34.1135 13.9023 34.1774 13.9023 34.2428 13.9023C34.4882 14.1462 34.799 14.0314 35.0779 14.0328C37.3957 14.0427 39.7122 14.0384 42.0315 14.1887C39.3883 14.1887 36.7437 14.1887 34.1019 14.1887C33.5878 14.1845 33.0722 14.1788 32.5581 14.1774C28.6906 14.1703 24.8231 14.1632 20.957 14.1561Z" fill="#9BCA60"/>
<path fill-rule="evenodd" clip-rule="evenodd" d="M12.2628 25.7659C8.66401 25.7574 5.06808 25.7474 1.4707 25.7375C1.49249 25.695 1.51283 25.651 1.53461 25.6084C5.10876 25.6056 8.6829 25.6013 12.257 25.5985C12.2585 25.6538 12.2614 25.7106 12.2628 25.7659Z" fill="#B9D76B"/>
<path fill-rule="evenodd" clip-rule="evenodd" d="M53.4173 25.7487C49.8257 25.7544 46.2356 25.7615 42.6426 25.7686C42.644 25.7133 42.644 25.658 42.644 25.6028C46.224 25.6056 49.8039 25.6099 53.3824 25.6141C53.4071 25.6552 53.4173 25.7005 53.4173 25.7487Z" fill="#B9D76B"/>
<path fill-rule="evenodd" clip-rule="evenodd" d="M12.4068 14.0323C15.1633 14.0224 17.9212 14.011 20.6777 14.0011C20.4642 14.3046 20.1389 14.1727 19.8659 14.1741C17.3446 14.1869 14.8205 14.1854 12.2979 14.1883C12.3356 14.1358 12.3719 14.0833 12.4068 14.0323Z" fill="#9BCA60"/>
<path fill-rule="evenodd" clip-rule="evenodd" d="M20.958 11.7439C22.3377 11.7439 23.7189 11.7439 25.1015 11.7453C25.1015 11.7907 25.0986 11.8346 25.0899 11.8799C23.6753 11.8856 22.2622 11.8927 20.8477 11.8998C20.884 11.8488 20.9203 11.7963 20.958 11.7439Z" fill="#E5E987"/>
<path fill-rule="evenodd" clip-rule="evenodd" d="M29.8091 11.7481C31.1888 11.7467 32.5685 11.7438 33.9482 11.7424C34.0222 11.7736 34.0614 11.8219 34.028 11.9055C32.6208 11.897 31.2135 11.8871 29.8076 11.8786C29.8091 11.8346 29.8105 11.7921 29.8091 11.7481Z" fill="#9BCA60"/>
<path fill-rule="evenodd" clip-rule="evenodd" d="M13.5731 31.777C13.5731 32.9704 13.5717 34.1651 13.5702 35.3585L13.5121 35.3768L13.4525 35.3613C13.4525 34.392 13.4482 33.4226 13.4569 32.4533C13.4584 32.225 13.377 31.9756 13.5731 31.777Z" fill="#E8E96D"/>
<path fill-rule="evenodd" clip-rule="evenodd" d="M12.2968 33.0604C12.5727 33.8131 12.3476 34.5912 12.4217 35.3537L12.3535 35.3678L12.2881 35.3523C12.291 34.5883 12.2939 33.8244 12.2968 33.0604Z" fill="#E8E96D"/>
<path fill-rule="evenodd" clip-rule="evenodd" d="M20.957 14.1547C24.823 14.1617 28.6905 14.1688 32.558 14.1772C33.0721 14.1786 33.5863 14.1842 34.1018 14.1885C34.0902 15.186 34.0786 16.185 34.0699 17.1826C33.8186 17.7772 33.9682 18.4 33.961 19.0073C33.9566 19.4638 33.8215 19.6286 33.3321 19.6258C29.1669 19.6061 25.0002 19.6089 20.8335 19.6047C20.8306 17.9886 20.8248 16.3724 20.8263 14.7563C20.8248 14.5506 20.7551 14.3209 20.957 14.1547ZM28.0457 17.1601C28.0457 16.9938 28.037 16.8261 28.0457 16.6613C28.0689 16.2048 27.8671 15.9018 27.3849 15.9018C26.9027 15.9018 26.7038 16.2034 26.7197 16.6613C26.7328 17.0178 26.7386 17.3756 26.7183 17.7321C26.7009 18.0787 26.8635 18.1717 27.2005 18.1858C28.0457 18.2196 28.0457 18.2351 28.0457 17.1601ZM26.1417 17.2531C26.1417 17.0065 26.1359 16.8163 26.1432 16.6275C26.1562 16.2104 25.9805 15.906 25.5303 15.9089C25.0859 15.9117 24.8056 16.1512 24.8201 16.6303C24.8288 16.8909 24.8535 17.1572 24.8143 17.4123C24.7126 18.059 24.9987 18.221 25.632 18.1915C26.5033 18.152 25.982 17.5278 26.1417 17.2531ZM28.6092 17.0812C28.6092 17.2728 28.6237 17.4165 28.6063 17.556C28.5555 17.9914 28.6934 18.1858 29.1988 18.1915C29.7275 18.1957 29.8989 18.0069 29.8364 17.5306C29.819 17.3911 29.8422 17.2474 29.8335 17.1065C29.8001 16.6204 30.0223 15.9117 29.209 15.9244C28.403 15.9385 28.66 16.6542 28.6092 17.0812Z" fill="#EBEA6B"/>
<path fill-rule="evenodd" clip-rule="evenodd" d="M20.832 19.6045C24.9987 19.6088 29.1654 19.6059 33.3306 19.6257C33.8201 19.6271 33.9551 19.4636 33.9595 19.0071C33.9667 18.3999 33.8171 17.7771 34.0684 17.1825C34.0699 18.3745 34.0728 19.5665 34.0757 20.7585C34.0263 20.7613 33.9769 20.7641 33.9275 20.7683C29.5677 20.7698 25.2078 20.7726 20.8465 20.7754C20.8436 20.3851 20.8378 19.9948 20.832 19.6045Z" fill="#BDD747"/>
<path fill-rule="evenodd" clip-rule="evenodd" d="M42.4918 21.621C42.4932 21.7154 42.4801 21.8113 42.4976 21.9029C42.6137 22.5739 42.3494 22.8079 41.6349 22.7712C40.5485 22.7148 39.455 22.7599 38.3643 22.7628C37.3404 22.7628 36.318 22.7755 35.2955 22.7599C34.0364 22.7402 34.0654 23.032 34.1046 21.5999C36.8989 21.6055 39.6946 21.6139 42.4918 21.621Z" fill="#B8D54A"/>
<path fill-rule="evenodd" clip-rule="evenodd" d="M34.1032 21.5984C34.0655 23.0299 34.035 22.7383 35.2941 22.758C36.3166 22.7735 37.339 22.7608 38.3629 22.7608C38.3498 22.82 38.3367 22.8777 38.3236 22.9369C37.0732 22.9214 35.8213 22.9186 34.5709 22.8834C34.0175 22.8679 34.0829 23.2173 34.0829 23.5513C34.0843 25.9578 34.0872 28.3644 34.0858 30.771C34.0843 32.0574 34.0756 33.3438 34.0713 34.6302C33.8607 34.4062 33.9493 34.1315 33.9464 33.8778C33.9362 32.6407 33.9173 31.4036 33.9493 30.1665C33.9624 29.6565 33.8389 29.4564 33.2623 29.4606C29.1174 29.486 24.974 29.4789 20.8291 29.4817C21.0542 29.1957 21.3752 29.3352 21.6482 29.3338C25.5012 29.3239 29.3556 29.3253 33.2101 29.331C33.6254 29.331 33.9653 29.3662 33.9624 28.7674C33.958 28.1953 33.6646 28.1812 33.2246 28.1812C29.3469 28.1897 25.4678 28.1897 21.5887 28.1812C21.3389 28.1812 21.044 28.3038 20.8393 28.0375C21.7135 28.0403 22.5864 28.0431 23.4607 28.046C23.9225 28.0488 24.3858 28.0375 24.8476 28.0615C25.2528 28.0826 25.4184 27.9361 25.4039 27.5331C25.3763 26.7074 25.3835 25.8789 25.3763 25.0518C25.7408 25.7437 25.5259 26.4848 25.5172 27.1949C25.5084 27.867 25.6842 28.1714 26.4016 28.0446C26.8649 28.0488 27.3311 28.0347 27.7929 28.0615C28.2112 28.0868 28.3492 27.9206 28.339 27.5246C28.3216 26.7426 28.3448 25.9606 28.3506 25.1786C28.6353 25.8874 28.4697 26.6271 28.461 27.3485C28.4552 27.9248 28.6484 28.1305 29.2148 28.046C29.9032 28.046 30.5901 28.0446 31.2785 28.0446C31.9422 28.046 32.6059 28.0206 33.2682 28.0558C33.7736 28.0826 33.9536 27.929 33.9464 27.4176C33.9159 25.2012 33.9275 22.9848 33.9246 20.7699C33.9725 20.7671 34.0219 20.7628 34.0727 20.76C34.0843 21.0376 34.0945 21.318 34.1032 21.5984Z" fill="#B9D76B"/>
<path fill-rule="evenodd" clip-rule="evenodd" d="M37.628 17.9722C37.628 17.8298 37.6381 17.6874 37.6265 17.5465C37.5815 17.0305 37.8821 16.7782 38.3527 16.7739C38.8058 16.7711 38.9627 17.0954 38.951 17.5042C38.9452 17.765 38.951 18.0258 38.9496 18.2851C38.9452 19.0027 38.6214 19.2353 37.9083 19.0294C37.628 18.9491 37.628 18.9491 37.628 17.9722Z" fill="#BDD744"/>
<path fill-rule="evenodd" clip-rule="evenodd" d="M40.7194 18.0129C40.7267 19.0376 40.625 19.1616 39.896 19.0362C39.8234 19.0235 39.7144 19.0334 39.6868 18.9925C39.363 18.4935 39.6026 17.941 39.5387 17.4153C39.5039 17.1221 39.6622 16.8882 39.9337 16.8036C40.3738 16.6683 40.6396 16.8896 40.7107 17.3054C40.7528 17.5351 40.7194 17.7761 40.7194 18.0129Z" fill="#BDD744"/>
<path fill-rule="evenodd" clip-rule="evenodd" d="M37.0305 17.9918C37.0392 19.0461 36.9593 19.149 36.2303 19.0348C36.1373 19.0207 36.0255 19.0123 35.9587 18.9587C35.6798 18.7374 35.8527 17.0107 36.162 16.8359C36.5193 16.633 36.9506 16.8444 37.0232 17.2856C37.0624 17.5153 37.0305 17.7564 37.0305 17.9918Z" fill="#BDD744"/>
<path fill-rule="evenodd" clip-rule="evenodd" d="M37.1796 3.58582C37.1796 5.44989 37.1796 7.31537 37.1796 9.17944C37.0096 9.03432 37.0402 8.83706 37.0402 8.65108C37.0373 7.13784 37.0358 5.62601 37.0372 4.11277C37.0372 3.92679 37.0067 3.72953 37.1796 3.58582Z" fill="#B9D76B"/>
<path fill-rule="evenodd" clip-rule="evenodd" d="M42.5078 14.4479C42.6995 14.9835 42.6966 15.519 42.5136 16.056C42.5122 15.5204 42.5093 14.9835 42.5078 14.4479Z" fill="#9BCA60"/>
<path fill-rule="evenodd" clip-rule="evenodd" d="M29.2174 28.0445C28.651 28.129 28.4593 27.9233 28.4637 27.347C28.4724 26.6256 28.6379 25.8873 28.3533 25.1772C28.0236 24.7333 27.6126 24.4699 27.0317 24.6728C26.4304 24.8827 26.3941 25.3674 26.4101 25.9C26.4362 26.6129 26.4086 27.3287 26.4043 28.0431C25.6868 28.1713 25.5111 27.8669 25.5198 27.1934C25.5285 26.4833 25.7435 25.7436 25.3789 25.0504C25.013 24.7009 24.6208 24.4586 24.0762 24.6812C23.488 24.9207 23.4517 25.3871 23.4692 25.9155C23.4924 26.6242 23.4663 27.3357 23.4633 28.0459C22.5891 28.0431 21.7162 28.0402 20.8419 28.0374C20.8303 26.3283 20.8187 24.6178 20.8085 22.9073C20.8056 22.4705 20.8027 22.0351 20.7998 21.5983C20.8143 21.3236 20.8303 21.0488 20.8463 20.7755C25.2076 20.7741 29.5674 20.7713 33.9273 20.7684C33.9302 22.9848 33.9186 25.2011 33.9491 27.4161C33.9563 27.9275 33.7762 28.0811 33.2708 28.0543C32.6086 28.0191 31.9449 28.0445 31.2811 28.0431C31.2782 27.2371 31.284 26.4312 31.2681 25.6266C31.255 25.0588 30.815 24.6206 30.2761 24.6051C29.6589 24.5882 29.245 24.9799 29.2319 25.6281C29.216 26.4326 29.2218 27.2385 29.2174 28.0445Z" fill="#EBEA6B"/>
<path fill-rule="evenodd" clip-rule="evenodd" d="M20.7995 21.5983C20.8024 22.0354 20.8053 22.4725 20.8082 22.9082C19.3922 22.9082 17.9776 22.9068 16.5616 22.9068C16.2711 22.6318 15.9095 22.77 15.5799 22.7644C14.4775 22.7461 13.3738 22.7587 12.2715 22.7601C12.2802 22.3738 12.2889 21.986 12.2962 21.5997C15.1311 21.5983 17.9645 21.5983 20.7995 21.5983Z" fill="#BDD747"/>
<path fill-rule="evenodd" clip-rule="evenodd" d="M15.3627 18.1131C15.2669 18.4499 15.6605 19.0645 14.7658 19.0574C14.1863 19.0532 13.9641 18.8897 14.0353 18.3315C14.0702 18.0511 14.044 17.7635 14.0411 17.4802C14.0367 17.0658 14.211 16.7557 14.6627 16.7726C15.0897 16.7881 15.4005 17.008 15.3656 17.4985C15.3511 17.6874 15.3627 17.8763 15.3627 18.1131Z" fill="#BDD744"/>
<path fill-rule="evenodd" clip-rule="evenodd" d="M19.0503 18.0634C18.8804 18.3425 19.4192 18.964 18.5943 19.0429C17.9785 19.1021 17.598 18.971 17.7214 18.2607C17.7607 18.031 17.7461 17.7886 17.7229 17.5546C17.6808 17.0853 17.9277 16.795 18.3677 16.7865C18.8542 16.7781 19.104 17.0882 19.0532 17.5828C19.0387 17.7224 19.0503 17.8647 19.0503 18.0634Z" fill="#BDD744"/>
<path fill-rule="evenodd" clip-rule="evenodd" d="M17.1354 18.0017C17.1441 19.0419 17.0526 19.1561 16.3236 19.0349C16.2321 19.0194 16.1217 19.0067 16.0563 18.9531C15.8094 18.7488 15.9489 17.063 16.2146 16.8742C16.5835 16.6134 17.0512 16.8192 17.1281 17.2942C17.1659 17.5253 17.1354 17.765 17.1354 18.0017Z" fill="#BDD744"/>
<path fill-rule="evenodd" clip-rule="evenodd" d="M29.8089 11.7488C29.8103 11.7927 29.8089 11.8367 29.806 11.8792C28.2331 11.8792 26.6603 11.8806 25.0889 11.8806C25.0976 11.8352 25.1005 11.7913 25.1005 11.7459C25.1513 11.702 25.2021 11.6566 25.253 11.6127C25.7075 11.8764 26.2057 11.7218 26.6806 11.7346C27.7248 11.7629 28.769 11.7459 29.8089 11.7488Z" fill="#B9D76B"/>
<path fill-rule="evenodd" clip-rule="evenodd" d="M40.7215 25.7173C40.7215 25.4565 40.7084 25.1958 40.7259 24.9351C40.7535 24.5221 41.0628 24.3543 41.4201 24.3431C41.8122 24.3304 42.1608 24.4981 42.1826 24.9407C42.2116 25.4847 42.1855 26.0302 42.1884 26.5757C42.1913 26.8251 42.0446 26.8759 41.8195 26.9055C40.7927 27.0422 40.7186 26.9703 40.7215 25.7173Z" fill="#7DBD43"/>
<path fill-rule="evenodd" clip-rule="evenodd" d="M38.7851 25.7285C38.7866 25.5157 38.7909 25.3028 38.7837 25.09C38.7721 24.6362 38.9885 24.343 39.4561 24.3374C39.9354 24.3317 40.2273 24.6094 40.2593 25.0801C40.2854 25.4565 40.2288 25.8412 40.2752 26.2147C40.3478 26.7997 40.085 26.9096 39.5331 26.9251C38.8999 26.9434 38.6965 26.725 38.7808 26.1541C38.804 26.0146 38.7851 25.8694 38.7851 25.7285Z" fill="#81BF42"/>
<path fill-rule="evenodd" clip-rule="evenodd" d="M15.3831 8.47205C15.6692 9.1683 15.4441 9.89415 15.5167 10.6017C15.2131 9.90684 15.4397 9.18099 15.3831 8.47205Z" fill="#B9D76B"/>
<path fill-rule="evenodd" clip-rule="evenodd" d="M16.1308 25.8103C16.1308 25.9287 16.1149 26.0485 16.1337 26.1641C16.2281 26.7532 15.9812 26.9167 15.3727 26.928C14.7076 26.9393 14.5856 26.6729 14.6437 26.1317C14.6756 25.8273 14.6509 25.5172 14.6495 25.2099C14.6466 24.6729 14.9138 24.3333 15.4715 24.3403C15.99 24.3474 16.1584 24.7068 16.1323 25.1733C16.1207 25.3847 16.1308 25.5975 16.1308 25.8103Z" fill="#81BF42"/>
<path fill-rule="evenodd" clip-rule="evenodd" d="M12.7219 25.8186C12.7219 25.5184 12.7045 25.2816 12.7278 25.0476C12.7699 24.6093 13.0429 24.3359 13.4844 24.3443C13.9128 24.3528 14.2135 24.5797 14.1961 25.0617C14.1844 25.4155 14.1597 25.7749 14.2033 26.1231C14.2817 26.7334 14.0726 26.9138 13.4132 26.9279C12.3066 26.9504 12.8715 26.1823 12.7219 25.8186Z" fill="#7DBD43"/>
<path fill-rule="evenodd" clip-rule="evenodd" d="M17.7373 4.31995C17.9609 5.31639 17.9639 6.31142 17.7373 7.30786C17.7373 6.31142 17.7373 5.31639 17.7373 4.31995Z" fill="#E5E987"/>
<path fill-rule="evenodd" clip-rule="evenodd" d="M28.0455 17.1605C28.0455 18.2359 28.0455 18.2204 27.2002 18.1851C26.8633 18.1711 26.7006 18.078 26.7181 17.7313C26.7384 17.3747 26.7326 17.0168 26.7195 16.6602C26.7035 16.2035 26.9025 15.9019 27.3847 15.9005C27.8668 15.9005 28.0687 16.2035 28.0455 16.6602C28.0368 16.8265 28.0455 16.9942 28.0455 17.1605Z" fill="#81BF42"/>
<path fill-rule="evenodd" clip-rule="evenodd" d="M26.1419 17.2535C25.9821 17.5284 26.5035 18.1528 25.6307 18.1923C24.9975 18.2219 24.7114 18.0598 24.8131 17.4128C24.8523 17.1577 24.8276 16.8913 24.8189 16.6305C24.8043 16.1527 25.0861 15.9117 25.529 15.9088C25.9792 15.906 26.155 16.2105 26.1419 16.6277C26.1361 16.8166 26.1419 17.0068 26.1419 17.2535Z" fill="#81BF42"/>
<path fill-rule="evenodd" clip-rule="evenodd" d="M28.609 17.0815C28.6599 16.653 28.4013 15.9369 29.2103 15.9242C30.0236 15.9116 29.7999 16.6206 29.8348 17.1069C29.8435 17.2478 29.8203 17.3916 29.8377 17.5312C29.9002 18.0076 29.7288 18.1979 29.2001 18.1923C28.6933 18.188 28.5568 17.9921 28.6076 17.5565C28.6236 17.417 28.609 17.2746 28.609 17.0815Z" fill="#7DBD43"/>
<path fill-rule="evenodd" clip-rule="evenodd" d="M29.2178 28.0446C29.2221 27.24 29.2163 26.4326 29.2338 25.6281C29.2468 24.9799 29.6607 24.5882 30.278 24.6051C30.8168 24.6206 31.2568 25.0574 31.2699 25.6267C31.2859 26.4312 31.2801 27.2386 31.283 28.0431C30.5946 28.0431 29.9062 28.0431 29.2178 28.0446Z" fill="#80BF45"/>
<path fill-rule="evenodd" clip-rule="evenodd" d="M23.4639 28.0459C23.4668 27.3358 23.4929 26.6256 23.4697 25.9155C23.4522 25.3871 23.4886 24.9207 24.0767 24.6812C24.6214 24.4585 25.0149 24.7009 25.3795 25.0503C25.3867 25.8774 25.3795 26.7045 25.4071 27.5316C25.4216 27.936 25.256 28.0826 24.8508 28.06C24.389 28.0375 23.9272 28.0502 23.4639 28.0459Z" fill="#80BF45"/>
<path fill-rule="evenodd" clip-rule="evenodd" d="M26.4062 28.0431C26.4106 27.3287 26.4367 26.6144 26.4121 25.9001C26.3946 25.3675 26.4324 24.8828 27.0336 24.6729C27.6146 24.47 28.027 24.7335 28.3552 25.1773C28.3494 25.9592 28.3262 26.7412 28.3436 27.5232C28.3538 27.9191 28.2158 28.0839 27.7975 28.06C27.3343 28.0332 26.8695 28.0473 26.4062 28.0431Z" fill="#7DBD43"/>
</svg>
