<svg width="35" height="51" viewBox="0 0 35 51" fill="none" xmlns="http://www.w3.org/2000/svg">
<path fill-rule="evenodd" clip-rule="evenodd" d="M22.0893 11.4932C22.6427 11.1635 23.4226 11.1537 23.6927 10.4252C23.6201 9.87146 23.9062 9.40368 24.0775 8.90912C24.5234 8.51742 24.9301 8.08485 25.3193 9.0007C25.4805 9.38253 25.8842 9.18246 26.044 8.9387C26.2575 8.61181 27.0591 8.50191 26.5654 7.87914C24.6643 5.4782 25.4238 2.72642 25.4442 0.0704543C25.4442 0.0577733 25.495 0.045088 25.5938 0C26.1006 0.827083 26.2764 1.76549 26.4724 2.68275C26.7208 3.83531 27.3278 4.50035 28.5202 4.95828C29.3349 5.27249 30.0625 5.38098 30.7959 5.16682C31.9578 4.82725 32.9512 4.17064 33.6628 3.16884C33.8894 2.84759 33.9954 2.41503 34.4471 2.25723C34.4354 4.49331 32.9976 6.24328 30.4198 6.98301C29.6283 7.20986 29.1824 7.55366 29.0793 8.3272C29.0474 8.39624 29.014 8.46669 28.982 8.53573L28.9907 8.52727C28.9079 8.55827 28.8034 8.56814 28.7467 8.62309C26.134 11.1339 23.2091 13.2291 19.9399 14.8706C19.7526 14.965 19.5086 15.0749 19.5884 15.3116C19.9094 16.2824 19.5463 17.3518 20.0575 18.2916C20.4381 19.0455 20.836 19.7697 21.719 20.1107C22.0617 20.2445 22.2767 20.5644 22.2041 20.9504C22.1503 21.2379 22.2041 21.4534 22.4379 21.6296C22.7603 22.1185 23.2018 22.4961 23.6549 22.8639C24.0558 23.2781 24.4624 23.6839 25.1828 23.6966C24.8487 23.0231 24.3593 22.5595 23.912 22.065C23.9628 21.9663 24.0136 21.8677 24.0645 21.7691C24.2199 21.8423 24.3767 21.9142 24.5278 21.9846C24.7776 21.7127 24.352 21.5028 24.4929 21.2463C24.8153 21.2196 24.8647 21.5676 25.0942 21.6676C25.1421 21.7451 25.1189 21.9128 25.2801 21.8452C25.3077 21.8339 25.2583 21.6465 25.2452 21.5408C25.1973 21.4112 25.0927 21.2703 25.2249 21.1491C25.3614 21.0237 25.5081 21.0885 25.5938 21.2238C25.7012 21.3929 25.8174 21.5704 25.8668 21.7606C26.2008 23.0315 26.6496 24.263 27.1463 25.4818C27.2203 25.6678 27.2363 25.9383 27.3743 26.0271C28.1818 26.5456 28.2312 27.2233 27.8637 27.9912C27.7621 28.2068 27.8187 28.3082 27.9886 28.4167C28.9108 29.0029 28.8077 29.6383 28.3996 30.5711C28.1353 31.1784 29.4322 31.9294 28.6581 32.8029C28.6393 32.8255 28.6247 32.8508 28.6044 32.872C28.343 33.1496 28.3604 33.4483 28.539 33.7554C28.8949 34.3613 28.6785 34.8657 28.2384 35.3251C28.054 35.5181 27.8448 35.697 27.8695 35.9915C27.9146 36.5298 27.656 36.9313 27.3017 37.3132C27.0606 37.5766 26.9183 37.9007 26.9415 38.2699C26.0033 38.9279 25.6446 40.1537 24.4958 40.6074C24.3041 40.6821 24.2809 40.8483 24.3593 41.0442C24.811 42.1334 24.689 43.2648 24.6062 44.3934C24.4421 45.0937 24.0151 45.6671 23.6506 46.2716C22.9215 47.4777 22.4945 48.7373 22.9985 50.1407C21.6972 50.1675 20.3945 50.1942 19.0932 50.2196C19.9748 48.1935 19.51 46.118 19.3111 44.0552C19.2544 43.4592 19.0772 43.0577 18.4542 43.7227C18.3264 43.8594 18.0911 43.9186 17.8936 43.9763C16.6548 44.3398 15.4145 44.6935 14.1728 45.0514C12.9441 45.2571 11.9841 44.9767 11.5673 43.7044C11.7968 43.6438 12.0422 43.6156 12.2557 43.5184C15.8212 41.8614 19.221 39.9494 21.8236 36.9877C24.0485 34.4571 24.9867 31.6335 23.5997 28.3533C22.5889 25.9594 20.8084 24.1785 18.8681 22.5116C18.2364 21.9706 17.3562 21.6155 17.5683 20.546C17.6075 20.346 17.4855 20.1586 17.2357 20.0938C16.1668 19.8176 15.3201 20.1374 14.7203 21.0533C14.2207 21.8141 13.6006 22.0015 12.6914 21.6916C12.4227 21.6 12.2078 21.3464 11.8738 21.4224C12.1918 22.4186 13.0966 22.8399 13.8765 23.3331C14.6593 23.8276 15.368 23.3528 16.1131 22.6905C16.0346 23.5317 15.4973 23.7938 15.2243 24.2165C14.2512 24.766 13.4423 24.1179 12.5781 23.8783C12.0205 23.505 11.4628 23.133 10.9051 22.7596C9.55152 21.5013 8.85441 18.5171 10.0932 16.9207C10.5478 16.3345 10.4621 15.5976 10.2486 14.9143C10.1107 14.4747 9.92476 14.0506 9.76065 13.6208C9.59073 12.6514 9.55007 11.7018 10.1978 10.8338C10.359 11.7398 10.3605 12.6514 10.603 13.5349C10.7918 14.2281 11.1331 14.5761 11.9246 14.4211C12.7117 14.2675 13.5134 14.1816 14.3093 14.0661C15.429 14.0661 16.0782 13.4574 16.2815 12.4598C16.3803 11.9779 16.5647 11.5369 16.6896 11.0719C17.3592 9.63052 17.9096 8.12149 19.1339 6.83507C19.2472 7.31131 18.977 7.53393 18.8463 7.78332C18.0969 9.22473 17.5538 10.7197 17.6177 12.3612C17.6569 13.3601 17.7092 13.3926 18.6357 13.0389C19.4955 12.712 20.3364 12.3372 21.186 11.9821C21.5462 11.9272 21.8308 11.7328 22.0893 11.4932ZM15.1792 16.6699C16.0913 17.0658 16.5981 17.69 16.9583 18.4607C17.0658 18.6918 17.2168 18.8538 17.5116 18.7947C17.6859 18.7594 17.8007 18.6242 17.7469 18.4847C17.5116 17.8887 17.8108 17.3617 17.9081 16.8009C18.033 16.0795 17.6699 15.8386 16.9336 16.0809C16.3454 16.2711 15.7631 16.4726 15.1792 16.6699Z" fill="#7EBE43"/>
<path fill-rule="evenodd" clip-rule="evenodd" d="M15.2217 24.2137C15.4948 23.7924 16.0336 23.5289 16.1105 22.6877C15.3655 23.35 14.6568 23.8248 13.874 23.3302C13.0941 22.8357 12.1893 22.4158 11.8712 21.4196C12.2053 21.3435 12.4217 21.5972 12.6889 21.6888C13.598 22.0001 14.2196 21.8113 14.7178 21.0505C15.3176 20.136 16.1643 19.8162 17.2332 20.0909C17.483 20.1558 17.605 20.3432 17.5658 20.5432C17.3537 21.6127 18.2338 21.9663 18.8656 22.5088C20.8059 24.1756 22.5864 25.9552 23.5972 28.3505C24.9842 31.6306 24.0474 34.4543 21.821 36.9848C19.2185 39.948 15.8186 41.8586 12.2532 43.5155C12.0412 43.6142 11.7957 43.641 11.5634 43.7015C10.4596 43.4606 10.1532 42.6124 10.8764 41.7092C11.742 40.6299 12.6352 39.5718 13.2829 38.3502C13.4949 37.9514 13.7752 37.5498 13.4935 36.9806C12.0136 37.9162 10.5816 38.8574 9.42845 40.1354C8.08797 41.6219 8.21287 42.5137 9.85253 43.6917C11.2903 44.7245 12.4391 45.9503 12.5916 47.7961C12.5045 48.6077 12.5422 49.4319 12.3258 50.2294C10.9766 50.2534 9.62887 50.2689 8.28112 50.3041C7.78589 50.3168 7.8309 50.1223 7.98485 49.7828C8.79524 47.9891 8.31743 46.3758 7.2035 44.8682C5.5072 42.5743 5.83253 40.7286 8.21577 39.0645C9.65211 38.0613 11.0725 37.0342 12.275 35.759C12.9677 35.0235 13.4194 34.2542 13.0404 33.1636C12.8022 32.4718 12.8559 31.7039 12.304 31.0882C11.8858 30.6218 12.3258 29.968 12.0673 29.4115C12.0005 29.2663 12.4798 29.4439 12.58 29.2706C12.6323 29.1776 12.503 28.9845 12.4623 28.8577C12.7296 28.6351 13.0549 29.3143 13.264 28.7591C13.2989 28.6267 13.2945 28.4238 13.3787 28.3759C13.5458 28.2815 13.5937 28.4858 13.6808 28.5886C13.8609 28.8028 13.7157 29.3946 14.3242 29.124L14.3431 29.1424C13.5777 30.4358 14.0918 31.1854 15.4439 31.5785C15.4715 31.587 15.5006 31.5898 15.5296 31.5954C15.8433 31.942 16.141 32.3027 16.4736 32.6296C16.6406 32.7931 16.6697 33.3074 17.0516 33.0213C17.3682 32.786 17.3 32.3746 17.0284 32.09C16.7786 31.8279 16.4722 31.618 16.112 31.3179C16.7394 31.1615 17.2593 31.1586 17.7836 31.2291C18.9658 31.525 18.4066 32.5028 18.5708 33.3961C18.9876 32.6818 19.3405 32.1506 19.615 31.5841C19.8938 31.0079 20.0942 30.395 20.3295 29.7975C20.5299 29.2593 20.6868 28.7126 20.7202 28.1208C20.3658 28.08 20.1334 28.2392 19.9156 28.4365C19.1982 28.6999 18.4517 28.6027 17.7124 28.6112C16.2587 27.7305 15.6429 26.3314 15.2101 24.8181C15.2159 24.6195 15.2188 24.4166 15.2217 24.2137ZM14.7642 34.6135C14.7337 35.2926 14.4839 35.8689 14.0758 36.3902C13.9742 36.5185 13.7215 36.6932 13.8551 36.8129C14.3881 37.2892 14.1194 37.9542 14.2951 38.5263C15.4773 37.6147 15.6269 36.2874 14.7642 34.6135ZM18.1147 25.7241C18.3413 24.8844 17.2884 25.0436 16.9209 24.5997C16.8251 24.4856 16.6639 24.3208 16.4765 24.542C16.3429 24.6998 16.3298 24.8379 16.4591 25.0083C16.7815 25.4325 17.1301 25.8312 17.5556 26.1595C17.695 26.2666 17.8562 26.3948 18.0436 26.3131C18.2876 26.206 18.0973 26.0116 18.1147 25.7241Z" fill="#BDD745"/>
<path fill-rule="evenodd" clip-rule="evenodd" d="M26.9391 38.267C26.9159 37.8979 27.0582 37.5724 27.2993 37.3103C27.6522 36.9285 27.9121 36.5269 27.8671 35.9887C27.841 35.6942 28.0516 35.5152 28.236 35.3222C28.6761 34.8629 28.8924 34.3585 28.5366 33.7526C28.358 33.4454 28.3406 33.1467 28.602 32.8692C28.6223 32.848 28.6368 32.8227 28.6557 32.8001C29.4298 31.9266 28.1343 31.1756 28.3972 30.5683C28.8053 29.6341 28.9084 28.9987 27.9862 28.4139C27.8163 28.3055 27.7596 28.204 27.8613 27.9884C28.2287 27.2205 28.1794 26.5442 27.3719 26.0243C27.2325 25.9355 27.2179 25.665 27.1439 25.479C27.5679 24.7717 27.337 23.97 27.4706 23.2176C27.6522 22.2088 27.8076 21.1901 28.3014 20.2855C28.9781 19.0385 28.6877 18.0015 27.8047 17.0011C26.9246 16.0022 26.9304 15.3822 27.8657 14.2226C27.4532 15.5555 27.8177 16.4911 28.8765 17.3055C30.1022 18.2495 30.2271 19.6444 29.3993 21.1858C29.0377 21.8607 28.6615 22.5272 28.6877 23.319C28.6993 23.6558 28.8198 23.8531 29.1669 23.5473C30.5365 22.3412 31.7724 21.0478 32.2124 19.2203C32.4797 18.1128 32.2836 17.0829 31.7114 16.1078C31.28 15.3738 30.8502 14.6368 30.6352 13.8098C30.3738 12.815 30.6802 12.3994 31.7303 12.2838C33.1797 12.1246 33.3844 12.0133 33.6372 11.182C34.1702 11.5906 34.1513 12.0091 33.778 12.4557C33.4338 12.8672 32.9734 13.149 32.5174 13.4322C31.6301 13.9831 31.5981 14.4086 32.4942 14.9877C33.306 15.5118 33.6967 16.2741 33.9654 17.111C34.4098 18.4933 33.7998 19.5415 32.7512 20.4278C29.6709 23.0302 29.1727 26.9754 30.9968 29.7948C32.1456 31.5729 31.7767 33.568 31.3643 35.4927C30.824 38.0148 29.8045 40.3777 28.6993 42.7081C28.1314 43.9072 27.6435 45.1344 27.7437 46.4828C27.8686 48.175 29.0624 49.1486 30.6294 50.1392C27.9252 50.1392 25.4606 50.1392 22.9975 50.1392C22.4936 48.7344 22.9205 47.4762 23.6496 46.2701C24.0141 45.6656 24.4411 45.0922 24.6052 44.3919C24.6953 44.32 24.8202 44.2665 24.8695 44.1749C25.8426 42.2981 26.6327 40.3622 26.9391 38.267Z" fill="#BED747"/>
<path fill-rule="evenodd" clip-rule="evenodd" d="M12.3291 50.2308C12.544 49.4333 12.5077 48.609 12.5949 47.7975C13.1206 46.8816 13.6478 45.9644 14.1735 45.0485C15.4138 44.692 16.6555 44.3384 17.8944 43.9735C18.0919 43.9157 18.3271 43.8565 18.4549 43.7198C19.078 43.0534 19.2552 43.4564 19.3118 44.0524C19.5108 46.1151 19.9755 48.1892 19.094 50.2167C16.8356 50.297 14.5831 50.328 12.3291 50.2308Z" fill="#EBEA6E"/>
<path fill-rule="evenodd" clip-rule="evenodd" d="M20.057 18.2889C19.5443 17.3505 19.9074 16.2811 19.5878 15.3102C19.508 15.0735 19.752 14.9622 19.9393 14.8692C23.2085 13.2277 26.1349 11.1339 28.7461 8.62157C28.8028 8.56521 28.9073 8.55676 28.9901 8.52576C28.6837 9.78261 27.8965 10.7661 27.0309 11.72C27.3897 11.9962 27.6496 11.744 27.9401 11.6101C28.142 11.8623 27.9677 12.1653 28.0679 12.4274C28.1754 12.7148 28.5225 12.6627 28.7156 12.8459C28.0301 13.3038 27.4768 13.3503 26.6316 13.0347C26.3643 12.9346 26.0928 12.681 25.8342 13.022C24.8902 14.2732 23.6079 15.2088 22.5578 16.3614C22.1236 16.4628 21.7692 16.6728 21.5441 17.0574C21.0155 17.4266 20.2922 17.5816 20.057 18.2889Z" fill="#BCD646"/>
<path fill-rule="evenodd" clip-rule="evenodd" d="M14.3273 29.1269C13.7188 29.3974 13.864 28.8056 13.6839 28.5915C13.5968 28.4886 13.5489 28.2843 13.3818 28.3787C13.2962 28.4266 13.302 28.6295 13.2671 28.7619C11.5868 26.4723 9.91953 24.1742 8.73153 21.5929C7.72072 19.9641 7.89791 18.4156 9.03071 16.908C9.38943 16.4331 9.78302 15.9344 9.46496 15.2749C9.57243 14.8339 9.49836 14.4126 9.34587 13.9928C9.19338 13.5771 9.44171 13.556 9.75977 13.6165C9.92388 14.0477 10.1098 14.4718 10.2477 14.9114C10.4598 15.5948 10.5455 16.3317 10.0924 16.9178C8.85208 18.5128 9.55064 21.4971 10.9042 22.7568C11.1874 23.729 11.9949 24.3898 12.4669 25.2493C13.6186 26.5864 14.3651 28.1603 15.2321 29.6623C15.4252 30.2935 15.6126 30.9262 15.5327 31.5983C15.5037 31.5926 15.4746 31.5898 15.447 31.5814C14.0949 31.1868 13.5808 30.4373 14.3462 29.1452C14.3709 29.1156 14.3941 29.086 14.4188 29.0564C14.3883 29.0804 14.3563 29.1029 14.3273 29.1269Z" fill="#EAEA71"/>
<path fill-rule="evenodd" clip-rule="evenodd" d="M16.6886 11.069C16.5637 11.534 16.3792 11.9764 16.2805 12.4569C16.0757 13.4544 15.428 14.0631 14.3082 14.0631C14.9313 12.5654 14.6524 11.1564 13.8188 9.82633C13.463 9.2557 13.2568 8.68365 13.402 8.01298C13.4412 7.82418 13.4644 7.63961 13.3105 7.44235C12.8516 6.84776 12.959 6.87171 13.219 6.22922C13.3671 5.85866 13.1551 5.35002 13.0912 4.77234C13.707 5.35143 13.8624 5.98829 13.9756 6.64205C14.0265 6.92807 14.0148 7.24932 14.3445 7.38458C16.0292 8.07639 16.5942 9.43041 16.6886 11.069Z" fill="#BED749"/>
<path fill-rule="evenodd" clip-rule="evenodd" d="M9.46343 15.2748C9.78148 15.9328 9.38791 16.4316 9.02919 16.9078C7.89639 18.4155 7.71921 19.964 8.73001 21.5929C8.091 21.6013 7.42148 21.5562 7.27044 22.3974C7.22252 22.6694 6.99886 22.6595 6.78973 22.682C4.55462 22.9272 2.44296 23.512 0.597068 24.8195C0.409719 24.952 0.21801 24.9816 0.000162886 24.859C-0.00855099 24.4673 0.334194 24.3391 0.586896 24.1714C2.63756 22.8018 4.70421 21.452 7.09616 20.6939C7.57833 20.5417 7.55509 20.3149 7.4665 19.9316C6.96109 17.7814 7.5638 16.395 9.46343 15.2748Z" fill="#82BF47"/>
<path fill-rule="evenodd" clip-rule="evenodd" d="M21.5469 17.0546C21.772 16.6699 22.1264 16.46 22.5606 16.3585C23.6702 17.652 24.161 19.1441 24.0841 20.8194C24.0681 21.135 24.071 21.4507 24.0637 21.7663C24.0129 21.8649 23.9621 21.9635 23.9112 22.0622C23.8256 22.3285 23.7413 22.5948 23.6542 22.8611C23.2011 22.4933 22.7596 22.1157 22.4372 21.6268C22.4996 21.531 22.5867 21.4422 22.6201 21.3379C23.1836 19.6936 22.4807 18.3466 21.5469 17.0546Z" fill="#EBEA6E"/>
<path fill-rule="evenodd" clip-rule="evenodd" d="M24.078 8.90776C23.908 9.40372 23.6219 9.8715 23.6931 10.4238C22.964 8.60623 21.6657 7.22965 20.0899 6.0785C18.9527 5.24861 18.3922 4.18482 18.5824 2.7561C19.2098 4.72024 20.6229 5.96015 22.4093 6.91685C23.2037 7.34096 23.5755 8.19763 24.078 8.90776Z" fill="#C1D953"/>
<path fill-rule="evenodd" clip-rule="evenodd" d="M22.0894 11.494C21.8308 11.7336 21.5476 11.9281 21.1846 11.983C21.5026 11.1924 21.7205 10.3848 21.4852 9.37C22.4597 10.0155 22.0792 10.8005 22.0894 11.494Z" fill="#EDEC81"/>
<path fill-rule="evenodd" clip-rule="evenodd" d="M28.9824 8.53418C29.0144 8.46467 29.0478 8.39373 29.0797 8.32422C29.0478 8.39515 29.0144 8.46467 28.9824 8.53418Z" fill="#BCD646"/>
<path fill-rule="evenodd" clip-rule="evenodd" d="M15.231 29.6636C14.3625 28.1616 13.6175 26.5863 12.4658 25.2506C12.5021 24.7926 12.5399 24.3347 12.5762 23.8754C13.4418 24.1149 14.2493 24.763 15.2223 24.2135C15.2194 24.4164 15.2165 24.6193 15.2151 24.8208C14.9958 25.073 15.0785 25.3788 15.0858 25.6578C15.1206 26.9935 15.1802 28.3278 15.231 29.6636Z" fill="#BED747"/>
<path fill-rule="evenodd" clip-rule="evenodd" d="M15.1797 16.6701C15.7635 16.4728 16.3473 16.2712 16.9341 16.0795C17.6704 15.8385 18.0335 16.0781 17.9086 16.7997C17.8113 17.3607 17.5121 17.8878 17.7474 18.484C17.8011 18.625 17.6864 18.7589 17.5121 18.7941C17.2173 18.8533 17.0662 18.6912 16.9588 18.4601C16.5971 17.6905 16.0917 17.0661 15.1797 16.6701Z" fill="#BAD645"/>
<path fill-rule="evenodd" clip-rule="evenodd" d="M12.5754 23.8759C12.5391 24.334 12.5013 24.7921 12.465 25.2516C11.993 24.3918 11.1855 23.7293 10.9023 22.7567C11.46 23.1302 12.0177 23.5038 12.5754 23.8759Z" fill="#F6FAEC"/>
<path fill-rule="evenodd" clip-rule="evenodd" d="M23.6543 22.8611C23.7414 22.5948 23.8257 22.3284 23.9114 22.062C24.3587 22.5567 24.8481 23.0204 25.1821 23.6941C24.4603 23.6814 24.0551 23.2755 23.6543 22.8611Z" fill="#F6FAEC"/>
<path fill-rule="evenodd" clip-rule="evenodd" d="M25.2428 21.538C25.2574 21.644 25.3053 21.8319 25.2777 21.8432C25.1165 21.9096 25.1397 21.7429 25.0918 21.6652C25.1426 21.6228 25.192 21.5804 25.2428 21.538Z" fill="white"/>
<path fill-rule="evenodd" clip-rule="evenodd" d="M17.788 31.232C18.2425 30.3485 17.8824 29.4834 17.7168 28.6155C18.456 28.6085 19.2011 28.7043 19.92 28.4408C20.3005 28.8254 20.2743 29.3256 20.3339 29.8019C20.0986 30.3993 19.8982 31.0108 19.6193 31.5885C19.3463 32.1549 18.9919 32.6846 18.5751 33.4004C18.4095 32.5071 18.9701 31.5279 17.788 31.232Z" fill="#7EBE43"/>
<path fill-rule="evenodd" clip-rule="evenodd" d="M14.7646 34.6135C15.6288 36.2874 15.4777 37.6147 14.2955 38.5264C14.1198 37.9529 14.3885 37.2893 13.8555 36.813C13.7219 36.6947 13.9746 36.5199 14.0762 36.3903C14.4829 35.869 14.7341 35.2941 14.7646 34.6135Z" fill="#F7FAF2"/>
<path fill-rule="evenodd" clip-rule="evenodd" d="M18.115 25.7245C18.0961 26.0134 18.2878 26.2065 18.0438 26.3122C17.8565 26.394 17.6953 26.2657 17.5558 26.1586C17.1303 25.8316 16.7817 25.4313 16.4593 25.007C16.3301 24.8365 16.3431 24.6984 16.4768 24.5405C16.6641 24.3192 16.8239 24.4841 16.9212 24.5983C17.2886 25.0437 18.3415 24.883 18.115 25.7245Z" fill="#F6FAEC"/>
<path fill-rule="evenodd" clip-rule="evenodd" d="M20.3338 29.8024C20.2743 29.3259 20.3004 28.8255 19.9199 28.4407C20.1363 28.2434 20.3701 28.0841 20.7245 28.125C20.6911 28.717 20.5328 29.2639 20.3338 29.8024Z" fill="#F1F6E0"/>
<path fill-rule="evenodd" clip-rule="evenodd" d="M14.3271 29.1274C14.3576 29.1033 14.3881 29.0806 14.4186 29.0579C14.394 29.0876 14.3707 29.1174 14.346 29.1472L14.3271 29.1274Z" fill="#BDD745"/>
</svg>
