<svg width="63" height="23" viewBox="0 0 63 23" fill="none" xmlns="http://www.w3.org/2000/svg">
<path fill-rule="evenodd" clip-rule="evenodd" d="M57.1009 22.3719C56.3181 22.3719 55.5353 22.3705 54.7554 22.3705C54.7539 21.7097 54.7293 21.0489 54.7612 20.388C54.7845 19.8949 54.6886 19.4666 54.1861 19.2848C53.6807 19.1045 53.367 19.4229 53.1215 19.8089C52.7991 20.6501 53.0736 21.5237 52.9734 22.3775C52.0933 22.3775 51.2132 22.3775 50.3331 22.3775C50.23 21.5223 50.5074 20.6459 50.1835 19.8033C50.0499 19.3031 49.6447 19.1848 49.2148 19.2721C48.7675 19.3623 48.541 19.6878 48.5526 20.1654C48.57 20.9023 48.5555 21.6392 48.5555 22.3761C47.5752 22.3761 46.5949 22.3761 45.6175 22.3775C45.5216 21.5237 45.7903 20.6487 45.4722 19.8061C45.3328 19.313 44.9334 19.1834 44.5006 19.2721C44.0533 19.3623 43.8239 19.6864 43.834 20.1626C43.8514 20.8995 43.8384 21.6364 43.8369 22.3747C42.8566 22.3747 41.8778 22.3747 40.8974 22.3761C40.8974 21.6392 40.8829 20.9023 40.9003 20.1668C40.9134 19.6892 40.6854 19.3651 40.2381 19.2735C39.8097 19.1862 39.403 19.3017 39.2694 19.8019C38.9426 20.6459 39.2186 21.5223 39.1183 22.3789C38.6841 22.386 38.2484 22.3944 37.8142 22.4015C37.8142 21.4842 37.788 20.5656 37.8229 19.6497C37.8432 19.1453 37.7401 18.7254 37.3378 18.3943C37.348 18.2576 37.3581 18.1224 37.3683 17.9857C37.6094 17.9716 37.8505 17.9575 38.2688 17.935C37.1679 17.4728 36.2224 17.0741 35.2726 16.6768C34.7178 16.4443 34.1732 16.1681 33.5371 16.2329C33.5371 15.8102 33.5386 15.3889 33.5386 14.9677C35.293 14.9677 37.0459 14.9677 38.8003 14.9677C38.8003 14.9155 38.7988 14.8634 38.7988 14.8113C37.0459 14.8113 35.293 14.8113 33.54 14.8113C33.6083 14.6056 33.8043 14.545 33.9743 14.4562C35.004 13.9222 36.0366 13.3882 37.0662 12.8528C37.3857 12.8429 37.7038 12.8232 38.0219 12.8218C44.8216 12.8161 51.6199 12.8105 58.4196 12.8063C59.8719 12.5512 60.7418 13.5967 61.7948 14.2294C61.8993 14.2913 62.0228 14.4196 61.8674 14.4971C60.9568 14.9465 61.4535 15.7511 61.3358 16.3978C60.8842 16.6148 60.5211 16.9121 60.3628 17.3953C60.357 19.0565 60.3497 20.7163 60.3424 22.3789C59.8574 22.3789 59.3694 22.3789 58.8829 22.3789C58.7856 21.5251 59.0572 20.6501 58.7362 19.8075C58.5968 19.3144 58.1988 19.1848 57.7661 19.2735C57.3173 19.3637 57.0878 19.6878 57.0994 20.164C57.1154 20.8967 57.1009 21.635 57.1009 22.3719ZM54.6102 14.9479C56.7117 14.9479 58.8146 14.9479 60.9161 14.9479C60.9161 14.9071 60.9161 14.8648 60.9161 14.8239C58.8146 14.8239 56.7117 14.8239 54.6102 14.8239C52.7498 14.8239 50.8908 14.8239 49.0304 14.8239C49.0304 14.8648 49.0318 14.9071 49.0333 14.9479C50.8923 14.9479 52.7512 14.9479 54.6102 14.9479ZM53.9261 16.681C53.3931 16.6345 52.9284 16.6246 52.9691 17.3672C53.0083 18.1013 53.1303 18.2252 53.9566 18.2492C54.5869 18.2675 54.8905 18.0717 54.9122 17.4024C54.9369 16.6232 54.4707 16.6274 53.9261 16.681ZM57.9258 18.2365C58.559 18.3408 58.8466 18.0308 58.8741 17.4179C58.9046 16.7754 58.5445 16.6556 57.9606 16.6542C57.3332 16.6528 56.9252 16.7303 56.9513 17.4757C56.9731 18.1266 57.326 18.2886 57.9258 18.2365ZM49.2453 18.2464C50.0354 18.2534 50.3186 18.0153 50.3273 17.3855C50.3331 16.8388 50.0746 16.6472 49.5125 16.6613C48.5366 16.6866 48.4233 16.75 48.4103 17.463C48.4015 18.0491 48.6876 18.2915 49.2453 18.2464ZM40.0478 16.6866C39.4858 16.6091 39.0733 16.6218 39.0995 17.3982C39.1213 18.0703 39.3812 18.252 40.0115 18.252C40.6433 18.252 40.9134 18.0703 40.9192 17.3968C40.9279 16.7148 40.6317 16.5824 40.0478 16.6866ZM44.762 16.688C44.2029 16.6148 43.7861 16.6176 43.8137 17.3982C43.8384 18.0703 44.094 18.252 44.7257 18.252C45.3531 18.2506 45.632 18.0759 45.6392 17.3982C45.645 16.7134 45.3444 16.5852 44.762 16.688Z" fill="#7DBE43"/>
<path fill-rule="evenodd" clip-rule="evenodd" d="M3.75179 22.5112C3.11568 22.5126 2.47955 22.514 1.84344 22.5169C1.84198 21.005 1.84344 19.4918 1.83182 17.9799C1.83037 17.7319 1.92767 17.4544 1.68949 17.2458C1.56168 16.8654 1.28721 16.6372 0.902344 16.5216C0.918319 16.1905 0.932851 15.858 0.947374 15.5269C0.999657 15.5255 1.05047 15.5241 1.1013 15.5226C9.82825 15.5241 18.5552 15.5297 27.2807 15.5212C27.8326 15.5212 28.2189 15.5691 28.0519 16.2384C26.8232 16.7992 25.4014 16.95 24.2526 17.8334C24.5489 18.0208 24.7711 17.9377 24.9817 17.9602C24.973 18.0997 25.0238 18.3124 24.9497 18.3674C24.2367 18.8915 24.4269 19.6355 24.4124 20.3273C24.3979 21.0614 24.4022 21.7955 24.3979 22.5295C24.0522 22.5253 23.7037 22.5211 23.3566 22.5155C23.3566 21.7321 23.342 20.9472 23.3595 20.1639C23.3711 19.6876 23.1416 19.3635 22.6957 19.272C22.2673 19.1846 21.8621 19.3001 21.7285 19.8003C21.4134 20.6922 21.6719 21.6137 21.5775 22.5169C20.8455 22.5169 20.1135 22.5183 19.383 22.5183C19.3787 22.259 19.3961 21.9998 19.3685 21.7433C19.2988 21.0543 19.5399 20.3442 19.2247 19.6721C18.6714 19.055 18.2996 19.0564 17.7521 19.6778C17.5284 19.8595 17.6097 20.1117 17.6068 20.3357C17.5952 21.0628 17.5967 21.7912 17.5923 22.5183C16.6643 22.5183 15.7348 22.5169 14.8068 22.5155C14.8039 21.7321 14.7894 20.9472 14.8068 20.1639C14.8184 19.6862 14.5918 19.3621 14.146 19.2706C13.7161 19.1832 13.3109 19.3001 13.1758 19.8003C12.8636 20.6922 13.1207 21.6137 13.0248 22.5169C12.0459 22.5155 11.0671 22.5154 10.0897 22.514C10.0897 21.7306 10.0752 20.9458 10.0926 20.1624C10.1042 19.6862 9.87474 19.3621 9.42888 19.2706C9.00044 19.1832 8.59525 19.2987 8.45873 19.7989C8.14648 20.6908 8.4021 21.6123 8.30915 22.5155C7.37967 22.5155 6.45308 22.5155 5.52215 22.5155C5.4292 21.6123 5.68627 20.6922 5.37257 19.8003C5.24041 19.2973 4.83375 19.186 4.40677 19.2734C3.96381 19.365 3.73145 19.6876 3.74162 20.1639C3.7634 20.9458 3.75179 21.7278 3.75179 22.5112ZM17.7535 18.0969C18.2459 18.3167 18.7382 18.3167 19.2291 18.0983C19.6677 16.9471 19.4702 16.6555 18.2749 16.6752C18.1529 16.6766 18.0309 16.6738 17.9104 16.6822C17.7434 16.6921 17.6112 16.7795 17.6243 16.9415C17.6533 17.3276 17.4543 17.7404 17.7535 18.0969ZM9.24297 16.6851C8.70997 16.6245 8.28155 16.6428 8.30478 17.3769C8.32657 18.018 8.57346 18.2702 9.22846 18.2547C9.82681 18.2392 10.216 18.0673 10.2378 17.4191C10.2654 16.7076 9.83842 16.5935 9.24297 16.6851ZM4.58831 16.6851C3.98705 16.5878 3.59492 16.7231 3.60218 17.4346C3.60945 18.0602 3.90136 18.2659 4.50988 18.2547C5.11259 18.2434 5.50182 18.0673 5.52215 17.4149C5.54539 16.7611 5.18666 16.5864 4.58831 16.6851ZM14.7966 17.4065C14.9724 16.6977 14.5439 16.6569 13.9688 16.6569C13.3733 16.6569 13.0016 16.7062 13.0161 17.4501C13.0277 18.1856 13.4213 18.2307 13.9993 18.2533C14.6499 18.28 14.923 18.0461 14.7966 17.4065ZM22.5229 16.6865C21.9028 16.5893 21.56 16.7217 21.5658 17.4501C21.5688 18.1885 21.971 18.2237 22.5462 18.2547C23.2142 18.2899 23.3624 18.0166 23.3812 17.4163C23.403 16.7428 23.1285 16.5681 22.5229 16.6865Z" fill="#7DBE43"/>
<path fill-rule="evenodd" clip-rule="evenodd" d="M37.0627 12.8499C36.033 13.3839 35.0004 13.9179 33.9707 14.4533C33.8008 14.5421 33.6047 14.6027 33.535 14.8084C33.4232 14.8605 33.4232 14.9127 33.535 14.9648C33.535 15.3861 33.5336 15.8088 33.5336 16.2301C31.7632 16.2329 29.9928 16.2357 28.221 16.2385C28.221 15.7158 28.221 15.1945 28.221 14.6717C28.6407 14.6435 28.6465 14.6393 28.4882 14.3871C27.1579 13.9221 25.9075 13.2571 24.5205 12.9415C24.5278 12.2792 24.535 11.6156 24.5423 10.9533C24.5859 10.9097 24.6309 10.8674 24.6745 10.8237C25.6054 10.301 25.6054 10.301 25.1102 9.62888C25.1058 8.82997 25.0913 8.02965 25.1 7.22934C25.1058 6.77 25.4514 6.47834 25.7956 6.76296C26.4129 7.27302 27.0693 7.02926 27.7127 7.07858C30.0073 7.07858 32.3049 7.07998 34.5996 7.07998C35.1718 7.08421 35.7309 7.18425 36.2566 6.77141C36.6226 6.48398 37.099 6.80945 37.1556 7.3336C37.1919 7.68445 37.1861 8.03952 37.2007 8.39318C36.8129 9.05118 36.428 9.7106 36.0417 10.3686C35.8529 10.6335 36.1201 10.8012 36.2029 10.9942C36.4701 11.6198 36.7737 12.2327 37.0627 12.8499ZM32.4879 11.3817C32.5387 11.1985 32.5881 11.0153 32.6389 10.8308C32.6186 10.7406 32.6186 10.6391 32.575 10.5602C32.1945 9.88954 31.5453 9.36962 31.4204 8.54958C31.3841 8.30441 31.1053 8.39599 30.9237 8.38472C30.7291 8.37345 30.5708 8.44531 30.5854 8.65807C30.6071 8.98073 30.385 9.16813 30.2179 9.39921C29.8854 9.86136 29.4802 10.2784 29.2492 10.8082C29.2173 11.0252 29.3189 11.2084 29.4003 11.3972C29.4046 12.3384 29.409 13.2796 29.4134 14.2222C29.1607 14.2349 29.1606 14.3674 29.255 14.5421C29.7604 14.9127 30.2658 15.279 30.7669 15.6566C30.9601 15.8031 31.1634 15.8891 31.3522 15.6932C31.7501 15.2804 32.3441 15.0705 32.6302 14.5407C32.7319 14.4857 32.8844 14.4237 32.8161 14.2997C32.7813 14.2377 32.5983 14.2518 32.4821 14.2321C32.4821 13.2824 32.485 12.3328 32.4879 11.3817Z" fill="#BDD744"/>
<path fill-rule="evenodd" clip-rule="evenodd" d="M37.063 12.8508C36.774 12.2334 36.4704 11.6203 36.2018 10.993C36.1175 10.7999 35.8518 10.6322 36.0391 10.3672C36.8001 10.3714 37.5626 10.3799 38.3221 10.3799C45.2206 10.3855 52.1176 10.3897 59.0147 10.394C58.0358 11.0142 58.4788 11.9684 58.4163 12.8029C51.6166 12.8071 44.8183 12.8128 38.0186 12.8184C37.702 12.8212 37.3825 12.841 37.063 12.8508ZM40.4265 12.3744C40.717 12.3984 40.8927 12.318 40.9 11.9938C40.9058 11.671 40.7998 11.5188 40.444 11.5244C40.1303 11.5301 40.0126 11.6527 40.0141 11.9487C40.017 12.2349 40.1056 12.4082 40.4265 12.3744ZM43.8424 11.905C43.8729 11.6146 43.6972 11.5258 43.4052 11.5287C43.1162 11.5315 42.9434 11.6189 42.971 11.9346C43.0015 12.2701 43.2571 12.3448 43.5287 12.3617C43.8467 12.3843 43.8453 12.1489 43.8424 11.905Z" fill="#EDEB6B"/>
<path fill-rule="evenodd" clip-rule="evenodd" d="M25.109 9.62918C25.6043 10.3015 25.6043 10.3015 24.6733 10.8243C17.7037 10.8229 10.734 10.8201 3.76585 10.8173C3.48265 10.6425 3.19799 10.4678 2.8291 10.2394C3.71211 9.66723 4.53993 9.12884 5.37065 8.59609C5.56961 8.46925 5.80054 8.52844 6.01694 8.52844C11.7303 8.52563 17.4423 8.52844 23.1557 8.51858C23.5478 8.51858 23.8586 8.60032 24.1476 8.86388C24.4482 9.14012 24.7866 9.37549 25.109 9.62918Z" fill="#7DBE43"/>
<path fill-rule="evenodd" clip-rule="evenodd" d="M24.5212 12.9413C25.9082 13.2585 27.1586 13.9239 28.489 14.3877C28.2508 14.6442 27.9356 14.523 27.6597 14.5244C22.8366 14.5343 18.0105 14.5357 13.1889 14.5371C9.73381 14.5371 6.28166 14.5371 2.82806 14.5385C2.63636 14.5385 2.43012 14.5005 2.27908 14.6696C1.58778 14.6739 0.896488 14.6795 0.205187 14.6837C-0.0765614 14.5301 0.0454335 14.351 0.224068 14.258C1.35687 13.6744 2.37058 12.8046 3.75754 12.799C10.3888 12.8032 17.0215 12.8074 23.6528 12.8116C23.9185 13.0048 24.2279 12.9244 24.5212 12.9413Z" fill="#7DBE43"/>
<path fill-rule="evenodd" clip-rule="evenodd" d="M59.0166 10.3962C52.1196 10.392 45.2225 10.3878 38.3241 10.3821C37.5645 10.3821 36.802 10.3737 36.041 10.3695C36.4288 9.71119 36.8137 9.0515 37.2014 8.39323C43.4725 8.39041 49.748 8.3876 56.019 8.38196C56.2688 8.38196 56.4954 8.40592 56.7132 8.55393C57.435 9.04587 58.1684 9.51949 58.8902 10.0114C59.0079 10.0918 59.323 10.1608 59.0166 10.3962Z" fill="#7DBE43"/>
<path fill-rule="evenodd" clip-rule="evenodd" d="M23.652 12.8127C17.0208 12.8084 10.3881 12.8042 3.75684 12.8C3.75974 12.1389 3.76264 11.4777 3.76555 10.8152C10.7352 10.8166 17.7048 10.8194 24.673 10.8222C24.6295 10.8659 24.5844 10.9082 24.5409 10.9519C24.2301 11.3057 24.3811 11.7329 24.4029 12.1121C24.4378 12.6914 24.2199 12.9001 23.652 12.8127ZM5.98468 12.3714C6.27224 12.4081 6.40586 12.284 6.41167 11.9767C6.42038 11.6384 6.2766 11.5228 5.93821 11.5271C5.60853 11.5313 5.533 11.6906 5.5301 11.9683C5.52719 12.2685 5.65646 12.4053 5.98468 12.3714Z" fill="#EDEB6B"/>
<path fill-rule="evenodd" clip-rule="evenodd" d="M37.3654 17.9845C37.3553 18.1211 37.3451 18.2564 37.3349 18.3931C37.0067 18.4438 36.8048 18.6157 36.7598 18.9454C36.5434 19.1342 36.6233 19.3864 36.6204 19.6133C36.6102 20.6291 36.6102 21.645 36.6073 22.6623C35.4847 22.6609 34.3591 22.6581 33.2365 22.6552C33.283 22.527 33.3309 22.3988 33.3803 22.2706C33.6127 21.4013 33.6141 20.5319 33.3803 19.6612C33.344 19.2695 33.0579 19.2455 32.7427 19.2469C31.5939 19.2511 30.4423 19.2511 29.292 19.2469C28.9754 19.2455 28.6922 19.2709 28.6559 19.6612C28.4206 20.5305 28.4221 21.3998 28.6545 22.2706C28.7024 22.3988 28.7503 22.527 28.7997 22.6552C27.7744 22.6581 26.7476 22.6609 25.7222 22.6637C25.7179 21.9803 25.7411 21.2956 25.7019 20.6122C25.6714 20.0599 25.8646 19.4879 25.5668 18.9567C25.5799 18.5551 24.9816 18.4128 25.1152 17.9591C29.1991 17.9676 33.283 17.976 37.3654 17.9845Z" fill="#BDD744"/>
<path fill-rule="evenodd" clip-rule="evenodd" d="M27.7092 4.82007C27.2008 4.82007 26.694 4.82007 26.1842 4.82007C26.1712 4.78343 26.1581 4.74539 26.1465 4.70876C26.6795 4.40441 27.2125 4.09865 27.8631 3.72808C27.5465 3.68299 27.3606 3.65622 27.0513 3.61113C27.6917 3.23069 28.2276 2.91506 28.8434 2.55154C28.5094 2.52476 28.2799 2.50645 27.8384 2.47263C28.9204 1.87239 29.8252 1.36936 30.7314 0.864934C30.8941 0.774756 31.0509 0.776163 31.215 0.869158C32.1416 1.38627 33.0667 1.89916 34.1676 2.51067C33.7029 2.51067 33.4415 2.51067 33.18 2.51067C33.1655 2.54872 33.151 2.58817 33.1379 2.62762C33.7508 2.9362 34.3608 3.24478 34.9736 3.55195C34.8604 3.75626 34.6367 3.60267 34.4101 3.76189C35.0201 4.08456 35.5938 4.39031 36.1674 4.69466C36.1645 4.73693 36.1616 4.77921 36.1587 4.82007C35.6388 4.82007 35.1189 4.82007 34.6004 4.82007C32.3043 4.82007 30.0067 4.82007 27.7092 4.82007Z" fill="#BDD745"/>
<path fill-rule="evenodd" clip-rule="evenodd" d="M0.206055 14.6829C0.897355 14.6787 1.58867 14.6731 2.27997 14.6688C5.91511 14.6688 9.55024 14.6688 13.1839 14.6702C18.1465 14.6702 23.109 14.6716 28.0701 14.6716C28.1834 15.3049 27.8494 15.4008 27.2757 15.3994C18.832 15.3839 10.3882 15.3881 1.94592 15.3938C1.66417 15.3938 1.35338 15.2866 1.10358 15.5221C1.05275 15.5235 1.00193 15.525 0.949651 15.5264C0.933676 15.0496 0.53573 14.8945 0.206055 14.6829Z" fill="#BDD744"/>
<path fill-rule="evenodd" clip-rule="evenodd" d="M33.3811 22.2691C33.3331 22.3974 33.2852 22.5256 33.2373 22.6538C31.7574 22.6538 30.2775 22.6538 28.7976 22.6538C28.7496 22.5256 28.7017 22.3974 28.6523 22.2691C28.6538 21.3998 28.6538 20.5304 28.6538 19.6597C28.6901 19.268 28.9747 19.244 29.2899 19.2454C30.4401 19.2496 31.5918 19.2496 32.7406 19.2454C33.0572 19.244 33.3418 19.2694 33.3782 19.6597C33.3811 20.5304 33.3811 21.3998 33.3811 22.2691Z" fill="#EDEB6B"/>
<path fill-rule="evenodd" clip-rule="evenodd" d="M27.709 4.82007C30.0065 4.82007 32.3041 4.82007 34.6002 4.82007C34.5988 5.57412 34.5988 6.32676 34.5988 7.08081C32.3041 7.08081 30.0066 7.08081 27.7119 7.0794C27.7119 6.32676 27.7104 5.57412 27.709 4.82007ZM33.8014 5.95326C33.8334 5.6601 33.7245 5.51069 33.3962 5.51351C33.1043 5.51492 32.9388 5.58257 32.9373 5.90816C32.9359 6.22669 33.0201 6.39441 33.389 6.38455C33.71 6.37891 33.8363 6.25065 33.8014 5.95326ZM29.536 5.98708C29.5592 5.71506 29.5099 5.52056 29.1584 5.51492C28.8273 5.50928 28.6588 5.59949 28.669 5.95467C28.6762 6.24783 28.7692 6.39018 29.093 6.38596C29.3893 6.38173 29.5723 6.30703 29.536 5.98708ZM31.2149 5.52761C30.8242 5.50646 30.8692 5.77285 30.8605 6.01105C30.8489 6.29012 30.9898 6.37891 31.2628 6.37891C31.6462 6.37891 31.5968 6.1238 31.607 5.88842C31.6201 5.61217 31.4879 5.49519 31.2149 5.52761Z" fill="#7DBE43"/>
<path fill-rule="evenodd" clip-rule="evenodd" d="M60.3594 17.3923C60.5177 16.9091 60.8807 16.6104 61.3324 16.3948C62.0063 16.7033 62.2575 17.2092 62.2314 17.9376C62.1878 19.1888 62.1951 20.4428 62.2314 21.694C62.2474 22.2295 62.1239 22.4944 61.5169 22.4098C61.1828 22.3633 60.8372 22.3859 60.4973 22.3774C60.4959 20.9628 60.5002 19.5481 60.4901 18.1321C60.4872 17.8827 60.5859 17.6079 60.3594 17.3923Z" fill="#BFD84A"/>
<path fill-rule="evenodd" clip-rule="evenodd" d="M0.902006 16.5203C1.28687 16.6372 1.56134 16.8655 1.68915 17.2445C1.68624 19.0015 1.68626 20.7585 1.6848 22.5155C0.019003 22.6028 0.0189983 22.6028 0.0189983 20.9811C0.0189983 20.0061 0.0625756 19.0282 0.00448313 18.0575C-0.0376339 17.3192 0.213611 16.819 0.902006 16.5203Z" fill="#BDD744"/>
<path fill-rule="evenodd" clip-rule="evenodd" d="M21.7295 19.7991C21.8631 19.2988 22.2683 19.1833 22.6967 19.2706C23.1426 19.3622 23.3721 19.6849 23.3604 20.1626C23.343 20.9461 23.3575 21.731 23.3575 22.5145C22.8187 22.5145 22.277 22.5145 21.7382 22.5159C21.7353 21.6098 21.7324 20.7037 21.7295 19.7991Z" fill="#BDD745"/>
<path fill-rule="evenodd" clip-rule="evenodd" d="M13.1797 19.8003C13.3148 19.3001 13.7199 19.1831 14.1498 19.2705C14.5957 19.3621 14.8223 19.6862 14.8106 20.1638C14.7932 20.9472 14.8077 21.7321 14.8106 22.5155C14.2689 22.5155 13.7301 22.5155 13.1884 22.5155C13.1855 21.6095 13.1826 20.7049 13.1797 19.8003Z" fill="#BDD745"/>
<path fill-rule="evenodd" clip-rule="evenodd" d="M8.46289 19.7991C8.59941 19.2988 9.0046 19.1833 9.43303 19.2706C9.87889 19.3622 10.1084 19.6849 10.0967 20.1626C10.0793 20.9461 10.0938 21.731 10.0938 22.5145C9.55358 22.5145 9.01332 22.5145 8.47306 22.5159C8.47016 21.6098 8.4658 20.7037 8.46289 19.7991Z" fill="#BDD745"/>
<path fill-rule="evenodd" clip-rule="evenodd" d="M3.75176 22.5113C3.75176 21.7293 3.76337 20.9459 3.74739 20.1639C3.73722 19.689 3.96958 19.365 4.41254 19.2734C4.83952 19.186 5.24617 19.2973 5.37833 19.8003C5.37543 20.7049 5.37253 21.6109 5.36962 22.5155C4.82937 22.5141 4.29056 22.5127 3.75176 22.5113Z" fill="#BDD745"/>
<path fill-rule="evenodd" clip-rule="evenodd" d="M48.5551 22.3742C48.5551 21.6371 48.5696 20.9 48.5522 20.1628C48.5406 19.6864 48.7671 19.3609 49.2144 19.2693C49.6443 19.1819 50.0495 19.3003 50.1831 19.8006C50.1802 20.659 50.1773 21.5173 50.1744 22.3756C49.6356 22.377 49.0939 22.3756 48.5551 22.3742Z" fill="#BDD744"/>
<path fill-rule="evenodd" clip-rule="evenodd" d="M43.8362 22.3719C43.8377 21.635 43.8508 20.8966 43.8333 20.1597C43.8232 19.6835 44.0526 19.3608 44.4999 19.2692C44.9327 19.1805 45.3321 19.3101 45.4715 19.8032C45.4686 20.6599 45.4657 21.5166 45.4628 22.3733C44.9211 22.3733 44.3779 22.3733 43.8362 22.3719Z" fill="#BDD744"/>
<path fill-rule="evenodd" clip-rule="evenodd" d="M39.2676 19.7992C39.4012 19.2988 39.8078 19.1833 40.2363 19.2706C40.6836 19.3623 40.9116 19.6864 40.8985 20.1643C40.8811 20.9 40.8956 21.6372 40.8956 22.3743C40.3568 22.3743 39.8151 22.3757 39.2763 22.3757C39.2734 21.5174 39.2705 20.6576 39.2676 19.7992Z" fill="#BDD745"/>
<path fill-rule="evenodd" clip-rule="evenodd" d="M57.101 22.3719C57.101 21.635 57.1155 20.8966 57.0981 20.1597C57.0865 19.6835 57.3159 19.3608 57.7647 19.2692C58.1975 19.1805 58.5954 19.3101 58.7348 19.8032C58.7319 20.6599 58.729 21.5166 58.7261 22.3733C58.1844 22.3733 57.6427 22.3733 57.101 22.3719Z" fill="#BDD744"/>
<path fill-rule="evenodd" clip-rule="evenodd" d="M25.1169 17.9589C24.9818 18.4126 25.5801 18.5549 25.5685 18.9565C25.5671 20.1908 25.5656 21.425 25.5627 22.6593C25.1706 22.6537 24.7596 22.7917 24.3994 22.5269C24.4038 21.7928 24.3994 21.0587 24.4139 20.3246C24.4285 19.6328 24.2382 18.8889 24.9513 18.3647C25.0268 18.3098 24.976 18.097 24.9832 17.9575C25.0283 17.9589 25.0718 17.9589 25.1169 17.9589Z" fill="#E6E86A"/>
<path fill-rule="evenodd" clip-rule="evenodd" d="M53.1201 19.8075C53.3656 19.4215 53.6807 19.103 54.1847 19.2834C54.6886 19.4651 54.783 19.8949 54.7598 20.3866C54.7293 21.0461 54.7525 21.7083 54.754 22.3691C54.2108 22.3705 53.6676 22.3719 53.1259 22.3748C53.1245 21.5195 53.1216 20.6642 53.1201 19.8075Z" fill="#BDD744"/>
<path fill-rule="evenodd" clip-rule="evenodd" d="M17.7559 19.6765C18.3034 19.0566 18.6752 19.0552 19.2285 19.6709C19.2271 20.6191 19.2256 21.5673 19.2241 22.517C18.7362 22.517 18.2467 22.517 17.7588 22.517C17.7573 21.5702 17.7559 20.6233 17.7559 19.6765Z" fill="#BDD744"/>
<path fill-rule="evenodd" clip-rule="evenodd" d="M36.7607 18.9437C36.8043 18.614 37.0077 18.4421 37.3359 18.3914C37.7382 18.7225 37.8413 19.1424 37.8209 19.6468C37.7875 20.5627 37.8122 21.4814 37.8122 22.3987C37.5857 22.9341 37.1224 22.5946 36.7709 22.658C36.768 21.4208 36.7636 20.1823 36.7607 18.9437Z" fill="#EDEB6B"/>
<path fill-rule="evenodd" clip-rule="evenodd" d="M1.68457 22.5155C1.68602 20.7585 1.68601 19.0016 1.68891 17.2446C1.92709 17.4532 1.82979 17.7307 1.83125 17.9787C1.84287 19.4905 1.84141 21.0037 1.84286 22.5155C1.79058 22.5169 1.73685 22.5155 1.68457 22.5155Z" fill="#B7D669"/>
<path fill-rule="evenodd" clip-rule="evenodd" d="M60.3597 17.3925C60.5848 17.608 60.4875 17.8828 60.4904 18.1308C60.5006 19.5454 60.4962 20.9601 60.4977 22.3761C60.4454 22.3761 60.3946 22.3761 60.3408 22.3761C60.3481 20.7149 60.3553 19.0537 60.3597 17.3925Z" fill="#B7D669"/>
<path fill-rule="evenodd" clip-rule="evenodd" d="M25.5625 22.6591C25.5654 21.4249 25.5669 20.1906 25.5683 18.9564C25.866 19.4876 25.6729 20.0596 25.7034 20.6119C25.7411 21.2938 25.7194 21.9786 25.7237 22.6633C25.6685 22.6619 25.6162 22.6605 25.5625 22.6591Z" fill="#E0E886"/>
<path fill-rule="evenodd" clip-rule="evenodd" d="M36.7614 18.944C36.7643 20.1824 36.7686 21.4194 36.7715 22.6579C36.7178 22.6579 36.6641 22.6593 36.6104 22.6593C36.6133 21.6435 36.6132 20.6276 36.6234 19.6104C36.6263 19.385 36.545 19.1328 36.7614 18.944Z" fill="#E0E886"/>
<path fill-rule="evenodd" clip-rule="evenodd" d="M17.7559 19.6765C17.7574 20.624 17.7589 21.5715 17.7589 22.5175C17.7051 22.5175 17.6514 22.5175 17.5977 22.5189C17.602 21.7914 17.6006 21.0625 17.6122 20.335C17.6136 20.1108 17.5308 19.8598 17.7559 19.6765Z" fill="#BFDA72"/>
<path fill-rule="evenodd" clip-rule="evenodd" d="M19.2227 22.5179C19.2241 21.5693 19.2255 20.6194 19.227 19.6708C19.5421 20.3431 19.3011 21.0535 19.3708 21.7427C19.3984 21.9992 19.381 22.26 19.3853 22.5179C19.3301 22.5193 19.2764 22.5179 19.2227 22.5179Z" fill="#BFDA72"/>
<path fill-rule="evenodd" clip-rule="evenodd" d="M5.36914 22.5165C5.37205 21.6115 5.37495 20.7052 5.37785 19.8003C5.69155 20.6925 5.43303 21.6144 5.52744 22.5165C5.47515 22.5179 5.42142 22.5165 5.36914 22.5165Z" fill="#B7D669"/>
<path fill-rule="evenodd" clip-rule="evenodd" d="M8.46251 19.799C8.46541 20.7053 8.46977 21.6102 8.47268 22.5166C8.4204 22.5166 8.36667 22.5166 8.31439 22.5166C8.40588 21.6131 8.15026 20.6912 8.46251 19.799Z" fill="#B7D669"/>
<path fill-rule="evenodd" clip-rule="evenodd" d="M13.18 19.8003C13.1829 20.7052 13.1858 21.6116 13.1887 22.5165C13.1364 22.5165 13.0841 22.5165 13.0304 22.5165C13.1248 21.613 12.8677 20.6925 13.18 19.8003Z" fill="#B7D669"/>
<path fill-rule="evenodd" clip-rule="evenodd" d="M21.7295 19.799C21.7324 20.7053 21.7353 21.6102 21.7382 22.5166C21.6845 22.5166 21.6322 22.5166 21.5799 22.5166C21.6728 21.6131 21.4143 20.6912 21.7295 19.799Z" fill="#B7D669"/>
<path fill-rule="evenodd" clip-rule="evenodd" d="M39.2679 19.799C39.2708 20.6573 39.2738 21.5171 39.2767 22.377C39.2229 22.377 39.1721 22.377 39.1183 22.377C39.2171 21.52 38.9411 20.6433 39.2679 19.799Z" fill="#B7D669"/>
<path fill-rule="evenodd" clip-rule="evenodd" d="M45.4629 22.3755C45.4658 21.5186 45.4687 20.6616 45.4716 19.8047C45.7897 20.6475 45.5195 21.5214 45.6168 22.377C45.5646 22.3755 45.5137 22.3755 45.4629 22.3755Z" fill="#A3CF67"/>
<path fill-rule="evenodd" clip-rule="evenodd" d="M50.1748 22.3772C50.1777 21.5188 50.1806 20.6603 50.1835 19.8019C50.5074 20.6462 50.2285 21.5216 50.3331 22.3772C50.2794 22.3772 50.2285 22.3772 50.1748 22.3772Z" fill="#B7D669"/>
<path fill-rule="evenodd" clip-rule="evenodd" d="M53.1195 19.8075C53.121 20.6628 53.1239 21.5195 53.1268 22.3748C53.0759 22.3748 53.0251 22.3748 52.9728 22.3748C53.0716 21.5223 52.7971 20.6487 53.1195 19.8075Z" fill="#A3CF67"/>
<path fill-rule="evenodd" clip-rule="evenodd" d="M58.7256 22.3755C58.7285 21.5186 58.7314 20.6616 58.7343 19.8047C59.0553 20.6475 58.7822 21.5214 58.881 22.377C58.8287 22.3755 58.7779 22.3755 58.7256 22.3755Z" fill="#A3CF67"/>
<path fill-rule="evenodd" clip-rule="evenodd" d="M25.1166 17.9596C25.0716 17.9596 25.028 17.9596 24.983 17.9596C24.7724 17.937 24.5502 18.0202 24.2539 17.8327C25.4027 16.949 26.8259 16.7982 28.0532 16.2372C28.1098 16.2372 28.1665 16.2386 28.2216 16.2386C29.9935 16.2358 31.7638 16.233 33.5342 16.2302C34.1703 16.1653 34.7149 16.4416 35.2697 16.6742C36.2181 17.0716 37.165 17.4705 38.2658 17.9328C37.8476 17.9567 37.6065 17.9694 37.3654 17.9835C33.2829 17.9765 29.199 17.968 25.1166 17.9596Z" fill="#EDEB6B"/>
<path fill-rule="evenodd" clip-rule="evenodd" d="M53.9263 16.6809C54.471 16.6274 54.9372 16.6231 54.9125 17.4028C54.8892 18.0725 54.5857 18.2685 53.9569 18.2502C53.132 18.2262 53.0099 18.1021 52.9693 17.3676C52.9286 16.6245 53.3933 16.6344 53.9263 16.6809Z" fill="#BBD647"/>
<path fill-rule="evenodd" clip-rule="evenodd" d="M57.9259 18.2371C57.3261 18.2878 56.9746 18.1258 56.9514 17.4774C56.9252 16.7304 57.3348 16.6529 57.9607 16.6557C58.5446 16.6571 58.9047 16.7769 58.8742 17.4196C58.8452 18.0327 58.5576 18.3414 57.9259 18.2371Z" fill="#BBD647"/>
<path fill-rule="evenodd" clip-rule="evenodd" d="M49.245 18.2469C48.6873 18.292 48.4012 18.0496 48.4114 17.4633C48.4245 16.7501 48.5378 16.6866 49.5137 16.6613C50.0758 16.6458 50.3328 16.8374 50.3285 17.3857C50.3183 18.0158 50.0351 18.254 49.245 18.2469Z" fill="#BBD647"/>
<path fill-rule="evenodd" clip-rule="evenodd" d="M40.0472 16.6866C40.631 16.5809 40.9259 16.7148 40.9186 17.3984C40.9128 18.0722 40.6427 18.254 40.0109 18.254C39.3806 18.254 39.1206 18.0722 39.0988 17.3999C39.0727 16.6218 39.4852 16.6091 40.0472 16.6866Z" fill="#BBD647"/>
<path fill-rule="evenodd" clip-rule="evenodd" d="M44.7622 16.688C45.3431 16.5852 45.6437 16.7148 45.6394 17.3981C45.6321 18.0758 45.3533 18.2505 44.7259 18.252C44.0941 18.252 43.8385 18.0702 43.8138 17.3981C43.7862 16.6176 44.203 16.6147 44.7622 16.688Z" fill="#BFD84A"/>
<path fill-rule="evenodd" clip-rule="evenodd" d="M54.6097 14.8237C56.7112 14.8237 58.8142 14.8237 60.9156 14.8237C60.9156 14.8649 60.9156 14.9075 60.9156 14.9486C58.8142 14.9486 56.7112 14.9486 54.6097 14.9486C54.6054 14.9075 54.6054 14.8649 54.6097 14.8237Z" fill="#A3CF67"/>
<path fill-rule="evenodd" clip-rule="evenodd" d="M54.6101 14.8237C54.6043 14.8649 54.6043 14.9075 54.6101 14.9486C52.7511 14.9486 50.8907 14.9486 49.0332 14.9486C49.0317 14.9075 49.0303 14.8649 49.0303 14.8237C50.8921 14.8237 52.7497 14.8237 54.6101 14.8237Z" fill="#8AC251"/>
<path fill-rule="evenodd" clip-rule="evenodd" d="M33.537 14.9658C33.4252 14.9133 33.4252 14.8608 33.537 14.8083C35.2914 14.8083 37.0444 14.8083 38.7973 14.8083C38.7973 14.8608 38.7987 14.9133 38.7987 14.9658C37.0443 14.9658 35.2914 14.9658 33.537 14.9658Z" fill="#8AC251"/>
<path fill-rule="evenodd" clip-rule="evenodd" d="M28.2226 16.2393C28.1674 16.2393 28.1107 16.2378 28.0541 16.2378C28.2197 15.5683 27.8348 15.519 27.2829 15.5204C18.556 15.5303 9.82901 15.5246 1.10352 15.5218C1.35331 15.2864 1.66411 15.3935 1.94586 15.3935C10.3882 15.3879 18.8319 15.3837 27.2757 15.3992C27.8493 15.4006 28.1834 15.3047 28.0701 14.6719C28.1209 14.6719 28.1717 14.6719 28.2226 14.6719C28.2226 15.1948 28.2226 15.7163 28.2226 16.2393Z" fill="#BFDA72"/>
<path fill-rule="evenodd" clip-rule="evenodd" d="M9.24243 16.6852C9.83788 16.5936 10.2649 16.7078 10.2387 17.4196C10.2155 18.068 9.82771 18.2413 9.22935 18.2554C8.57436 18.2709 8.32749 18.0186 8.3057 17.3773C8.28101 16.6429 8.70943 16.6246 9.24243 16.6852Z" fill="#BDD745"/>
<path fill-rule="evenodd" clip-rule="evenodd" d="M4.58827 16.6852C5.18663 16.5852 5.54537 16.7613 5.52358 17.4153C5.5018 18.0664 5.11402 18.244 4.51131 18.2553C3.90279 18.2666 3.61088 18.0608 3.60362 17.435C3.59635 16.7247 3.98702 16.5894 4.58827 16.6852Z" fill="#BBD647"/>
<path fill-rule="evenodd" clip-rule="evenodd" d="M14.7961 17.4068C14.9224 18.0467 14.6479 18.2807 13.9973 18.2554C13.4207 18.2314 13.0257 18.1877 13.0141 17.4519C12.9996 16.7076 13.3714 16.6582 13.9668 16.6582C14.5448 16.6568 14.9718 16.6977 14.7961 17.4068Z" fill="#BBD647"/>
<path fill-rule="evenodd" clip-rule="evenodd" d="M22.5226 16.6867C23.1282 16.5683 23.4027 16.743 23.3809 17.4167C23.3606 18.0171 23.2139 18.292 22.5458 18.2553C21.9707 18.2243 21.5684 18.1891 21.5655 17.4506C21.5597 16.7219 21.9024 16.5894 22.5226 16.6867Z" fill="#BBD647"/>
<path fill-rule="evenodd" clip-rule="evenodd" d="M19.2275 18.0989C18.7366 18.316 18.2443 18.3174 17.752 18.0975C17.7549 17.793 17.7534 17.4871 17.7578 17.1827C17.7592 17.0064 17.8173 16.8838 18.0192 16.8204C18.8194 16.5765 19.2289 16.8598 19.2289 17.676C19.2304 17.8184 19.2275 17.9594 19.2275 18.0989Z" fill="#BBD647"/>
<path fill-rule="evenodd" clip-rule="evenodd" d="M19.227 18.0994C19.227 17.9584 19.2299 17.8174 19.2285 17.6778C19.2285 16.86 18.8189 16.5766 18.0187 16.8219C17.8168 16.884 17.7587 17.0066 17.7573 17.1843C17.7529 17.4889 17.7544 17.7948 17.7515 18.0994C17.4538 17.7426 17.6527 17.3295 17.6208 16.9432C17.6077 16.781 17.7398 16.695 17.9069 16.6838C18.0274 16.6753 18.1494 16.6795 18.2714 16.6767C19.4681 16.6556 19.6656 16.9474 19.227 18.0994Z" fill="#B9D763"/>
<path fill-rule="evenodd" clip-rule="evenodd" d="M29.251 10.8091C29.4819 10.2806 29.8871 9.86339 30.2197 9.3997C30.3867 9.16855 30.6089 8.9811 30.5871 8.65834C30.5726 8.44552 30.7323 8.37364 30.9255 8.38491C31.107 8.39478 31.3844 8.30457 31.4222 8.54981C31.5471 9.37151 32.1963 9.89018 32.5768 10.5611C32.6203 10.64 32.6203 10.7415 32.6407 10.8317C31.5093 10.8246 30.3809 10.8176 29.251 10.8091Z" fill="#EDEB6B"/>
<path fill-rule="evenodd" clip-rule="evenodd" d="M29.4135 14.2245C29.4091 13.2831 29.4047 12.3416 29.4004 11.3987C30.873 11.3818 30.873 11.3818 30.873 12.7799C30.873 12.8264 30.873 12.8743 30.873 12.9223C30.873 14.295 30.873 14.295 29.4135 14.2245Z" fill="#EDEB6B"/>
<path fill-rule="evenodd" clip-rule="evenodd" d="M29.4136 14.2235C30.8732 14.294 30.8732 14.294 30.8732 12.9216C30.8732 12.8737 30.8732 12.8272 30.8732 12.7793C30.8732 11.3816 30.8732 11.3816 29.4005 11.3985C29.3192 11.2097 29.2175 11.0251 29.2495 10.8096C30.3794 10.8166 31.5093 10.8251 32.6392 10.8321C32.5884 11.0153 32.539 11.1999 32.4881 11.383C32.4402 11.383 32.3937 11.3943 32.3487 11.414C31.1578 11.3633 31.1578 11.3633 31.1578 12.5004C31.1578 12.7624 31.1578 13.0231 31.1578 13.2852C31.1578 14.2686 31.1578 14.2686 32.202 14.2419C32.25 14.2405 32.2993 14.232 32.3487 14.2278L32.4155 14.2391L32.4823 14.2348C32.5985 14.2545 32.7815 14.239 32.8164 14.3025C32.8846 14.4264 32.7321 14.4884 32.6305 14.5434C31.5049 14.5434 30.3794 14.5448 29.2553 14.5448C29.1609 14.3673 29.1609 14.2362 29.4136 14.2235Z" fill="#7DBE43"/>
<path fill-rule="evenodd" clip-rule="evenodd" d="M29.2539 14.5435C30.378 14.5435 31.5035 14.5421 32.6291 14.5421C32.343 15.0721 31.7504 15.2821 31.351 15.6951C31.1622 15.891 30.9575 15.8051 30.7658 15.6585C30.2662 15.2807 29.7593 14.9142 29.2539 14.5435Z" fill="#E6E86A"/>
<path fill-rule="evenodd" clip-rule="evenodd" d="M28.2233 14.6736C28.1724 14.6736 28.1216 14.6736 28.0708 14.6736C23.1097 14.6736 18.1471 14.6722 13.1846 14.6722C13.186 14.6268 13.1875 14.5828 13.1904 14.5374C18.0121 14.536 22.8381 14.5346 27.6612 14.5247C27.9372 14.5247 28.2523 14.6452 28.4905 14.3871C28.6488 14.641 28.643 14.6466 28.2233 14.6736Z" fill="#B9D763"/>
<path fill-rule="evenodd" clip-rule="evenodd" d="M32.3491 11.4126C32.3927 11.3929 32.4406 11.383 32.4885 11.3816C32.4856 12.3316 32.4827 13.2831 32.4813 14.2331L32.4145 14.2373L32.3477 14.226C32.3491 13.2887 32.3491 12.3514 32.3491 11.4126Z" fill="#E0E886"/>
<path fill-rule="evenodd" clip-rule="evenodd" d="M23.6523 12.8124C24.2202 12.8998 24.438 12.6912 24.4046 12.1119C24.3814 11.7314 24.2318 11.3058 24.5426 10.952C24.5354 11.6144 24.5281 12.2782 24.5208 12.9406C24.2275 12.9251 23.9181 13.0055 23.6523 12.8124Z" fill="#E0E886"/>
<path fill-rule="evenodd" clip-rule="evenodd" d="M40.4271 12.3746C40.1062 12.407 40.0176 12.2349 40.0147 11.9499C40.0132 11.6537 40.1309 11.5309 40.4446 11.5253C40.8004 11.5197 40.9064 11.672 40.9006 11.9951C40.8933 12.3195 40.7176 12.3985 40.4271 12.3746Z" fill="#BFD84A"/>
<path fill-rule="evenodd" clip-rule="evenodd" d="M43.8423 11.9049C43.8452 12.1475 43.8467 12.383 43.5286 12.3632C43.257 12.3449 43.0029 12.2716 42.9709 11.9359C42.9419 11.6201 43.1162 11.5326 43.4052 11.5298C43.6985 11.5256 43.8743 11.6144 43.8423 11.9049Z" fill="#BBD647"/>
<path fill-rule="evenodd" clip-rule="evenodd" d="M13.1891 14.5364C13.1862 14.5818 13.1847 14.6257 13.1833 14.671C9.54957 14.671 5.91444 14.671 2.2793 14.6696C2.43034 14.4996 2.63657 14.5379 2.82828 14.5379C6.28188 14.5364 9.73403 14.5364 13.1891 14.5364Z" fill="#A3CF67"/>
<path fill-rule="evenodd" clip-rule="evenodd" d="M5.9849 12.3717C5.65668 12.4055 5.52742 12.2687 5.53032 11.9682C5.53323 11.6903 5.61021 11.5309 5.93843 11.5267C6.27682 11.5238 6.4206 11.6395 6.41189 11.9767C6.40608 12.2842 6.27246 12.4084 5.9849 12.3717Z" fill="#BBD647"/>
<path fill-rule="evenodd" clip-rule="evenodd" d="M28.6556 19.6595C28.6556 20.5295 28.6556 21.3994 28.6541 22.2708C28.4218 21.4008 28.4203 20.5295 28.6556 19.6595Z" fill="#E0E886"/>
<path fill-rule="evenodd" clip-rule="evenodd" d="M33.3818 22.2708C33.3818 21.4008 33.3818 20.5309 33.3818 19.6595C33.6157 20.5295 33.6142 21.4008 33.3818 22.2708Z" fill="#E0E886"/>
<path fill-rule="evenodd" clip-rule="evenodd" d="M33.8011 5.95316C33.8345 6.24945 33.7096 6.37925 33.3872 6.38631C33.0183 6.39618 32.9341 6.22828 32.9356 5.90942C32.937 5.5835 33.1026 5.51578 33.3945 5.51437C33.7256 5.51014 33.8345 5.6611 33.8011 5.95316Z" fill="#DFE56E"/>
<path fill-rule="evenodd" clip-rule="evenodd" d="M29.5354 5.98707C29.5717 6.30727 29.3887 6.38203 29.0925 6.38626C28.7686 6.39049 28.6757 6.24803 28.6684 5.95463C28.6582 5.59916 28.8267 5.50888 29.1578 5.51453C29.5093 5.52017 29.5572 5.71483 29.5354 5.98707Z" fill="#DFE56E"/>
<path fill-rule="evenodd" clip-rule="evenodd" d="M31.2149 5.52724C31.4879 5.4948 31.6201 5.61188 31.6085 5.88837C31.5983 6.12395 31.6462 6.37927 31.2643 6.37927C30.9913 6.37927 30.8504 6.2904 30.862 6.0111C30.8693 5.7727 30.8257 5.50608 31.2149 5.52724Z" fill="#EDEB6B"/>
<path fill-rule="evenodd" clip-rule="evenodd" d="M32.3486 11.4128C32.3486 12.3518 32.3486 13.2894 32.3471 14.2285C32.2992 14.2327 32.2498 14.2412 32.2005 14.2426C31.1562 14.2694 31.1562 14.2694 31.1562 13.2852C31.1562 13.023 31.1562 12.7621 31.1562 12.4999C31.1577 11.362 31.1577 11.362 32.3486 11.4128Z" fill="#EDEB6B"/>
</svg>
