<svg width="57" height="39" viewBox="0 0 57 39" fill="none" xmlns="http://www.w3.org/2000/svg">
<path fill-rule="evenodd" clip-rule="evenodd" d="M36.6041 18.6954C36.8597 17.5626 37.1124 16.4311 37.3826 15.2264C37.6992 15.597 37.6759 16.0098 37.7761 16.3706C38.4123 18.6644 38.8988 21.0034 40.0112 23.1507C40.2625 23.6354 40.5384 24.0905 40.9611 24.4653C41.6117 25.043 42.1636 25.0571 42.7794 24.4258C43.4692 23.7213 43.7698 22.8125 44.1344 21.9361C44.5105 21.0315 44.6354 20.041 45.1495 19.1872C45.4255 19.4464 45.3078 19.7691 45.273 20.0621C45.2105 20.599 45.0784 21.1302 45.0188 21.6684C44.6833 24.7259 44.1242 27.7426 43.2935 30.7114C43.1134 31.3525 42.9594 32.0006 42.7547 32.7911C43.3385 32.4233 43.7582 32.1429 44.1954 31.8851C46.1778 30.717 48.2284 30.2112 50.4272 31.3299C50.7961 31.5188 50.7758 31.213 50.8339 31.0496C51.1955 30.0196 51.499 28.9713 51.727 27.9047C52.1831 25.7771 52.6856 23.6579 52.8235 21.4796L52.8163 21.4866C52.8352 21.4754 52.8686 21.4655 52.8686 21.4542C52.87 21.4218 52.8569 21.388 52.8511 21.3542C52.7219 20.8949 53.0937 20.5539 53.1067 20.0466C53.5453 20.3087 53.74 20.6652 53.9752 20.9724C55.5946 23.0873 56.6693 25.3755 56.3657 28.1033C56.2336 29.2756 55.9504 30.3944 55.246 31.375C54.4864 32.4318 53.4538 33.0348 52.1061 33.0827C50.2312 33.6858 48.2851 33.8366 46.3303 33.9324C45.1045 33.9296 43.8773 33.9267 42.6515 33.9225C42.6298 32.3078 41.9254 30.9213 40.9698 29.6786C40.0447 28.4795 38.8349 28.4894 37.6861 29.5123C36.8481 30.2605 36.2614 31.1919 35.5977 32.0683C35.5236 31.082 35.374 30.1196 34.6943 29.3207C34.9848 28.0808 35.451 26.8888 35.6717 25.6249C36.0769 23.3226 36.4545 21.0245 36.6041 18.6954Z" fill="#BDD745"/>
<path fill-rule="evenodd" clip-rule="evenodd" d="M46.3302 33.9281C48.2851 33.8337 50.2312 33.6829 52.1061 33.0785C52.3327 33.3405 52.7103 33.3293 52.9688 33.5223C53.1387 33.6505 53.525 33.6984 53.281 34.0633C52.7582 34.2691 52.2194 34.4142 51.6602 34.5044C49.7519 34.8087 47.8319 34.9933 45.9004 35.1173C43.5447 35.2694 41.192 35.2328 38.8407 35.1469C38.0259 35.1173 37.2373 35.006 36.4749 35.3596C36.0348 35.4188 35.6891 35.1342 35.2898 35.0496C35.2447 35.0045 35.1983 34.9609 35.1518 34.9158C34.8947 34.5804 34.5099 34.4071 34.1599 34.1944C32.0787 32.9249 29.8596 32.3091 27.3776 32.7685C25.446 33.125 24.1404 34.4649 22.6285 35.485C22.5748 35.5202 22.5995 35.6654 22.5893 35.7598C22.3192 35.1074 21.731 35.4371 21.2764 35.3582C20.9584 35.1694 20.633 35.0567 20.2409 35.0665C16.1033 35.1807 11.9772 34.958 7.85848 34.6157C6.76925 34.5255 5.66404 34.4635 4.62419 34.0704C4.37584 33.7238 4.74037 33.7069 4.90448 33.5885C5.22545 33.3546 5.69163 33.3912 5.96031 33.0573C6.37858 33.194 6.78667 33.3743 7.21656 33.4603C8.69792 33.7534 10.217 33.7379 11.7129 33.9253C12.638 34.1789 13.5661 34.107 14.4956 33.9591L14.5028 33.9013C16.2093 34.1352 17.9274 34.0337 19.6411 34.0464C20.4442 34.0521 20.5067 33.9689 20.3614 33.1686C20.1915 32.2232 20.4529 31.3271 20.6708 30.4126C20.983 30.9819 21.0484 31.6342 21.4187 32.1542C21.7397 32.6064 22.0287 33.1574 22.7752 32.9361C23.3329 32.7318 23.5304 32.3838 23.3982 31.7864C23.2719 31.2172 23.3285 30.624 23.4912 30.0519C23.5841 29.7885 23.7032 29.7053 23.7773 30.0505C23.8485 30.3887 23.8702 30.7353 24.2319 30.9283C24.3466 31.1735 24.5151 31.2186 24.7649 31.0918C25.0698 30.9368 25.1976 30.7029 25.2993 30.3802C25.4663 29.8547 25.5128 29.2037 26.2477 28.991C26.3668 29.4869 26.1765 29.9632 26.4524 30.3746C26.6209 30.6268 26.7996 30.8227 27.1684 30.7184C27.4996 30.6254 27.6128 30.462 27.6375 30.1168C27.6782 29.5799 27.4531 29.2234 27.0697 28.8811C26.5991 28.4598 26.3842 27.9511 26.7865 27.3622C26.8881 27.2142 26.9448 26.9465 27.1786 26.9986C27.4342 27.055 27.3006 27.3185 27.3253 27.4904C27.3718 27.8201 27.3572 28.2414 27.8452 28.1794C28.2998 28.1216 28.6992 27.8863 28.6396 27.334C28.6164 27.124 28.5467 26.9155 28.4639 26.7183C28.3927 26.5449 28.3739 26.3984 28.5205 26.2646C28.9257 25.8954 28.9882 25.3699 29.2409 24.6794C29.3658 25.7249 30.1951 26.3547 29.8538 27.3354C29.7114 27.7468 30.0527 28.1202 30.4652 28.1611C30.9459 28.209 31.0083 27.7961 31.0171 27.4101C31.02 27.2368 30.9285 27.0381 31.11 26.8761C31.8275 27.2438 31.887 27.8046 31.5878 28.4372C31.4469 28.7331 31.2001 28.9811 31.0301 29.2657C30.8195 29.6166 30.6642 29.9871 30.8239 30.4028C30.9241 30.6648 31.1623 30.662 31.3801 30.6198C31.8216 30.5366 32.1048 30.2957 32.253 29.8547C32.3314 29.6194 32.2428 29.3277 32.4926 29.1164C32.9675 29.5151 33.0561 30.0266 33.0881 30.5831C33.1258 31.2228 33.3669 31.3665 33.8128 31.0875C34.5186 30.693 34.4532 29.9336 34.6958 29.3193C35.3755 30.1182 35.525 31.0805 35.5991 32.0668C35.5875 32.4867 35.923 32.5585 36.2294 32.6219C36.5765 32.6924 36.7566 32.4571 36.9135 32.1978C37.1691 31.7808 37.1269 31.2679 37.3855 30.6987C37.612 31.5187 37.7979 32.1908 37.7965 32.9009C37.795 34.0478 37.7994 34.0507 39.012 34.0521C40.2088 34.0535 41.4069 34.0521 42.6065 34.0521C43.2107 34.0577 43.8177 34.0943 44.419 34.0591C45.0537 34.0183 45.7116 34.2282 46.3302 33.9281Z" fill="#EBEA6B"/>
<path fill-rule="evenodd" clip-rule="evenodd" d="M22.771 32.9362C22.0245 33.1574 21.7355 32.6065 21.4145 32.1542C21.0442 31.6343 20.9789 30.9805 20.6666 30.4127C20.4488 31.3271 20.1873 32.2233 20.3573 33.1687C20.5025 33.969 20.44 34.0521 19.6369 34.0465C17.9232 34.0338 16.2051 34.1352 14.4986 33.9013C14.5683 33.3885 14.3999 32.9601 13.9874 32.6347C12.9258 31.7921 11.9644 30.9185 10.4467 30.6832C9.32405 30.5085 8.53253 30.7678 7.69891 31.299C7.47235 31.4441 7.27048 31.616 6.98583 31.6357L6.98438 31.6343C7.31115 30.6241 7.78606 29.6533 7.94436 28.5993C8.06345 27.8047 8.4149 27.0058 8.01406 26.1928C9.89626 23.9131 10.3886 21.1148 11.1089 18.3997C11.1278 18.3307 11.1467 18.263 11.1656 18.194C11.2367 18.194 11.3079 18.1926 11.3791 18.1912C11.8278 19.5931 12.2243 21.0134 12.8706 22.3491C13.0884 22.7985 13.3194 23.2466 13.5997 23.6608C14.5132 25.0107 15.2059 25.0881 16.4026 24.0103C16.4084 24.3583 16.4113 24.7063 16.4171 25.0543C16.2487 25.1614 16.2748 25.3277 16.2777 25.4869C16.2719 25.9138 16.2661 26.3393 16.2603 26.7662C16.1485 26.8339 16.1209 26.9381 16.1238 27.0551C15.948 28.6458 15.4368 30.1661 14.9518 31.7681C15.402 31.4849 15.3889 31.4765 15.8043 30.8396C17.0024 29.0065 18.552 28.1921 20.5185 29.7082C20.7465 29.8843 20.9759 30.076 21.1473 30.3028C21.766 31.1355 22.5982 31.8456 22.771 32.9362ZM14.7281 32.3994C14.7644 32.3796 14.8022 32.3599 14.8385 32.3388C14.8181 32.3092 14.8022 32.2796 14.776 32.2542C14.7717 32.25 14.7223 32.2697 14.7223 32.2824C14.7179 32.3205 14.7252 32.3613 14.7281 32.3994Z" fill="#7EBE43"/>
<path fill-rule="evenodd" clip-rule="evenodd" d="M24.2283 30.927C23.8681 30.734 23.8449 30.3874 23.7737 30.0492C23.6996 29.704 23.5805 29.7872 23.4876 30.0506C23.0475 29.1531 23.1565 28.1626 22.9909 27.2185C22.744 25.825 22.548 24.4231 22.333 23.0239C23.1419 23.3367 23.4397 23.2592 23.9175 22.5265C24.6088 21.4698 24.9544 20.2735 25.2667 19.0759C25.6878 17.4654 26.125 15.8577 26.2818 14.1951C26.6536 13.2539 26.7219 12.2577 26.8439 11.2714C27.0254 9.95115 27.2099 8.63091 27.3914 7.31208C27.525 6.97956 27.6833 6.65126 27.5788 6.27928V6.28773C27.6775 6.28914 27.7312 6.23842 27.7487 6.14683C27.8082 5.92985 28.1147 5.74386 27.7443 5.49164C27.2665 5.16475 27.3362 4.79419 27.7763 4.46448C28.257 4.46589 28.7377 4.46589 29.2184 4.4673C29.6091 4.73501 29.7107 5.0619 29.3636 5.41838C29.2126 5.57337 29.0049 5.65791 29.1545 5.93125C29.2954 6.18347 29.4755 6.3455 29.779 6.34832C29.9751 6.34973 30.1711 6.34832 30.3686 6.34832C30.3745 6.37791 30.3991 6.45259 30.389 6.45963C29.4145 6.99787 29.4508 7.81087 29.6686 8.72532C29.8734 9.57776 29.9809 10.4528 30.1305 11.3179C30.2336 12.2873 30.267 13.2722 30.6838 14.1852C31.0382 16.9736 31.6147 19.7099 32.8361 22.2814C32.9276 22.473 33.0612 22.6505 33.2021 22.814C33.7046 23.3987 34.226 23.4128 34.7387 22.8323C35.3733 22.1137 35.6667 21.2218 36.0065 20.3581C36.2229 19.8072 36.2984 19.2111 36.6034 18.6912C36.4538 21.0203 36.0762 23.3184 35.6696 25.6179C35.4488 26.8804 34.9827 28.0738 34.6922 29.3137C34.4497 29.9281 34.515 30.6875 33.8092 31.082C33.4287 29.6632 33.0627 28.2401 32.6662 26.8254C31.6249 23.0986 30.5734 19.376 29.5219 15.6534C29.2446 14.6699 28.9526 13.6907 28.668 12.71C27.4292 17.2287 26.3327 21.7164 25.2638 26.2111C24.892 27.7793 24.4447 29.3292 24.2283 30.927Z" fill="#7FBE44"/>
<path fill-rule="evenodd" clip-rule="evenodd" d="M6.98752 31.6342C7.27218 31.6145 7.47404 31.4411 7.7006 31.2974C8.53423 30.7662 9.32575 30.507 10.4484 30.6817C11.9661 30.917 12.9275 31.7906 13.9891 32.6332C14.4016 32.9587 14.5701 33.387 14.5003 33.8999L14.4931 33.9576C13.5665 33.9464 12.6385 33.9351 11.7104 33.9238C10.2146 33.7364 8.69544 33.7533 7.21408 33.4589C6.78565 33.3729 6.3761 33.194 5.95783 33.0559C5.34931 32.8727 4.73209 32.7135 4.13519 32.5021C1.79406 31.6736 0.441952 30.0279 0.10792 27.658C-0.134616 25.9404 0.0164224 24.2256 0.716437 22.6052C1.21313 21.4541 1.95671 20.5171 3.37417 20.1719C3.25363 21.4851 3.25508 22.718 3.60363 23.9227C4.10468 25.6572 5.32172 26.6223 6.82051 26.5223C7.25185 26.4927 7.60476 26.2532 8.01576 26.1898C8.4166 27.0028 8.06514 27.8017 7.94605 28.5964C7.7892 29.6503 7.31284 30.6211 6.98607 31.6314C6.95122 31.6835 6.91491 31.7342 6.8786 31.7864C6.89748 31.7976 6.91637 31.8089 6.93525 31.8202C6.95267 31.7596 6.97009 31.6976 6.98752 31.6342Z" fill="#A0CA43"/>
<path fill-rule="evenodd" clip-rule="evenodd" d="M22.3338 23.0254C22.5487 24.4231 22.7448 25.8251 22.9917 27.22C23.1573 28.1626 23.0483 29.1545 23.4884 30.0521C23.3257 30.6241 23.2691 31.2173 23.3954 31.7865C23.5276 32.384 23.3301 32.732 22.7724 32.9363C22.5996 31.8471 21.7674 31.137 21.1487 30.3043C20.9788 30.0774 20.7493 29.8858 20.5198 29.7097C18.5534 28.1936 17.0038 29.008 15.8056 30.8411C15.3903 31.478 15.4033 31.4864 14.9531 31.7696C15.4382 30.1662 15.9494 28.6473 16.1251 27.0566C16.2413 26.9917 16.2704 26.8875 16.2617 26.7677C16.2675 26.3422 16.2733 25.9153 16.2791 25.4883C16.4447 25.3799 16.4185 25.215 16.4185 25.0558C16.4127 24.7078 16.4098 24.3597 16.404 24.0117C18.1119 21.3403 18.7045 18.2884 19.5541 15.1365C20.2875 17.8685 20.6752 20.5287 22.1653 22.8282C22.222 22.9028 22.2786 22.9775 22.3367 23.0536L22.3338 23.0254Z" fill="#BDD745"/>
<path fill-rule="evenodd" clip-rule="evenodd" d="M52.8238 21.4753C52.6858 23.6536 52.1848 25.7728 51.7273 27.9003C51.4993 28.967 51.1957 30.0153 50.8341 31.0452C50.776 31.2087 50.7963 31.5144 50.4275 31.3256C48.2287 30.2069 46.178 30.7127 44.1956 31.8808C43.7584 32.1386 43.3387 32.419 42.7549 32.7867C42.9597 31.9963 43.1136 31.3482 43.2937 30.7071C44.1244 27.7383 44.6836 24.7217 45.019 21.6641C45.0786 21.1259 45.2107 20.5961 45.2732 20.0579C45.3081 19.7648 45.4257 19.4422 45.1497 19.1829C45.295 18.825 45.3211 18.439 45.3211 17.9951C45.7074 18.1572 45.69 18.4164 45.7496 18.6278C46.223 20.2988 46.7153 21.9628 47.4604 23.5451C47.7247 24.1073 48.0166 24.6568 48.4189 25.1401C49.2816 26.1701 50.0992 26.1715 50.9401 25.1345C51.6314 24.282 52.0163 23.2803 52.4128 22.2813C52.5231 22.0065 52.5188 21.6627 52.8238 21.4753Z" fill="#7DBE43"/>
<path fill-rule="evenodd" clip-rule="evenodd" d="M4.6231 34.0719C5.66296 34.465 6.76962 34.5256 7.8574 34.6172C11.9762 34.9609 16.1036 35.1821 20.2398 35.068C20.6319 35.0568 20.9573 35.1709 21.2753 35.3597C21.2782 36.2205 21.2826 37.0814 21.2869 37.9423C16.5132 38.1212 11.7467 38.1395 7.01652 37.3505C6.34264 37.2378 5.68764 37.0462 5.03846 36.8306C4.70007 36.7193 4.58389 36.5446 4.59551 36.2079C4.62165 35.4963 4.61584 34.7834 4.6231 34.0719Z" fill="#7FBE43"/>
<path fill-rule="evenodd" clip-rule="evenodd" d="M36.4741 35.3611C37.2365 35.0088 38.0251 35.1187 38.8399 35.1483C41.1912 35.2343 43.5439 35.2695 45.8996 35.1187C47.8311 34.9947 49.7497 34.8102 51.6594 34.5058C52.2186 34.4171 52.7574 34.2719 53.2802 34.0648C53.2889 34.5876 53.2265 35.1216 53.3238 35.6274C53.4806 36.4333 53.058 36.7095 52.3725 36.911C50.2943 37.5239 48.1565 37.7563 46.007 37.8775C42.8294 38.0579 39.6474 38.1325 36.4668 37.9395C36.4682 37.08 36.4711 36.2206 36.4741 35.3611Z" fill="#7FBE43"/>
<path fill-rule="evenodd" clip-rule="evenodd" d="M22.5879 35.7611C22.5995 35.6667 22.5734 35.5216 22.6271 35.4864C24.139 34.4663 25.4431 33.1277 27.3762 32.7699C29.8582 32.3105 32.0773 32.9263 34.1585 34.1958C34.507 34.4071 34.8933 34.5818 35.1504 34.9172C35.1446 35.9175 35.1402 36.9179 35.1344 37.9197C33.8578 37.9211 32.5798 37.9225 31.3018 37.9239C31.3032 37.521 31.3119 37.1194 31.3018 36.7178C31.2655 35.1327 31.6111 35.3849 29.8698 35.3399C29.4021 35.3272 29.209 35.461 29.2337 35.9373C29.2671 36.5981 29.2424 37.2617 29.2424 37.9253C29.0957 37.9253 28.9505 37.9253 28.8023 37.9253C28.8023 37.5224 28.8125 37.1208 28.8023 36.7193C28.7573 35.144 29.1538 35.3765 27.2963 35.3427C26.894 35.3356 26.7226 35.4624 26.7371 35.8696C26.7604 36.5544 26.7429 37.242 26.7415 37.9268C25.3647 37.9211 23.9865 37.9155 22.6068 37.9098C22.601 37.1941 22.5937 36.4769 22.5879 35.7611Z" fill="#7EBE43"/>
<path fill-rule="evenodd" clip-rule="evenodd" d="M26.7435 37.9279C26.745 37.2415 26.7624 36.555 26.7391 35.8699C26.7246 35.4625 26.8945 35.3356 27.2983 35.3427C29.1558 35.3765 28.7593 35.1439 28.8043 36.7199C28.8145 37.1216 28.8043 37.5248 28.8043 37.9265C28.1174 37.9998 27.4304 37.9956 26.7435 37.9279Z" fill="#BCD643"/>
<path fill-rule="evenodd" clip-rule="evenodd" d="M29.2444 37.9264C29.2444 37.2639 29.2706 36.6 29.2357 35.9376C29.2096 35.4611 29.4027 35.3272 29.8718 35.3399C31.6132 35.385 31.2675 35.1327 31.3038 36.7184C31.314 37.1201 31.3053 37.5232 31.3038 37.925C30.6169 37.9997 29.9299 37.9968 29.2444 37.9264Z" fill="#BCD643"/>
<path fill-rule="evenodd" clip-rule="evenodd" d="M26.8439 11.2743C26.7219 12.2609 26.6537 13.2574 26.2819 14.199C25.0866 13.4139 24.0918 12.3934 22.959 11.4801C24.2966 11.9255 25.6414 12.6528 26.8439 11.2743Z" fill="#BED74C"/>
<path fill-rule="evenodd" clip-rule="evenodd" d="M30.6852 14.1929C30.2683 13.2792 30.2349 12.2937 30.1318 11.3236C30.6038 11.7551 31.0991 12.0934 31.8078 12.0793C32.4512 12.0667 32.9943 11.7029 33.6595 11.6987C32.6952 12.5714 31.757 13.4569 30.6852 14.1929Z" fill="#BED74C"/>
<path fill-rule="evenodd" clip-rule="evenodd" d="M22.5883 35.7615C22.5941 36.4789 22.6014 37.1949 22.6086 37.911C22.1686 38.004 21.73 37.9814 21.287 37.942C21.2827 37.0808 21.2783 36.2196 21.2754 35.3584C21.7314 35.4373 22.3196 35.1089 22.5883 35.7615Z" fill="#BDD745"/>
<path fill-rule="evenodd" clip-rule="evenodd" d="M36.4741 35.3611C36.4712 36.2207 36.4683 37.0802 36.4669 37.9411C36.0718 38.0919 35.6797 37.9073 35.2861 37.9228C35.2861 36.966 35.289 36.0093 35.289 35.0511C35.6884 35.1357 36.0341 35.4189 36.4741 35.3611Z" fill="#BDD745"/>
<path fill-rule="evenodd" clip-rule="evenodd" d="M29.2191 4.47131C28.7384 4.4699 28.2577 4.4699 27.777 4.46849C27.6288 4.1821 27.4255 3.8943 27.7944 3.61637C28.2374 3.60649 28.6789 3.5952 29.1218 3.58533C29.5953 3.83222 29.3571 4.1567 29.2191 4.47131Z" fill="#BED74C"/>
<path fill-rule="evenodd" clip-rule="evenodd" d="M28.1133 2.86471C28.2309 2.17545 28.35 1.48619 28.4691 0.79834C28.5011 0.802568 28.5345 0.808206 28.5679 0.813844C28.6899 1.50592 28.8118 2.19659 28.9338 2.88867C28.6608 2.88021 28.3878 2.87317 28.1133 2.86471Z" fill="#C3DA57"/>
<path fill-rule="evenodd" clip-rule="evenodd" d="M28.1125 2.86389C28.3855 2.87235 28.66 2.87941 28.933 2.88787C29.3426 3.03313 29.0637 3.35187 29.1204 3.58457C28.6774 3.59445 28.2359 3.60573 27.793 3.6156C27.8874 3.36033 27.6521 2.97249 28.1125 2.86389Z" fill="#E8E973"/>
<path fill-rule="evenodd" clip-rule="evenodd" d="M27.578 6.28221C27.6826 6.65425 27.5243 6.9826 27.3906 7.31519C26.9477 6.96287 26.5047 6.61056 25.9775 6.19202C26.5875 6.19484 27.074 6.44005 27.578 6.28221Z" fill="#BED74C"/>
<path fill-rule="evenodd" clip-rule="evenodd" d="M35.2887 35.0511C35.2887 36.0096 35.2858 36.9666 35.2858 37.9236C35.235 37.9222 35.1856 37.9222 35.1348 37.9208C35.1406 36.9201 35.1449 35.9179 35.1507 34.9172C35.1972 34.9609 35.2422 35.006 35.2887 35.0511Z" fill="#ADD365"/>
<path fill-rule="evenodd" clip-rule="evenodd" d="M11.3798 18.1924C11.3086 18.1924 11.236 18.1938 11.1663 18.1952C11.1489 18.0973 11.1634 17.9909 11.2767 17.9895C11.3972 17.9881 11.39 18.1016 11.3798 18.1924Z" fill="#A0CA43"/>
<path fill-rule="evenodd" clip-rule="evenodd" d="M22.3354 23.0521C22.2773 22.977 22.2207 22.9019 22.1641 22.8253C22.2599 22.8735 22.3383 22.9331 22.3354 23.0521Z" fill="#7FBE44"/>
<path fill-rule="evenodd" clip-rule="evenodd" d="M52.8513 21.35C52.8571 21.3826 52.8701 21.4167 52.8687 21.4508C52.8687 21.4621 52.8353 21.4735 52.8164 21.4834C52.828 21.4394 52.8396 21.394 52.8513 21.35Z" fill="#7DBE43"/>
<path fill-rule="evenodd" clip-rule="evenodd" d="M30.6282 6.22437L30.6514 6.26831L30.5977 6.26547L30.6282 6.22437Z" fill="#7FBE44"/>
<path fill-rule="evenodd" clip-rule="evenodd" d="M27.748 6.14966C27.7306 6.24192 27.6769 6.29302 27.5781 6.2916C27.6348 6.24334 27.6914 6.1965 27.748 6.14966Z" fill="#BED74C"/>
<path fill-rule="evenodd" clip-rule="evenodd" d="M42.6043 34.0479C41.4062 34.0479 40.208 34.0508 39.0098 34.0479C37.7972 34.0465 37.7928 34.0451 37.7943 32.8968C37.7957 32.1867 37.6098 31.5146 37.3833 30.6945C37.1247 31.2638 37.1669 31.7766 36.9113 32.1937C36.7559 32.453 36.5758 32.6883 36.2272 32.6178C35.9208 32.5558 35.5867 32.484 35.5969 32.0627C36.2606 31.1863 36.8474 30.2549 37.6853 29.5068C38.8341 28.4838 40.0439 28.474 40.969 29.673C41.9246 30.9143 42.6305 32.3008 42.6508 33.9169C42.6363 33.962 42.6203 34.0043 42.6043 34.0479Z" fill="#7EBE43"/>
<path fill-rule="evenodd" clip-rule="evenodd" d="M42.6045 34.0487C42.6219 34.0047 42.6364 33.9622 42.6524 33.9183C43.8782 33.9212 45.1054 33.9254 46.3311 33.9283C45.7124 34.23 45.0545 34.0189 44.417 34.0572C43.8157 34.0926 43.2087 34.0543 42.6045 34.0487Z" fill="#E3E885"/>
<path fill-rule="evenodd" clip-rule="evenodd" d="M24.2275 30.927C24.4425 29.3292 24.8912 27.7779 25.2645 26.2125C26.3319 21.7178 27.4299 17.2301 28.6687 12.7114C28.9534 13.6921 29.2438 14.6714 29.5227 15.6548C30.5741 19.3774 31.6256 23.1 32.6669 26.8268C33.0634 28.2415 33.4294 29.6646 33.8099 31.0834C33.364 31.3624 33.1229 31.2187 33.0852 30.579C33.0532 30.021 32.9646 29.511 32.4897 29.1122C32.2399 29.3236 32.3285 29.6152 32.2501 29.8505C32.102 30.2916 31.8188 30.5325 31.3773 30.6156C31.1609 30.6565 30.9227 30.6607 30.821 30.3986C30.6613 29.9844 30.8167 29.6124 31.0273 29.2616C31.1972 28.977 31.4441 28.729 31.585 28.4331C31.8841 27.8004 31.8246 27.2397 31.1071 26.8719C30.9256 27.0339 31.0156 27.2326 31.0142 27.4059C31.0055 27.7906 30.943 28.2034 30.4623 28.1569C30.0499 28.1161 29.7086 27.7427 29.8509 27.3312C30.1922 26.3506 29.3629 25.7208 29.238 24.6753C28.9853 25.3657 28.9229 25.8912 28.5177 26.2604C28.371 26.3943 28.3899 26.5422 28.461 26.7141C28.5438 26.9114 28.6135 27.1199 28.6368 27.3298C28.6963 27.8836 28.2969 28.1175 27.8423 28.1752C27.3544 28.2372 27.3689 27.8174 27.3224 27.4862C27.2977 27.3143 27.4313 27.0509 27.1757 26.9945C26.9434 26.9424 26.8867 27.2101 26.7836 27.358C26.3828 27.947 26.5963 28.4556 27.0668 28.8769C27.4502 29.2207 27.6753 29.5758 27.6347 30.1126C27.6085 30.4578 27.4952 30.6213 27.1656 30.7143C26.7967 30.8185 26.618 30.6227 26.4496 30.3705C26.1751 29.959 26.3639 29.4828 26.2448 28.9868C25.5099 29.1996 25.4635 29.852 25.2964 30.3761C25.1948 30.6988 25.067 30.9327 24.762 31.0877C24.5122 31.2173 24.3423 31.1736 24.2275 30.927Z" fill="#BDD745"/>
<path fill-rule="evenodd" clip-rule="evenodd" d="M11.71 33.924C12.638 33.9353 13.566 33.9466 14.4926 33.958C13.5631 34.1083 12.6351 34.1792 11.71 33.924Z" fill="#E3E885"/>
<path fill-rule="evenodd" clip-rule="evenodd" d="M14.7285 32.4004C14.7256 32.3606 14.7168 32.3209 14.7227 32.2825C14.7227 32.2697 14.772 32.2499 14.7764 32.2541C14.8025 32.2783 14.8185 32.3095 14.8388 32.3393C14.8025 32.3606 14.7662 32.3805 14.7285 32.4004Z" fill="#A0CA43"/>
<path fill-rule="evenodd" clip-rule="evenodd" d="M16.4164 25.0542C16.4164 25.2136 16.4439 25.3787 16.2769 25.4873C16.2755 25.3279 16.2479 25.1614 16.4164 25.0542Z" fill="#A0CA43"/>
<path fill-rule="evenodd" clip-rule="evenodd" d="M16.2608 26.7664C16.2695 26.8869 16.2404 26.9918 16.1242 27.057C16.1213 26.9393 16.1489 26.8344 16.2608 26.7664Z" fill="#A0CA43"/>
<path fill-rule="evenodd" clip-rule="evenodd" d="M6.98782 31.6344C6.9704 31.6967 6.95298 31.759 6.93555 31.8228C6.91667 31.8114 6.89779 31.7987 6.87891 31.7888C6.91376 31.7363 6.95006 31.6853 6.98637 31.6329L6.98782 31.6344Z" fill="#7EBE43"/>
</svg>
