<svg width="66" height="23" viewBox="0 0 66 23" fill="none" xmlns="http://www.w3.org/2000/svg">
<path fill-rule="evenodd" clip-rule="evenodd" d="M65.9976 22.2416C65.7137 22.2326 65.4324 22.2171 65.1498 22.2171C43.4887 22.2145 21.8289 22.2145 0.169158 22.2132C0.10335 21.3073 0.108514 20.4028 0.163999 19.4969C0.24142 19.493 0.317541 19.4891 0.396253 19.4852C0.914973 19.484 1.4337 19.4827 1.95113 19.4801C2.30984 19.4801 2.66856 19.4814 3.02728 19.4814C12.2158 19.7033 21.407 19.9343 30.5956 20.1382C33.1866 20.1963 35.7776 20.3434 38.3686 20.2776C38.939 20.1872 39.5493 20.4673 40.0912 20.1008C40.3842 20.4337 40.4164 20.0698 40.4964 19.9343C41.4461 18.3522 42.3971 16.7702 43.5081 15.2926C43.992 15.5468 44.161 16.0062 44.2849 16.494C43.4939 17.778 42.6165 19.0104 41.8358 20.5266C43.5675 20.5266 45.1533 20.5266 46.7404 20.5266C47.2643 20.5305 47.7895 20.5357 48.3121 20.5408C51.8515 20.6286 55.3896 20.7163 58.9291 20.8054C59.3665 21.0028 59.8026 21.0093 60.2375 20.8015C61.7652 20.9241 63.2943 20.9292 64.8247 20.9318C65.1743 20.9705 65.5253 21.0105 65.875 21.0493C65.9163 21.057 65.9576 21.0622 66.0002 21.0647C65.9976 21.4557 65.9976 21.8493 65.9976 22.2416Z" fill="#80BF46"/>
<path fill-rule="evenodd" clip-rule="evenodd" d="M0.161294 11.4782C0.107099 11.4859 0.0541946 11.495 0 11.504C0 10.5439 0 9.58252 0 8.62244C0.0451622 8.62373 0.0903189 8.62373 0.135481 8.62502C0.144514 9.57607 0.152261 10.5271 0.161294 11.4782Z" fill="#D7E8C4"/>
<path fill-rule="evenodd" clip-rule="evenodd" d="M0 19.3615C0.0464525 19.3628 0.0928982 19.3641 0.13806 19.3667C0.145802 19.4093 0.15484 19.4531 0.163873 19.497C0.108388 20.4029 0.103224 21.3088 0.169031 22.2134C0.112256 22.2224 0.0567753 22.2327 0 22.2418C0 21.2817 0 20.3216 0 19.3615Z" fill="#D7E8C4"/>
<path fill-rule="evenodd" clip-rule="evenodd" d="M0.163508 19.4957C0.154475 19.4518 0.145437 19.4092 0.137695 19.3653C2.53903 15.8192 5.13779 12.4318 8.12366 9.3541C8.18301 9.29345 8.22173 9.21344 8.26947 9.14246C8.77658 8.62242 9.43982 8.26497 9.83209 7.62749C11.0876 6.60934 12.3405 5.59117 13.5947 4.57172C14.3986 4.19105 15.1444 3.71746 15.8541 3.18451C16.138 3.08772 16.4477 3.03352 16.6167 2.74059C18.0026 2.19344 19.3832 1.62565 20.8104 1.18948C21.4775 1.09269 22.1407 0.977847 22.8091 0.90042C26.6492 0.456509 30.1383 1.48757 33.3861 3.46452C37.2623 5.82474 40.283 9.08956 43.0315 12.6396C43.4431 13.1712 43.8586 13.7003 44.2715 14.2294C44.4702 14.6617 44.6767 15.0901 45.1438 15.3069C45.0818 15.6837 45.3825 15.8928 45.5489 16.1573C46.2496 17.2684 46.967 18.3704 47.7283 19.5576C48.2522 17.9588 48.7774 16.4735 49.4148 15.032C49.6742 14.5133 50.0174 14.0307 50.1413 13.4487C50.4948 12.8434 50.851 12.2382 51.2058 11.633C51.5671 11.3749 51.7916 11.0084 51.9994 10.6278C52.1684 10.4729 52.4084 10.3645 52.3826 10.0729C52.8304 9.89608 53.1736 9.56702 53.5465 9.28183C55.2072 8.35659 56.7646 8.63661 58.2524 9.68703C59.5144 10.5761 60.4963 11.7375 61.3957 12.9738C63.1519 15.3947 64.5196 18.0388 65.7893 20.7358C65.8345 20.8313 65.8448 20.9435 65.8706 21.0468C65.521 21.0081 65.17 20.9681 64.8203 20.9294C64.5816 20.3487 64.3674 19.7563 64.0977 19.1911C63.6332 18.2156 63.2732 17.1832 62.6099 16.3109C62.6022 16.0695 62.5351 15.8553 62.3402 15.6953C61.886 14.8127 61.3776 13.9648 60.7673 13.1803C60.6434 12.8241 60.3892 12.5596 60.1415 12.2911C59.717 11.8201 59.3312 11.3117 58.8098 10.9349C58.535 10.5632 58.2073 10.2677 57.7311 10.1851C56.8008 9.47927 55.5478 9.37474 54.6769 9.93092C54.2588 9.94383 53.9685 10.2006 53.6846 10.4652C52.66 11.2098 51.9671 12.2331 51.3426 13.3028C50.0122 15.5805 49.1077 18.0375 48.309 20.5396C47.7864 20.5345 47.2612 20.5306 46.7373 20.5254C46.1206 19.1176 45.2638 17.8465 44.4612 16.5457C44.4366 16.5057 44.3437 16.5096 44.2818 16.4928C44.1579 16.0063 43.9889 15.5469 43.505 15.2914C43.2779 14.4488 42.6689 13.85 42.1721 13.1777C41.9876 12.8254 41.8379 12.4434 41.4211 12.2873C41.4005 12.2047 41.403 12.104 41.3566 12.0421C40.3204 10.6794 39.2636 9.33474 37.9888 8.18108C37.7294 7.68039 37.3178 7.33327 36.8391 7.05712C35.7229 5.96282 34.5126 4.9924 33.1267 4.25556C32.7035 3.85682 32.1899 3.61164 31.6583 3.39872C30.4377 2.80899 29.1667 2.35217 27.826 2.13537C26.7214 1.956 25.6053 1.75469 24.4853 2.06182C23.3898 1.94052 22.3652 2.23861 21.3485 2.58316C20.6994 2.69671 20.1033 2.96513 19.5045 3.22451C16.6064 4.4814 14.1341 6.36028 11.8708 8.52822C8.45658 11.8008 5.57135 15.5069 3.02163 19.4789C2.66291 19.4789 2.30419 19.4776 1.94547 19.4776C1.42675 19.2944 0.908032 19.2827 0.390603 19.4828C0.317053 19.4879 0.240929 19.4918 0.163508 19.4957Z" fill="#BED748"/>
<path fill-rule="evenodd" clip-rule="evenodd" d="M20.812 1.1895C19.3849 1.62438 18.0042 2.19218 16.6184 2.74061C15.8041 2.74061 15.0312 2.94192 14.2751 3.22324C12.8325 3.54069 11.4724 4.07105 10.186 4.79499C8.34206 5.62087 6.61816 6.65064 4.98328 7.83527C4.20391 8.25724 3.49422 8.77342 2.85034 9.38121C1.89161 9.99934 1.06707 10.7904 0.162531 11.4782C0.153499 10.5271 0.145751 9.57607 0.136719 8.62631C3.98454 5.83896 8.02462 3.4168 12.6144 2.0399C15.2919 1.23596 18.0145 0.853985 20.812 1.1895Z" fill="#7FBE45"/>
<path fill-rule="evenodd" clip-rule="evenodd" d="M45.1438 15.3082C44.6779 15.0914 44.4715 14.6629 44.2715 14.2306C45.3076 12.9415 46.376 11.6846 47.6793 10.6497C48.6935 9.84444 49.7774 9.17727 51.0794 8.95274C51.9362 8.80434 52.7659 8.88177 53.5491 9.2831C53.1762 9.56957 52.8316 9.89864 52.3852 10.0741C51.6471 10.0728 50.9284 10.1516 50.2884 10.5671C49.5503 10.7542 48.9877 11.2265 48.4458 11.7272C47.7748 12.2847 47.1102 12.8447 46.6199 13.579C46.1076 13.9571 45.7541 14.4694 45.4251 15.0023C45.3309 15.1043 45.2379 15.2062 45.1438 15.3082Z" fill="#7FBE45"/>
<path fill-rule="evenodd" clip-rule="evenodd" d="M38.3684 20.2777C37.087 17.2206 35.6406 14.25 33.7709 11.5014C32.2547 9.2715 30.514 7.24937 28.3566 5.60664C26.2701 4.0194 23.9332 3.02189 21.3525 2.58443C22.3693 2.23988 23.3939 1.9405 24.4894 2.06309C25.8546 2.467 27.0636 3.19223 28.2804 3.90197C28.6482 4.21168 29.0095 4.53042 29.465 4.71108C30.5347 5.63761 31.5876 6.58093 32.5747 7.5965C32.7463 7.98622 33.0547 8.25204 33.3838 8.50239C34.367 9.79799 35.3373 11.1026 36.229 12.4627C36.3903 12.8667 36.6135 13.2344 36.8793 13.5764C38.0845 15.6863 39.22 17.8284 40.0897 20.1022C39.5491 20.4674 38.94 20.1873 38.3684 20.2777Z" fill="#7FBE45"/>
<path fill-rule="evenodd" clip-rule="evenodd" d="M58.9143 16.6064C59.3698 18.0001 59.9234 19.3628 60.2344 20.8003C59.7995 21.0081 59.3634 21.0017 58.926 20.8042C58.273 17.7665 57.384 14.8204 55.5917 12.2279C55.0898 11.5014 54.442 10.9207 53.6846 10.4665C53.9684 10.202 54.2575 9.94516 54.6768 9.93225C54.9039 10.1207 55.1297 10.3091 55.3543 10.4988C55.4781 10.7749 55.6769 10.9788 55.9401 11.1246C56.2795 11.6072 56.6175 12.0899 56.9569 12.5738C57.0679 12.9054 57.2563 13.1919 57.473 13.4616C57.8589 14.2746 58.2421 15.0876 58.6279 15.9005C58.6834 16.1509 58.7376 16.4038 58.9143 16.6064Z" fill="#81BF47"/>
<path fill-rule="evenodd" clip-rule="evenodd" d="M0.396484 19.4842C0.913914 19.2842 1.43264 19.2958 1.95136 19.479C1.43264 19.4816 0.915205 19.4829 0.396484 19.4842Z" fill="#C5DB6A"/>
<path fill-rule="evenodd" clip-rule="evenodd" d="M2.84863 9.38116C3.49252 8.77336 4.2035 8.25719 4.98158 7.83521C5.43707 7.82876 5.89128 7.83522 6.34549 7.81457C7.5068 7.75908 8.67068 7.69068 9.83328 7.62616C9.44102 8.26493 8.77778 8.62109 8.27067 9.14114C6.69903 9.23018 5.12738 9.32181 3.55703 9.40439C3.3209 9.41859 3.08477 9.39148 2.84863 9.38116Z" fill="#ECEB71"/>
<path fill-rule="evenodd" clip-rule="evenodd" d="M46.6206 13.5789C47.7923 13.4667 48.9678 13.4525 50.1433 13.4499C50.0181 14.0319 49.6762 14.5145 49.4168 15.0333C48.72 14.8074 48.0052 14.9352 47.3045 14.9636C46.6774 14.9894 46.0516 15.0204 45.4258 15.001C45.7548 14.4693 46.1071 13.957 46.6206 13.5789Z" fill="#ECEB71"/>
<path fill-rule="evenodd" clip-rule="evenodd" d="M36.2305 12.4614C37.957 12.2859 39.6912 12.2627 41.4241 12.2885C41.8409 12.4446 41.9906 12.8266 42.1751 13.1789C40.6151 13.2653 39.055 13.3518 37.4963 13.4421C37.286 13.4537 37.055 13.3918 36.8795 13.5763C36.615 13.2331 36.3918 12.8653 36.2305 12.4614Z" fill="#ECEB71"/>
<path fill-rule="evenodd" clip-rule="evenodd" d="M32.5762 7.59517C33.7052 7.3345 34.864 7.33967 36.0059 7.18223C36.2846 7.14352 36.5633 7.09964 36.8421 7.05835C37.3208 7.33321 37.7311 7.68163 37.9918 8.18232C36.4563 8.28942 34.9194 8.39524 33.3852 8.50106C33.0562 8.25071 32.7478 7.98489 32.5762 7.59517Z" fill="#ECEB71"/>
<path fill-rule="evenodd" clip-rule="evenodd" d="M13.5959 4.57173C12.4617 4.67625 11.3327 4.87756 10.1855 4.79497C11.4707 4.07103 12.8308 3.53938 14.2721 3.22322C14.7998 3.21032 15.3263 3.19741 15.8553 3.18451C15.1456 3.71875 14.3998 4.19105 13.5959 4.57173Z" fill="#ECEB71"/>
<path fill-rule="evenodd" clip-rule="evenodd" d="M28.2822 3.902C29.2526 3.6452 30.2603 3.68649 31.2436 3.52131C31.3881 3.49679 31.5545 3.551 31.6629 3.40131C32.1946 3.61423 32.7081 3.85941 33.1314 4.25816C31.9107 4.40914 30.6887 4.56012 29.4668 4.71239C29.0113 4.52915 28.65 4.21041 28.2822 3.902Z" fill="#ECEB71"/>
<path fill-rule="evenodd" clip-rule="evenodd" d="M56.96 12.5725C57.8658 12.5286 58.7716 12.486 59.6761 12.4383C59.8426 12.4306 60.0297 12.4744 60.1432 12.2925C60.391 12.5609 60.6465 12.8267 60.7691 13.1816C59.6697 13.2745 58.5729 13.3674 57.4748 13.459C57.2593 13.1906 57.0696 12.9054 56.96 12.5725Z" fill="#ECEB71"/>
<path fill-rule="evenodd" clip-rule="evenodd" d="M58.6299 15.8983C59.8673 15.8312 61.1048 15.7641 62.3422 15.6982C62.5371 15.8583 62.6042 16.0725 62.6119 16.3138C61.5486 16.6093 60.4428 16.3912 59.3705 16.5796C59.2221 16.6067 59.066 16.599 58.9138 16.6067C58.7383 16.4041 58.6841 16.1512 58.6299 15.8983Z" fill="#ECEB71"/>
<path fill-rule="evenodd" clip-rule="evenodd" d="M51.2089 11.6344C50.2889 11.6654 49.3663 11.6963 48.4463 11.726C48.9882 11.2253 49.5495 10.753 50.2889 10.5672C50.8605 10.5878 51.4309 10.6085 52.0025 10.6291C51.7947 11.0098 51.5702 11.3763 51.2089 11.6344Z" fill="#ECEB71"/>
<path fill-rule="evenodd" clip-rule="evenodd" d="M58.811 10.9361C57.8549 10.9981 56.8987 11.0613 55.9413 11.1246C55.678 10.9787 55.4793 10.7748 55.3555 10.4987C56.14 10.3348 56.9348 10.2471 57.7323 10.1864C58.2084 10.2703 58.5362 10.5645 58.811 10.9361Z" fill="#ECEB71"/>
<path fill-rule="evenodd" clip-rule="evenodd" d="M15.8557 3.18451C15.328 3.19742 14.8015 3.21032 14.2725 3.22323C15.0299 2.94191 15.8041 2.7406 16.617 2.7406C16.4493 3.03353 16.1396 3.08773 15.8557 3.18451Z" fill="#F2F7E8"/>
</svg>
