<svg width="25" height="61" viewBox="0 0 25 61" fill="none" xmlns="http://www.w3.org/2000/svg">
<path d="M20.3996 57.5999C20.9996 57.5999 21.5996 57.5999 22.1996 57.5999C23.5996 57.5999 24.4996 59.0999 23.8996 60.2999C23.6996 60.5999 23.4996 60.4999 23.1996 60.4999C21.0996 60.4999 18.9996 60.4999 16.8996 60.4999C11.5996 60.4999 6.2996 60.4999 0.999603 60.4999C0.299603 60.4999 0.0996094 60.2999 0.0996094 59.5999C0.0996094 57.8999 0.499615 57.4999 2.19962 57.4999C3.49962 57.4999 3.4996 57.4999 3.8996 56.1999C4.3996 54.6999 4.7996 53.0999 5.3996 51.5999C7.1996 51.1999 8.99959 50.9999 10.7996 50.7999C10.6996 52.7999 10.4996 54.7999 10.3996 56.7999C10.3996 57.2999 10.4996 57.3999 10.9996 57.3999C12.3996 57.3999 13.7996 57.3999 15.1996 57.3999C16.9996 57.5999 18.6996 57.5999 20.3996 57.5999Z" fill="#7EBE22"/>
<path d="M7.2998 46.0999C7.6998 44.6999 8.19982 43.2999 8.59982 41.7999C8.89982 41.7999 9.19981 41.6999 9.39981 41.6999C9.59981 41.6999 9.89982 41.7999 10.0998 41.5999C10.1998 41.5999 10.1998 41.5999 10.2998 41.5999C10.6998 41.5999 11.0998 41.5999 11.4998 41.5999C11.4998 42.1999 11.4998 42.7999 11.4998 43.3999C11.1998 43.7999 11.3998 44.1999 11.3998 44.5999C11.4998 44.8999 11.1998 45.3999 11.7998 45.3999C12.4998 45.3999 13.1998 45.4999 13.8998 45.5999C13.9998 45.6999 13.9998 45.6999 14.0998 45.7999C14.2998 47.5999 14.4998 49.3999 14.6998 51.0999C13.4998 51.1999 12.2998 50.7999 10.9998 50.9999C11.0998 49.6999 11.0998 48.2999 11.1998 46.9999C11.1998 46.5999 11.5998 46.0999 11.1998 45.6999C10.8998 45.4999 10.4998 45.4999 10.1998 45.6999C9.99983 45.7999 9.89983 45.7999 9.69983 45.8999C9.49983 45.6999 9.39983 45.6999 9.19983 45.8999C9.09983 45.8999 9.09982 45.8999 8.99982 45.8999C8.79982 45.8999 8.59982 45.8999 8.49982 46.0999C8.29982 46.1999 8.0998 46.2999 7.7998 46.2999C7.5998 46.0999 7.3998 46.0999 7.2998 46.0999Z" fill="#EEF665"/>
<path d="M20.4 57.5999C18.7 57.5999 17 57.5999 15.2 57.5999C15.1 57.0999 15.2 56.5999 15.1 55.9999C14.9 54.3999 14.7 52.6999 14.5 51.0999C15.8 51.1999 17 51.5999 18.3 51.5999C19.1 53.5999 19.8 55.5999 20.4 57.5999Z" fill="#F0F764"/>
<path d="M13.8992 26.9999C13.9992 28.1999 13.7992 29.4999 14.0992 30.6999C14.1992 30.8999 14.0992 31.1999 13.8992 31.3999C13.4992 31.3999 13.1992 30.8999 12.6992 30.8999C12.5992 30.7999 12.5992 30.7999 12.4992 30.6999C12.4992 29.2999 12.4992 27.8999 12.3992 26.5999C12.3992 26.1999 12.1992 25.9999 11.8992 25.9999C11.3992 25.8999 10.8992 25.7999 10.3992 26.0999C10.2992 26.0999 10.2992 26.0999 10.1992 26.0999C10.1992 25.6999 10.1992 25.2999 10.1992 24.8999C10.3992 22.4999 10.4992 20.0999 10.1992 17.6999C10.1992 17.2999 10.1992 16.7999 10.1992 16.3999C10.8992 16.3999 11.6992 16.3999 12.3992 16.3999C12.3992 16.7999 12.3992 17.2999 12.3992 17.6999C12.0992 18.7999 12.1992 19.8999 12.3992 20.9999C12.4992 22.4999 12.4992 24.0999 12.5992 25.5999C12.5992 25.8999 12.6992 26.1999 12.9992 26.2999C13.2992 26.5999 13.5992 26.7999 13.8992 26.9999Z" fill="#BBE93C"/>
<path d="M9.60001 45.6999C9.80001 45.5999 9.90001 45.5999 10.1 45.4999C10.4 45.4999 10.8 45.4999 11.1 45.4999C11.5 45.8999 11.1 46.3999 11.1 46.7999C11.1 48.0999 11 49.4999 10.9 50.7999C9.09999 50.9999 7.3 51.1999 5.5 51.5999C6 49.6999 6.50001 47.8999 7.20001 46.0999C7.40001 46.0999 7.60001 46.0999 7.70001 45.8999C7.90001 45.8999 8.19999 45.7999 8.39999 45.6999C8.59999 45.6999 8.79999 45.6999 8.89999 45.4999C8.99999 45.4999 9.00001 45.4999 9.10001 45.4999C9.20001 45.6999 9.40001 45.6999 9.60001 45.6999Z" fill="#BCEA3E"/>
<path d="M12.3996 16.3999C11.6996 16.3999 10.8996 16.3999 10.1996 16.3999C8.59962 16.2999 8.5996 16.2999 8.4996 17.6999C7.1996 17.5999 6.69961 17.0999 6.59961 15.7999C6.69961 15.6999 6.8996 15.5999 6.8996 15.4999C7.4996 15.2999 8.09959 14.7999 8.79959 14.6999C9.39959 14.5999 9.99961 14.5999 10.5996 14.4999C11.3996 14.4999 12.2996 14.4999 13.0996 14.4999C13.1996 14.4999 13.1996 14.4999 13.2996 14.4999C13.6996 14.6999 14.0996 14.7999 14.4996 14.9999C15.0996 15.0999 15.1996 15.5999 15.6996 15.7999C15.6996 16.8999 15.2996 17.2999 13.7996 17.5999C13.3996 16.3999 13.3996 16.3999 12.3996 16.3999Z" fill="#EDF665"/>
<path d="M8.5 17.6999C8.6 16.2999 8.60001 16.2999 10.2 16.3999C10.2 16.7999 10.2 17.2999 10.2 17.6999C10.2 20.0999 10.2 22.4999 10.2 24.8999C10.2 25.2999 10.2 25.6999 10.2 26.0999C9.50001 26.1999 9.1 26.7999 8.5 27.0999C8.5 26.7999 8.5 26.4999 8.5 26.1999C8.5 26.0999 8.5 25.9999 8.5 25.8999C8.5 23.1999 8.5 20.4999 8.5 17.6999Z" fill="#7CBC1E"/>
<path d="M18.4 51.5999C17.1 51.5999 15.9 51.1999 14.6 51.0999C14.4 49.2999 14.2 47.4999 14 45.7999C14.9 45.7999 15.7 46.3999 16.7 46.3999C17.3 48.0999 17.8 49.7999 18.4 51.5999Z" fill="#7DBD20"/>
<path d="M12.3994 16.3999C13.3994 16.3999 13.3994 16.3999 13.6994 17.6999C13.7994 20.4999 13.7994 23.2999 13.8994 26.0999C13.8994 26.3999 13.8994 26.7999 13.8994 27.0999C13.5994 26.8999 13.2994 26.5999 12.9994 26.3999C12.6994 26.1999 12.5994 25.9999 12.5994 25.6999C12.5994 24.1999 12.4994 22.5999 12.3994 21.0999C12.3994 19.9999 12.3994 18.8999 12.3994 17.7999C12.3994 17.2999 12.3994 16.7999 12.3994 16.3999Z" fill="#7EBE22"/>
<path d="M8.59941 37.3999C8.49941 35.4999 8.49941 33.4999 8.59941 31.5999C9.19941 31.3999 9.49942 30.7999 10.1994 30.7999C10.1994 32.6999 10.1994 34.6999 10.1994 36.5999C9.59942 36.6999 9.19941 37.1999 8.59941 37.3999Z" fill="#BBEA3C"/>
<path d="M16.5994 46.3999C15.6994 46.2999 14.8994 45.6999 13.8994 45.7999C13.7994 45.6999 13.7994 45.6999 13.6994 45.5999C13.7994 44.2999 13.3994 43.0999 13.3994 41.7999C13.7994 41.7999 14.1994 41.8999 14.5994 41.8999C14.8994 41.8999 15.0994 41.8999 15.2994 42.2999C15.6994 43.6999 16.2994 44.9999 16.5994 46.3999Z" fill="#BCEA40"/>
<path d="M12.8001 30.8999C13.3001 30.8999 13.5001 31.3999 14.0001 31.3999C14.3001 31.7999 14.3001 32.1999 14.3001 32.6999C14.3001 34.2999 14.4001 35.8999 14.5001 37.3999C13.7001 37.0999 13.0001 36.6999 12.9001 35.6999C12.9001 34.9999 12.9001 34.3999 12.9001 33.6999C12.7001 32.7999 12.7001 31.7999 12.8001 30.8999Z" fill="#7EBE22"/>
<path d="M12.7992 35.6999C12.8992 36.6999 13.5992 37.0999 14.3992 37.3999C14.4992 38.8999 14.3992 40.3999 14.6992 41.8999C14.2992 41.8999 13.8992 41.7999 13.4992 41.7999C13.2992 41.6999 13.0992 41.5999 12.7992 41.5999C12.8992 41.2999 12.9992 41.0999 12.8992 40.7999C12.5992 39.3999 12.7992 37.9999 12.6992 36.5999C12.7992 36.2999 12.7992 35.9999 12.7992 35.6999Z" fill="#EEF669"/>
<path d="M6.70001 8.6999C7.80001 8.2999 8.9 8.1999 10 7.8999V7.9999C10 8.7999 10 9.5999 10 10.2999C8.9 10.2999 7.80001 10.6999 6.70001 10.6999C6.60001 10.5999 6.6 10.5999 6.5 10.4999C6.5 9.8999 6.5 9.3999 6.5 8.7999C6.7 8.7999 6.70001 8.7999 6.70001 8.6999Z" fill="#7DBD20"/>
<path d="M8.60001 37.3999C9.20001 37.1999 9.60001 36.6999 10.2 36.5999C10.2 38.2999 10.2 39.8999 10.2 41.5999C10.1 41.5999 10.1 41.5999 10 41.5999C9.8 41.5999 9.49999 41.4999 9.29999 41.6999C8.99999 41.6999 8.7 41.7999 8.5 41.7999C8.5 40.3999 8.50001 38.8999 8.60001 37.3999Z" fill="#7CBC1E"/>
<path d="M10.2 30.7999C9.50001 30.7999 9.20001 31.3999 8.60001 31.5999C8.50001 30.0999 8.6 28.5999 8.5 27.0999C9 26.6999 9.50001 26.1999 10.2 26.0999C10.2 27.5999 10.2 29.1999 10.2 30.7999Z" fill="#EEF665"/>
<path d="M10.0996 7.9999C10.2996 5.4999 10.4996 2.8999 10.6996 0.399902C10.7996 0.399902 10.7996 0.399902 10.8996 0.399902C11.1996 2.8999 11.4996 5.3999 11.7996 7.8999C11.7996 7.9999 11.7996 7.9999 11.7996 8.0999C11.1996 7.9999 10.5996 7.9999 10.0996 7.9999Z" fill="#EFF76C"/>
<path d="M6.59982 10.4999C6.69982 10.5999 6.6998 10.5999 6.7998 10.6999C6.7998 11.1999 7.39981 11.2999 7.49981 11.7999C7.19981 11.9999 6.79981 12.1999 6.49981 12.3999C6.29981 12.4999 6.19982 12.5999 6.19982 12.8999C6.49983 13.7999 6.59981 14.6999 6.89981 15.4999C6.89981 15.6999 6.69982 15.7999 6.59982 15.7999C5.99982 15.1999 5.29982 14.5999 4.69982 13.9999C4.59982 12.8999 4.7998 11.9999 5.7998 11.3999C6.1998 11.2999 6.49982 10.9999 6.59982 10.4999Z" fill="#7EBE22"/>
<path d="M15.5994 15.8999C15.1994 15.6999 14.9994 15.0999 14.3994 15.0999C14.8994 14.7999 14.6994 14.1999 14.7994 13.7999C15.1994 12.1999 15.1994 12.1999 13.7994 11.3999C13.6994 11.3999 13.6994 11.2999 13.5994 11.1999C13.4994 11.0999 13.4994 10.9999 13.3994 10.7999C13.4994 10.5999 13.5994 10.4999 13.6994 10.2999C13.9994 9.49988 13.7994 8.79988 13.8994 7.99988C13.9994 7.99988 13.9994 7.99988 13.9994 8.09988C13.6994 9.69988 14.0994 10.7999 15.8994 11.1999C15.9994 11.1999 15.9994 11.2999 15.9994 11.2999C15.9994 11.3999 15.9994 11.4999 15.9994 11.5999C15.2994 11.8999 14.9994 12.1999 15.6994 12.7999C15.7994 12.8999 15.7994 12.9999 15.7994 13.0999C15.7994 13.6999 15.7994 14.3999 15.7994 14.9999C15.8994 15.2999 15.7994 15.5999 15.5994 15.8999Z" fill="#B9E741"/>
<path d="M6.60008 10.4999C6.50008 10.9999 6.20007 11.2999 5.90007 11.3999C4.90007 11.9999 4.70006 12.8999 4.80006 13.9999C4.50006 12.6999 4.70009 11.3999 4.70009 10.0999C4.70009 9.69992 5.20007 9.59992 5.50007 9.39992C5.90007 9.09992 6.30009 8.89991 6.70009 8.59991V8.69991C6.60009 9.39991 6.60008 9.99992 6.60008 10.4999Z" fill="#B9E741"/>
<path d="M16.0995 11.1999L15.9995 11.0999C14.2995 10.6999 13.7995 9.59988 14.0995 7.99988C14.7995 8.29988 15.4995 8.69988 16.2995 8.99988C16.1995 9.79988 16.4995 10.4999 16.0995 11.1999Z" fill="#7DBD20"/>
<path d="M16.1 11.1999C16.5 10.4999 16.2 9.79991 16.3 9.09991C17.4 10.0999 18.2 11.1999 17.6 12.6999C17.2 12.4999 17 12.1999 16.7 11.7999C16.5 11.5999 16.4 11.2999 16 11.4999C16.1 11.3999 16.1 11.2999 16.1 11.1999Z" fill="#BBE74C"/>
<path d="M16 14.8999C16 14.2999 16 13.5999 16 12.9999C16.6 13.0999 17.1 12.7999 17.7 12.7999C17.7 13.3999 17.3 13.8999 17.1 14.4999C16.8 15.0999 16.3 14.7999 16 14.8999Z" fill="#EFF76C"/>
<path d="M17.6 12.8999C17 12.8999 16.5 13.1999 15.9 13.0999C15.9 12.9999 15.9 12.8999 15.8 12.7999C15.1 12.1999 15.3 11.7999 16.1 11.5999C16.5 11.3999 16.6 11.6999 16.8 11.8999C17 12.1999 17.3 12.5999 17.7 12.7999C17.6 12.7999 17.6 12.7999 17.6 12.8999Z" fill="#7EBE22"/>
<path d="M11.7998 7.99992C11.7998 7.89992 11.7998 7.89993 11.7998 7.79993C12.4998 7.89993 13.2998 7.69993 13.9998 7.89993C13.1998 7.99993 12.4998 7.99992 11.7998 7.99992Z" fill="#B9E741"/>
<path d="M7.7998 46.0999C7.6998 46.2999 7.4998 46.2999 7.2998 46.2999C7.2998 46.1999 7.2998 46.1999 7.2998 46.0999C7.3998 46.0999 7.5998 46.0999 7.7998 46.0999Z" fill="#EEF669"/>
<path d="M8.4998 25.8999C8.4998 25.9999 8.4998 26.0999 8.4998 26.1999C8.3998 26.0999 8.3998 25.9999 8.4998 25.8999Z" fill="#EEF665"/>
<path d="M6.59961 8.89993V8.79993C6.69961 8.79993 6.69959 8.79993 6.79959 8.79993C6.69959 8.79993 6.69961 8.79993 6.59961 8.89993Z" fill="#7EBE22"/>
<path d="M14.6 51.0999C14.8 52.6999 14.9 54.3999 15.2 55.9999C15.3 56.4999 15.3 56.9999 15.3 57.5999C13.9 57.5999 12.5 57.5999 11.1 57.5999C10.6 57.5999 10.5 57.4999 10.5 56.9999C10.7 54.9999 10.8 52.9999 10.9 50.9999C12.1 50.7999 13.4 51.1999 14.6 51.0999Z" fill="#BBEA3C"/>
<path d="M12.7998 41.5999C12.9998 41.5999 13.2998 41.5999 13.4998 41.7999C13.4998 43.0999 13.8998 44.2999 13.7998 45.5999C13.0998 45.4999 12.3998 45.4999 11.6998 45.3999C11.0998 45.3999 11.3998 44.8999 11.2998 44.5999C11.4998 44.1999 11.3998 43.7999 11.3998 43.3999C11.3998 42.7999 11.3998 42.1999 11.3998 41.5999C11.8998 41.5999 12.2998 41.5999 12.7998 41.5999Z" fill="#7DBD20"/>
<path d="M10.1992 30.7999C10.1992 29.1999 10.1992 27.6999 10.1992 26.0999C10.2992 26.0999 10.2992 26.0999 10.3992 26.0999C10.3992 27.5999 10.3992 29.0999 10.3992 30.5999C10.3992 32.2999 10.3992 34.0999 10.3992 35.7999C10.3992 35.9999 10.2992 36.2999 10.5992 36.4999C10.1992 37.9999 10.4992 39.5999 10.4992 41.1999C10.4992 41.3999 10.6992 41.4999 10.8992 41.4999C11.0992 41.4999 11.2992 41.4999 11.4992 41.6999C11.0992 41.6999 10.6992 41.6999 10.2992 41.6999C10.2992 39.9999 10.2992 38.3999 10.2992 36.6999C10.1992 34.5999 10.1992 32.6999 10.1992 30.7999Z" fill="#BAE361"/>
<path d="M11.3997 43.3999C11.3997 43.7999 11.4997 44.1999 11.2997 44.5999C11.2997 44.1999 11.0997 43.7999 11.3997 43.3999Z" fill="#EEF669"/>
<path d="M11.0996 45.5999C10.7996 45.5999 10.3996 45.5999 10.0996 45.5999C10.3996 45.2999 10.6996 45.2999 11.0996 45.5999Z" fill="#EEF669"/>
<path d="M9.39941 41.6999C9.59941 41.4999 9.79943 41.4999 10.0994 41.5999C9.89943 41.7999 9.59941 41.6999 9.39941 41.6999Z" fill="#EEF669"/>
<path d="M9.59961 45.6999C9.39961 45.6999 9.29961 45.6999 9.09961 45.6999C9.19961 45.4999 9.39961 45.4999 9.59961 45.6999Z" fill="#EEF669"/>
<path d="M8.89941 45.7999C8.79941 45.9999 8.59941 45.9999 8.39941 45.9999C8.49941 45.6999 8.69941 45.7999 8.89941 45.7999Z" fill="#EEF669"/>
<path d="M10.3994 30.4999C10.3994 28.9999 10.3994 27.4999 10.3994 25.9999C10.8994 25.6999 11.3994 25.7999 11.8994 25.8999C12.1994 25.8999 12.3994 26.1999 12.3994 26.4999C12.5994 27.8999 12.5994 29.2999 12.4994 30.5999C12.2994 30.4999 12.0994 30.3999 11.7994 30.3999C11.3994 30.1999 10.9994 30.1999 10.5994 30.3999C10.5994 30.4999 10.4994 30.4999 10.3994 30.4999Z" fill="#7CBC1E"/>
<path d="M10.2998 24.8999C10.2998 22.4999 10.2998 20.0999 10.2998 17.6999C10.4998 20.0999 10.4998 22.4999 10.2998 24.8999Z" fill="#BAE361"/>
<path d="M12.4 17.6999C12.4 18.7999 12.4 19.8999 12.4 20.9999C12.2 19.8999 12.2 18.7999 12.4 17.6999Z" fill="#BAE361"/>
<path d="M12.8001 30.8999C12.8001 31.7999 12.8001 32.7999 12.8001 33.6999C12.5001 32.6999 12.7001 31.6999 12.7001 30.6999C12.6001 30.7999 12.7001 30.7999 12.8001 30.8999Z" fill="#EFF76C"/>
<path d="M13.0996 14.4999C12.2996 14.4999 11.3996 14.4999 10.5996 14.4999C10.5996 14.2999 10.5996 14.1999 10.5996 13.9999C10.5996 12.9999 10.5996 11.9999 10.5996 10.9999C10.9996 10.9999 11.3996 10.9999 11.7996 10.9999C11.8996 11.0999 12.0996 11.1999 12.2996 11.0999C13.0996 10.9999 13.1996 11.3999 13.1996 11.9999C12.9996 12.8999 13.0996 13.6999 13.0996 14.4999Z" fill="#BBEA3C"/>
<path d="M6.89943 15.4999C6.49943 14.6999 6.39945 13.7999 6.19945 12.8999C6.09945 12.5999 6.29944 12.4999 6.49944 12.3999C6.89944 12.1999 7.19944 11.9999 7.49944 11.7999C7.39944 11.3999 6.79943 11.1999 6.79943 10.6999C7.89943 10.6999 8.99944 10.3999 10.0994 10.2999H10.1995H10.2994C10.3994 10.4999 10.3994 10.5999 10.4994 10.7999C10.4994 10.8999 10.4994 10.8999 10.4994 10.9999C9.89944 11.1999 9.19945 11.3999 8.59945 11.4999C8.09945 11.5999 7.69944 11.7999 7.99944 12.4999C8.19944 12.8999 8.19945 13.4999 8.19945 13.9999C8.19945 14.4999 8.39943 14.6999 8.89943 14.6999C7.99943 14.7999 7.49943 15.2999 6.89943 15.4999Z" fill="#B9E741"/>
<path d="M8.79923 14.6999C8.29923 14.6999 8.09925 14.4999 8.09925 13.9999C8.09925 13.4999 8.09923 12.9999 7.89923 12.4999C7.59923 11.7999 7.99924 11.5999 8.49924 11.4999C9.09924 11.2999 9.79923 11.0999 10.3992 10.9999C10.4992 11.9999 10.1992 12.9999 10.5992 13.9999C10.5992 14.1999 10.5992 14.2999 10.5992 14.4999C9.99925 14.5999 9.39923 14.6999 8.79923 14.6999Z" fill="#7CBC1E"/>
<path d="M13.5992 11.1999C13.6992 11.2999 13.6992 11.2999 13.7992 11.3999C15.1992 12.1999 15.1992 12.1999 14.7992 13.7999C14.6992 14.1999 14.8992 14.7999 14.3992 15.0999C13.9992 14.8999 13.5992 14.7999 13.1992 14.5999C13.1992 13.6999 13.1992 12.7999 13.1992 11.8999C13.2992 11.5999 13.1992 11.1999 13.5992 11.1999Z" fill="#7CBC1E"/>
<path d="M13.5992 11.1999C13.1992 11.1999 13.2992 11.5999 13.2992 11.7999C13.2992 12.6999 13.2992 13.5999 13.2992 14.4999C13.1992 14.4999 13.1992 14.4999 13.0992 14.4999C13.0992 13.6999 13.0992 12.8999 13.0992 12.0999C13.0992 11.3999 12.9992 10.9999 12.1992 11.1999C11.9992 11.1999 11.8992 11.1999 11.6992 11.0999C12.2992 10.9999 12.7992 11.2999 13.3992 10.8999C13.4992 10.9999 13.4992 11.0999 13.5992 11.1999Z" fill="#BAE361"/>
<path d="M12.5998 30.7999C12.6998 31.7999 12.3998 32.7999 12.6998 33.7999C12.6998 34.4999 12.6998 35.0999 12.6998 35.7999C12.6998 36.0999 12.6998 36.3999 12.6998 36.5999C11.9998 36.4999 11.2998 36.3999 10.4998 36.4999C10.2998 36.2999 10.2998 35.9999 10.2998 35.7999C10.2998 34.0999 10.2998 32.2999 10.2998 30.5999C10.3998 30.5999 10.4998 30.5999 10.5998 30.5999C10.9998 30.5999 11.3998 30.5999 11.7998 30.5999C12.1998 30.4999 12.3998 30.5999 12.5998 30.7999Z" fill="#EEF665"/>
<path d="M10.5996 36.3999C11.2996 36.2999 12.0996 36.3999 12.7996 36.4999C12.8996 37.8999 12.6996 39.2999 12.9996 40.6999C13.0996 40.9999 12.9996 41.1999 12.8996 41.4999C12.4996 41.4999 11.9996 41.4999 11.5996 41.4999C11.3996 41.2999 11.1996 41.2999 10.9996 41.2999C10.7996 41.2999 10.5996 41.1999 10.5996 40.9999C10.4996 39.4999 10.1996 37.9999 10.5996 36.3999Z" fill="#BBEA3C"/>
<path d="M10.2 10.3999C10.1 10.3999 10 10.3999 10 10.3999C10 9.59991 10 8.79991 10 8.09991C10.6 8.09991 11.1 8.09991 11.7 8.09991C12.4 8.09991 13.1 8.09991 13.9 8.09991C13.9 8.89991 14.1 9.69991 13.7 10.3999C12.6 10.3999 11.4 10.3999 10.2 10.3999Z" fill="#BBE93C"/>
<path d="M10.1992 10.3999C11.3992 10.3999 12.4992 10.3999 13.6992 10.3999C13.5992 10.5999 13.4992 10.6999 13.3992 10.8999C12.8992 11.2999 12.2992 10.9999 11.6992 11.0999C11.2992 11.0999 10.8992 11.0999 10.4992 11.0999C10.3992 10.9999 10.3992 10.9999 10.2992 10.8999C10.3992 10.6999 10.2992 10.4999 10.1992 10.3999Z" fill="#7CBC1E"/>
<path d="M11.8992 30.5999C11.4992 30.5999 11.0992 30.5999 10.6992 30.5999C11.0992 30.2999 11.4992 30.2999 11.8992 30.5999Z" fill="#EDF665"/>
<path d="M10.3994 10.8999C10.4994 10.9999 10.4994 10.9999 10.5994 11.0999C10.5994 12.0999 10.5994 13.0999 10.5994 14.0999C10.2994 13.0999 10.4994 12.0999 10.3994 11.0999C10.3994 10.9999 10.3994 10.8999 10.3994 10.8999Z" fill="#BAE361"/>
</svg>
