<svg width="50" height="36" viewBox="0 0 50 36" fill="none" xmlns="http://www.w3.org/2000/svg">
<path fill-rule="evenodd" clip-rule="evenodd" d="M48.2056 19.4143C47.5777 20.5655 48.0377 21.7545 48.1241 22.9167C48.3407 25.8289 48.6328 28.7338 48.8956 31.6423C48.2434 31.646 47.5923 31.6496 46.9401 31.6533C46.6955 31.6508 46.4521 31.6484 46.2075 31.646C46.1941 30.412 46.2319 29.1743 46.1503 27.9452C46.0895 27.013 45.4409 26.5189 44.5794 26.5797C43.8322 26.6333 43.3369 27.2466 43.3394 28.1302C43.343 29.2619 43.3552 30.3925 43.3637 31.5243C42.5411 31.5218 41.7185 31.5182 40.8959 31.5158C40.8606 31.349 40.9214 31.158 40.773 31.018C40.6866 28.6376 40.6002 26.2572 40.5138 23.8769C40.5138 22.8096 40.5138 21.7411 40.5138 20.6726C40.47 20.6726 40.4262 20.6726 40.3823 20.6726C40.3823 21.7326 40.3823 22.7925 40.3823 23.8525C39.4806 23.6517 38.5801 23.4521 37.6784 23.2526C37.6784 22.436 37.6784 21.6206 37.6784 20.804C37.6334 20.804 37.5884 20.804 37.5434 20.8052C37.5434 21.617 37.5434 22.4287 37.5434 23.2404C37.3219 23.2027 37.0992 23.1747 36.8814 23.1248C35.2094 22.7414 33.5082 22.4944 31.8557 22.0234C31.7802 21.4867 31.7194 20.9488 31.7437 20.4049C31.7462 19.7112 31.7486 19.0175 31.751 18.3251C33.4449 18.8398 35.1376 19.3546 36.8303 19.8682C37.1734 19.9692 37.5251 19.9242 37.8683 19.8986C40.2375 19.727 42.6092 19.6187 44.9821 19.536C46.0566 19.5007 47.1263 19.3498 48.2056 19.4143ZM46.1005 22.4968C46.1211 22.4968 46.1406 22.4968 46.1601 22.4968C46.1601 21.6024 46.1601 20.7079 46.1601 19.8122C46.1406 19.8122 46.1199 19.8122 46.1005 19.8122C46.1005 20.7067 46.1005 21.6011 46.1005 22.4968Z" fill="#7DBE43"/>
<path fill-rule="evenodd" clip-rule="evenodd" d="M27.9375 35.8701C26.7365 35.9918 25.5318 35.909 24.3295 35.9187C23.1868 35.9285 22.0442 35.8944 20.9015 35.881C20.8942 35.7179 20.8809 35.5524 20.8809 35.3894C20.8809 30.0274 20.8809 24.6642 20.8809 19.3023C23.2282 19.3023 25.5756 19.3011 27.9241 19.3011C27.929 24.8237 27.9339 30.3475 27.9375 35.8701ZM22.9824 29.6197H22.9861C22.9861 30.401 22.9958 31.1811 22.9812 31.9612C22.9751 32.2812 23.0956 32.3981 23.4132 32.392C24.1518 32.3774 24.8929 32.3664 25.6315 32.3956C26.0538 32.4127 26.2059 32.2861 26.1986 31.8443C26.1731 30.3864 26.2059 28.9273 26.1804 27.4693C26.1706 26.8791 25.5427 26.424 25.7532 25.7595C25.7618 25.734 25.6352 25.6269 25.5695 25.6244C25.1545 25.6159 25.275 25.375 25.3127 25.123C25.3663 24.7604 25.2908 24.4196 24.9282 24.2274C24.5948 24.0497 24.2261 24.0193 23.9498 24.2809C23.6833 24.5316 23.4777 24.8602 23.687 25.2715C23.7624 25.4212 23.8403 25.5636 23.5531 25.6062C22.9836 25.6901 23.0652 26.0297 23.2586 26.4179C23.317 26.5347 23.5495 26.7221 23.2964 26.8146C22.9045 26.9558 22.9873 27.2491 22.9848 27.5241C22.9788 28.2227 22.9824 28.9212 22.9824 29.6197Z" fill="#BDD744"/>
<path fill-rule="evenodd" clip-rule="evenodd" d="M0.133789 32.0208C0.237224 29.4859 0.337008 26.9485 0.446527 24.4123C0.502503 23.1236 0.579167 21.8372 0.647313 20.5485C1.25575 20.2126 1.86419 19.8767 2.47385 19.5408C2.47385 20.153 2.47385 20.7663 2.47385 21.3784C2.52252 21.3784 2.5712 21.3784 2.61987 21.3772C2.61987 20.731 2.61987 20.0848 2.61987 19.4386C4.3016 19.4398 5.98332 19.4398 7.66505 19.441C7.66383 21.0389 7.66139 22.638 7.66018 24.2359C5.93951 24.2359 4.21763 24.2359 2.49697 24.2359C2.49697 23.7077 2.49697 23.1795 2.49697 22.6514C2.42152 23.2234 2.21465 23.8026 2.48358 24.3612C4.2079 24.3612 5.93221 24.3612 7.65653 24.3612C7.66261 24.8991 7.6687 25.437 7.67478 25.9749C7.63097 27.9062 7.58716 29.8388 7.54336 31.7713C6.75725 31.7336 5.98454 31.9733 5.196 31.8942C5.21304 30.7466 5.2033 29.6015 5.28727 28.4539C5.35298 27.5582 4.66057 26.856 3.85257 26.8487C3.09689 26.8426 2.56389 27.4085 2.45681 28.2689C2.30105 29.5163 2.39231 30.7673 2.34486 32.0171C2.22317 32.0196 2.1027 32.0232 1.98101 32.0269C1.36405 32.0244 0.749529 32.022 0.133789 32.0208Z" fill="#7DBE43"/>
<path fill-rule="evenodd" clip-rule="evenodd" d="M16.4463 11.7559C16.4366 8.45791 18.8679 5.32179 22.1766 4.35065C22.5027 4.25451 22.9907 4.33605 22.897 3.71418C22.8739 3.56206 23.1014 3.48904 23.2815 3.49026C23.548 3.49148 23.8145 3.48417 24.081 3.48052C24.3366 3.48052 24.5921 3.47931 24.8476 3.47809C25.1141 3.48296 25.3806 3.49148 25.6459 3.49269C25.8309 3.49269 26.0475 3.60222 26.011 3.74217C25.8491 4.35917 26.3566 4.25695 26.6377 4.3397C29.9086 5.29623 32.2974 8.27414 32.385 11.5283C31.5137 10.8711 30.6449 10.2116 29.8697 9.43878C29.9208 9.32925 29.9415 9.182 30.0255 9.11507C30.4562 8.77675 30.3248 8.57839 29.8855 8.42505C29.6567 8.34473 29.5144 8.206 29.5253 7.92731C29.5436 7.45148 29.2016 7.22877 28.8195 7.11803C28.3802 6.99025 28.0833 7.2811 27.8472 7.6036C27.6306 7.90054 27.616 8.27293 27.2911 8.57108C26.8871 8.94347 27.8047 9.01162 27.6878 9.43269C27.6465 9.44 27.6039 9.4473 27.5613 9.45582C26.5647 9.43878 25.5656 9.3256 24.5738 9.51667C24.1078 9.51788 23.6393 9.541 23.1744 9.51667C22.4942 9.48137 21.8054 9.63714 21.1349 9.41566C21.2189 9.06152 21.5499 8.91549 21.8517 8.6867C21.4063 8.46764 21.1118 8.2705 21.0717 7.76911C21.0352 7.30423 20.602 7.09247 20.17 7.10829C19.7368 7.1229 19.4009 7.36751 19.2902 7.82995C19.2488 8.00398 19.3388 8.27901 19.1454 8.33256C18.3422 8.55283 18.6257 8.91914 18.975 9.31587C19.0005 9.34629 19.0127 9.38888 19.031 9.42418C19.0139 9.68217 18.8107 9.79048 18.6379 9.93165C17.9066 10.5353 17.1777 11.1462 16.4463 11.7559Z" fill="#7DBE43"/>
<path fill-rule="evenodd" clip-rule="evenodd" d="M31.7443 20.4073C31.7187 20.9513 31.7808 21.4892 31.8562 22.0259C31.681 22.1926 31.7406 22.4104 31.7528 22.6051C31.7808 23.1114 31.8355 23.6164 31.8806 24.1215C31.8842 24.7324 31.8879 25.3421 31.8915 25.953C31.9305 26.2901 31.9682 26.6272 32.0059 26.9643C32.0083 27.6154 32.012 28.2665 32.0144 28.9163C32.0947 29.4615 32.175 30.0104 32.1069 30.558C32.0302 31.1677 32.276 31.3831 32.8565 31.2797C33.0013 31.4427 33.196 31.3916 33.3725 31.3916C34.2705 31.3953 35.1673 31.3928 36.0642 31.3916C36.3794 31.1421 36.1043 30.8099 36.1859 30.5276C36.1834 29.8339 36.181 29.139 36.1774 28.4453C36.1652 28.2847 36.1774 28.1155 36.1348 27.9634C35.9668 27.3647 36.4913 27.6154 36.6994 27.5168C37.0401 27.3537 37.0365 27.6263 37.0608 27.8661C37.1582 28.8396 37.23 29.8156 37.1728 30.7916C37.1387 31.3734 37.3735 31.5827 37.9248 31.4951C38.7876 31.5011 39.6491 31.5084 40.5119 31.5145C40.5934 31.5194 40.6762 31.5243 40.7577 31.5303C40.6798 31.9782 40.9633 32.4893 40.5228 32.8739C40.2734 32.8775 40.0239 32.8812 39.7744 32.8848C39.0358 32.9493 38.2826 32.7364 37.5536 33.0029C37.3054 33.0041 37.0584 33.0065 36.8101 33.009C36.0715 33.0735 35.3182 32.8605 34.5893 33.127C34.3021 33.1282 34.015 33.1307 33.7278 33.1331C33.2386 33.1075 32.7433 33.1927 32.2237 33.0309C32.3211 33.7416 32.0959 34.4352 32.36 35.1058C32.3637 35.1983 32.3673 35.2896 32.3697 35.382C31.507 35.5305 30.6345 35.4745 29.7656 35.4916C29.7681 29.8083 29.7705 24.1251 29.7729 18.4419C30.3485 18.7291 30.9229 19.0163 31.4985 19.3035C31.7637 19.6309 31.4729 20.0811 31.7443 20.4073Z" fill="#BDD744"/>
<path fill-rule="evenodd" clip-rule="evenodd" d="M48.2061 19.4142C47.1267 19.3497 46.0571 19.5006 44.9826 19.5384C42.6097 19.6211 40.238 19.7294 37.8687 19.901C37.5256 19.9266 37.1739 19.9716 36.8307 19.8706C36.7577 17.5158 38.2228 15.2595 40.4449 14.4746C40.9985 14.2786 41.4196 13.7322 42.0852 13.8491C42.269 13.8795 42.4393 13.8393 42.5987 13.7468C43.9799 14.1764 45.3878 14.5476 46.483 15.5832C47.5247 16.569 48.0954 17.7871 48.2767 19.1976C48.2852 19.2645 48.2304 19.3412 48.2061 19.4142Z" fill="#EDEB6C"/>
<path fill-rule="evenodd" clip-rule="evenodd" d="M10.8527 19.6917C10.8721 19.9351 10.8904 20.1797 10.9111 20.4426C11.4246 20.3939 11.8675 20.1651 12.3287 20.0118C13.6904 19.5554 15.0351 19.0467 16.4028 18.6135C16.9127 18.4528 17.0417 18.1985 17.0466 17.6874C17.0624 16.1041 17.0612 14.5293 16.5403 13.0081C17.2181 12.5591 17.8984 12.1125 18.5725 11.6585C18.7587 11.5332 18.9279 11.3543 19.125 11.6342C19.1384 11.6756 19.1518 11.7169 19.1652 11.7595C19.1518 14.1058 19.1384 16.4509 19.1238 18.796C18.4326 19.127 17.7402 19.458 17.049 19.7891C16.7716 20.5144 16.9979 21.2677 16.9261 22.0052C16.8056 22.0246 16.6827 22.0344 16.5647 22.0648C13.7233 22.7901 10.8819 23.5166 8.04045 24.2444C7.70095 24.192 7.78978 23.9231 7.78978 23.7174C7.78613 22.2936 7.78978 20.8697 7.79221 19.4447C8.81439 19.5262 9.83292 19.609 10.8527 19.6917ZM17.537 15.9641C17.369 16.6651 17.3204 17.3649 17.5577 18.0622C18.1199 17.7945 18.8755 17.8103 18.7952 16.8014C18.693 15.5041 18.7648 15.498 17.537 15.9641Z" fill="#7DBE43"/>
<path fill-rule="evenodd" clip-rule="evenodd" d="M10.8533 19.6917C9.83353 19.6089 8.815 19.5262 7.79526 19.4434C7.75145 19.4434 7.70886 19.4422 7.66505 19.4422C5.98333 19.4422 4.3016 19.441 2.61988 19.4398C2.5712 19.4738 2.52253 19.5079 2.47385 19.5408C1.86541 19.8766 1.25697 20.2125 0.647318 20.5484C0.0607832 18.3299 1.44681 15.7377 3.71628 14.7873C4.13002 14.6133 4.63989 14.6279 4.91491 14.1484C4.9648 14.062 5.26293 14.118 5.44547 14.107C5.61583 14.1058 5.78619 14.1046 5.95656 14.1034C6.55891 13.86 6.7816 14.5183 7.25375 14.6522C9.46481 15.2777 10.9956 17.4804 10.8533 19.6917Z" fill="#EDEB6C"/>
<path fill-rule="evenodd" clip-rule="evenodd" d="M17.0521 19.7878C17.7432 19.4568 18.4344 19.1258 19.1268 18.7948L19.1682 18.8106C19.1658 24.4452 19.1633 30.0809 19.1609 35.7167C19.1597 35.7654 19.1572 35.8141 19.1548 35.8627C18.3286 35.9053 17.5035 35.9552 16.6797 35.836C16.6846 35.6717 16.6894 35.5074 16.6955 35.3443C16.8744 35.18 16.8038 34.9634 16.805 34.7675C16.8111 33.8109 16.8075 32.8544 16.8075 31.8966C16.8062 31.8102 16.805 31.7238 16.8038 31.6374C16.8342 30.3195 16.7576 28.999 16.9145 27.6835C16.917 26.4142 16.9206 25.1449 16.9231 23.8744C16.9304 23.3779 16.9389 22.8814 16.9462 22.3836C17.181 21.5281 16.9973 20.6531 17.0521 19.7878Z" fill="#BDD744"/>
<path fill-rule="evenodd" clip-rule="evenodd" d="M16.8005 31.6372C16.8017 31.7236 16.8029 31.8112 16.8041 31.8964C16.5632 32.1848 16.6679 32.5329 16.6958 32.8384C16.747 33.4018 16.5218 33.5831 15.9974 33.504C15.8964 33.4882 15.7929 33.5004 15.6907 33.5004C12.7665 33.5795 9.84482 33.3848 6.92066 33.3884C6.80019 33.3848 6.67972 33.3811 6.55925 33.3787C5.77923 33.4407 4.98704 33.2399 4.21676 33.4919C4.00624 33.5004 3.7945 33.5089 3.58398 33.5174C3.50488 33.5125 3.427 33.5065 3.34791 33.5004C2.56789 33.5624 1.7757 33.3616 1.00542 33.6136C0.836272 33.6209 0.667126 33.6294 0.49798 33.6367C0.395763 33.6269 0.308147 33.6513 0.24852 33.7426C0.176725 33.7413 0.104929 33.7413 0.0331329 33.7401C0.00636164 33.2034 0.0343478 32.6704 0.125614 32.141C0.741354 32.0777 1.37291 32.2785 1.97648 32.0254C2.09817 32.023 2.21986 32.0193 2.34033 32.0157C3.2968 32.0911 4.23988 31.883 5.19148 31.894C5.98001 31.9731 6.75273 31.7333 7.53883 31.7711C8.01585 31.8064 7.98786 31.4157 8.01342 31.1443C8.05722 30.6782 8.04262 30.2048 8.02802 29.7351C8.01828 29.4248 8.12415 29.2994 8.44906 29.2958C8.79465 29.2921 8.92364 29.4138 8.91025 29.7594C8.89078 30.29 8.91147 30.8231 8.90295 31.3537C8.89808 31.6165 8.9492 31.8051 9.27045 31.7613C9.76207 31.7638 10.2537 31.7662 10.7453 31.7699C11.1542 31.7285 11.5789 31.8757 11.9744 31.6701C12.0182 31.6628 12.062 31.6542 12.107 31.6469C12.3041 31.49 12.225 31.2697 12.2275 31.075C12.2384 30.1963 12.236 29.3165 12.2384 28.4378C13.2083 28.4427 13.0951 28.3502 13.1012 29.2909C13.1048 29.9286 13.1012 30.5663 13.1024 31.204C13.1024 31.4084 13.0744 31.6311 13.3884 31.6433C13.7413 31.6579 13.7157 31.4145 13.7157 31.1857C13.7157 30.301 13.7327 29.4162 13.7096 28.5327C13.6987 28.1275 13.8873 28.0605 14.2329 28.0605C14.5675 28.0605 14.716 28.1543 14.7087 28.5157C14.6892 29.3785 14.6977 30.2426 14.7062 31.1066C14.7087 31.3232 14.6661 31.4948 14.3485 31.636C14.7111 31.636 14.9545 31.636 15.1991 31.636C15.2392 31.6421 15.2794 31.6457 15.3208 31.6482C15.6518 31.6469 15.984 31.6469 16.315 31.6457C16.478 31.6421 16.6399 31.6396 16.8005 31.6372Z" fill="#BDD744"/>
<path fill-rule="evenodd" clip-rule="evenodd" d="M39.7751 32.8849C40.0246 32.8812 40.274 32.8776 40.5235 32.8739C41.0528 32.8739 41.5834 32.8751 42.1127 32.8751C42.7747 32.8776 43.4355 32.8812 44.0975 32.8836C44.2849 33.0674 44.5222 32.9932 44.7375 32.9944C46.1649 33.0065 47.5936 33.0078 49.021 33.0126C49.1086 33.5396 49.3666 34.1834 49.1122 34.5704C48.8372 34.9902 48.1326 34.7395 47.6203 34.7626C42.5776 34.9926 37.5336 35.1983 32.4909 35.4101C32.4519 35.4113 32.4118 35.3906 32.3716 35.3808C32.3692 35.2884 32.3655 35.1971 32.3619 35.1046C32.3631 34.6531 32.3838 34.2016 32.3595 33.7525C32.34 33.3862 32.4568 33.2366 32.8413 33.2451C33.1358 33.2524 33.4583 33.3558 33.7285 33.1331C34.0156 33.1307 34.3028 33.1282 34.59 33.127C35.3299 33.0759 36.0819 33.267 36.8108 33.009C37.059 33.0066 37.3061 33.0053 37.5543 33.0029C38.2954 32.9518 39.0474 33.1428 39.7751 32.8849ZM40.9178 34.7456C40.9372 34.7456 40.9579 34.7456 40.9774 34.7456C40.9774 34.4547 40.9774 34.1639 40.9774 33.873C40.9579 33.873 40.9372 33.873 40.9178 33.873C40.9178 34.1651 40.9178 34.4547 40.9178 34.7456Z" fill="#7DBE43"/>
<path fill-rule="evenodd" clip-rule="evenodd" d="M29.7748 18.4419C29.7724 24.1251 29.7699 29.8084 29.7675 35.4916C29.1554 35.4636 28.6516 35.9321 28.0322 35.8725C28.0347 30.3426 28.0371 24.8115 28.0395 19.2816C28.0407 19.2427 28.0432 19.2037 28.048 19.1648C28.5798 18.9177 29.1116 18.6707 29.6434 18.4249C29.686 18.4285 29.7273 18.4334 29.7699 18.437L29.7748 18.4419Z" fill="#EBEA6C"/>
<path fill-rule="evenodd" clip-rule="evenodd" d="M3.58561 33.5188C3.79613 33.5103 4.00787 33.5006 4.21839 33.4933C4.99354 33.4945 5.76991 33.4957 6.54627 33.4969C6.68135 33.4969 6.82616 33.5261 6.92229 33.3898C9.84523 33.3862 12.767 33.5809 15.6923 33.5018C15.954 33.7987 16.5076 33.3691 16.6439 33.8194C16.7522 34.176 16.6768 34.5897 16.6841 34.978C16.6853 35.1009 16.6902 35.2238 16.6938 35.3455C16.6889 35.5098 16.6841 35.6741 16.678 35.8371C16.2983 35.3966 15.8079 35.3516 15.2543 35.3382C10.5449 35.2274 5.83683 35.0863 1.12873 34.9536C-0.0565048 34.9195 -0.0565057 34.9171 0.035977 33.7427C0.107773 33.7427 0.179569 33.744 0.251364 33.7452C0.351148 33.7476 0.442414 33.733 0.500824 33.6393C0.66997 33.632 0.839116 33.6247 1.00826 33.6162C1.78341 33.6174 2.55978 33.6186 3.33615 33.621C3.4335 33.6235 3.52598 33.6101 3.58561 33.5188Z" fill="#7DBE43"/>
<path fill-rule="evenodd" clip-rule="evenodd" d="M19.1533 35.8628C19.1545 35.8141 19.157 35.7654 19.1594 35.7167C19.3541 35.5305 19.2701 35.2896 19.2701 35.0754C19.2738 29.6538 19.2726 24.2334 19.2726 18.8131L19.2787 18.7863C19.7703 18.9129 20.2607 19.0407 20.7523 19.1684C20.7852 19.1733 20.8192 19.1806 20.8533 19.1879C20.8618 19.2256 20.8716 19.2646 20.8825 19.3023C20.8825 24.6643 20.8813 30.0274 20.8825 35.3894C20.8825 35.5524 20.8959 35.7179 20.9032 35.881C20.3191 35.954 19.735 35.9966 19.1533 35.8628Z" fill="#EDEB6C"/>
<path fill-rule="evenodd" clip-rule="evenodd" d="M19.1667 11.7583C19.1534 11.7169 19.14 11.6756 19.1266 11.633C19.0183 11.1815 19.1388 10.6813 18.8929 10.2675C18.3819 10.7397 17.9012 11.1839 17.4205 11.6281C17.1175 11.908 16.7074 12.0528 16.4543 12.3948C16.4519 12.1818 16.4507 11.9689 16.4482 11.7559C17.1796 11.1474 17.9085 10.5353 18.6435 9.93165C18.8163 9.78927 19.0195 9.68096 19.0365 9.42418C19.735 9.0384 20.436 9.12237 21.1381 9.41566C21.8086 9.63715 22.4973 9.48016 23.1776 9.51667C23.6424 9.54101 24.1109 9.51789 24.577 9.51667C25.5736 9.52519 26.5715 9.63593 27.5644 9.45582C27.607 9.44852 27.6484 9.44 27.691 9.4327C28.4199 9.13089 29.1464 9.02623 29.8728 9.43878C30.648 10.2116 31.5168 10.8712 32.3881 11.5283C32.5488 11.8946 32.522 12.2634 32.4027 12.6345C32.3747 12.4958 32.3309 12.2342 32.3188 12.2354C31.8198 12.2913 31.5241 11.7887 31.3416 11.5867C30.9814 11.1876 30.6346 10.803 30.1783 10.5109C30.0919 10.4562 30.2245 10.1617 29.9641 10.2785C29.829 10.3393 29.7901 10.4951 29.7864 10.6472C29.7779 11.0148 29.7645 11.3823 29.7548 11.751C29.7207 11.7571 29.6867 11.7632 29.6526 11.7668C29.1184 11.5673 28.583 11.3616 28.0463 11.7632C28.011 11.7608 27.9757 11.7571 27.9404 11.7547C27.9477 11.5758 27.6277 11.5076 27.7786 11.28C27.7737 10.9454 27.8796 10.6034 27.7044 10.2809C27.6204 10.0521 27.5717 9.71503 27.2456 10.0874C27.1483 10.1982 27.0631 10.2894 26.9767 10.1276C26.6481 9.51302 26.524 10.1276 26.2964 10.2809C26.0445 9.75763 25.7744 9.7917 25.5225 10.2834C25.3777 10.1057 25.2657 9.96938 25.1319 9.80509C24.9932 9.96451 24.8788 10.0972 24.7035 10.298C24.6488 10.2043 24.6232 10.0947 24.5612 10.0692C24.1985 9.91827 23.7763 10.2505 23.4283 9.93774C23.1545 10.5499 22.9756 10.0059 22.7553 9.84038C22.5655 10.1179 22.3915 10.5255 22.0982 9.95964C22.0654 9.89636 21.9497 9.80874 21.9023 9.90488C21.654 10.4136 21.4046 10.0899 21.143 9.83186C21.143 10.3296 21.143 10.7385 21.143 11.1474C21.143 11.1912 21.143 11.235 21.143 11.2776C21.1296 11.4821 20.9702 11.605 20.8704 11.7608C20.8363 11.762 20.8035 11.7608 20.7694 11.7583C20.2692 11.3896 19.774 11.5283 19.2787 11.7693C19.2385 11.7644 19.2033 11.762 19.1667 11.7583Z" fill="#EAEA69"/>
<path fill-rule="evenodd" clip-rule="evenodd" d="M29.751 11.7486C29.7619 11.3811 29.7741 11.0136 29.7826 10.6448C29.7863 10.4927 29.8252 10.3369 29.9603 10.2761C30.2207 10.1605 30.0881 10.4538 30.1745 10.5085C30.6308 10.8006 30.9764 11.1851 31.3378 11.5843C31.5203 11.7875 31.8172 12.2889 32.3149 12.233C32.3283 12.2317 32.3709 12.4934 32.3989 12.6321C32.3734 12.7928 32.3904 12.979 32.3149 13.1128C31.4108 14.7484 31.5836 16.5179 31.6481 18.2752C31.5544 18.6111 31.7588 18.9908 31.4984 19.3035C30.9228 19.0163 30.3485 18.7291 29.7729 18.4419L29.768 18.437C29.7644 16.2076 29.7571 13.9781 29.751 11.7486ZM31.2538 17.0375H31.2563C31.2563 16.8745 31.2563 16.7102 31.2563 16.5471C31.255 16.0506 30.7488 15.5358 30.2402 15.6344C29.7717 15.7256 30.1002 16.1747 30.0272 16.4534C29.9822 16.625 30.0175 16.8185 30.0175 17.0022C30.0187 17.4769 30.5979 18.0914 31.0603 17.9819C31.4826 17.8833 31.1613 17.4343 31.2526 17.158C31.2648 17.1227 31.2538 17.0777 31.2538 17.0375Z" fill="#80BF44"/>
<path fill-rule="evenodd" clip-rule="evenodd" d="M44.0979 32.8836C43.4372 32.8811 42.7752 32.8775 42.1144 32.875C42.0645 32.8422 42.0183 32.7947 41.9635 32.7777C41.624 32.6767 41.1385 32.9627 40.9499 32.6C40.7978 32.3079 40.9061 31.882 40.8988 31.5157C41.7214 31.5193 42.544 31.5218 43.3666 31.5254C44.3048 31.7773 45.2637 31.5875 46.2104 31.6471C46.455 31.6496 46.6984 31.652 46.943 31.6544C47.5831 31.9112 48.2523 31.7055 48.9034 31.7749C48.9667 32.1412 49.0543 32.5051 49.0153 32.8811C47.375 32.8811 45.7358 32.8823 44.0979 32.8836Z" fill="#BDD744"/>
<path fill-rule="evenodd" clip-rule="evenodd" d="M16.453 12.3948C16.7061 12.0528 17.1162 11.908 17.4192 11.6281C17.8998 11.1851 18.3805 10.7409 18.8916 10.2675C19.1374 10.6813 19.0169 11.1815 19.1252 11.6329C18.9281 11.3518 18.7589 11.5319 18.5728 11.6573C17.8974 12.1112 17.2184 12.5578 16.5406 13.0069C16.3994 12.8195 16.4469 12.6041 16.453 12.3948Z" fill="#80BF44"/>
<path fill-rule="evenodd" clip-rule="evenodd" d="M28.0402 19.2816C28.0377 24.8115 28.0353 30.3426 28.0329 35.8725L27.9854 35.881L27.9392 35.8701C27.9355 30.3475 27.9306 24.8237 27.9258 19.3011C27.9635 19.295 28.0024 19.2877 28.0402 19.2816Z" fill="#E2E991"/>
<path fill-rule="evenodd" clip-rule="evenodd" d="M24.8477 3.47566C24.5921 3.47688 24.3366 3.47809 24.0811 3.47809C24.1808 2.58606 24.2818 1.69281 24.3816 0.800772C24.44 0.800772 24.4997 0.799557 24.5581 0.79834C24.6542 1.69159 24.7516 2.58363 24.8477 3.47566Z" fill="#C3DA59"/>
<path fill-rule="evenodd" clip-rule="evenodd" d="M42.5975 13.7456C42.4381 13.8381 42.2677 13.8782 42.084 13.8478C42.2178 13.3038 42.0803 12.7233 42.3249 12.0723C42.4296 12.7075 42.5135 13.2259 42.5975 13.7456Z" fill="#C3DA59"/>
<path fill-rule="evenodd" clip-rule="evenodd" d="M5.9564 14.1034C5.78604 14.1046 5.61568 14.1058 5.44531 14.107C5.62541 13.4961 5.49399 12.8329 5.73615 12.2183C5.92355 12.8438 5.71911 13.4986 5.9564 14.1034Z" fill="#C3DA59"/>
<path fill-rule="evenodd" clip-rule="evenodd" d="M44.0977 32.8837C45.7368 32.8824 47.3747 32.8812 49.0138 32.88C49.0163 32.9238 49.0187 32.9688 49.0211 33.0127C47.5937 33.0078 46.1663 33.0066 44.7377 32.9944C44.5223 32.9932 44.2838 33.0686 44.0977 32.8837Z" fill="#BBD867"/>
<path fill-rule="evenodd" clip-rule="evenodd" d="M31.501 19.3035C31.7602 18.9907 31.557 18.611 31.6507 18.2751C31.692 18.2776 31.7261 18.2946 31.7517 18.3275C31.7492 19.0211 31.7468 19.7148 31.7444 20.4073C31.473 20.0811 31.7638 19.6308 31.501 19.3035Z" fill="#A9D164"/>
<path fill-rule="evenodd" clip-rule="evenodd" d="M48.9018 31.7737C48.2495 31.7043 47.5815 31.91 46.9414 31.6532C47.5937 31.6496 48.2447 31.6459 48.8969 31.6423C48.8981 31.6861 48.8994 31.7311 48.9018 31.7737Z" fill="#BBD867"/>
<path fill-rule="evenodd" clip-rule="evenodd" d="M1.97978 32.0256C1.37621 32.2787 0.74343 32.0779 0.128906 32.1412C0.130123 32.1011 0.132557 32.0609 0.133773 32.0195C0.749514 32.022 1.36404 32.0244 1.97978 32.0256Z" fill="#BBD867"/>
<path fill-rule="evenodd" clip-rule="evenodd" d="M36.1865 30.53C36.105 30.8123 36.38 31.1445 36.0649 31.394C35.9334 31.2212 35.7412 31.2979 35.572 31.276C35.5379 30.8196 35.5039 30.3632 35.471 29.9081C35.617 29.2096 35.6925 28.5135 35.4382 27.821C34.3576 27.8502 34.4841 27.6287 34.4671 28.8104C34.4647 28.9747 34.4671 29.139 34.4671 29.3021C34.4671 29.8144 34.4695 30.3267 34.4634 30.8403C34.4622 31.0155 34.5109 31.2431 34.2347 31.2589C33.9536 31.2748 33.9876 31.0533 33.9718 30.8719C33.9536 30.6748 34.0412 30.4557 33.855 30.2927C33.8526 29.9227 33.8477 29.554 33.8477 29.184C33.8465 28.2007 33.8477 28.2007 32.8608 28.1922C32.6552 28.8469 32.6698 29.5016 32.8499 30.1576C32.8535 30.3657 32.8584 30.5738 32.8632 30.7819C32.8608 30.9486 32.8596 31.1153 32.8572 31.2833C32.2767 31.3867 32.0321 31.1713 32.1076 30.5616C32.1757 30.014 32.0954 29.4651 32.0151 28.9199C32.1781 28.2676 32.1915 27.6178 32.0066 26.9667C31.9688 26.6296 31.9299 26.2925 31.8922 25.9554C32.0589 25.3433 32.0759 24.7324 31.8812 24.1227C31.8362 23.6164 31.7814 23.1126 31.7535 22.6063C31.7425 22.4116 31.6817 22.1938 31.8569 22.027C33.5094 22.498 35.2106 22.7438 36.8826 23.1284C37.1004 23.1783 37.3243 23.2051 37.5446 23.244C37.5896 23.2477 37.6346 23.2513 37.6796 23.2562C38.5814 23.4558 39.4818 23.6553 40.3836 23.8561C40.4286 23.8634 40.4724 23.872 40.515 23.8805C40.6014 26.2609 40.6878 28.6412 40.7742 31.0216C40.7693 31.192 40.7644 31.3624 40.7596 31.5327C40.678 31.5279 40.5953 31.523 40.5138 31.5181C40.4797 31.2748 40.6087 31.007 40.403 30.7904C40.3641 30.1272 40.3264 29.4639 40.2874 28.8007C40.4383 28.0206 40.5016 27.2417 40.2582 26.4665C40.1402 26.4982 40.0197 26.5663 39.9065 26.5566C39.3358 26.5067 39.2202 26.8134 39.2786 27.2965C39.3261 27.6774 39.348 28.0608 39.3808 28.4429C39.1569 29.2631 39.3163 30.1004 39.292 30.9291C39.2798 31.3125 39.1509 31.4524 38.7858 31.3977C38.7919 31.1482 38.798 30.8999 38.804 30.6517C39.0401 29.9957 38.8868 29.3191 38.8977 28.6534C38.9063 28.1764 39.0389 27.6774 38.7955 27.2125C38.5765 26.7099 38.136 27.0628 37.8135 26.9582C37.5665 27.5691 37.6273 28.1837 37.7892 28.8007C37.8318 29.6684 37.9924 30.53 37.9206 31.4038C37.9218 31.4354 37.923 31.467 37.9242 31.4987C37.3718 31.5863 37.1381 31.377 37.1722 30.7953C37.2294 29.8193 37.1576 28.8433 37.0603 27.8697C37.0359 27.6312 37.0396 27.3586 36.6988 27.5204C36.4908 27.6202 35.9651 27.3683 36.1342 27.967C36.1768 28.1192 36.1646 28.2883 36.1768 28.449C36.004 29.1426 35.9906 29.8363 36.1865 30.53ZM35.2033 26.957C35.207 26.7257 35.1765 26.4118 34.9478 26.4069C34.6314 26.3996 34.6557 26.7671 34.6581 26.9801C34.6606 27.1711 34.6521 27.5204 34.9392 27.5034C35.1814 27.4876 35.2021 27.1858 35.2033 26.957ZM33.6043 27.0202C33.5751 26.7927 33.5727 26.4933 33.3074 26.4848C33.03 26.475 32.9971 26.7866 33.0141 26.9947C33.0312 27.1979 33.0312 27.5265 33.2952 27.5326C33.5593 27.5387 33.5642 27.232 33.6043 27.0202ZM38.4207 25.9469C38.4013 25.7169 38.4524 25.3883 38.1591 25.4114C37.8354 25.437 37.9328 25.7862 37.9242 26.015C37.9169 26.2134 37.8963 26.5116 38.1481 26.5067C38.4998 26.4994 38.3854 26.155 38.4207 25.9469ZM39.741 24.6557C39.4952 24.7299 39.4551 24.9478 39.4222 25.1352C39.3796 25.3871 39.449 25.6962 39.6924 25.7534C39.9224 25.8069 39.9637 25.4917 39.999 25.308C40.0489 25.0548 39.9418 24.8321 39.741 24.6557ZM36.7098 26.5578C36.6672 26.3521 36.7694 26.0248 36.4603 26.0199C36.1671 26.0138 36.1963 26.3205 36.1975 26.5395C36.1987 26.7635 36.1841 27.0531 36.4871 27.0458C36.7792 27.0385 36.6563 26.7343 36.7098 26.5578Z" fill="#EBEA6C"/>
<path fill-rule="evenodd" clip-rule="evenodd" d="M46.209 31.646C45.2623 31.5863 44.3046 31.7762 43.3652 31.5243C43.3566 30.3925 43.3445 29.2619 43.3408 28.1301C43.3384 27.2466 43.8337 26.6333 44.5808 26.5797C45.4424 26.5177 46.091 27.013 46.1518 27.9452C46.2321 29.1743 46.1944 30.412 46.209 31.646Z" fill="#EAEA69"/>
<path fill-rule="evenodd" clip-rule="evenodd" d="M40.5142 23.8768C40.4704 23.8695 40.4266 23.861 40.3828 23.8525C40.3828 22.7925 40.3828 21.7325 40.3828 20.6725C40.4266 20.6725 40.4704 20.6725 40.5142 20.6725C40.5142 21.741 40.5142 22.8095 40.5142 23.8768Z" fill="#96C763"/>
<path fill-rule="evenodd" clip-rule="evenodd" d="M40.7585 31.5304C40.7634 31.36 40.7683 31.1896 40.7731 31.0192C40.9216 31.158 40.8595 31.349 40.896 31.517C40.9033 31.8833 40.7963 32.3092 40.9472 32.6013C41.1358 32.9652 41.6213 32.6792 41.9608 32.779C42.0156 32.7948 42.0618 32.8435 42.1117 32.8763C41.5811 32.8763 41.0518 32.8751 40.5225 32.8751C40.9654 32.4893 40.6807 31.9782 40.7585 31.5304Z" fill="#BBD867"/>
<path fill-rule="evenodd" clip-rule="evenodd" d="M46.1006 22.4968C46.1006 21.6024 46.1006 20.7067 46.1006 19.8122C46.1213 19.8122 46.1407 19.8122 46.1602 19.8122C46.1602 20.7067 46.1602 21.6011 46.1602 22.4968C46.1407 22.4956 46.1201 22.4968 46.1006 22.4968Z" fill="#96C763"/>
<path fill-rule="evenodd" clip-rule="evenodd" d="M37.679 23.2538C37.634 23.2501 37.589 23.2465 37.5439 23.2416C37.5439 22.4299 37.5439 21.6182 37.5439 20.8065C37.589 20.8065 37.634 20.8065 37.679 20.8052C37.679 21.6218 37.679 22.4372 37.679 23.2538Z" fill="#96C763"/>
<path fill-rule="evenodd" clip-rule="evenodd" d="M22.9823 29.6197C22.9823 28.9212 22.9787 28.2239 22.9848 27.5253C22.986 27.2503 22.9045 26.957 23.2963 26.8158C23.5494 26.7246 23.317 26.5371 23.2586 26.4191C23.0651 26.0321 22.9836 25.6926 23.5531 25.6074C23.8415 25.5648 23.7624 25.4212 23.6869 25.2727C23.4788 24.8614 23.6845 24.5328 23.9498 24.2821C24.2272 24.0205 24.5947 24.0521 24.9281 24.2286C25.2908 24.4208 25.3674 24.7616 25.3127 25.1242C25.2749 25.3762 25.1545 25.6171 25.5694 25.6256C25.6351 25.6269 25.7617 25.7352 25.7532 25.7607C25.5426 26.424 26.1706 26.8803 26.1803 27.4706C26.2058 28.9285 26.173 30.3876 26.1985 31.8455C26.2058 32.2873 26.0537 32.4126 25.6315 32.3968C24.8928 32.3688 24.153 32.3786 23.4131 32.3932C23.0955 32.3993 22.975 32.2812 22.9811 31.9624C22.9957 31.1823 22.986 30.401 22.986 29.6209C22.986 29.6209 22.9848 29.6197 22.9823 29.6197Z" fill="#7DBE43"/>
<path fill-rule="evenodd" clip-rule="evenodd" d="M28.0404 19.2816C28.0027 19.2889 27.9637 19.295 27.926 19.3023C25.5787 19.3023 23.2313 19.3023 20.8827 19.3035C20.8718 19.2658 20.862 19.2269 20.8535 19.1891L20.8876 19.1709C23.022 19.1733 25.1564 19.1599 27.2908 19.1928C27.8238 19.2013 27.9333 19.0151 27.9297 18.5234C27.9114 16.266 27.9309 14.0085 27.937 11.751C27.9723 11.7535 28.0075 11.7571 28.0428 11.7596C28.044 14.2276 28.0465 16.6968 28.0489 19.1648C28.044 19.2037 28.0416 19.2427 28.0404 19.2816Z" fill="#A9D164"/>
<path fill-rule="evenodd" clip-rule="evenodd" d="M9.27459 31.7615C8.95211 31.8053 8.90222 31.6167 8.90709 31.3538C8.91561 30.822 8.89492 30.2902 8.91439 29.7596C8.92778 29.414 8.79879 29.2923 8.45319 29.2959C8.12829 29.2996 8.02242 29.4249 8.03215 29.7353C8.04676 30.205 8.06015 30.6784 8.01755 31.1445C7.992 31.4171 8.01998 31.8065 7.54297 31.7713C7.58678 29.8387 7.63059 27.9074 7.67439 25.9749C7.87761 25.6621 7.75227 25.3128 7.78026 24.9806C7.80338 24.7056 7.73524 24.4111 8.04189 24.2419C10.8833 23.5142 13.7247 22.7876 16.5661 22.0623C16.6842 22.0319 16.8071 22.0222 16.9275 22.0027C16.9324 22.1292 16.9385 22.257 16.9434 22.3836C16.9361 22.8813 16.9287 23.3779 16.9202 23.8744C16.6842 24.2103 16.8034 24.5924 16.8156 24.9453C16.8448 25.858 16.6744 26.7781 16.9117 27.6835C16.7547 28.9978 16.8314 30.3194 16.801 31.6374C16.6403 31.6398 16.4785 31.6423 16.3179 31.6447C16.3142 30.536 16.3106 29.4274 16.3081 28.3199C16.3057 27.4961 16.139 27.3926 15.3176 27.7029C15.1363 27.866 15.2057 28.0826 15.2044 28.2786C15.1983 29.3982 15.202 30.5178 15.202 31.6374C14.9574 31.6374 14.714 31.6374 14.3514 31.6374C14.669 31.4962 14.7128 31.3246 14.7092 31.108C14.7006 30.244 14.6921 29.3799 14.7116 28.5171C14.7189 28.1557 14.5704 28.0619 14.2358 28.0619C13.8902 28.0619 13.7016 28.1289 13.7125 28.5341C13.7357 29.4189 13.7198 30.3036 13.7186 31.1871C13.7186 31.4159 13.7442 31.6593 13.3913 31.6447C13.0773 31.6325 13.1065 31.411 13.1053 31.2054C13.1029 30.5677 13.1078 29.93 13.1041 29.2923C13.098 28.3516 13.2112 28.4441 12.2413 28.4392C12.043 28.5938 12.1172 28.8153 12.1148 29.01C12.1075 29.8898 12.1111 30.7685 12.1099 31.6483C12.0649 31.6556 12.0211 31.6642 11.9773 31.6715C11.6974 31.6094 11.7363 31.3855 11.7351 31.1859C11.7339 30.6151 11.6974 30.042 11.7449 29.4748C11.7923 28.926 11.5964 28.7203 11.0622 28.8067C10.9624 28.8226 10.859 28.8092 10.7567 28.8104C10.5633 28.9637 10.6351 29.1816 10.6326 29.3738C10.6241 29.9787 10.6314 30.5835 10.6278 31.1895C10.6265 31.383 10.6801 31.6167 10.3746 31.6435C10.3746 31.0289 10.3771 30.4143 10.3759 29.7986C10.3759 28.9771 10.214 28.8773 9.38532 29.1791C9.1383 30.031 9.33421 30.9011 9.27459 31.7615ZM14.4609 26.9545C14.4098 26.7695 14.4281 26.4677 14.1324 26.486C13.9012 26.5006 13.8476 26.7829 13.8744 26.9703C13.9036 27.1821 13.861 27.5447 14.1896 27.5253C14.4293 27.5082 14.4488 27.2052 14.4609 26.9545ZM8.75741 28.2141C8.61261 28.0753 8.76593 27.7212 8.43737 27.7236C8.18305 27.7248 8.16114 27.9804 8.1648 28.1909C8.16966 28.4283 8.11369 28.7568 8.44224 28.7727C8.75863 28.7885 8.61139 28.4161 8.75741 28.2141ZM11.5015 27.5703C11.4832 27.3354 11.5368 27.0166 11.2459 27.0202C10.9527 27.0239 11.0062 27.3452 11.005 27.5606C11.0038 27.7784 10.9527 28.1094 11.2252 28.1204C11.5769 28.1337 11.4638 27.7747 11.5015 27.5703ZM16.0672 26.3765C16.027 26.1684 16.0319 25.8629 15.7557 25.8751C15.488 25.8872 15.4794 26.2158 15.4892 26.4105C15.4977 26.5979 15.4855 26.9375 15.7824 26.9168C16.0404 26.8985 16.0416 26.6028 16.0672 26.3765ZM12.4713 27.3099C12.5504 27.4474 12.3582 27.7845 12.7074 27.7979C12.9739 27.8088 12.9812 27.5423 12.9739 27.3342C12.9654 27.103 13.0445 26.7659 12.6989 26.7647C12.4482 26.7634 12.4932 27.0653 12.4713 27.3099ZM9.62261 27.7443C9.67616 27.9317 9.52648 28.2469 9.838 28.2883C10.0948 28.3224 10.1337 28.0644 10.1337 27.8538C10.1337 27.6153 10.1666 27.294 9.86721 27.2648C9.59949 27.2368 9.65912 27.5472 9.62261 27.7443Z" fill="#EBEA6C"/>
<path fill-rule="evenodd" clip-rule="evenodd" d="M5.19587 31.8954C4.24306 31.8844 3.29998 32.0925 2.34473 32.0171C2.39218 30.7685 2.2997 29.5162 2.45668 28.2688C2.56377 27.4096 3.09676 26.8425 3.85244 26.8486C4.66045 26.8559 5.35163 27.5581 5.28714 28.4538C5.20317 29.6026 5.21291 30.7478 5.19587 31.8954Z" fill="#EAEA69"/>
<path fill-rule="evenodd" clip-rule="evenodd" d="M8.04298 24.2431C7.73633 24.4123 7.80325 24.708 7.78135 24.9818C7.75458 25.3141 7.87991 25.6633 7.67548 25.9761C7.66939 25.4382 7.66331 24.9003 7.65723 24.3624C7.65844 24.321 7.65844 24.2796 7.65966 24.237C7.66088 22.6392 7.66331 21.0401 7.66453 19.4422C7.70834 19.4422 7.75092 19.4422 7.79473 19.4434C7.79352 20.8673 7.78865 22.2911 7.7923 23.7162C7.7923 23.9218 7.70347 24.1896 8.04298 24.2431Z" fill="#96C763"/>
<path fill-rule="evenodd" clip-rule="evenodd" d="M7.65878 24.2371C7.65878 24.2785 7.65756 24.3199 7.65635 24.3625C5.93203 24.3625 4.20771 24.3625 2.4834 24.3625C2.48705 24.3199 2.49192 24.2785 2.49678 24.2371C4.21745 24.2371 5.93811 24.2371 7.65878 24.2371Z" fill="#80BF44"/>
<path fill-rule="evenodd" clip-rule="evenodd" d="M2.47363 19.5408C2.52231 19.5067 2.57098 19.4726 2.61966 19.4398C2.61966 20.086 2.61966 20.7322 2.61966 21.3784C2.57098 21.3784 2.52231 21.3784 2.47363 21.3796C2.47363 20.7663 2.47363 20.1541 2.47363 19.5408Z" fill="#96C763"/>
<path fill-rule="evenodd" clip-rule="evenodd" d="M2.49641 24.2371C2.49155 24.2785 2.4879 24.3198 2.48303 24.3624C2.21288 23.8051 2.42097 23.2246 2.49641 22.6526C2.49641 23.182 2.49641 23.7089 2.49641 24.2371Z" fill="#96C763"/>
<path fill-rule="evenodd" clip-rule="evenodd" d="M21.1368 9.41445C20.4347 9.12116 19.7338 9.03719 19.0353 9.42297C19.017 9.38646 19.0049 9.34508 18.9793 9.31466C18.6301 8.91793 18.3453 8.55162 19.1497 8.33135C19.342 8.27902 19.2519 8.00277 19.2945 7.82875C19.404 7.3663 19.7399 7.12169 20.1743 7.10709C20.6063 7.09127 21.0395 7.30302 21.076 7.7679C21.1149 8.26929 21.4106 8.46643 21.856 8.68549C21.5506 8.91428 21.2208 9.06031 21.1368 9.41445Z" fill="#BDD744"/>
<path fill-rule="evenodd" clip-rule="evenodd" d="M29.8705 9.43635C29.144 9.0238 28.4163 9.12967 27.6886 9.43026C27.8055 9.01041 26.8879 8.94226 27.2919 8.56987C27.6168 8.27171 27.6315 7.89932 27.8481 7.60238C28.0829 7.27867 28.381 6.98782 28.8203 7.11681C29.2024 7.22756 29.5444 7.45026 29.5261 7.9261C29.5164 8.20478 29.6576 8.3423 29.8863 8.42383C30.3256 8.57717 30.457 8.77675 30.0263 9.11385C29.9423 9.17957 29.9216 9.32682 29.8705 9.43635Z" fill="#BDD744"/>
<path fill-rule="evenodd" clip-rule="evenodd" d="M27.5617 9.45339C26.5687 9.6335 25.5708 9.52276 24.5742 9.51424C25.5672 9.32318 26.565 9.43757 27.5617 9.45339Z" fill="#BDD744"/>
<path fill-rule="evenodd" clip-rule="evenodd" d="M32.8564 31.2809C32.8577 31.1142 32.8601 30.9475 32.8625 30.7795C32.9891 31.1057 33.1242 31.3941 33.5768 31.2833C34.0198 31.1738 33.7849 30.8331 33.8409 30.5933C33.864 30.4972 33.8506 30.3925 33.8531 30.2915C34.038 30.4546 33.9516 30.6736 33.9699 30.8708C33.9857 31.0521 33.9516 31.2736 34.2327 31.2578C34.509 31.242 34.4603 31.0144 34.4615 30.8391C34.4676 30.3268 34.4652 29.8132 34.4652 29.3009C34.7122 29.7414 34.5881 30.2221 34.5747 30.6785C34.5601 31.1726 34.7256 31.3551 35.2038 31.2846C35.3243 31.2663 35.4496 31.2785 35.5713 31.276C35.7404 31.2992 35.9315 31.2213 36.0641 31.3941C35.1673 31.3941 34.2692 31.3977 33.3724 31.3941C33.196 31.3929 33.0013 31.444 32.8564 31.2809Z" fill="#DDE681"/>
<path fill-rule="evenodd" clip-rule="evenodd" d="M40.4019 30.788C40.6075 31.0046 40.4785 31.2723 40.5126 31.5157C39.6498 31.5096 38.7883 31.5023 37.9255 31.4962C37.9243 31.4646 37.9231 31.4329 37.9219 31.4013C38.2103 31.4001 38.4987 31.3977 38.7859 31.3952C39.1509 31.45 39.2799 31.31 39.2921 30.9267C39.3164 30.0979 39.157 29.2607 39.3809 28.4404C39.3894 29.2156 39.3979 29.9908 39.4065 30.766C39.4089 31.0837 39.3189 31.4062 39.8591 31.4196C40.3788 31.4305 40.4299 31.1774 40.4019 30.788Z" fill="#E5E984"/>
<path fill-rule="evenodd" clip-rule="evenodd" d="M33.7304 33.1319C33.459 33.3546 33.1365 33.2511 32.8433 33.2438C32.4575 33.2353 32.3407 33.385 32.3614 33.7513C32.3857 34.2004 32.3651 34.6531 32.3638 35.1034C32.0998 34.4328 32.3237 33.7391 32.2275 33.0284C32.7459 33.1915 33.24 33.1063 33.7304 33.1319Z" fill="#A9D164"/>
<path fill-rule="evenodd" clip-rule="evenodd" d="M39.7755 32.8848C39.0466 33.1428 38.2945 32.9518 37.5547 33.0029C38.2836 32.7364 39.0368 32.9493 39.7755 32.8848Z" fill="#A9D164"/>
<path fill-rule="evenodd" clip-rule="evenodd" d="M36.8126 33.0078C36.0837 33.2658 35.3317 33.0747 34.5918 33.1258C35.3207 32.8605 36.074 33.0735 36.8126 33.0078Z" fill="#A9D164"/>
<path fill-rule="evenodd" clip-rule="evenodd" d="M36.1875 30.53C35.9915 29.8363 36.0061 29.1426 36.1789 28.4478C36.1814 29.1414 36.1838 29.8351 36.1875 30.53Z" fill="#E5E984"/>
<path fill-rule="evenodd" clip-rule="evenodd" d="M32.0059 26.9655C32.1908 27.6166 32.1787 28.2664 32.0144 28.9187C32.0119 28.2664 32.0083 27.6166 32.0059 26.9655Z" fill="#E5E984"/>
<path fill-rule="evenodd" clip-rule="evenodd" d="M31.8789 24.1215C32.0748 24.7312 32.0566 25.3421 31.8899 25.9542C31.8862 25.3433 31.8826 24.7324 31.8789 24.1215Z" fill="#E5E984"/>
<path fill-rule="evenodd" clip-rule="evenodd" d="M17.5371 15.9642C18.7649 15.4981 18.6931 15.5042 18.7954 16.8014C18.8757 17.8115 18.12 17.7945 17.5578 18.0622C17.5505 17.3625 17.5444 16.6639 17.5371 15.9642Z" fill="#EAEA69"/>
<path fill-rule="evenodd" clip-rule="evenodd" d="M19.1664 11.7583C19.2029 11.762 19.2382 11.7644 19.2747 11.7656C19.2759 14.1058 19.2771 16.446 19.2783 18.7863L19.2722 18.813C19.237 18.8057 19.2017 18.8057 19.1664 18.8106L19.125 18.7948C19.1384 16.4497 19.153 14.1046 19.1664 11.7583Z" fill="#BBD867"/>
<path fill-rule="evenodd" clip-rule="evenodd" d="M16.9436 22.3851C16.9387 22.2585 16.9339 22.132 16.9278 22.0042C16.9996 21.2679 16.7732 20.5134 17.0507 19.7881C16.9971 20.6533 17.1809 21.5283 16.9436 22.3851Z" fill="#BBD867"/>
<path fill-rule="evenodd" clip-rule="evenodd" d="M17.5373 15.9639C17.5446 16.6636 17.5507 17.3622 17.558 18.0619C17.3207 17.3646 17.3694 16.6648 17.5373 15.9639Z" fill="#80BF44"/>
<path fill-rule="evenodd" clip-rule="evenodd" d="M19.1665 18.8106C19.2018 18.8057 19.2383 18.8057 19.2723 18.813C19.2723 24.2334 19.2736 29.6537 19.2699 35.0753C19.2699 35.2907 19.3539 35.5317 19.1592 35.7167C19.1604 30.0821 19.164 24.4463 19.1665 18.8106Z" fill="#E2E991"/>
<path fill-rule="evenodd" clip-rule="evenodd" d="M16.6929 35.3443C16.6892 35.2214 16.6856 35.0997 16.6832 34.9767C16.6759 34.5885 16.7513 34.176 16.643 33.8182C16.5067 33.3679 15.953 33.7975 15.6914 33.5006C15.7936 33.5006 15.8971 33.4896 15.9981 33.5042C16.5225 33.5833 16.7464 33.402 16.6965 32.8385C16.6698 32.5331 16.5651 32.185 16.8048 31.8966C16.8048 32.8544 16.8085 33.8109 16.8024 34.7674C16.8012 34.9634 16.8718 35.18 16.6929 35.3443Z" fill="#C3DA59"/>
<path fill-rule="evenodd" clip-rule="evenodd" d="M16.9114 27.6848C16.6753 26.7806 16.8457 25.8593 16.8153 24.9466C16.8031 24.5925 16.6838 24.2116 16.9199 23.8757C16.9175 25.145 16.915 26.4155 16.9114 27.6848Z" fill="#E5E984"/>
<path fill-rule="evenodd" clip-rule="evenodd" d="M15.3174 27.703C16.1388 27.3927 16.3055 27.4973 16.3079 28.32C16.3104 29.4287 16.314 30.5373 16.3177 31.6448C15.9867 31.646 15.6545 31.646 15.3235 31.6472C15.321 30.3329 15.3186 29.0173 15.3174 27.703Z" fill="#BED747"/>
<path fill-rule="evenodd" clip-rule="evenodd" d="M10.7595 28.8092C10.8605 28.8092 10.9651 28.8214 11.0649 28.8056C11.5991 28.7192 11.7951 28.9248 11.7476 29.4737C11.6989 30.0408 11.7366 30.614 11.7379 31.1847C11.7379 31.3855 11.6989 31.6082 11.98 31.6703C11.5845 31.8748 11.1598 31.7275 10.751 31.7701C10.7534 30.7831 10.7571 29.7962 10.7595 28.8092Z" fill="#BED747"/>
<path fill-rule="evenodd" clip-rule="evenodd" d="M10.7591 28.8093C10.7566 29.7962 10.753 30.7832 10.7493 31.7701C10.2577 31.7677 9.76609 31.7653 9.27447 31.7616C9.33409 30.9012 9.13818 30.0311 9.38642 29.1792C9.38886 29.7463 9.39372 30.3134 9.39494 30.8805C9.39616 31.6618 9.39616 31.6618 10.1944 31.6509C10.2553 31.6497 10.3161 31.646 10.3757 31.6436C10.6824 31.6168 10.6276 31.3831 10.6289 31.1896C10.6325 30.5836 10.6264 29.9788 10.6337 29.3739C10.6374 29.1804 10.5656 28.9638 10.7591 28.8093Z" fill="#DDE681"/>
<path fill-rule="evenodd" clip-rule="evenodd" d="M15.3176 27.703C15.3188 29.0185 15.3212 30.3341 15.3237 31.6484C15.2823 31.6472 15.2421 31.6435 15.202 31.6362C15.202 30.5166 15.1983 29.397 15.2044 28.2774C15.2056 28.0827 15.1363 27.8649 15.3176 27.703Z" fill="#DDE681"/>
<path fill-rule="evenodd" clip-rule="evenodd" d="M12.1108 31.6472C12.1108 30.7673 12.1084 29.8887 12.1157 29.0088C12.1169 28.8141 12.0439 28.5938 12.2422 28.438C12.2398 29.3167 12.2422 30.1966 12.2313 31.0752C12.2288 31.2699 12.3079 31.4902 12.1108 31.6472Z" fill="#DDE681"/>
<path fill-rule="evenodd" clip-rule="evenodd" d="M6.54664 33.4969C5.77027 33.4957 4.99512 33.4945 4.21875 33.4933C4.98903 33.2401 5.78122 33.4422 6.56124 33.3801C6.55881 33.4178 6.55394 33.458 6.54664 33.4969Z" fill="#BBD867"/>
<path fill-rule="evenodd" clip-rule="evenodd" d="M3.33472 33.6199C2.55836 33.6187 1.7832 33.6174 1.00684 33.615C1.77712 33.3631 2.56931 33.5639 3.34932 33.5018C3.34689 33.542 3.34202 33.5809 3.33472 33.6199Z" fill="#BBD867"/>
<path fill-rule="evenodd" clip-rule="evenodd" d="M6.5459 33.497C6.5532 33.458 6.55807 33.4191 6.5605 33.3789C6.68097 33.3813 6.80144 33.385 6.92191 33.3886C6.82578 33.5262 6.68097 33.497 6.5459 33.497Z" fill="#80BF44"/>
<path fill-rule="evenodd" clip-rule="evenodd" d="M3.33496 33.6199C3.34226 33.5809 3.34713 33.542 3.34956 33.5018C3.42866 33.5079 3.50654 33.5128 3.58564 33.5189C3.52601 33.6101 3.43353 33.6235 3.33496 33.6199Z" fill="#80BF44"/>
<path fill-rule="evenodd" clip-rule="evenodd" d="M0.500436 33.6381C0.442026 33.7318 0.349544 33.7464 0.250977 33.744C0.309387 33.6527 0.398219 33.6284 0.500436 33.6381Z" fill="#80BF44"/>
<path fill-rule="evenodd" clip-rule="evenodd" d="M40.918 34.7456C40.918 34.4548 40.918 34.1639 40.918 33.873C40.9374 33.873 40.9581 33.873 40.9776 33.873C40.9776 34.1639 40.9776 34.4548 40.9776 34.7456C40.9581 34.7456 40.9374 34.7456 40.918 34.7456Z" fill="#A9D164"/>
<path fill-rule="evenodd" clip-rule="evenodd" d="M28.0481 19.1647C28.0469 16.6967 28.0444 14.2275 28.042 11.7595C28.5786 11.3579 29.1128 11.5648 29.6483 11.7632C29.6471 13.9829 29.6458 16.2039 29.6434 18.4236C29.1116 18.6706 28.5799 18.9177 28.0481 19.1647Z" fill="#BDD744"/>
<path fill-rule="evenodd" clip-rule="evenodd" d="M29.6436 18.4236C29.6448 16.2039 29.6472 13.9829 29.6484 11.7632C29.6825 11.7595 29.7166 11.7547 29.7506 11.7474C29.7567 13.9769 29.764 16.2063 29.7701 18.4358C29.7275 18.4322 29.6861 18.4285 29.6436 18.4236Z" fill="#A9D164"/>
<path fill-rule="evenodd" clip-rule="evenodd" d="M19.2781 18.7862C19.2768 16.446 19.2756 14.1058 19.2744 11.7656C19.7697 11.5234 20.265 11.3859 20.7651 11.7546C20.7614 14.2263 20.7566 16.6979 20.7529 19.1684C20.2601 19.0418 19.7697 18.914 19.2781 18.7862Z" fill="#BDD744"/>
<path fill-rule="evenodd" clip-rule="evenodd" d="M20.752 19.1684C20.7556 16.6967 20.7605 14.2251 20.7641 11.7546C20.7982 11.7571 20.831 11.7583 20.8651 11.7571C20.8724 14.2275 20.8797 16.6992 20.887 19.1696L20.8529 19.1879C20.8189 19.1806 20.7848 19.1745 20.752 19.1684Z" fill="#C3DA59"/>
<path fill-rule="evenodd" clip-rule="evenodd" d="M20.8871 19.1696C20.8798 16.6979 20.8725 14.2275 20.8652 11.7571C20.965 11.6013 21.1244 11.4784 21.1378 11.2739C23.3501 11.2739 25.5612 11.2751 27.7734 11.2751C27.6226 11.5039 27.9438 11.5709 27.9353 11.7498C27.9292 14.0072 27.9097 16.2647 27.928 18.5222C27.9316 19.0138 27.8233 19.2 27.2891 19.1915C25.1559 19.1586 23.0215 19.1732 20.8871 19.1696ZM24.3333 17.8248C25.1146 17.8248 25.8958 17.8078 26.677 17.8309C27.0567 17.8419 27.1869 17.7092 27.1687 17.3344C27.1431 16.8221 27.1516 16.3061 27.1674 15.7925C27.176 15.4834 27.0774 15.3495 26.7464 15.352C25.1426 15.3641 23.5387 15.3629 21.9361 15.352C21.6136 15.3495 21.4968 15.4664 21.5077 15.784C21.5248 16.2769 21.5345 16.7722 21.5053 17.2638C21.4798 17.6849 21.6063 17.8516 22.0529 17.8321C22.811 17.8017 23.5728 17.8248 24.3333 17.8248Z" fill="#7DBE43"/>
<path fill-rule="evenodd" clip-rule="evenodd" d="M21.1387 11.1438C21.1387 10.7349 21.1387 10.326 21.1387 9.82823C21.4003 10.0862 21.6498 10.4112 21.898 9.90124C21.9455 9.80632 22.0598 9.89272 22.0939 9.95601C22.3872 10.5219 22.5612 10.113 22.751 9.83674C22.9713 10.0023 23.1502 10.5462 23.424 9.9341C23.772 10.2481 24.1943 9.91463 24.5569 10.0655C24.6177 10.0911 24.6433 10.2006 24.6993 10.2943C24.8733 10.0935 24.9877 9.96209 25.1276 9.80145C25.2615 9.96453 25.3734 10.102 25.5182 10.2797C25.7701 9.78807 26.0403 9.75399 26.2922 10.2773C26.5197 10.1239 26.6438 9.50938 26.9724 10.1239C27.0588 10.2858 27.1452 10.1945 27.2413 10.0838C27.5674 9.7114 27.6161 10.0485 27.7001 10.2773C27.6465 11.1498 27.6465 11.1498 26.7801 11.1498C24.8988 11.1474 23.0187 11.145 21.1387 11.1438Z" fill="#7DBE43"/>
<path fill-rule="evenodd" clip-rule="evenodd" d="M21.1389 11.1438C23.019 11.145 24.8991 11.1474 26.7791 11.1498C27.6456 11.1498 27.6456 11.1498 27.6991 10.2773C27.8756 10.5998 27.7685 10.9417 27.7733 11.2764C25.561 11.2764 23.35 11.2752 21.1377 11.2752C21.1389 11.2302 21.1389 11.1864 21.1389 11.1438Z" fill="#96C763"/>
<path fill-rule="evenodd" clip-rule="evenodd" d="M31.2537 17.0375C31.2537 17.0777 31.2646 17.1227 31.2525 17.1592C31.1612 17.4355 31.4824 17.8845 31.0602 17.9831C30.5966 18.0914 30.0185 17.4781 30.0173 17.0035C30.0173 16.8197 29.982 16.6262 30.0271 16.4546C30.1001 16.1759 29.7715 15.7269 30.24 15.6356C30.7475 15.5358 31.2549 16.0518 31.2561 16.5483C31.2561 16.7114 31.2561 16.8757 31.2561 17.0388L31.2537 17.0375Z" fill="#EAEA69"/>
<path fill-rule="evenodd" clip-rule="evenodd" d="M40.4021 30.788C40.43 31.1774 40.3789 31.4305 39.8581 31.4196C39.3178 31.4074 39.4079 31.0849 39.4054 30.7661C39.3981 29.9909 39.3896 29.2157 39.3799 28.4405C39.347 28.0583 39.3251 27.675 39.2777 27.2941C39.218 26.8109 39.3349 26.5055 39.9056 26.5542C40.0187 26.5639 40.1392 26.4958 40.2572 26.4641C40.267 27.2418 40.2767 28.0206 40.2864 28.7983C40.3254 29.4603 40.3631 30.1235 40.4021 30.788Z" fill="#BDD744"/>
<path fill-rule="evenodd" clip-rule="evenodd" d="M38.7864 31.3953C38.498 31.3965 38.2096 31.3989 37.9224 31.4014C37.993 30.5276 37.8336 29.666 37.791 28.7983C37.7983 28.1837 37.8068 27.5692 37.8154 26.9558C38.1378 27.0605 38.5783 26.7075 38.7974 27.2102C38.7998 28.3565 38.8022 29.5029 38.8059 30.6493C38.7986 30.8976 38.7925 31.147 38.7864 31.3953Z" fill="#BDD744"/>
<path fill-rule="evenodd" clip-rule="evenodd" d="M35.5721 31.276C35.4492 31.2784 35.325 31.2675 35.2046 31.2845C34.7263 31.3551 34.5621 31.1726 34.5754 30.6785C34.5888 30.2221 34.713 29.7414 34.4659 29.3009C34.4659 29.1366 34.4635 28.9723 34.4659 28.8092C34.4842 27.6275 34.3576 27.849 35.4382 27.8198C35.4492 28.5159 35.4601 29.212 35.4699 29.9069C35.5039 30.3633 35.538 30.8196 35.5721 31.276Z" fill="#BDD744"/>
<path fill-rule="evenodd" clip-rule="evenodd" d="M33.8545 30.2915C33.8521 30.3925 33.8642 30.4971 33.8423 30.5933C33.7864 30.833 34.02 31.1738 33.5783 31.2833C33.1256 31.394 32.9893 31.1056 32.864 30.7795C32.8591 30.5714 32.8555 30.3633 32.8506 30.1564C32.8542 29.5004 32.8579 28.8457 32.8615 28.1898C33.8484 28.1995 33.8472 28.1995 33.8484 29.1816C33.8472 29.5528 33.8509 29.9215 33.8545 30.2915Z" fill="#BDD744"/>
<path fill-rule="evenodd" clip-rule="evenodd" d="M35.204 26.957C35.2028 27.1858 35.1821 27.4876 34.9387 27.5022C34.6515 27.5192 34.66 27.1699 34.6576 26.9789C34.6552 26.7659 34.6308 26.3984 34.9472 26.4057C35.1772 26.4118 35.2064 26.7258 35.204 26.957Z" fill="#80BF44"/>
<path fill-rule="evenodd" clip-rule="evenodd" d="M33.6043 27.0203C33.5654 27.2308 33.5605 27.5387 33.2965 27.5314C33.0324 27.5241 33.0312 27.1968 33.0154 26.9935C32.9983 26.7854 33.0324 26.4739 33.3086 26.4836C33.5715 26.4946 33.5751 26.7927 33.6043 27.0203Z" fill="#80BF44"/>
<path fill-rule="evenodd" clip-rule="evenodd" d="M38.4209 25.947C38.3856 26.1551 38.5 26.5007 38.1483 26.5055C37.8952 26.5092 37.9171 26.2123 37.9244 26.0139C37.9329 25.7851 37.8355 25.4358 38.1592 25.4103C38.4525 25.3884 38.4014 25.717 38.4209 25.947Z" fill="#80BF44"/>
<path fill-rule="evenodd" clip-rule="evenodd" d="M39.7415 24.6557C39.9435 24.8322 40.0493 25.0549 40.0007 25.3068C39.9654 25.4905 39.924 25.8057 39.694 25.7522C39.4506 25.695 39.3813 25.3859 39.4239 25.134C39.4543 24.9478 39.4944 24.7299 39.7415 24.6557Z" fill="#80BF44"/>
<path fill-rule="evenodd" clip-rule="evenodd" d="M36.7098 26.5578C36.6575 26.7355 36.7804 27.0385 36.4871 27.0458C36.1841 27.0531 36.1987 26.7635 36.1975 26.5396C36.1963 26.3193 36.1683 26.0138 36.4604 26.0199C36.7695 26.0248 36.6672 26.3522 36.7098 26.5578Z" fill="#80BF44"/>
<path fill-rule="evenodd" clip-rule="evenodd" d="M38.8044 30.6492C38.802 29.5028 38.7995 28.3565 38.7959 27.2101C39.0393 27.6737 38.9066 28.1739 38.8981 28.651C38.8859 29.3166 39.0405 29.9933 38.8044 30.6492Z" fill="#E5E984"/>
<path fill-rule="evenodd" clip-rule="evenodd" d="M40.287 28.7971C40.2773 28.0194 40.2675 27.2406 40.2578 26.463C40.5012 27.2382 40.4379 28.017 40.287 28.7971Z" fill="#DDE681"/>
<path fill-rule="evenodd" clip-rule="evenodd" d="M35.4701 29.9081C35.4592 29.212 35.4482 28.5159 35.4385 27.821C35.6916 28.5123 35.6161 29.2096 35.4701 29.9081Z" fill="#E5E984"/>
<path fill-rule="evenodd" clip-rule="evenodd" d="M32.8601 28.1898C32.8577 28.8457 32.854 29.5004 32.8491 30.1564C32.669 29.5004 32.6544 28.8445 32.8601 28.1898Z" fill="#E5E984"/>
<path fill-rule="evenodd" clip-rule="evenodd" d="M37.8137 26.9557C37.8064 27.5691 37.7979 28.1837 37.7894 28.7982C37.6263 28.1824 37.5667 27.5667 37.8137 26.9557Z" fill="#E5E984"/>
<path fill-rule="evenodd" clip-rule="evenodd" d="M10.376 31.6423C10.3152 31.6448 10.2543 31.6484 10.1947 31.6496C9.39645 31.6606 9.39767 31.6606 9.39524 30.8793C9.39402 30.3122 9.39037 29.7451 9.38672 29.178C10.2166 28.875 10.3773 28.976 10.3773 29.7974C10.3785 30.4132 10.3773 31.0278 10.376 31.6423Z" fill="#BED747"/>
<path fill-rule="evenodd" clip-rule="evenodd" d="M14.4608 26.9545C14.4487 27.2052 14.4292 27.5095 14.1883 27.5241C13.8597 27.5448 13.9035 27.1821 13.8731 26.9692C13.8475 26.7817 13.8999 26.4994 14.1311 26.4848C14.428 26.4665 14.4097 26.7684 14.4608 26.9545Z" fill="#80BF44"/>
<path fill-rule="evenodd" clip-rule="evenodd" d="M8.75742 28.2141C8.6114 28.4161 8.75864 28.7873 8.44225 28.7714C8.11491 28.7556 8.16967 28.427 8.1648 28.1897C8.16115 27.9792 8.18306 27.7236 8.43738 27.7224C8.76594 27.7224 8.61261 28.0765 8.75742 28.2141Z" fill="#80BF44"/>
<path fill-rule="evenodd" clip-rule="evenodd" d="M11.5015 27.5704C11.4638 27.7748 11.5769 28.135 11.224 28.1204C10.9502 28.1095 11.0026 27.7785 11.0038 27.5606C11.005 27.3452 10.9527 27.0252 11.2447 27.0203C11.5368 27.0166 11.4832 27.3355 11.5015 27.5704Z" fill="#80BF44"/>
<path fill-rule="evenodd" clip-rule="evenodd" d="M16.0667 26.3767C16.0411 26.6031 16.0399 26.9 15.7819 26.9171C15.485 26.9378 15.4984 26.5982 15.4887 26.4108C15.4789 26.2161 15.4875 25.8875 15.7552 25.8754C16.0326 25.8632 16.0265 26.1674 16.0667 26.3767Z" fill="#80BF44"/>
<path fill-rule="evenodd" clip-rule="evenodd" d="M12.4717 27.3099C12.4936 27.0653 12.4473 26.7635 12.6992 26.7647C13.0436 26.7659 12.9645 27.103 12.9742 27.3343C12.9815 27.5411 12.9743 27.8089 12.7078 27.7979C12.3585 27.7833 12.5508 27.4474 12.4717 27.3099Z" fill="#80BF44"/>
<path fill-rule="evenodd" clip-rule="evenodd" d="M9.62207 27.7444C9.65979 27.5473 9.59895 27.2369 9.86666 27.2637C10.166 27.2929 10.1332 27.6142 10.1332 27.8527C10.1332 28.0645 10.0942 28.3225 9.83746 28.2872C9.52594 28.247 9.67561 27.9318 9.62207 27.7444Z" fill="#80BF44"/>
<path fill-rule="evenodd" clip-rule="evenodd" d="M24.3333 17.8248C23.5728 17.8248 22.811 17.8005 22.0517 17.8334C21.6063 17.8528 21.4785 17.6849 21.5041 17.265C21.5345 16.7734 21.5248 16.2781 21.5065 15.7852C21.4956 15.4664 21.6124 15.3508 21.9349 15.3532C23.5375 15.3641 25.1413 15.3641 26.7452 15.3532C27.0749 15.3508 27.1747 15.4834 27.1662 15.7937C27.1504 16.3073 27.1431 16.8233 27.1674 17.3356C27.1857 17.7104 27.0543 17.8431 26.6758 17.8321C25.897 17.809 25.1158 17.8248 24.3333 17.8248Z" fill="#EAEA69"/>
</svg>
