<svg width="24" height="53" viewBox="0 0 24 53" fill="none" xmlns="http://www.w3.org/2000/svg">
<path fill-rule="evenodd" clip-rule="evenodd" d="M14.8673 9.37122C15.104 9.82491 15.2521 10.2631 14.5652 10.4688C14.0118 10.6351 14.2994 11.0493 14.3299 11.3213C14.6552 14.3421 15.0197 17.3588 15.3596 20.3796C15.7357 23.7373 16.0959 27.0977 16.4633 30.4567C16.3922 30.3976 16.3123 30.3454 16.2513 30.2778C14.9166 28.7913 14.7322 28.7969 13.5384 30.3567C13.4469 30.4751 13.3075 30.5582 13.1898 30.6568C12.3693 30.9654 11.5109 30.7597 10.6715 30.8203C10.5219 29.9622 9.86402 29.431 9.13786 29.2337C8.44075 29.0421 8.17351 29.8495 7.79591 30.3116C7.74217 30.3778 7.64779 30.4145 7.57227 30.4652C7.93244 26.4834 8.28974 22.503 8.65281 18.5212C8.86776 16.1442 9.10157 13.7701 9.31506 11.3931C9.35282 10.9817 9.47479 10.5675 8.93598 10.2772C8.52498 10.056 8.84015 9.67697 8.95198 9.37122C10.9228 9.37122 12.8936 9.37122 14.8673 9.37122ZM10.1196 19.8231C9.96422 19.8696 9.7711 19.9415 9.76093 20.1584C9.75077 20.4261 9.94826 20.5389 10.1966 20.5375C10.4072 20.536 10.5771 20.4191 10.5902 20.212C10.6091 19.9386 10.4014 19.8513 10.1196 19.8231ZM14.2718 20.1739C14.221 20.026 14.1338 19.871 13.916 19.8386C13.6618 19.8006 13.4614 19.8992 13.4178 20.1486C13.3815 20.3599 13.5428 20.491 13.7475 20.529C14.0046 20.5769 14.1716 20.4571 14.2718 20.1739Z" fill="#7EBE44"/>
<path fill-rule="evenodd" clip-rule="evenodd" d="M16.7797 33.7948C16.6809 35.4673 16.2975 37.1045 16.3179 38.8038C16.3309 39.9564 16.8335 40.9258 17.0164 41.9966C16.8814 41.998 16.7448 41.9994 16.6098 42.0009C16.4486 41.7994 16.2162 41.8261 15.9925 41.8261C13.3334 41.8261 10.6756 41.8261 8.01643 41.8261C7.79422 41.8261 7.56187 41.798 7.39921 42.0009C7.25979 41.998 7.12037 41.9938 6.97949 41.9896C7.59237 40.296 7.70856 38.5516 7.66935 36.7678C7.65483 36.1211 7.30191 35.6068 7.26124 35.0023C7.2322 34.605 7.22636 34.202 7.37014 33.8173C10.5057 33.8103 13.6427 33.8018 16.7797 33.7948ZM9.57768 35.356C9.22332 35.8491 8.72951 36.2408 8.71644 36.8791C8.69756 37.8992 8.71064 38.9208 8.71209 39.9409C8.71209 40.1987 8.7426 40.4073 9.07663 40.4946C10.0657 40.7539 10.4883 40.4622 10.4912 39.4745C10.4941 38.825 10.4433 38.1712 10.5043 37.5273C10.587 36.6452 10.2298 35.9788 9.57768 35.356ZM14.212 35.3884C13.5832 35.9731 13.2361 36.6368 13.3101 37.516C13.3726 38.2529 13.3494 39.0011 13.3159 39.7422C13.2898 40.2847 13.4641 40.4791 14.061 40.5214C14.9164 40.5806 15.2112 40.31 15.1197 39.4872C15.0515 38.8757 15.0602 38.2473 15.1168 37.6329C15.2025 36.7312 14.9077 36.0055 14.212 35.3884Z" fill="#EAEA6D"/>
<path fill-rule="evenodd" clip-rule="evenodd" d="M5.65799 47.2619C4.9115 46.8815 4.51503 46.3038 4.63993 45.4711C4.75612 44.6835 5.2615 44.2298 6.05156 44.0593C9.89438 44.0579 13.7401 44.0579 17.5829 44.0565C18.3643 44.2369 18.874 44.6877 18.9873 45.4753C19.1064 46.3066 18.7128 46.8843 17.9692 47.2633C13.8635 47.5028 9.76222 47.5014 5.65799 47.2619Z" fill="#7EBE44"/>
<path fill-rule="evenodd" clip-rule="evenodd" d="M21.6874 50.3351C22.1667 50.3365 22.6488 50.3125 23.1281 50.3449C23.6945 50.383 24.0068 50.7269 24.0053 51.2653C24.0039 51.7586 23.7032 52.08 23.192 52.1603C22.9117 52.204 22.6183 52.1998 22.3322 52.1998C15.4439 52.2012 8.55563 52.2012 1.66731 52.1998C1.41171 52.1998 1.15317 52.211 0.900469 52.1786C0.352948 52.1096 0.00294728 51.7995 4.26531e-05 51.2597C-0.00431428 50.7227 0.325353 50.3745 0.881589 50.3351C1.42185 50.297 1.9679 50.3322 2.51252 50.3351C2.86107 50.3562 3.20964 50.3957 3.55964 50.3957C9.25271 50.3999 14.9458 50.3999 20.6389 50.3957C20.9889 50.3971 21.3388 50.3562 21.6874 50.3351Z" fill="#83C048"/>
<path fill-rule="evenodd" clip-rule="evenodd" d="M5.65851 47.262C9.76275 47.5016 13.8641 47.503 17.9698 47.262C18.1411 47.4508 18.3749 47.3832 18.5884 47.3973C19.7764 47.4692 20.0814 48.0696 19.4439 49.0886C14.3622 49.0886 9.28057 49.0886 4.19893 49.0872C3.56427 48.071 3.86635 47.472 5.04418 47.3973C5.25476 47.3832 5.48859 47.4494 5.65851 47.262Z" fill="#EDEB6B"/>
<path fill-rule="evenodd" clip-rule="evenodd" d="M17.5828 44.0559C13.7399 44.0573 9.89422 44.0573 6.0514 44.0587C5.93086 43.7796 5.75803 43.509 5.70139 43.2186C5.5489 42.4335 5.98897 42.0276 6.9809 41.9895C7.12177 41.9923 7.2612 41.9966 7.40062 42.0008C10.4694 42.0008 13.5424 42.0008 16.6112 42.0008C16.7477 41.9994 16.8842 41.998 17.0178 41.9966C18.0678 42.2475 18.229 42.8409 17.5828 44.0559Z" fill="#BCD644"/>
<path fill-rule="evenodd" clip-rule="evenodd" d="M19.5397 49.24C19.9783 49.24 20.4169 49.2471 20.8526 49.2372C21.5933 49.2189 21.8199 49.5445 21.5613 50.2085C15.2525 50.2085 8.9465 50.2085 2.6391 50.2085C2.4837 49.2372 2.48515 49.2358 4.08414 49.24C9.23841 49.24 14.3884 49.24 19.5397 49.24Z" fill="#BCD644"/>
<path fill-rule="evenodd" clip-rule="evenodd" d="M17.3924 31.5335C16.887 31.9211 16.5588 32.3905 16.6489 33.0529C16.569 33.0614 16.4935 33.0698 16.4136 33.0797C13.4102 33.0797 10.4054 33.0797 7.40198 33.0783C7.33372 33.0727 7.26548 33.067 7.19868 33.06C7.11444 32.4215 6.76441 31.9239 6.31274 31.4813C6.30258 31.4714 6.31858 31.4235 6.33601 31.4066C6.35634 31.3855 6.39118 31.3784 6.42022 31.3657C6.55238 31.3671 6.68602 31.3685 6.81818 31.3714C10.2761 31.3714 13.7341 31.3714 17.192 31.3714C17.2428 31.3798 17.2966 31.3855 17.3489 31.3869C17.3663 31.4348 17.3823 31.4827 17.3924 31.5335Z" fill="#7DBD43"/>
<path fill-rule="evenodd" clip-rule="evenodd" d="M14.8671 9.37179C12.8949 9.37179 10.9226 9.37179 8.95036 9.37179C8.49724 9.38871 8.06446 9.32105 8.10077 8.76563C8.13417 8.28634 8.55244 8.24686 8.95909 8.24827C9.24374 8.24827 9.52836 8.21444 9.81156 8.1947C11.2595 8.20457 12.7075 8.21444 14.154 8.22431C14.3719 8.23277 14.5911 8.2525 14.809 8.24968C15.2331 8.24545 15.6891 8.25533 15.7167 8.78819C15.7443 9.32951 15.3042 9.3873 14.8671 9.37179Z" fill="#BCD644"/>
<path fill-rule="evenodd" clip-rule="evenodd" d="M11.167 7.29719C11.3398 4.92585 11.5925 2.56437 12.1052 0C12.6324 2.56578 12.7384 4.94557 12.9417 7.31409C12.3507 7.30845 11.7595 7.30282 11.167 7.29719Z" fill="#BFD84A"/>
<path fill-rule="evenodd" clip-rule="evenodd" d="M7.19955 33.0594C7.26636 33.0651 7.33459 33.0721 7.40285 33.0777C10.4062 33.3471 13.4111 33.3457 16.4145 33.0792C16.4943 33.0707 16.5698 33.0622 16.6497 33.0524C16.7122 33.058 16.7761 33.058 16.8371 33.0721C17.1362 33.1454 17.6562 32.9621 17.6199 33.4698C17.5865 33.945 17.0898 33.7448 16.7804 33.7956C13.6434 33.8026 10.5064 33.8111 7.3709 33.8181C7.3099 33.8125 7.24746 33.8111 7.18501 33.7998C6.88293 33.7434 6.38337 33.9366 6.38772 33.4374C6.39353 32.9565 6.90328 33.1497 7.19955 33.0594Z" fill="#C0D84D"/>
<path fill-rule="evenodd" clip-rule="evenodd" d="M17.3489 31.3876C17.2966 31.3862 17.2429 31.3805 17.192 31.3721C17.0018 31.1422 16.7346 31.1958 16.4862 31.1958C13.4988 31.193 10.5129 31.193 7.52549 31.1958C7.27859 31.1958 7.00988 31.1408 6.81963 31.3721C6.68602 31.3707 6.55242 31.3692 6.42172 31.3664C6.24744 30.454 6.95037 30.7276 7.4122 30.6782C8.48546 30.9885 9.5863 30.7431 10.6712 30.822C11.5106 30.7614 12.3689 30.9673 13.1895 30.6584C14.3252 30.9278 15.4638 30.9067 16.6053 30.674C17.0221 30.7685 17.818 30.3933 17.5232 31.3721C17.4637 31.3707 17.4055 31.3763 17.3489 31.3876Z" fill="#BCD644"/>
<path fill-rule="evenodd" clip-rule="evenodd" d="M16.6034 30.6731C15.4633 30.9071 14.3247 30.9283 13.1875 30.6576C13.3051 30.5589 13.446 30.4757 13.5361 30.3573C14.7299 28.7967 14.9143 28.7911 16.249 30.2784C16.31 30.346 16.3913 30.3982 16.461 30.4574C16.509 30.5293 16.5569 30.6012 16.6034 30.6731Z" fill="#E4E771"/>
<path fill-rule="evenodd" clip-rule="evenodd" d="M10.6692 30.8203C9.58429 30.7429 8.48341 30.9866 7.41016 30.6766C7.46389 30.6062 7.51765 30.5343 7.56993 30.4639C7.64691 30.4131 7.73984 30.3765 7.79358 30.3103C8.17118 29.8481 8.43696 29.0422 9.13552 29.2324C9.86168 29.4311 10.5196 29.9623 10.6692 30.8203Z" fill="#E4E771"/>
<path fill-rule="evenodd" clip-rule="evenodd" d="M2.64003 50.2083C8.94888 50.2083 15.2548 50.2083 21.5622 50.2083C21.6218 50.2338 21.6639 50.2763 21.6871 50.3358C21.3385 50.357 20.99 50.3967 20.64 50.3967C14.9469 50.401 9.25387 50.401 3.5608 50.3967C3.21225 50.3967 2.86368 50.357 2.51367 50.3358C2.53691 50.2763 2.58049 50.2323 2.64003 50.2083Z" fill="#BFD96F"/>
<path fill-rule="evenodd" clip-rule="evenodd" d="M11.1666 7.29716C11.7591 7.30281 12.3502 7.30844 12.9427 7.31409C13.6326 7.26046 13.8766 7.76285 14.154 8.22571C12.7075 8.21583 11.2595 8.20595 9.81152 8.19607C10.1252 7.70075 10.4535 7.22802 11.1666 7.29716Z" fill="#ECEB73"/>
<path fill-rule="evenodd" clip-rule="evenodd" d="M19.5395 49.2412C14.3882 49.2412 9.23678 49.2412 4.08398 49.2412C4.12174 49.1887 4.15954 49.1363 4.19585 49.0852C9.27749 49.0852 14.3591 49.0866 19.4407 49.0866C19.4916 49.1278 19.5235 49.1802 19.5395 49.2412Z" fill="#E9EB8D"/>
<path fill-rule="evenodd" clip-rule="evenodd" d="M17.3496 31.3869C17.4063 31.3755 17.4644 31.3699 17.521 31.3713C17.5718 31.4946 17.5021 31.53 17.3932 31.5356C17.383 31.4832 17.367 31.4351 17.3496 31.3869Z" fill="#C3DA5F"/>
<path fill-rule="evenodd" clip-rule="evenodd" d="M10.1198 19.8231C10.4016 19.8513 10.6093 19.9388 10.5904 20.211C10.5759 20.4184 10.4059 20.5354 10.1968 20.5369C9.94845 20.5383 9.75095 20.4254 9.76112 20.1574C9.77128 19.9416 9.96442 19.8697 10.1198 19.8231Z" fill="#B5D557"/>
<path fill-rule="evenodd" clip-rule="evenodd" d="M14.2722 20.1744C14.172 20.4579 14.0035 20.5778 13.7479 20.5299C13.5431 20.4918 13.3819 20.3606 13.4182 20.149C13.4603 19.8993 13.6622 19.8005 13.9164 19.8386C14.1357 19.8725 14.2214 20.0277 14.2722 20.1744Z" fill="#B5D557"/>
<path fill-rule="evenodd" clip-rule="evenodd" d="M9.57838 35.356C10.2305 35.9787 10.5877 36.6466 10.505 37.5286C10.444 38.1725 10.4948 38.8263 10.4919 39.4759C10.489 40.4636 10.0664 40.7538 9.07733 40.496C8.7433 40.4072 8.7128 40.2001 8.7128 39.9422C8.71134 38.9221 8.69826 37.9006 8.71714 36.8805C8.73021 36.2408 9.22402 35.8491 9.57838 35.356Z" fill="#7EBE44"/>
<path fill-rule="evenodd" clip-rule="evenodd" d="M14.2125 35.3883C14.9082 36.0054 15.203 36.7325 15.1173 37.6342C15.0607 38.2485 15.052 38.8769 15.1202 39.4884C15.2117 40.3112 14.9154 40.5818 14.0615 40.5226C13.4646 40.4803 13.2917 40.2859 13.3164 39.7434C13.3498 39.0023 13.3731 38.2542 13.3106 37.5173C13.2365 36.6367 13.5851 35.9716 14.2125 35.3883Z" fill="#7EBE44"/>
<path fill-rule="evenodd" clip-rule="evenodd" d="M16.61 42.0018C13.5412 42.0018 10.4682 42.0018 7.39941 42.0018C7.56062 41.7978 7.79297 41.8262 8.01663 41.8262C10.6758 41.8262 13.3336 41.8262 15.9927 41.8262C16.2149 41.8276 16.4473 41.7993 16.61 42.0018Z" fill="#EFED85"/>
<path fill-rule="evenodd" clip-rule="evenodd" d="M6.81836 31.371C7.00861 31.1397 7.27728 31.1936 7.52417 31.1936C10.5116 31.1908 13.4975 31.1908 16.4849 31.1936C16.7333 31.1936 17.0005 31.1383 17.1908 31.371C13.7328 31.371 10.2749 31.371 6.81836 31.371Z" fill="#C3DA5F"/>
<path fill-rule="evenodd" clip-rule="evenodd" d="M16.414 33.0789C13.4106 33.3471 10.4057 33.3485 7.40234 33.0775C10.4057 33.0775 13.4106 33.0775 16.414 33.0789Z" fill="#BFD96F"/>
</svg>
