<svg width="55" height="64" viewBox="0 0 55 64" fill="none" xmlns="http://www.w3.org/2000/svg">
<path opacity="0.2" d="M27.6562 63.7457C42.7577 63.7457 54.9998 52.8913 54.9998 39.5016C54.9998 26.112 42.7577 15.2576 27.6562 15.2576C12.5547 15.2576 0.3125 26.112 0.3125 39.5016C0.3125 52.8913 12.5547 63.7457 27.6562 63.7457Z" fill="#84BD41"/>
<path d="M13.6959 50.7706C13.3595 50.4102 13.0471 50.0498 12.7347 49.6654C12.4224 49.2809 12.1341 48.8965 11.8457 48.512C11.5574 48.1276 11.2931 47.7191 11.0528 47.3106C10.8125 46.9022 10.5482 46.4697 10.3079 46.0612L9.53905 44.8358L8.77016 43.6103C8.26557 42.7934 7.76099 41.9524 7.2564 41.1355L7.30446 41.1115C7.88113 41.8803 8.4578 42.6733 9.03446 43.4422L9.87544 44.6195L10.7164 45.7969C11.0047 46.1813 11.2931 46.5898 11.5814 46.9742C11.8697 47.3587 12.1341 47.7672 12.3984 48.1756C12.6386 48.5841 12.9029 49.0166 13.1192 49.4251C13.3595 49.8576 13.5757 50.2901 13.7679 50.7466L13.6959 50.7706ZM14.657 48.4399C14.3927 48.1756 14.1764 47.8873 13.9602 47.599C13.7439 47.3106 13.5517 47.0223 13.3595 46.7099C13.1672 46.3976 12.9991 46.1092 12.8309 45.7729C12.6627 45.4605 12.5185 45.1241 12.3503 44.8117L11.8697 43.8506L11.3892 42.8895C11.0768 42.2408 10.7645 41.616 10.4521 40.9673L10.5002 40.9433C10.8846 41.544 11.2691 42.1446 11.6535 42.7453L12.2302 43.6584L12.8068 44.5715C12.9991 44.8838 13.1913 45.1722 13.3835 45.4605C13.5757 45.7729 13.7439 46.0612 13.9121 46.3976C14.0803 46.7099 14.2245 47.0463 14.3686 47.3827C14.5128 47.7191 14.6329 48.0555 14.7291 48.4159L14.657 48.4399ZM25.2773 27.3435L15.3778 35.0324L10.4521 39.0931H8.91432L6.60765 39.9821L4.46918 39.6938L0 42.409C0 42.409 4.46918 57.4504 9.44294 56.3932L13.5036 53.7501L13.3835 52.2123L15.2817 51.2272L15.8824 50.1219L23.9557 47.8873C23.9557 47.8873 24.6525 48.5601 25.6617 49.1848C26.6709 49.8095 29.0016 50.2901 31.3083 48.8244C33.6149 47.3587 34.2156 45.5566 34.2156 45.5566L35.9937 43.1058L37.7237 40.9192L31.8128 29.8905L25.2773 27.3435Z" fill="white"/>
<path opacity="0.2" d="M9.85086 44.8118L10.6918 45.9891C10.9802 46.3736 11.2685 46.7821 11.5568 47.1665C11.8452 47.5509 12.1095 47.9594 12.3738 48.3679C12.6141 48.7764 12.8784 49.2089 13.0946 49.6173C13.3349 50.0498 13.5512 50.4823 13.7434 50.9389L13.6953 50.9629C13.3589 50.6025 13.0466 50.2421 12.7342 49.8576C12.4218 49.4732 12.1335 49.0887 11.8452 48.7043C11.5568 48.3198 11.2925 47.9114 11.0523 47.5029C10.812 47.0944 10.5477 46.6619 10.3074 46.2534L9.5385 45.028L8.76961 43.8026C8.26503 42.9857 7.76044 42.1447 7.25586 41.3277L7.30392 41.3037C7.88058 42.0726 8.45725 42.8655 9.03392 43.6344L9.85086 44.8118Z" fill="#84BD41"/>
<path opacity="0.2" d="M11.3892 43.1298C11.0769 42.4811 10.7645 41.8564 10.4521 41.2076L10.5002 41.1836C10.8847 41.7843 11.2691 42.385 11.6535 42.9857L12.2302 43.8987L12.8069 44.8118C12.9991 45.1242 13.1913 45.4125 13.3835 45.7008C13.5758 46.0132 13.744 46.3015 13.9122 46.6379C14.0804 46.9503 14.2245 47.2867 14.3687 47.6231C14.5129 47.9594 14.633 48.2958 14.7291 48.6562L14.681 48.6803C14.4167 48.416 14.2005 48.1276 13.9842 47.8393C13.768 47.551 13.5758 47.2626 13.3835 46.9503C13.1913 46.6379 13.0231 46.3496 12.8549 46.0132C12.6867 45.7008 12.5426 45.3644 12.3744 45.0521L11.8938 44.091L11.3892 43.1298Z" fill="#84BD41"/>
<path opacity="0.2" d="M23.9073 47.7673L23.9314 47.9115C23.2346 48.1277 22.5377 48.344 21.8409 48.5843C21.1441 48.8005 20.4473 49.0408 19.7505 49.2811C19.4141 49.4012 19.0537 49.5214 18.7173 49.6415C18.3809 49.7616 18.0205 49.8818 17.6841 50.0019C17.5159 50.074 17.3477 50.1221 17.1795 50.1941L16.9393 50.2903L16.699 50.3864L16.4587 50.4825C16.3866 50.5065 16.2905 50.5546 16.2184 50.6026L16.1944 50.6266C16.1944 50.6507 16.2184 50.6747 16.2184 50.7228C16.2425 50.8429 16.2665 50.9871 16.2184 51.1793C16.1704 51.3715 16.0502 51.5397 15.9061 51.6358C15.7619 51.7319 15.6418 51.78 15.5456 51.804C15.4976 51.828 15.4255 51.828 15.3775 51.828H15.3294H15.3054H15.2573L15.1852 51.8521L15.0891 51.8761C15.0411 51.9001 14.969 51.9001 14.9209 51.9241C14.6806 51.9962 14.4404 52.1164 14.2001 52.2365C14.152 52.2605 14.08 52.3086 14.0319 52.3326C14.08 52.4287 14.128 52.5489 14.1761 52.645C14.2481 52.8132 14.2962 52.9814 14.3202 53.1736C14.3443 53.3658 14.3443 53.558 14.3202 53.7743C14.2962 53.9905 14.2241 54.1828 14.104 54.375C14.0079 54.5672 13.8637 54.7114 13.7195 54.8555C13.4312 55.0958 13.1429 55.264 12.8545 55.3601C12.6383 55.4803 12.422 55.6004 12.2058 55.7205C11.9655 55.8407 11.7252 55.9608 11.4609 56.081C10.9563 56.3212 10.4758 56.5375 9.97119 56.7537C9.65883 56.8979 9.32244 57.018 8.98605 57.1622C8.7698 56.97 8.55355 56.7778 8.36133 56.5855C8.72175 56.3212 9.08216 56.081 9.46661 55.8167C9.92314 55.5043 10.3797 55.216 10.8362 54.9276L12.1818 54.0867L12.2538 54.0386L12.3259 54.0146C12.5181 53.9425 12.6863 53.8464 12.8065 53.7503C12.9266 53.6542 12.9747 53.5821 12.9987 53.486C13.0227 53.3898 13.0468 53.2217 12.9747 53.0294C12.9506 52.9333 12.9266 52.8372 12.8786 52.7411C12.8545 52.693 12.8305 52.645 12.8065 52.5969L12.7584 52.5248L12.7344 52.5008L12.7104 52.4768L12.8545 51.6118C12.9266 51.5637 12.9987 51.5397 13.0708 51.4916C13.1429 51.4676 13.2149 51.4196 13.287 51.3955C13.4312 51.3235 13.5754 51.2514 13.7195 51.2033C14.0079 51.0832 14.2962 50.963 14.6086 50.8909C14.6806 50.8669 14.7768 50.8429 14.8488 50.8429L14.969 50.8189L15.1131 50.7948H15.1852C15.1852 50.7948 15.1852 50.7708 15.1612 50.7708L15.1372 50.7468V50.7228L15.2573 50.026L15.5456 49.8818L15.6177 49.8578L15.6898 49.8337L15.834 49.7857C15.9301 49.7616 16.0262 49.7136 16.0983 49.6896L16.3626 49.5934L16.6269 49.4973L16.8912 49.4253C17.0594 49.3772 17.2516 49.3291 17.4198 49.2811C18.1407 49.0889 18.8375 48.8966 19.5583 48.7284C21.048 48.344 22.4897 48.0557 23.9073 47.7673Z" fill="#84BD41"/>
<path d="M24.6051 2.81144C24.5331 2.83547 24.461 2.88353 24.437 2.97964C24.4129 3.05172 24.3889 3.14783 24.3649 3.21992C24.3408 3.38811 24.3649 3.58033 24.3649 3.74853C24.4129 4.10895 24.485 4.44534 24.5811 4.80575C24.7733 5.50256 25.0136 6.19937 25.2539 6.87215C25.326 7.04034 25.374 7.20854 25.4461 7.40076L25.5422 7.66506L25.6143 7.92937L25.6864 8.19368L25.7585 8.45798C25.8065 8.62618 25.8546 8.8184 25.8786 8.9866C26.0468 9.70743 26.167 10.4283 26.3111 11.1491C26.4313 11.8699 26.5754 12.5908 26.6956 13.3116C26.8157 14.0324 26.9118 14.7533 26.9599 15.4741C27.0079 16.1949 27.056 16.9398 27.08 17.6606C27.104 18.3815 27.104 19.1263 27.056 19.8712H26.9839C26.7917 19.1504 26.6475 18.4536 26.5033 17.7327C26.3592 17.0119 26.239 16.2911 26.1429 15.5702C26.0228 14.8494 25.9507 14.1286 25.8786 13.4077C25.8065 12.6869 25.7345 11.966 25.6624 11.2452C25.5663 10.5244 25.4702 9.80354 25.35 9.08271C25.326 8.91451 25.302 8.72229 25.2539 8.55409L25.2058 8.28979L25.1578 8.02548L25.1097 7.76118L25.0377 7.49687C24.9896 7.32867 24.9415 7.16048 24.8935 6.96826C24.6772 6.27145 24.485 5.55061 24.3649 4.82978C24.2928 4.46936 24.2447 4.10895 24.2207 3.7245C24.2207 3.53228 24.2207 3.34005 24.2447 3.17186C24.2688 3.07575 24.2928 2.97964 24.3408 2.90755C24.3889 2.81144 24.485 2.73936 24.5811 2.71533L24.6051 2.81144Z" fill="#84BD41"/>
<path d="M26.7193 2.73901C27.9448 2.83512 29.1462 2.95526 30.3716 3.09943C31.573 3.2436 32.7984 3.43582 33.9998 3.65207C35.2012 3.86832 36.4026 4.13263 37.6039 4.44499C38.2046 4.61318 38.7813 4.80541 39.382 5.02166C39.9587 5.23791 40.5353 5.50221 41.088 5.8386C41.3523 6.0068 41.6406 6.19902 41.8809 6.4393C41.953 6.48736 42.001 6.55944 42.0491 6.63152C42.0731 6.65555 42.0971 6.70361 42.1212 6.72763C42.1452 6.77569 42.1692 6.79972 42.1933 6.84777L42.2653 6.96791L42.3134 7.06402L42.4095 7.28027C42.6978 7.83291 42.9622 8.38555 43.2024 8.96222C43.683 10.0915 44.0915 11.2689 44.4279 12.4463C44.4999 12.7346 44.596 13.047 44.6441 13.3353C44.7162 13.6476 44.7883 13.936 44.8363 14.2483C44.8844 14.5607 44.9565 14.849 45.0045 15.1614L45.0766 15.6179C45.1006 15.7621 45.1006 15.9303 45.1247 16.0745L45.1727 16.531C45.1967 16.6752 45.1967 16.8433 45.1967 16.9875L45.2208 17.444V17.9006C45.2208 18.5253 45.1487 19.15 45.0526 19.7507H44.9805C44.9805 18.5253 44.8123 17.3239 44.572 16.1465C44.524 15.8582 44.4519 15.5699 44.3798 15.2575C44.3077 14.9692 44.2356 14.6808 44.1635 14.3925C44.0194 13.8158 43.8512 13.2392 43.659 12.6625C43.2985 11.5092 42.9141 10.3799 42.4816 9.25056C42.2653 8.69792 42.0491 8.12125 41.7848 7.59263L41.6887 7.37638L41.6406 7.28027L41.5926 7.20819C41.5685 7.18416 41.5685 7.16013 41.5445 7.13611C41.5205 7.11208 41.5205 7.08805 41.4965 7.06402C41.4484 7.01597 41.4244 6.96791 41.3763 6.91986C41.2081 6.72763 40.9678 6.55944 40.7276 6.39124C40.247 6.07888 39.6944 5.81458 39.1417 5.59833C38.5891 5.38208 38.0124 5.16582 37.4358 4.99763C36.2824 4.63721 35.1051 4.34888 33.9037 4.08457C31.5249 3.55596 29.1221 3.17151 26.6953 2.85915L26.7193 2.73901Z" fill="#84BD41"/>
<path d="M26.6709 2.25864C26.6949 2.16253 26.719 2.06642 26.743 1.97031C26.767 1.92225 26.791 1.8742 26.8151 1.85017C26.8391 1.80211 26.8631 1.77808 26.9112 1.73003C27.0313 1.58586 27.1995 1.46572 27.3677 1.39364C27.4638 1.34558 27.5599 1.32156 27.632 1.29753C27.6801 1.29753 27.7281 1.2735 27.7762 1.2735C27.8242 1.2735 27.8723 1.24947 27.9203 1.24947C28.1126 1.22544 28.3048 1.22544 28.473 1.22544C29.2178 1.22544 29.9387 1.20142 30.6835 1.20142C32.1492 1.20142 33.639 1.22544 35.1047 1.2735C36.5704 1.34558 38.0601 1.41767 39.5258 1.58586C40.2706 1.65794 40.9915 1.75406 41.7363 1.87419C42.0968 1.94628 42.4812 2.01836 42.8416 2.09044C43.202 2.18656 43.5865 2.28267 43.9469 2.40281C44.3073 2.54697 44.6677 2.69114 45.0282 3.0035C45.1243 3.07559 45.1964 3.1717 45.2684 3.29184L45.3165 3.38795C45.3405 3.41198 45.3405 3.46003 45.3645 3.48406C45.3886 3.50809 45.3886 3.55614 45.3886 3.58017C45.3886 3.6042 45.4126 3.65225 45.4126 3.70031V3.74837C45.4126 3.77239 45.4126 3.77239 45.4126 3.79642V3.8685V4.01267C45.4126 4.10878 45.4366 4.20489 45.4366 4.30101C45.4847 5.04587 45.5087 5.79073 45.5087 6.51157C45.5568 7.97726 45.5568 9.46699 45.5327 10.9327L45.4847 13.1432C45.4607 13.8881 45.4366 14.6089 45.3886 15.3538C45.3165 16.8195 45.2444 18.3092 45.1002 19.7749H45.0282C44.932 18.3092 44.86 16.8195 44.8119 15.3538C44.7879 14.6089 44.7639 13.8881 44.7398 13.1432L44.6918 10.9327C44.6677 9.46699 44.6677 7.97726 44.6918 6.51157C44.6918 5.7667 44.7158 5.04587 44.6918 4.30101C44.6918 4.20489 44.6918 4.10878 44.6918 4.0367V3.89253V3.82045V3.79642V3.77239C44.6918 3.70031 44.6437 3.6042 44.5476 3.50809C44.4515 3.41198 44.3073 3.31586 44.1632 3.24378C44.019 3.1717 43.8508 3.09961 43.7066 3.02753C43.3943 2.90739 43.0338 2.78725 42.6975 2.69114C42.3611 2.59503 42.0006 2.52295 41.6402 2.45086C40.9194 2.3067 40.1986 2.18656 39.4777 2.09044C38.012 1.89822 36.5463 1.77808 35.0806 1.65795C33.6149 1.56183 32.1492 1.46572 30.6595 1.41767C29.9147 1.39364 29.1938 1.36961 28.449 1.34558C28.0885 1.34558 27.7041 1.29753 27.3917 1.44169C27.2235 1.51378 27.0794 1.60989 26.9592 1.73003C26.9352 1.75406 26.9112 1.80211 26.8871 1.82614C26.8631 1.87419 26.8391 1.89822 26.8151 1.94628C26.767 2.01836 26.743 2.11447 26.719 2.18656L26.6709 2.25864Z" fill="#84BD41"/>
<path d="M30.7803 0.865001C30.8764 0.504584 31.1647 0.192222 31.5251 0.0720833C31.6933 -1.86182e-07 31.8856 0 32.0778 0C32.1739 0 32.27 -3.66994e-07 32.3421 0.0240275L32.6064 0.0480558C33.3272 0.0961115 34.024 0.168195 34.7449 0.216251C36.1625 0.33639 37.6042 0.504584 39.0218 0.672779C40.4395 0.865002 41.8571 1.08125 43.2747 1.36959C43.9715 1.51375 44.6924 1.68195 45.3892 1.87417C45.7496 1.97028 46.086 2.09042 46.4224 2.21056C46.7588 2.35473 47.1192 2.49889 47.4556 2.69112C47.6238 2.78723 47.792 2.90737 47.9361 3.07556C48.0082 3.14765 48.0803 3.24376 48.1524 3.3639C48.2245 3.46001 48.2725 3.60417 48.2966 3.74834C48.2966 3.82042 48.2966 3.89251 48.2966 3.94056V4.08473L48.2725 4.37306C48.2485 4.56529 48.2485 4.73348 48.2245 4.9257C48.1524 5.64654 48.0803 6.36737 47.9842 7.06418C47.816 8.48182 47.5998 9.89947 47.3595 11.3171C46.8789 14.1524 46.3503 16.9636 45.8457 19.7749H45.7736C45.7977 18.3332 45.9178 16.9156 46.062 15.4739C46.1341 14.7531 46.2061 14.0563 46.3023 13.3354C46.3743 12.6146 46.4704 11.9178 46.5666 11.197C46.7588 9.77933 46.975 8.36168 47.1913 6.94404C47.3114 6.24724 47.4075 5.5264 47.5036 4.82959C47.5277 4.6614 47.5517 4.46918 47.5757 4.30098L47.5998 4.03668C47.5998 3.96459 47.6238 3.84445 47.5998 3.84445C47.5998 3.77237 47.5517 3.67626 47.4556 3.58015C47.3595 3.48404 47.2393 3.38792 47.0952 3.29181C46.8309 3.12362 46.5185 2.95542 46.2061 2.83528C45.8938 2.69112 45.5574 2.59501 45.221 2.47487C44.5482 2.25862 43.8754 2.06639 43.1786 1.92223C41.785 1.58584 40.3914 1.34556 38.9738 1.10528C37.5561 0.865001 36.1385 0.672779 34.7208 0.480557C34 0.384445 33.3032 0.312362 32.5824 0.216251L32.3181 0.192222C32.2219 0.192222 32.1499 0.168195 32.0537 0.168195C31.8856 0.168195 31.7174 0.168195 31.5492 0.216251C31.381 0.264306 31.2368 0.33639 31.1167 0.456529C30.9965 0.576668 30.9004 0.720835 30.8524 0.88903L30.7803 0.865001Z" fill="#84BD41"/>
<path d="M50.1451 25.9745L50.097 26.7194L50.049 27.4402L50.0249 27.8727L49.6885 33.8557L49.6405 34.7447V34.9369L49.4723 37.8443L48.9677 40.0548L48.8235 40.7036L46.4448 41.7608H46.0363L28.6882 41.8089H28.6642L25.012 41.3043L24.2431 41.1121L23.6904 39.9827L23.7145 39.0457V38.9015V38.2527V37.58C24.0508 37.5559 24.3632 37.5319 24.6996 37.5079C25.4925 37.4358 26.2614 37.3637 27.0063 37.1955C27.7511 37.0273 28.4479 36.8111 29.0727 36.5227C29.385 36.3786 29.6734 36.1864 29.9377 35.9701C30.0097 35.922 30.0578 35.85 30.1299 35.8019L30.226 35.7058L30.2981 35.6097C30.4182 35.4895 30.4903 35.3694 30.5624 35.2252C30.6825 34.985 30.7066 34.7447 30.6104 34.4804C30.5143 34.2161 30.2981 33.9518 30.0578 33.7115C29.7935 33.4712 29.4811 33.255 29.1688 33.0387C28.8564 32.8225 28.496 32.6543 28.1596 32.462C26.766 31.7652 25.2522 31.2607 23.7145 30.8282V28.8338V28.7377V28.2812V28.1611L23.6904 22.923L24.2671 19.8715L27.0543 19.8474H27.1504L41.471 19.7273L42.9127 19.8715L47.6221 20.352L50.097 23.8361L50.2172 25.6622L50.1451 25.9745Z" fill="#84BD41"/>
<path d="M50.241 33.7832C50.241 33.9754 50.241 34.1436 50.241 34.3358V34.6482V35.2489C50.241 35.5613 50.217 35.8496 50.1929 36.162C50.1689 36.4743 50.1449 36.7867 50.0968 37.099C50.0247 37.7238 49.9046 38.3485 49.6403 38.9492C49.5682 39.0934 49.4961 39.2615 49.424 39.4057L49.2799 39.622L49.2078 39.7181C49.1838 39.7421 49.1597 39.7902 49.1357 39.8142L48.9675 40.0064C48.9675 40.0064 48.9675 40.0304 48.9435 40.0304C48.9195 40.0545 48.8954 40.0785 48.8714 40.1025L48.7753 40.1986C48.7032 40.2467 48.6551 40.3188 48.5831 40.3668L48.3908 40.511C47.8622 40.9195 47.3096 41.2078 46.781 41.4721C46.4926 41.6163 46.2283 41.6884 45.964 41.7364C45.916 41.7364 45.8679 41.7604 45.8199 41.7604C45.5075 41.8085 45.1951 41.8566 44.9068 41.8806C44.3061 41.9527 43.6814 42.0007 43.0807 42.0247C41.8793 42.0968 40.6779 42.0968 39.4765 42.0968C38.6596 42.0968 37.8186 42.0968 37.0016 42.0728C36.9296 42.0728 36.8575 42.0728 36.7854 42.0728C36.4971 42.0728 36.1847 42.0728 35.8964 42.0488C33.4936 42.0007 31.0908 41.9046 28.688 41.7604H28.664H28.64C28.0633 41.7364 27.4866 41.6884 26.91 41.6403C26.6216 41.6163 26.3093 41.5922 26.0209 41.5682C25.7326 41.5442 25.4202 41.4961 25.1079 41.4481C24.9637 41.4241 24.7955 41.376 24.6513 41.3279C24.5072 41.2559 24.363 41.1838 24.2429 41.0636C24.0026 40.8474 23.8344 40.559 23.7623 40.2467C23.7383 40.1506 23.7143 40.0304 23.6902 39.9103C23.6662 39.7181 23.6422 39.5259 23.6662 39.3096C23.6662 39.1414 23.6902 38.9732 23.7143 38.829C23.7383 38.6849 23.7623 38.5647 23.7863 38.4206L23.9305 38.4446C23.8584 38.7329 23.8344 39.0213 23.8344 39.3096C23.8344 39.5979 23.8584 39.8863 23.9545 40.1746C24.0506 40.4389 24.1948 40.7032 24.4111 40.8714C24.5072 40.9675 24.6273 41.0156 24.7715 41.0877C24.8916 41.1357 25.0358 41.1597 25.18 41.1838C25.7566 41.2559 26.3573 41.2799 26.958 41.3279C27.5587 41.352 28.1594 41.376 28.7601 41.4C31.1629 41.4721 33.5657 41.5202 35.9444 41.4961C38.3472 41.4961 40.75 41.4481 43.1047 41.2799C43.7054 41.2318 44.2821 41.1838 44.8828 41.1117C45.1711 41.0636 45.4594 41.0156 45.7478 40.9675C46.0361 40.9195 46.3004 40.8474 46.4926 40.7272C47.0213 40.4389 47.5258 40.1746 47.9583 39.8142C48.3908 39.4778 48.7032 39.0453 48.8954 38.5647C49.0876 38.0602 49.2078 37.5075 49.2558 36.9308C49.2799 36.6425 49.3039 36.3542 49.3279 36.0658C49.352 35.7775 49.352 35.4892 49.352 35.1768V34.8645V34.7203V34.2878C49.352 34.1196 49.352 33.9754 49.352 33.8072C49.4721 33.8072 49.5682 33.8072 49.6883 33.7832C49.7124 33.7832 49.7364 33.7832 49.7845 33.7832C49.8806 33.8313 50.0728 33.8072 50.241 33.7832Z" fill="#212121"/>
<path d="M50.4093 25.9984C50.3852 25.4698 50.3612 24.9171 50.2891 24.3885C50.217 23.7638 50.0969 23.1391 49.9047 22.5143C49.8566 22.3461 49.7845 22.202 49.7365 22.0578C49.6644 21.9136 49.6163 21.7454 49.5202 21.6013C49.4722 21.5292 49.4481 21.4571 49.4001 21.385L49.2559 21.1688C49.2079 21.0967 49.1598 21.0246 49.1118 20.9525L49.0397 20.8564C49.0156 20.8324 48.9676 20.7843 48.9436 20.7603C48.6793 20.472 48.3909 20.2557 48.1026 20.0875C47.9584 19.9914 47.7902 19.9193 47.6461 19.8472C47.574 19.8232 47.5019 19.7752 47.4058 19.7511L47.1655 19.655C46.757 19.5109 46.3486 19.3907 45.9641 19.2946C45.9161 19.2946 45.844 19.2706 45.7959 19.2706C45.6277 19.2465 45.4836 19.1985 45.3154 19.1745C45.2913 19.1745 45.2433 19.1745 45.2192 19.1504H45.1952C45.1472 19.1504 45.0991 19.1264 45.0511 19.1264C45.027 19.1264 45.027 19.1264 45.003 19.1264C43.8737 18.9582 42.7444 18.9102 41.6391 18.9102C41.3508 18.9102 41.0624 18.9102 40.7741 18.9102C40.4377 18.9102 40.1253 18.9342 39.789 18.9582C39.4766 18.9822 39.1883 18.9822 38.8759 19.0303C38.5876 19.0543 38.2992 19.0784 37.9869 19.1024C36.8335 19.1264 35.6802 19.1504 34.5269 19.1745L31.0428 19.2706C29.8895 19.2946 28.7121 19.3427 27.5588 19.3907C27.4146 19.3907 27.2464 19.3907 27.1023 19.4147C27.0302 19.4147 26.9341 19.4147 26.862 19.4147C25.9249 19.4388 25.0118 19.4868 24.0748 19.5109H23.9546L23.8825 19.5589C23.8345 19.5829 23.8345 19.5829 23.8105 19.607C23.7864 19.607 23.7864 19.631 23.7624 19.631C23.7384 19.655 23.6903 19.679 23.6663 19.7031C23.5942 19.7511 23.5461 19.7992 23.4981 19.8713C23.402 19.9914 23.3299 20.1596 23.2818 20.3278C23.2578 20.3999 23.2578 20.496 23.2578 20.5681C23.2578 20.6161 23.2578 20.6402 23.2578 20.6882V20.7363C23.2578 20.8084 23.2818 20.9045 23.2818 21.0006C23.3059 21.385 23.3299 21.7695 23.3299 22.1539L23.402 24.4606C23.426 25.2295 23.45 25.9984 23.4981 26.7673C23.5221 27.2478 23.5461 27.7524 23.5702 28.233C23.5702 28.281 23.5702 28.3531 23.5702 28.4011C23.5702 28.5453 23.5942 28.6895 23.5942 28.8336C23.5942 28.8577 23.5942 28.9057 23.5942 28.9298C23.5942 28.9778 23.5942 29.0259 23.5942 29.0499H23.7384C23.7864 28.281 23.8345 27.5121 23.8825 26.7432C23.9306 25.9743 23.9546 25.2054 24.0027 24.4366C24.0507 23.6677 24.0748 22.8988 24.0988 22.1299C24.1228 21.7454 24.1228 21.361 24.1228 20.9766C24.1228 20.8804 24.1228 20.7843 24.1228 20.6642V20.5681V20.544C24.1228 20.52 24.1228 20.52 24.1228 20.496C24.1228 20.472 24.1468 20.4479 24.1709 20.4479C25.3002 20.472 26.4055 20.496 27.5348 20.496C28.6881 20.52 29.8655 20.52 31.0188 20.544L34.5028 20.5681C35.6562 20.5681 36.8335 20.5681 37.9869 20.5681H38.0109H38.059C38.3473 20.5441 38.6356 20.52 38.924 20.496C39.2123 20.472 39.5247 20.4479 39.813 20.4479C40.4137 20.4239 40.9904 20.3999 41.567 20.3999C42.2398 20.3999 42.8885 20.3999 43.5613 20.4479C44.0659 20.472 44.5705 20.52 45.0511 20.5921C45.6277 20.6642 46.1804 20.7843 46.6849 20.9525C47.1895 21.1207 47.6701 21.361 47.9584 21.6734L48.0065 21.7214L48.0545 21.7935C48.0786 21.8416 48.1266 21.8896 48.1747 21.9377L48.2708 22.1059C48.2948 22.1539 48.3429 22.226 48.3669 22.2741C48.439 22.3942 48.487 22.5143 48.5351 22.6345C48.5831 22.7546 48.6312 22.8747 48.6793 23.0189C48.8474 23.5475 48.9676 24.1002 49.0637 24.6528C49.0637 24.6768 49.0637 24.7009 49.0637 24.7249C49.1598 25.4217 49.2079 26.1425 49.2319 26.8874C49.2319 27.1036 49.2559 27.3199 49.2559 27.5602C49.2559 27.6803 49.2559 27.8005 49.2559 27.9446C49.4722 27.9686 49.6884 27.9686 49.8806 27.9927C49.9047 27.9927 49.9287 27.9927 49.9527 27.9927C50.0008 27.9927 50.0488 27.9927 50.0729 27.9927C50.145 27.9927 50.2411 27.9927 50.3131 28.0167C50.3131 27.8725 50.3131 27.7284 50.3131 27.5842C50.3131 27.3439 50.3131 27.1036 50.3131 26.8393C50.4333 26.4789 50.4333 26.2386 50.4093 25.9984Z" fill="#212121"/>
<path d="M23.6432 28.1607L23.6192 28.1367C22.4658 29.0978 21.3125 30.0589 20.1592 31.0201C19.0058 31.9812 17.8285 32.9183 16.6511 33.8553C15.4737 34.7684 14.2964 35.7055 13.071 36.5705C12.4703 37.003 11.8455 37.4355 11.2208 37.8199C10.9085 38.0122 10.5961 38.2044 10.2837 38.3726L10.0435 38.4927L9.89929 38.5648C9.89929 38.5648 9.89929 38.5648 9.87526 38.5408C9.82721 38.4927 9.77915 38.4687 9.73109 38.4206C9.63498 38.3485 9.49082 38.3005 9.37068 38.2765C9.29859 38.2765 9.25054 38.2524 9.17846 38.2524C9.1304 38.2524 9.05832 38.2524 9.01026 38.2765C8.9622 38.2765 8.91415 38.3005 8.86609 38.3005H8.84207H8.81804L8.76998 38.3245C8.72193 38.3485 8.64984 38.3485 8.62581 38.3726C8.2654 38.5167 7.97706 38.6609 7.6647 38.8051C7.35234 38.9492 7.06401 39.1174 6.77567 39.2856C6.63151 39.3817 6.46331 39.4538 6.31914 39.5499C6.199 39.4538 6.07887 39.3817 5.9347 39.3097C5.59831 39.1655 5.21386 39.1174 4.9015 39.1655C4.58914 39.2135 4.25275 39.3097 4.01247 39.4298C3.89233 39.5019 3.77219 39.5499 3.65205 39.622C3.53192 39.6941 3.4358 39.7662 3.31567 39.8383C2.88316 40.1266 2.47469 40.439 2.09025 40.7754C1.77788 41.0397 1.46552 41.304 1.17719 41.5923C1.1051 41.6644 1.03302 41.7365 0.960938 41.8086L1.03302 41.9287L1.17719 41.8566L2.37858 41.2559C2.83511 41.0397 3.26761 40.8234 3.72414 40.6312C3.94039 40.5351 4.15664 40.463 4.37289 40.3909C4.469 40.3669 4.58914 40.3188 4.66122 40.3188H4.73331H4.80539C4.85345 40.3188 4.9015 40.3188 4.92553 40.3188C5.09372 40.3188 5.23789 40.3669 5.35803 40.439C5.40609 40.463 5.45414 40.5111 5.5022 40.5591C5.52623 40.5831 5.55025 40.6072 5.57428 40.6312C5.57428 40.6552 5.59831 40.6552 5.59831 40.6792L6.46331 40.9676L8.2654 40.1266L8.6979 39.9344C8.84207 39.8623 8.98623 39.8142 9.1304 39.7422C9.15443 39.7422 9.15443 39.7422 9.15443 39.7181L9.85123 40.1026C10.2357 39.9104 10.5961 39.7181 10.9085 39.5019C11.2448 39.2856 11.5572 39.0694 11.8696 38.8291C12.4943 38.3726 13.095 37.892 13.6717 37.4355C14.849 36.4744 16.0024 35.4892 17.1317 34.4801C17.6843 33.9755 18.261 33.4709 18.7896 32.9663C19.3422 32.4617 19.8949 31.9331 20.4475 31.4045C21.5047 30.3953 22.562 29.3621 23.5952 28.3289L23.6192 28.3049C23.6432 28.2809 23.6672 28.2569 23.6672 28.2569L23.6432 28.1607ZM9.1304 39.6941C9.08234 39.6941 9.03429 39.6701 8.98623 39.646C8.9622 39.622 8.9622 39.622 8.93818 39.622C8.93818 39.622 8.93818 39.622 8.91415 39.598L9.1304 39.6941Z" fill="#212121"/>
<path d="M31.741 34.8884C31.741 35.1767 31.6929 35.441 31.5968 35.7053C31.5007 35.9456 31.3806 36.1859 31.2364 36.3541L31.1403 36.4983L31.0202 36.6424C30.9481 36.7385 30.876 36.8346 30.7799 36.9067C30.7078 36.9788 30.6117 37.0749 30.5396 37.147C30.4435 37.2191 30.3714 37.2912 30.2753 37.3633L29.987 37.5555C29.8908 37.6276 29.7947 37.6756 29.6986 37.7477C29.2902 37.964 28.8817 38.1321 28.4492 38.2523C28.0167 38.3724 27.5842 38.4445 27.1517 38.4926C26.7192 38.5406 26.2867 38.5406 25.8782 38.5166C25.4457 38.4926 25.0372 38.4685 24.6288 38.3965C24.3164 38.3484 24.004 38.2763 23.6917 38.2042C23.5956 38.1802 23.4994 38.1562 23.4274 38.1321C23.2351 38.0841 23.0189 38.012 22.8267 37.9399C22.6344 37.8678 22.4422 37.7958 22.25 37.7237L22.274 37.5795C22.7546 37.5555 23.2351 37.5555 23.6917 37.5315C24.0281 37.5074 24.3404 37.4834 24.6768 37.4594C25.4697 37.3873 26.2386 37.3152 26.9835 37.147C27.7283 36.9788 28.4252 36.7626 29.0499 36.4742C29.3622 36.3301 29.6506 36.1378 29.9149 35.9216C29.987 35.8735 30.035 35.8014 30.1071 35.7534L30.2032 35.6573L30.2753 35.5612C30.3954 35.441 30.4675 35.3209 30.5396 35.1767C30.6597 34.9364 30.6838 34.6962 30.5877 34.4319C30.4915 34.1676 30.2753 33.9033 30.035 33.663C29.7707 33.4227 29.4583 33.2064 29.146 32.9902C28.8336 32.7739 28.4732 32.6057 28.1368 32.4135C26.7432 31.7167 25.2295 31.2121 23.6917 30.7796H23.6676L23.5235 30.7316V30.6114C23.5475 29.9627 23.5956 29.338 23.6196 28.6892H23.7638C23.7638 28.7613 23.7638 28.8574 23.7878 28.9295C23.8118 29.4341 23.8599 29.9627 23.8839 30.4673C24.6528 30.5874 25.3976 30.7556 26.1425 30.9478C26.9354 31.14 27.7043 31.3803 28.4972 31.6927C29.2661 32.005 30.035 32.3414 30.7318 32.9181C30.9 33.0623 31.0682 33.2064 31.2364 33.3987C31.4046 33.5909 31.5488 33.7831 31.6449 34.0234C31.6689 34.3117 31.741 34.6001 31.741 34.8884Z" fill="#212121"/>
<path d="M34.7206 44.8119C34.6005 45.4366 34.3602 46.0133 34.0719 46.5659C33.9277 46.8542 33.7595 47.1185 33.5673 47.3828C33.4712 47.527 33.3751 47.6472 33.2789 47.7673C33.1828 47.8874 33.0867 48.0076 32.9666 48.1277C32.7503 48.368 32.5101 48.5842 32.2698 48.8005C32.1496 48.8966 32.0055 49.0167 31.8853 49.0888L31.6931 49.233C31.621 49.281 31.5489 49.3291 31.4769 49.3531C30.9242 49.6895 30.2995 49.9538 29.6748 50.122C29.05 50.3142 28.4013 50.4344 27.7285 50.4824L27.4882 50.5065C27.3921 50.5065 27.32 50.5065 27.2239 50.5065C27.0557 50.5065 26.8635 50.4824 26.6713 50.4584C26.3109 50.4104 25.9264 50.2902 25.59 50.0499L25.4699 49.9538L25.3498 49.8577C25.3017 49.8337 25.2777 49.7856 25.2296 49.7616C25.1816 49.7376 25.1575 49.6895 25.1095 49.6655C24.9653 49.4973 24.8452 49.3291 24.7491 49.1609C24.653 48.9687 24.5809 48.7765 24.5568 48.5842C24.5088 48.392 24.5088 48.1998 24.5088 48.0076C24.5328 47.6231 24.6289 47.2867 24.7971 46.9744C24.8692 46.8302 24.9653 46.686 25.0855 46.5419C25.2056 46.4217 25.3257 46.3016 25.4699 46.2055L25.566 46.3016C25.4699 46.5899 25.3978 46.8783 25.3978 47.1666C25.3738 47.4549 25.4218 47.7192 25.4699 47.9355C25.4939 48.0556 25.542 48.1517 25.59 48.2719C25.6381 48.368 25.7102 48.4641 25.7582 48.5362C25.9024 48.6804 26.0466 48.8005 26.2388 48.8726C26.431 48.9687 26.6473 49.0167 26.8875 49.0648C27.0077 49.0888 27.1278 49.0888 27.272 49.1129C27.3441 49.1129 27.3921 49.1129 27.4642 49.1369H27.6805C28.2571 49.1609 28.8338 49.1609 29.3864 49.0648C29.9391 48.9687 30.4917 48.8005 31.0203 48.5602C31.0924 48.5362 31.1405 48.5122 31.2126 48.4641L31.4048 48.368C31.5249 48.2959 31.6451 48.2238 31.7892 48.1517C32.0295 47.9835 32.2698 47.8154 32.486 47.6472C32.6062 47.551 32.7023 47.4549 32.8224 47.3588C32.9185 47.2627 33.0387 47.1426 33.1348 47.0465C33.327 46.8302 33.5192 46.5899 33.7114 46.3497C33.8796 46.1094 34.0478 45.8451 34.192 45.6048C34.3362 45.3645 34.4563 45.1002 34.5524 44.8359C34.5524 44.8119 34.5764 44.8119 34.5764 44.7878H34.6005L34.7206 44.8119Z" fill="#212121"/>
<path d="M37.147 41.9287C37.123 41.9767 37.0749 42.0488 37.0269 42.0969C36.8106 42.4333 36.5704 42.7456 36.3301 43.058C36.0417 43.4184 35.7294 43.7788 35.369 44.0912C35.1287 44.3315 34.8644 44.5477 34.6001 44.764C34.5761 44.788 34.5761 44.788 34.552 44.788C34.4559 44.8601 34.3598 44.9322 34.2637 45.0043C33.8792 45.2926 33.4467 45.5329 33.0142 45.7491C32.5577 45.9654 32.1012 46.1095 31.5966 46.2297C31.092 46.3258 30.5874 46.3738 30.0588 46.3498C29.7945 46.3498 29.5542 46.3018 29.2899 46.2777C29.1698 46.2537 29.0496 46.2297 28.9055 46.1816C28.8334 46.1576 28.7853 46.1576 28.7133 46.1336L28.521 46.0615C28.0165 45.8933 27.584 45.629 27.1755 45.3166L27.1034 45.2686L27.0794 45.2445C27.0073 45.1724 26.9592 45.1004 26.9112 45.0283C26.8631 44.9562 26.791 44.8841 26.743 44.788C26.6469 44.6198 26.5508 44.4276 26.5027 44.2113C26.4546 43.9951 26.4546 43.7548 26.4787 43.5386C26.5267 43.3223 26.5988 43.1301 26.719 42.9619C26.9352 42.6495 27.2235 42.4333 27.5119 42.2651C27.656 42.193 27.8002 42.1209 27.9444 42.0729C28.0885 42.0248 28.2327 41.9767 28.4009 41.9527L28.449 42.0729C28.2327 42.2891 28.0405 42.5054 27.8963 42.7216C27.7281 42.9379 27.608 43.1781 27.5599 43.3704C27.5359 43.4665 27.5359 43.5626 27.5359 43.6347C27.5599 43.7068 27.584 43.7788 27.608 43.8269C27.6801 43.923 27.7762 44.0431 27.8963 44.1633C28.2567 44.3555 28.6172 44.5477 29.0016 44.6919C29.1938 44.788 29.386 44.8361 29.5542 44.9081C29.7465 44.9562 29.9387 45.0283 30.1309 45.0763C30.5394 45.1484 30.9479 45.1724 31.3563 45.1244C31.7648 45.0763 32.1973 44.9802 32.5817 44.8361C33.3987 44.5718 34.1916 44.1152 34.9124 43.5866C35.5372 43.1061 36.1619 42.5774 36.7145 42.0008C36.7866 41.9287 36.8587 41.8326 36.9308 41.7605L37.147 41.9287Z" fill="#212121"/>
<path d="M23.9078 47.7676C22.4661 48.0559 21.0245 48.3442 19.6068 48.6806C18.886 48.8488 18.1892 49.017 17.4683 49.2333C17.3001 49.2813 17.1079 49.3294 16.9397 49.3774L16.6754 49.4495L16.4111 49.5456L16.1468 49.6417C16.0507 49.6658 15.9546 49.7138 15.8825 49.7379L15.7383 49.7859L15.6663 49.8099L15.5942 49.834L15.3058 49.9781L15.1857 50.6749V50.699L15.2097 50.723C15.2097 50.723 15.2097 50.747 15.2338 50.747H15.1617L15.0175 50.7711L14.8974 50.7951C14.8013 50.8191 14.7292 50.8431 14.6571 50.8431C14.3447 50.9393 14.0324 51.0354 13.7681 51.1555C13.6239 51.2276 13.4797 51.2756 13.3356 51.3477C13.2635 51.3718 13.1914 51.4198 13.1193 51.4438C13.0472 51.4919 12.9751 51.5159 12.9031 51.564L12.7589 52.429C12.7589 52.429 12.7589 52.453 12.7829 52.453L12.8069 52.477L12.855 52.5491C12.879 52.5972 12.9031 52.6452 12.9271 52.6933C12.9751 52.7894 12.9992 52.8855 13.0232 52.9816C13.0713 53.1738 13.0712 53.342 13.0472 53.4381C13.0232 53.5343 12.9511 53.6063 12.855 53.7025C12.7349 53.7986 12.5667 53.8947 12.3744 53.9668L12.3024 53.9908L12.2303 54.0388L10.8847 54.8798C10.4282 55.1681 9.97166 55.4565 9.51513 55.7688C9.15471 56.0091 8.77027 56.2734 8.40985 56.5377C8.33777 56.6098 8.24166 56.6579 8.16957 56.7059C7.73707 57.0183 7.28054 57.3547 6.87207 57.7151L6.94415 57.8352C7.47277 57.6911 8.00138 57.4988 8.50596 57.3066C8.69818 57.2345 8.86638 57.1625 9.0586 57.0904C9.39499 56.9702 9.70735 56.8261 10.0437 56.6819C10.5483 56.4656 11.0529 56.2494 11.5335 56.0091C11.7737 55.889 12.0381 55.7688 12.2783 55.6487C12.4946 55.5286 12.7108 55.4084 12.9271 55.2883C13.2154 55.1922 13.5278 55.024 13.7921 54.7837C13.9363 54.6395 14.0804 54.4954 14.1765 54.3031C14.2726 54.1109 14.3688 53.8947 14.3928 53.7025C14.4168 53.4862 14.4168 53.294 14.3928 53.1018C14.3688 52.9095 14.3207 52.7413 14.2486 52.5731C14.2006 52.453 14.1525 52.3569 14.1044 52.2608C14.1525 52.2368 14.2246 52.1887 14.2726 52.1647C14.5129 52.0445 14.7532 51.9244 14.9935 51.8523C15.0415 51.8283 15.1136 51.8043 15.1617 51.8043L15.2578 51.7802L15.3299 51.7562H15.3779H15.4019H15.45C15.4981 51.7562 15.5461 51.7322 15.6182 51.7322C15.7383 51.7081 15.8585 51.6601 15.9786 51.564C16.1228 51.4679 16.2429 51.2997 16.291 51.1074C16.339 50.9152 16.315 50.7711 16.291 50.6509C16.291 50.6269 16.267 50.5788 16.267 50.5548L16.291 50.5308C16.3631 50.4827 16.4351 50.4587 16.5313 50.4106L16.7715 50.3145L17.0118 50.2184L17.2521 50.1223C17.4203 50.0502 17.5885 50.0022 17.7567 49.9301C18.0931 49.8099 18.4295 49.6898 18.7899 49.5697C19.1263 49.4495 19.4867 49.3294 19.8231 49.2092C20.5199 48.969 21.2167 48.7527 21.9135 48.5124C22.6103 48.2962 23.3071 48.0559 24.0039 47.8397L23.9078 47.7676Z" fill="#212121"/>
<path d="M14.7285 48.6084L14.6805 48.6324C14.4161 48.3681 14.1999 48.0798 13.9837 47.7915C13.7674 47.5031 13.5752 47.2148 13.383 46.9024C13.1907 46.5901 13.0225 46.3017 12.8543 45.9653C12.6861 45.653 12.542 45.3166 12.3738 45.0042L11.8932 44.0431L11.4127 43.082C11.1003 42.4332 10.7879 41.8085 10.4756 41.1598L10.5236 41.1357C10.9081 41.7364 11.2925 42.3371 11.677 42.9378L12.2536 43.8509L12.8303 44.7639C13.0225 45.0763 13.2148 45.3646 13.407 45.653C13.5992 45.9653 13.7674 46.2537 13.9356 46.5901C14.1038 46.9024 14.248 47.2388 14.3921 47.5752C14.4882 47.9116 14.6324 48.248 14.7285 48.6084Z" fill="#212121"/>
<path d="M13.7434 50.9391L13.6953 50.9631C13.3589 50.6027 13.0466 50.2423 12.7342 49.8579C12.4218 49.4734 12.1335 49.089 11.8452 48.7045C11.5568 48.3201 11.2925 47.9116 11.0523 47.5031C10.812 47.0947 10.5477 46.6622 10.3074 46.2537L9.5385 45.0283L8.76961 43.8029C8.26503 42.9859 7.76044 42.1449 7.25586 41.328L7.30392 41.304C7.88058 42.0728 8.45725 42.8658 9.03392 43.6347L9.87489 44.812L10.7159 45.9894C11.0042 46.3738 11.2925 46.7823 11.5809 47.1667C11.8692 47.5512 12.1335 47.9597 12.3978 48.3681C12.6381 48.7766 12.9024 49.2091 13.1186 49.6176C13.3109 50.0501 13.5512 50.4826 13.7434 50.9391Z" fill="#212121"/>
<path d="M44.4035 27.4399H51.9002C51.9002 27.4399 53.438 33.7593 50.9631 34.4801C48.4883 35.2009 43.2022 35.2009 42.5054 33.6872C41.8085 32.1734 40.6552 28.8095 44.4035 27.4399Z" fill="white"/>
<path d="M52.7169 30.9238C52.7169 31.1641 52.7169 31.4284 52.6929 31.6687C52.6929 31.909 52.6688 32.1733 52.6448 32.4136L52.5967 32.798C52.5727 32.9422 52.5487 33.0623 52.5247 33.2065C52.4766 33.3507 52.4526 33.5189 52.4045 33.663C52.3324 33.8312 52.2604 33.9754 52.1402 34.1436C52.0201 34.2877 51.8759 34.4319 51.7077 34.528C51.5395 34.6241 51.3954 34.6962 51.2512 34.7443C50.9388 34.8404 50.6745 34.8644 50.4102 34.8884C50.3381 34.8884 50.2901 34.8884 50.218 34.9125C50.0258 34.9365 49.8335 34.9365 49.6413 34.9365H49.6173C49.4972 34.9365 49.401 34.9365 49.2809 34.9365C48.9205 34.9365 48.536 34.9365 48.1756 34.9365H47.3347H46.5898C46.1573 34.9365 45.7008 34.9125 45.2442 34.8884C44.7396 34.8404 44.2351 34.7923 43.7064 34.6001C43.4421 34.504 43.2019 34.3839 42.9616 34.2157C42.7213 34.0475 42.5291 33.8312 42.3849 33.615C42.0726 33.1584 41.9044 32.6538 41.7842 32.1733C41.7121 31.933 41.6641 31.6927 41.616 31.4284C41.568 31.1882 41.5439 30.9238 41.5439 30.6595C41.568 30.1309 41.6881 29.6263 41.9284 29.1698C42.1687 28.7133 42.5051 28.3288 42.8895 27.9925C43.274 27.6801 43.6824 27.4158 44.163 27.2236L44.211 27.3437C43.9227 27.4879 43.6344 27.6801 43.3941 27.8963C43.2739 27.9925 43.1778 28.0886 43.0817 28.1847C42.7453 28.5211 42.481 28.9055 42.2888 29.314C42.0966 29.7225 42.0245 30.203 42.0485 30.6355C42.0726 30.8518 42.0966 31.092 42.1446 31.3083C42.1927 31.5245 42.2648 31.7648 42.3369 31.9811C42.481 32.4136 42.6733 32.8461 42.9376 33.1825C43.0817 33.3507 43.2259 33.4948 43.3941 33.5909C43.5623 33.7111 43.7545 33.7832 43.9708 33.8312C44.3792 33.9514 44.8358 33.9754 45.3163 33.9754C45.7969 33.9754 46.2534 33.9514 46.734 33.9514L48.1997 33.8793C48.5601 33.8552 48.9445 33.8552 49.3049 33.8312C49.4251 33.8312 49.5212 33.8312 49.6413 33.8072C49.6653 33.8072 49.6894 33.8072 49.7374 33.8072C49.9297 33.8072 50.0979 33.7832 50.2901 33.7591C50.3141 33.7591 50.3381 33.7591 50.3381 33.7591C50.5544 33.7351 50.7706 33.687 50.9388 33.615C51.0109 33.5909 51.083 33.5429 51.131 33.5189C51.1791 33.4948 51.2031 33.4468 51.2272 33.3987C51.2512 33.3507 51.2752 33.3026 51.2992 33.2305C51.3233 33.1584 51.3233 33.0623 51.3473 32.9902L51.3713 32.6779V32.3415C51.3713 32.1012 51.3713 31.885 51.3713 31.6447C51.3713 31.4044 51.3713 31.1641 51.3473 30.9238C51.3473 30.6836 51.3473 30.4433 51.3233 30.203C51.2992 29.4341 51.2752 28.6652 51.2512 27.8963C50.9869 27.8963 50.7226 27.8723 50.4583 27.8483C50.3862 27.8483 50.2901 27.8483 50.218 27.8243C50.1699 27.8243 50.1219 27.8243 50.0979 27.8243C50.0738 27.8243 50.0498 27.8243 50.0258 27.8243C49.8095 27.8243 49.6173 27.8002 49.401 27.7762C49.1127 27.7522 48.8244 27.7281 48.536 27.7041C47.9594 27.6561 47.4067 27.608 46.8301 27.5359C46.4456 27.4879 46.0371 27.4398 45.6287 27.3918C45.4605 27.3677 45.2923 27.3437 45.1241 27.3197V27.1755C45.7008 27.0794 46.2534 27.0073 46.8301 26.9593C47.4067 26.8872 47.9594 26.8391 48.536 26.7911C48.8244 26.767 49.0887 26.743 49.377 26.719C49.6413 26.6949 49.9056 26.6949 50.1699 26.6709C50.194 26.6709 50.218 26.6709 50.242 26.6709C50.3381 26.6709 50.4102 26.6709 50.5063 26.6469C50.6745 26.6469 50.8667 26.6229 51.0349 26.6229C51.3473 26.5988 51.6356 26.5988 51.948 26.5748L52.5487 26.5508L52.6208 27.1995C52.6929 27.8483 52.7409 28.473 52.7649 29.1218C52.789 29.4581 52.789 29.7945 52.789 30.155C52.7169 30.4193 52.7169 30.6836 52.7169 30.9238Z" fill="#212121"/>
<path d="M32.7161 12.0447L32.6771 12.3958C32.6576 12.5128 32.6479 12.6298 32.6381 12.7371C32.6284 12.8151 32.6186 12.8834 32.6186 12.9419C32.6186 13.0004 32.6089 13.0687 32.6089 13.1272C32.5991 13.2247 32.5698 13.3027 32.5211 13.371C32.4723 13.4393 32.4138 13.4978 32.3553 13.5465C32.3163 13.5856 32.2773 13.5953 32.2383 13.5953C32.1993 13.5953 32.1602 13.5856 32.1212 13.566C31.9554 13.4783 31.8287 13.3612 31.7311 13.2247C31.6336 13.0882 31.5848 12.9321 31.5848 12.7371C31.5751 12.5713 31.5848 12.4055 31.6044 12.2495C31.6239 12.0934 31.6531 11.9276 31.6824 11.7618C31.6824 11.7131 31.6824 11.6643 31.6726 11.6253C31.6629 11.5863 31.6434 11.5473 31.6044 11.5083C31.5458 11.4595 31.4971 11.401 31.4678 11.3425C31.4288 11.284 31.3995 11.2157 31.3703 11.1474C31.341 11.1084 31.3313 11.0597 31.341 11.0109C31.3508 10.9719 31.3703 10.9329 31.4093 10.9134C31.4483 10.8939 31.4873 10.9036 31.5263 10.9231C31.5556 10.9426 31.5946 10.9719 31.6531 11.0207C31.7311 11.1084 31.7799 11.0889 31.8092 10.9719C31.8482 10.7866 31.8969 10.6013 31.9359 10.4062C31.9749 10.2209 32.0237 10.0356 32.0627 9.8406C32.1115 9.58703 32.17 9.34322 32.248 9.08966C32.326 8.84585 32.3943 8.60203 32.4723 8.34847C32.4821 8.2802 32.5016 8.21193 32.5211 8.14367C32.5406 8.08515 32.5601 8.00713 32.5796 7.92911C32.4626 7.99738 32.365 8.06565 32.2675 8.13391C32.17 8.21193 32.0822 8.2802 31.9945 8.35822C31.8189 8.52401 31.6629 8.69956 31.5263 8.88486C31.3898 9.07015 31.2825 9.27496 31.2045 9.49926C31.185 9.53827 31.1655 9.54802 31.1265 9.54802C31.068 9.54802 31.029 9.51877 30.9997 9.46025C30.8729 9.28471 30.8437 9.08966 30.9022 8.89461C30.9997 8.58253 31.1557 8.28995 31.3898 8.03639C31.7214 7.6853 32.0822 7.41223 32.4821 7.19768C32.8722 6.98312 33.311 6.84659 33.7987 6.76857C34.0132 6.73931 34.218 6.72956 34.4326 6.74906C34.6374 6.76857 34.8422 6.81733 35.0567 6.87584C35.4858 7.01238 35.8077 7.2757 36.0417 7.65604C36.2563 8.02664 36.3733 8.38748 36.3928 8.75807C36.4123 9.12867 36.3246 9.49926 36.1393 9.86986C35.6516 10.8451 34.9007 11.479 33.8669 11.7911C33.7889 11.8204 33.7011 11.8399 33.5939 11.8594C33.5841 11.8984 33.5939 11.9276 33.6231 11.9374C33.6426 11.9569 33.6719 11.9666 33.6914 11.9861C33.8474 12.1324 34.0035 12.2787 34.1498 12.425C34.2863 12.581 34.4423 12.7176 34.6179 12.8541C34.7447 12.9711 34.8714 13.0784 34.9982 13.1759C35.125 13.2735 35.2615 13.371 35.4176 13.449C35.4468 13.4685 35.4858 13.4978 35.5249 13.5173C35.5639 13.5368 35.5736 13.5758 35.5736 13.6246C35.5541 13.7611 35.4956 13.8391 35.3786 13.8781C35.242 13.9366 35.1152 13.9659 34.9787 13.9659C34.8422 13.9659 34.7154 13.9464 34.5789 13.8879C34.0912 13.6831 33.6914 13.371 33.3988 12.9419C33.2818 12.7956 33.1745 12.6493 33.0575 12.503C32.9404 12.3665 32.8429 12.2105 32.7551 12.0447H32.7161ZM32.6381 7.88035C32.7551 7.91936 32.8332 7.96812 32.8819 8.03639C32.9307 8.11441 32.9599 8.19243 32.9795 8.2802C32.9795 8.31921 32.9892 8.36797 32.9892 8.40698C32.9892 8.44599 32.999 8.485 32.999 8.52401C32.999 8.6508 32.999 8.77758 32.999 8.89461C32.9892 9.01164 32.9795 9.13842 32.9697 9.2652C32.9502 9.53827 32.9209 9.81134 32.9014 10.0844C32.8819 10.3575 32.8527 10.6306 32.8332 10.9036C32.8234 10.9329 32.8234 10.9621 32.8234 10.9816C32.8234 11.0109 32.8332 11.0402 32.8527 11.0597C33.1062 11.0402 33.3696 10.9719 33.6231 10.8549C34.0327 10.6891 34.4033 10.4648 34.7349 10.1917C35.0567 9.91862 35.3298 9.58703 35.5541 9.18718C35.7297 8.89461 35.8174 8.55327 35.8174 8.18268C35.7979 7.85109 35.6419 7.62679 35.3396 7.51951C35.2908 7.5 35.2518 7.49025 35.2128 7.47074C34.9787 7.40248 34.7544 7.36347 34.5203 7.35372C34.2863 7.35372 34.0522 7.37322 33.8182 7.42198C33.4183 7.5 33.0282 7.65604 32.6381 7.88035ZM36.6429 11.6838C36.6039 11.9764 36.5649 12.2592 36.5356 12.5323C36.5063 12.8054 36.5063 13.0784 36.5259 13.3515C36.5356 13.4685 36.4966 13.5368 36.4186 13.5758C36.3406 13.6246 36.2528 13.6246 36.1748 13.566C36.0382 13.488 35.9505 13.4003 35.8919 13.293C35.8334 13.1857 35.8042 13.0589 35.8042 12.9126C35.8042 12.7663 35.8139 12.6201 35.8334 12.4738C35.8529 12.3372 35.8724 12.1909 35.9017 12.0349C35.9407 11.7618 35.9895 11.4985 36.0577 11.245C36.126 10.9914 36.204 10.7281 36.3015 10.4745C36.3406 10.3575 36.3698 10.2307 36.3991 10.1039C36.4186 9.98689 36.4478 9.8601 36.4868 9.73332C36.4868 9.71382 36.4966 9.69431 36.4966 9.67481C36.4966 9.6553 36.4966 9.6358 36.5161 9.61629C36.5356 9.55778 36.5746 9.52852 36.6526 9.53827C36.7989 9.57728 36.8867 9.68456 36.9062 9.8601C36.9062 9.88936 36.9062 9.91862 36.9062 9.93812C36.9062 9.96738 36.916 9.99664 36.9355 10.0161C36.9647 9.99664 36.9842 9.97713 37.0037 9.94788C37.0232 9.91862 37.0427 9.88936 37.072 9.8601C37.0915 9.83085 37.1208 9.80159 37.15 9.77233C37.1695 9.74307 37.1988 9.71382 37.2378 9.67481C37.3451 9.57728 37.4621 9.53827 37.5986 9.54802C37.7254 9.56753 37.8327 9.6358 37.9302 9.75283C37.979 9.81134 38.018 9.87961 38.0375 9.94788C38.057 10.0259 38.0667 10.0942 38.0863 10.1624C38.1643 10.8744 37.9107 11.4498 37.3451 11.8789C37.189 11.9959 37.033 11.9959 36.8672 11.8789C36.8282 11.8594 36.7892 11.8399 36.7502 11.8106C36.7111 11.7813 36.6819 11.7423 36.6429 11.6838ZM37.6279 9.81134C37.5791 9.81134 37.5499 9.82109 37.5304 9.8406L37.4816 9.88936C37.3646 9.98689 37.2768 10.1039 37.1988 10.2209C37.1208 10.338 37.0525 10.4648 36.9842 10.5915C36.9062 10.7476 36.8379 10.8939 36.7794 11.0402C36.7209 11.1962 36.6819 11.3522 36.6721 11.518C36.6721 11.5375 36.6624 11.5668 36.6624 11.5863C36.6624 11.6058 36.6721 11.6253 36.6916 11.6351C36.7307 11.6546 36.7697 11.6546 36.8087 11.6253C36.8672 11.5863 36.916 11.5473 36.9745 11.4888C37.2085 11.2645 37.3743 11.0109 37.4718 10.7281C37.5596 10.4453 37.6084 10.1429 37.6279 9.81134Z" fill="black"/>
<path d="M29.2163 3.17139C29.3605 3.72403 29.4086 4.3007 29.3365 4.90139C29.2644 5.47806 29.0481 6.05473 28.6156 6.48723C28.3994 6.70348 28.1351 6.87167 27.8708 6.96778C27.5825 7.0639 27.2941 7.13598 27.0058 7.13598C26.4051 7.16001 25.8284 7.0639 25.2998 6.87167V6.84765C25.8765 6.8957 26.4291 6.96778 26.9818 6.8957C27.1259 6.87167 27.2461 6.87167 27.3902 6.82362C27.5344 6.79959 27.6545 6.75153 27.7987 6.72751C28.063 6.6314 28.3033 6.51126 28.4955 6.31903C28.904 5.95862 29.1443 5.40597 29.2404 4.85333C29.3125 4.30069 29.2884 3.72403 29.2163 3.17139Z" fill="#84BD41"/>
<path d="M31.1162 3.48416L31.1643 3.19583C31.1643 3.09972 31.1883 3.0036 31.1883 2.90749C31.2123 2.71527 31.2123 2.52305 31.1883 2.33082C31.1883 2.1386 31.1402 1.94638 31.1402 1.75416C31.1402 1.56193 31.1402 1.36971 31.1643 1.17749H31.1883C31.2844 1.34569 31.3565 1.53791 31.3805 1.73013C31.4286 1.92235 31.4045 2.11457 31.3805 2.33082C31.3565 2.52305 31.3325 2.71527 31.3084 2.90749C31.2844 3.0036 31.2604 3.09972 31.2364 3.19583L31.1162 3.48416Z" fill="#84BD41"/>
<path d="M33.7822 1.61015C33.8303 1.49001 33.8543 1.36987 33.8783 1.2257C33.9024 1.10556 33.9024 0.961397 33.8783 0.841258C33.8783 0.721119 33.8303 0.60098 33.8303 0.456813C33.8303 0.336674 33.8303 0.192507 33.8543 0.0483398H33.8783C33.9745 0.144451 34.0465 0.288618 34.0706 0.432785C34.1186 0.576952 34.0946 0.721119 34.0706 0.841258C34.0465 0.985425 34.0225 1.10556 33.9744 1.24973C33.9264 1.3939 33.8543 1.51404 33.7822 1.61015Z" fill="#84BD41"/>
</svg>
