<svg width="52" height="47" viewBox="0 0 52 47" fill="none" xmlns="http://www.w3.org/2000/svg">
<path opacity="0.2" d="M52 23.0857C52 29.6 48.96 35.4971 44.0457 39.68C41.8057 41.6 39.1543 43.1772 36.2514 44.2743C33.0971 45.4629 29.6457 46.1257 26.0114 46.1257C11.6571 46.1257 0 35.7943 0 23.0629C0 10.3314 11.6343 0 26.0114 0C40.3886 0 52 10.3543 52 23.0857Z" fill="#84BD41"/>
<path d="M45.7597 38.6966C43.2225 40.8681 40.2282 42.6509 36.9368 43.908C35.7482 42.628 34.3997 41.4624 33.0968 40.9595C29.3482 39.5195 25.9197 42.8338 21.9425 41.2338C20.9597 40.8452 19.3825 40.0223 17.5768 38.9938C17.5082 38.948 17.4397 38.9252 17.3939 38.8795C17.3482 38.8566 17.3254 38.8338 17.2797 38.8109C15.9539 38.0566 14.5139 37.1881 13.0968 36.3423C13.0739 36.3195 13.0511 36.3195 13.0054 36.2966C13.0054 36.2966 12.9825 36.2966 12.9825 36.2738C12.9368 36.2509 12.9139 36.2281 12.8682 36.2052C9.18822 33.9652 5.69108 31.7023 4.68536 30.9709C4.47965 30.8109 4.31965 30.6052 4.27394 30.3538C4.09108 29.3709 4.95965 28.9823 5.41679 28.8909C5.50822 28.8681 5.59965 28.8681 5.64536 28.8909C5.59965 28.8452 5.55394 28.8223 5.53108 28.7766C5.23394 28.3881 5.18822 27.6338 6.07965 27.1766C7.03965 26.7195 9.80537 27.7481 10.3997 27.9766C10.4682 27.9995 10.5139 28.0223 10.5139 28.0223C10.4911 27.9995 10.4682 27.9538 10.4454 27.9309C10.1711 27.5195 10.6968 26.6281 11.7482 26.5595C12.7539 26.4909 15.2454 27.9309 15.7711 28.2509C15.8397 28.2966 15.8854 28.3195 15.8854 28.3195C15.8854 28.3195 15.9082 28.2738 15.9311 28.2052C16.0225 27.9538 16.3197 27.3824 16.9597 27.4966C18.8339 27.8395 25.3711 32.0452 25.3711 32.0452C25.3711 32.0452 31.6796 28.6395 35.1082 30.308C37.1654 31.3138 42.1939 35.5652 45.7597 38.6966Z" fill="white"/>
<path d="M17.5771 33.988C17.5314 34.0109 17.4857 34.0109 17.4399 33.988C17.3714 33.9652 11.2457 30.948 8.95994 30.0109C7.13136 29.2566 5.50851 28.9823 5.50851 28.9823C5.43994 28.9823 5.39422 28.9138 5.41708 28.8452C5.43994 28.7766 5.48565 28.7309 5.55422 28.7537C5.57708 28.7537 7.22279 29.028 9.07422 29.7823C11.3599 30.7195 17.4857 33.7366 17.5542 33.7595C17.6228 33.7823 17.6457 33.8737 17.5999 33.9195C17.5999 33.9652 17.5999 33.988 17.5771 33.988Z" fill="#58270F"/>
<path d="M21.1656 33.1656C21.1199 33.1884 21.0742 33.1884 21.0285 33.1656C16.5713 30.7427 11.5428 28.4341 10.4685 28.137C10.3999 28.1141 10.3542 28.0456 10.377 27.977C10.3999 27.9084 10.4685 27.8627 10.537 27.8856C11.7713 28.2284 17.0056 30.6741 21.1656 32.937C21.2342 32.9599 21.257 33.0513 21.2113 33.097C21.1885 33.1427 21.1885 33.1656 21.1656 33.1656Z" fill="#58270F"/>
<path d="M23.9092 32.7083C23.8635 32.7312 23.8178 32.7312 23.7721 32.7083C20.8692 30.8798 15.8406 28.4341 15.7949 28.4112C15.7263 28.3884 15.7035 28.2969 15.7263 28.2512C15.7492 28.1826 15.8406 28.1598 15.8863 28.1826C15.9321 28.2055 20.9606 30.6512 23.8863 32.4798C23.9549 32.5255 23.9549 32.5941 23.9321 32.6398C23.9321 32.7084 23.9321 32.7083 23.9092 32.7083Z" fill="#58270F"/>
<path d="M29.6458 37.2113C29.6458 37.2113 17.2573 39.3598 15.1544 38.8341C13.0515 38.3313 12.0687 36.5713 13.7144 35.2684C15.383 33.9656 25.143 32.137 25.143 32.137L29.6458 37.2113Z" fill="white"/>
<path d="M25.2112 32.2283C25.1884 32.2283 25.1884 32.2511 25.1655 32.2511C25.0741 32.274 15.4284 34.1026 13.7827 35.3597C13.3941 35.6569 13.1655 35.9768 13.0512 36.3426C13.0284 36.4111 12.9598 36.434 12.8912 36.434C12.8227 36.4111 12.7998 36.3426 12.7998 36.274C12.9141 35.8854 13.1884 35.4968 13.6227 35.1768C13.6455 35.1768 13.6455 35.154 13.6684 35.154C15.4512 33.8511 24.7084 32.0911 25.0969 32.0225C25.1655 31.9997 25.2341 32.0454 25.2341 32.114C25.2798 32.1597 25.2569 32.2054 25.2112 32.2283Z" fill="#58270F"/>
<path d="M29.713 37.3253C29.6901 37.3253 29.6901 37.3482 29.6673 37.3482C29.5759 37.371 21.553 38.7425 17.393 39.0168C17.3244 39.0168 17.2559 38.9711 17.2559 38.9025C17.2559 38.8339 17.3016 38.7653 17.3701 38.7653C21.5301 38.491 29.553 37.1196 29.6216 37.0968C29.6901 37.0739 29.7587 37.1196 29.7587 37.1882C29.7587 37.2568 29.7359 37.3025 29.713 37.3253Z" fill="#58270F"/>
<path d="M15.6808 38.9255C14.9722 38.7655 14.2636 38.5141 13.6465 38.0798C13.3494 37.8741 13.0522 37.5769 12.9151 37.2112C12.8465 37.0284 12.8008 36.8226 12.8008 36.6398C12.8236 36.4341 12.8465 36.2512 12.9379 36.0684C12.9608 35.9769 13.0294 35.8855 13.0522 35.8169C13.0979 35.7255 13.1436 35.6569 13.2122 35.5655L13.3951 35.3369L13.6008 35.1312C13.8979 34.8798 14.2179 34.6969 14.5379 34.5141C15.2008 34.1712 15.8865 33.8969 16.5951 33.6684C17.9894 33.1884 19.4294 32.8226 20.8694 32.5712C21.6008 32.4569 22.3322 32.3426 23.0636 32.2512C23.7951 32.1598 24.5265 32.0912 25.2579 32.0684V32.1141L20.9608 33.0055C19.5436 33.3255 18.1036 33.5769 16.7094 34.0112C16.0236 34.2169 15.3379 34.4684 14.6751 34.7884C14.3551 34.9484 14.0351 35.1312 13.7608 35.3598L13.5551 35.5426L13.3951 35.7255C13.3494 35.7941 13.3036 35.8626 13.2579 35.9541C13.2122 36.0226 13.1665 36.1141 13.1436 36.1826C13.0751 36.3426 13.0294 36.5026 13.0065 36.6855C13.0065 36.8455 13.0065 37.0284 13.0751 37.1884C13.1894 37.5084 13.4408 37.7826 13.7151 38.0112C14.2865 38.4455 14.9722 38.7198 15.6808 38.9255Z" fill="black"/>
<path d="M17.5771 38.7198L20.6171 38.2398L23.6572 37.7827C24.6629 37.6455 25.6686 37.4398 26.6972 37.3484C27.7257 37.257 28.7314 37.1655 29.76 37.1655V37.2113C28.7543 37.4627 27.7486 37.6455 26.7429 37.8055C25.7372 37.9655 24.7086 38.0341 23.7029 38.1484L20.6629 38.4684L17.6 38.7655L17.5771 38.7198Z" fill="black"/>
<path d="M5.53223 29.0054C6.53794 29.2111 7.5208 29.4854 8.50366 29.7597C9.48651 30.0568 10.4465 30.3768 11.4065 30.7425C12.3665 31.1082 13.3265 31.4739 14.2408 31.9539C15.1322 32.4339 16.0237 33.0054 16.8008 33.6682L16.7779 33.7139C15.8637 33.2568 14.9722 32.7996 14.0579 32.3654C13.1437 31.9539 12.2294 31.4739 11.2922 31.0854C10.3551 30.6968 9.41794 30.3311 8.45794 29.9882C7.49794 29.6454 6.53794 29.3254 5.55508 29.0511L5.53223 29.0054Z" fill="black"/>
<path d="M10.5371 27.8855C11.4057 28.2055 12.2971 28.5484 13.1657 28.8912C14.0343 29.2341 14.9028 29.5998 15.7714 29.9655C16.64 30.3312 17.5085 30.6969 18.3314 31.1541C18.7428 31.3827 19.1543 31.6341 19.5428 31.9083C19.9314 32.1826 20.32 32.4798 20.6171 32.8684L20.5714 32.8912C20.2057 32.5941 19.7943 32.4112 19.3828 32.1827C18.9714 31.9769 18.56 31.7712 18.1257 31.5655C17.28 31.1769 16.4571 30.7198 15.6343 30.3083C14.7885 29.8969 13.9428 29.5084 13.0971 29.0969C12.2514 28.7084 11.4057 28.2969 10.5371 27.9312V27.8855Z" fill="black"/>
<path d="M15.909 28.1826C16.5719 28.4798 17.2576 28.7769 17.9204 29.0969C18.5833 29.4169 19.2461 29.7369 19.909 30.0569C20.5719 30.3997 21.2347 30.6969 21.8519 31.1083C22.1719 31.314 22.469 31.5198 22.7661 31.7483C22.9033 31.8626 23.0633 31.9769 23.1776 32.114C23.3147 32.2512 23.429 32.3883 23.5433 32.5483L23.4976 32.5712C22.9033 32.1597 22.2404 31.8398 21.6004 31.4741C20.9604 31.1312 20.3433 30.7198 19.7033 30.354C19.0633 29.9883 18.4233 29.6226 17.7833 29.2797C17.1433 28.914 16.5033 28.5712 15.8633 28.2055L15.909 28.1826Z" fill="black"/>
<path d="M23.6122 9.05109C22.9494 7.56538 24.3208 5.32538 24.8922 5.27966C25.1894 5.2568 26.1951 5.48539 26.7437 5.6911C27.7265 6.07967 28.7322 6.44539 29.7151 6.83396C30.5151 7.1311 31.2922 7.42824 32.0922 7.74824C33.3037 8.20539 34.4922 8.66253 35.7037 9.11967C35.8637 9.16539 36.0008 9.23397 36.1608 9.30254C36.2751 9.34826 36.3894 9.39396 36.5037 9.43968C38.4465 10.2168 38.1037 11.634 37.3722 13.1425C37.3722 13.1654 37.3722 13.1654 37.3722 13.1883C37.3951 13.2797 37.4179 13.394 37.4408 13.4854C38.4237 17.9425 39.2694 22.4225 39.9551 26.9482C40.0237 27.4511 40.1379 28.0225 40.1151 28.114C40.0922 28.1597 39.4522 28.3882 38.9722 28.5711C35.6122 29.8282 31.8865 31.0625 31.5894 31.0397C31.2922 31.0168 23.2922 26.7654 21.0979 25.554C20.2979 25.1197 19.4522 24.7311 19.3379 24.5482C19.2694 24.4111 19.5437 23.5425 19.7037 22.9939C20.8008 18.7425 22.1951 13.5768 23.6122 9.05109Z" fill="#84BD41"/>
<path d="M34.7893 23.9768C36.4579 25.234 38.1036 26.4683 39.7722 27.7254C39.8407 27.7711 39.9322 27.8168 39.955 27.8854C39.9779 27.9768 39.8636 28.0682 39.7722 27.9997C38.0807 26.6968 36.275 25.4397 34.6064 24.0911C34.6064 23.9997 34.7207 23.9083 34.7893 23.9768Z" fill="#24262C"/>
<path d="M36.2295 13.7141C36.3666 13.7141 36.3666 13.9427 36.2066 13.9427C36.0695 13.9427 36.0695 13.7141 36.2295 13.7141Z" fill="#24262C"/>
<path d="M23.7031 8.82251C24.7774 9.18822 25.8517 9.55395 26.926 9.91966L30.126 11.0397C31.2003 11.4282 32.2746 11.7482 33.326 12.2054C34.3546 12.6625 35.3831 13.1425 36.3888 13.7139L36.366 13.7825C35.246 13.554 34.1717 13.2111 33.0974 12.8454C32.0231 12.4797 30.9946 11.9997 29.966 11.5654L26.8346 10.2397C25.806 9.78253 24.7546 9.34824 23.726 8.89109L23.7031 8.82251Z" fill="black"/>
<path d="M28.5496 10.6054L29.6925 6.83398L32.0696 7.72542L30.881 11.474L30.8125 11.6797L30.0125 14.194L27.7725 13.1654L28.481 10.8111L28.5496 10.6054Z" fill="white"/>
<path d="M20.8923 20.0681C21.0294 20.0681 25.418 23.2681 25.4865 23.3824C25.5551 23.4967 26.218 25.371 26.4008 25.9652C26.698 25.8738 27.2694 25.7138 27.2923 25.7138C27.338 25.7367 27.6351 26.7195 27.5894 26.7881C27.5208 26.8795 26.1951 27.2453 26.1265 27.3824C26.058 27.5195 25.4408 30.0567 25.3037 30.171C25.1894 30.2852 17.5551 32.891 17.3723 32.8681C17.2123 32.8453 12.6408 29.5995 12.5265 29.4852C12.3894 29.3481 11.018 25.1424 10.9951 24.9824C10.9951 24.7995 12.6637 22.6967 12.7551 22.6281C12.8008 22.5595 20.7551 20.091 20.8923 20.0681Z" fill="#D8D8D8"/>
<path d="M37.4182 13.4856C37.2582 13.5999 37.0982 13.6913 36.9153 13.7599C36.7325 13.8285 36.5496 13.8742 36.321 13.8285C36.1153 13.8056 35.9096 13.5999 35.8639 13.4171C35.7953 13.2113 35.7725 13.0285 35.7725 12.8227C35.7725 12.4342 35.841 12.0456 35.9325 11.6799C36.0239 11.3142 36.1382 10.9485 36.2525 10.5828V10.5599C36.3439 10.3999 36.4582 10.2171 36.6182 10.1028C36.7782 9.96563 36.961 9.87418 37.2125 9.85132C37.281 9.85132 37.3496 9.85134 37.3953 9.8742C37.4639 9.89705 37.5325 9.9199 37.5782 9.94275C37.6239 9.98847 37.6696 10.0342 37.7382 10.0799C37.7839 10.1256 37.8067 10.1713 37.8296 10.2399C37.8753 10.2856 37.8753 10.3313 37.8982 10.3999C37.921 10.4456 37.9439 10.5142 37.9439 10.5599C37.9667 10.6513 37.9896 10.7656 37.9896 10.857C38.0125 11.2456 37.921 11.5885 37.8525 11.9313C37.761 12.2742 37.6696 12.5942 37.5096 12.937C37.4639 13.0285 37.4182 13.0971 37.3496 13.1885C37.281 13.2799 37.2125 13.3713 37.0525 13.4628C36.9839 13.5085 36.8467 13.5542 36.6867 13.5313C36.5496 13.5085 36.4582 13.417 36.3896 13.3485C36.2753 13.2113 36.2525 13.097 36.2296 13.0056C36.1382 12.5942 36.161 12.2513 36.2525 11.8856C36.2982 11.7028 36.3439 11.5199 36.5039 11.337C36.5496 11.2913 36.5953 11.2456 36.641 11.1999C36.6639 11.177 36.7096 11.1542 36.7325 11.1542L36.8239 11.1313C36.8925 11.1313 36.9382 11.1085 37.0296 11.1313C37.0982 11.1313 37.2125 11.1999 37.2582 11.2685C37.3039 11.337 37.3267 11.4056 37.3267 11.4742C37.3267 11.5428 37.3267 11.5885 37.3267 11.6342C37.3039 11.7256 37.281 11.817 37.2582 11.9085C37.1896 12.0685 37.121 12.2285 37.0296 12.3656L36.961 12.3428C36.9839 12.1828 37.0067 12.0228 37.0296 11.8628C37.0296 11.7942 37.0296 11.7028 37.0296 11.6342C37.0296 11.5656 37.0067 11.497 36.9839 11.5199L37.0067 11.5428C37.0067 11.5428 36.9839 11.5656 36.961 11.5656L36.9153 11.5885C36.9153 11.6113 36.8925 11.6113 36.8925 11.6342C36.8467 11.7256 36.8239 11.8628 36.801 11.9999C36.7782 12.2742 36.801 12.6171 36.8925 12.8456C36.9153 12.8913 36.9382 12.937 36.9382 12.937C36.9382 12.937 36.9153 12.9142 36.8467 12.8913C36.7782 12.8685 36.7325 12.8913 36.7325 12.8913C36.7096 12.8913 36.7553 12.8685 36.7782 12.8227C36.801 12.777 36.8467 12.7085 36.8696 12.6628C37.121 12.137 37.3953 11.497 37.4182 10.9256C37.4182 10.857 37.4182 10.7885 37.4182 10.7199C37.4182 10.697 37.3953 10.6742 37.3953 10.6285C37.3953 10.6056 37.3953 10.5599 37.3725 10.5599C37.3267 10.4685 37.281 10.4456 37.2125 10.4227C37.121 10.4227 37.0067 10.4685 36.9153 10.537C36.801 10.6056 36.7325 10.7199 36.641 10.8342V10.8113C36.5039 11.1542 36.3667 11.497 36.2753 11.8399C36.161 12.1828 36.0696 12.5485 36.0467 12.8913C36.0239 13.0742 36.0467 13.2342 36.0696 13.3942C36.1153 13.5542 36.2067 13.6685 36.3667 13.7142C36.5267 13.7599 36.7096 13.737 36.8696 13.6913C37.0525 13.6456 37.2125 13.577 37.3725 13.4856H37.4182Z" fill="black"/>
<path d="M35.6115 16.7999L34.5601 20.9827L33.4858 25.1427C33.1201 26.537 32.823 27.9313 32.3658 29.3027L32.023 30.3313L31.9772 30.4684C31.9772 30.4913 31.9772 30.5141 32.0001 30.5141C32.023 30.537 32.023 30.537 32.0687 30.537H32.0915H32.1372L32.2744 30.5141C32.983 30.3541 33.6915 30.217 34.4001 30.1027L34.423 30.1713C33.7601 30.4684 33.0972 30.7427 32.4115 30.9941L32.2744 31.0399C32.2515 31.0399 32.2515 31.0627 32.2058 31.0627C32.1601 31.0627 32.1372 31.0856 32.0915 31.0856C31.9315 31.1084 31.7715 31.0627 31.6572 30.9484C31.543 30.857 31.4515 30.7198 31.4058 30.537C31.383 30.4456 31.383 30.377 31.4058 30.2856L31.4287 30.1484L31.6801 29.097C32.023 27.7027 32.503 26.3542 32.9144 24.9827L34.1944 20.8684L35.4972 16.7542L35.6115 16.7999Z" fill="black"/>
<path d="M34.5146 23.9314C35.2232 24.3885 35.9318 24.8685 36.6632 25.3485L38.7889 26.7885C39.1318 27.0171 39.4975 27.2685 39.8632 27.4971L40.0004 27.5885L40.0689 27.6342L40.0918 27.6571C40.1146 27.6571 40.0918 27.6571 40.1604 27.7028C40.3204 27.84 40.3661 28.0685 40.2746 28.2514C40.2289 28.3428 40.1604 28.4342 40.0689 28.4799C40.0461 28.5028 40.0232 28.5028 40.0004 28.5028H39.9775L39.9318 28.5257C39.7261 28.5942 39.5204 28.6628 39.3146 28.7314C38.4918 28.96 37.6689 29.1885 36.8004 29.2799L36.7775 29.2114C37.5089 28.7542 38.3089 28.3885 39.0861 28.0685C39.2918 28 39.4746 27.9085 39.6804 27.84L39.7261 27.8171H39.7489C39.7489 27.8171 39.7261 27.8171 39.7261 27.84C39.6804 27.8628 39.6575 27.9085 39.6346 27.9542C39.5889 28.0457 39.6118 28.16 39.6804 28.2057L39.4518 28.0228C39.1318 27.7485 38.7889 27.4742 38.4689 27.2L36.4804 25.6C35.8175 25.0514 35.1546 24.5257 34.5146 23.9771V23.9314Z" fill="black"/>
<path d="M37.7369 14.8113C37.9426 15.6341 38.1484 16.457 38.3312 17.2798L38.9027 19.7484C39.0855 20.5713 39.3369 21.3941 39.4512 22.217C39.5655 23.0627 39.6569 23.9084 39.6112 24.7541L39.5427 24.777C39.1998 23.977 38.9712 23.177 38.7655 22.3541C38.5598 21.5313 38.4912 20.6856 38.3541 19.8627L37.9884 17.3484C37.8741 16.5027 37.7598 15.6798 37.6455 14.8341L37.7369 14.8113Z" fill="black"/>
<path d="M26.4916 28.4111C26.8345 28.5483 27.1545 28.6854 27.4973 28.8225L28.4802 29.2568C28.8002 29.4168 29.1659 29.5311 29.463 29.714C29.7602 29.9197 30.0573 30.1254 30.3316 30.3997L30.3087 30.4454C29.9202 30.3997 29.5773 30.2626 29.2573 30.1254C28.9145 29.9883 28.6173 29.7597 28.3202 29.5768L27.383 29.0054C27.0859 28.7997 26.7659 28.6168 26.4688 28.434L26.4916 28.4111Z" fill="black"/>
<path d="M21.3719 22.8342C21.349 23.0171 21.2347 23.1542 21.0747 23.2456C20.6176 23.4971 19.8404 23.8171 18.8119 23.8171H18.7433C17.6004 23.7942 16.9147 23.4971 16.5261 23.2456C16.389 23.1542 16.2976 23.017 16.2747 22.857C16.0919 21.7142 15.4976 18.1713 15.0176 15.2456C15.9319 15.5885 17.189 15.7942 18.9261 15.8628C20.2976 15.9085 21.8747 15.4056 22.6061 15.1313C22.5604 15.4056 22.5147 15.6571 22.469 15.9313C22.0347 18.9028 21.4404 22.4456 21.3719 22.8342Z" fill="#CDE0AF"/>
<path d="M18.8809 12.7769C18.4695 12.7541 18.0809 12.6855 17.8066 12.5483C18.5381 16.2055 19.2695 19.7026 20.0009 23.3598C20.2295 23.5198 20.8695 23.4055 20.9609 23.1998C20.9838 23.1083 20.8695 22.6969 20.8466 22.514C20.1838 19.154 19.5438 16.0912 18.8809 12.7769Z" fill="white"/>
<path d="M18.9485 15.9312C21.7888 15.9312 24.0914 14.7544 24.0914 13.3026C24.0914 11.8509 21.7888 10.6741 18.9485 10.6741C16.1082 10.6741 13.8057 11.8509 13.8057 13.3026C13.8057 14.7544 16.1082 15.9312 18.9485 15.9312Z" fill="#84BD41"/>
<path d="M14.3076 13.0282C14.9476 13.5082 15.7019 13.8282 16.479 14.0111C17.2562 14.2168 18.0562 14.2854 18.8562 14.2625C19.2448 14.2168 19.6562 14.194 20.0448 14.1025C20.4333 14.034 20.8219 13.9425 21.2105 13.8282C21.4162 13.7825 21.599 13.714 21.7819 13.6454C21.9648 13.5768 22.1705 13.5082 22.3533 13.4625C22.719 13.3254 23.0848 13.1654 23.4733 13.0054V13.0282C23.1305 13.2339 22.7648 13.4168 22.399 13.5997C22.2162 13.6911 22.0333 13.7597 21.8276 13.8282C21.6448 13.8968 21.4619 13.9882 21.2562 14.0339L20.6619 14.1939C20.5705 14.2168 20.4562 14.2397 20.3648 14.2625L20.0676 14.3082C19.6562 14.3768 19.2676 14.3996 18.8562 14.4225C18.0333 14.4225 17.2333 14.3311 16.4562 14.1025C15.679 13.8968 14.9476 13.5539 14.3076 13.0282Z" fill="black"/>
<path d="M15.041 13.8511C15.041 13.9882 15.041 14.1025 15.0638 14.2168C15.0638 14.2854 15.1095 14.3311 15.0867 14.3768C15.0867 14.4225 15.0638 14.4911 15.041 14.5597H15.0181C14.9267 14.5368 14.881 14.4682 14.8581 14.3997C14.8352 14.3311 14.8581 14.2625 14.881 14.1939C14.9038 14.0796 14.9495 13.9654 15.041 13.8511Z" fill="black"/>
<path d="M16.0458 14.3313C16.0458 14.4684 16.0458 14.5827 16.0687 14.697C16.0687 14.7656 16.1144 14.8113 16.0916 14.857C16.0916 14.9027 16.0687 14.9713 16.0458 15.0399H16.023C15.9316 15.017 15.8858 14.9484 15.863 14.8798C15.8401 14.8113 15.863 14.7427 15.8858 14.6742C15.9087 14.5599 15.9544 14.4456 16.0458 14.3313Z" fill="black"/>
<path d="M17.1884 14.5598C17.1884 14.697 17.1884 14.8112 17.2113 14.9255C17.2113 14.9941 17.257 15.0398 17.2341 15.0855C17.2341 15.1312 17.2113 15.1998 17.1884 15.2684H17.1656C17.0741 15.2455 17.0284 15.1769 17.0056 15.1084C16.9827 15.0398 17.0056 14.9712 17.0284 14.9027C17.0513 14.7884 17.097 14.6741 17.1884 14.5598Z" fill="black"/>
<path d="M18.7197 14.6741C18.7197 14.8112 18.7197 14.9255 18.7425 15.0398C18.7425 15.1084 18.7882 15.1541 18.7654 15.1998C18.7654 15.2455 18.7425 15.3141 18.7197 15.3826H18.6968C18.6054 15.3598 18.5597 15.2912 18.5368 15.2226C18.514 15.154 18.5368 15.0855 18.5597 15.0169C18.5825 14.9026 18.6282 14.7884 18.7197 14.6741Z" fill="black"/>
<path d="M22.6975 13.8743C22.766 13.9886 22.8118 14.1028 22.8346 14.24C22.8575 14.3085 22.8803 14.3771 22.8575 14.4457C22.8346 14.5143 22.7889 14.5828 22.6975 14.6057H22.6746C22.6518 14.5143 22.6289 14.4685 22.6289 14.4228C22.6289 14.3771 22.6518 14.3085 22.6518 14.2628C22.6518 14.1257 22.6746 14.0114 22.6975 13.8743Z" fill="black"/>
<path d="M21.6916 14.3313C21.7602 14.4456 21.8059 14.5599 21.8288 14.697C21.8516 14.7656 21.8745 14.8342 21.8516 14.9027C21.8288 14.9713 21.783 15.0399 21.6916 15.0627H21.6688C21.6459 14.9713 21.623 14.9256 21.623 14.8798C21.623 14.8341 21.6459 14.7656 21.6459 14.7199C21.6459 14.6056 21.6688 14.4684 21.6916 14.3313Z" fill="black"/>
<path d="M20.5266 14.5828C20.5951 14.697 20.6409 14.8113 20.6637 14.9485C20.6866 15.017 20.7094 15.0856 20.6866 15.1542C20.6637 15.2228 20.618 15.2913 20.5266 15.3142H20.5037C20.4809 15.2228 20.458 15.1771 20.458 15.1313C20.458 15.0856 20.4809 15.017 20.4809 14.9713C20.5037 14.8342 20.5037 14.697 20.5266 14.5828Z" fill="black"/>
<path d="M18.5837 11.04C18.3551 9.64571 18.1037 8.25142 17.8751 6.83428C17.6237 6.69713 17.0522 6.81143 16.8922 7.01714C16.8694 7.04 16.938 7.38286 16.9837 7.58857C17.1894 8.77714 17.3951 9.96571 17.5779 11.1543C17.6008 11.2229 17.6008 11.2914 17.6237 11.36C17.6465 11.4286 17.6465 11.4971 17.6465 11.5428C17.6922 11.7943 17.738 12.0457 17.7837 12.2971C18.0351 12.4571 18.4237 12.5714 18.858 12.5943C18.7665 12.1143 18.698 11.6571 18.6294 11.1771C18.6065 11.1543 18.6065 11.0857 18.5837 11.04ZM17.7151 7.10855C17.5094 7.24569 17.2808 7.26855 17.0522 7.22284C16.9608 7.19998 16.9837 7.06285 17.0522 7.06285C17.2122 7.0857 17.3037 7.10856 17.4408 7.06285C17.5322 7.03999 17.5551 7.01713 17.6465 6.97141C17.6694 6.94856 17.6922 6.92571 17.738 6.92571C17.7837 6.92571 17.8065 6.94855 17.8065 6.99427C17.8294 7.03998 17.7608 7.06284 17.7151 7.10855Z" fill="white"/>
<path d="M17.7141 11.9313C17.5998 11.9542 17.4856 11.9999 17.3941 12.0227C17.3027 12.0684 17.1656 12.1142 17.1427 12.1827C17.1427 12.2056 17.1427 12.2056 17.1427 12.2056L17.1656 12.2284C17.2113 12.2513 17.257 12.2742 17.3027 12.297C17.3941 12.3199 17.5084 12.3427 17.6227 12.3656C18.0798 12.4341 18.537 12.4113 18.9713 12.3656C19.1998 12.3427 19.4284 12.297 19.6341 12.2284C19.7256 12.2056 19.8398 12.1599 19.9084 12.137C19.9541 12.1141 19.977 12.0913 19.9313 12.137C19.9313 12.1599 19.9084 12.2284 19.9313 12.2513L19.9541 12.2742C19.9313 12.2284 19.817 12.1827 19.7256 12.1599C19.6341 12.1142 19.5198 12.0913 19.4056 12.0456C19.177 11.977 18.9713 11.9313 18.7427 11.8627V11.817C18.9713 11.7484 19.2227 11.7256 19.4513 11.7256C19.5656 11.7256 19.7027 11.7484 19.817 11.7484C19.9541 11.7713 20.0684 11.7941 20.2284 11.8856C20.2513 11.9084 20.2741 11.9313 20.297 11.9542C20.3198 11.977 20.3427 12.0227 20.3656 12.0456C20.3884 12.0913 20.3884 12.137 20.3884 12.2056C20.3884 12.2513 20.3656 12.3199 20.3427 12.3427C20.2513 12.4799 20.1827 12.5027 20.1141 12.5484C19.977 12.617 19.8627 12.6399 19.7256 12.6627C19.4741 12.7084 19.2456 12.7084 18.9941 12.7084C18.5141 12.7084 18.0341 12.6856 17.577 12.5713C17.4627 12.5484 17.3484 12.5027 17.2341 12.457C17.1656 12.4341 17.1198 12.3884 17.0741 12.3427C17.0513 12.3199 17.0284 12.2741 17.0056 12.2284C16.9827 12.1827 17.0056 12.1142 17.0284 12.0913C17.0741 12.0227 17.1427 11.9999 17.2113 11.977C17.2798 11.9542 17.3256 11.9313 17.3941 11.9313C17.5084 11.9084 17.6227 11.8856 17.737 11.8856L17.7141 11.9313Z" fill="black"/>
<path d="M14.4688 14.6741C14.4916 14.6969 14.5373 14.6741 14.5145 14.6741V14.6969V14.7426L14.5373 14.8341L14.5602 14.9941L14.6288 15.3141L14.7659 15.9541L15.0402 17.2569L15.5659 19.8398C15.7488 20.7084 15.9773 21.5541 16.0916 22.4226C16.1145 22.6283 16.1602 22.8569 16.183 23.0626L16.2059 23.1998C16.2059 23.2226 16.2288 23.2455 16.183 23.1998C16.183 23.1998 16.183 23.2226 16.2059 23.2226C16.2516 23.2683 16.3202 23.3369 16.3888 23.4055C16.7088 23.6569 17.0973 23.8627 17.5088 24.0455L17.4859 24.1141C17.0288 24.1141 16.5716 24.0227 16.1373 23.8169C16.023 23.7712 15.9088 23.7026 15.7945 23.6112C15.7716 23.5884 15.7259 23.5426 15.703 23.5198C15.6345 23.4284 15.6345 23.4055 15.6345 23.3598C15.6116 23.2912 15.5888 23.2455 15.5659 23.1769C15.4973 22.9484 15.4516 22.7426 15.383 22.5369C15.1545 21.6683 15.1088 20.7998 14.9945 19.9083L14.6745 17.2798L14.5602 15.9769L14.4916 15.3141L14.4688 14.9941V14.8341V14.7426V14.6741C14.4688 14.6284 14.5145 14.6055 14.5373 14.6283L14.4688 14.6741Z" fill="black"/>
<path d="M23.2687 14.7655C23.1773 15.6798 23.0858 16.617 22.9715 17.5313L22.6287 20.297C22.4915 21.2113 22.4458 22.1484 22.1944 23.0627C22.1715 23.177 22.1258 23.2912 22.0801 23.4284C22.0573 23.4512 22.0573 23.497 22.0344 23.5427C22.0115 23.5655 22.0115 23.5884 21.943 23.6798C21.8973 23.7255 21.8287 23.7712 21.7601 23.7712C21.7373 23.7712 21.7373 23.7712 21.7373 23.7712C21.7373 23.7712 21.7144 23.7712 21.6915 23.7712L21.623 23.7941L20.9601 23.9998C20.7315 24.0684 20.503 24.137 20.2744 24.1827C20.0458 24.2284 19.8173 24.297 19.543 24.2512V24.1827C19.7487 24.1141 19.9544 23.9998 20.1601 23.8855L20.7544 23.5427C20.9601 23.4284 21.1658 23.3141 21.3715 23.2227C21.3944 23.1998 21.4173 23.1998 21.463 23.177C21.5087 23.1541 21.5087 23.1541 21.5773 23.1313H21.623C21.5773 23.1313 21.5087 23.177 21.463 23.1998C21.4173 23.2455 21.4173 23.2684 21.4173 23.2456C21.4173 23.2456 21.4173 23.2227 21.4401 23.1998C21.463 23.1084 21.4858 22.9941 21.5087 22.8798C21.5773 22.4455 21.6687 21.9884 21.783 21.5313C21.8973 21.0741 21.9887 20.6398 22.0801 20.1827L22.6287 17.4627L23.2001 14.7427L23.2687 14.7655Z" fill="black"/>
<path d="M12.8008 23.0171L15.0636 24.6628L17.3036 26.3085L17.1436 26.2856L18.8808 25.6228C19.4522 25.3942 20.0236 25.1657 20.6179 24.9828C21.2122 24.7771 21.7836 24.5942 22.3779 24.4114C22.9722 24.2285 23.5665 24.0685 24.1836 23.9314L24.2065 23.9771C23.6579 24.2514 23.0865 24.5028 22.5151 24.7314C21.9436 24.9599 21.3722 25.1885 20.7779 25.3942C20.2065 25.6228 19.6122 25.8057 19.0179 25.9885L17.2579 26.5599L17.1665 26.5828L17.0979 26.5371L14.9265 24.7771L12.8008 23.0171Z" fill="black"/>
<path d="M11.2012 25.0286C12.184 25.6914 13.144 26.3543 14.1269 27.0172L15.5897 28.0228C16.0697 28.3428 16.5726 28.6857 17.0297 29.0514L16.664 29.2114C16.7097 28.8229 16.7555 28.4571 16.8012 28.0686C16.824 27.8857 16.8697 27.7029 16.8926 27.4971C16.9383 27.3143 16.9612 27.1314 17.0069 26.9257H17.0526C17.0755 27.1086 17.0755 27.3143 17.0983 27.4971C17.0983 27.68 17.1212 27.8857 17.1212 28.0686C17.1212 28.4571 17.1212 28.8229 17.1212 29.2114V29.6228L16.7783 29.3943C16.2983 29.0743 15.8183 28.7086 15.3612 28.32L13.9669 27.2228C13.0297 26.4914 12.1155 25.76 11.2012 25.0286Z" fill="black"/>
<path d="M22.9268 26.9256C23.1782 26.8113 23.4296 26.697 23.681 26.6056C23.9325 26.4913 24.1839 26.3998 24.4353 26.3084C24.6868 26.217 24.9382 26.0798 25.1896 26.0341C25.4639 25.9884 25.7382 25.9427 26.0353 25.9884L26.0582 26.0341C25.8296 26.2398 25.601 26.3541 25.3496 26.4684C25.0982 26.5827 24.8239 26.6056 24.5496 26.6741C24.2753 26.7427 24.0239 26.7884 23.7496 26.857C23.4753 26.9027 23.2239 26.9713 22.9496 27.017L22.9268 26.9256Z" fill="black"/>
<path d="M16.0918 30.6739C17.7604 30.0568 19.4289 29.4397 21.1204 28.8454L23.6347 27.9311C24.4804 27.6339 25.3261 27.3825 26.1947 27.1539L26.5147 27.0625L26.4004 27.3597C26.3089 27.5882 26.1947 27.8168 26.1032 28.0225C25.9889 28.2511 25.8975 28.4568 25.7832 28.6854L25.7375 28.6625C25.7832 28.4111 25.8518 28.1825 25.9204 27.9539C25.9889 27.7254 26.0575 27.4739 26.1261 27.2454L26.3318 27.4511C25.5089 27.7939 24.6632 28.1139 23.8175 28.3653L21.2575 29.1425C19.5661 29.6682 17.8518 30.1939 16.1375 30.6968L16.0918 30.6739Z" fill="black"/>
<path d="M16.9149 30.8799C17.0291 31.1999 17.1206 31.5199 17.212 31.8628C17.3034 32.1828 17.3949 32.5256 17.4863 32.8456L17.2806 32.7313L17.8977 32.5028C18.1034 32.4113 18.3091 32.3428 18.5149 32.2742C18.7206 32.2056 18.9491 32.1827 19.1549 32.137C19.3834 32.1142 19.5891 32.0685 19.8177 32.0913L19.8406 32.137C19.6577 32.2742 19.452 32.3885 19.2691 32.4799C19.0634 32.5713 18.8577 32.6628 18.652 32.7313C18.4463 32.7999 18.2406 32.8456 18.012 32.8913L17.372 33.0513L17.1891 33.097L17.1663 32.937C17.1206 32.5942 17.052 32.2742 17.0063 31.9313C16.9606 31.5885 16.9149 31.2685 16.8691 30.9256L16.9149 30.8799Z" fill="black"/>
<path d="M20.3206 29.3254C20.2063 29.1654 20.1377 28.9597 20.1377 28.754C20.1377 28.5483 20.2063 28.3197 20.3891 28.1597C20.4577 28.0911 20.5491 28.0225 20.6634 27.9768C20.7548 27.9311 20.8691 27.8854 20.9377 27.8625L21.4863 27.6568C21.6691 27.5883 21.852 27.4968 22.0348 27.4283C22.2177 27.3597 22.4234 27.2911 22.6977 27.3368C22.8348 27.3597 23.0177 27.4511 23.0634 27.6111C23.1091 27.7026 23.1091 27.7254 23.1091 27.7711C23.132 27.8168 23.132 27.8626 23.132 27.9311C23.1548 28.1368 23.1777 28.3425 23.132 28.5483H23.0863C22.9948 28.3654 22.9263 28.1825 22.8348 28.0225L22.7663 27.9083C22.7434 27.8625 22.7206 27.8168 22.6977 27.8168C22.6748 27.794 22.652 27.794 22.6063 27.794C22.492 27.794 22.3091 27.8397 22.1263 27.8625C21.9434 27.9083 21.7606 27.954 21.5777 27.9997L21.0063 28.1597C20.9148 28.1826 20.8234 28.2054 20.732 28.2283C20.6634 28.274 20.572 28.2968 20.5034 28.3425C20.3663 28.434 20.2748 28.594 20.252 28.7768C20.2291 28.9597 20.252 29.1426 20.3206 29.3254Z" fill="black"/>
<path d="M16.2527 29.4169C16.1156 29.5084 15.9556 29.5998 15.8184 29.6912L15.9098 29.5083L16.0013 29.714C16.0241 29.7826 16.0927 29.8512 16.1156 29.9198C16.1384 29.9883 16.1384 30.0798 16.1156 30.1483C16.0927 30.2398 16.0698 30.3083 16.0241 30.3998L15.9784 30.4226C15.887 30.3769 15.8184 30.3083 15.7727 30.2398C15.727 30.1712 15.6813 30.1026 15.6584 30.0341C15.6356 29.9655 15.6584 29.8741 15.6356 29.8055L15.6127 29.5769L15.5898 29.4169H15.7041C15.8641 29.3941 16.047 29.394 16.2298 29.394L16.2527 29.4169Z" fill="black"/>
<path d="M26.6982 25.8282C26.8811 25.7368 27.064 25.6682 27.2468 25.5997L27.3382 25.554L27.384 25.6682C27.4525 25.8511 27.5211 26.0111 27.5897 26.1939C27.6125 26.2854 27.6582 26.3768 27.704 26.4454C27.7497 26.5368 27.7725 26.6282 27.7954 26.7197L27.8411 26.9482L27.6582 27.0168C27.544 27.0625 27.4297 27.0854 27.3154 27.0854C27.2011 27.0854 27.064 27.1082 26.9268 27.0625L26.904 27.0168C26.9725 26.9025 27.064 26.8339 27.1782 26.7425C27.2697 26.6739 27.3611 26.6054 27.4754 26.5597L27.3382 26.8339C27.3154 26.7425 27.2925 26.6511 27.2925 26.5597C27.2925 26.4682 27.2697 26.3768 27.2468 26.2854C27.224 26.1025 27.1782 25.9197 27.1554 25.7368L27.2925 25.8054C27.0868 25.8282 26.904 25.8511 26.6982 25.874V25.8282Z" fill="black"/>
</svg>
