<svg width="57" height="44" viewBox="0 0 57 44" fill="none" xmlns="http://www.w3.org/2000/svg">
<path opacity="0.2" d="M49.2514 21.8222C49.2514 27.9922 46.3721 33.5776 41.7176 37.5394C39.596 39.3579 37.0847 40.8516 34.3353 41.8908C31.3477 43.0165 28.0787 43.6444 24.6365 43.6444C11.041 43.6444 0 33.859 0 21.8005C0 9.74203 11.0193 0 24.6149 0C38.2105 0 49.2514 9.7637 49.2514 21.8222Z" fill="#84BD41"/>
<path d="M31.0877 15.003C30.9361 15.2194 30.7413 15.371 30.4815 15.4359C29.464 15.7174 27.8403 14.9596 27.7754 14.9164L28.9228 13.1628L29.0094 13.0112C29.031 13.0112 31.8021 13.8556 31.0877 15.003Z" fill="#F59188"/>
<path d="M30.4815 15.4359C29.464 15.7174 27.8403 14.9597 27.7754 14.9164L28.9228 13.1628C29.0527 13.1411 29.1826 13.1628 29.3125 13.2061C29.3125 13.2061 28.7063 15.0246 30.4815 15.4359Z" fill="#F3766D"/>
<path d="M29.7673 16.5614C29.5075 16.9078 29.0962 17.016 28.6849 16.9727C27.9704 16.9294 27.2344 16.5181 27.2344 16.5181L27.5808 14.5264V14.4614C27.5808 14.4614 27.5808 14.4614 27.6024 14.4614C27.689 14.5047 28.2302 14.7212 28.7498 15.0243C29.4642 15.4356 30.1786 16.0201 29.7673 16.5614Z" fill="#F59188"/>
<path d="M28.6634 16.9728C27.949 16.9295 27.2129 16.5182 27.2129 16.5182L27.5593 14.5264L27.5809 14.4832C27.6675 14.5265 28.2087 14.7429 28.7283 15.046C28.5768 15.2842 27.9706 16.1934 28.6634 16.9728Z" fill="#F3766D"/>
<path d="M32.3215 12.9462C32.17 13.4874 31.2607 13.6389 30.4597 13.574C29.9618 13.5307 29.5072 13.4008 29.3123 13.206C28.8144 12.7297 30.6979 11.5173 30.6979 11.5173C30.7195 11.539 31.1741 11.6905 31.6071 11.9287C32.0617 12.1668 32.4514 12.5132 32.3215 12.9462Z" fill="#CDE0AF"/>
<path d="M31.6288 11.9069C31.3906 12.3399 30.936 13.0976 30.4597 13.5523C29.9618 13.509 29.5072 13.3791 29.3123 13.1842C28.8144 12.708 30.6979 11.4956 30.6979 11.4956C30.7412 11.5389 31.1958 11.6688 31.6288 11.9069Z" fill="#BCCC9D"/>
<path d="M25.0037 4.97925C24.6357 5.21739 24.3326 5.58542 24.0728 5.95345C23.8347 6.32149 23.6398 6.73281 23.4883 7.16579C23.3584 7.59877 23.2502 8.03175 23.1203 8.46473C22.9904 8.89771 22.8605 9.33069 22.7739 9.76367C22.7306 9.98016 22.6873 10.1966 22.7089 10.4131C22.7089 10.6296 22.7522 10.8461 22.8821 10.976C23.012 11.1059 23.2069 11.1708 23.4234 11.1925C23.6398 11.2141 23.8563 11.1709 24.0728 11.1709C24.9821 11.1059 25.8697 11.0193 26.7573 10.9111V10.9327C25.8697 11.1709 24.9821 11.2791 24.0728 11.3873C23.8563 11.409 23.6182 11.4523 23.3801 11.4307C23.1419 11.409 22.8821 11.3441 22.6873 11.1276C22.5141 10.9111 22.4708 10.6513 22.4924 10.4131C22.4924 10.175 22.5357 9.93687 22.6007 9.72038C22.7089 9.26575 22.8388 8.83277 22.9904 8.42144C23.1419 7.98846 23.2502 7.55548 23.4017 7.1225C23.5533 6.68952 23.7697 6.27818 24.0295 5.91015C24.2893 5.54212 24.6141 5.19574 25.0037 4.97925Z" fill="#010101"/>
<path d="M26.7572 10.9108C26.7788 10.9108 26.7788 10.9108 26.7572 10.9108C26.8871 10.8675 26.9953 10.8458 27.1036 10.8025C27.4067 10.6943 27.6665 10.586 27.8396 10.4561C27.9046 10.4128 27.9479 10.3695 28.0345 10.3262C28.3159 10.153 28.684 9.93656 29.1819 9.72007C29.3334 9.65513 29.5066 9.59017 29.6798 9.52523C30.5025 9.22214 31.6066 8.94069 32.9921 8.8108C34.0096 8.72421 35.2003 8.72422 36.5642 8.85411C37.2786 8.91906 38.058 9.02731 38.8806 9.17885C40.526 9.48194 42.9506 10.0015 45.6784 10.6293C46.2413 10.7592 46.8258 10.8891 47.4103 11.019C47.4753 11.0407 47.5402 11.0407 47.6052 11.0623C47.8217 11.1056 48.0598 11.1706 48.2763 11.2139C48.7093 11.3221 49.1422 11.4087 49.5752 11.5169C50.0082 11.6252 50.4628 11.7334 50.9175 11.82C52.9741 12.3179 54.2947 12.621 56.1998 13.0973L53.7535 2.38106C52.9308 2.35941 52.0865 2.33777 51.1989 2.31612C50.6793 2.29447 50.1598 2.29447 49.6402 2.27282C49.467 2.27282 49.2938 2.25117 49.099 2.25117C48.7526 2.25117 48.4062 2.22952 48.0381 2.22952C47.7784 2.22952 47.5186 2.20787 47.2371 2.20787C47.0639 2.20787 46.8691 2.20786 46.6959 2.18622C46.0897 2.16457 45.4836 2.16458 44.8774 2.14293C39.6816 2.01303 35.0921 1.94808 34.4209 2.01303C32.9921 2.18622 27.0819 3.78824 24.982 4.93564C24.982 4.93564 24.9603 4.9573 24.9387 4.9573C24.6789 5.08719 24.5057 5.21708 24.3758 5.34698L24.3542 5.36862C24.1593 5.58511 23.9645 5.90985 23.7913 6.27788C23.7913 6.29953 23.7696 6.29953 23.7696 6.32118C23.6181 6.66756 23.4665 7.05725 23.315 7.44693C23.315 7.46858 23.2934 7.49021 23.2934 7.51186C23.2934 7.53351 23.2717 7.55517 23.2717 7.57682C23.1635 7.9232 23.0552 8.2696 22.9686 8.61598C22.947 8.65928 22.947 8.70257 22.9253 8.74587C22.7954 9.26545 22.7088 9.76337 22.6439 10.1747C22.6222 10.3695 22.6006 10.5427 22.6006 10.6726L23.1851 11.2355H23.2068L23.6181 11.2571C23.6397 11.2571 23.6397 11.2571 23.6614 11.2571L26.7572 10.9108Z" fill="white"/>
<path d="M20.6074 14.7427C20.6074 14.7427 20.759 10.4562 24.2012 9.41705C27.6217 8.3779 31.0206 10.9108 31.1938 14.0932C31.367 17.2756 28.3361 20.3065 25.1754 19.5488C22.0146 18.7911 21.0837 17.0808 20.6074 14.7427Z" fill="white"/>
<path d="M20.5645 14.7427C20.6078 14.0499 20.7593 13.3788 20.9758 12.7294C21.1923 12.0799 21.4954 11.4521 21.9283 10.8892C22.3397 10.3263 22.9025 9.87169 23.5304 9.54696C23.8551 9.39542 24.1798 9.26553 24.5262 9.20058L24.786 9.13562C24.8726 9.11397 24.9592 9.11398 25.0458 9.09234C25.219 9.07069 25.3922 9.02738 25.5654 9.02738C26.9726 8.96243 28.4014 9.46037 29.5055 10.3696C30.5879 11.2789 31.3456 12.6211 31.4539 14.0716C31.5405 15.5221 31.0209 16.9726 30.09 18.0767C29.6137 18.6179 29.0509 19.0942 28.4014 19.4406C27.7519 19.7653 27.0159 19.9818 26.2798 19.9818L25.7169 19.9601L25.1757 19.8519C24.8293 19.7653 24.5046 19.657 24.1582 19.5271C23.5087 19.2674 22.8592 18.921 22.3397 18.4447C21.8201 17.9684 21.4088 17.3623 21.1273 16.7344C20.8675 16.085 20.6943 15.4138 20.5645 14.7427ZM20.6294 14.7427C20.7809 15.3922 20.9758 16.0633 21.2789 16.6695C21.582 17.2757 22.0366 17.7952 22.5562 18.1849C23.0974 18.5746 23.7036 18.8344 24.3314 19.0292C24.6345 19.1375 24.9808 19.2024 25.3056 19.2674L25.7819 19.3323H26.2581C26.886 19.3107 27.5138 19.1375 28.0766 18.8344C28.6395 18.5529 29.1591 18.1416 29.5921 17.6653C30.458 16.6911 30.956 15.4138 30.9127 14.1149C30.8477 12.816 30.1983 11.582 29.2024 10.6944C28.2065 9.82841 26.886 9.33049 25.5654 9.37378C25.3922 9.37378 25.2406 9.39542 25.0674 9.41707C24.9808 9.41707 24.8942 9.43871 24.8293 9.43871L24.5912 9.48203C24.2664 9.54698 23.9417 9.63355 23.6386 9.78509C23.0324 10.0449 22.4912 10.4779 22.0366 10.9975C21.1706 12.015 20.716 13.4005 20.6294 14.7427Z" fill="black"/>
<path d="M25.1325 14.1363L25.0664 14.347C25.0403 14.4164 25.0203 14.487 25.0014 14.5516C24.986 14.5983 24.9718 14.639 24.9648 14.6749C24.9577 14.7108 24.9435 14.7515 24.9365 14.7874C24.9188 14.846 24.8915 14.8903 24.8533 14.9263C24.8152 14.9624 24.7723 14.9912 24.7305 15.0141C24.7019 15.0333 24.6768 15.0346 24.6529 15.0299C24.629 15.0252 24.6062 15.0145 24.5846 14.9979C24.4935 14.9241 24.4298 14.8371 24.3864 14.7416C24.3431 14.6461 24.3319 14.5445 24.3554 14.4249C24.3694 14.3221 24.3953 14.2215 24.426 14.1282C24.4568 14.0348 24.4946 13.9367 24.5325 13.8385C24.5384 13.8086 24.5443 13.7787 24.543 13.7536C24.5417 13.7285 24.5344 13.7022 24.5152 13.6736C24.4852 13.6367 24.4623 13.5949 24.4514 13.5555C24.4345 13.5149 24.4248 13.4695 24.4151 13.4241C24.4018 13.3967 24.4017 13.3656 24.4135 13.3369C24.4242 13.3141 24.4409 13.2925 24.4671 13.2853C24.4934 13.278 24.5162 13.2887 24.5377 13.3053C24.5533 13.3208 24.5737 13.3435 24.6038 13.3804C24.6411 13.4436 24.6733 13.4375 24.7053 13.3693C24.7516 13.2603 24.8038 13.1525 24.8511 13.0376C24.8974 12.9286 24.9496 12.8209 24.997 12.7059C25.0574 12.5563 25.1226 12.4138 25.201 12.2677C25.2781 12.1275 25.3493 11.9862 25.4277 11.8401C25.4419 11.7994 25.4621 11.7598 25.4823 11.7203C25.5013 11.6868 25.5226 11.6413 25.544 11.5958C25.464 11.6236 25.3959 11.6537 25.3279 11.6838C25.2587 11.7199 25.1967 11.7513 25.1334 11.7885C25.0058 11.8691 24.889 11.958 24.783 12.0552C24.6769 12.1524 24.5865 12.2651 24.5117 12.3933C24.495 12.4149 24.4819 12.4185 24.4579 12.4138C24.4221 12.4068 24.4017 12.3842 24.3908 12.3448C24.3341 12.2218 24.3396 12.0987 24.399 11.9861C24.4964 11.8064 24.6273 11.6458 24.8013 11.5184C25.0469 11.343 25.3011 11.2189 25.5721 11.1354C25.8372 11.0508 26.1228 11.0198 26.4313 11.0307C26.5664 11.0385 26.6932 11.0572 26.8224 11.095C26.9457 11.1316 27.0654 11.1861 27.19 11.2478C27.4367 11.3832 27.6024 11.5834 27.7002 11.8448C27.7872 12.0979 27.8156 12.3333 27.7829 12.563C27.7503 12.7926 27.6519 13.0093 27.4937 13.2143C27.0773 13.7538 26.5404 14.0523 25.8688 14.1193C25.8175 14.1278 25.7613 14.1292 25.6932 14.1283C25.6825 14.1511 25.6849 14.1702 25.7017 14.1797C25.7113 14.194 25.7281 14.2035 25.7377 14.2178C25.8158 14.3263 25.8939 14.4348 25.966 14.5421C26.031 14.6542 26.1103 14.7567 26.2015 14.8616C26.2652 14.9486 26.33 15.0297 26.3961 15.1048C26.4621 15.1798 26.5341 15.2561 26.6204 15.3227C26.636 15.3382 26.6564 15.3608 26.678 15.3775C26.6996 15.3941 26.7009 15.4192 26.695 15.4491C26.6666 15.5305 26.6213 15.5713 26.5449 15.5812C26.4541 15.6006 26.3728 15.6033 26.2891 15.5869C26.2053 15.5705 26.1299 15.5433 26.0532 15.4909C25.7788 15.3067 25.5711 15.0672 25.4433 14.7688C25.3891 14.665 25.3409 14.5623 25.2867 14.4585C25.2314 14.3607 25.1903 14.2533 25.1565 14.141L25.1325 14.1363ZM25.5857 11.5729C25.6528 11.6109 25.6948 11.6502 25.7165 11.6979C25.737 11.7517 25.7455 11.803 25.747 11.8592C25.7423 11.8831 25.7424 11.9142 25.7377 11.9381C25.733 11.9621 25.7343 11.9872 25.7296 12.0111C25.7143 12.0888 25.6991 12.1666 25.685 12.2384C25.6649 12.309 25.6437 12.3856 25.6225 12.4622C25.5776 12.6273 25.5268 12.7912 25.482 12.9564C25.4372 13.1215 25.3864 13.2855 25.3416 13.4506C25.3321 13.4674 25.3286 13.4853 25.3262 13.4973C25.3227 13.5152 25.3252 13.5343 25.3348 13.5487C25.4926 13.5672 25.6624 13.557 25.832 13.5157C26.1031 13.4633 26.3574 13.3703 26.5936 13.2428C26.8239 13.114 27.0312 12.9435 27.2169 12.7252C27.3598 12.5669 27.4547 12.3681 27.4993 12.1408C27.5272 11.9351 27.4585 11.7788 27.286 11.6766C27.2584 11.6588 27.2357 11.6481 27.2141 11.6314C27.0787 11.5614 26.9459 11.5105 26.8035 11.4764C26.6599 11.4482 26.514 11.432 26.3646 11.4338C26.11 11.4335 25.852 11.4823 25.5857 11.5729ZM27.5843 14.3875C27.5252 14.5622 27.4672 14.731 27.4164 14.895C27.3656 15.0589 27.3328 15.2264 27.3119 15.3962C27.3038 15.4692 27.2716 15.5063 27.2191 15.5209C27.1654 15.5414 27.1115 15.5308 27.0707 15.4856C26.9964 15.4213 26.9531 15.3569 26.9301 15.2841C26.9072 15.2112 26.9045 15.1299 26.9221 15.0402C26.9397 14.9505 26.9632 14.862 26.9928 14.7746C27.0212 14.6932 27.0508 14.6058 27.0875 14.5136C27.1443 14.3508 27.2058 14.1952 27.2782 14.0479C27.3506 13.9006 27.4301 13.7485 27.5205 13.6047C27.5585 13.5376 27.5917 13.4634 27.6249 13.3892C27.6509 13.3197 27.6841 13.2455 27.7233 13.1724C27.7256 13.1605 27.7339 13.1497 27.7363 13.1377C27.7386 13.1257 27.741 13.1138 27.7553 13.1042C27.7743 13.0706 27.8017 13.0574 27.8484 13.0727C27.9335 13.1143 27.9744 13.1906 27.9652 13.3006C27.9617 13.3186 27.9582 13.3365 27.9558 13.3485C27.9523 13.3664 27.9548 13.3855 27.9644 13.3999C27.9847 13.3914 27.999 13.3818 28.0145 13.3662C28.03 13.3506 28.0454 13.335 28.0669 13.3206C28.0824 13.305 28.1039 13.2906 28.1253 13.2761C28.1408 13.2605 28.1623 13.2461 28.1909 13.2269C28.2684 13.18 28.3449 13.1701 28.4274 13.1925C28.5029 13.2198 28.5604 13.2745 28.6062 13.358C28.629 13.3998 28.6448 13.4464 28.6485 13.4906C28.6511 13.5408 28.6488 13.5838 28.6526 13.628C28.6148 14.0741 28.39 14.3965 27.9915 14.5916C27.8817 14.6446 27.786 14.6258 27.6984 14.5341C27.6768 14.5174 27.6553 14.5008 27.6348 14.4781C27.6144 14.4555 27.6012 14.4281 27.5843 14.3875ZM28.4137 13.3576C28.3838 13.3517 28.3647 13.3542 28.3504 13.3638L28.3146 13.3878C28.2311 13.4335 28.1632 13.4948 28.1012 13.5571C28.0393 13.6195 27.9822 13.6891 27.9251 13.7586C27.8584 13.8449 27.799 13.9264 27.7455 14.0091C27.6908 14.0978 27.6481 14.1888 27.6222 14.2893C27.6198 14.3013 27.6103 14.318 27.608 14.33C27.6057 14.342 27.6093 14.3551 27.6201 14.3634C27.6417 14.3801 27.6656 14.3848 27.693 14.3715C27.7336 14.3546 27.7682 14.3366 27.8111 14.3077C27.9817 14.1983 28.1139 14.0628 28.2077 13.901C28.2956 13.7381 28.3619 13.5586 28.4137 13.3576Z" fill="black"/>
<path d="M29.5062 8.74598C29.5062 8.74598 25.8476 12.3614 26.4104 13.4005C26.9733 14.4397 29.03 13.9634 30.2207 12.816C31.4114 11.6686 31.7144 10.5212 32.2124 10.6727C32.7103 10.8243 35.2865 11.1057 36.8885 8.24804C36.9102 8.26969 33.1216 7.05735 29.5062 8.74598Z" fill="white"/>
<path d="M27.5371 10.8894C27.8618 10.2616 28.2948 9.69873 28.8144 9.20081C29.3123 8.70288 29.9401 8.2699 30.6113 8.01011C30.6979 7.96681 30.7845 7.94517 30.8711 7.90187L31.1308 7.81527C31.304 7.75032 31.4989 7.72868 31.6721 7.68538C31.8669 7.64208 32.0401 7.64209 32.2133 7.64209C32.3865 7.64209 32.5597 7.64209 32.7329 7.64209C33.0793 7.66374 33.4473 7.66372 33.7937 7.70702C33.9669 7.72867 34.1401 7.75032 34.3132 7.79362C34.4864 7.83692 34.6596 7.85858 34.8328 7.96682L34.8112 8.03176C34.1401 8.11835 33.4473 8.22661 32.7545 8.29156C32.5813 8.31321 32.4081 8.3132 32.2349 8.33485C32.0618 8.33485 31.8886 8.33484 31.737 8.35649C31.5855 8.35649 31.4123 8.35651 31.2607 8.3998L31.0226 8.44309C30.936 8.46474 30.8711 8.4864 30.7845 8.50805C30.1566 8.70289 29.5505 9.0276 29.0309 9.46058C28.4897 9.87191 28.0134 10.3915 27.6021 10.9544L27.5371 10.8894Z" fill="#010101"/>
<path d="M29.9186 13.1408C29.5506 13.4872 29.1393 13.747 28.663 13.9418C28.1867 14.1367 27.6671 14.2233 27.1475 14.1583C26.8878 14.115 26.6063 14.0934 26.3249 13.9418C26.195 13.8552 26.0435 13.7253 25.9569 13.5521C25.8703 13.379 25.8703 13.1841 25.8919 13.0326C25.9569 12.7078 26.1084 12.4697 26.2816 12.2749C26.4548 12.08 26.6713 11.9068 26.8878 11.7986L26.9311 11.8419C26.8445 12.08 26.7362 12.2965 26.6496 12.513C26.563 12.7295 26.5197 12.946 26.5197 13.0975C26.5414 13.2491 26.563 13.314 26.6713 13.4223C26.7362 13.4656 26.8012 13.5305 26.9094 13.5738C26.996 13.6171 27.1042 13.6387 27.2125 13.682C27.429 13.7253 27.6455 13.747 27.8836 13.747C28.1001 13.747 28.3382 13.7037 28.5547 13.6604C29.0094 13.5521 29.464 13.379 29.8537 13.1192L29.9186 13.1408Z" fill="#010101"/>
<path d="M33.5126 19.8088C33.2745 19.8953 32.993 19.9603 32.7332 19.9603C32.6466 19.9603 31.9322 19.051 31.9755 18.3583C31.9755 18.2933 31.9972 18.2067 32.0188 18.1418C32.2353 17.5789 32.6466 17.6438 32.8848 17.7954C32.9281 17.817 32.9714 17.8603 33.0147 17.882C33.2528 18.1201 33.2745 18.5315 33.2961 18.5315C33.3827 18.5315 33.9023 17.817 34.4435 18.4016C34.5951 18.5748 34.6167 18.7696 34.5301 18.9644C34.4002 19.3108 33.9889 19.6356 33.5126 19.8088Z" fill="#F15E2D"/>
<path d="M17.6656 16.1935C17.6006 16.6481 17.4924 17.0811 17.2759 17.4924C17.2109 17.644 15.2409 18.012 14.2234 17.3842C14.1151 17.3192 14.0285 17.2326 13.9419 17.146C13.2275 16.3667 13.6605 15.7822 14.0935 15.544C14.1801 15.5007 14.2667 15.4574 14.3316 15.4358C14.8728 15.2842 15.544 15.5657 15.5656 15.5224C15.6089 15.3925 14.9594 14.0286 16.3017 13.6605C16.6697 13.5523 16.9944 13.6822 17.2326 13.9636C17.6006 14.4399 17.7738 15.3059 17.6656 16.1935Z" fill="#F15E2D"/>
<path d="M20.6093 8.63786C20.3711 8.72446 20.0897 8.78939 19.8299 8.78939C19.7433 8.78939 19.0289 7.88013 19.0722 7.18736C19.0722 7.12242 19.0938 7.03582 19.1155 6.97087C19.332 6.408 19.7433 6.47295 19.9815 6.62449C20.0248 6.64614 20.0681 6.68945 20.1114 6.7111C20.3495 6.94923 20.3711 7.36057 20.3928 7.36057C20.4794 7.36057 20.999 6.64615 21.5402 7.23068C21.6917 7.40387 21.7134 7.5987 21.6268 7.79354C21.4969 8.13993 21.0856 8.46467 20.6093 8.63786Z" fill="#F15E2D"/>
<path d="M38.5354 16.6914C38.1024 16.7997 37.6261 16.843 37.1715 16.7997C36.9983 16.778 35.9375 15.0894 36.154 13.9204C36.1757 13.7905 36.219 13.6822 36.2622 13.574C36.7169 12.643 37.4096 12.8162 37.7993 13.1193C37.8643 13.1843 37.9292 13.2492 37.9942 13.3142C38.3406 13.7688 38.3189 14.4832 38.3622 14.4832C38.4921 14.4832 39.5312 13.3791 40.3756 14.4832C40.6137 14.7863 40.6137 15.1327 40.4189 15.4574C40.1591 15.977 39.423 16.4749 38.5354 16.6914Z" fill="#F15E2D"/>
<mask id="mask0_1789_3888" style="mask-type:luminance" maskUnits="userSpaceOnUse" x="0" y="0" width="50" height="44">
<path d="M49.2534 21.8222C49.2534 27.9922 46.3741 33.5776 41.7196 37.5394C39.5979 39.3579 37.0867 40.8516 34.3372 41.8908C31.3497 43.0165 28.0807 43.6444 24.6385 43.6444C11.0429 43.6444 0.00195312 33.859 0.00195312 21.8005C0.00195312 9.74203 11.0213 0 24.6168 0C38.2124 0 49.2534 9.7637 49.2534 21.8222Z" fill="white"/>
</mask>
<g mask="url(#mask0_1789_3888)">
<path d="M33.7089 26.455H16.1732C15.7186 26.455 15.3506 26.087 15.3506 25.6323V22.6664C15.3506 22.2118 15.7186 21.8438 16.1732 21.8438H33.7089C34.1636 21.8438 34.5316 22.2118 34.5316 22.6664V25.6323C34.5532 26.087 34.1636 26.455 33.7089 26.455Z" fill="#84BD41"/>
<path d="M16.1732 25.8057C16.3247 26.1087 16.4113 26.4335 16.3464 26.7799C16.3031 26.9531 16.2381 27.1046 16.1299 27.2562C16.0216 27.3861 15.8701 27.4943 15.7185 27.5593C15.4371 27.7108 15.1773 27.8623 14.9175 28.0355C14.6577 28.2087 14.4413 28.4035 14.2464 28.62C13.8351 29.053 13.5536 29.5943 13.3372 30.1571C13.099 30.72 12.9908 31.3045 12.8609 31.9107L12.731 32.8199L12.666 33.7292C12.6444 34.3354 12.6444 34.9632 12.666 35.591V39.3363C12.666 40.5919 12.6877 41.8259 12.8176 43.0383C12.8825 43.6445 12.9475 44.229 13.0774 44.7918C13.1423 45.0733 13.2289 45.3331 13.3155 45.5712C13.4021 45.8093 13.532 46.0042 13.6835 46.1557C13.8134 46.3073 13.9866 46.4155 14.2031 46.4588L14.3763 46.5021L14.5928 46.5238L15.0474 46.5887C15.6536 46.6753 16.2598 46.7186 16.8876 46.7835C18.1216 46.8701 19.3772 46.9351 20.6329 47.0217L20.6545 47.1516C19.4205 47.433 18.1649 47.5845 16.8876 47.6711C16.2598 47.7144 15.6103 47.7145 14.9825 47.7145C14.8309 47.7145 14.6577 47.6928 14.5062 47.6928L14.2681 47.6711C14.1815 47.6711 14.0732 47.6495 13.965 47.6279C13.5536 47.5413 13.1423 47.3464 12.8392 47.065C12.2331 46.4805 11.9949 45.7444 11.8434 45.0949C11.6918 44.4238 11.6485 43.7743 11.6052 43.1249C11.5836 41.8259 11.6269 40.5703 11.6918 39.3146L11.865 35.5694C11.8867 34.9416 11.93 34.3137 11.9733 33.6859L12.0815 32.7333L12.2547 31.7808C12.4063 31.153 12.5794 30.5252 12.8825 29.9406C13.164 29.3561 13.5104 28.7932 13.9866 28.3386C14.2248 28.1221 14.4846 27.9056 14.766 27.7541C15.0474 27.5809 15.3289 27.451 15.6103 27.3211C15.7402 27.2561 15.8701 27.1912 15.9567 27.083C16.0433 26.9747 16.1299 26.8665 16.1732 26.7366C16.2598 26.4551 16.1948 26.1521 16.0866 25.8706L16.1732 25.8057Z" fill="#84BD41"/>
<path d="M34.5535 27.6675C34.9431 27.7541 35.2679 27.9273 35.571 28.1437C35.6576 28.187 35.7225 28.252 35.7875 28.317C35.8524 28.3819 35.939 28.4468 36.0039 28.5118C36.1338 28.6417 36.2637 28.7716 36.372 28.9231C36.8266 29.5076 37.173 30.2004 37.3895 30.9148C37.4111 31.0014 37.4544 31.088 37.4761 31.1746L37.541 31.4561L37.6709 31.9973C37.7359 32.3653 37.8008 32.7333 37.8441 33.1014C37.8658 33.4694 37.9091 33.8374 37.9307 34.2055L37.9524 35.3312C37.9307 36.8033 37.974 38.2538 38.0389 39.7043C38.1039 41.1764 38.2121 42.6269 38.1905 44.1424C38.1905 44.532 38.1472 44.9001 38.1039 45.3114C38.039 45.7011 37.9524 46.1124 37.7359 46.5237C37.541 46.9351 37.1946 47.3247 36.7617 47.5629C36.3287 47.801 35.9174 47.866 35.5277 47.9526C33.9906 48.1907 32.5185 48.1907 31.0463 48.1691C29.5742 48.1258 28.1021 48.0175 26.6299 47.866C25.1578 47.7144 23.7073 47.5413 22.2568 47.2598V47.1299C23.729 47.0433 25.2011 47 26.6732 46.9784L31.0463 46.8918C31.4144 46.8918 31.7824 46.8918 32.1288 46.8701C32.4968 46.8485 32.8648 46.8701 33.2112 46.8485C33.5793 46.8268 33.9256 46.8268 34.2937 46.8052C34.4669 46.7835 34.6617 46.7835 34.8132 46.7835L35.3328 46.7402C35.6576 46.6969 35.9823 46.6536 36.1988 46.5454C36.4369 46.4371 36.6101 46.2639 36.74 46.0258C37.0214 45.5279 37.1297 44.8135 37.173 44.1207C37.2596 42.7135 37.2163 41.2197 37.2163 39.7476C37.2163 38.2755 37.2379 36.8033 37.3245 35.3312L37.3678 34.2488C37.3678 33.8807 37.3462 33.5343 37.3462 33.1663C37.3245 32.7983 37.2812 32.4519 37.2379 32.0839L37.1297 31.5643L37.0864 31.3045C37.0647 31.2179 37.0431 31.1313 37.0214 31.0447C36.8483 30.3519 36.5668 29.6808 36.1555 29.0963C36.0689 28.9448 35.939 28.8149 35.8308 28.685C35.7658 28.62 35.7009 28.5551 35.6359 28.4901C35.571 28.4252 35.506 28.3602 35.4411 28.317C35.1596 28.0788 34.8565 27.9056 34.5102 27.819L34.5535 27.6675Z" fill="#84BD41"/>
<path d="M17.5803 22.3201C17.6236 22.8396 17.6452 23.3592 17.6669 23.8788C17.6885 24.1386 17.7102 24.3984 17.6885 24.6582C17.6669 24.918 17.6452 25.1777 17.5803 25.4375H17.5586C17.4937 25.1777 17.472 24.918 17.4504 24.6582C17.4287 24.3984 17.472 24.1386 17.472 23.8788C17.4937 23.3592 17.5153 22.8396 17.5586 22.3201H17.5803Z" fill="black"/>
<path d="M20.2863 22.3201C20.3296 22.8396 20.3513 23.3592 20.3729 23.8788C20.3946 24.1386 20.4162 24.3984 20.3946 24.6582C20.3729 24.918 20.3513 25.1777 20.2863 25.4375H20.2647C20.1998 25.1777 20.1781 24.918 20.1565 24.6582C20.1348 24.3984 20.1781 24.1386 20.1781 23.8788C20.1997 23.3592 20.2214 22.8396 20.2647 22.3201H20.2863Z" fill="black"/>
<path d="M23.2307 22.3201C23.274 22.8396 23.2956 23.3592 23.3173 23.8788C23.3389 24.1386 23.3606 24.3984 23.3389 24.6582C23.3173 24.918 23.2956 25.1777 23.2307 25.4375H23.209C23.1441 25.1777 23.1224 24.918 23.1008 24.6582C23.0791 24.3984 23.1224 24.1386 23.1224 23.8788C23.1441 23.3592 23.1657 22.8396 23.209 22.3201H23.2307Z" fill="black"/>
<path d="M25.9367 22.3201C25.98 22.8396 26.0017 23.3592 26.0233 23.8788C26.045 24.1386 26.0666 24.3984 26.045 24.6582C26.0233 24.918 26.0017 25.1777 25.9367 25.4375H25.9151C25.8501 25.1777 25.8285 24.918 25.8068 24.6582C25.7852 24.3984 25.8285 24.1386 25.8285 23.8788C25.8501 23.3592 25.8718 22.8396 25.9151 22.3201H25.9367Z" fill="black"/>
<path d="M28.6867 22.3201C28.73 22.8396 28.7517 23.3592 28.7733 23.8788C28.795 24.1386 28.8166 24.3984 28.795 24.6582C28.7733 24.918 28.7517 25.1777 28.6867 25.4375H28.6651C28.6001 25.1777 28.5785 24.918 28.5568 24.6582C28.5352 24.3984 28.5785 24.1386 28.5785 23.8788C28.6001 23.3592 28.6218 22.8396 28.6651 22.3201H28.6867Z" fill="black"/>
<path d="M31.3713 22.3201C31.4146 22.8396 31.4363 23.3592 31.4579 23.8788C31.4796 24.1386 31.5012 24.3984 31.4796 24.6582C31.4579 24.918 31.4363 25.1777 31.3713 25.4375H31.3497C31.2847 25.1777 31.2631 24.918 31.2414 24.6582C31.2198 24.3984 31.2631 24.1386 31.2631 23.8788C31.2847 23.3592 31.3064 22.8396 31.3497 22.3201H31.3713Z" fill="black"/>
<path d="M16.888 37.9507C16.888 37.9507 17.9488 34.9631 20.6116 34.9847C23.2744 35.0064 25.0929 37.561 24.53 39.8341C23.9672 42.1073 21.1312 43.5794 19.0529 42.3454C16.9746 41.1114 16.7148 39.7042 16.888 37.9507Z" fill="white"/>
<path d="M16.8445 37.929C17.0394 37.4528 17.2992 36.9981 17.5806 36.5868C17.8837 36.1755 18.2301 35.7858 18.6414 35.4827C19.0527 35.1796 19.5507 34.9631 20.0702 34.8549C20.5898 34.7899 21.131 34.8116 21.6506 34.9198C22.6898 35.1796 23.599 35.8508 24.1836 36.76C24.7681 37.6693 25.0279 38.795 24.7681 39.8774C24.5083 40.9599 23.7939 41.8908 22.8846 42.497C22.4083 42.7784 21.8888 42.9949 21.3475 43.1031C20.8063 43.2114 20.2218 43.1681 19.6589 43.0165L19.2692 42.865L18.9012 42.6702C18.6631 42.5186 18.4682 42.3671 18.2517 42.1939C17.8404 41.8475 17.4724 41.4362 17.2126 40.9599C16.9528 40.4836 16.8013 39.964 16.7796 39.4445C16.758 38.9465 16.7796 38.4486 16.8445 37.929ZM16.9311 37.9507C16.8878 38.4486 16.8878 38.9682 16.9961 39.4445C17.0827 39.9424 17.2992 40.397 17.6023 40.7651C17.9053 41.1331 18.2734 41.4578 18.6847 41.7176C18.8796 41.8475 19.096 41.9774 19.3125 42.0857L19.6156 42.2372L19.9404 42.3238C20.8063 42.5403 21.7589 42.3671 22.5599 41.8908C23.3609 41.4145 23.9887 40.6568 24.2485 39.7692C24.4866 38.8599 24.3135 37.8641 23.8372 37.0414C23.3392 36.2188 22.5382 35.5909 21.6073 35.3095C21.1527 35.1796 20.6548 35.1147 20.1568 35.158C19.6806 35.2013 19.2043 35.3745 18.7713 35.6342C17.9053 36.1538 17.2775 37.0198 16.9311 37.9507Z" fill="black"/>
<path d="M20.1 38.777L20.0065 38.9113C19.9727 38.9546 19.9428 39 19.9151 39.0415C19.8939 39.0711 19.8749 39.0967 19.8619 39.1205C19.849 39.1444 19.8299 39.17 19.817 39.1938C19.7914 39.2313 19.7623 39.2566 19.7273 39.2736C19.6924 39.2906 19.6557 39.3015 19.6211 39.3084C19.5966 39.3156 19.5785 39.3109 19.5627 39.3023C19.5468 39.2937 19.5331 39.2811 19.5215 39.2645C19.4735 39.1922 19.4477 39.1165 19.4383 39.0394C19.4288 38.9622 19.4434 38.888 19.4866 38.8086C19.5193 38.739 19.5599 38.6737 19.6023 38.6145C19.6448 38.5553 19.6934 38.4943 19.7419 38.4333C19.7527 38.4135 19.7635 38.3937 19.7681 38.3756C19.7728 38.3576 19.7735 38.3374 19.7662 38.3129C19.7532 38.2801 19.7463 38.2455 19.7474 38.2152C19.7444 38.1828 19.7476 38.1486 19.7508 38.1143C19.7475 38.092 19.7543 38.07 19.7691 38.0523C19.7817 38.0386 19.7983 38.027 19.8184 38.0277C19.8386 38.0284 19.8523 38.041 19.8639 38.0575C19.8715 38.072 19.8809 38.0925 19.8939 38.1253C19.9063 38.1782 19.9304 38.1811 19.9682 38.1399C20.0251 38.0732 20.0859 38.0085 20.1449 37.9378C20.2017 37.871 20.2625 37.8064 20.3216 37.7357C20.3975 37.6433 20.4752 37.557 20.563 37.4711C20.6487 37.3891 20.7304 37.305 20.8182 37.2191C20.8373 37.1935 20.8603 37.17 20.8833 37.1466C20.9042 37.1271 20.9294 37.0996 20.9546 37.0722C20.8919 37.0741 20.8371 37.0803 20.7823 37.0865C20.7254 37.0967 20.6746 37.1051 20.6216 37.1174C20.5135 37.146 20.4112 37.183 20.3147 37.2282C20.2181 37.2734 20.1292 37.333 20.0478 37.407C20.0313 37.4186 20.0212 37.4182 20.0053 37.4096C19.9815 37.3966 19.9721 37.3761 19.9731 37.3458C19.9604 37.2464 19.9916 37.1605 20.0585 37.0941C20.1672 36.9887 20.2954 36.9041 20.4467 36.8527C20.6593 36.7832 20.8665 36.7519 21.0767 36.753C21.2828 36.752 21.4916 36.7935 21.7073 36.8695C21.8011 36.9051 21.8866 36.9464 21.9695 37.0018C22.0486 37.055 22.1211 37.1202 22.1955 37.1914C22.3399 37.3419 22.4126 37.5202 22.4237 37.7267C22.4291 37.925 22.3969 38.0977 22.3229 38.2528C22.2489 38.4079 22.1312 38.5393 21.9739 38.6491C21.5598 38.9381 21.114 39.03 20.6244 38.9283C20.5861 38.923 20.5461 38.9115 20.4981 38.8957C20.4856 38.9094 20.4831 38.9235 20.4928 38.9339C20.4964 38.9462 20.5062 38.9566 20.5098 38.9689C20.5409 39.0629 20.5721 39.157 20.5993 39.2488C20.6203 39.3425 20.6536 39.4326 20.6948 39.527C20.7205 39.6026 20.7484 39.6743 20.7784 39.742C20.8085 39.8097 20.8424 39.8796 20.8887 39.9459C20.8963 39.9603 20.9057 39.9808 20.9172 39.9974C20.9288 40.0139 20.9241 40.032 20.9134 40.0518C20.8752 40.1031 20.8342 40.1219 20.7779 40.1119C20.7094 40.1055 20.6514 40.0893 20.5958 40.0591C20.5402 40.029 20.493 39.993 20.4504 39.939C20.2972 39.7478 20.2035 39.5324 20.1794 39.2931C20.1641 39.2077 20.1528 39.1244 20.1375 39.039C20.1201 38.9576 20.1149 38.8725 20.1159 38.7857L20.1 38.777ZM20.9892 37.0653C21.0282 37.107 21.0491 37.1441 21.0539 37.1827C21.0565 37.2252 21.0511 37.2634 21.0397 37.3035C21.031 37.3193 21.0242 37.3413 21.0156 37.3572C21.007 37.3731 21.0023 37.3911 20.9937 37.407C20.9656 37.4586 20.9376 37.5102 20.9117 37.5578C20.8819 37.6033 20.8499 37.6527 20.8179 37.7021C20.7495 37.8089 20.6772 37.9136 20.6089 38.0204C20.5406 38.1272 20.4683 38.2318 20.4 38.3386C20.3895 38.3484 20.3831 38.3603 20.3788 38.3682C20.3723 38.3801 20.3698 38.3942 20.3734 38.4064C20.4809 38.4546 20.6031 38.485 20.7322 38.4935C20.9355 38.5166 21.1359 38.5073 21.3312 38.4695C21.5226 38.4295 21.707 38.355 21.8867 38.2419C22.0229 38.1617 22.1341 38.0422 22.216 37.8914C22.2814 37.7522 22.2675 37.6264 22.1682 37.5159C22.1527 37.4971 22.139 37.4846 22.1274 37.468C22.0473 37.3885 21.9646 37.323 21.8715 37.2672C21.7763 37.2155 21.6767 37.1717 21.5707 37.1397C21.3908 37.0831 21.1975 37.0603 20.9892 37.0653ZM21.7776 39.4986C21.6971 39.609 21.6186 39.7155 21.5464 39.8201C21.4741 39.9247 21.4137 40.0359 21.3612 40.1513C21.3393 40.2011 21.3083 40.2202 21.268 40.2188C21.2254 40.2214 21.1897 40.202 21.1709 40.1609C21.1326 40.099 21.1163 40.0439 21.1162 39.9873C21.1161 39.9307 21.1323 39.8726 21.1646 39.8131C21.197 39.7536 21.2333 39.6962 21.2736 39.641C21.3117 39.5898 21.352 39.5346 21.3984 39.4775C21.4747 39.375 21.5527 39.2787 21.6366 39.1906C21.7204 39.1025 21.8104 39.0126 21.9062 38.931C21.9479 38.892 21.9879 38.8469 22.0278 38.8018C22.0616 38.7585 22.1016 38.7134 22.1455 38.6704C22.1498 38.6625 22.1581 38.6567 22.1624 38.6487C22.1667 38.6408 22.171 38.6329 22.1833 38.6293C22.2041 38.6098 22.2265 38.6065 22.2561 38.6277C22.307 38.6759 22.319 38.739 22.2881 38.8147C22.2816 38.8266 22.2751 38.8385 22.2708 38.8465C22.2644 38.8584 22.2619 38.8724 22.2655 38.8847C22.2817 38.8832 22.294 38.8796 22.3084 38.872C22.3228 38.8644 22.3372 38.8568 22.3555 38.8514C22.37 38.8438 22.3883 38.8384 22.4067 38.8329C22.4211 38.8253 22.4395 38.8199 22.464 38.8127C22.5292 38.7967 22.5855 38.8067 22.6389 38.8409C22.6861 38.8768 22.7147 38.9283 22.7285 38.9975C22.7354 39.0321 22.7362 39.0685 22.729 39.1006C22.7197 39.1367 22.7086 39.1666 22.7014 39.1987C22.5757 39.5057 22.3453 39.6837 22.0202 39.7332C21.9308 39.7463 21.8674 39.7118 21.8258 39.6275C21.8142 39.611 21.8027 39.5944 21.7933 39.5739C21.7838 39.5534 21.7806 39.531 21.7776 39.4986ZM22.5925 38.9545C22.5727 38.9437 22.5586 38.9412 22.5464 38.9448L22.5157 38.9539C22.4466 38.9677 22.385 38.9959 22.3273 39.0263C22.2697 39.0566 22.2139 39.0931 22.1581 39.1296C22.0918 39.1758 22.0317 39.2203 21.9755 39.2669C21.9172 39.3174 21.8668 39.3723 21.8262 39.4376C21.8219 39.4455 21.8115 39.4553 21.8071 39.4632C21.8028 39.4711 21.8025 39.4812 21.8083 39.4895C21.8198 39.5061 21.8357 39.5147 21.858 39.5114C21.8905 39.5085 21.9189 39.5034 21.9557 39.4925C22.1005 39.453 22.2241 39.3865 22.3263 39.293C22.4246 39.1973 22.5113 39.0851 22.5925 38.9545Z" fill="black"/>
<path d="M23.8157 40.4185C23.8157 40.4185 23.426 37.2795 25.8074 36.1104C28.1888 34.9414 30.9598 36.4135 31.4794 38.7083C31.999 41.0031 30.1155 43.5793 27.7125 43.4061C25.3095 43.2113 24.4435 42.0639 23.8157 40.4185Z" fill="white"/>
<path d="M23.7726 40.4185C23.7293 39.8989 23.751 39.401 23.8376 38.8814C23.9242 38.3835 24.0541 37.8856 24.2922 37.4093C24.5303 36.9546 24.8767 36.5217 25.2881 36.2186C25.721 35.9155 26.219 35.699 26.7385 35.5691C27.7777 35.331 28.9034 35.5258 29.8343 36.067C30.7652 36.6082 31.5013 37.5175 31.7611 38.6C32.0209 39.6824 31.8044 40.8298 31.2415 41.7824C30.9601 42.2586 30.5921 42.67 30.1374 43.0163C29.6828 43.3411 29.1632 43.5792 28.6004 43.6875L28.1674 43.7308L27.7344 43.7091C27.453 43.6875 27.2148 43.6442 26.9334 43.5792C26.4138 43.4493 25.8942 43.2545 25.4612 42.9514C25.0283 42.6483 24.6602 42.237 24.3788 41.804C24.1407 41.371 23.9458 40.9164 23.7726 40.4185ZM23.8376 40.3968C24.0324 40.8514 24.2489 41.3277 24.552 41.7174C24.8551 42.1071 25.2448 42.4318 25.6777 42.6267C26.1107 42.8432 26.587 42.9297 27.0633 42.9947C27.3014 43.0163 27.5395 43.038 27.7777 43.038H28.1241L28.4488 42.9731C29.3148 42.7782 30.0941 42.1937 30.6137 41.4143C31.1116 40.635 31.3498 39.6608 31.1766 38.7515C30.9817 37.8422 30.3972 37.0196 29.5962 36.5C28.7952 35.9804 27.7777 35.7639 26.8251 35.9371C26.3489 36.0237 25.8726 36.1969 25.4612 36.4351C25.0499 36.6949 24.7035 37.0629 24.4437 37.4742C23.9242 38.3618 23.751 39.4226 23.8376 40.3968Z" fill="black"/>
<path d="M27.0195 39.7341L26.9959 39.896C26.985 39.9499 26.9786 40.0039 26.9724 40.0534C26.9666 40.0893 26.961 40.1208 26.9601 40.1479C26.9591 40.1749 26.9535 40.2064 26.9526 40.2335C26.9465 40.2784 26.9317 40.3141 26.9081 40.3449C26.8844 40.3757 26.8564 40.4019 26.8285 40.4235C26.8098 40.4409 26.7916 40.4448 26.7736 40.4442C26.7555 40.4436 26.7376 40.4384 26.7199 40.4288C26.6445 40.3855 26.5877 40.3293 26.5448 40.2646C26.5018 40.1998 26.4817 40.1268 26.4849 40.0365C26.483 39.9597 26.4902 39.8831 26.5017 39.8112C26.5132 39.7392 26.5294 39.663 26.5456 39.5867C26.5464 39.5641 26.5471 39.5416 26.5432 39.5234C26.5394 39.5051 26.531 39.4868 26.5135 39.4681C26.4872 39.4446 26.4656 39.4167 26.453 39.3892C26.4359 39.3615 26.4234 39.3294 26.4109 39.2973C26.398 39.2788 26.3943 39.2561 26.3996 39.2337C26.4047 39.2158 26.4144 39.198 26.4327 39.1896C26.4511 39.1812 26.469 39.1864 26.4868 39.196C26.5 39.2055 26.5176 39.2197 26.5439 39.2432C26.5786 39.2851 26.6015 39.2768 26.6169 39.2231C26.6379 39.138 26.6634 39.053 26.6846 38.9633C26.7056 38.8782 26.7311 38.7932 26.7523 38.7035C26.7789 38.587 26.8099 38.4751 26.8501 38.3589C26.8901 38.2473 26.9256 38.1356 26.9657 38.0195C26.9713 37.988 26.9815 37.9567 26.9916 37.9254C27.0015 37.8987 27.0118 37.8629 27.0221 37.8271C26.9668 37.8568 26.9206 37.8868 26.8744 37.9169C26.828 37.9514 26.7863 37.9816 26.7444 38.0163C26.6605 38.0903 26.5855 38.169 26.5193 38.2526C26.4532 38.3362 26.4002 38.4293 26.3605 38.5318C26.3509 38.5496 26.3417 38.5538 26.3237 38.5532C26.2966 38.5522 26.279 38.5381 26.2664 38.5105C26.2105 38.4272 26.2001 38.3365 26.2303 38.2472C26.2804 38.1043 26.3573 37.9713 26.4697 37.8577C26.6288 37.7005 26.8001 37.5799 26.9886 37.487C27.1726 37.3939 27.3779 37.3377 27.6049 37.3094C27.7047 37.2993 27.7996 37.298 27.8986 37.3105C27.9931 37.3228 28.0871 37.3486 28.1855 37.3792C28.3819 37.4492 28.5266 37.5762 28.6289 37.756C28.7223 37.931 28.7707 38.0998 28.7738 38.2717C28.7769 38.4435 28.7304 38.6137 28.6387 38.7822C28.3974 39.2258 28.0397 39.5072 27.5562 39.6352C27.5196 39.6475 27.4787 39.6551 27.4287 39.6624C27.4236 39.6803 27.4277 39.694 27.441 39.699C27.4498 39.7083 27.4631 39.7133 27.4719 39.7226C27.5417 39.7928 27.6116 39.863 27.677 39.9331C27.7377 40.0075 27.8077 40.0732 27.8868 40.1392C27.9436 40.1954 28.0006 40.247 28.0577 40.2942C28.1148 40.3414 28.1765 40.3887 28.2475 40.4273C28.2607 40.4368 28.2783 40.451 28.296 40.4606C28.3138 40.4703 28.3176 40.4885 28.3169 40.511C28.3057 40.5739 28.2773 40.6091 28.2225 40.6253C28.1584 40.6502 28.0993 40.6617 28.0361 40.6595C27.9729 40.6573 27.9145 40.6463 27.8522 40.617C27.6298 40.5144 27.4497 40.3636 27.3212 40.1603C27.2693 40.0907 27.222 40.0213 27.1702 39.9517C27.1182 39.8867 27.0756 39.8129 27.0376 39.7348L27.0195 39.7341ZM27.05 37.8054C27.1035 37.8254 27.1388 37.8492 27.1603 37.8816C27.1816 37.9185 27.1939 37.955 27.2016 37.996C27.2009 38.014 27.2047 38.0367 27.204 38.0548C27.2034 38.0729 27.2073 38.0911 27.2067 38.1091C27.2047 38.1678 27.2026 38.2265 27.2008 38.2807C27.1944 38.3347 27.1878 38.3932 27.1813 38.4517C27.1679 38.5778 27.15 38.7037 27.1366 38.8298C27.1232 38.9559 27.1053 39.0818 27.0919 39.2079C27.087 39.2213 27.0865 39.2348 27.0862 39.2438C27.0857 39.2574 27.0898 39.2711 27.0985 39.2804C27.2161 39.2754 27.3391 39.248 27.4583 39.1979C27.6506 39.1277 27.8257 39.0298 27.9835 38.9087C28.1368 38.7875 28.2685 38.6384 28.3787 38.4569C28.4647 38.3243 28.5107 38.1677 28.5167 37.9962C28.5129 37.8424 28.4443 37.7361 28.3061 37.6816C28.2838 37.6718 28.2659 37.6666 28.2482 37.657C28.1409 37.6217 28.0377 37.6 27.9296 37.5918C27.8212 37.588 27.7126 37.5933 27.6035 37.6121C27.4172 37.6419 27.2341 37.7079 27.05 37.8054ZM28.8428 39.6299C28.8201 39.7647 28.7975 39.8949 28.7796 40.0209C28.7617 40.1468 28.7573 40.2732 28.762 40.3999C28.7646 40.4542 28.7455 40.4852 28.7087 40.502C28.6718 40.5233 28.6312 40.5219 28.596 40.4936C28.5341 40.4553 28.4949 40.4132 28.4695 40.3627C28.4441 40.3121 28.4326 40.2529 28.435 40.1852C28.4373 40.1175 28.4441 40.0499 28.4555 39.9826C28.4667 39.9197 28.4781 39.8523 28.4941 39.7805C28.5165 39.6548 28.5433 39.5337 28.579 39.4174C28.6146 39.3011 28.6549 39.1805 28.7041 39.0647C28.724 39.0111 28.7396 38.9529 28.7552 38.8947C28.7661 38.8409 28.7816 38.7826 28.8017 38.7246C28.802 38.7156 28.8069 38.7067 28.8072 38.6977C28.8075 38.6886 28.8078 38.6796 28.8171 38.6709C28.8271 38.6441 28.8456 38.6312 28.8816 38.637C28.9487 38.6573 28.9876 38.7084 28.9938 38.79C28.9933 38.8035 28.9929 38.817 28.9926 38.8261C28.9921 38.8396 28.9961 38.8533 29.0049 38.8627C29.0187 38.8541 29.028 38.8454 29.0375 38.8321C29.047 38.8189 29.0565 38.8057 29.0705 38.7926C29.08 38.7794 29.094 38.7663 29.1081 38.7532C29.1175 38.74 29.1316 38.7269 29.1502 38.7095C29.2014 38.6661 29.2562 38.6499 29.3193 38.6566C29.3776 38.6676 29.4262 38.7009 29.4695 38.7567C29.4911 38.7845 29.5081 38.8168 29.516 38.8487C29.5238 38.8851 29.5272 38.9168 29.5352 38.9487C29.5599 39.2795 29.4333 39.5418 29.1647 39.7314C29.0906 39.783 29.0184 39.7805 28.9435 39.7237C28.9257 39.7141 28.908 39.7044 28.8904 39.6903C28.8728 39.6761 28.8599 39.6576 28.8428 39.6299ZM29.3286 38.7789C29.306 38.7781 29.2923 38.7822 29.283 38.7909L29.2597 38.8127C29.2039 38.856 29.1614 38.9087 29.1235 38.9617C29.0855 39.0146 29.0518 39.0722 29.0182 39.1298C28.9796 39.2007 28.9457 39.2673 28.9163 39.3341C28.8867 39.4054 28.8661 39.477 28.859 39.5536C28.8587 39.5626 28.8537 39.576 28.8534 39.585C28.8531 39.5941 28.8573 39.6032 28.8661 39.6081C28.8839 39.6177 28.9019 39.6183 28.9205 39.6054C28.9482 39.5883 28.9714 39.571 28.9994 39.5449C29.1113 39.4448 29.1921 39.3301 29.2417 39.2007C29.2869 39.0712 29.3143 38.9321 29.3286 38.7789Z" fill="black"/>
<path d="M22.3425 35.1147C22.3425 35.1147 20.2859 32.69 21.6498 30.4169C23.0137 28.1437 26.1311 27.8406 27.8197 29.486C29.5084 31.1313 29.3568 34.3137 27.2352 35.4828C25.1136 36.6301 23.7714 36.1539 22.3425 35.1147Z" fill="white"/>
<path d="M22.3209 35.1363C21.9961 34.725 21.758 34.292 21.5415 33.8157C21.325 33.3611 21.1735 32.8632 21.1302 32.3436C21.0652 31.824 21.1302 31.2828 21.3034 30.7848C21.4982 30.2869 21.8013 29.8539 22.1693 29.4642C22.9054 28.7065 23.9662 28.2519 25.027 28.187C26.0878 28.1437 27.2135 28.49 28.0145 29.2478C28.8156 30.0055 29.2702 31.0879 29.3351 32.192C29.3568 32.7332 29.2702 33.2961 29.0753 33.8374C28.8805 34.3569 28.5774 34.8549 28.1444 35.2445L27.8197 35.5043L27.4517 35.7208C27.2135 35.8507 26.9754 35.959 26.7156 36.0455C26.2177 36.2187 25.6765 36.327 25.1352 36.327C24.594 36.3053 24.0744 36.1754 23.5982 35.9373C23.1435 35.7208 22.7322 35.4394 22.3209 35.1363ZM22.3642 35.0713C22.7755 35.3528 23.2085 35.6126 23.6848 35.7858C24.161 35.959 24.659 36.0022 25.1352 35.9373C25.6115 35.8724 26.0661 35.6992 26.4991 35.4827C26.7156 35.3744 26.9321 35.2445 27.1269 35.1363L27.4084 34.9415L27.6465 34.7033C28.2743 34.0539 28.5991 33.1446 28.5991 32.2137C28.5991 31.2828 28.2527 30.3519 27.6032 29.6807C26.9538 29.0096 26.0012 28.6632 25.0486 28.6632C24.0961 28.6849 23.1435 29.0529 22.4291 29.7241C22.0827 30.0488 21.7796 30.4601 21.5632 30.8931C21.3683 31.3261 21.2601 31.824 21.2817 32.3219C21.3034 33.3178 21.7363 34.3136 22.3642 35.0713Z" fill="black"/>
<path d="M24.6593 32.763L24.7281 32.9114C24.7485 32.9624 24.7727 33.0111 24.7946 33.0559C24.8095 33.0892 24.822 33.1186 24.8361 33.1417C24.8501 33.1649 24.8626 33.1943 24.8767 33.2175C24.8962 33.2584 24.9034 33.2964 24.9004 33.3351C24.8975 33.3738 24.8884 33.4111 24.8769 33.4444C24.8708 33.4692 24.8577 33.4825 24.8423 33.4918C24.8268 33.5012 24.809 33.5067 24.7889 33.5083C24.7022 33.5134 24.6238 33.4975 24.5524 33.4668C24.481 33.4361 24.4243 33.386 24.3775 33.3088C24.3338 33.2454 24.2979 33.1774 24.2681 33.111C24.2384 33.0445 24.2102 32.9718 24.182 32.8991C24.1703 32.8798 24.1586 32.8605 24.1454 32.8474C24.1321 32.8343 24.115 32.8235 24.0902 32.8174C24.0553 32.8121 24.022 32.8007 23.9964 32.7845C23.9669 32.7707 23.9389 32.7507 23.9109 32.7307C23.89 32.7222 23.8744 32.7053 23.8665 32.6836C23.861 32.6658 23.8594 32.6457 23.8702 32.6286C23.8809 32.6115 23.8987 32.606 23.9189 32.6044C23.9351 32.6051 23.9576 32.6073 23.9925 32.6126C24.0445 32.6286 24.0591 32.6092 24.0426 32.5558C24.0136 32.473 23.9884 32.3879 23.957 32.3013C23.928 32.2186 23.9028 32.1335 23.8715 32.0469C23.8299 31.9347 23.7946 31.8241 23.7646 31.705C23.737 31.5897 23.7055 31.4767 23.6755 31.3576C23.663 31.3282 23.6543 31.2965 23.6457 31.2647C23.6394 31.2369 23.6284 31.2013 23.6173 31.1657C23.5874 31.2208 23.5651 31.2713 23.5429 31.3217C23.523 31.3761 23.5046 31.4242 23.4886 31.4761C23.4589 31.5839 23.4392 31.6909 23.4296 31.7971C23.42 31.9032 23.4267 32.0101 23.4496 32.1177C23.4513 32.1378 23.4459 32.1464 23.4304 32.1557C23.4072 32.1698 23.3848 32.1675 23.3591 32.1514C23.2668 32.1123 23.2084 32.0421 23.1847 31.9508C23.1485 31.8038 23.14 31.6504 23.1719 31.4938C23.2189 31.2752 23.2963 31.0804 23.4032 30.8994C23.5062 30.7208 23.6472 30.5614 23.8216 30.4134C23.8996 30.3504 23.9783 30.2973 24.068 30.2536C24.1538 30.2121 24.2466 30.1823 24.3456 30.1539C24.5484 30.105 24.739 30.1321 24.923 30.2265C25.097 30.3218 25.2299 30.4366 25.3266 30.5787C25.4233 30.7208 25.4775 30.8887 25.4931 31.0799C25.534 31.5832 25.3888 32.0146 25.0542 32.3863C25.0304 32.4166 25.0003 32.4454 24.9625 32.4789C24.968 32.4967 24.9789 32.5059 24.9928 32.5028C25.0052 32.5058 25.0191 32.5027 25.0315 32.5057C25.1284 32.5262 25.2254 32.5467 25.3184 32.5695C25.41 32.5985 25.5045 32.6151 25.6068 32.6271C25.6851 32.643 25.7611 32.6551 25.8347 32.6632C25.9083 32.6714 25.9858 32.6773 26.0664 32.6707C26.0826 32.6714 26.1051 32.6737 26.1252 32.672C26.1454 32.6704 26.1586 32.6835 26.1703 32.7028C26.1953 32.7616 26.1909 32.8065 26.1539 32.8501C26.1139 32.906 26.0707 32.948 26.0166 32.9808C25.9625 33.0136 25.9076 33.0363 25.8395 33.0459C25.5972 33.0818 25.3639 33.0542 25.1451 32.9545C25.0636 32.9246 24.986 32.8924 24.9045 32.8626C24.8254 32.8366 24.7493 32.7982 24.6748 32.7536L24.6593 32.763ZM23.6288 31.1324C23.6845 31.1197 23.7271 31.1203 23.7628 31.1356C23.8009 31.1548 23.8312 31.1787 23.86 31.2088C23.8694 31.2242 23.8849 31.2412 23.8943 31.2567C23.9037 31.2721 23.9169 31.2852 23.9262 31.3007C23.9567 31.3509 23.9871 31.4011 24.0152 31.4475C24.0394 31.4961 24.066 31.5487 24.0926 31.6013C24.1504 31.7141 24.2043 31.8293 24.2622 31.9421C24.32 32.0549 24.374 32.1701 24.4318 32.283C24.4349 32.2969 24.442 32.3085 24.4466 32.3162C24.4537 32.3278 24.4645 32.337 24.477 32.3401C24.5727 32.2715 24.6606 32.1812 24.7329 32.074C24.8554 31.91 24.9483 31.7322 25.0141 31.5445C25.076 31.3591 25.1046 31.1622 25.0974 30.95C25.0967 30.792 25.0496 30.6357 24.9606 30.4889C24.8733 30.3623 24.7576 30.3109 24.6122 30.341C24.5882 30.345 24.5704 30.3505 24.5502 30.3521C24.4411 30.3813 24.3429 30.4197 24.2479 30.472C24.1552 30.5282 24.0672 30.5921 23.9862 30.6676C23.8465 30.7944 23.7295 30.9499 23.6288 31.1324ZM26.1279 31.6775C26.1827 31.8027 26.2352 31.9241 26.2891 32.0393C26.3431 32.1545 26.4086 32.2626 26.4819 32.3661C26.5139 32.4101 26.5148 32.4465 26.4933 32.4807C26.4741 32.5187 26.4393 32.5398 26.3943 32.5353C26.3215 32.5372 26.2657 32.5235 26.2168 32.4951C26.1679 32.4666 26.1258 32.4234 26.0907 32.3655C26.0556 32.3076 26.0244 32.2473 25.997 32.1847C25.9719 32.1259 25.9445 32.0633 25.9187 31.9945C25.8686 31.8769 25.8247 31.7609 25.7908 31.6441C25.757 31.5273 25.7247 31.4043 25.7025 31.2805C25.6898 31.2247 25.671 31.1675 25.6521 31.1103C25.6318 31.0592 25.6129 31.002 25.598 30.9424C25.5933 30.9347 25.5925 30.9246 25.5878 30.9169C25.5831 30.9092 25.5784 30.9014 25.5814 30.889C25.5751 30.8612 25.5836 30.8402 25.6168 30.8254C25.6841 30.8057 25.7446 30.8271 25.7945 30.892C25.8015 30.9036 25.8085 30.9151 25.8132 30.9229C25.8202 30.9345 25.8311 30.9437 25.8435 30.9467C25.8504 30.932 25.8535 30.9196 25.8542 30.9033C25.8549 30.8871 25.8556 30.8708 25.8601 30.8522C25.8608 30.8359 25.8654 30.8173 25.87 30.7987C25.8707 30.7824 25.8752 30.7638 25.8813 30.739C25.9004 30.6746 25.9374 30.6311 25.9938 30.6022C26.0487 30.5794 26.1076 30.5807 26.1743 30.6037C26.2077 30.6151 26.2395 30.6328 26.2636 30.6552C26.2901 30.6814 26.3103 30.7061 26.3344 30.7285C26.5362 30.9917 26.5739 31.2805 26.4529 31.5862C26.4192 31.67 26.3574 31.7074 26.2636 31.7009C26.2435 31.7025 26.2233 31.7042 26.2009 31.7019C26.1784 31.6997 26.1574 31.6913 26.1279 31.6775ZM26.0686 30.6994C26.0493 30.7111 26.04 30.722 26.037 30.7344L26.0294 30.7654C26.0065 30.8322 25.9998 30.8996 25.997 30.9647C25.9942 31.0297 25.9976 31.0963 26.001 31.1629C26.0075 31.2435 26.0156 31.3178 26.0275 31.3898C26.0418 31.4656 26.0638 31.5368 26.0997 31.6048C26.1044 31.6125 26.1076 31.6265 26.1123 31.6342C26.1169 31.6419 26.1255 31.6473 26.1356 31.6465C26.1557 31.6448 26.1711 31.6355 26.1796 31.6145C26.1934 31.585 26.2033 31.5579 26.2125 31.5206C26.2513 31.3756 26.2561 31.2354 26.2269 31.1C26.1937 30.9669 26.1405 30.8354 26.0686 30.6994Z" fill="black"/>
<path d="M28.3611 37.9941C28.3611 37.9941 26.3044 35.5694 27.6683 33.2963C29.0322 31.0231 32.1497 30.72 33.8383 32.3654C35.5269 34.0107 35.3754 37.1931 33.2538 38.3621C31.1322 39.5095 29.7899 39.0332 28.3611 37.9941Z" fill="white"/>
<path d="M28.3394 38.0157C28.0147 37.6043 27.7765 37.1714 27.5601 36.6951C27.3436 36.2405 27.192 35.7425 27.1487 35.2229C27.0838 34.7034 27.1487 34.1622 27.3219 33.6642C27.5168 33.1663 27.8198 32.7333 28.1879 32.3436C28.9239 31.5859 29.9847 31.1313 31.0455 31.0663C32.1063 31.0231 33.2321 31.3694 34.0331 32.1272C34.8341 32.8849 35.2887 33.9673 35.3537 35.0714C35.3753 35.6126 35.2888 36.1755 35.0939 36.7167C34.8991 37.2363 34.596 37.7342 34.163 38.1239L33.8383 38.3837L33.4702 38.6002C33.2321 38.7301 32.994 38.8383 32.7342 38.9249C32.2362 39.0981 31.695 39.2064 31.1538 39.2064C30.6126 39.1847 30.093 39.0548 29.6167 38.8167C29.1621 38.6002 28.7508 38.3188 28.3394 38.0157ZM28.3827 37.9507C28.7941 38.2322 29.227 38.4919 29.7033 38.6651C30.1796 38.8383 30.6775 38.8816 31.1538 38.8167C31.6301 38.7518 32.0847 38.5785 32.5177 38.362C32.7342 38.2538 32.9507 38.1239 33.1455 38.0157L33.4269 37.8208L33.6651 37.5827C34.2929 36.9332 34.6176 36.024 34.6176 35.0931C34.6176 34.1621 34.2712 33.2313 33.6218 32.5601C32.9723 31.889 32.0198 31.5426 31.0672 31.5426C30.1146 31.5643 29.1621 31.9323 28.4477 32.6034C28.1013 32.9282 27.7982 33.3395 27.5817 33.7725C27.3869 34.2055 27.2786 34.7034 27.3003 35.2013C27.3219 36.1972 27.7549 37.193 28.3827 37.9507Z" fill="black"/>
<path d="M30.6749 35.6411L30.7438 35.7896C30.7641 35.8406 30.7884 35.8893 30.8102 35.9341C30.8251 35.9674 30.8376 35.9967 30.8517 36.0199C30.8657 36.0431 30.8783 36.0725 30.8923 36.0956C30.9118 36.1366 30.919 36.1745 30.9161 36.2133C30.9131 36.252 30.904 36.2892 30.8925 36.3226C30.8864 36.3474 30.8733 36.3606 30.8579 36.37C30.8424 36.3794 30.8246 36.3849 30.8045 36.3865C30.7178 36.3915 30.6395 36.3756 30.5681 36.345C30.4967 36.3143 30.4399 36.2642 30.3931 36.1869C30.3494 36.1236 30.3135 36.0556 30.2838 35.9891C30.254 35.9226 30.2258 35.85 30.1976 35.7773C30.1859 35.758 30.1742 35.7386 30.161 35.7255C30.1478 35.7124 30.1307 35.7017 30.1058 35.6956C30.071 35.6903 30.0376 35.6788 30.012 35.6627C29.9825 35.6489 29.9545 35.6289 29.9265 35.6088C29.9056 35.6004 29.89 35.5834 29.8822 35.5618C29.8767 35.544 29.875 35.5239 29.8858 35.5068C29.8966 35.4897 29.9144 35.4842 29.9345 35.4825C29.9508 35.4832 29.9732 35.4855 30.0081 35.4907C30.0601 35.5068 30.0747 35.4873 30.0582 35.434C30.0292 35.3512 30.004 35.2661 29.9726 35.1795C29.9436 35.0967 29.9185 35.0117 29.8871 34.925C29.8455 34.8129 29.8102 34.7023 29.7802 34.5831C29.7526 34.4678 29.7211 34.3549 29.6911 34.2357C29.6786 34.2064 29.67 34.1746 29.6613 34.1429C29.655 34.1151 29.644 34.0795 29.633 34.0439C29.603 34.099 29.5808 34.1495 29.5585 34.1999C29.5386 34.2542 29.5203 34.3023 29.5042 34.3543C29.4745 34.4621 29.4548 34.5691 29.4452 34.6753C29.4356 34.7814 29.4423 34.8883 29.4652 34.9959C29.4669 35.016 29.4615 35.0245 29.446 35.0339C29.4229 35.0479 29.4004 35.0457 29.3748 35.0296C29.2824 34.9905 29.224 34.9202 29.2004 34.8289C29.1641 34.6819 29.1556 34.5286 29.1875 34.372C29.2345 34.1533 29.3119 33.9586 29.4188 33.7776C29.5218 33.599 29.6628 33.4396 29.8372 33.2916C29.9152 33.2285 29.994 33.1755 30.0836 33.1317C30.1694 33.0903 30.2622 33.0604 30.3613 33.0321C30.564 32.9832 30.7547 33.0102 30.9387 33.1047C31.1126 33.2 31.2456 33.3148 31.3422 33.4569C31.4389 33.599 31.4931 33.7668 31.5087 33.9581C31.5497 34.4614 31.4044 34.8927 31.0699 35.2645C31.046 35.2948 31.0159 35.3236 30.9781 35.3571C30.9836 35.3749 30.9945 35.3841 31.0084 35.3809C31.0208 35.384 31.0347 35.3808 31.0472 35.3839C31.1441 35.4044 31.241 35.4248 31.334 35.4477C31.4256 35.4767 31.5202 35.4933 31.6225 35.5053C31.7008 35.5212 31.7767 35.5332 31.8503 35.5414C31.924 35.5496 32.0015 35.5555 32.082 35.5489C32.0983 35.5496 32.1207 35.5518 32.1409 35.5502C32.161 35.5486 32.1742 35.5617 32.1859 35.581C32.211 35.6397 32.2065 35.6847 32.1695 35.7282C32.1295 35.7842 32.0863 35.8262 32.0322 35.859C31.9782 35.8917 31.9233 35.9145 31.8551 35.9241C31.6129 35.96 31.3796 35.9324 31.1607 35.8326C31.0792 35.8028 31.0016 35.7706 30.9202 35.7408C30.841 35.7148 30.765 35.6764 30.6904 35.6318L30.6749 35.6411ZM29.6444 34.0105C29.7002 33.9979 29.7428 33.9985 29.7785 34.0138C29.8165 34.033 29.8468 34.0569 29.8756 34.087C29.885 34.1024 29.9005 34.1194 29.9099 34.1348C29.9193 34.1503 29.9325 34.1634 29.9419 34.1789C29.9723 34.2291 30.0027 34.2793 30.0308 34.3256C30.0551 34.3743 30.0816 34.4269 30.1082 34.4794C30.166 34.5923 30.22 34.7074 30.2778 34.8203C30.3356 34.9331 30.3896 35.0483 30.4474 35.1611C30.4506 35.1751 30.4576 35.1866 30.4623 35.1944C30.4693 35.206 30.4802 35.2152 30.4926 35.2182C30.5883 35.1497 30.6762 35.0594 30.7486 34.9522C30.871 34.7882 30.9639 34.6104 31.0297 34.4227C31.0916 34.2373 31.1202 34.0404 31.1131 33.8282C31.1124 33.6702 31.0652 33.5139 30.9762 33.3671C30.8889 33.2405 30.7733 33.1891 30.6278 33.2192C30.6038 33.2231 30.586 33.2286 30.5659 33.2303C30.4568 33.2594 30.3586 33.2978 30.2635 33.3501C30.1708 33.4063 30.0828 33.4702 30.0018 33.5457C29.8622 33.6726 29.7451 33.8281 29.6444 34.0105ZM32.1436 34.5557C32.1984 34.6809 32.2508 34.8023 32.3047 34.9175C32.3587 35.0326 32.4243 35.1408 32.4975 35.2443C32.5295 35.2883 32.5304 35.3247 32.5089 35.3588C32.4897 35.3969 32.4549 35.418 32.41 35.4135C32.3372 35.4154 32.2813 35.4017 32.2324 35.3732C32.1835 35.3448 32.1415 35.3016 32.1063 35.2437C32.0712 35.1857 32.04 35.1255 32.0126 35.0628C31.9875 35.0041 31.9602 34.9415 31.9343 34.8726C31.8842 34.7551 31.8403 34.6391 31.8065 34.5223C31.7726 34.4055 31.7403 34.2825 31.7181 34.1586C31.7055 34.1029 31.6866 34.0457 31.6678 33.9884C31.6474 33.9374 31.6286 33.8802 31.6136 33.8206C31.6089 33.8129 31.6081 33.8028 31.6034 33.7951C31.5987 33.7873 31.594 33.7796 31.5971 33.7672C31.5908 33.7394 31.5992 33.7184 31.6324 33.7035C31.6997 33.6839 31.7602 33.7053 31.8101 33.7701C31.8171 33.7817 31.8241 33.7933 31.8288 33.801C31.8359 33.8126 31.8467 33.8219 31.8591 33.8249C31.8661 33.8102 31.8691 33.7978 31.8698 33.7815C31.8705 33.7652 31.8712 33.749 31.8758 33.7303C31.8765 33.7141 31.881 33.6955 31.8856 33.6769C31.8863 33.6606 31.8909 33.642 31.897 33.6172C31.916 33.5528 31.953 33.5092 32.0094 33.4803C32.0643 33.4576 32.1232 33.4589 32.1899 33.4819C32.2233 33.4933 32.2551 33.511 32.2792 33.5334C32.3057 33.5596 32.3259 33.5843 32.35 33.6066C32.5518 33.8699 32.5895 34.1586 32.4685 34.4644C32.4348 34.5482 32.373 34.5856 32.2792 34.5791C32.2591 34.5807 32.239 34.5823 32.2165 34.5801C32.194 34.5779 32.1731 34.5695 32.1436 34.5557ZM32.0842 33.5776C32.0649 33.5893 32.0557 33.6002 32.0526 33.6126L32.045 33.6436C32.0221 33.7103 32.0154 33.7778 32.0126 33.8428C32.0098 33.9079 32.0132 33.9745 32.0166 34.0411C32.0231 34.1216 32.0312 34.196 32.0431 34.268C32.0574 34.3438 32.0794 34.415 32.1154 34.483C32.12 34.4907 32.1232 34.5046 32.1279 34.5124C32.1326 34.5201 32.1411 34.5255 32.1512 34.5246C32.1713 34.523 32.1868 34.5136 32.1952 34.4927C32.209 34.4632 32.219 34.436 32.2281 34.3988C32.2669 34.2538 32.2717 34.1136 32.2425 33.9781C32.2094 33.8451 32.1561 33.7136 32.0842 33.5776Z" fill="black"/>
</g>
<path d="M38.8609 9.20088C38.0816 9.13593 37.3022 9.07098 36.5228 8.98439L36.6527 8.9411C36.4146 9.28748 36.1115 9.6122 35.8084 9.89363C35.4837 10.1751 35.1373 10.4349 34.7476 10.6297C34.3579 10.8462 33.9249 10.9328 33.492 10.9544C33.3837 10.9544 33.2755 10.9544 33.1672 10.9544C33.059 10.9328 32.9507 10.9328 32.8425 10.9112C32.7992 10.9112 32.7343 10.8895 32.691 10.8895L32.5394 10.8462C32.4312 10.8029 32.3446 10.7812 32.2363 10.7379V10.6947C32.6477 10.6947 33.059 10.7163 33.4487 10.6081C33.8384 10.5215 34.2064 10.4132 34.5528 10.24C34.9208 10.0885 35.2672 9.872 35.5703 9.63386C35.895 9.39572 36.1764 9.11428 36.4362 8.78954L36.4795 8.72461L36.5445 8.74625C37.3238 8.87615 38.0816 9.02768 38.8609 9.20088Z" fill="#010101"/>
</svg>
