<svg width="58" height="50" viewBox="0 0 58 50" fill="none" xmlns="http://www.w3.org/2000/svg">
<path opacity="0.2" d="M26.0268 46.153C40.401 46.153 52.0536 35.8213 52.0536 23.0765C52.0536 10.3317 40.401 0 26.0268 0C11.6526 0 0 10.3317 0 23.0765C0 35.8213 11.6526 46.153 26.0268 46.153Z" fill="#84BD41"/>
<path d="M16.4208 22.3217L15.8719 21.5898H2.03516V23.3509H15.8033L16.4208 22.3217Z" fill="#EAEAEA"/>
<path d="M31.2871 19.0515L52.3282 19.5547L52.0766 33.8717H31.0127L31.2871 19.0515Z" fill="#F4F4F5"/>
<path d="M20.1953 33.8718H32.3396V18.457L26.2789 10.3379L20.1953 18.6857V33.8718Z" fill="white"/>
<path d="M19.1431 18.5712L25.1581 10.475C25.5698 9.9032 26.233 9.58301 26.942 9.58301H45.0098C45.7188 9.58301 46.4049 9.92608 46.8166 10.5207L52.7859 18.96C52.9688 19.2116 52.7859 19.5775 52.4657 19.5775H33.6431C33.0485 19.5775 32.4767 19.2802 32.1108 18.7999L26.416 10.818L20.1723 19.5775L19.5319 19.486C19.0745 19.4174 18.8687 18.9142 19.1431 18.5712Z" fill="#84BD41"/>
<path d="M20.1722 19.5547L20.3323 24.3575L20.4466 29.1604L20.5152 31.5618L20.5381 32.751V33.3457C20.5381 33.4143 20.561 33.4829 20.6296 33.5058C20.6524 33.5058 20.6524 33.5287 20.6753 33.5287C20.6982 33.5287 20.6753 33.5287 20.7211 33.5287H20.7897H21.087L21.6816 33.5515C22.0704 33.5744 22.4821 33.5744 22.8709 33.6201C23.6714 33.6659 24.4718 33.7345 25.2723 33.826V33.8946C24.4718 33.9861 23.6714 34.0547 22.8709 34.1004C22.4821 34.1233 22.0704 34.1462 21.6816 34.169L21.087 34.1919H20.7897H20.7211C20.6982 34.1919 20.6524 34.1919 20.6067 34.1919C20.5152 34.1919 20.4466 34.169 20.3551 34.1233C20.0349 34.0089 19.8291 33.6659 19.8291 33.3457V32.751L19.852 31.5618L19.8977 29.1604L19.9892 24.3575L20.1035 19.5547H20.1722Z" fill="black"/>
<path d="M32.3623 20.218L32.4538 22.9625L32.5224 25.707C32.5453 26.6218 32.591 27.5366 32.5681 28.4515C32.5453 29.3663 32.4995 30.2811 32.3623 31.1959H32.3166C32.1793 30.2811 32.1336 29.3663 32.1107 28.4515C32.0879 27.5366 32.1336 26.6218 32.1565 25.707L32.2251 22.9625L32.3166 20.218H32.3623Z" fill="black"/>
<path d="M26.5302 20.8582C26.5302 22.1389 26.5073 23.3968 26.4844 24.6776C26.4844 25.3179 26.4844 25.9583 26.4387 26.5758C26.3929 27.2162 26.3701 27.8337 26.2786 28.4741H26.2557C26.21 27.8337 26.21 27.1933 26.21 26.5758C26.21 25.9354 26.2557 25.2951 26.3014 24.6776C26.3701 23.3968 26.4387 22.116 26.5302 20.8582Z" fill="black"/>
<path d="M22.7344 24.4488C23.9923 24.426 25.273 24.3802 26.5309 24.3802C27.1713 24.3574 27.7888 24.3345 28.4292 24.3574C29.0696 24.3802 29.6871 24.4031 30.3274 24.4488V24.4717C29.6871 24.5403 29.0696 24.5632 28.4292 24.5861C27.7888 24.609 27.1713 24.5861 26.5309 24.5632C25.273 24.5403 23.9923 24.5175 22.7344 24.4946V24.4488Z" fill="black"/>
<path d="M28.0624 20.8582L22.7106 20.9269L22.8021 20.8354L22.825 22.2305C22.825 22.6879 22.825 23.1682 22.825 23.6256L22.8021 25.0207C22.7792 25.4781 22.7564 25.9584 22.7335 26.4158H22.7106C22.6878 25.9584 22.6649 25.4781 22.642 25.0207L22.6191 23.6256C22.6191 23.1682 22.6191 22.6879 22.6191 22.2305L22.642 20.8354V20.7439H22.7335L28.0852 20.8125L28.0624 20.8582Z" fill="black"/>
<path d="M24.998 28.5429L30.3498 28.4743L30.2583 28.5658L30.2354 27.1707C30.2354 26.7133 30.2354 26.233 30.2354 25.7756L30.2583 24.3805C30.2812 23.923 30.304 23.4428 30.3269 22.9854H30.3498C30.3727 23.4428 30.3955 23.923 30.4184 24.3805L30.4413 25.7756C30.4413 26.233 30.4413 26.7133 30.4413 27.1707L30.4184 28.5658V28.6573H30.3269L24.998 28.5429Z" fill="black"/>
<path d="M52.2828 33.8716L52.1227 29.0688L52.0083 24.2659L51.9397 21.8645L51.9168 20.6752V20.0806C51.9168 20.012 51.894 19.9434 51.8254 19.9205C51.8025 19.9205 51.8025 19.8976 51.7796 19.8976C51.7568 19.8976 51.7796 19.8976 51.7339 19.8976H51.6653H51.3679L50.7733 19.8748C50.3845 19.8519 49.9728 19.8519 49.584 19.8061C48.7836 19.7604 47.9831 19.6918 47.1826 19.6003V19.5317C47.9831 19.4402 48.7836 19.3716 49.584 19.3259C49.9728 19.303 50.3845 19.2801 50.7733 19.2572L51.3679 19.2344H51.6653H51.7339C51.7567 19.2344 51.8025 19.2344 51.8482 19.2344C51.9397 19.2344 52.0083 19.2572 52.0998 19.303C52.42 19.4173 52.6258 19.7604 52.6258 20.0806V20.6752L52.603 21.8645L52.5572 24.2659L52.4657 29.0688L52.3514 33.8716H52.2828Z" fill="black"/>
<path d="M34.8779 33.8485L38.9946 33.7571L43.1114 33.6885C44.4836 33.6656 45.8558 33.6198 47.2281 33.6427C47.9142 33.6656 48.6003 33.6656 49.2864 33.7113L50.3156 33.7571C50.6587 33.7799 51.0017 33.8028 51.3448 33.8485V33.8943C51.0017 33.94 50.6587 33.94 50.3156 33.9858L49.2864 34.0315C48.6003 34.0773 47.9142 34.0773 47.2281 34.1001C45.8558 34.123 44.4836 34.0772 43.1114 34.0544L38.9946 33.9858L34.8779 33.8943V33.8485Z" fill="black"/>
<path d="M47.3882 11.6644C47.2052 11.1384 46.8622 10.6581 46.4048 10.3379C45.9474 10.0177 45.4213 9.83473 44.8724 9.78899C44.3235 9.74325 43.7518 9.78899 43.18 9.78899L41.4647 9.83473C40.3212 9.8576 39.1776 9.94908 38.0341 9.90334C36.8906 9.8576 35.747 9.78899 34.6035 9.60603V9.5374C35.747 9.35444 36.8906 9.28583 38.0341 9.21722C39.1776 9.17148 40.3212 9.26296 41.4647 9.28583L43.18 9.33157C43.7518 9.35445 44.3235 9.33157 44.9182 9.42305C45.5128 9.51453 46.0846 9.76611 46.5191 10.1549C46.9765 10.5437 47.2967 11.0697 47.434 11.6186L47.3882 11.6644Z" fill="black"/>
<path d="M27.3303 9.60595C27.0102 9.62882 26.7128 9.7203 26.4155 9.83465C26.1182 9.94901 25.8438 10.1091 25.615 10.3149C25.3863 10.5208 25.1576 10.7266 24.9747 10.9782C24.8832 11.0925 24.8146 11.2298 24.7231 11.367C24.6545 11.5042 24.5859 11.6414 24.5173 11.7787V11.8015L24.4944 11.8244C24.3114 12.0988 24.1285 12.3733 23.9455 12.6706C23.7625 12.9451 23.5796 13.2195 23.3509 13.4711C23.145 13.7227 22.9163 13.9742 22.6647 14.2029C22.436 14.4317 22.1844 14.6832 21.91 14.8891L21.8643 14.8433C21.9786 14.5231 22.1387 14.2029 22.2988 13.9056C22.4589 13.6083 22.6419 13.3339 22.8248 13.0365C23.0078 12.7621 23.2136 12.4876 23.4195 12.2361C23.6482 11.9845 23.854 11.7329 24.0598 11.4813L24.037 11.5271C24.1285 11.3898 24.2199 11.2298 24.3114 11.0925C24.4258 10.9553 24.5173 10.8181 24.6316 10.7037C24.8603 10.4522 25.1348 10.2234 25.4092 10.0405C25.7065 9.85751 26.0267 9.72029 26.3469 9.65168C26.6671 9.56019 27.0102 9.51445 27.3303 9.53732V9.60595Z" fill="black"/>
<path d="M28.4977 13.7C29.0238 14.5462 29.5955 15.3695 30.1902 16.1471C30.7848 16.9247 31.4252 17.7023 32.1342 18.3427C32.5001 18.6629 32.8889 18.9373 33.2777 19.0974C33.3692 19.1432 33.4835 19.166 33.575 19.1889L33.6436 19.2118L33.7351 19.2347L33.9181 19.2575C34.1468 19.3033 34.3984 19.3261 34.6271 19.349C35.5876 19.4634 36.5711 19.5091 37.5774 19.532L37.6003 19.6006C37.12 19.7835 36.6168 19.8979 36.1137 19.9665C35.6105 20.0351 35.1074 20.058 34.5813 20.0351C34.3298 20.0123 34.0782 19.9894 33.8037 19.9665L33.6208 19.9436L33.5293 19.9208L33.4149 19.8979C33.2548 19.8522 33.1405 19.8064 33.0033 19.7378C32.5001 19.4634 32.1113 19.1203 31.7454 18.7544C31.0364 18.0225 30.4417 17.1992 29.8928 16.353C29.3668 15.5067 28.8637 14.6377 28.4062 13.7457L28.4977 13.7Z" fill="black"/>
<path d="M56.9031 40.6872L56.4914 40.4814L56.4228 39.8639L55.8967 38.2172L55.0505 38.08L55.2564 37.4396L55.0277 36.7077L54.3187 36.7992L54.09 36.4561L54.3415 35.953L53.0837 32.8883L53.8841 32.2708L52.1917 28.9546L53.015 28.5886C53.9527 28.3142 54.0442 25.8899 50.8423 22.3678C47.6404 18.8457 45.1704 20.8583 44.7816 21.2014C44.6444 21.3158 44.2556 21.4987 43.8896 21.9562L44.6444 30.0981C46.2225 32.8197 47.8691 31.3789 47.8691 31.3789L48.7382 32.2479H49.6531L55.2792 43.2259L57.3147 44.0492L57.6807 42.0823L56.9031 40.6872ZM46.8171 23.923C46.131 24.0145 45.4906 23.5114 45.422 22.8252C45.3305 22.1391 45.8337 21.4987 46.5198 21.4072C47.2059 21.3158 47.8463 21.8189 47.9378 22.505C48.0064 23.214 47.5261 23.8544 46.8171 23.923Z" fill="#CDE0AF"/>
<path d="M45.857 23.054C45.4682 22.4823 45.674 21.9333 45.674 21.9333L40.9627 22.002L38.1953 28.2228C39.0873 29.0233 39.2474 30.0524 39.2474 30.0524L39.7734 30.0296L39.9106 31.2188L40.7797 31.9736C40.7797 31.9736 40.5739 34.6494 40.3452 34.7638C40.1164 34.8553 41.1228 34.8782 41.1228 34.8782L41.2829 36.1589L40.5739 36.6849L40.551 38.4231L41.7403 39.864L40.3223 40.733L40.7111 41.8537L40.3452 42.334L40.3909 42.7685L40.9169 42.9515L40.8254 45.4673L40.2079 45.9018L41.3515 49.0351L42.2892 48.9207L43.6157 46.4278L44.0045 31.2646L44.5076 31.196L44.4847 30.0753L45.5368 30.3726C45.6511 28.36 47.5265 28.3371 47.5265 28.3371L47.5494 24.1289C46.6117 23.8545 46.1086 23.4428 45.857 23.054ZM42.495 24.8837C41.9232 24.9523 41.3972 24.5406 41.3286 23.9688C41.26 23.3971 41.6717 22.871 42.2434 22.8024C42.8152 22.7338 43.3412 23.1455 43.4098 23.7173C43.4556 24.289 43.0668 24.8151 42.495 24.8837Z" fill="#6F923D"/>
<path d="M35.7016 18.983C32.9571 19.3261 31.0131 21.7503 31.3562 24.4033C31.4477 25.1123 31.6764 25.7527 32.0423 26.3245C31.9051 26.8048 31.8593 27.4909 32.3167 28.2914C32.3167 28.2914 25.4784 40.0926 25.6385 40.7559C25.7986 41.4191 25.9816 42.3797 26.782 42.2882C27.5596 42.1967 28.9776 40.9617 29.3436 39.8639L28.8861 39.4523L29.3664 38.1257H30.1898L29.9382 37.3253L30.8759 37.2338L31.219 36.2504L31.0589 35.61L31.7221 35.4499L31.9966 34.4664L31.4934 33.7575L34.8325 29.4806C34.8325 29.4806 35.9074 29.8923 36.5707 28.6344C36.6622 28.6344 36.7537 28.6116 36.868 28.6116C39.5896 28.2685 41.5336 25.8442 41.2134 23.1912C40.9161 20.4925 38.4232 18.6399 35.7016 18.983ZM37.4855 23.6258C36.685 23.7172 35.9303 23.1455 35.8388 22.345C35.7473 21.5216 36.3191 20.7898 37.1196 20.6983C37.9429 20.6068 38.6748 21.1786 38.7663 21.9791C38.8578 22.7795 38.286 23.5114 37.4855 23.6258Z" fill="#84BD41"/>
<path d="M42.8145 12.7852C43.4091 12.7623 44.0037 12.808 44.5984 12.9453C45.193 13.0825 45.7648 13.2883 46.2908 13.6314C46.5424 13.8143 46.7939 14.0202 47.0227 14.2489C47.2514 14.4776 47.4115 14.7749 47.5029 15.0951C47.5944 15.4153 47.663 15.7355 47.6402 16.0328C47.6402 16.353 47.5715 16.6503 47.4343 16.9476H47.3657C47.2285 16.353 47.0913 15.827 46.8626 15.3467C46.7482 15.118 46.611 14.8893 46.4738 14.6834C46.3365 14.4547 46.1536 14.2718 45.9477 14.0888C45.5361 13.7457 45.0329 13.4713 44.484 13.2883C43.958 13.0825 43.3862 12.9453 42.8145 12.8766V12.7852Z" fill="black"/>
<path d="M32.0203 26.3243C31.723 25.8898 31.5171 25.3866 31.3799 24.8606C31.2427 24.3346 31.2198 23.7857 31.2655 23.2596C31.357 22.1847 31.8602 21.1327 32.592 20.3322C32.9808 19.9434 33.4154 19.6003 33.8957 19.3488C34.1244 19.2115 34.3988 19.12 34.6504 19.0057C34.9249 18.9371 35.1764 18.8456 35.4509 18.7999C36.5487 18.594 37.6922 18.7541 38.6985 19.2115C39.7048 19.6918 40.5739 20.4923 41.0999 21.5215C41.3515 22.0246 41.5116 22.5735 41.6031 23.1453C41.6717 23.717 41.626 24.2888 41.4887 24.8377C41.2372 25.9584 40.551 26.9418 39.6591 27.6051C38.7671 28.2683 37.6693 28.6342 36.5944 28.6114V28.5428C36.846 28.497 37.1204 28.4284 37.372 28.3598C37.6236 28.2683 37.8752 28.1997 38.1039 28.0625C38.5613 27.8338 38.9958 27.5593 39.3618 27.2163C39.7277 26.8732 40.0479 26.4844 40.2995 26.0499C40.551 25.6153 40.734 25.1579 40.8255 24.6776C41.0313 23.717 40.917 22.6879 40.4824 21.7959C40.0708 20.904 39.3389 20.1492 38.4469 19.6918C37.555 19.2344 36.5029 19.0514 35.4966 19.2115C35.245 19.2344 34.9935 19.303 34.7419 19.3716C34.5132 19.4631 34.2616 19.5317 34.0329 19.6689C33.5755 19.8977 33.1409 20.195 32.7979 20.5609C32.066 21.2699 31.54 22.2305 31.4256 23.2596C31.357 23.7628 31.357 24.3117 31.4714 24.8148C31.5857 25.318 31.7687 25.8211 32.0432 26.2786L32.0203 26.3243Z" fill="black"/>
<path d="M32.0654 26.3015C31.9739 26.6446 31.9739 26.9877 32.0197 27.3078C32.0654 27.628 32.2027 27.9482 32.3627 28.2455L32.3856 28.2684L32.3627 28.2913C31.5623 29.7321 30.7618 31.1959 29.9613 32.6596C29.1609 34.1233 28.3832 35.587 27.6056 37.0508C27.2168 37.7826 26.8509 38.5145 26.485 39.2692C26.302 39.6351 26.1191 40.0239 25.9818 40.3899C25.9361 40.4813 25.9132 40.5728 25.8903 40.6643C25.8903 40.6872 25.8675 40.7101 25.8903 40.7101L25.9361 40.8701C25.9818 41.076 26.0276 41.2589 26.0962 41.4419C26.1648 41.6249 26.2334 41.785 26.3478 41.8993C26.4621 42.0137 26.5536 42.0594 26.7137 42.0366C26.8509 42.0366 27.0339 41.9679 27.194 41.8765C27.3541 41.785 27.5142 41.6706 27.6743 41.5563C27.9944 41.3276 28.2689 41.0302 28.5205 40.7329C28.772 40.4356 28.9779 40.0925 29.0922 39.7495L29.1837 40.0697L28.7263 39.658L28.5662 39.5208L28.6348 39.3149L29.0922 37.9656L29.1609 37.7369H29.4124H30.2358L29.8927 38.1943L29.6411 37.3938L29.5039 36.9821L29.9385 36.9364C30.2586 36.9135 30.556 36.8678 30.8762 36.8449L30.5788 37.0736L30.9219 36.0902V36.296L30.7847 35.6556L30.7161 35.3126L31.0591 35.244L31.7224 35.0839L31.4708 35.3126L31.7681 34.3291L31.8138 34.6036L31.3336 33.8717L31.1963 33.6659L31.3336 33.5058C31.9053 32.7968 32.4771 32.1107 33.0717 31.4017L33.9408 30.3496C34.2381 30.0066 34.5126 29.6635 34.8099 29.3205L34.8785 29.229L34.97 29.2747C35.1072 29.3205 35.2673 29.3433 35.4274 29.3433C35.5875 29.3433 35.7476 29.2976 35.9077 29.229C36.0449 29.1604 36.1821 29.0689 36.3194 28.9317C36.388 28.8859 36.4337 28.7944 36.4795 28.7487C36.5252 28.6801 36.5709 28.6115 36.6167 28.5429L36.6853 28.5657C36.6396 28.6343 36.6167 28.7258 36.5709 28.7944C36.5252 28.863 36.4795 28.9545 36.4109 29.0231C36.2965 29.1604 36.1593 29.2976 35.9992 29.3891C35.8391 29.4806 35.6561 29.5492 35.4732 29.572C35.2902 29.5949 35.1072 29.5949 34.9014 29.5263L35.0615 29.4806C34.8099 29.8465 34.5355 30.2124 34.261 30.5783L33.4605 31.6761C32.9345 32.408 32.3856 33.1399 31.8367 33.8717L31.8596 33.5058L32.3627 34.2148L32.4542 34.3291L32.4085 34.4892L32.1569 35.4727L32.1112 35.6556L31.9053 35.7014L31.2421 35.8615L31.4937 35.4498L31.6538 36.0902L31.6766 36.1817L31.6538 36.2731L31.3107 37.2566L31.2421 37.4624L31.0134 37.4853C30.6932 37.5082 30.3959 37.531 30.0757 37.5539L30.373 37.0965L30.6246 37.897L30.7618 38.3544H30.3044L29.481 38.3315L29.8012 38.1028L29.2981 39.4293L29.2066 39.0862L29.6411 39.4979L29.8012 39.6351L29.7326 39.8181C29.5725 40.2526 29.3209 40.6414 29.0465 40.9616C28.7492 41.3047 28.4519 41.602 28.0859 41.8536C27.903 41.9908 27.72 42.1052 27.5142 42.1966C27.3083 42.2881 27.0796 42.3796 26.8052 42.4025C26.6679 42.4025 26.5307 42.3796 26.3935 42.3339C26.2563 42.2653 26.1419 42.1966 26.0504 42.0823C25.8675 41.8765 25.776 41.6706 25.7074 41.4419C25.6388 41.2361 25.593 41.0302 25.5473 40.8244L25.5244 40.6643C25.5244 40.6414 25.5244 40.5957 25.5244 40.55C25.5244 40.5271 25.5244 40.5042 25.5244 40.4813C25.5244 40.4356 25.5473 40.4127 25.5473 40.3899C25.5702 40.2755 25.6159 40.1611 25.6616 40.0697C25.8217 39.6809 26.0047 39.2921 26.2105 38.9261C26.5993 38.1943 26.9881 37.4624 27.3998 36.7306C28.2003 35.2668 29.0236 33.826 29.8698 32.408C30.7161 30.9671 31.5394 29.5492 32.4085 28.1083V28.1769C32.2484 27.8796 32.134 27.5365 32.0883 27.1935C32.0426 26.8504 32.0654 26.5074 32.1798 26.1643V26.1872L32.0654 26.3015Z" fill="black"/>
<path d="M40.9622 12.7851C39.8873 12.9909 38.881 13.5627 38.1491 14.3632C37.3944 15.1408 36.8912 16.1699 36.754 17.222C36.5939 18.2969 36.8455 19.349 37.28 20.3095C37.5087 20.7898 37.806 21.2472 38.1262 21.6818C38.4693 22.1163 38.8352 22.5051 39.2469 22.8939L39.224 22.9397C38.7437 22.6423 38.3092 22.2993 37.8975 21.9105C37.5087 21.4988 37.1657 21.0414 36.8912 20.5382L36.7997 20.3553L36.7082 20.1494C36.6396 20.0122 36.5939 19.875 36.5482 19.7378C36.5024 19.6005 36.4567 19.4633 36.4338 19.3261C36.4109 19.1889 36.3652 19.0516 36.3652 18.8915C36.2966 18.3198 36.2966 17.7251 36.4109 17.1762C36.6168 16.0556 37.1885 15.0035 38.0119 14.2259C38.8352 13.4483 39.8873 12.9223 40.9851 12.7622L40.9622 12.7851Z" fill="black"/>
<path d="M47.4343 20.0579C47.4572 20.8583 47.2285 21.6817 46.7711 22.3907C46.3137 23.0997 45.5818 23.6257 44.8042 23.923C44.0038 24.1975 43.1575 24.3576 42.3342 24.2661C41.5108 24.1746 40.7104 23.9459 39.9785 23.5799L40.0014 23.5113C40.8247 23.5113 41.6023 23.5799 42.3799 23.5799C42.5629 23.5799 42.7687 23.5799 42.9517 23.5799C43.1347 23.5799 43.3405 23.58 43.5235 23.5571C43.9123 23.5571 44.2782 23.4885 44.6441 23.397C45.376 23.1912 46.0392 22.8024 46.5195 22.1848C46.9998 21.5902 47.2971 20.8355 47.3886 20.0579H47.4343Z" fill="black"/>
<path d="M38.7671 21.9792C38.8128 22.368 38.6984 22.7797 38.4697 23.077C38.241 23.3972 37.8751 23.6259 37.4863 23.6716C37.0975 23.7403 36.663 23.6259 36.3428 23.3743C36.0226 23.1227 35.7939 22.7568 35.7481 22.3451C35.6795 21.9335 35.7939 21.4989 36.0454 21.1787C36.297 20.8357 36.6858 20.6298 37.0975 20.5841C37.5092 20.5384 37.9437 20.6756 38.241 20.95C38.5383 21.2016 38.7213 21.5904 38.7671 21.9792ZM38.7442 21.9792C38.6984 21.5904 38.4697 21.2474 38.1495 21.0415C37.8294 20.8357 37.4634 20.7671 37.1204 20.8128C36.7773 20.8586 36.4342 21.0415 36.2055 21.3388C35.9768 21.6133 35.8625 21.9792 35.9082 22.3451C35.954 22.7111 36.1369 23.0541 36.4342 23.2828C36.7316 23.5115 37.0975 23.6259 37.4634 23.5802C37.8294 23.5344 38.1953 23.3515 38.424 23.0541C38.6756 22.7568 38.7899 22.3451 38.7442 21.9792Z" fill="black"/>
<path d="M41.4199 48.9894L42.3576 48.8522L42.3119 48.8751L43.5926 46.3593V46.4051L43.6841 38.8349L43.7984 31.2647V31.036L44.05 31.0131L44.5532 30.9445L44.3016 31.2418L44.2559 30.1211L44.233 29.7095L44.6447 29.8238L45.6967 30.1211L45.285 30.4185C45.3079 30.2813 45.3079 30.1212 45.3308 29.9839C45.3765 29.8467 45.3765 29.6866 45.4451 29.5494C45.5366 29.2521 45.7196 29.0005 45.9254 28.7718C46.1541 28.5431 46.4057 28.383 46.6801 28.2686C46.8174 28.2229 46.9546 28.1543 47.1147 28.1314C47.2748 28.0857 47.3891 28.0628 47.5721 28.0628L47.229 28.4058C47.229 27.6969 47.229 27.0107 47.2519 26.3018C47.2519 25.5928 47.2748 24.9066 47.2748 24.1977L47.5035 24.5178C46.9546 24.3577 46.4057 24.129 45.9712 23.6945C45.7425 23.4887 45.5595 23.2142 45.468 22.9169C45.4223 22.7568 45.3994 22.5967 45.3994 22.4366C45.3994 22.2765 45.4223 22.1164 45.468 21.9335L45.6967 22.2536L43.341 22.2079C42.5634 22.185 41.763 22.1622 40.9854 22.1164V22.0478C41.763 21.9792 42.5634 21.9334 43.341 21.8877L45.6967 21.7734L46.0169 21.7505L45.9254 22.0935C45.9025 22.1622 45.9025 22.2994 45.9025 22.3909C45.9025 22.5052 45.9254 22.5967 45.9712 22.7111C46.0398 22.9169 46.1999 23.0999 46.36 23.2599C46.7259 23.5573 47.2062 23.7631 47.6865 23.9003L47.9152 23.9689V24.2205C47.9152 24.9295 47.938 25.6156 47.938 26.3246C47.938 27.0336 47.938 27.7197 47.938 28.4287V28.7718L47.595 28.7946C47.5035 28.7946 47.3891 28.8175 47.2748 28.8404C47.1604 28.8633 47.0461 28.909 46.9546 28.9319C46.7488 29.0234 46.5658 29.1377 46.4057 29.2749C46.2685 29.435 46.1312 29.5951 46.0626 29.801C46.0169 29.8924 45.994 30.0068 45.9712 30.1211C45.9483 30.2355 45.9483 30.3499 45.9254 30.4642L45.8568 30.853L45.5137 30.7387L44.4617 30.4185L44.8505 30.1211L44.8734 31.2418V31.5163L44.6218 31.5391L44.1186 31.5849L44.3702 31.3104L44.0958 38.8806L43.7984 46.4508V46.4737V46.4965L42.4491 48.9666L42.4262 48.9894H42.4033L41.4656 49.1038L41.4199 48.9894Z" fill="black"/>
<path d="M39.7952 30.0067L39.9781 31.1731L39.9553 31.1273L40.8472 31.8592L40.893 31.8821V31.9278C40.8701 32.5453 40.8244 33.1628 40.7557 33.7803C40.7329 33.9404 40.71 34.1005 40.6871 34.2377C40.6643 34.3064 40.6643 34.3978 40.6414 34.4664C40.6185 34.5579 40.6185 34.6265 40.5499 34.7409C40.527 34.7638 40.527 34.7638 40.5042 34.7866C40.4813 34.8095 40.4356 34.8324 40.4584 34.8324H40.4813C40.4813 34.8324 40.4813 34.8324 40.5042 34.8095C40.5042 34.8095 40.527 34.7638 40.5499 34.7409C40.5499 34.718 40.5728 34.6952 40.5499 34.6494C40.5499 34.6266 40.527 34.6037 40.527 34.6037C40.527 34.6037 40.527 34.5808 40.5042 34.5808L40.4813 34.5579H40.527C40.5956 34.5579 40.6643 34.5808 40.7329 34.5808C40.893 34.5808 41.0302 34.5808 41.1903 34.5808H41.3504L41.3732 34.7638L41.5562 36.0445L41.5791 36.1817L41.4647 36.2732L40.7786 36.8221L40.8701 36.6163L40.893 38.3545L40.8244 38.1715L42.0594 39.5895L42.3109 39.8868L41.9679 40.0926L41.2589 40.5272C41.0302 40.6873 40.7786 40.8245 40.5499 40.9617L40.6871 40.5501C40.8244 40.916 40.9387 41.3048 41.0531 41.6707L41.0988 41.8537L40.9844 41.9909L40.5956 42.4712L40.6643 42.2425L40.6871 42.677L40.5042 42.4483L41.0302 42.6542L41.2132 42.7228L41.1903 42.8829C41.1217 43.7291 41.0302 44.5524 40.893 45.3986H40.8244C40.7557 44.5524 40.71 43.7062 40.6871 42.8829L40.8472 43.1344L40.2983 42.9743L40.1382 42.9286L40.1154 42.7456L40.0468 42.3111L40.0239 42.1967L40.1154 42.0824L40.4813 41.5792L40.4356 41.8765C40.2983 41.5106 40.1611 41.1447 40.0239 40.7788L39.9324 40.5043L40.184 40.3442C40.4127 40.207 40.6414 40.0469 40.893 39.9097L41.602 39.498L41.5105 40.0012L40.3669 38.5146L40.2983 38.4231V38.3316L40.3441 36.5934V36.4562L40.4356 36.3876L41.1445 35.8844L41.0531 36.0903L40.9158 34.8095L41.1217 34.9925C40.9616 34.9925 40.8015 34.9696 40.6414 34.9696C40.5728 34.9696 40.4813 34.9467 40.3898 34.9467L40.3212 34.9239C40.2983 34.9239 40.2755 34.9239 40.2297 34.8781L40.2068 34.8553C40.184 34.8553 40.184 34.8324 40.1611 34.8095L40.1382 34.7866C40.1382 34.7638 40.1154 34.7409 40.1154 34.7409C40.1154 34.6952 40.1154 34.6494 40.1154 34.6265C40.1154 34.6037 40.1382 34.5579 40.1611 34.5579L40.184 34.5351C40.2068 34.5122 40.2068 34.5122 40.2297 34.5122C40.2068 34.5351 40.2297 34.5122 40.2068 34.5351C40.2068 34.5122 40.2526 34.4436 40.2755 34.375C40.2983 34.3064 40.3212 34.2377 40.3212 34.1691C40.3441 34.0319 40.3898 33.8718 40.4127 33.7117C40.5042 33.1171 40.5956 32.4996 40.6643 31.8821L40.71 31.9736L39.8638 31.1959L39.8409 31.1731V31.1502L39.7266 29.9609L39.7952 30.0067Z" fill="black"/>
<path d="M43.4101 23.717C43.4329 23.9915 43.3643 24.2659 43.2042 24.4946C43.0441 24.7233 42.7926 24.8834 42.4952 24.9292C42.2208 24.9749 41.9006 24.9063 41.6719 24.7233C41.4432 24.5404 41.2831 24.2659 41.2374 23.9915C41.1916 23.6941 41.2602 23.3739 41.4432 23.1452C41.6262 22.8937 41.9006 22.7336 42.2208 22.7107C42.5181 22.6878 42.8383 22.7793 43.0441 22.9852C43.25 23.1681 43.3643 23.4426 43.4101 23.717ZM43.3872 23.717C43.3415 23.4426 43.1814 23.2139 42.9755 23.0766C42.7468 22.9394 42.4952 22.8937 42.2665 22.9394C42.015 22.9852 41.8091 23.0995 41.649 23.2825C41.4889 23.4654 41.4203 23.717 41.4432 23.9686C41.4661 24.2202 41.6033 24.4489 41.7862 24.609C41.9921 24.7691 42.2437 24.8606 42.4952 24.8148C42.7468 24.7919 42.9984 24.6547 43.1814 24.4717C43.3415 24.2659 43.4101 23.9915 43.3872 23.717Z" fill="black"/>
<path d="M43.8207 21.9334C44.0266 21.6818 44.2781 21.4759 44.5526 21.293C44.6212 21.2472 44.6898 21.2015 44.7355 21.1558C44.8042 21.11 44.8499 21.0414 44.9185 20.9957C45.0557 20.9042 45.193 20.8127 45.3302 20.7212C45.902 20.401 46.5423 20.2181 47.2056 20.2409C47.8688 20.2638 48.5092 20.4696 49.0581 20.7898C49.1953 20.8584 49.3326 20.9728 49.4698 21.0414L49.6756 21.1786C49.7442 21.2244 49.8128 21.2701 49.8586 21.3387L50.2245 21.636C50.3389 21.7504 50.4532 21.8647 50.5676 21.9791C51.0478 22.4365 51.4367 22.9168 51.8483 23.4199C52.2371 23.9231 52.6031 24.472 52.9232 25.0438C53.2434 25.6155 53.495 26.2102 53.6322 26.8734C53.7008 27.1936 53.7237 27.5367 53.6551 27.8797C53.6322 28.0627 53.5636 28.2228 53.4721 28.3829C53.3578 28.543 53.1977 28.6802 52.9919 28.7488H53.0147L52.1914 29.1147L52.2829 28.8632L53.9982 32.1565L54.0896 32.3166L53.9524 32.431L53.152 33.0485L53.2206 32.7969L54.5013 35.8616L54.5471 35.9759L54.5013 36.0903L54.2497 36.5935L54.2269 36.3419L54.4556 36.6849L54.204 36.5706L54.913 36.4791L55.1188 36.4562L55.1874 36.6621L55.439 37.3939L55.4619 37.4854L55.439 37.5769L55.2332 38.2173L55.0273 37.8742L55.8736 38.0114L56.0337 38.0343L56.0794 38.1944L56.6283 39.8182V39.8411V39.864L56.7198 40.4815L56.5597 40.2528L56.9714 40.4586L57.0628 40.5043L57.1086 40.5958L57.9319 42.0138L58.0005 42.1053L57.9777 42.2196L57.6117 44.1865L57.5431 44.5982L57.1543 44.4381L55.1188 43.6147L55.0045 43.569L54.9359 43.4547C54.4556 42.5398 53.9982 41.625 53.5408 40.7102C53.0833 39.7953 52.6031 38.8805 52.1456 37.9428C51.2308 36.1132 50.316 34.2606 49.424 32.4081L49.6299 32.5225L48.715 32.4996H48.6236L48.5778 32.4539L47.7316 31.5619H47.9603C47.663 31.7906 47.3199 31.9278 46.954 31.9507C46.5881 31.9736 46.2221 31.8821 45.9248 31.6991C45.6046 31.539 45.3759 31.2646 45.1472 31.013C45.0557 30.8758 44.9414 30.7386 44.8499 30.6013L44.5983 30.1668L44.6669 30.1439L44.9414 30.5556C45.0329 30.6928 45.1472 30.8072 45.2616 30.9444C45.4903 31.1731 45.7419 31.4018 46.0163 31.539C46.2908 31.6763 46.6109 31.7449 46.9083 31.6991C47.2056 31.6534 47.5029 31.5162 47.7316 31.3332L47.846 31.2417L47.9603 31.3561L48.8523 32.2023L48.715 32.1337L49.6299 32.1108H49.7671L49.8357 32.2252C50.8191 34.0319 51.7797 35.8387 52.7403 37.6684C53.2206 38.5832 53.7009 39.498 54.1811 40.4128C54.6614 41.3277 55.1417 42.2425 55.5991 43.1573L55.4161 42.9972L57.4288 43.8434L56.9714 44.095L57.3602 42.1281L57.4059 42.3569L56.6054 40.916L56.7426 41.0532L56.331 40.8474L56.1709 40.7788L56.148 40.6187L56.0794 40.0012L56.1023 40.0469L55.5762 38.4002L55.8049 38.5832L54.9587 38.4231L54.6385 38.3774L54.73 38.08L54.9359 37.4397V37.5998L54.7072 36.8679L54.9816 37.0509L54.2726 37.1423L54.1125 37.1652L54.021 37.028L53.7923 36.6849L53.7008 36.5477L53.7695 36.4105L54.0439 35.9073V36.1132L52.8089 33.0256L52.7403 32.8655L52.8775 32.7741L53.678 32.1794L53.6094 32.4539L51.9398 29.1376L51.8483 28.9546L52.0313 28.886L52.8546 28.543H52.8775C52.9919 28.5201 53.0833 28.4515 53.152 28.3371C53.2206 28.2228 53.2663 28.1084 53.2892 27.9483C53.3349 27.6739 53.312 27.3537 53.2663 27.0564C53.152 26.4617 52.9232 25.8671 52.6259 25.3182C52.3286 24.7693 51.9855 24.2204 51.5967 23.7173C51.2079 23.2141 50.8191 22.711 50.3617 22.2764C50.2474 22.1621 50.1559 22.0477 50.0187 21.9334L49.6527 21.636C49.5841 21.5903 49.5384 21.5217 49.4698 21.4759L49.2639 21.3387C49.1267 21.2472 49.0124 21.1557 48.8751 21.0871C48.3262 20.7669 47.7316 20.5611 47.0912 20.5154C46.4737 20.4696 45.8333 20.6526 45.2844 20.9271C45.1472 20.9957 45.01 21.0871 44.8956 21.1786C44.827 21.2244 44.7584 21.2701 44.7127 21.3158C44.6441 21.3616 44.5755 21.4073 44.5068 21.4531C44.2324 21.6132 43.9808 21.819 43.7979 22.0706L43.8207 21.9334Z" fill="black"/>
<path d="M47.9381 22.5278C47.9839 22.848 47.8924 23.191 47.6866 23.4655C47.4807 23.7399 47.1834 23.9458 46.8403 23.9915C46.4973 24.0373 46.1314 23.9458 45.8569 23.7399C45.5825 23.5341 45.3766 23.2139 45.3309 22.848C45.2851 22.5049 45.3766 22.1161 45.5825 21.8417C45.7883 21.5444 46.1314 21.3614 46.4973 21.3156C46.8632 21.2699 47.2291 21.4071 47.4807 21.6358C47.7323 21.8646 47.8924 22.1847 47.9381 22.5278ZM47.9153 22.5278C47.8695 22.2076 47.6637 21.9103 47.4121 21.7273C47.1377 21.5444 46.8403 21.4986 46.543 21.5444C46.2457 21.5901 45.9713 21.7502 45.7883 21.9789C45.6053 22.2076 45.5138 22.5278 45.5367 22.8251C45.5596 23.1224 45.7197 23.4198 45.9713 23.6256C46.2228 23.8314 46.543 23.9229 46.8403 23.8772C47.1605 23.8543 47.4579 23.6942 47.6637 23.4426C47.8467 23.1911 47.961 22.848 47.9153 22.5278Z" fill="black"/>
<path d="M4.66586 19.5544L3.91113 20.2177V36.6846H5.67217V20.2863L4.66586 19.5544Z" fill="white"/>
<path d="M16.0326 30.6008H7.68477C7.15874 30.6008 6.74707 30.1663 6.74707 29.6631V25.2033C6.74707 24.6773 7.18161 24.2656 7.68477 24.2656H16.0326C16.5586 24.2656 16.9703 24.7002 16.9703 25.2033V29.6631C16.9703 30.1663 16.5357 30.6008 16.0326 30.6008Z" fill="#6F923D"/>
<path d="M9.05991 27.4071C9.24611 27.5064 9.4323 27.5622 9.6185 27.5746C9.80469 27.5932 9.9971 27.5622 10.1957 27.4877C10.1647 27.4319 10.1336 27.3884 10.0964 27.3512C10.0592 27.314 10.0157 27.2829 9.97848 27.2457C9.88538 27.1774 9.79228 27.1153 9.69298 27.0657C9.59367 27.016 9.48816 26.9726 9.38265 26.9229C9.30817 26.8981 9.22749 26.8671 9.15301 26.8361C9.07853 26.8112 9.00405 26.774 8.93578 26.7367C8.82406 26.6747 8.73097 26.594 8.65649 26.4823C8.60683 26.414 8.5758 26.3457 8.56339 26.2713C8.55098 26.203 8.55098 26.1285 8.5758 26.0416C8.58822 25.9982 8.59442 25.9547 8.60683 25.9051C8.61304 25.8554 8.62545 25.8058 8.63787 25.7561C8.68131 25.5699 8.75579 25.4023 8.86751 25.2534C8.97923 25.1044 9.10336 24.9679 9.24611 24.8376C9.69298 24.4403 10.2019 24.1797 10.7791 24.0679C10.9405 24.0307 11.1081 24.0431 11.2756 24.099C11.3501 24.13 11.4122 24.1735 11.4618 24.2293C11.5115 24.2914 11.5487 24.3534 11.586 24.4217C11.6356 24.5334 11.6667 24.6514 11.6915 24.7693C11.7163 24.8872 11.7225 25.0051 11.7101 25.1293C11.7039 25.1541 11.6977 25.1789 11.6915 25.2037C11.6853 25.2286 11.6791 25.2472 11.6729 25.272C11.6604 25.2968 11.648 25.3092 11.6356 25.3092C11.6232 25.3092 11.6046 25.303 11.5922 25.2782C11.5736 25.2658 11.5611 25.2472 11.5549 25.2224C11.5487 25.2037 11.5425 25.1851 11.5363 25.1603L11.5115 25.0858L11.4867 25.0113C11.4618 24.9555 11.4308 24.912 11.3936 24.8872C11.3563 24.8624 11.3067 24.8376 11.257 24.8189C11.1267 24.7941 10.9901 24.7941 10.8474 24.8251C10.6612 24.8748 10.4874 24.9369 10.326 25.0113C10.1647 25.0858 10.0033 25.1727 9.84814 25.2658C9.58126 25.4396 9.34541 25.632 9.1406 25.8492C9.11577 25.874 9.09715 25.8927 9.08474 25.9113C9.06612 25.9299 9.0537 25.9485 9.04129 25.9733C9.0537 25.9982 9.06612 26.0106 9.08474 26.023C9.10336 26.0354 9.12198 26.0416 9.1468 26.0478C9.22749 26.0975 9.30817 26.1409 9.39506 26.1782C9.48195 26.2154 9.56264 26.2588 9.64953 26.2961C9.78607 26.3706 9.91641 26.4575 10.0343 26.5568C10.1523 26.6561 10.2578 26.7678 10.3509 26.8981C10.3943 26.9664 10.4253 27.0347 10.4502 27.1091C10.475 27.1836 10.4874 27.2643 10.4998 27.3388C10.5309 27.5436 10.5122 27.7422 10.4378 27.9284C10.3881 28.0649 10.3012 28.158 10.1771 28.2077C10.0033 28.2698 9.84193 28.2946 9.68056 28.2822C9.51919 28.2698 9.36403 28.2139 9.21507 28.1084C9.1406 28.0649 9.08474 27.9967 9.04129 27.9098C9.01647 27.8725 9.00405 27.8229 9.00405 27.7608C9.01026 27.7112 9.01647 27.6553 9.02267 27.6057L9.03508 27.4567C9.04129 27.4319 9.0475 27.4133 9.05991 27.4071ZM11.056 26.6126C11.0498 26.6561 11.0498 26.6995 11.056 26.7367C11.0622 26.7988 11.0746 26.8361 11.087 26.8485C11.0994 26.8671 11.1429 26.8671 11.2112 26.8423C11.2856 26.8236 11.3601 26.7926 11.4346 26.7554C11.5029 26.7181 11.5649 26.6623 11.627 26.6002C11.6518 26.5754 11.6704 26.5443 11.6953 26.5195C11.7201 26.4947 11.7387 26.4575 11.7635 26.4202C11.7822 26.383 11.8132 26.3706 11.8504 26.383C11.8752 26.3954 11.8815 26.414 11.8815 26.4264C11.8815 26.445 11.8752 26.4637 11.869 26.4823C11.8194 26.5816 11.7635 26.6747 11.7015 26.7616C11.6394 26.8485 11.5587 26.9229 11.4656 26.985C11.3787 27.0409 11.2918 27.0657 11.2049 27.0595C11.1181 27.0595 11.0312 27.0285 10.9443 26.9788C10.9194 26.9664 10.9008 26.954 10.8822 26.9354C10.8636 26.9229 10.845 26.9043 10.8263 26.8919C10.7022 26.7988 10.6402 26.6871 10.6402 26.5568C10.6339 26.4264 10.665 26.3147 10.7395 26.2154C10.7767 26.1657 10.8139 26.1161 10.8574 26.0664C10.9008 26.023 10.9505 25.9858 11.0063 25.9485C11.0746 25.9051 11.1491 25.8865 11.236 25.8989C11.3229 25.9113 11.3911 25.9485 11.447 26.0106C11.4904 26.0602 11.5029 26.1223 11.4842 26.1906C11.4594 26.2651 11.4284 26.3271 11.3973 26.3892C11.3601 26.4512 11.3167 26.5009 11.267 26.5443C11.2049 26.6064 11.1367 26.625 11.056 26.6126ZM11.0808 26.5257C11.1429 26.4761 11.1987 26.4202 11.236 26.3519C11.2732 26.2899 11.2856 26.2092 11.2856 26.1223C11.236 26.1844 11.1863 26.2464 11.1491 26.3085C11.1118 26.3706 11.087 26.445 11.0808 26.5257ZM12.2713 26.7554C12.3147 26.6933 12.3519 26.6374 12.3892 26.5754C12.4264 26.5133 12.4512 26.4512 12.4761 26.3768L12.5009 26.2651C12.5071 26.2278 12.5195 26.1968 12.5381 26.1595C12.563 26.1099 12.5816 26.0851 12.6064 26.0726C12.625 26.0602 12.6623 26.0664 12.7181 26.0789C12.7802 26.1037 12.8298 26.1285 12.8547 26.1595C12.8795 26.1968 12.8981 26.2464 12.9105 26.3147C12.9229 26.414 12.9229 26.5133 12.9229 26.6126C12.9167 26.7119 12.9167 26.805 12.9291 26.9043C12.9291 26.9416 12.9354 26.9726 12.9416 27.0036C12.9416 27.0347 12.9478 27.0657 12.9602 27.0967C12.985 27.0967 13.0098 27.0843 13.0285 27.0719C13.0409 27.0595 13.0595 27.0409 13.0781 27.016C13.134 26.954 13.1774 26.8857 13.2084 26.8112C13.2395 26.7367 13.2643 26.6623 13.2891 26.5816C13.3512 26.3581 13.3884 26.1285 13.4008 25.8927V25.8244C13.4008 25.7996 13.3946 25.7747 13.3822 25.7499C13.4195 25.7499 13.4505 25.7499 13.4629 25.7623C13.4753 25.7747 13.4815 25.7934 13.4939 25.8244C13.5188 25.9361 13.5312 26.0602 13.5188 26.1844C13.4939 26.4947 13.4133 26.7988 13.2829 27.0967C13.2333 27.2147 13.165 27.2891 13.0905 27.3202C13.016 27.3574 12.9416 27.3636 12.8795 27.3388C12.7988 27.314 12.7243 27.2829 12.6561 27.2333C12.5878 27.1898 12.5381 27.1278 12.5009 27.0409C12.4885 27.0222 12.4761 27.0036 12.4699 26.9788C12.4575 26.954 12.4512 26.9292 12.4388 26.9043C12.4202 26.9292 12.4016 26.9478 12.3892 26.9664C12.3768 26.985 12.3581 27.0036 12.3457 27.016C12.2961 27.0781 12.2526 27.1091 12.203 27.1153C12.1533 27.1216 12.0975 27.1091 12.0354 27.0719C11.9237 27.0222 11.8492 26.954 11.8058 26.8671C11.7561 26.7802 11.7375 26.6809 11.7499 26.5568C11.7561 26.3581 11.7934 26.1657 11.8678 25.9796C11.8927 25.9113 11.9237 25.8678 11.9547 25.8492C11.9795 25.8306 12.023 25.8244 12.0851 25.8306C12.2154 25.8554 12.2837 25.9361 12.2961 26.0602C12.3023 26.1471 12.3023 26.2278 12.2961 26.3085C12.2837 26.3892 12.2775 26.4699 12.2713 26.5506C12.265 26.5878 12.265 26.6188 12.265 26.6499C12.265 26.6871 12.2713 26.7181 12.2713 26.7554ZM13.9989 26.8609C14.0237 26.8547 14.0423 26.8423 14.0548 26.8174C14.0672 26.7988 14.0858 26.7802 14.0982 26.7554C14.1727 26.6623 14.2472 26.563 14.3154 26.4575C14.3837 26.3581 14.4458 26.2464 14.5078 26.1347C14.514 26.1223 14.5202 26.1037 14.5327 26.0913C14.5575 26.0416 14.5823 26.0106 14.5947 25.9982C14.6071 25.992 14.632 25.992 14.6692 25.9982C14.7809 26.023 14.8368 26.0789 14.8492 26.172C14.8554 26.2588 14.8554 26.3333 14.843 26.3954C14.8057 26.5568 14.812 26.7119 14.8492 26.8609C14.8554 26.8919 14.8616 26.9105 14.8678 26.9105C14.874 26.9105 14.8864 26.9043 14.9113 26.8919C14.9423 26.8795 14.9671 26.8609 14.9919 26.8361C15.0168 26.8112 15.0354 26.7864 15.0602 26.7616C15.1037 26.7119 15.1409 26.6561 15.1781 26.6002C15.2154 26.5506 15.2464 26.4947 15.2774 26.4326C15.2774 26.4202 15.2837 26.414 15.2899 26.4016C15.2899 26.3892 15.2961 26.3768 15.3085 26.3644C15.3333 26.3395 15.3581 26.3333 15.3892 26.3519C15.4202 26.3644 15.4326 26.3892 15.4202 26.4202C15.383 26.5195 15.3457 26.6188 15.3085 26.7119C15.265 26.8112 15.2154 26.8981 15.1595 26.985C15.0975 27.0781 15.023 27.134 14.9237 27.1464C14.8616 27.1588 14.7995 27.1464 14.7375 27.1029C14.6568 27.0533 14.5885 26.9974 14.5327 26.9354C14.4706 26.8733 14.4396 26.7988 14.4334 26.6995C14.4085 26.6995 14.3961 26.6995 14.3961 26.7119C14.3899 26.7243 14.3837 26.7305 14.3837 26.7367C14.3341 26.8112 14.2906 26.8795 14.2534 26.954C14.2161 27.0285 14.1727 27.1029 14.123 27.1712C14.0734 27.2457 14.0051 27.2829 13.9244 27.2829C13.8872 27.2829 13.8561 27.2767 13.8313 27.2643C13.6451 27.1712 13.5582 27.0098 13.5706 26.7864C13.5769 26.7243 13.5893 26.6561 13.6079 26.594C13.6203 26.5319 13.6451 26.4637 13.67 26.4016C13.7196 26.2961 13.7693 26.1906 13.8313 26.0913C13.8872 25.992 13.9617 25.9051 14.0486 25.8182C14.123 25.7437 14.2099 25.7065 14.3154 25.7003C14.4209 25.6941 14.514 25.7251 14.6009 25.7871L14.6258 25.8182L14.6568 25.843L14.6692 25.8678C14.6692 25.8802 14.6692 25.8865 14.663 25.8989C14.6506 25.9113 14.6382 25.9113 14.6133 25.9113C14.6071 25.9113 14.6009 25.9051 14.5947 25.9051C14.5823 25.8989 14.5699 25.8927 14.5637 25.8802C14.5513 25.8678 14.5389 25.8678 14.5202 25.8678C14.4954 25.8802 14.4768 25.8989 14.452 25.9299C14.4023 25.9671 14.3651 26.0106 14.3341 26.0726C14.2596 26.1968 14.1975 26.3147 14.1354 26.4388C14.0734 26.563 14.0299 26.6871 13.9989 26.8174C13.9927 26.8298 13.9927 26.8423 13.9927 26.8547L13.9989 26.8609Z" fill="white"/>
<path d="M3.93381 20.9954C3.95668 22.7335 4.00242 24.4717 4.00242 26.2099C4.02529 27.079 4.04816 27.948 4.02529 28.8171C4.00242 29.6862 3.97955 30.5553 3.91094 31.4244H3.88806C3.81945 30.5553 3.79658 29.6862 3.79658 28.8171C3.77371 27.948 3.79658 27.079 3.81945 26.2099C3.84232 24.4717 3.86519 22.7335 3.88806 20.9954H3.93381Z" fill="black"/>
<path d="M5.69602 32.6365C5.71889 33.2997 5.74176 33.9859 5.76463 34.6491L5.7875 35.6554C5.81037 35.9985 5.81037 36.3187 5.7875 36.6617V36.7761H5.69602C5.33008 36.7532 4.96415 36.7303 4.62109 36.6846V36.6617C4.98702 36.616 5.35296 36.5931 5.69602 36.5702L5.58166 36.6846C5.55879 36.3415 5.55879 36.0213 5.58166 35.6783L5.60453 34.672C5.60453 33.9858 5.6274 33.2997 5.69602 32.6365Z" fill="black"/>
<path d="M3.91211 20.1947L4.64397 19.5314L4.66684 19.5085L4.68971 19.5314L5.71889 20.2175L5.74176 20.2404V20.2861L5.7875 22.8019C5.7875 23.2136 5.7875 23.6481 5.76463 24.0598C5.74176 24.4715 5.71889 24.906 5.67315 25.3177H5.65028C5.60454 24.906 5.58167 24.4715 5.5588 24.0598C5.53593 23.6481 5.53593 23.2136 5.53593 22.8019L5.58167 20.2861L5.60454 20.3319L4.59823 19.6H4.64397L3.91211 20.1947Z" fill="black"/>
<path d="M15.2088 21.5901C13.7451 21.6129 12.3043 21.6587 10.8405 21.6815C10.1087 21.7044 9.37682 21.7273 8.66783 21.7044C7.93597 21.6815 7.20411 21.6587 6.49512 21.5901V21.5672C7.22698 21.4986 7.95884 21.4757 8.66783 21.4528C9.39969 21.43 10.1316 21.4528 10.8405 21.4757C12.3043 21.5214 13.768 21.5443 15.2088 21.5901Z" fill="black"/>
<path d="M5.48945 23.351C4.91768 23.3738 4.36878 23.3967 3.79702 23.4196L2.9508 23.4425C2.67635 23.4653 2.37904 23.4653 2.10459 23.4425H1.99023V23.3281C2.01311 22.9622 2.03598 22.5962 2.08172 22.2532H2.10459C2.1732 22.6191 2.19607 22.985 2.19607 23.3281L2.10459 23.2366C2.37904 23.2366 2.67635 23.2366 2.9508 23.2366L3.79702 23.2595C4.36878 23.2823 4.91768 23.3052 5.48945 23.3281V23.351Z" fill="black"/>
<path d="M15.8954 21.5898L16.4443 22.3217L16.4672 22.3446L16.4443 22.3675L15.8725 23.3966L15.8496 23.4195H15.8039L13.6998 23.4652C13.3567 23.4652 12.9908 23.4652 12.6478 23.4424C12.3047 23.4195 11.9388 23.3966 11.5957 23.3509V23.328C11.9388 23.2823 12.3047 23.2594 12.6478 23.2365C12.9908 23.2137 13.3567 23.2137 13.6998 23.2137L15.8039 23.2594L15.7353 23.2823L16.3528 22.276V22.3217L15.8954 21.5898Z" fill="black"/>
<path d="M10.9319 16.4673C10.9319 16.4673 9.35384 14.7748 10.2687 13.0824C11.1835 11.39 13.4248 11.0469 14.7056 12.1905C15.9863 13.334 15.9863 15.6439 14.4769 16.5588C12.9903 17.4736 12.0068 17.1763 10.9319 16.4673Z" fill="white"/>
<path d="M10.9098 16.4901C10.6582 16.1927 10.4753 15.8954 10.2923 15.5524C10.1322 15.2322 9.99497 14.8662 9.94923 14.5003C9.90349 14.1344 9.90349 13.7456 10.0407 13.3797C10.1779 13.0137 10.3609 12.6935 10.6125 12.3962C11.1385 11.8244 11.8704 11.4585 12.648 11.367C13.4256 11.2984 14.2489 11.5043 14.8664 12.0303C15.4839 12.5563 15.827 13.3339 15.9185 14.1344C15.9413 14.5232 15.9185 14.9349 15.7813 15.3237C15.6669 15.7125 15.4382 16.0784 15.1637 16.3757L14.935 16.5815L14.6835 16.7645C14.5005 16.856 14.3404 16.9475 14.1574 17.0161C13.7915 17.1533 13.4027 17.2677 13.0139 17.2677C12.6251 17.2677 12.2363 17.1991 11.8932 17.039C11.5273 16.8789 11.2071 16.6959 10.9098 16.4901ZM10.9327 16.4443C11.23 16.6273 11.573 16.8102 11.9161 16.9017C12.2592 16.9932 12.6251 17.0161 12.9682 16.9703C13.3112 16.9017 13.6314 16.7645 13.9287 16.6044C14.0888 16.5129 14.226 16.4214 14.3633 16.33L14.5462 16.1699L14.7063 15.9869C15.1409 15.5066 15.3467 14.8205 15.3238 14.1572C15.301 13.494 15.0036 12.8079 14.5234 12.3505C14.0202 11.8931 13.3341 11.6643 12.6251 11.7101C11.939 11.7558 11.2529 12.0531 10.7726 12.5563C10.521 12.8079 10.3152 13.1052 10.1779 13.4254C10.0407 13.7456 9.99497 14.1115 10.0178 14.4774C10.1093 15.2093 10.4524 15.8954 10.9327 16.4443Z" fill="black"/>
<path d="M12.592 14.7665L12.6469 14.8719C12.6635 14.9082 12.6827 14.9427 12.7001 14.9745C12.712 14.9981 12.7221 15.019 12.7331 15.0354C12.7441 15.0517 12.7542 15.0726 12.7651 15.0889C12.7807 15.118 12.7872 15.1453 12.7864 15.1735C12.7856 15.2017 12.7802 15.229 12.773 15.2536C12.7694 15.2718 12.7604 15.2819 12.7495 15.2892C12.7386 15.2965 12.7259 15.3011 12.7113 15.303C12.6485 15.3096 12.5912 15.3007 12.5383 15.2809C12.4855 15.261 12.4426 15.2266 12.406 15.1721C12.3721 15.1277 12.3437 15.0795 12.3199 15.0323C12.2961 14.9851 12.2731 14.9333 12.2502 14.8815C12.241 14.8679 12.2319 14.8543 12.2219 14.8452C12.2118 14.8361 12.199 14.8289 12.1808 14.8253C12.1553 14.8227 12.1307 14.8155 12.1116 14.8046C12.0897 14.7956 12.0687 14.7821 12.0478 14.7685C12.0323 14.7631 12.0204 14.7513 12.014 14.7358C12.0094 14.7231 12.0075 14.7086 12.0147 14.6958C12.022 14.683 12.0347 14.6784 12.0492 14.6766C12.0611 14.6765 12.0775 14.6774 12.1029 14.68C12.1412 14.6899 12.1512 14.6753 12.1374 14.6371C12.1135 14.578 12.0923 14.5171 12.0666 14.4553C12.0428 14.3963 12.0216 14.3354 11.9959 14.2736C11.9619 14.1936 11.9325 14.1146 11.9067 14.0291C11.8828 13.9464 11.8561 13.8655 11.8303 13.78C11.8202 13.7591 11.8129 13.7364 11.8055 13.7137C11.8 13.6937 11.7908 13.6682 11.7816 13.6428C11.7617 13.6838 11.7473 13.7212 11.7328 13.7585C11.7203 13.7986 11.7086 13.8342 11.6987 13.8724C11.6808 13.9517 11.6701 14.03 11.6668 14.1073C11.6634 14.1847 11.6719 14.262 11.6922 14.3393C11.6941 14.3539 11.6904 14.3602 11.6795 14.3676C11.6632 14.3785 11.6468 14.3777 11.6277 14.3668C11.5593 14.3416 11.5146 14.2926 11.4943 14.2272C11.463 14.1217 11.4516 14.0107 11.4694 13.896C11.4962 13.7357 11.5457 13.5918 11.6171 13.4568C11.6858 13.3237 11.7827 13.2032 11.9042 13.0899C11.9587 13.0415 12.014 13.0004 12.0776 12.9655C12.1385 12.9326 12.2048 12.9078 12.2757 12.8838C12.4212 12.8414 12.5604 12.8546 12.6972 12.9169C12.8266 12.9801 12.927 13.0589 13.002 13.1588C13.077 13.2586 13.122 13.3786 13.1398 13.5168C13.1867 13.8807 13.0959 14.1986 12.8658 14.4797C12.8495 14.5026 12.8286 14.5245 12.8023 14.5501C12.8069 14.5628 12.8151 14.5691 12.8251 14.5663C12.8342 14.5681 12.8442 14.5654 12.8533 14.5672C12.9244 14.5787 12.9954 14.5903 13.0637 14.6037C13.1311 14.6217 13.2003 14.6305 13.2749 14.6357C13.3323 14.6446 13.3878 14.6508 13.4415 14.6542C13.4953 14.6576 13.5517 14.6593 13.6099 14.6518C13.6217 14.6517 13.6381 14.6526 13.6527 14.6507C13.6672 14.6488 13.6773 14.6579 13.6864 14.6715C13.7066 14.7133 13.7049 14.7461 13.6795 14.7789C13.6524 14.8209 13.6225 14.8528 13.5843 14.8785C13.5462 14.9041 13.5071 14.9224 13.458 14.9317C13.2834 14.966 13.1132 14.9539 12.951 14.889C12.8908 14.8701 12.8334 14.8493 12.7733 14.8305C12.715 14.8143 12.6585 14.789 12.6029 14.7592L12.592 14.7665ZM11.7888 13.6182C11.8288 13.6071 11.8597 13.6061 11.8861 13.616C11.9144 13.6287 11.9372 13.645 11.9591 13.6658C11.9664 13.6767 11.9783 13.6885 11.9856 13.6994C11.9929 13.7103 12.003 13.7193 12.0103 13.7302C12.0341 13.7656 12.0579 13.8011 12.0799 13.8337C12.0991 13.8682 12.1202 13.9055 12.1412 13.9427C12.187 14.0226 12.2301 14.1044 12.2759 14.1843C12.3217 14.2642 12.3647 14.346 12.4105 14.4259C12.4133 14.4359 12.4188 14.4441 12.4225 14.4495C12.4279 14.4577 12.4362 14.464 12.4453 14.4658C12.5124 14.4128 12.5731 14.3443 12.622 14.264C12.7053 14.1409 12.7667 14.0087 12.808 13.8702C12.8467 13.7336 12.8607 13.5897 12.8483 13.436C12.8424 13.3213 12.8029 13.2095 12.7334 13.106C12.6657 13.0171 12.58 12.9837 12.4755 13.0105C12.4582 13.0142 12.4455 13.0188 12.4309 13.0207C12.3527 13.0455 12.2828 13.0767 12.2156 13.1179C12.1502 13.1619 12.0885 13.2112 12.0323 13.2688C11.9353 13.3656 11.8556 13.4824 11.7888 13.6182ZM13.6209 13.9289C13.6649 14.0179 13.707 14.1042 13.7501 14.186C13.7932 14.2677 13.8444 14.344 13.9011 14.4166C13.9258 14.4474 13.9277 14.4738 13.9132 14.4993C13.9006 14.5276 13.8761 14.5441 13.8433 14.5424C13.7905 14.5462 13.7496 14.5382 13.7131 14.5192C13.6766 14.5002 13.6447 14.4703 13.6172 14.4294C13.5898 14.3886 13.565 14.3459 13.543 14.3014C13.5229 14.2596 13.5009 14.2151 13.4797 14.166C13.4394 14.0824 13.4036 13.9998 13.3751 13.9161C13.3466 13.8325 13.319 13.7443 13.2986 13.6552C13.2875 13.6152 13.2719 13.5743 13.2563 13.5334C13.2398 13.4971 13.2242 13.4562 13.2113 13.4135C13.2076 13.408 13.2067 13.4007 13.203 13.3953C13.1994 13.3899 13.1957 13.3844 13.1975 13.3753C13.192 13.3553 13.1974 13.3398 13.221 13.3279C13.2691 13.3113 13.3138 13.3248 13.3522 13.3702C13.3577 13.3784 13.3632 13.3865 13.3668 13.392C13.3723 13.4001 13.3805 13.4065 13.3896 13.4083C13.3941 13.3973 13.3959 13.3882 13.3959 13.3764C13.3958 13.3646 13.3958 13.3527 13.3985 13.3391C13.3984 13.3272 13.4011 13.3136 13.4038 13.2999C13.4037 13.2881 13.4064 13.2744 13.41 13.2562C13.4217 13.2089 13.447 13.176 13.487 13.1531C13.526 13.1348 13.5688 13.1337 13.618 13.1481C13.6426 13.1553 13.6663 13.167 13.6846 13.1824C13.7047 13.2005 13.7202 13.2178 13.7385 13.2332C13.8938 13.4174 13.931 13.6256 13.8535 13.8516C13.8319 13.9136 13.7884 13.9428 13.7201 13.9413C13.7055 13.9431 13.691 13.945 13.6746 13.9442C13.6582 13.9433 13.6427 13.9379 13.6209 13.9289ZM13.5446 13.2211C13.5309 13.2303 13.5246 13.2385 13.5228 13.2476L13.5184 13.2704C13.504 13.3196 13.5014 13.3687 13.5016 13.4161C13.5018 13.4634 13.5065 13.5116 13.5112 13.5598C13.5187 13.618 13.5271 13.6717 13.5382 13.7235C13.5511 13.7781 13.5695 13.829 13.5979 13.8771C13.6016 13.8826 13.6043 13.8926 13.608 13.898C13.6117 13.9034 13.618 13.9071 13.6253 13.9061C13.6399 13.9043 13.6508 13.8969 13.6562 13.8814C13.6652 13.8596 13.6715 13.8395 13.6769 13.8122C13.7001 13.7056 13.6988 13.6037 13.673 13.5064C13.6445 13.411 13.6013 13.3174 13.5446 13.2211Z" fill="black"/>
<path d="M18.8455 6.38094C18.8455 6.38094 19.6917 5.42038 20.698 5.83205C21.7043 6.24373 21.9787 7.47874 21.407 8.25634C20.8352 9.03394 19.5544 9.1483 18.9598 8.34783C18.388 7.5931 18.5024 7.02132 18.8455 6.38094Z" fill="white"/>
<path d="M18.8223 6.3808C18.9596 6.22071 19.1425 6.10635 19.3026 5.992C19.4856 5.87765 19.6686 5.78617 19.8744 5.74043C20.0802 5.69469 20.2861 5.67182 20.5148 5.71756C20.7206 5.7633 20.9264 5.85477 21.0865 5.992C21.4296 6.24358 21.6812 6.63238 21.7498 7.06692C21.8184 7.50146 21.7498 7.95888 21.4982 8.32481C21.2466 8.69074 20.835 8.91945 20.3775 9.01093C20.1488 9.05667 19.9201 9.05667 19.7143 9.01093C19.4856 8.96519 19.2798 8.87371 19.0968 8.71361L18.9596 8.59926L18.8452 8.46204C18.7766 8.37056 18.7309 8.27907 18.6851 8.18759C18.5936 8.00463 18.5022 7.77592 18.4793 7.57008C18.4564 7.34137 18.4793 7.13554 18.5479 6.9297C18.6394 6.74674 18.7309 6.56377 18.8223 6.3808ZM18.8452 6.40368C18.7537 6.58665 18.6851 6.76961 18.6394 6.97545C18.5936 7.18128 18.6165 7.36424 18.6622 7.57008C18.708 7.75305 18.7995 7.93601 18.9138 8.0961C18.9596 8.18758 19.0282 8.2562 19.0968 8.32481L19.1883 8.4163L19.3026 8.50777C19.5999 8.71361 19.9887 8.8051 20.3547 8.75936C20.7206 8.71362 21.0865 8.50777 21.3152 8.21046C21.5439 7.91314 21.6354 7.50146 21.5668 7.13553C21.4982 6.74673 21.3152 6.3808 20.9951 6.1521C20.835 6.03774 20.6749 5.92339 20.469 5.87765C20.2861 5.8319 20.0802 5.80904 19.8744 5.83191C19.5085 5.87766 19.1197 6.10636 18.8452 6.40368Z" fill="black"/>
<path d="M19.6126 7.43035L19.5569 7.4663C19.5376 7.47733 19.5194 7.48979 19.5026 7.50109C19.4901 7.50892 19.479 7.51559 19.4705 7.52253C19.462 7.52946 19.4509 7.53614 19.4424 7.54308C19.4271 7.55322 19.4123 7.55821 19.3966 7.55921C19.3808 7.56021 19.3654 7.55864 19.3514 7.55591C19.3411 7.55486 19.335 7.55035 19.3304 7.54467C19.3258 7.539 19.3226 7.53217 19.3208 7.52418C19.3139 7.48967 19.3159 7.45736 19.3242 7.42699C19.3325 7.39662 19.3494 7.37103 19.3778 7.34791C19.4007 7.32683 19.426 7.3086 19.451 7.29294C19.476 7.27728 19.5036 7.26188 19.5312 7.24648C19.5382 7.2407 19.5453 7.23492 19.5499 7.22888C19.5544 7.22283 19.5577 7.21537 19.5588 7.20507C19.5589 7.19078 19.5617 7.17676 19.5667 7.16556C19.5706 7.15295 19.5771 7.14061 19.5835 7.12826C19.5857 7.11938 19.5917 7.11218 19.5999 7.10782C19.6067 7.10461 19.6147 7.10282 19.6222 7.10619C19.6296 7.10955 19.6328 7.11638 19.6346 7.12436C19.6353 7.13093 19.6356 7.14007 19.6355 7.15436C19.632 7.17611 19.6406 7.18089 19.6611 7.17127C19.6926 7.15498 19.7254 7.14011 19.7584 7.12266C19.7899 7.10636 19.8227 7.09149 19.8557 7.07404C19.8983 7.05107 19.9407 7.03068 19.9868 7.01197C20.0315 6.99441 20.0751 6.97544 20.1212 6.95673C20.1323 6.95005 20.1445 6.9448 20.1568 6.93954C20.1676 6.93544 20.1813 6.92903 20.1949 6.92262C20.1711 6.91369 20.1496 6.9076 20.1281 6.90151C20.1052 6.89657 20.0849 6.8919 20.0631 6.88839C20.0182 6.88251 19.9742 6.88063 19.9311 6.88274C19.8879 6.88484 19.8454 6.89352 19.8036 6.90877C19.7956 6.91055 19.7918 6.90887 19.7872 6.9032C19.7803 6.89469 19.7799 6.88555 19.785 6.87436C19.7955 6.83511 19.8204 6.80773 19.8557 6.79312C19.9126 6.77031 19.9737 6.75832 20.0383 6.7623C20.1286 6.7689 20.2111 6.78901 20.2897 6.82173C20.3672 6.85302 20.4391 6.90066 20.5082 6.96233C20.5379 6.99006 20.5636 7.01869 20.5862 7.05221C20.6076 7.08431 20.6248 7.11987 20.6417 7.15801C20.6728 7.2366 20.6726 7.31462 20.645 7.39375C20.6166 7.46889 20.578 7.52868 20.5264 7.57545C20.4748 7.62222 20.4105 7.65339 20.3347 7.67037C20.135 7.71506 19.9538 7.681 19.7859 7.56765C19.7724 7.55977 19.7591 7.54932 19.7436 7.53603C19.7367 7.53924 19.7336 7.54412 19.7357 7.54954C19.7352 7.55468 19.7372 7.5601 19.7367 7.56524C19.7339 7.60528 19.7311 7.64531 19.7272 7.68393C19.7207 7.72228 19.7193 7.76116 19.7203 7.80288C19.7183 7.83519 19.7177 7.86635 19.7186 7.89634C19.7194 7.92634 19.7214 7.95776 19.7286 7.9897C19.7292 7.99627 19.7296 8.00541 19.7314 8.0134C19.7332 8.02138 19.7286 8.02743 19.7215 8.03321C19.6994 8.04656 19.6811 8.04729 19.6615 8.0349C19.6368 8.02198 19.6176 8.00701 19.6014 7.98715C19.5852 7.9673 19.573 7.94655 19.5653 7.91975C19.5373 7.82456 19.5353 7.72941 19.563 7.63599C19.5704 7.60163 19.579 7.56869 19.5864 7.53433C19.5924 7.50112 19.6035 7.46844 19.6172 7.43602L19.6126 7.43035ZM20.2089 6.92535C20.2171 6.94699 20.2193 6.96412 20.2152 6.9793C20.2096 6.99564 20.2017 7.00915 20.1913 7.02239C20.1856 7.02701 20.1797 7.03421 20.174 7.03883C20.1683 7.04346 20.1638 7.0495 20.1581 7.05413C20.1397 7.06916 20.1212 7.08419 20.1042 7.09806C20.086 7.11051 20.0664 7.12412 20.0469 7.13774C20.0048 7.16727 19.9616 7.19539 19.9196 7.22492C19.8776 7.25445 19.8344 7.28257 19.7924 7.3121C19.787 7.31415 19.7827 7.31762 19.7799 7.31994C19.7756 7.3234 19.7725 7.32829 19.772 7.33344C19.8049 7.368 19.846 7.39821 19.8931 7.42121C19.9658 7.46112 20.0423 7.48843 20.1214 7.50428C20.1992 7.51872 20.2798 7.51912 20.3646 7.50434C20.4279 7.49519 20.488 7.46749 20.5419 7.42356C20.5878 7.38141 20.6019 7.33213 20.5817 7.27545C20.5787 7.26604 20.5755 7.25921 20.5737 7.25123C20.5559 7.20909 20.535 7.17185 20.5087 7.13665C20.4809 7.10261 20.4503 7.07089 20.4155 7.04263C20.3568 6.99372 20.2878 6.95549 20.2089 6.92535ZM20.1305 7.95865C20.0834 7.98766 20.0376 8.01551 19.9944 8.04363C19.9513 8.07174 19.9115 8.10411 19.8741 8.13932C19.8583 8.15461 19.8437 8.15703 19.8288 8.15031C19.8125 8.14474 19.8021 8.13198 19.8013 8.1137C19.7965 8.08459 19.7988 8.06142 19.8075 8.04019C19.8162 8.01897 19.8311 7.99968 19.8524 7.98234C19.8737 7.965 19.8961 7.94908 19.9197 7.93457C19.9419 7.92122 19.9655 7.90672 19.9916 7.89247C20.036 7.86578 20.08 7.84165 20.125 7.82152C20.17 7.80139 20.2175 7.78152 20.266 7.76565C20.2876 7.75745 20.3095 7.74668 20.3314 7.7359C20.3507 7.72486 20.3726 7.71409 20.3957 7.70473C20.3985 7.70242 20.4025 7.70153 20.4054 7.69922C20.4082 7.6969 20.4111 7.69459 20.4162 7.69512C20.427 7.69102 20.4359 7.69322 20.4437 7.70572C20.4554 7.73162 20.4502 7.7571 20.427 7.78075C20.4227 7.78422 20.4185 7.78769 20.4156 7.79C20.4114 7.79347 20.4083 7.79835 20.4078 7.8035C20.4141 7.80545 20.4192 7.80597 20.4258 7.80534C20.4323 7.80471 20.4389 7.80408 20.4466 7.80486C20.4532 7.80423 20.4609 7.80502 20.4687 7.8058C20.4752 7.80517 20.4829 7.80596 20.4932 7.80701C20.5201 7.81105 20.5397 7.82344 20.5545 7.84446C20.5666 7.86521 20.5694 7.8889 20.564 7.91696C20.5612 7.93099 20.5559 7.94475 20.5483 7.95568C20.5393 7.96777 20.5305 7.97728 20.5229 7.98821C20.4286 8.08395 20.3149 8.11528 20.1854 8.08389C20.1499 8.07507 20.1314 8.05238 20.1288 8.01439C20.127 8.00641 20.1252 7.99842 20.1248 7.98928C20.1245 7.98014 20.1267 7.97126 20.1305 7.95865ZM20.5196 7.87993C20.5138 7.87283 20.509 7.86974 20.5038 7.86921L20.4909 7.8679C20.4629 7.86244 20.4355 7.86355 20.4092 7.86608C20.3829 7.8686 20.3564 7.8737 20.3299 7.87881C20.2979 7.88596 20.2686 7.89337 20.2403 7.9022C20.2107 7.91219 20.1834 7.92501 20.1581 7.94325C20.1553 7.94556 20.1499 7.94761 20.147 7.94992C20.1442 7.95224 20.1425 7.95597 20.1434 7.95996C20.1452 7.96794 20.1498 7.97362 20.1587 7.97582C20.1713 7.97971 20.1828 7.98218 20.1982 7.98375C20.2586 7.9912 20.3151 7.98525 20.3678 7.96591C20.4193 7.94514 20.4691 7.9164 20.5196 7.87993Z" fill="black"/>
<path d="M32.4778 40.0006C32.4778 40.0006 32.1119 38.7656 32.981 38.1481C33.8501 37.5306 35.0622 37.9194 35.4282 38.8114C35.7941 39.7033 35.1994 40.8469 34.2389 40.9384C33.2554 41.0298 32.8209 40.6182 32.4778 40.0006Z" fill="white"/>
<path d="M32.4544 40.0007C32.4086 39.7949 32.3857 39.589 32.3857 39.3832C32.3857 39.1774 32.4086 38.9715 32.4772 38.7657C32.5458 38.5599 32.6602 38.3769 32.7974 38.2168C32.9575 38.0567 33.1405 37.9423 33.3234 37.8737C33.7351 37.7136 34.1925 37.7136 34.6042 37.8737C35.0159 38.0338 35.3589 38.354 35.5419 38.7657C35.7249 39.1774 35.702 39.6576 35.5419 40.0693C35.4504 40.2751 35.3361 40.481 35.176 40.6411C35.0159 40.8012 34.8329 40.9384 34.6042 41.007L34.4441 41.0528L34.284 41.0756C34.1697 41.0756 34.0782 41.0756 33.9638 41.0756C33.758 41.0528 33.5293 41.007 33.3234 40.9155C33.1176 40.824 32.9575 40.6868 32.8203 40.5267C32.6602 40.3666 32.5687 40.1837 32.4544 40.0007ZM32.4772 40.0007C32.5916 40.1608 32.7059 40.3438 32.8432 40.481C32.9804 40.6182 33.1633 40.7097 33.3463 40.7783C33.5293 40.8241 33.7351 40.8469 33.9181 40.8241C34.0096 40.8241 34.1239 40.8012 34.2154 40.8012L34.3526 40.7783L34.4898 40.7326C34.8329 40.5953 35.1074 40.3209 35.2446 39.9778C35.4047 39.6348 35.4275 39.2231 35.2903 38.88C35.1531 38.537 34.8558 38.2397 34.5127 38.0796C34.1468 37.9195 33.7351 37.9195 33.3692 38.0338C33.1862 38.1024 33.0033 38.1939 32.866 38.3311C32.7288 38.4684 32.5916 38.6285 32.523 38.8114C32.3857 39.1774 32.3857 39.6119 32.4772 40.0007Z" fill="black"/>
<path d="M33.7661 39.8934L33.7674 39.9597C33.7666 39.9819 33.7676 40.0039 33.7684 40.0241C33.7685 40.0389 33.7683 40.0518 33.7698 40.0627C33.7712 40.0736 33.771 40.0865 33.7724 40.0974C33.773 40.1158 33.7695 40.131 33.762 40.1449C33.7546 40.1588 33.7452 40.1711 33.7355 40.1816C33.7291 40.1898 33.7221 40.1926 33.7149 40.1935C33.7076 40.1945 33.7001 40.1936 33.6924 40.1909C33.6594 40.1786 33.633 40.1599 33.6115 40.1369C33.5901 40.1139 33.5772 40.086 33.5725 40.0497C33.5666 40.0191 33.5644 39.988 33.5642 39.9585C33.5641 39.929 33.5655 39.8975 33.5669 39.8659C33.5657 39.8568 33.5646 39.8478 33.5618 39.8407C33.559 39.8337 33.5545 39.8269 33.5462 39.8206C33.5342 39.813 33.5237 39.8033 33.5168 39.7931C33.5081 39.7831 33.501 39.7712 33.4939 39.7592C33.4875 39.7526 33.4846 39.7438 33.4852 39.7345C33.486 39.727 33.4887 39.7192 33.4955 39.7147C33.5023 39.7101 33.5098 39.711 33.5175 39.7136C33.5234 39.7166 33.5314 39.7211 33.5435 39.7287C33.5601 39.7431 33.5687 39.7383 33.5713 39.7158C33.5741 39.6804 33.5787 39.6448 33.5812 39.6075C33.5839 39.5721 33.5885 39.5364 33.591 39.4992C33.594 39.4508 33.5989 39.4041 33.6073 39.355C33.6159 39.3077 33.6227 39.2607 33.631 39.2116C33.6312 39.1987 33.6331 39.1855 33.6351 39.1724C33.6373 39.161 33.6391 39.146 33.6408 39.131C33.6207 39.1466 33.6042 39.1616 33.5877 39.1767C33.5715 39.1936 33.5568 39.2084 33.5423 39.2251C33.5137 39.2602 33.4889 39.2966 33.468 39.3344C33.4471 39.3722 33.4321 39.4129 33.4231 39.4565C33.4204 39.4643 33.417 39.4666 33.4097 39.4675C33.3989 39.4689 33.3909 39.4644 33.384 39.4543C33.3562 39.4247 33.346 39.3891 33.3521 39.3514C33.3627 39.291 33.3846 39.2327 33.422 39.1799C33.4752 39.1065 33.5357 39.0469 33.6049 38.9973C33.6723 38.9479 33.7506 38.9119 33.8394 38.8855C33.8786 38.8748 33.9165 38.8681 33.9569 38.8665C33.9955 38.8651 34.0348 38.8692 34.0761 38.8749C34.1593 38.8899 34.2255 38.9311 34.2783 38.9962C34.3272 39.0599 34.3578 39.1242 34.3704 39.1927C34.383 39.2611 34.3757 39.3322 34.3502 39.4057C34.2832 39.599 34.1588 39.7351 33.9741 39.8183C33.9603 39.8256 33.9444 39.8314 33.9249 39.8376C33.9241 39.8451 33.9266 39.8503 33.9323 39.8514C33.9364 39.8546 33.942 39.8557 33.9462 39.8589C33.9787 39.8823 34.0113 39.9057 34.0421 39.9294C34.0713 39.9551 34.1036 39.9767 34.1396 39.9978C34.166 40.0165 34.1922 40.0334 34.2182 40.0485C34.2441 40.0636 34.2719 40.0784 34.3028 40.0891C34.3088 40.092 34.3167 40.0965 34.3245 40.0992C34.3322 40.1019 34.3349 40.1089 34.3361 40.118C34.3358 40.1439 34.3268 40.1598 34.306 40.1699C34.282 40.1841 34.2591 40.1926 34.2337 40.1959C34.2083 40.1993 34.1843 40.1987 34.1574 40.1911C34.0617 40.1649 33.9798 40.1165 33.9149 40.0438C33.8896 40.0194 33.8661 39.9948 33.8408 39.9704C33.8157 39.9479 33.7937 39.9212 33.7734 39.8925L33.7661 39.8934ZM33.6505 39.1205C33.6732 39.1249 33.6889 39.1321 33.6997 39.1436C33.7106 39.157 33.718 39.1708 33.7237 39.1866C33.7247 39.1939 33.7277 39.2027 33.7286 39.21C33.7296 39.2172 33.7323 39.2243 33.7333 39.2315C33.7363 39.2551 33.7394 39.2787 33.7423 39.3005C33.7433 39.3225 33.7446 39.3463 33.7458 39.3701C33.7488 39.4214 33.75 39.4729 33.753 39.5242C33.756 39.5755 33.7572 39.627 33.7602 39.6783C33.7591 39.684 33.7598 39.6894 33.7603 39.693C33.761 39.6985 33.7635 39.7037 33.7676 39.7068C33.8143 39.6971 33.8616 39.678 33.906 39.65C33.9782 39.6092 34.0417 39.5585 34.0967 39.4997C34.15 39.441 34.1927 39.3727 34.2248 39.2929C34.2503 39.2342 34.2584 39.1685 34.2494 39.0996C34.2377 39.0384 34.2032 39.0004 34.1444 38.9878C34.1348 38.9854 34.1273 38.9845 34.1196 38.9818C34.0744 38.9748 34.0317 38.973 33.9879 38.9768C33.9444 38.9825 33.9013 38.9918 33.8589 39.0066C33.7864 39.0308 33.7176 39.0693 33.6505 39.1205ZM34.4879 39.7309C34.4878 39.7863 34.4874 39.8399 34.4886 39.8914C34.4898 39.9429 34.4964 39.9937 34.5067 40.0441C34.5113 40.0656 34.5057 40.0792 34.4922 40.0884C34.4788 40.0994 34.4625 40.1015 34.4466 40.0925C34.4193 40.0813 34.4008 40.0671 34.3873 40.0486C34.3738 40.03 34.3653 40.0072 34.3617 39.9799C34.3582 39.9527 34.3564 39.9253 34.3565 39.8976C34.3568 39.8717 34.3569 39.844 34.3586 39.8143C34.3592 39.7625 34.3619 39.7123 34.3684 39.6635C34.375 39.6147 34.3831 39.5638 34.3951 39.5142C34.3995 39.4915 34.4019 39.4672 34.4042 39.4429C34.405 39.4207 34.4074 39.3964 34.4116 39.3718C34.4111 39.3682 34.4124 39.3643 34.412 39.3607C34.4115 39.3571 34.411 39.3535 34.4142 39.3494C34.4164 39.338 34.4229 39.3316 34.4377 39.3315C34.4658 39.3352 34.4848 39.3531 34.4927 39.3852C34.4934 39.3907 34.4941 39.3961 34.4946 39.3998C34.4953 39.4052 34.4978 39.4104 34.5019 39.4136C34.5069 39.4092 34.51 39.4051 34.5129 39.3992C34.5159 39.3933 34.5188 39.3874 34.5235 39.3812C34.5264 39.3753 34.5312 39.3691 34.5359 39.363C34.5388 39.3571 34.5435 39.3509 34.5499 39.3427C34.5674 39.322 34.5883 39.3119 34.6139 39.3104C34.638 39.3109 34.6596 39.321 34.6806 39.3404C34.6911 39.3501 34.7 39.3619 34.7053 39.3741C34.7108 39.3881 34.7143 39.4006 34.7196 39.4128C34.7514 39.5434 34.7182 39.6566 34.6233 39.7502C34.5971 39.7757 34.5681 39.7795 34.5344 39.7618C34.5267 39.7591 34.519 39.7564 34.511 39.7519C34.503 39.7474 34.4966 39.7409 34.4879 39.7309ZM34.6258 39.3586C34.6167 39.3598 34.6115 39.3624 34.6083 39.3665L34.6004 39.3767C34.581 39.3977 34.5675 39.4216 34.5559 39.4453C34.5442 39.4689 34.5346 39.4942 34.5249 39.5194C34.5142 39.5504 34.5051 39.5792 34.4977 39.6079C34.4906 39.6383 34.4872 39.6683 34.4894 39.6994C34.4898 39.703 34.4887 39.7087 34.4892 39.7123C34.4897 39.716 34.492 39.7193 34.4958 39.7207C34.5036 39.7234 34.5108 39.7224 34.5174 39.716C34.5273 39.7074 34.5354 39.6989 34.5449 39.6866C34.583 39.6392 34.6077 39.588 34.619 39.533C34.6284 39.4782 34.6302 39.4208 34.6258 39.3586Z" fill="black"/>
</svg>
