<svg width="54" height="48" viewBox="0 0 54 48" fill="none" xmlns="http://www.w3.org/2000/svg">
<path opacity="0.2" d="M26.8 47.5621C41.6012 47.5621 53.6 36.9235 53.6 23.8001C53.6 10.6767 41.6012 0.0380859 26.8 0.0380859C11.9988 0.0380859 0 10.6767 0 23.8001C0 36.9235 11.9988 47.5621 26.8 47.5621Z" fill="#84BD41"/>
<path d="M11.1258 3.47388L19.7256 3.92949C19.7256 3.92949 18.8998 13.9531 12.692 14.6934C12.692 14.6934 8.53446 11.3902 11.1258 3.47388Z" fill="white"/>
<path d="M12.5202 11.3047C12.4917 11.7318 12.4917 12.159 12.4917 12.5861C12.4917 12.7854 12.5487 13.0132 12.5202 13.2126C12.5202 13.4119 12.5202 13.6397 12.4917 13.8675H12.4632C12.3493 13.6682 12.2639 13.4404 12.2354 13.2411C12.2069 13.0132 12.2354 12.8139 12.2639 12.5861C12.3209 12.159 12.4063 11.7318 12.5202 11.3047Z" fill="black"/>
<path d="M14.0009 3.44543C13.5168 3.50238 13.0611 3.53087 12.577 3.55934L11.1532 3.67323L11.3526 3.50239C11.2672 4.15734 11.1817 4.84076 11.1532 5.49571C11.0963 6.15066 11.0963 6.83409 11.0963 7.48904C11.0963 8.14399 11.0678 8.79894 11.0109 9.48236C10.9824 10.1373 10.9254 10.8207 10.8685 11.5042H10.7831C10.5268 10.8492 10.3559 10.1943 10.2705 9.51083C10.1851 8.82741 10.1566 8.14399 10.242 7.46057C10.4129 6.09372 10.6122 4.75534 10.9254 3.41696L10.9824 3.24609H11.1532L12.577 3.30305C13.0611 3.33153 13.5452 3.33153 14.0009 3.36001V3.44543Z" fill="black"/>
<path d="M19.6381 2.76221C19.6381 2.76221 19.0686 12.4156 39.6568 11.0203L44.5262 11.2481L42.9316 22.2114C42.9316 22.2114 36.0119 22.9233 33.8762 23.8914C31.7689 24.8881 23.1407 27.5079 21.4891 23.7776C20.7487 20.9299 22.5427 21.6703 22.1156 17.4559C21.6884 13.2414 19.2395 14.0957 19.2395 14.0957L18.1289 9.99512C18.1574 10.0236 20.0653 6.74886 19.6381 2.76221Z" fill="#84BD41"/>
<path d="M43.7275 12.1878L44.2116 11.2481L47.4009 8.05873C47.3725 8.03025 49.0241 12.5579 43.7275 12.1878Z" fill="#CDE0AF"/>
<path d="M24.5352 31.6938L24.8769 32.719H26.7848L26.6993 31.6938H24.5352Z" fill="#8B7D73"/>
<path d="M20.5198 31.6938C20.4914 32.3488 20.4629 32.719 20.4629 32.719H22.2284L22.3993 31.6938H20.5198Z" fill="#8B7D73"/>
<path d="M11.5498 4.10069L11.1512 3.47423L7.73404 1.22461C7.70557 1.22461 7.30691 5.32516 11.5498 4.10069Z" fill="#84BD41"/>
<path d="M19.2676 3.70187L19.8371 3.27473L23.7953 1.56616C23.7668 1.56616 23.3966 5.923 19.2676 3.70187Z" fill="#84BD41"/>
<path d="M12.2617 3.87274L12.8028 0L13.8849 3.87274H12.2617Z" fill="#CDE0AF"/>
<path d="M16.0781 3.70189L17.0463 0L17.6728 3.70189H16.0781Z" fill="#CDE0AF"/>
<path d="M11.8346 13.099C12.1478 14.2096 12.0339 15.434 11.5498 16.4876C13.2014 16.032 14.5398 14.5797 14.7391 12.8997C13.8279 12.9566 12.7458 13.042 11.8346 13.099Z" fill="#84BD41"/>
<path d="M11.353 10.3084C11.353 10.3084 12.2927 9.56801 13.8873 10.4792C13.8873 10.4792 13.5741 11.7037 12.435 11.6183C11.2675 11.5044 11.353 10.3084 11.353 10.3084Z" fill="#CDE0AF"/>
<path d="M11.352 10.3083C11.5513 10.1659 11.7507 10.0805 11.9785 10.0235C12.2063 9.96656 12.4341 9.96655 12.6619 9.96655C12.8897 9.99503 13.1175 10.052 13.3453 10.1089C13.4592 10.1374 13.5446 10.1944 13.6585 10.2228L13.9718 10.3652L14.0287 10.3937L14.0003 10.4791C13.9148 10.8208 13.744 11.1341 13.4877 11.3619C13.3453 11.4758 13.2029 11.5897 13.0321 11.6466C12.8612 11.7036 12.6904 11.7321 12.491 11.7321C12.1493 11.7321 11.7507 11.5612 11.5513 11.248C11.352 10.9917 11.295 10.65 11.352 10.3083ZM11.352 10.3083C11.4089 10.6215 11.4944 10.9347 11.6937 11.1341C11.893 11.3619 12.1778 11.4473 12.4626 11.4473C12.7473 11.4473 13.0321 11.3904 13.2599 11.191C13.4877 10.9917 13.6586 10.7354 13.744 10.4506L13.8009 10.5645L13.5162 10.3937C13.4307 10.3367 13.3168 10.3083 13.2314 10.2513C13.0321 10.1659 12.8043 10.1089 12.6049 10.0804C12.3771 10.052 12.1778 10.052 11.95 10.0804C11.7791 10.1374 11.5513 10.1944 11.352 10.3083Z" fill="black"/>
<path d="M18.4144 10.8208C18.5852 11.134 18.7276 11.4757 18.8985 11.789C19.0409 12.1307 19.1832 12.4439 19.3256 12.7856C19.468 13.1274 19.6673 13.4406 19.6958 13.8108C19.7243 14.181 19.7243 14.5512 19.5819 14.9498L19.4965 14.9783C19.3256 14.8359 19.2117 14.6651 19.1263 14.5227C19.0124 14.3518 18.927 14.2095 18.87 14.0386C18.7276 13.6969 18.7276 13.3267 18.6707 12.985C18.6137 12.6433 18.5568 12.2731 18.4998 11.9314C18.4429 11.5612 18.3859 11.2195 18.3574 10.8493L18.4144 10.8208Z" fill="black"/>
<path d="M18.4419 14.9498C18.2141 14.2379 17.4452 12.6432 18.6412 12.1876C19.1538 11.9883 19.6379 12.5009 19.6379 13.0134C20.4352 11.9313 22.2577 12.5293 21.5743 13.9531C22.0868 13.9247 22.7133 13.7823 22.9126 14.4087C23.0265 14.7789 22.8272 15.3485 22.5994 15.6617C22.0299 16.4305 21.2041 16.2027 20.4352 15.8895C19.8087 15.6332 18.9545 15.3769 18.4419 14.9498Z" fill="#CDE0AF"/>
<path d="M42.4194 29.7575C42.3624 29.188 42.1061 28.7893 41.4512 28.3622C42.1061 27.5648 44.071 27.0807 44.071 25.8563C44.0425 24.8596 42.4194 25.0589 41.8498 25.4291C42.3909 25.0874 47.061 22.8093 45.6087 22.1259C45.21 21.955 44.669 22.0974 44.2703 22.1544C41.6505 22.4391 38.9453 22.6669 36.3255 23.2649C33.7057 23.8629 31.2283 25.0305 28.58 25.5715C26.6151 25.9702 24.0523 26.3404 22.3152 25.0589C20.7206 23.8629 21.9166 20.8729 22.059 19.1928C22.1729 17.7975 22.3437 15.7188 21.0054 14.7791C17.5313 12.2732 14.5128 19.1929 13.6016 21.6418C12.3486 24.945 11.4659 29.1595 12.7473 32.5766C14.5698 37.446 19.8378 39.5248 24.6218 40.1797C28.4945 40.7208 32.6521 40.3221 36.1546 38.4712C38.9453 37.0189 41.8783 33.9719 42.3909 30.7541C42.4194 30.3555 42.4478 30.0422 42.4194 29.7575Z" fill="white"/>
<path d="M16.9038 16.0034L13.4297 16.4875L16.4482 17.1425C16.4482 17.1425 16.676 16.9431 16.8183 16.6299C16.9607 16.2597 16.9038 16.0034 16.9038 16.0034Z" fill="#84BD41"/>
<path d="M16.7322 16.7439L13.9131 17.4273L16.1912 17.826L16.7322 16.7439Z" fill="#84BD41"/>
<path d="M19.4957 16.5159C19.4957 16.9431 19.154 17.2848 18.7269 17.2848C18.2997 17.2848 17.958 16.9431 17.958 16.5159C17.958 16.0888 18.2997 15.7471 18.7269 15.7471C19.154 15.7471 19.4957 16.0888 19.4957 16.5159Z" fill="#008695"/>
<path d="M33.6489 36.1646C33.0794 37.9016 31.2285 38.8413 29.5199 38.2718C27.8113 37.7023 26.8432 35.8513 27.4127 34.1428C27.9822 32.4342 30.4312 29.5581 32.1397 30.1276C33.8768 30.6687 34.2185 34.4275 33.6489 36.1646Z" fill="#E3AF24"/>
<path d="M39.6557 36.2499C39.2285 37.6168 37.7478 38.3571 36.3809 37.93C35.0141 37.5029 34.2737 36.0221 34.7008 34.6553C35.128 33.2884 37.0928 31.0388 38.4597 31.4659C39.8265 31.9215 40.1113 34.8831 39.6557 36.2499Z" fill="#E3AF24"/>
<path d="M26.7852 33.9147C26.8991 35.7372 25.5323 37.2749 23.7098 37.3888C21.8873 37.5027 20.3496 36.1359 20.2357 34.3134C20.1218 32.4909 21.3747 28.9314 23.1687 28.8175C24.9912 28.7321 26.6713 32.1207 26.7852 33.9147Z" fill="#E3AF24"/>
<path d="M22.5431 26.0839C22.9418 27.3654 23.6822 28.5044 24.6788 29.3872C25.6755 30.2415 26.9284 30.754 28.2383 30.9249C28.8933 31.0103 29.5482 31.0388 30.2032 30.9534C30.5449 30.9534 30.8581 30.8679 31.1714 30.8394C31.4846 30.7825 31.8263 30.7255 32.1396 30.6401C33.421 30.3269 34.6739 29.8713 35.8699 29.3302L35.756 29.4156C36.1832 28.96 36.6103 28.5044 36.9805 27.9918C37.1514 27.7356 37.3507 27.5077 37.4931 27.2515C37.5785 27.1376 37.6354 26.9952 37.6924 26.8813C37.7209 26.8243 37.7494 26.7674 37.7494 26.7104C37.7494 26.6819 37.7778 26.6535 37.7778 26.6535V26.625C37.7778 26.6535 37.7778 26.625 37.7778 26.6819L38.5182 26.9097C38.3474 27.1091 38.1765 27.1945 38.0056 27.3369C37.8348 27.4508 37.6355 27.5647 37.4646 27.6216C37.0659 27.7925 36.6673 27.8779 36.2401 27.9064C35.813 27.9349 35.4143 27.9064 35.0156 27.7925C34.8163 27.764 34.617 27.6786 34.4461 27.6216C34.2468 27.5647 34.0759 27.4793 33.9051 27.3938L33.3925 27.166L33.7912 26.7674L34.9302 25.6283L36.0977 24.4893L36.3256 24.9164C35.8415 24.9449 35.3574 24.9734 34.8733 24.9734C34.3892 25.0019 33.9051 25.0018 33.421 25.0018V24.9164C33.9051 24.8025 34.3892 24.7456 34.8733 24.6317C35.3574 24.5462 35.8415 24.4608 36.3256 24.3754L37.009 24.2615L36.5534 24.8025L35.4997 26.0555L34.4461 27.2799L34.3322 26.6535C34.5031 26.7104 34.6455 26.7674 34.8163 26.8243C34.9872 26.8528 35.1295 26.9097 35.3004 26.9382C35.6421 26.9952 35.9554 27.0236 36.2971 26.9952C36.6103 26.9667 36.9236 26.8813 37.2368 26.7674C37.3792 26.7104 37.5215 26.625 37.6639 26.5396C37.8063 26.4541 37.9487 26.3402 38.0056 26.2833L38.6321 25.6853L38.746 26.5111V26.568V26.5965V26.625C38.746 26.6535 38.746 26.6535 38.746 26.6819C38.746 26.7104 38.746 26.7389 38.7175 26.7958C38.7175 26.8528 38.6891 26.9098 38.6606 26.9667C38.6321 27.0521 38.6036 27.166 38.5467 27.223C38.4613 27.3938 38.3758 27.5362 38.2904 27.6786C38.0911 27.9634 37.8917 28.2196 37.6924 28.4759C37.2653 28.9885 36.8381 29.4441 36.354 29.8997L36.2971 29.9567L36.2401 29.9852C34.9872 30.4977 33.6773 30.9249 32.3389 31.2096C31.9972 31.2666 31.6555 31.3235 31.3137 31.3805C30.972 31.409 30.6303 31.4659 30.2886 31.4659C29.6052 31.5229 28.9218 31.4659 28.2383 31.352C26.8715 31.1242 25.5616 30.5262 24.5649 29.5865C23.5683 28.6468 22.8564 27.4223 22.5146 26.1124L22.5431 26.0839Z" fill="#010101"/>
<path d="M33.0784 35.6234C32.5088 37.3605 30.6579 38.3002 28.9493 37.7307C27.2123 37.1612 26.2726 35.3102 26.8421 33.6016C27.4116 31.8646 29.8606 29.017 31.5976 29.5865C33.3062 30.1276 33.6479 33.8864 33.0784 35.6234Z" fill="#CDE0AF"/>
<path d="M39.0863 35.7089C38.6592 37.0757 37.1784 37.8161 35.8116 37.389C34.4447 36.9618 33.7043 35.4811 34.1315 34.1142C34.5586 32.7474 36.5235 30.4978 37.8903 30.9249C39.2857 31.3805 39.542 34.342 39.0863 35.7089Z" fill="#CDE0AF"/>
<path d="M26.2159 33.3737C26.3298 35.1962 24.9629 36.7338 23.1404 36.8478C21.318 36.9617 19.7803 35.5948 19.6664 33.7723C19.5525 31.9499 20.8054 28.3904 22.5994 28.2765C24.3934 28.1626 26.102 31.5797 26.2159 33.3737Z" fill="#CDE0AF"/>
<path d="M14.6826 43.0272C15.4799 43.2835 16.2772 43.5398 17.103 43.7106C22.3142 44.9066 28.0663 45.0205 33.3914 45.0205C37.3495 45.0205 41.3931 43.4543 44.5825 41.2332C44.1553 40.4644 42.9593 39.0975 43.1017 38.1293C43.2156 37.3035 44.1553 36.9048 44.6964 36.4207C44.8957 36.2214 45.693 34.7691 45.6361 34.7691C44.8957 34.9115 43.8136 35.8227 43.0732 36.1929C43.1871 35.4241 43.5858 34.7407 43.5288 33.9149C42.1905 34.7691 40.7097 35.5095 39.3144 36.3068C39.5422 35.7089 39.4283 34.8546 39.4568 34.1711C38.8018 34.7122 38.0614 35.3102 37.2926 35.6519C37.1217 34.8261 37.4634 33.9433 37.2926 33.1175C35.9827 34.0572 34.5589 35.4526 32.9927 35.9082C32.8218 35.3956 32.651 34.8261 32.594 34.285C32.3377 34.7122 31.6543 35.1393 31.1702 35.3956C30.7146 34.7407 30.3159 34.0572 29.4901 33.7725C29.1769 34.1711 28.8637 34.6837 28.3796 34.883C27.8385 34.0857 26.3862 33.8009 25.475 33.7725C25.475 34.0003 25.3611 34.3989 25.1333 34.4844C24.7916 34.5983 23.7095 33.8864 23.4532 33.7725C22.2287 33.2314 20.5202 32.1493 19.1248 32.0354C19.1818 32.548 18.8686 33.0606 18.7262 33.5447C17.2739 33.0321 16.0209 31.8361 14.4832 31.4944C14.8534 31.893 15.0527 32.8612 14.7965 33.4023C14.2554 32.8897 13.2872 32.3772 12.5753 32.1778C12.8316 33.744 12.1197 33.0036 11.0091 33.0891C11.0946 33.5162 11.6072 33.8009 11.8919 34.1427C11.237 34.1711 10.5535 34.1427 9.89859 34.1427C10.1264 34.3135 10.4112 34.4559 10.6105 34.6552C10.1264 34.6837 9.6423 34.5129 9.1582 34.6552C9.38601 34.5983 10.582 35.7088 10.8098 35.9082C11.3509 36.3638 11.5787 36.734 11.6641 37.4744C11.8065 38.8982 11.1515 40.2935 10.7813 41.6319C12.0912 42.0875 13.3727 42.5716 14.6826 43.0272Z" fill="#84BD41"/>
<path d="M18.6975 16.2596C18.6975 16.3735 18.6121 16.459 18.4981 16.459C18.3842 16.459 18.2988 16.3735 18.2988 16.2596C18.2988 16.1457 18.3842 16.0603 18.4981 16.0603C18.6121 16.0603 18.6975 16.1457 18.6975 16.2596Z" fill="#EAE5D9"/>
<path d="M16.3057 34.228C16.8182 35.1962 17.2454 36.2213 17.5871 37.275C17.7579 37.816 17.9003 38.3571 17.9003 38.9266C17.9003 39.2113 17.8718 39.4961 17.7864 39.7809C17.7295 39.9232 17.701 40.0656 17.644 40.1795C17.5586 40.2934 17.4732 40.4358 17.3878 40.5497L17.3308 40.5212C17.4162 39.9802 17.3877 39.4676 17.3308 38.955C17.2738 38.4425 17.2454 37.9014 17.1599 37.3889C17.0745 36.8478 16.9321 36.3353 16.7897 35.8227C16.6474 35.3101 16.4765 34.7691 16.3057 34.2565V34.228Z" fill="black"/>
<path d="M13.8852 36.3069C14.0561 36.5347 14.2554 36.8479 14.3978 37.1327C14.5402 37.4174 14.6826 37.7592 14.7395 38.0724C14.825 38.4141 14.9104 38.7558 14.825 39.126C14.7395 39.4677 14.5402 39.8094 14.2554 40.0088L14.1985 39.9803C14.227 39.6101 14.2554 39.3253 14.2554 39.0406C14.2554 38.7558 14.3124 38.4711 14.2839 38.1578C14.2554 37.8446 14.1985 37.5314 14.1131 37.2466C14.0846 37.1042 14.0276 36.9334 13.9707 36.791C13.9137 36.6201 13.8568 36.5062 13.7998 36.3069H13.8852Z" fill="black"/>
<path d="M40.9663 36.9049C40.5107 37.1897 40.0835 37.5029 39.7134 37.8446C39.3147 38.1864 38.973 38.585 38.7167 39.0122C38.4319 39.4393 38.318 39.9234 38.2326 40.379C38.1757 40.6068 38.1756 40.8631 38.2041 41.0909C38.2041 41.3472 38.2611 41.6035 38.318 41.8598L38.2611 41.8882C37.8624 41.4896 37.6631 40.9201 37.6631 40.3221C37.6916 39.7241 38.0048 39.183 38.3465 38.7559C38.6882 38.3287 39.1154 37.9586 39.5425 37.6453C39.9981 37.3321 40.4537 37.0758 40.9378 36.8765L40.9663 36.9049Z" fill="black"/>
<path d="M40.7389 39.0407C40.7104 39.297 40.6819 39.5248 40.6249 39.7811C40.5965 40.0373 40.5395 40.2652 40.4826 40.5214C40.4256 40.7777 40.4256 41.034 40.3117 41.2333C40.1978 41.4611 40.0839 41.689 39.8561 41.8598L39.7991 41.8313C39.7137 41.5466 39.7422 41.2903 39.7707 41.0625C39.7991 40.8062 39.9415 40.6069 40.027 40.3791C40.1124 40.1512 40.2263 39.9234 40.3117 39.6956C40.4256 39.4678 40.511 39.24 40.6249 39.0122L40.7389 39.0407Z" fill="black"/>
<path d="M14.6251 19.2212C14.1694 20.3033 13.7708 21.4139 13.4575 22.5529C13.1443 23.6919 12.888 24.831 12.7172 25.9985C12.5748 27.166 12.5748 28.3051 12.5748 29.4726C12.5748 30.0421 12.6032 30.6116 12.6602 31.2096C12.7172 31.7791 12.8026 32.3487 12.888 32.9467L12.8026 32.9751C12.4893 32.4626 12.2331 31.893 12.0622 31.3235C11.8914 30.7255 11.7774 30.1275 11.7205 29.5295C11.6635 28.9315 11.692 28.3051 11.749 27.7071C11.8344 27.1091 11.9198 26.5111 12.0337 25.9131C12.29 24.7456 12.6033 23.578 13.0304 22.4675C13.4575 21.3569 13.9416 20.2463 14.5396 19.2212H14.6251Z" fill="black"/>
<path d="M17.9287 14.6651C18.2704 14.3803 18.6691 14.1525 19.0962 14.0386C19.5234 13.9247 20.0075 13.8962 20.4631 14.0671C20.577 14.0955 20.6909 14.1525 20.7763 14.2379L20.9187 14.3234C20.9757 14.3518 21.0041 14.4088 21.0611 14.4373C21.1465 14.5227 21.2319 14.5796 21.3174 14.6651L21.5452 14.9213C21.8299 15.2915 22.0293 15.6902 22.2286 16.1173C22.5988 17.0001 22.6273 17.9398 22.5134 18.8226C22.4564 19.2497 22.3425 19.6769 22.2001 20.104C22.0577 20.5311 21.9154 20.9298 21.6876 21.3285L21.6021 21.3C21.5737 20.4172 21.6306 19.563 21.6591 18.7371L21.716 17.5127C21.716 17.3133 21.716 17.114 21.716 16.9147C21.716 16.8008 21.6876 16.7153 21.6876 16.6299C21.6876 16.5445 21.6591 16.4306 21.6021 16.3452C21.3743 15.5763 20.9757 14.8074 20.2922 14.4657C19.9505 14.2949 19.5519 14.2379 19.1532 14.2949C18.7545 14.3518 18.3559 14.5227 17.9857 14.722L17.9287 14.6651Z" fill="black"/>
<path d="M23.3674 25.5714C23.766 25.7138 24.1932 25.7707 24.5918 25.7992C25.019 25.8277 25.4461 25.8277 25.8448 25.7992C26.6991 25.7422 27.5249 25.5999 28.3507 25.4005C28.7493 25.3151 29.1765 25.2012 29.5751 25.0873C29.9738 24.9734 30.3725 24.831 30.7711 24.7171C31.5685 24.4323 32.3658 24.1476 33.1631 23.8343C33.9604 23.5496 34.7863 23.2648 35.6121 23.0085C36.4379 22.7807 37.2921 22.5529 38.1464 22.4105C38.5736 22.3251 39.0007 22.2966 39.4279 22.2397C39.855 22.2112 40.2821 22.1542 40.7093 22.1542C41.5636 22.1258 42.4463 22.1258 43.3006 22.2397V22.3251C41.6205 22.5529 39.9404 22.8946 38.3173 23.2648C36.6657 23.635 35.0141 23.9767 33.3909 24.4893C32.5936 24.7456 31.7678 25.0303 30.942 25.2581C30.5148 25.3721 30.1162 25.486 29.689 25.5714C29.2619 25.6853 28.8348 25.7422 28.4361 25.8277C27.5818 25.9701 26.7275 26.0555 25.8732 26.0555C25.019 26.0555 24.1362 25.9985 23.3389 25.6568L23.3674 25.5714Z" fill="black"/>
<path d="M41.8213 25.3722C42.2769 25.1729 42.761 25.002 43.2736 24.9451C43.4159 24.9451 43.5583 24.9451 43.7007 24.9736C43.8431 25.002 44.014 25.0874 44.1563 25.2298C44.2987 25.3722 44.3557 25.5715 44.3557 25.7424C44.3557 25.9133 44.3272 26.0556 44.2987 26.198C44.2702 26.3404 44.2133 26.4828 44.1848 26.5967C44.1563 26.6536 44.1279 26.7106 44.0994 26.796C44.0709 26.853 44.0424 26.9384 43.9855 26.9954C43.8146 27.2516 43.6153 27.451 43.3875 27.5933C43.1597 27.7357 42.9034 27.8496 42.6471 27.9066C42.3908 27.9635 42.1345 28.0205 41.8498 27.992L41.8213 27.9066C42.1915 27.5079 42.5617 27.1947 42.8749 26.9099C43.0458 26.7675 43.1881 26.6252 43.3305 26.4828C43.359 26.4543 43.3875 26.4258 43.4159 26.3974C43.4444 26.3689 43.4729 26.3119 43.5014 26.255C43.5583 26.1696 43.6153 26.0556 43.6438 25.9702C43.7292 25.7709 43.7577 25.6285 43.7007 25.5431C43.6722 25.4576 43.4729 25.3437 43.2451 25.3437C42.7895 25.2868 42.3054 25.3437 41.8213 25.3722Z" fill="black"/>
<path d="M41.4495 28.3335C41.9052 28.3904 42.2753 28.7322 42.4747 29.1308C42.674 29.558 42.731 30.0136 42.731 30.4407C42.7025 30.6685 42.7309 30.8963 42.7025 31.0957C42.674 31.3235 42.6455 31.5228 42.5316 31.7221C42.3608 32.1208 42.1045 32.4625 41.7343 32.7758L41.6489 32.7473C41.6204 32.5195 41.6204 32.2917 41.6489 32.0923C41.6773 31.893 41.6773 31.6937 41.7343 31.4943C41.7912 31.0957 41.9906 30.754 42.0475 30.3838C42.1045 30.0136 42.133 29.6434 42.0475 29.2732C41.9906 28.9315 41.7628 28.5898 41.3926 28.4189L41.4495 28.3335Z" fill="black"/>
<path d="M15.5369 19.1643C15.5084 19.3067 15.4799 19.4206 15.4799 19.5345C15.4514 19.6484 15.423 19.7908 15.3945 19.9047C15.366 20.0186 15.366 20.161 15.2806 20.2464C15.1951 20.3318 15.0813 20.4173 14.8819 20.4457L14.825 20.4173C14.7395 20.2464 14.7395 20.104 14.768 19.9616C14.7965 19.8477 14.9104 19.7623 14.9958 19.6769C15.0812 19.5914 15.1667 19.4775 15.2521 19.3921C15.3375 19.3067 15.423 19.2213 15.5369 19.1643Z" fill="#010101"/>
<path d="M14.4844 21.3C14.4844 21.4423 14.4844 21.5562 14.4844 21.6701C14.4844 21.784 14.4559 21.9264 14.4559 22.0403C14.4275 22.1542 14.4844 22.2966 14.399 22.4105C14.3136 22.5244 14.2281 22.6099 14.0288 22.6668L13.9718 22.6383C13.8579 22.4675 13.8294 22.3251 13.8579 22.2112C13.8579 22.0688 13.9718 21.9834 14.0288 21.8979C14.0857 21.784 14.1427 21.6986 14.2281 21.5847C14.3135 21.4708 14.3705 21.3854 14.4559 21.2715L14.4844 21.3Z" fill="#010101"/>
<path d="M13.6289 25.6569C13.6289 25.7993 13.6289 25.9132 13.6289 26.0271C13.6289 26.141 13.6005 26.2834 13.6005 26.3973C13.572 26.5112 13.6289 26.6536 13.5435 26.7675C13.4581 26.8814 13.3727 26.9668 13.1733 27.0237L13.1164 26.9953C13.0025 26.8244 12.974 26.682 13.0025 26.5681C13.0025 26.4257 13.1164 26.3403 13.1733 26.2549C13.2303 26.141 13.2872 26.0556 13.3726 25.9416C13.4581 25.8277 13.515 25.7423 13.6005 25.6284L13.6289 25.6569Z" fill="#010101"/>
<path d="M16.5059 23.8058C16.5344 23.9197 16.5629 24.0621 16.5914 24.176C16.6199 24.2899 16.6483 24.4323 16.6483 24.5462C16.6768 24.6601 16.7338 24.8025 16.6768 24.9164C16.6199 25.0303 16.5629 25.1442 16.3921 25.2581H16.3351C16.1927 25.1157 16.1358 25.0018 16.1073 24.8879C16.0788 24.774 16.1642 24.6601 16.1927 24.5177C16.2212 24.4038 16.2497 24.2899 16.3066 24.1475C16.3636 24.0336 16.3921 23.9197 16.449 23.7773L16.5059 23.8058Z" fill="#010101"/>
<path d="M13.4581 29.6149C13.4866 29.7288 13.5151 29.8712 13.5435 29.9851C13.572 30.099 13.6005 30.2414 13.6005 30.3553C13.629 30.4692 13.6859 30.6116 13.629 30.7255C13.572 30.8394 13.5151 30.9533 13.3442 31.0672H13.2872C13.1449 30.9248 13.0879 30.8109 13.0594 30.697C13.031 30.5831 13.1164 30.4692 13.1449 30.3268C13.1733 30.2129 13.2018 30.099 13.2588 29.9566C13.3157 29.8427 13.3442 29.7288 13.4012 29.5864L13.4581 29.6149Z" fill="#010101"/>
<path d="M17.9279 30.9817C18.0418 31.0102 18.1557 31.0671 18.2981 31.0956C18.412 31.1526 18.5259 31.181 18.6398 31.238C18.7537 31.2949 18.8961 31.2949 18.9815 31.4088C19.0669 31.5227 19.1239 31.6366 19.1239 31.836L19.0954 31.8929C18.8961 31.9499 18.7822 31.9214 18.6398 31.8929C18.5259 31.8645 18.4689 31.7221 18.3835 31.6366C18.2981 31.5512 18.2126 31.4658 18.1272 31.3519C18.0418 31.238 17.9564 31.1525 17.8994 31.0386L17.9279 30.9817Z" fill="#010101"/>
<path d="M19.6945 5.21109C19.6945 5.97994 19.6091 6.72032 19.4667 7.48917C19.3243 8.22955 19.1535 8.9984 18.8687 9.7103C18.5839 10.4222 18.2992 11.1911 17.7581 11.7891C17.2171 12.3871 16.5337 12.8711 15.7648 13.0705L15.7363 12.9851C16.2489 12.3871 16.7045 11.846 17.1032 11.2765C17.3025 10.9633 17.5018 10.6785 17.7012 10.3937C17.8151 10.2514 17.9005 10.109 17.9859 9.93811C18.0714 9.76725 18.1853 9.62489 18.2422 9.45403L18.47 8.94145L18.6694 8.42888C18.8117 8.08717 18.9256 7.74545 19.0395 7.37526C19.2674 6.66336 19.4667 5.923 19.5806 5.18262L19.6945 5.21109Z" fill="black"/>
<path d="M39.201 11.0488C37.2931 11.1627 35.4136 11.1342 33.5058 11.0488C31.5979 10.9349 29.7184 10.764 27.839 10.4508L27.1271 10.3369L26.7854 10.2799L26.4152 10.1945L25.7033 10.0237C25.4755 9.96671 25.2477 9.88127 24.9914 9.79584C24.5073 9.65346 24.0802 9.42565 23.6245 9.19785C23.1974 8.94156 22.7703 8.68528 22.4001 8.34356C21.6312 7.68861 21.0047 6.91977 20.5491 6.03701C20.0935 5.15425 19.8087 4.21452 19.7803 3.24634H19.8657C20.4068 5.04033 21.5173 6.60653 22.9411 7.68862C23.112 7.831 23.2828 7.97337 23.4822 8.08727C23.6815 8.20118 23.8524 8.34356 24.0517 8.42899C24.4504 8.62832 24.849 8.85613 25.2762 8.99851C25.4755 9.08394 25.7033 9.16937 25.9026 9.2548L26.5576 9.45414L26.8993 9.53956L27.241 9.62499L27.9244 9.76737C29.7754 10.166 31.6263 10.4223 33.5058 10.6217C35.3852 10.821 37.2646 10.9349 39.1725 10.9349L39.201 11.0488Z" fill="black"/>
<path d="M44.2411 12.2163C44.2411 12.9282 44.1841 13.6401 44.1557 14.352C44.1272 15.0639 44.0987 15.7758 44.0417 16.4877C43.9848 17.1996 44.0417 17.9115 43.8994 18.6234C43.757 19.3353 43.5861 20.0188 43.2729 20.7022H43.1875C43.0451 19.9618 43.0166 19.2499 43.0451 18.538C43.0736 17.8261 43.2444 17.1427 43.3583 16.4308C43.4722 15.7189 43.5861 15.0354 43.7285 14.3235C43.8709 13.6116 43.9848 12.9282 44.1272 12.2163H44.2411Z" fill="black"/>
<path d="M13.3747 6.03695C13.3747 6.40714 13.0614 6.72036 12.6912 6.72036C12.3211 6.72036 12.0078 6.40714 12.0078 6.03695C12.0078 5.66676 12.3211 5.35352 12.6912 5.35352C13.0899 5.35352 13.3747 5.66676 13.3747 6.03695Z" fill="#008695"/>
<path d="M12.662 5.80879C12.662 5.89422 12.5766 5.97966 12.4912 5.97966C12.4057 5.97966 12.3203 5.89422 12.3203 5.80879C12.3203 5.72336 12.4057 5.63794 12.4912 5.63794C12.5766 5.63794 12.662 5.72336 12.662 5.80879Z" fill="#EAE5D9"/>
<path d="M16.9899 6.32137C16.9899 6.69156 16.6767 7.00479 16.3065 7.00479C15.9363 7.00479 15.623 6.69156 15.623 6.32137C15.623 5.95118 15.9363 5.63794 16.3065 5.63794C16.7051 5.63794 16.9899 5.95118 16.9899 6.32137Z" fill="#008695"/>
<path d="M16.2792 6.0937C16.2792 6.17913 16.1938 6.26457 16.1084 6.26457C16.0229 6.26457 15.9375 6.17913 15.9375 6.0937C15.9375 6.00827 16.0229 5.92285 16.1084 5.92285C16.1938 5.92285 16.2792 6.00827 16.2792 6.0937Z" fill="#EAE5D9"/>
<path d="M45.582 29.6434C45.7529 29.4441 45.8953 29.2448 46.0092 29.0454C46.1516 28.8461 46.2939 28.6183 46.4078 28.4189C46.5217 28.1911 46.6072 27.9633 46.7211 27.764C46.835 27.5362 46.9204 27.3369 46.9773 27.0806H47.0058C47.0913 27.3369 47.0628 27.6216 46.9773 27.8779C46.8919 28.1342 46.7495 28.3335 46.6072 28.5613C46.3224 28.9315 45.9807 29.3017 45.582 29.6434Z" fill="black"/>
<path d="M8.39221 27.707C8.02203 27.3652 7.68031 26.9951 7.39555 26.5679C7.25317 26.3686 7.08232 26.1408 7.02537 25.8845C6.93994 25.6282 6.91147 25.3434 6.9969 25.0872H7.02537C7.11079 25.3434 7.19623 25.5428 7.28166 25.7706C7.39556 25.9984 7.48098 26.2262 7.59489 26.4255C7.70879 26.6533 7.85118 26.8527 7.99356 27.052C8.10746 27.2798 8.24983 27.4792 8.39221 27.707Z" fill="black"/>
<path d="M46.1807 30.7537C46.4654 30.7252 46.7502 30.6682 47.0065 30.5828C47.1489 30.5543 47.2628 30.4689 47.3767 30.4404L47.7753 30.355L47.8038 30.3835C47.7469 30.5543 47.6045 30.6397 47.4906 30.7252C47.3482 30.8106 47.2058 30.8106 47.0634 30.8106C46.7502 30.8391 46.4654 30.8106 46.1807 30.7537Z" fill="black"/>
<path d="M7.62314 29.0454C7.3099 29.0454 7.02514 29.0169 6.7119 28.9315C6.56952 28.903 6.39867 28.8745 6.28476 28.7606C6.17086 28.6752 6.02848 28.5328 6 28.362L6.02847 28.3335L6.42714 28.5043C6.54105 28.5613 6.65495 28.6467 6.79733 28.7037C6.93971 28.7606 7.05362 28.8176 7.196 28.8745C7.33838 28.9315 7.48076 28.9884 7.62314 29.0454Z" fill="black"/>
</svg>
