<svg width="60" height="52" viewBox="0 0 60 52" fill="none" xmlns="http://www.w3.org/2000/svg">
<path opacity="0.2" d="M27.2377 51.6693C42.2806 51.6693 54.4753 40.8569 54.4753 27.5192C54.4753 14.1815 42.2806 3.36914 27.2377 3.36914C12.1947 3.36914 0 14.1815 0 27.5192C0 40.8569 12.1947 51.6693 27.2377 51.6693Z" fill="#84BD41"/>
<path d="M14.494 15.1474C14.494 15.1474 8.11613 33.3067 9.09053 39.4484C10.0649 45.5901 13.6082 46.4464 18.2735 45.1767C22.9389 43.8775 32.8601 45.2653 34.986 43.4051C37.112 41.5448 36.049 30.915 33.5687 23.3265C31.0884 15.7379 25.8325 19.606 23.116 16.9781C20.3995 14.3501 14.494 15.1474 14.494 15.1474Z" fill="white"/>
<path d="M10.9219 13.11C10.9219 13.11 14.8195 10.9249 16.5911 10.2458C18.3628 9.56667 23.2938 8.35605 26.2171 9.5962C29.1403 10.8363 28.845 11.7812 30.7052 11.5155C32.5654 11.2497 33.2741 12.0174 33.4217 12.5785C33.5989 13.1099 10.9219 13.11 10.9219 13.11Z" fill="white"/>
<path d="M35.93 19.5766L18.2135 20.4625C16.7962 20.5215 15.3494 20.4625 13.9321 20.2558L9.23723 19.5766C8.29235 19.5766 7.49512 18.8089 7.49512 17.8345V14.8227C7.49512 13.8779 8.26283 13.0806 9.23723 13.0806C9.23723 13.0806 22.0816 11.6338 26.4221 11.6338C28.7548 11.6338 35.93 13.0806 35.93 13.0806C36.8748 13.0806 37.6721 13.8483 37.6721 14.8227V17.8345C37.6721 18.8089 36.8748 19.5766 35.93 19.5766Z" fill="#84BD41"/>
<path d="M25.0049 9.80309C25.4183 9.24207 25.8907 8.68105 26.3631 8.17908C26.8356 7.67712 27.3671 7.17514 27.9281 6.73223C28.2234 6.49602 28.5186 6.31885 28.8434 6.14169C28.9911 6.0531 29.1682 5.99405 29.3454 5.90547C29.5226 5.84642 29.6702 5.75783 29.8474 5.69878C30.1722 5.58067 30.5265 5.46256 30.9104 5.4035C31.0875 5.37398 31.2942 5.34444 31.4714 5.34444C31.56 5.34444 31.6781 5.37398 31.7666 5.37398C31.8257 5.40351 31.8848 5.40351 31.9438 5.43304C31.9733 5.43304 32.0029 5.46255 32.0324 5.49208C32.0619 5.52161 32.0915 5.52162 32.1505 5.6102L31.7962 5.58068L33.3021 3.7795C33.804 3.18895 34.3355 2.56888 34.867 2.00786C35.3985 1.44684 35.9595 0.885824 36.5796 0.354332C36.6682 0.295277 36.7272 0.236219 36.8158 0.147637C36.8749 0.118109 36.9044 0.0885857 36.9635 0.0590583L37.0225 0.0295201C37.052 -7.20927e-06 37.1111 0 37.1406 0C37.1997 0 37.1997 0 37.2292 0C37.4359 0.0590547 37.6426 0.147644 37.8198 0.265753C38.1741 0.5315 38.3217 1.00393 38.2627 1.38779H38.2036C38.1446 1.00393 37.9674 0.649595 37.6426 0.47243C37.495 0.383848 37.3178 0.324794 37.1406 0.324794C37.1111 0.324794 37.0816 0.324794 37.0816 0.324794C37.1111 0.324794 37.1111 0.324794 37.1406 0.324794C37.1406 0.324794 37.1406 0.324794 37.1111 0.324794C37.0816 0.324794 37.052 0.383863 37.0225 0.41339C36.9635 0.472445 36.9044 0.531485 36.8158 0.620067C36.2843 1.18109 35.7824 1.80116 35.2509 2.39171C34.7194 2.98226 34.1879 3.57281 33.6564 4.13383C33.1249 4.69485 32.5934 5.2854 32.0619 5.87595L31.7076 5.84641C31.7371 5.87594 31.7076 5.87595 31.7076 5.87595C31.7076 5.87595 31.7076 5.87594 31.6781 5.84641C31.6485 5.84641 31.619 5.81689 31.5895 5.81689C31.5304 5.78737 31.4418 5.78735 31.3828 5.78735C31.2352 5.78735 31.058 5.78737 30.9104 5.81689C30.5856 5.87595 30.2312 5.935 29.9064 6.05311C29.7293 6.11216 29.5816 6.17121 29.4045 6.23027C29.2568 6.28932 29.0797 6.34838 28.932 6.43696C28.6367 6.5846 28.3415 6.76176 28.0462 6.96845C27.4852 7.3523 26.9242 7.82474 26.4222 8.29718C25.9202 8.79915 25.4478 9.30111 25.0049 9.83261V9.80309Z" fill="black"/>
<path d="M35.3994 5.63965C34.7793 6.34831 34.1297 7.05697 33.5097 7.76562L33.5392 7.64752C33.6573 7.9428 33.7459 8.20853 33.8049 8.50381C33.864 8.79908 33.923 9.09436 33.8935 9.41916C33.8935 9.71444 33.8345 10.0392 33.7459 10.3345C33.6573 10.6298 33.5097 10.8955 33.303 11.1317L33.2734 11.1022C33.362 10.8365 33.4801 10.5412 33.5097 10.2754C33.5687 9.98017 33.5687 9.71444 33.5687 9.41916C33.5687 9.12389 33.5392 8.85814 33.5097 8.56286C33.4801 8.26759 33.3915 8.00185 33.303 7.7361L33.2734 7.67704L33.3325 7.61799C34.0116 6.93886 34.6908 6.28925 35.3994 5.63965Z" fill="black"/>
<path d="M10.0349 19.0745C9.50343 21.4662 9.00147 23.8579 8.52904 26.2496C8.0566 28.6413 7.61368 31.0626 7.25936 33.4838C7.08219 34.6945 6.93456 35.9051 6.8755 37.1157C6.81645 38.3263 6.78692 39.5665 6.7574 40.7771C6.7574 41.3971 6.72787 41.9877 6.72787 42.6078C6.72787 42.903 6.72787 43.1983 6.72787 43.5231C6.72787 43.6117 6.72786 43.6412 6.66881 43.8479C6.63928 43.9365 6.60976 43.966 6.58023 44.0251C6.5507 44.0841 6.52117 44.1137 6.49164 44.1432C6.37353 44.2908 6.28496 44.4089 6.16685 44.4975C5.75347 44.9404 5.39914 45.3834 5.2515 45.8853C5.10386 46.3873 5.2515 46.8892 5.54677 47.3617L5.48771 47.3026C5.45819 47.2731 5.51725 47.3026 5.5763 47.3321C5.63536 47.3617 5.6944 47.3617 5.75346 47.3617C5.9011 47.3912 6.04873 47.3912 6.19637 47.4207C6.49164 47.4503 6.78692 47.4503 7.11172 47.4503C7.73179 47.4503 8.35187 47.4207 8.94242 47.3912C9.23769 47.3617 9.56249 47.3322 9.85777 47.3026C10.0054 47.2731 10.153 47.2731 10.2711 47.2436C10.3007 47.2436 10.3302 47.2141 10.3597 47.2141H10.3893C10.3893 47.2141 10.4778 47.1845 10.5074 47.1845C10.655 47.155 10.7436 47.155 10.8322 47.155C11.5113 47.155 12.1314 47.214 12.7514 47.2436C13.9916 47.3322 15.2317 47.4503 16.4719 47.5388C17.712 47.6274 18.9522 47.716 20.1923 47.7455C21.4325 47.7751 22.6726 47.7751 23.8833 47.6865C25.1234 47.5979 26.3636 47.4207 27.5742 47.2731C28.8143 47.0959 30.0545 46.9188 31.2651 46.7121C32.5053 46.5054 33.7159 46.2987 34.956 46.0625L34.9855 46.1511C33.7749 46.5054 32.5643 46.8007 31.3537 47.1255C30.1431 47.4207 28.9029 47.6865 27.6628 47.9227C26.4226 48.1589 25.1825 48.3656 23.9423 48.5132C22.6726 48.6609 21.403 48.6904 20.1628 48.6904C18.8931 48.6609 17.653 48.6018 16.3833 48.5132C15.1432 48.4247 13.8735 48.3066 12.6333 48.1885C12.0133 48.1294 11.3932 48.0703 10.8026 48.0703C10.7436 48.0703 10.655 48.0703 10.655 48.0703L10.5664 48.0999C10.5074 48.0999 10.4778 48.1294 10.4188 48.1294C10.2416 48.1589 10.094 48.1884 9.91682 48.218C9.59202 48.2475 9.26722 48.277 8.97195 48.3065C8.35187 48.3361 7.70226 48.3656 7.08219 48.3361C6.75739 48.3361 6.43259 48.3066 6.10779 48.277C5.93063 48.2475 5.78299 48.2475 5.60582 48.218C5.51724 48.1884 5.42866 48.1884 5.34008 48.1589C5.2515 48.1294 5.13339 48.0999 4.98575 47.9818L4.95623 47.9522L4.9267 47.9227C4.83811 47.7751 4.74954 47.6274 4.69048 47.4798L4.60189 47.2436C4.57237 47.155 4.54284 47.0664 4.54284 46.9778C4.45426 46.6235 4.51331 46.2396 4.60189 45.9148C4.80858 45.2357 5.28103 44.7042 5.69441 44.2613C5.81252 44.1432 5.9011 44.0546 5.98968 43.9365C6.01921 43.907 6.0192 43.8774 6.04873 43.8774C6.04873 43.8479 6.07826 43.8184 6.07826 43.8479C6.07826 43.8775 6.10779 43.7889 6.10779 43.7003L6.13732 42.7849C6.13732 42.1649 6.16684 41.5448 6.19637 40.9542C6.25542 39.7141 6.31448 38.5035 6.37353 37.2928C6.46212 36.0527 6.63928 34.8421 6.84597 33.6315C7.25936 31.2102 7.76132 28.8185 8.29281 26.4268C8.82431 24.0351 9.38533 21.6433 9.97588 19.2812L10.0349 19.0745Z" fill="black"/>
<path d="M36.4924 22.6475C36.9353 24.9211 37.3782 27.2242 37.7916 29.4978C38.2049 31.8009 38.5888 34.0745 38.9431 36.4072C39.0317 36.9977 39.1203 37.5588 39.1794 38.1493C39.2089 38.4446 39.2384 38.7399 39.2679 39.0351C39.2679 39.1828 39.2975 39.3304 39.2975 39.5076V39.98C39.2679 40.3934 39.5042 40.8954 39.7699 41.3383C40.0356 41.8107 40.39 42.2536 40.7148 42.7261L41.2463 43.4347C41.4234 43.6709 41.6006 43.9072 41.7482 44.232C41.8073 44.3796 41.9254 44.5568 41.8959 44.852C41.8368 45.2064 41.6892 45.2949 41.5711 45.4426C41.3053 45.7083 41.0396 45.856 40.7738 46.0036C39.6518 46.5351 38.3821 46.6532 37.2305 46.3874V46.2989C37.8211 46.2989 38.3821 46.2398 38.9136 46.0922C39.4451 45.9445 39.9766 45.7379 40.449 45.4426C40.6852 45.2949 40.8919 45.1178 41.0396 44.9701C41.0691 44.9406 41.0986 44.8816 41.1282 44.852C41.1282 44.8225 41.1577 44.7634 41.1577 44.8225C41.1577 44.8225 41.1282 44.7044 41.0691 44.6158C40.8034 44.2024 40.39 43.73 40.0356 43.2871C39.6813 42.8442 39.2975 42.3717 38.9727 41.8107C38.825 41.545 38.6774 41.2497 38.5593 40.9544C38.4412 40.6296 38.3821 40.3048 38.4116 39.921V39.8028V39.7143V39.5371C38.4116 39.419 38.4116 39.2714 38.4116 39.1237C38.4116 38.8284 38.3821 38.5627 38.3526 38.2674C38.3231 37.7064 38.264 37.1159 38.205 36.5548C37.9392 34.2517 37.6439 31.9486 37.3191 29.6454C37.0239 27.3423 36.6991 25.0392 36.3447 22.736L36.4924 22.6475Z" fill="black"/>
<path d="M17.0496 27.4614C16.7989 27.4386 16.5711 27.45 16.3546 27.4728C16.1381 27.4956 15.9216 27.5298 15.7166 27.5525C15.6254 27.5753 15.5684 27.5867 15.557 27.5981C15.5343 27.6209 15.5229 27.6665 15.5115 27.7576C15.4431 28.1222 15.3861 28.4868 15.3406 28.84C15.295 29.1932 15.238 29.5464 15.1925 29.911C15.1697 29.9794 15.1583 30.0363 15.1469 30.0933C15.1355 30.1617 15.1241 30.2186 15.1127 30.2756C15.0899 30.3668 15.0329 30.4237 14.9646 30.4465C14.8962 30.4807 14.8165 30.4807 14.7367 30.4465C14.4177 30.3212 14.2582 30.0933 14.2696 29.7515C14.2696 29.649 14.281 29.5464 14.281 29.4439C14.281 29.3527 14.281 29.2502 14.3037 29.1363C14.3265 29.0451 14.3037 28.9312 14.2582 28.8172C14.0531 28.4185 13.7796 28.0539 13.415 27.7348C13.3695 27.7121 13.3353 27.6779 13.3011 27.6551C13.2555 27.6323 13.2441 27.5867 13.2669 27.5184C13.2783 27.4728 13.3125 27.4386 13.3581 27.4272C13.4037 27.4158 13.4378 27.4044 13.4834 27.3816C13.6429 27.3361 13.8024 27.2905 13.9619 27.2449C14.1215 27.2107 14.2924 27.1766 14.4519 27.131C14.5658 27.1082 14.6342 27.0398 14.657 26.9259L14.9076 25.8093C14.9874 25.4447 15.0785 25.0687 15.1925 24.7041C15.238 24.5332 15.295 24.3623 15.3406 24.1914C15.3861 24.0205 15.4545 23.8496 15.5457 23.6787C15.5684 23.6445 15.5798 23.599 15.6026 23.5534C15.6254 23.5078 15.671 23.4964 15.7393 23.4964C15.8761 23.5192 15.9558 23.599 15.99 23.7129C16.0128 23.8268 16.0242 23.9294 16.0242 24.0205C16.0242 24.1231 16.0128 24.2256 16.0014 24.3282C15.9558 24.5902 15.9216 24.8523 15.8989 25.1029C15.8761 25.365 15.8419 25.627 15.7963 25.8777L15.7279 26.3334L15.6596 26.7892C15.6368 26.8575 15.6368 26.8917 15.6596 26.9031C15.671 26.9145 15.7052 26.9145 15.7735 26.8917C15.99 26.8689 16.2065 26.8461 16.4344 26.8234C16.6508 26.812 16.8787 26.812 17.1066 26.812C17.1863 26.812 17.2661 26.8234 17.3458 26.8234C17.4256 26.8347 17.5054 26.8461 17.5965 26.8461C17.6649 26.8461 17.699 26.8461 17.7218 26.8347C17.7332 26.8234 17.7446 26.7778 17.7674 26.7094C17.8244 26.4246 17.8813 26.1283 17.9383 25.8321C17.9839 25.5359 18.0409 25.251 18.1092 24.9548C18.1662 24.6244 18.2345 24.294 18.3029 23.975C18.3713 23.6559 18.451 23.3255 18.5194 22.9837C18.5422 22.8584 18.5877 22.79 18.6447 22.7672C18.6903 22.7558 18.77 22.79 18.884 22.8812C18.9409 22.9495 18.9865 23.0065 19.0207 23.0749C19.0435 23.1432 19.0663 23.223 19.0891 23.2913C19.1005 23.4964 19.1119 23.7015 19.1232 23.9066C19.1232 24.1117 19.1232 24.3168 19.1119 24.5218C19.0891 24.8181 19.0663 25.1029 19.0321 25.3878C18.9979 25.6726 18.9637 25.9574 18.9296 26.2423C18.8726 26.6069 18.8156 26.9601 18.77 27.3019C18.7245 27.6551 18.6561 28.0083 18.5764 28.3615C18.5308 28.5096 18.508 28.6577 18.4966 28.7944C18.4738 28.9426 18.4624 29.0907 18.451 29.2388C18.4054 29.4895 18.3827 29.7287 18.3599 29.968C18.3371 30.2186 18.3029 30.4579 18.2801 30.6972C18.2573 30.8225 18.2004 30.9137 18.1092 30.9706C18.0181 31.039 17.9155 31.039 17.813 30.9934C17.6421 30.9364 17.494 30.8567 17.38 30.7541C17.2889 30.663 17.2433 30.5605 17.2433 30.4237C17.2433 30.287 17.2661 30.1617 17.2889 30.025C17.3117 29.8882 17.3231 29.7629 17.3458 29.6262L17.4826 28.6008C17.5281 28.2589 17.5737 27.9171 17.6307 27.5753C17.6307 27.507 17.6079 27.4614 17.5395 27.4614H17.0496ZM14.3835 28.2248C14.4063 28.2248 14.4177 28.2248 14.4291 28.2134C14.4405 28.145 14.4519 28.0766 14.4519 28.0083C14.4519 27.9399 14.4633 27.8602 14.486 27.769C14.4063 27.7918 14.3379 27.7918 14.2696 27.7918C14.2012 27.7918 14.1442 27.8032 14.0759 27.8374C14.1328 27.9057 14.1898 27.9741 14.2354 28.0425C14.281 28.1108 14.3265 28.1678 14.3835 28.2248ZM19.7514 28.1678C19.797 28.1564 19.8312 28.1336 19.8539 28.088C19.8767 28.0539 19.9109 28.0197 19.9337 27.9741C20.0704 27.8032 20.2071 27.6209 20.3325 27.4272C20.4578 27.2449 20.5717 27.0398 20.6857 26.8347C20.6971 26.812 20.7085 26.7778 20.7313 26.755C20.7768 26.6638 20.8224 26.6069 20.8452 26.5841C20.868 26.5727 20.9136 26.5727 20.9819 26.5841C21.187 26.6297 21.2895 26.7322 21.3123 26.9031C21.3237 27.0626 21.3237 27.1993 21.3009 27.3133C21.2326 27.6095 21.244 27.8944 21.3123 28.1678C21.3237 28.2248 21.3351 28.2589 21.3465 28.2589C21.3579 28.2589 21.3807 28.2476 21.4263 28.2248C21.4832 28.202 21.5288 28.1678 21.5744 28.1222C21.62 28.0766 21.6541 28.0311 21.6997 27.9855C21.7795 27.8944 21.8478 27.7918 21.9162 27.6893C21.9846 27.5981 22.0415 27.4956 22.0985 27.3816C22.0985 27.3589 22.1099 27.3475 22.1213 27.3247C22.1213 27.3019 22.1327 27.2791 22.1555 27.2563C22.201 27.2107 22.2466 27.1993 22.3036 27.2335C22.3605 27.2563 22.3833 27.3019 22.3605 27.3589C22.2922 27.5411 22.2238 27.7234 22.1555 27.8944C22.0757 28.0766 21.9846 28.2362 21.882 28.3957C21.7681 28.5666 21.6314 28.6691 21.4491 28.6919C21.3351 28.7147 21.2212 28.6919 21.1072 28.6121C20.9591 28.521 20.8338 28.4185 20.7313 28.3045C20.6173 28.1906 20.5604 28.0539 20.549 27.8716C20.5034 27.8716 20.4806 27.8716 20.4806 27.8944C20.4692 27.9171 20.4578 27.9285 20.4578 27.9399C20.3667 28.0766 20.2869 28.202 20.2185 28.3387C20.1502 28.4754 20.0704 28.6121 19.9793 28.7375C19.8881 28.8742 19.7628 28.9426 19.6147 28.9426C19.5463 28.9426 19.4894 28.9312 19.4438 28.9084C19.102 28.7375 18.9425 28.4412 18.9652 28.0311C18.9766 27.9171 18.9994 27.7918 19.0336 27.6779C19.0564 27.5639 19.102 27.4386 19.1475 27.3247C19.2387 27.131 19.3298 26.9373 19.4438 26.755C19.5463 26.5727 19.683 26.4132 19.8426 26.2537C19.9793 26.1169 20.1388 26.0486 20.3325 26.0372C20.5262 26.0258 20.6971 26.0828 20.8566 26.1967L20.9022 26.2537L20.9591 26.2992L20.9819 26.3448C20.9819 26.3676 20.9819 26.379 20.9705 26.4018C20.9477 26.4246 20.9249 26.4246 20.8794 26.4246C20.868 26.4246 20.8566 26.4132 20.8452 26.4132C20.8224 26.4018 20.7996 26.3904 20.7882 26.3676C20.7654 26.3448 20.7426 26.3448 20.7085 26.3448C20.6629 26.3676 20.6287 26.4018 20.5831 26.4588C20.492 26.5271 20.4236 26.6069 20.3667 26.7208C20.2299 26.9487 20.116 27.1652 20.0021 27.393C19.8881 27.6209 19.8084 27.8488 19.7514 28.088C19.74 28.1108 19.74 28.1336 19.74 28.1564L19.7514 28.1678ZM22.5548 29.535C22.475 29.5464 22.418 29.535 22.3725 29.4895C22.3269 29.4439 22.2927 29.3983 22.2585 29.3413C22.2244 29.2958 22.2244 29.2502 22.2471 29.2046C22.2699 29.159 22.2927 29.1249 22.3269 29.0793C22.3953 28.9881 22.475 28.897 22.5662 28.8058C22.6573 28.7261 22.7371 28.6463 22.8282 28.5552C22.8852 28.4982 22.9308 28.4526 22.9535 28.4185C23.0219 28.3501 23.0105 28.2817 22.9194 28.2134C22.8852 28.202 22.851 28.1906 22.8168 28.1792C22.7826 28.1678 22.7485 28.1564 22.7143 28.1336C22.5434 28.088 22.4066 28.0083 22.3155 27.8944C22.213 27.7804 22.1218 27.6551 22.0534 27.5184C21.9623 27.3816 21.9623 27.2335 22.0534 27.074C22.3041 26.6069 22.6687 26.2765 23.17 26.0942C23.2726 26.06 23.3751 26.06 23.4663 26.0828C23.5574 26.1169 23.6372 26.1739 23.7055 26.2537C23.7739 26.3448 23.7739 26.436 23.7055 26.5157C23.6372 26.6069 23.5574 26.6866 23.489 26.7664C23.4207 26.8461 23.3409 26.9259 23.2726 27.0056C23.1814 27.0968 23.1017 27.1993 23.0333 27.2905C22.9535 27.3816 22.8852 27.4842 22.8282 27.5867C22.7826 27.6551 22.7712 27.7007 22.7712 27.7234C22.7712 27.7462 22.8168 27.769 22.8852 27.8032C22.9421 27.8488 22.9991 27.883 23.0561 27.9171C23.1131 27.9513 23.17 27.9969 23.2156 28.0425C23.2498 28.088 23.284 28.0994 23.3067 28.0994C23.3295 28.0994 23.3637 28.088 23.4093 28.0539C23.5346 27.9627 23.6599 27.8602 23.7967 27.769C23.922 27.6779 24.0587 27.5981 24.2182 27.5298C24.2638 27.507 24.298 27.4842 24.3322 27.4842C24.4005 27.4614 24.4461 27.4842 24.4689 27.5411C24.4803 27.5639 24.4803 27.5867 24.4575 27.5981C24.4347 27.6209 24.4233 27.6323 24.4119 27.6437C24.2752 27.7576 24.1385 27.8602 24.0018 27.9627C23.865 28.0653 23.7397 28.1678 23.603 28.2703C23.546 28.3159 23.5118 28.3501 23.489 28.3957C23.4663 28.4412 23.4663 28.4868 23.489 28.5438C23.5004 28.6235 23.5004 28.6919 23.489 28.7603C23.4663 28.8286 23.4435 28.8856 23.4093 28.9426C23.2042 29.2844 22.9194 29.4895 22.5548 29.535ZM24.9298 28.2817C24.9754 28.3045 25.0209 28.2931 25.0437 28.2703C25.0665 28.2476 25.1007 28.2248 25.1463 28.202C25.2488 28.1222 25.34 28.0311 25.4311 27.9171C25.5223 27.8146 25.5906 27.7007 25.659 27.5639C25.6704 27.5411 25.6818 27.507 25.6932 27.4842C25.7046 27.4614 25.7387 27.45 25.7843 27.4728C25.8527 27.507 25.8755 27.5639 25.8413 27.6437C25.7843 27.7804 25.7274 27.9057 25.6704 28.0197C25.602 28.145 25.5337 28.2589 25.4425 28.3615C25.3514 28.464 25.2374 28.5324 25.1235 28.578C24.9412 28.6463 24.7703 28.6235 24.6108 28.5096C24.269 28.2589 24.1436 27.9399 24.212 27.5298C24.2348 27.4158 24.2576 27.3133 24.3032 27.1993C24.3487 27.0968 24.4057 26.9943 24.4741 26.9031C24.531 26.8234 24.5766 26.7664 24.6222 26.7436C24.6677 26.7208 24.7247 26.7208 24.7931 26.7436C24.8728 26.7664 24.9412 26.812 24.9982 26.8803C25.0551 26.9487 25.0893 27.017 25.0893 27.0968C25.0779 27.1993 25.0665 27.2905 25.0551 27.3816C25.0437 27.4728 25.0323 27.5639 25.0209 27.6551C24.9982 27.769 24.9868 27.8716 24.964 27.9741C24.9412 28.0766 24.9298 28.1792 24.9298 28.2817ZM24.8045 25.8093C24.8159 25.741 24.8273 25.6726 24.8386 25.5928C24.8386 25.5245 24.8614 25.4447 24.8956 25.365C24.9412 25.2738 25.0096 25.2396 25.1235 25.2624C25.226 25.2966 25.2944 25.3536 25.3286 25.4219C25.3514 25.5017 25.34 25.5928 25.283 25.684C25.2374 25.7524 25.2032 25.8093 25.1805 25.8777C25.1463 25.946 25.1235 26.0144 25.1121 26.0828C25.0893 26.1739 25.0323 26.1967 24.9526 26.1283C24.85 26.06 24.8045 25.9574 24.8045 25.8093ZM28.4162 23.8838C28.3935 24.0889 28.3707 24.2826 28.3251 24.4649C28.2795 24.6472 28.2226 24.8295 28.1542 25.0118C27.9947 25.4219 27.8124 25.8093 27.6073 26.1739C27.3908 26.5385 27.1516 26.9031 26.8895 27.2449C26.8667 27.2905 26.8439 27.3247 26.8211 27.3475C26.7983 27.3816 26.7642 27.4044 26.73 27.4272C26.6616 27.4728 26.6274 27.5298 26.6047 27.5981C26.5819 27.6665 26.5705 27.7234 26.5705 27.7918C26.5477 27.9171 26.5477 28.0425 26.5477 28.1564V28.5096C26.5477 28.5324 26.5477 28.5438 26.5477 28.5438C26.5477 28.5552 26.5591 28.5666 26.5591 28.578C26.5705 28.7147 26.6047 28.7944 26.6502 28.8172C26.6958 28.84 26.7756 28.8286 26.9009 28.7831C27.0718 28.7261 27.2199 28.6463 27.3566 28.5438C27.482 28.4412 27.5959 28.3159 27.7098 28.1678C27.7782 28.0653 27.858 27.9627 27.9263 27.8488C27.9947 27.7348 28.0516 27.6209 28.0972 27.4842C28.1086 27.45 28.12 27.4158 28.1428 27.393C28.1542 27.3702 28.1884 27.3702 28.2453 27.3816C28.3251 27.4272 28.3479 27.4842 28.3251 27.5639C28.3023 27.6209 28.2795 27.6779 28.2681 27.7234C28.2453 27.7804 28.2226 27.8374 28.1998 27.8944C28.1314 28.0311 28.063 28.1678 27.9947 28.3045C27.9263 28.4412 27.8466 28.5666 27.7668 28.6919C27.6301 28.9198 27.4592 29.0679 27.2541 29.1363C27.0376 29.216 26.8325 29.2388 26.6274 29.1932C26.4907 29.1704 26.3882 29.1249 26.297 29.0451C26.2059 28.9767 26.1147 28.897 26.0236 28.8058C25.8755 28.6805 25.7843 28.5324 25.7387 28.3729C25.6932 28.2134 25.659 28.0425 25.6476 27.8602C25.6362 27.6893 25.6476 27.5184 25.6818 27.3589C25.7046 27.1993 25.7387 27.0398 25.7843 26.8803C25.8869 26.4815 26.0008 26.0942 26.1261 25.7068C26.2401 25.3194 26.3882 24.9434 26.5591 24.556C26.6388 24.3737 26.73 24.18 26.8325 23.9977C26.9237 23.8154 27.0376 23.6445 27.1743 23.485C27.2085 23.4395 27.2427 23.4053 27.2883 23.3597L27.4022 23.2458C27.5275 23.109 27.6529 23.0521 27.7896 23.0521C27.9149 23.0521 28.063 23.1318 28.2226 23.2913C28.3593 23.4508 28.4276 23.6445 28.4162 23.8838ZM28.0403 23.4508C27.9947 23.4736 27.9605 23.4964 27.9377 23.5192C27.9149 23.542 27.8921 23.5762 27.8693 23.599C27.7668 23.7243 27.6871 23.8496 27.6187 23.9863C27.5503 24.1231 27.482 24.2598 27.425 24.3965C27.2655 24.7383 27.1516 25.0915 27.0604 25.4333C26.9693 25.7751 26.8895 26.1283 26.8097 26.4929C26.787 26.5613 26.7756 26.6183 26.7528 26.6866C26.73 26.755 26.73 26.8234 26.73 26.8917L26.7756 26.8689C26.787 26.8461 26.7983 26.8347 26.8211 26.812C26.8439 26.7892 26.8553 26.7664 26.8781 26.7436C27.1288 26.3904 27.3452 26.0258 27.5275 25.6384C27.6984 25.251 27.8466 24.8523 27.9605 24.4307C28.0061 24.2826 28.0289 24.1231 28.0516 23.9636C28.063 23.804 28.063 23.6331 28.0403 23.4508Z" fill="black"/>
<path d="M19.5756 34.3308C19.5414 34.3763 19.5186 34.4105 19.5186 34.4333C19.5186 34.4675 19.5072 34.5017 19.4958 34.5359C19.4389 34.7865 19.3933 35.0258 19.3705 35.2651C19.3363 35.5157 19.3021 35.755 19.2679 35.9942C19.2566 36.0284 19.2452 36.0626 19.2452 36.0854C19.2452 36.1196 19.2338 36.1538 19.2224 36.1879C19.1768 36.3247 19.1084 36.4044 19.0059 36.4272C18.9034 36.45 18.8008 36.4158 18.6983 36.3247C18.6755 36.3019 18.6527 36.2905 18.6299 36.2677C18.6071 36.2449 18.5843 36.2221 18.5615 36.1993C18.4248 36.074 18.3451 35.9145 18.3451 35.7094C18.3451 35.5271 18.3565 35.3448 18.3792 35.1625C18.402 34.9802 18.4362 34.8093 18.4818 34.627C18.5615 34.1941 18.6641 33.7725 18.778 33.3623C18.892 32.9521 19.0059 32.5306 19.1312 32.0976C19.1768 31.9381 19.2338 31.7672 19.3021 31.6077C19.3705 31.4482 19.4389 31.2887 19.5072 31.1292C19.5072 31.1178 19.5186 31.1064 19.5186 31.095C19.5186 31.095 19.5186 31.0836 19.53 31.0722C19.5528 31.0494 19.5642 31.0152 19.5756 30.9811C19.587 30.9469 19.6211 30.9241 19.6667 30.9241C19.7123 30.9355 19.7465 30.9583 19.7693 30.9924C19.7921 31.0266 19.8034 31.0608 19.8262 31.095C19.849 31.1634 19.8604 31.2317 19.8718 31.3001C19.8718 31.3684 19.8832 31.4368 19.8832 31.5052C19.8718 31.6761 19.8604 31.8356 19.8604 31.9951C19.849 32.1546 19.8262 32.3255 19.8034 32.485V32.5989C19.8604 32.5078 19.906 32.4166 19.9402 32.3255C19.963 32.2344 19.9971 32.1546 20.0427 32.0634C20.1453 31.8242 20.2592 31.5849 20.3731 31.3457C20.4871 31.1178 20.601 30.8785 20.7377 30.6392C20.8403 30.4456 20.9884 30.2633 21.1707 30.0924C21.2846 29.9898 21.3986 29.9328 21.5011 29.9215C21.5922 29.9215 21.7062 29.967 21.8429 30.0696C21.9568 30.1721 22.048 30.286 22.105 30.4114C22.1505 30.5481 22.1961 30.6848 22.2189 30.8215C22.2873 31.2545 22.2759 31.6419 22.1619 32.0065C22.048 32.3711 21.8543 32.7243 21.5922 33.0433C21.4669 33.2028 21.3302 33.3281 21.1821 33.4421C21.034 33.556 20.8858 33.6699 20.7377 33.7725C20.7149 33.7953 20.7035 33.8067 20.6808 33.8067C20.658 33.8181 20.6466 33.8295 20.6352 33.8409C20.6466 33.8864 20.6694 33.9092 20.6921 33.9092C20.7149 33.9092 20.7491 33.9206 20.7719 33.932C21.4783 34.2624 21.9454 34.7865 22.1733 35.5043C22.2759 35.8461 22.2759 36.1651 22.1619 36.4614C22.048 36.7576 21.8543 36.9969 21.5922 37.1792C21.0909 37.4982 20.5212 37.7033 19.906 37.783C19.5414 37.84 19.1768 37.7944 18.8236 37.6577C18.5502 37.5666 18.3451 37.3843 18.2311 37.1222L18.14 36.9513C18.1172 36.9057 18.0944 36.8488 18.0716 36.7804C18.0602 36.769 18.0602 36.7462 18.0602 36.7234C18.0602 36.7006 18.0602 36.6779 18.083 36.6551C18.0944 36.6437 18.1172 36.6437 18.14 36.6437C18.1628 36.6437 18.1856 36.6551 18.2083 36.6551C18.3679 36.7234 18.5388 36.769 18.6983 36.7918C18.8578 36.8146 19.0287 36.8146 19.1882 36.7918C19.3477 36.769 19.5186 36.7462 19.6781 36.7006C19.8376 36.6551 20.0085 36.6095 20.168 36.5525C20.3048 36.5183 20.4415 36.4614 20.5782 36.393C20.7035 36.3247 20.8289 36.2563 20.9542 36.1651C21.0795 36.074 21.1935 35.9715 21.2846 35.8575C21.3758 35.7436 21.4555 35.5955 21.5011 35.436C21.5581 35.2537 21.5239 35.1055 21.3986 34.9916C21.1707 34.7409 20.8858 34.5928 20.5554 34.5245C20.3845 34.5017 20.2136 34.4789 20.0541 34.4561C19.8832 34.4333 19.7237 34.3877 19.5756 34.3308ZM19.9288 33.1914C20.2934 32.9977 20.6124 32.7699 20.8631 32.5192C21.1137 32.2685 21.3074 31.9609 21.4441 31.6191C21.5239 31.4026 21.5922 31.1861 21.6378 30.9583C21.6834 30.7304 21.672 30.5025 21.6264 30.2519C21.5808 30.2519 21.5353 30.2519 21.5125 30.2747C21.4897 30.2974 21.4669 30.3202 21.4441 30.3316C21.1935 30.5823 20.9884 30.8557 20.8289 31.152C20.7605 31.3001 20.6808 31.4482 20.6124 31.5849C20.544 31.7216 20.4757 31.8698 20.4187 32.0065L20.168 32.5762C20.0769 32.7699 19.9971 32.9749 19.9288 33.1914ZM23.2748 35.436C23.3659 35.4132 23.4457 35.3676 23.514 35.2992C23.5824 35.2423 23.6394 35.1739 23.6963 35.1055C23.8444 34.9232 23.9812 34.7296 24.1179 34.5245C24.2546 34.3308 24.3571 34.1143 24.4255 33.8636C24.4711 33.6813 24.5508 33.5104 24.6648 33.3509C24.6876 33.3167 24.7217 33.2826 24.7559 33.2484C24.7787 33.2256 24.8243 33.2028 24.8926 33.2028C25.0522 33.2028 25.1433 33.3054 25.1547 33.4876C25.1547 33.6244 25.1547 33.7497 25.1433 33.8864C25.1205 34.0231 25.1091 34.1599 25.0977 34.2852C25.0749 34.4447 25.0522 34.5928 25.0408 34.7409C25.018 34.9005 25.018 35.0486 25.0408 35.1967C25.0408 35.2195 25.0522 35.2423 25.0522 35.2651C25.0522 35.2878 25.0636 35.3106 25.0977 35.3106C25.1319 35.322 25.1661 35.2992 25.2003 35.2537C25.2572 35.1853 25.3142 35.1283 25.3712 35.06C25.4168 34.9916 25.4737 34.9232 25.5307 34.8549C25.5763 34.7979 25.6104 34.7523 25.6446 34.7296C25.6902 34.684 25.7472 34.684 25.8155 34.7296C25.8497 34.7523 25.8611 34.7865 25.8497 34.8093C25.8383 34.8321 25.8269 34.8549 25.8155 34.8777C25.77 34.9916 25.713 35.0941 25.656 35.1967C25.5991 35.3106 25.5307 35.4018 25.4395 35.4815C25.2459 35.6524 25.0294 35.698 24.8015 35.6183C24.6648 35.5727 24.5508 35.5157 24.4483 35.4473C24.3344 35.379 24.266 35.2537 24.2318 35.0828C24.1862 35.1511 24.1407 35.2081 24.1065 35.2537C24.0723 35.2992 24.0381 35.3562 24.0039 35.4018C23.8672 35.5955 23.6621 35.7322 23.4001 35.8119C23.3203 35.8461 23.252 35.8575 23.2064 35.8461C23.1152 35.8461 23.0355 35.8347 22.9443 35.7892C22.8532 35.7436 22.762 35.698 22.6823 35.6296C22.6025 35.5613 22.5342 35.4929 22.4772 35.4132C22.4088 35.3448 22.3747 35.2651 22.3519 35.1853C22.3291 35.0941 22.3177 34.9916 22.3177 34.9005C22.3177 34.8093 22.3291 34.7068 22.3519 34.6042C22.3747 34.4561 22.3974 34.308 22.4316 34.1485C22.4658 34.0004 22.5114 33.8522 22.5797 33.7041C22.5797 33.7041 22.5797 33.6927 22.5911 33.6813C22.6823 33.4535 22.8304 33.3623 23.0469 33.4307C23.2862 33.499 23.3887 33.6586 23.3545 33.9092L23.2178 35.1055C23.2064 35.2081 23.2292 35.322 23.2748 35.436ZM28.073 34.4675C27.9818 34.6042 27.9135 34.7296 27.8451 34.8435C27.7767 34.9688 27.7084 35.0941 27.6514 35.2081C27.5831 35.3448 27.4919 35.4132 27.3666 35.4132C27.3096 35.436 27.264 35.4246 27.2299 35.4018C27.1045 35.3334 26.9906 35.2423 26.8994 35.1511C26.7969 35.06 26.7399 34.9346 26.7399 34.7523C26.683 34.8207 26.6374 34.8891 26.6146 34.9574C26.5918 35.0258 26.5576 35.0941 26.5348 35.1511C26.5007 35.2423 26.4665 35.322 26.4437 35.4018C26.4209 35.4929 26.3867 35.5727 26.3525 35.6524C26.307 35.7436 26.25 35.8119 26.1816 35.8347C26.1019 35.8689 26.0221 35.8575 25.9538 35.8006C25.8057 35.7208 25.6917 35.6183 25.6006 35.5043C25.5436 35.436 25.5094 35.3676 25.498 35.2878C25.4866 35.2195 25.4866 35.1397 25.5094 35.0486C25.5436 34.7979 25.6006 34.5586 25.6803 34.3194C25.7601 34.0801 25.8626 33.8522 25.9766 33.6244C26.0221 33.5218 26.0677 33.4535 26.1133 33.4307C26.1589 33.4079 26.2158 33.4079 26.2956 33.4307C26.4779 33.4763 26.5918 33.6016 26.6146 33.7839C26.6146 33.8522 26.6032 33.9092 26.5918 33.9548C26.5804 34.0118 26.5804 34.0801 26.5804 34.1599C26.626 34.0915 26.6716 34.0345 26.7171 33.9776C26.7627 33.932 26.7969 33.875 26.8425 33.8181C26.8766 33.7725 26.9108 33.7155 26.945 33.6699C26.9678 33.6244 27.002 33.5788 27.0476 33.5332C27.1273 33.4421 27.2185 33.4079 27.3324 33.4307C27.4463 33.4535 27.5147 33.5332 27.5603 33.6472C27.5944 33.7839 27.6172 33.8978 27.6172 34.0118V34.2054C27.6514 34.1941 27.6742 34.1713 27.697 34.1485C27.7198 34.1257 27.7312 34.1029 27.754 34.0687C27.8793 33.8978 28.0046 33.7269 28.1299 33.5446C28.2553 33.3737 28.392 33.2028 28.5401 33.0319C28.5743 32.9977 28.6085 32.9635 28.6541 32.9294C28.6882 32.9066 28.7338 32.8838 28.8022 32.8838C28.8933 32.8952 28.9845 32.9294 29.0528 32.9977C29.1212 33.0661 29.1554 33.1458 29.1782 33.2484C29.1896 33.3623 29.1896 33.4763 29.1782 33.5902C29.1668 33.7041 29.1554 33.8067 29.1326 33.9092C29.087 34.0915 29.0528 34.2624 29.0186 34.4447C28.9845 34.627 28.9503 34.7979 28.9161 34.9688C28.9047 35.0258 28.8933 35.0828 28.8933 35.1283C28.8933 35.1739 28.8933 35.2309 28.8933 35.2764C28.8933 35.3904 28.9389 35.4132 29.03 35.3562C29.0528 35.3448 29.0642 35.3334 29.087 35.322C29.1098 35.3106 29.1326 35.2992 29.1554 35.2764C29.2807 35.1739 29.3946 35.06 29.4972 34.946C29.5997 34.8321 29.6909 34.6954 29.782 34.5359C29.7934 34.5017 29.8162 34.4675 29.839 34.4447C29.8618 34.4219 29.896 34.4105 29.9415 34.4105C30.0441 34.4333 30.0783 34.4789 30.0555 34.5586C29.9757 34.7637 29.8846 34.946 29.782 35.1055C29.6795 35.2764 29.5428 35.4246 29.3718 35.5499C29.3149 35.5955 29.2579 35.6183 29.2123 35.641C29.1554 35.6638 29.0984 35.6752 29.0528 35.698C29.0073 35.7208 28.9503 35.7208 28.9047 35.7208C28.8591 35.7208 28.8136 35.7208 28.7794 35.698C28.5743 35.6183 28.4148 35.5157 28.2895 35.3904C28.1527 35.2764 28.0844 35.0828 28.073 34.8093V34.4675ZM30.4355 35.2537C30.481 35.2764 30.5266 35.2651 30.5494 35.2423C30.5722 35.2195 30.6064 35.1967 30.6519 35.1739C30.7545 35.0941 30.8456 35.003 30.9368 34.8891C31.0279 34.7865 31.0963 34.6726 31.1647 34.5359C31.176 34.5131 31.1874 34.4789 31.1988 34.4561C31.2102 34.4333 31.2444 34.4219 31.29 34.4447C31.3583 34.4789 31.3811 34.5359 31.3469 34.6156C31.29 34.7523 31.233 34.8777 31.176 34.9916C31.1077 35.1169 31.0393 35.2309 30.9482 35.3334C30.857 35.436 30.7431 35.5043 30.6292 35.5499C30.4469 35.6183 30.2759 35.5955 30.1164 35.4815C29.7746 35.2309 29.6493 34.9118 29.7177 34.5017C29.7404 34.3877 29.7632 34.2852 29.8088 34.1713C29.8544 34.0687 29.9114 33.9662 29.9797 33.875C30.0367 33.7953 30.0823 33.7383 30.1278 33.7155C30.1734 33.6927 30.2304 33.6927 30.2987 33.7155C30.3785 33.7383 30.4469 33.7839 30.5038 33.8522C30.5608 33.9206 30.595 33.989 30.595 34.0687C30.5836 34.1713 30.5722 34.2624 30.5608 34.3536C30.5494 34.4447 30.538 34.5359 30.5266 34.627C30.5038 34.7409 30.4924 34.8435 30.4696 34.946C30.4469 35.0486 30.4355 35.1511 30.4355 35.2537ZM30.3101 32.7812C30.3215 32.7129 30.3329 32.6445 30.3443 32.5648C30.3443 32.4964 30.3671 32.4166 30.4013 32.3369C30.4469 32.2457 30.5152 32.2116 30.6292 32.2344C30.7317 32.2685 30.8001 32.3255 30.8342 32.3939C30.857 32.4736 30.8456 32.5648 30.7887 32.6559C30.7431 32.7243 30.7089 32.7812 30.6861 32.8496C30.6519 32.918 30.6292 32.9863 30.6178 33.0547C30.595 33.1458 30.538 33.1686 30.4582 33.1003C30.3557 33.0319 30.3101 32.9294 30.3101 32.7812Z" fill="black"/>
<path d="M38.323 41.2204C38.323 41.2204 41.6596 31.7126 42.0435 29.5866C42.4273 27.4606 40.8919 26.0729 40.7738 23.0315C40.6557 19.9902 41.571 18.632 40.5081 16.2402C39.4451 13.8485 39.1203 12.4312 38.825 12.5493C38.5002 12.6674 37.2305 20.9942 37.5849 22.8544C37.9392 24.7441 39.7699 28.2284 39.5927 29.5866C39.4155 30.9449 38.6478 37.0275 38.2935 38.7696C37.9392 40.5117 34.2778 49.8424 35.2227 48.8385C36.1971 47.8641 38.323 41.2204 38.323 41.2204Z" fill="#BBC64E"/>
<path d="M51.9336 29.5867L53.3804 33.4252C53.3804 33.4252 54.5025 35.9055 56.3036 37.4409C58.1048 38.9764 59.7288 39.5079 59.7288 39.5079C59.7288 39.5079 56.2741 37.0276 55.6245 34.9607C54.9454 32.8937 51.9336 29.5867 51.9336 29.5867Z" fill="#BBC64E"/>
<path d="M35.606 47.0671C35.6946 47.0966 35.8127 47.0671 35.8422 46.9785C35.8718 46.8899 39.7398 38.0317 41.0095 33.7798C42.2792 29.5278 43.1945 24.6854 43.1945 24.6263C43.2241 24.5377 43.1355 24.4491 43.0469 24.4196C42.9583 24.3901 42.8697 24.4787 42.8402 24.5672C42.8402 24.6263 41.9249 29.4393 40.6552 33.6617C39.3855 37.8841 35.547 46.7423 35.5174 46.8309C35.4879 46.9194 35.606 47.0671 35.606 47.0671Z" fill="#858935"/>
<path d="M42.486 25.8074C42.486 25.8074 42.8699 26.1027 43.4604 25.8664C44.5529 25.4235 44.8482 24.2424 44.8482 24.2424C44.8482 24.2424 43.5785 24.3606 43.1356 24.5672C42.6927 24.7444 42.0431 25.2759 42.486 25.8074Z" fill="#BBC64E"/>
<path d="M43.7268 19.7248C43.7268 19.7248 44.1402 19.4295 44.0812 18.7504C43.963 17.5102 42.8705 16.8901 42.8705 16.8901C42.8705 16.8901 42.6048 18.2189 42.6638 18.6913C42.7229 19.1637 43.0477 20.02 43.7268 19.7248Z" fill="#BBC64E"/>
<path d="M43.5199 20.9649C43.5199 20.9649 43.9923 21.024 44.3762 20.4925C45.0848 19.5476 44.8781 17.9531 44.8781 17.9531C44.8781 17.9531 43.9333 18.4256 43.4904 18.9866C43.1951 19.3704 42.8703 20.7582 43.5199 20.9649Z" fill="#BBC64E"/>
<path d="M43.7547 14.705C43.7547 14.705 44.1681 14.4688 44.1976 13.8192C44.2566 12.6381 43.1346 11.457 43.1346 11.457C43.1346 11.457 42.6326 12.4019 42.6031 13.1106C42.5441 13.583 43.0756 14.8822 43.7547 14.705Z" fill="#BBC64E"/>
<path d="M43.5783 18.4843C43.5783 18.4843 44.0212 18.5434 44.3756 18.0709C45.0252 17.2147 44.8185 15.7383 44.8185 15.7383C44.8185 15.7383 43.9326 16.1517 43.5488 16.6832C43.283 17.008 42.9582 18.2776 43.5783 18.4843Z" fill="#BBC64E"/>
<path d="M44.0203 17.0671C44.0203 17.0671 44.3451 16.7718 44.1975 16.1813C43.9613 15.1183 42.662 14.3506 42.662 14.3506C42.662 14.3506 42.4258 15.2955 42.603 15.9451C42.6916 16.3585 43.4593 17.3919 44.0203 17.0671Z" fill="#BBC64E"/>
<path d="M44.1103 11.9886C44.1103 11.9886 44.4942 11.7819 44.4942 11.1619C44.4942 10.0693 43.4312 9.03589 43.4312 9.03589C43.4312 9.03589 42.9883 9.92171 42.9883 10.5713C42.9883 11.0142 43.5198 12.1953 44.1103 11.9886Z" fill="#BBC64E"/>
<path d="M43.4893 16.0337C43.4893 16.0337 43.9027 16.0927 44.2865 15.6498C44.9952 14.823 44.8476 13.3171 44.8476 13.3171C44.8476 13.3171 43.9617 13.701 43.5188 14.203C43.2531 14.5573 42.8692 15.7974 43.4893 16.0337Z" fill="#BBC64E"/>
<path d="M43.5502 13.6718C43.5502 13.6718 43.9636 13.7309 44.3474 13.288C45.0561 12.4612 44.9084 10.9553 44.9084 10.9553C44.9084 10.9553 44.0226 11.3392 43.5797 11.8411C43.3435 12.1955 42.9596 13.4356 43.5502 13.6718Z" fill="#BBC64E"/>
<path d="M43.2837 22.6477C43.2837 22.6477 43.7266 22.7658 44.199 22.3229C45.0553 21.4961 45.0553 20.0198 45.0553 20.0198C45.0553 20.0198 43.7266 20.9056 43.4018 21.2599C43.077 21.5847 42.6636 22.3229 43.2837 22.6477Z" fill="#BBC64E"/>
<path d="M43.4891 23.7403C43.4891 23.7403 43.8139 23.4155 43.6662 22.7954C43.4005 21.6438 42.2784 21.2009 42.2784 21.2009C42.2784 21.2009 42.2194 22.4706 42.3375 22.943C42.4556 23.4155 42.8985 24.1241 43.4891 23.7403Z" fill="#BBC64E"/>
<path d="M43.1658 24.9807C43.1658 24.9807 43.3135 24.3015 42.9887 23.7996C42.6343 23.2976 42.0733 22.7661 42.0733 22.7661C42.0733 22.7661 41.8076 23.8291 42.0143 24.5378C42.2505 25.2464 42.3981 25.2464 42.5457 25.3055C42.6639 25.3645 43.1363 25.335 43.1658 24.9807Z" fill="#BBC64E"/>
<path d="M43.0174 24.5966C43.0174 24.5966 43.667 24.6261 44.1099 24.3309C44.5528 24.0356 44.8776 22.9431 44.9662 22.6183C45.0548 22.2639 44.9957 22.1753 44.789 22.2344C44.5823 22.2935 43.3717 22.884 43.0469 23.386C42.6926 23.8584 42.9583 24.4785 43.0174 24.5966Z" fill="#BBC64E"/>
<path d="M43.4309 21.939C43.4309 21.939 43.8148 21.4371 43.8443 20.8761C43.8443 20.3446 42.6927 18.5729 42.486 18.8092C42.3384 18.9568 42.2203 20.6399 42.4565 21.2304C42.6632 21.7619 43.3128 21.939 43.4309 21.939Z" fill="#BBC64E"/>
<path d="M42.4852 23.209C42.6328 23.3862 42.81 23.5929 42.9576 23.7996C42.9576 23.4157 43.312 22.9433 43.6368 22.7661C43.6663 22.7366 43.7253 22.7956 43.6958 22.8252C43.5482 22.9728 43.371 23.1204 43.2824 23.2976C43.1643 23.5043 43.1348 23.6815 43.0758 23.8882C43.1643 24.0358 43.2234 24.1834 43.2529 24.3606C43.2824 24.5082 43.2529 24.6559 43.1939 24.8035C43.4891 24.5673 43.8139 24.3901 44.1387 24.2425C44.1683 24.2425 44.1978 24.272 44.1683 24.3015C43.932 24.4492 43.6958 24.5673 43.4596 24.7444C43.312 24.833 43.1939 24.9511 43.0462 25.0397C42.9872 25.1283 42.8986 25.1874 42.7805 25.2464C42.751 25.2759 42.7214 25.2169 42.751 25.1874C42.8395 25.0988 42.9576 25.0102 43.0758 24.9216C43.1643 24.6854 43.1348 24.3606 43.0462 24.1539C42.8986 23.8291 42.6624 23.5633 42.4557 23.2681C42.3376 23.2385 42.4262 23.15 42.4852 23.209Z" fill="black"/>
<path d="M42.7223 18.9273C42.9585 19.134 43.1948 19.3998 43.3719 19.695C43.4605 19.2521 43.6967 18.7797 44.0215 18.4844C44.0511 18.4549 44.0511 18.4844 44.0511 18.5139C43.9034 18.7206 43.7558 18.8978 43.6672 19.134C43.5786 19.3407 43.5196 19.6064 43.49 19.8131C43.49 19.8427 43.4605 19.8427 43.4605 19.8722C43.6672 20.256 43.7558 20.6989 43.7263 21.1419L43.7558 21.1123C43.9329 20.9056 44.1692 20.6104 44.4349 20.5218C44.4349 20.5218 44.4644 20.5218 44.4349 20.5513C44.3759 20.6694 44.2577 20.7285 44.1396 20.8171C44.0215 20.9352 43.9034 21.0533 43.7853 21.2009C43.7558 21.26 43.7263 21.2895 43.6672 21.3486V21.3781C43.6672 21.4076 43.6377 21.4076 43.6377 21.4076C43.5196 21.6143 43.4015 21.821 43.3424 22.0572C43.3424 22.0867 43.3129 22.0867 43.2833 22.0867C43.431 22.2344 43.5786 22.4115 43.6967 22.5887C43.6967 22.6182 43.6672 22.6182 43.6672 22.6182C43.4605 22.4411 43.2833 22.2344 43.1062 22.0277C42.929 21.821 42.6928 21.6143 42.5452 21.3781C42.5156 21.3486 42.5747 21.2895 42.6042 21.319C42.8109 21.4962 42.9881 21.7324 43.1652 21.9391C43.1948 21.9686 43.1948 21.9982 43.2243 21.9982C43.3424 21.7324 43.4605 21.4962 43.6377 21.26C43.6377 20.4037 43.3719 19.6065 42.6928 19.0159C42.6042 18.9864 42.6633 18.8978 42.7223 18.9273Z" fill="black"/>
<path d="M43.3437 17.2736C43.4913 17.4213 43.5799 17.6279 43.698 17.8051C43.8161 17.9823 43.9637 18.1594 43.9933 18.3366C43.9933 18.3661 43.9637 18.3661 43.9637 18.3661C43.8161 18.248 43.7571 18.0709 43.6685 17.8937C43.5504 17.687 43.4027 17.5098 43.3437 17.2736C43.3141 17.2441 43.2846 17.2736 43.3437 17.2736Z" fill="#354A74"/>
<path d="M44.1977 16.0927C43.932 16.4176 43.6958 16.7128 43.4891 17.0376C43.4595 17.0967 43.3709 17.0376 43.4005 16.9786C43.6072 16.6538 43.8434 16.2994 44.1682 16.0337C44.1977 16.0632 44.2272 16.0632 44.1977 16.0927Z" fill="black"/>
<path d="M43.2825 14.823C43.6369 15.0002 44.0503 15.4135 44.0503 15.8269C44.0503 15.8269 44.0503 15.8269 44.0207 15.8269C43.9026 15.6498 43.8436 15.4431 43.6959 15.2659C43.5483 15.0887 43.4007 14.9706 43.2235 14.8525C43.194 14.882 43.2235 14.823 43.2825 14.823Z" fill="black"/>
<path d="M44.1676 13.7011C44.079 13.8783 43.9018 14.0259 43.7837 14.1735C43.6656 14.3507 43.577 14.5279 43.4294 14.6755C43.3999 14.705 43.3408 14.6755 43.3408 14.646C43.4294 14.4393 43.577 14.2621 43.7247 14.085C43.8428 13.9373 43.9904 13.7602 44.1676 13.7011Z" fill="black"/>
<path d="M43.9017 11.5452C44.0493 11.3976 44.256 11.2204 44.4627 11.1909C44.4627 11.1909 44.4922 11.1909 44.4627 11.2204C44.3446 11.3681 44.1674 11.4862 44.0198 11.6043C43.8722 11.7519 43.7541 11.9586 43.5769 12.0767C43.8722 12.4606 44.1084 12.9921 44.1379 13.494C44.1379 13.5236 44.1084 13.5236 44.1084 13.494C44.0198 13.2578 43.9608 13.0216 43.8722 12.7854C43.7541 12.5492 43.636 12.313 43.4883 12.0767C43.4588 12.0177 43.5178 11.9586 43.5769 12.0177C43.5769 11.8405 43.7541 11.6929 43.9017 11.5452Z" fill="black"/>
<path d="M44.2573 33.307C44.2573 33.307 44.5525 33.7203 45.2907 33.7794C46.649 33.868 47.4462 32.8936 47.4462 32.8936C47.4462 32.8936 46.0289 32.4507 45.4679 32.4211C44.9069 32.3916 43.9915 32.6278 44.2573 33.307Z" fill="#BBC64E"/>
<path d="M48.1859 28.2872C48.1859 28.2872 48.7469 28.1986 48.9536 27.549C49.367 26.3679 48.4516 25.3049 48.4516 25.3049C48.4516 25.3049 47.6249 26.3974 47.4772 26.8699C47.3296 27.3423 47.3296 28.2577 48.1859 28.2872Z" fill="#BBC64E"/>
<path d="M47.4472 28.8781C47.4472 28.8781 47.713 29.38 48.4216 29.321C49.7208 29.1733 50.7248 27.697 50.7248 27.697C50.7248 27.697 49.5437 27.3131 48.7759 27.4017C48.274 27.4608 47.0338 28.1989 47.4472 28.8781Z" fill="#BBC64E"/>
<path d="M50.813 23.8586C50.813 23.8586 51.2264 24.0948 51.8464 23.8882C52.9685 23.5043 53.5295 22.2051 53.5295 22.2051C53.5295 22.2051 52.4075 22.1165 51.7283 22.3823C51.2854 22.5004 50.311 23.3862 50.813 23.8586Z" fill="#BBC64E"/>
<path d="M48.6577 26.9879C48.6577 26.9879 49.012 27.3423 49.6616 27.2537C50.8427 27.106 51.6695 25.8659 51.6695 25.8659C51.6695 25.8659 50.6065 25.5116 49.8683 25.6002C49.3959 25.6887 48.2738 26.3679 48.6577 26.9879Z" fill="#BBC64E"/>
<path d="M48.8917 26.929C48.8917 26.929 49.3641 26.929 49.6594 26.3975C50.1614 25.4231 49.5708 23.8877 49.5708 23.8877C49.5708 23.8877 48.7145 24.4192 48.4193 25.0097C48.2126 25.4231 48.183 26.7518 48.8917 26.929Z" fill="#BBC64E"/>
<path d="M51.3157 23.4152C51.3157 23.4152 51.7586 23.3857 52.0834 22.8837C52.7034 21.9979 52.3786 20.6692 52.3786 20.6692C52.3786 20.6692 51.4928 21.2007 51.1385 21.7617C50.9023 22.116 50.6661 23.3266 51.3157 23.4152Z" fill="#BBC64E"/>
<path d="M52.2889 22.5296C52.2889 22.5296 52.7318 22.6477 53.1748 22.2639C54.031 21.5848 54.2968 20.0789 54.2968 20.0789C54.2968 20.0789 53.1157 20.4627 52.5842 20.9056C52.2594 21.1714 51.6984 22.2344 52.2889 22.5296Z" fill="#BBC64E"/>
<path d="M49.8668 25.7479C49.8668 25.7479 50.3097 25.9841 50.9002 25.7479C52.0223 25.305 52.4947 23.8582 52.4947 23.8582C52.4947 23.8582 51.3727 23.8286 50.6935 24.0944C50.2211 24.3011 49.3058 25.2755 49.8668 25.7479Z" fill="#BBC64E"/>
<path d="M50.2815 25.4231C50.2815 25.4231 50.7539 25.305 51.0492 24.7144C51.5512 23.6219 50.9311 22.2637 50.9311 22.2637C50.9311 22.2637 50.0748 23.0019 49.7795 23.681C49.5433 24.0944 49.5433 25.4526 50.2815 25.4231Z" fill="#BBC64E"/>
<path d="M46.3543 30.6792C46.3543 30.6792 46.7087 31.1221 47.4469 31.063C48.7756 30.9154 49.6909 29.5276 49.6909 29.5276C49.6909 29.5276 48.3032 29.1142 47.7717 29.1733C47.2402 29.2323 45.9705 29.9114 46.3543 30.6792Z" fill="#BBC64E"/>
<path d="M46.2363 31.8898C46.2363 31.8898 46.7382 31.7422 46.8564 31.0925C47.063 29.9115 46.0296 29.0256 46.0296 29.0256C46.0296 29.0256 45.4095 30.1772 45.3505 30.6496C45.2914 31.1221 45.439 31.9488 46.2363 31.8898Z" fill="#BBC64E"/>
<path d="M45.3491 32.8939C45.3491 32.8939 45.792 32.3624 45.6444 31.7423C45.4968 31.1222 45.0834 30.384 45.0834 30.384C45.0834 30.384 44.3452 31.2403 44.2861 31.9785C44.2271 32.7167 44.4043 32.8053 44.5224 32.8939C44.67 32.9824 45.172 33.1891 45.3491 32.8939Z" fill="#BBC64E"/>
<path d="M45.2325 32.5983C45.2325 32.5983 45.8525 32.7459 46.4726 32.7459C47.0927 32.7459 48.0966 31.8896 48.3624 31.6239C48.6281 31.3877 48.6281 31.2696 48.3919 31.181C48.1557 31.0924 47.0336 30.8562 46.384 30.9743C45.4982 31.1515 45.2029 32.4802 45.2325 32.5983Z" fill="#BBC64E"/>
<path d="M46.9445 30.177C46.9445 30.177 47.5941 29.8817 47.8303 29.3797C48.0665 28.8778 47.535 26.7813 47.2397 26.8699C47.0035 26.9585 46.1768 28.4349 46.1768 29.0549C46.1768 29.7045 46.7968 30.1179 46.9445 30.177Z" fill="#BBC64E"/>
<path d="M47.4461 27.0768C47.5937 27.313 47.7118 27.5492 47.7709 27.8445C48.0957 27.5787 48.5681 27.313 48.9815 27.372V27.4016C48.7748 27.4901 48.5681 27.5197 48.3614 27.6083C48.1548 27.6968 47.9481 27.815 47.7709 27.9626C47.8595 28.376 47.8299 28.8484 47.7118 29.2323C48.0071 29.1732 48.3319 29.1437 48.6272 29.2323C48.6567 29.2323 48.6567 29.2913 48.6272 29.2913C47.889 29.2323 47.1508 29.4094 46.5898 29.9409C46.7374 30.2657 46.7965 30.62 46.826 31.0039C47.0918 30.9744 47.3575 30.9744 47.5937 31.063C47.4166 31.0925 47.2394 31.063 47.0622 31.063C46.8556 31.063 46.6489 31.0925 46.4717 31.1515C46.2945 31.2106 46.1469 31.2696 45.9697 31.3287C45.8221 31.4173 45.6745 31.5354 45.4973 31.5945C45.4973 31.624 45.4973 31.624 45.4973 31.6535C45.5268 31.9193 45.5268 32.185 45.4973 32.4803C45.5563 32.4803 45.5859 32.4803 45.6449 32.4803C45.9993 32.4803 46.4422 32.5393 46.7374 32.746V32.7755C46.5603 32.746 46.3831 32.687 46.2355 32.6279C46.0288 32.5984 45.8221 32.5689 45.6154 32.5689C45.2315 32.5689 44.8477 32.6574 44.4934 32.8051C44.4343 32.8346 44.4048 32.746 44.4638 32.7165C44.7591 32.5984 45.0544 32.5098 45.3792 32.4803C45.4087 32.2145 45.4382 31.9488 45.4087 31.683C45.3792 31.4173 45.2906 31.1811 45.2611 30.9153C45.2611 30.8858 45.3201 30.8563 45.3201 30.8858C45.4382 31.063 45.4678 31.2992 45.4973 31.5354C45.6154 31.4173 45.7926 31.3287 45.9107 31.2697C46.0878 31.1811 46.265 31.122 46.4717 31.063C46.5308 31.0334 46.6193 31.0334 46.7079 31.0039C46.6784 30.6791 46.6193 30.3838 46.5307 30.059C46.4717 29.9114 46.4422 29.7638 46.3831 29.6457C46.3536 29.5866 46.3241 29.5275 46.2945 29.4685C46.265 29.4094 46.2355 29.3799 46.2355 29.3208C46.2355 29.2913 46.2059 29.2618 46.2059 29.2323C46.2059 29.2027 46.2355 29.2027 46.2355 29.2323C46.3831 29.439 46.5012 29.6456 46.5898 29.8819C46.8851 29.5866 47.2689 29.3799 47.6823 29.2618C47.7709 28.9075 47.8004 28.5827 47.7709 28.1988C47.7118 27.8149 47.5937 27.4606 47.387 27.1358C47.3575 27.0768 47.4166 27.0472 47.4461 27.0768Z" fill="black"/>
<path d="M48.8045 25.1871C49.0112 25.2166 49.0702 25.5119 49.1293 25.6595C49.1588 25.7186 49.1588 25.7776 49.1588 25.8367C49.2769 25.7776 49.4245 25.7186 49.5427 25.6595C49.6312 25.2461 49.6312 24.8623 49.6017 24.4784C49.6017 24.4784 49.6017 24.4784 49.6017 24.4489C49.6312 24.3898 49.6608 24.3603 49.6903 24.3012C49.7198 24.4489 49.7493 24.567 49.7493 24.7146C50.0151 24.4194 50.3104 24.2127 50.6647 24.065C50.7533 24.0355 50.8714 23.9764 50.9895 23.9469C50.9895 23.9469 50.9895 23.9469 50.9895 23.9174C51.019 23.6516 51.0486 23.3859 51.0486 23.0906C51.0486 22.943 51.019 22.7953 50.9895 22.6772C51.019 22.6477 51.0485 22.5887 51.0781 22.5591C51.0781 22.6182 51.1076 22.6477 51.1076 22.7068C51.4324 22.5296 51.7867 22.382 52.1706 22.2639C52.2001 22.2639 52.2296 22.2343 52.2592 22.2343C52.2887 22.0572 52.3773 21.8505 52.3773 21.6733C52.4068 21.4666 52.3477 21.2599 52.4068 21.0828C52.4954 21.2599 52.4659 21.4961 52.4659 21.6733C52.4363 21.8505 52.4363 22.0572 52.3478 22.2343C52.4954 22.2048 52.643 22.1753 52.7907 22.1457C52.7611 22.1753 52.7611 22.2048 52.7611 22.2639C52.5544 22.2934 52.3773 22.3229 52.1706 22.382C51.8163 22.4705 51.4915 22.6477 51.1667 22.8249H51.1371C51.1371 22.9134 51.1667 23.002 51.1667 23.0906C51.1962 23.3564 51.1667 23.6516 51.1076 23.9174C51.3438 23.8583 51.6096 23.7993 51.8163 23.8583C51.4619 23.9469 51.1076 23.9764 50.7828 24.1241C50.4285 24.2717 50.1037 24.5375 49.8379 24.8327C49.8084 24.8623 49.8084 24.8623 49.7789 24.8623C49.7789 25.128 49.7493 25.3937 49.6903 25.63C49.8084 25.6004 49.9265 25.5709 50.0446 25.5709C50.3399 25.5414 50.7237 25.5414 50.9895 25.689V25.7185C50.8419 25.7185 50.6942 25.6595 50.5466 25.6595C50.3989 25.6595 50.2218 25.6595 50.0741 25.6595C49.7789 25.689 49.4541 25.8071 49.2179 25.9548C49.2769 26.3682 49.2474 26.8406 49.0407 27.2245C49.0407 27.254 49.0112 27.2245 49.0112 27.2245C49.0997 26.8111 49.1883 26.4272 49.0997 26.0138L49.0702 25.8957C49.0407 25.689 48.9521 25.2461 48.6864 25.3052C48.5978 25.3347 48.5387 25.4823 48.4797 25.5414C48.4206 25.6004 48.3911 25.63 48.3025 25.63C48.273 25.63 48.2434 25.5709 48.273 25.5709C48.4206 25.4528 48.5683 25.1871 48.8045 25.1871Z" fill="black"/>
<path d="M38.3213 41.7225C38.4099 41.7521 38.528 41.7225 38.5576 41.634C38.5871 41.5454 42.219 33.7797 43.341 30.6498C44.8174 26.4864 46.3528 21.9687 46.3528 21.9392C46.3823 21.8506 46.3232 21.7325 46.2347 21.703C46.1461 21.6735 46.028 21.7325 45.9985 21.8211C45.9689 21.8802 44.4335 26.3978 42.9867 30.5317C41.8941 33.6616 38.2623 41.4273 38.2328 41.4863C38.2032 41.5749 38.2328 41.693 38.3213 41.7225Z" fill="#858935"/>
<path d="M46.3512 22.5889C46.3512 22.5889 45.8788 22.6775 45.4654 22.1756C44.6977 21.2897 44.9634 20.1086 44.9634 20.1086C44.9634 20.1086 46.0264 20.7878 46.3512 21.1716C46.6465 21.5555 47.0008 22.3232 46.3512 22.5889Z" fill="#BBC64E"/>
<path d="M47.9754 16.5653C47.9754 16.5653 47.7983 16.0929 48.2412 15.5909C49.0384 14.646 50.3081 14.7346 50.3081 14.7346C50.3081 14.7346 49.7766 15.9748 49.4518 16.3291C49.0975 16.713 48.3593 17.1854 47.9754 16.5653Z" fill="#BBC64E"/>
<path d="M47.6227 17.8349C47.6227 17.8349 47.1797 17.6577 47.0616 17.0377C46.8549 15.8861 47.7703 14.5278 47.7703 14.5278C47.7703 14.5278 48.4199 15.3841 48.538 16.0928C48.6561 16.5357 48.3313 17.9235 47.6227 17.8349Z" fill="#BBC64E"/>
<path d="M50.191 13.0516C50.191 13.0516 49.8367 12.7563 49.9548 12.1067C50.1615 10.9551 51.5197 10.0398 51.5197 10.0398C51.5197 10.0398 51.815 11.0733 51.6969 11.7819C51.6083 12.2248 50.8111 13.3764 50.191 13.0516Z" fill="#BBC64E"/>
<path d="M48.7442 15.5909C48.7442 15.5909 48.3308 15.4432 48.2422 14.8527C48.0355 13.7897 48.9213 12.5496 48.9213 12.5496C48.9213 12.5496 49.5119 13.3173 49.63 13.9964C49.689 14.4393 49.3938 15.6795 48.7442 15.5909Z" fill="#BBC64E"/>
<path d="M49.0394 14.7347C49.0394 14.7347 48.8622 14.3508 49.2166 13.8489C49.8366 12.963 51.313 12.7268 51.313 12.7268C51.313 12.7268 51.1654 13.7012 50.7815 14.2327C50.5158 14.587 49.3937 15.2662 49.0394 14.7347Z" fill="#BBC64E"/>
<path d="M50.7215 10.778C50.7215 10.778 50.3967 10.4827 50.5443 9.8922C50.7806 8.82922 52.0502 8.03198 52.0502 8.03198C52.0502 8.03198 52.2865 8.97685 52.1388 9.62645C52.0207 10.0694 51.253 11.1028 50.7215 10.778Z" fill="#BBC64E"/>
<path d="M50.1614 13.9081C50.1614 13.9081 49.7184 13.8785 49.4527 13.347C48.9507 12.3726 49.4232 10.9553 49.4232 10.9553C49.4232 10.9553 50.2204 11.5163 50.5157 12.1069C50.7224 12.5203 50.811 13.8195 50.1614 13.9081Z" fill="#BBC64E"/>
<path d="M50.8119 10.0694C50.8119 10.0694 50.3986 9.95128 50.2214 9.39026C49.9261 8.35681 50.6348 7.02808 50.6348 7.02808C50.6348 7.02808 51.3139 7.73674 51.4911 8.38635C51.6092 8.79973 51.4615 10.0694 50.8119 10.0694Z" fill="#BBC64E"/>
<path d="M51.4896 8.62246C51.4896 8.62246 51.1943 8.4453 51.1943 7.97286C51.1943 7.11656 52.0802 6.28979 52.0802 6.28979C52.0802 6.28979 52.405 6.99846 52.405 7.50043C52.405 7.85476 51.962 8.79963 51.4896 8.62246Z" fill="#BBC64E"/>
<path d="M51.4899 7.61854C51.4899 7.61854 51.1356 7.61854 50.9289 7.17563C50.5155 6.40792 50.8699 5.28589 50.8699 5.28589C50.8699 5.28589 51.5195 5.72879 51.7557 6.20123C51.9033 6.52603 51.9919 7.52996 51.4899 7.61854Z" fill="#BBC64E"/>
<path d="M51.579 6.99841C51.579 6.99841 51.2838 6.85077 51.2247 6.37833C51.1656 5.52204 51.9924 4.10474 51.9924 4.10474C51.9924 4.10474 52.3172 5.28583 52.3763 5.81732C52.4058 6.14212 52.081 7.11652 51.579 6.99841Z" fill="#BBC64E"/>
<path d="M51.8151 6.02409C51.8151 6.02409 51.1655 5.55164 50.9883 5.19731C50.6635 4.45913 50.6045 3.18945 50.6045 3.18945C50.6045 3.18945 51.5494 4.04574 51.8151 4.45913C51.9923 4.66582 52.258 5.90598 51.8151 6.02409Z" fill="#BBC64E"/>
<path d="M50.4856 11.8705C50.4856 11.8705 50.0427 11.8409 49.7769 11.3094C49.275 10.335 49.7474 8.91772 49.7474 8.91772C49.7474 8.91772 50.5446 9.47873 50.8399 10.0693C51.0466 10.4827 51.1352 11.7819 50.4856 11.8705Z" fill="#BBC64E"/>
<path d="M47.0906 19.4295C47.0906 19.4295 46.6182 19.3409 46.4115 18.7208C46.0276 17.5988 46.7068 16.27 46.7068 16.27C46.7068 16.27 47.4745 17.6578 47.6221 18.1007C47.7698 18.5436 47.7697 19.4295 47.0906 19.4295Z" fill="#BBC64E"/>
<path d="M46.3831 20.2857C46.3831 20.2857 46.2354 19.8428 46.6488 19.3408C47.4165 18.4254 48.6271 18.5435 48.6271 18.5435C48.6271 18.5435 48.0956 19.6951 47.7708 20.0494C47.4756 20.4333 46.7669 20.9057 46.3831 20.2857Z" fill="#BBC64E"/>
<path d="M46.1153 21.5555C46.1153 21.5555 46.2924 20.8763 46.8239 20.5811C47.3554 20.2858 48.1231 20.0791 48.1231 20.0791C48.1231 20.0791 47.8869 21.1421 47.3554 21.6736C46.8239 22.2051 46.6763 22.1165 46.5582 22.1165C46.381 22.1165 45.9676 21.8803 46.1153 21.5555Z" fill="#BBC64E"/>
<path d="M46.4403 21.2601C46.4403 21.2601 45.8498 20.9944 45.584 20.522C45.3183 20.0495 45.525 18.957 45.6135 18.6027C45.7021 18.2484 45.7907 18.1893 45.9679 18.3369C46.145 18.4846 46.9423 19.5476 47.0013 20.1676C47.0604 20.7877 46.5584 21.2011 46.4403 21.2601Z" fill="#BBC64E"/>
<path d="M47.2668 18.7209C47.2668 18.7209 47.1487 18.0713 47.3849 17.5988C47.6212 17.1264 49.4519 16.0929 49.5404 16.3587C49.5995 16.5654 48.9499 18.1008 48.4775 18.5142C48.005 18.9276 47.3849 18.7799 47.2668 18.7209Z" fill="#BBC64E"/>
<path d="M47.6517 20.2269C47.4745 20.2269 47.2678 20.286 47.0612 20.3745C47.0612 20.1974 47.0316 19.9907 46.9726 19.8135C46.9135 19.6659 46.8545 19.4297 46.7068 19.3706C46.7068 19.4297 46.7364 19.4592 46.7659 19.5182C46.8249 19.6068 46.8545 19.7249 46.9135 19.8135C46.9726 20.0202 47.0021 20.1974 47.0021 20.4041C46.7068 20.5517 46.4411 20.8174 46.3525 21.1422C46.1753 20.906 45.9686 20.6698 45.7029 20.5222C45.6734 20.4927 45.6438 20.5517 45.6734 20.5812C46.2049 20.9946 46.5887 21.5261 46.6773 22.2052C46.6773 22.2643 46.7659 22.2348 46.7659 22.1757C46.7068 21.8214 46.5887 21.467 46.382 21.1422C46.5592 20.906 46.7068 20.6993 46.943 20.5517C47.1793 20.4041 47.445 20.3155 47.7107 20.286C47.6812 20.286 47.6812 20.2269 47.6517 20.2269Z" fill="black"/>
<path d="M47.5036 17.4807C47.7693 17.1855 48.0646 16.9492 48.3894 16.7426C48.537 16.654 48.7142 16.5654 48.8914 16.5063C49.0685 16.4473 49.2457 16.4177 49.4229 16.3292C49.4524 16.3292 49.4229 16.2996 49.4229 16.2996C49.0685 16.2701 48.6552 16.5063 48.3599 16.654C48.0055 16.8607 47.7103 17.0969 47.4445 17.3922V17.4217C47.3559 17.2445 47.2378 17.0378 47.1197 16.9197C47.2083 17.1855 47.3855 17.4217 47.5036 17.6874C47.6217 17.9827 47.7103 18.278 47.7398 18.5733C47.6807 18.6028 47.6217 18.6028 47.5626 18.6323C47.2969 18.7504 46.913 18.9571 46.7949 19.2228C46.7949 19.2524 46.7949 19.3114 46.854 19.2819C46.9721 19.1933 47.0607 19.1047 47.1493 19.0162C47.2674 18.9276 47.3855 18.839 47.5331 18.7799C47.8284 18.6323 48.1237 18.6323 48.478 18.6028C48.5075 18.6028 48.537 18.5437 48.478 18.5142C48.2713 18.4551 48.0351 18.4847 47.8284 18.5437C47.7693 18.2484 47.6807 17.9532 47.5626 17.6874C47.5331 17.6284 47.5036 17.5398 47.4741 17.4512C47.4741 17.4807 47.4741 17.5103 47.5036 17.4807Z" fill="black"/>
<path d="M48.4194 15.4726C48.4194 15.4431 48.3604 15.4431 48.3604 15.4726C48.4194 15.8269 48.4489 16.1517 48.3899 16.5356C48.3899 16.5946 48.4785 16.5946 48.4785 16.5651C48.5375 16.2108 48.5375 15.8269 48.4194 15.4726Z" fill="#354A74"/>
<path d="M50.0427 14.7051C49.8951 14.6755 49.7474 14.7051 49.5998 14.7346C49.6884 14.3507 49.6293 13.9669 49.4817 13.6125H49.4522C49.5408 13.9964 49.5408 14.3507 49.5112 14.7346C49.3636 14.7641 49.2455 14.8232 49.1274 14.8822C48.9207 14.9708 48.5073 15.1775 48.4482 15.4137C48.4482 15.4433 48.4482 15.4432 48.4778 15.4432C48.5959 15.4137 48.6845 15.2956 48.773 15.2366C48.8912 15.148 49.0388 15.0594 49.1569 15.0003C49.4522 14.8527 49.7474 14.8527 50.0427 14.7936C50.1018 14.7641 50.1018 14.7051 50.0427 14.7051Z" fill="black"/>
<path d="M51.6098 10.4532C51.5803 10.3942 51.5508 10.3646 51.5508 10.3056C51.5508 10.2465 51.5803 10.1875 51.6098 10.1284C51.6394 10.217 51.6689 10.3351 51.6689 10.4237C51.6689 10.4532 51.6098 10.4532 51.6098 10.4532Z" fill="black"/>
<path d="M50.1921 9.27222C50.4874 9.44938 50.6941 9.77417 50.8417 10.0694L50.8712 10.0399C50.8712 10.0694 50.8417 10.099 50.8417 10.1285C50.8122 10.158 50.8122 10.158 50.7826 10.1876C50.4283 10.5419 50.1331 10.9257 50.0149 11.3982C50.0149 11.3982 50.0149 11.3982 50.0149 11.4277C50.3988 11.8116 50.7236 12.284 50.6645 12.8155C50.7531 12.786 50.8417 12.786 50.9008 12.786C50.9008 12.8155 50.8712 12.845 50.8712 12.845C50.635 12.8745 50.4283 12.9336 50.2216 13.0517C49.9854 13.1698 49.7787 13.347 49.572 13.4946C49.5425 13.5242 49.513 13.4651 49.5425 13.4651C49.7787 13.1698 50.1921 12.9631 50.6055 12.8745C50.6941 12.1954 50.1921 11.723 49.7492 11.2801C49.7197 11.2505 49.7492 11.221 49.7787 11.2505C49.8378 11.3096 49.8968 11.3686 49.9559 11.3982C50.1035 10.8962 50.4283 10.5124 50.7826 10.158C50.6941 9.98087 50.6055 9.83323 50.5169 9.68559C50.4283 9.56748 50.2807 9.44937 50.1921 9.33126C50.1626 9.30173 50.1921 9.27222 50.1921 9.27222Z" fill="black"/>
<path d="M51.2256 7.7959C51.3437 7.91401 51.4028 8.12068 51.4618 8.29785C51.5504 8.20927 51.639 8.15023 51.7276 8.09117C51.7866 8.06164 51.8457 7.97306 51.9342 7.97306C51.9638 7.97306 51.9933 7.97305 52.0228 8.00258C51.9933 8.0321 51.9933 8.06164 51.9638 8.09117C51.9342 8.09117 51.9342 8.06163 51.9047 8.06163C51.8752 8.06163 51.8457 8.12069 51.8161 8.12069C51.7276 8.17975 51.6094 8.26833 51.5209 8.32739C51.5504 8.4455 51.5504 8.5636 51.5504 8.65218V8.68172C51.5209 8.71125 51.4913 8.77029 51.4913 8.79982C51.4913 8.74076 51.4913 8.68171 51.4913 8.65218C51.4913 8.47502 51.4618 8.32738 51.4028 8.15021C51.3142 8.09116 51.2256 7.94354 51.2256 7.7959Z" fill="black"/>
<path d="M51.3435 5.66968C51.5206 5.81731 51.6387 6.05353 51.7569 6.26022C51.7273 6.37833 51.6683 6.49644 51.6387 6.58502C51.6092 6.64407 51.5797 6.70314 51.5502 6.76219C51.4025 7.02794 51.3435 7.29368 51.3435 7.58896C51.3435 7.64801 51.2549 7.64801 51.2549 7.58896C51.2844 7.17557 51.432 6.73265 51.6978 6.37832C51.6387 6.26021 51.5797 6.14211 51.5206 6.05353C51.4616 5.90589 51.373 5.81731 51.3435 5.66968C51.3139 5.66968 51.3139 5.66968 51.3435 5.66968Z" fill="black"/>
<path d="M51.8735 4.42991C51.8735 4.40038 51.8735 4.40039 51.844 4.40039C51.5487 4.69566 51.342 5.1681 51.3125 5.58148C51.3125 5.61101 51.3716 5.64054 51.4011 5.58148C51.4601 5.37479 51.4897 5.19763 51.5487 4.99094C51.6373 4.81377 51.7554 4.6366 51.8735 4.42991Z" fill="black"/>
<path d="M35.753 48.6319C35.8416 48.6614 35.9597 48.6319 35.9892 48.5433C36.0187 48.4843 39.3258 42.254 40.7726 39.2422C42.2195 36.2599 45.0246 32.8643 45.0541 32.8347C45.1131 32.7462 45.1131 32.6576 45.0246 32.5985C44.936 32.5395 44.8474 32.5395 44.7883 32.6281C44.7588 32.6576 41.9537 36.0828 40.4773 39.1241C39.001 42.1359 35.6939 48.3661 35.6644 48.4252C35.6349 48.4842 35.6644 48.6024 35.753 48.6319Z" fill="#858935"/>
<path d="M39.5029 14.1733C39.5324 15.7087 39.5915 17.2737 39.6505 18.8091L39.7391 21.1122C39.7686 21.4961 39.7686 21.88 39.7981 22.2638C39.8277 22.6477 39.8572 23.0315 39.9163 23.4154C40.0934 24.9508 40.4477 26.4567 40.684 27.9921C40.8021 28.7598 40.8907 29.5275 40.8907 30.3248C40.8907 30.7086 40.8611 31.0925 40.8316 31.5059C40.8021 31.7126 40.7725 31.8897 40.743 32.0964C40.7135 32.185 40.7135 32.3031 40.684 32.3917L40.6544 32.5393C40.6544 32.5984 40.5954 32.6574 40.5363 32.687C40.4773 32.7165 40.4182 32.7165 40.3592 32.687C40.3001 32.6574 40.2411 32.5984 40.2411 32.5393C40.2411 32.4508 40.2411 32.4507 40.2411 32.4212L40.2706 32.2736C40.3001 32.185 40.3001 32.0964 40.3296 32.0078C40.3592 31.8307 40.3887 31.624 40.4182 31.4468C40.4478 31.063 40.4773 30.6791 40.4773 30.2952C40.4773 29.5275 40.3887 28.7598 40.2706 28.0216C40.0344 26.5158 39.7096 24.9803 39.5324 23.4449C39.3848 21.9095 39.3848 20.3445 39.3848 18.8091L39.4143 16.506V15.3544V14.7639V14.4686V14.3209C39.4143 14.2914 39.4143 14.2619 39.4143 14.2324C39.4143 14.1143 39.5029 14.1143 39.5029 14.1733ZM39.4733 14.1733L39.4438 14.2324V14.38V14.6753V15.2658L39.4733 16.4174L39.5324 18.7205C39.5619 19.4882 39.5915 20.256 39.621 21.0237C39.6505 21.7914 39.7096 22.5591 39.7981 23.3268C39.9753 24.8622 40.3001 26.3681 40.5363 27.9035C40.6544 28.6712 40.7135 29.439 40.7135 30.2362C40.7135 30.6201 40.684 31.0039 40.6544 31.4173C40.6249 31.624 40.5954 31.8012 40.5659 32.0078C40.5659 32.0964 40.5363 32.185 40.5068 32.3031L40.4773 32.4508C40.4773 32.4803 40.4773 32.5098 40.4773 32.4803C40.4773 32.4507 40.4477 32.4507 40.4477 32.4212C40.4477 32.4212 40.4478 32.4212 40.4182 32.4212L40.3887 32.4508L40.4182 32.3031C40.4478 32.2145 40.4477 32.1259 40.4773 32.0374C40.5068 31.8602 40.5363 31.6535 40.5659 31.4763C40.6249 31.0925 40.6249 30.7086 40.6249 30.3248C40.6249 29.5571 40.5659 28.7894 40.4477 28.0216C40.2411 26.4862 39.8867 24.9803 39.7391 23.4449C39.7096 23.0611 39.6505 22.6772 39.6505 22.2933C39.621 21.9095 39.621 21.5256 39.621 21.1418L39.5619 18.8386C39.5619 17.2737 39.5029 15.7087 39.4733 14.1733Z" fill="black"/>
<path d="M34.6615 50.8464C34.6615 50.8464 38.441 44.0847 38.8839 42.7855C39.3268 41.4863 42.3977 35.4332 42.5453 33.9863C42.6929 32.6871 40.4489 30.9745 40.2717 31.0631C40.065 31.1222 39.9469 34.5178 39.4154 36.3485C38.8839 38.1792 36.5217 44.1437 35.8721 45.7677C35.2225 47.3917 34.13 50.2854 34.0119 50.876C33.9528 51.4665 34.4253 51.2598 34.6615 50.8464Z" fill="#858935"/>
<path d="M42.5736 33.9862C42.5736 33.9862 42.426 33.5433 41.865 33.3661C40.7429 33.0413 39.5323 34.4586 38.7941 34.7834C38.0559 35.1082 35.428 36.2007 33.8926 35.7873C33.8926 35.7873 35.7823 34.3405 36.3433 33.2775C36.9044 32.2145 39.4142 30.5315 39.9162 30.6201C40.4181 30.7086 42.0421 32.2145 42.3374 32.8641C42.6622 33.5433 42.5736 33.9862 42.5736 33.9862Z" fill="#BBC64E"/>
<path d="M40.2421 38.4744C42.5452 34.2225 47.4467 29.7934 49.868 29.1733C52.2597 28.5532 52.3483 29.9115 52.7912 30.9745C53.0865 31.6536 53.2932 32.7166 53.3817 33.4252C52.614 32.0079 52.3778 31.4764 50.931 30.7973C49.4251 30.0886 43.992 35.3741 42.5452 37.2638C39.9468 40.689 34.75 51.496 34.5433 51.0531C34.3071 50.6397 38.7362 41.25 40.2421 38.4744Z" fill="#858935"/>
<path d="M52.8789 24.5669C53.0561 24.5374 53.2332 24.5078 53.4104 24.4783C53.5876 24.4488 53.7352 24.4192 53.9124 24.3602C54.0895 24.3011 54.2372 24.2421 54.3848 24.183C54.5324 24.124 54.6801 24.0945 54.8868 24.0354L54.9163 24.0649C54.8572 24.2421 54.6801 24.3897 54.5324 24.4783C54.3553 24.5669 54.1781 24.5964 54.001 24.5964C53.5876 24.6555 53.2332 24.6259 52.8789 24.5669Z" fill="black"/>
<path d="M49.3659 23.0317C49.2183 22.7069 49.1297 22.3526 49.0411 21.9983C49.0116 21.8211 48.9525 21.6439 49.0116 21.4373C49.0411 21.2601 49.1297 21.0534 49.2773 20.9353H49.3069C49.3069 21.1125 49.3069 21.2896 49.3069 21.4373C49.3069 21.5849 49.2773 21.7621 49.2773 21.9392C49.2773 22.1164 49.2773 22.2936 49.3069 22.4412C49.3364 22.6774 49.3659 22.8546 49.3659 23.0317Z" fill="black"/>
<path d="M52.5251 19.9018C52.4365 19.7246 52.3479 19.5179 52.2888 19.3112C52.2593 19.1931 52.2298 19.1045 52.2593 18.9864C52.2888 18.8683 52.3479 18.7502 52.466 18.6912H52.4955C52.5251 18.8093 52.5546 18.8979 52.5546 18.9864C52.5546 19.075 52.5251 19.1636 52.5251 19.2817C52.5251 19.4884 52.5546 19.6951 52.5251 19.9018Z" fill="black"/>
<path d="M51.9639 12.3723C52.141 12.3428 52.3182 12.3133 52.4954 12.2837C52.6725 12.2542 52.8202 12.2247 52.9973 12.1656C53.1745 12.1066 53.3221 12.0475 53.4698 11.9885C53.6174 11.9294 53.765 11.8999 53.9717 11.8408L54.0013 11.8704C53.9422 12.0475 53.765 12.1951 53.6174 12.2837C53.4402 12.3723 53.2631 12.4018 53.0859 12.4018C52.7316 12.4609 52.3773 12.4609 52.0229 12.4018L51.9639 12.3723Z" fill="black"/>
<path d="M48.4489 11.1025C48.3013 10.7777 48.2127 10.4234 48.1241 10.0691C48.0946 9.89192 48.0356 9.71476 48.0946 9.50807C48.1241 9.33091 48.2127 9.12421 48.3604 9.0061H48.3899C48.3899 9.18327 48.3899 9.36044 48.3899 9.50807C48.3899 9.65571 48.3604 9.83288 48.3604 10.01C48.3604 10.1872 48.3604 10.3644 48.3899 10.512C48.4194 10.7482 48.4489 10.9254 48.4489 11.1025Z" fill="black"/>
<path d="M51.668 3.89814C51.6975 3.69144 51.6975 3.48475 51.6975 3.30759C51.6975 3.21901 51.668 3.13042 51.668 3.01231C51.668 2.92373 51.6975 2.83515 51.727 2.71704H51.7566C51.8747 2.7761 51.9337 2.89421 51.9632 3.01231C51.9928 3.13042 51.9632 3.24853 51.9337 3.33711C51.8747 3.51427 51.7861 3.72097 51.668 3.89814Z" fill="black"/>
<path d="M52.7021 8.6814C52.8203 8.56329 52.9679 8.44517 53.086 8.29753C53.2041 8.17942 53.3222 8.03179 53.4403 7.91368C53.5584 7.76604 53.6175 7.61841 53.7356 7.5003C53.8242 7.38219 53.9423 7.26408 54.0604 7.08691H54.0899C54.149 7.29361 54.0899 7.47078 54.0014 7.64794C53.9128 7.82511 53.7651 7.9432 53.647 8.06131C53.3222 8.32706 53.0269 8.53376 52.7021 8.6814Z" fill="black"/>
<path d="M46.737 15.5611C46.5894 15.2363 46.5008 14.8819 46.4122 14.5276C46.3827 14.3504 46.3236 14.1733 46.3827 13.9666C46.4122 13.7894 46.5008 13.5827 46.6484 13.4646H46.678C46.678 13.6418 46.678 13.8189 46.678 13.9666C46.678 14.1142 46.6484 14.2914 46.6484 14.4685C46.6484 14.6457 46.6484 14.8229 46.678 14.9705C46.7075 15.2067 46.737 15.3839 46.737 15.5611Z" fill="black"/>
<path d="M44.5234 10.0397C44.553 9.83305 44.553 9.62635 44.553 9.44919C44.553 9.36061 44.5234 9.27203 44.5234 9.15392C44.5234 9.06533 44.553 8.97675 44.5825 8.85864H44.612C44.7301 8.9177 44.7892 9.03581 44.8187 9.15392C44.8482 9.27203 44.8187 9.39013 44.7892 9.47871C44.7301 9.65587 44.6415 9.86257 44.5234 10.0397Z" fill="black"/>
<path d="M41.8656 12.8154C41.7179 12.7563 41.5998 12.6677 41.4817 12.5496C41.4226 12.4905 41.3636 12.461 41.3341 12.3724C41.3045 12.2839 41.3045 12.1953 41.3931 12.1067H41.4227C41.5112 12.1657 41.5703 12.1953 41.5998 12.2543C41.6293 12.2839 41.6589 12.3724 41.6589 12.4315C41.7474 12.5201 41.836 12.6677 41.8656 12.8154Z" fill="black"/>
<path d="M41.9839 16.8308C41.8067 16.7127 41.6296 16.5946 41.4819 16.447C41.4229 16.3584 41.3048 16.2993 41.2753 16.1812C41.2457 16.0631 41.2457 15.945 41.3048 15.8269H41.3343C41.4229 15.9155 41.4819 15.9746 41.541 16.0631C41.6001 16.1222 41.6296 16.2403 41.6591 16.3289C41.7772 16.4765 41.8658 16.6242 41.9839 16.8308Z" fill="black"/>
<path d="M44.4054 35.167C44.4054 35.167 41.4526 37.6768 38.7656 43.4642L44.4054 35.167Z" fill="black"/>
<path d="M33.8643 35.7872C34.3662 35.4033 34.8387 34.9604 35.2816 34.5175C35.4883 34.2813 35.7245 34.0451 35.9016 33.8089C35.9902 33.6908 36.0788 33.5431 36.1379 33.425C36.1969 33.3069 36.2855 33.1297 36.3741 32.9821C36.7579 32.4211 37.2599 32.0077 37.7914 31.6238C38.3229 31.2695 38.8839 30.9447 39.504 30.7085V30.738C38.9725 31.1219 38.4705 31.4762 37.9686 31.8601C37.4666 32.2439 36.9646 32.6278 36.5808 33.1002C36.4922 33.2183 36.4331 33.3364 36.3446 33.5136C36.256 33.6612 36.1674 33.7793 36.0493 33.927C35.8426 34.1927 35.6359 34.4289 35.3997 34.6356C34.9272 35.049 34.4253 35.4624 33.8643 35.7872Z" fill="black"/>
<path d="M49.9268 30.7085C50.3401 30.5904 50.7831 30.5608 51.1964 30.679C51.4031 30.738 51.6098 30.8561 51.7575 31.0037C51.9346 31.1514 52.0527 31.3285 52.1708 31.5057C52.6137 32.0372 52.9385 32.6573 53.2929 33.2478C53.6472 33.8384 53.972 34.4289 54.3854 34.9604C54.7988 35.4919 55.2417 36.0234 55.6846 36.5254C56.1275 37.0273 56.5704 37.5588 57.0724 38.0313L57.0429 38.0608C56.7476 37.8836 56.4818 37.6474 56.2161 37.4112C55.9503 37.175 55.7141 36.9387 55.4779 36.7025C55.0055 36.2006 54.533 35.6986 54.1492 35.1376C53.7653 34.547 53.4405 33.9565 53.1157 33.3364C52.7909 32.7459 52.4661 32.1258 52.0527 31.5943C51.9641 31.4171 51.846 31.24 51.6984 31.1219C51.5508 30.9742 51.3736 30.8856 51.1964 30.797C50.7831 30.6494 50.3401 30.6494 49.9268 30.7085Z" fill="black"/>
</svg>
