<svg width="54" height="48" viewBox="0 0 54 48" fill="none" xmlns="http://www.w3.org/2000/svg">
<path opacity="0.2" d="M26.7996 47.5234C41.6006 47.5234 53.5992 36.8849 53.5992 23.7617C53.5992 10.6385 41.6006 0 26.7996 0C11.9986 0 0 10.6385 0 23.7617C0 36.8849 11.9986 47.5234 26.7996 47.5234Z" fill="#84BD41"/>
<path d="M15.4727 26.4228L17.545 20.9592H24.7984L26.8001 26.5405L15.4727 26.4228Z" fill="#E1D11F"/>
<path d="M37.9622 20.9592H24.7979L26.7996 26.5405H40.0345L37.9622 20.9592Z" fill="#F9E65E"/>
<path d="M2.2373 37.4206L4.30968 31.957H11.563L13.5647 37.5383L2.2373 37.4206Z" fill="#E1D11F"/>
<path d="M16.6022 31.957H11.5625L13.5642 37.5383H18.6745L16.6022 31.957Z" fill="#F9E65E"/>
<path d="M15.4727 37.5383L17.545 31.957H24.7984L26.8001 37.5383H15.4727Z" fill="#E1D11F"/>
<path d="M29.8375 31.957H24.7979L26.7996 37.5383H31.9099L29.8375 31.957Z" fill="#F9E65E"/>
<path d="M28.6133 37.5383L30.7092 31.957H37.939L39.9643 37.5383H28.6133Z" fill="#E1D11F"/>
<path d="M49.3601 31.957H37.9385L39.9637 37.5383H51.4325L49.3601 31.957Z" fill="#F9E65E"/>
<path d="M9.75 31.9335L11.8224 26.47H19.0757L21.0774 32.0513L9.75 31.9335Z" fill="#E1D11F"/>
<path d="M24.1148 26.47H19.0752L21.0769 32.0513H26.1872L24.1148 26.47Z" fill="#F9E65E"/>
<path d="M22.9141 31.9335L24.9864 26.47H32.2162L34.2415 32.0513L22.9141 31.9335Z" fill="#E1D11F"/>
<path d="M43.6384 26.47H32.2168L34.2421 32.0513H45.7343L43.6384 26.47Z" fill="#F9E65E"/>
<path d="M18.6749 20.9829L17.5446 21.0535L17.6387 20.9829C17.4032 21.76 17.1206 22.5371 16.8851 23.3378C16.7674 23.7382 16.6261 24.115 16.4377 24.4918C16.2493 24.8686 16.0609 25.2218 15.8254 25.5751L15.7783 25.5515C15.8254 25.1276 15.9196 24.7273 16.0374 24.3269C16.1551 23.9266 16.2964 23.5498 16.4613 23.173C16.791 22.4194 17.1207 21.6658 17.4503 20.9122L17.4739 20.8416H17.5446L18.6749 20.9122V20.9829Z" fill="black"/>
<path d="M25.2218 22.1133C25.3631 22.3959 25.5044 22.702 25.6457 22.9846L26.046 23.8795C26.1638 24.1857 26.3522 24.4683 26.4228 24.7744C26.4935 25.0805 26.5641 25.4102 26.5406 25.7635L26.4935 25.787C26.258 25.528 26.1167 25.2454 25.9754 24.9393C25.8341 24.6567 25.787 24.327 25.6928 24.0208L25.4337 23.0788C25.3631 22.7727 25.2689 22.443 25.1982 22.1368L25.2218 22.1133Z" fill="black"/>
<path d="M30.9912 20.9358C32.1451 20.8887 33.3226 20.8416 34.4766 20.8181L37.9619 20.7239H38.1268L38.1974 20.8887C38.3152 21.1713 38.4094 21.4539 38.5271 21.7601C38.6213 22.0427 38.7155 22.3488 38.8097 22.6314C38.9039 22.914 38.9981 23.2202 39.0688 23.5263C39.1394 23.8325 39.2336 24.115 39.2807 24.4212L39.2336 24.4447C39.0923 24.1621 38.951 23.9031 38.8097 23.6205C38.6684 23.3379 38.5507 23.0553 38.4329 22.7727C38.3152 22.4901 38.1974 22.2075 38.0797 21.9249C37.9619 21.6423 37.8677 21.3597 37.75 21.0536L37.9855 21.2184L34.5001 21.1242C33.3462 21.1007 32.1687 21.0536 31.0148 21.0065V20.9358H30.9912Z" fill="black"/>
<path d="M34.2412 26.4464L36.5962 26.3758C37.3733 26.3522 38.174 26.3287 38.9512 26.3051L41.3061 26.2345C42.0833 26.2109 42.884 26.1874 43.6611 26.2345H43.826L43.8731 26.3758C44.0144 26.7997 44.1557 27.2236 44.2734 27.671C44.3912 28.0949 44.5089 28.5423 44.6267 28.9898L44.5796 29.0133C44.3676 28.613 44.1792 28.2126 43.9908 27.7887C43.8024 27.3884 43.6376 26.9645 43.4492 26.5406L43.6611 26.6819C42.884 26.7055 42.0833 26.7055 41.3061 26.6819L38.9512 26.6113C38.174 26.5877 37.3733 26.5877 36.5962 26.5406L34.2412 26.4464Z" fill="black"/>
<path d="M26.1873 26.4936C25.787 26.5407 25.3866 26.5642 24.9627 26.6113L25.0805 26.5171L24.8921 27.1765L24.7037 27.8359C24.633 28.0479 24.5388 28.2598 24.4211 28.4482C24.3033 28.6366 24.1856 28.8485 24.0207 29.0134L23.9736 28.9899C23.9736 28.7544 23.9972 28.5189 24.0443 28.2834C24.0914 28.0714 24.162 27.8359 24.2327 27.624L24.5388 27.0117L24.8214 26.3994L24.8685 26.3052H24.9627C25.3631 26.3287 25.7634 26.3758 26.1873 26.4229V26.4936Z" fill="black"/>
<path d="M14.6006 31.91C15.6839 31.8864 16.7672 31.8629 17.8504 31.8629L21.1003 31.8158L20.8648 32.1455C20.7706 31.8864 20.6764 31.6274 20.5822 31.3448C20.488 31.0857 20.4174 30.8031 20.3232 30.5441C20.2525 30.2851 20.1583 30.0025 20.1112 29.7199C20.0406 29.4373 19.9699 29.1782 19.9228 28.8956L19.9699 28.8721C20.1112 29.1311 20.229 29.3666 20.3467 29.6257C20.4645 29.8847 20.5822 30.1438 20.7 30.4028C20.8177 30.6619 20.9119 30.9209 21.0297 31.1799C21.1239 31.439 21.2416 31.698 21.3123 31.9806L21.43 32.3103L21.1003 32.2868L17.8504 32.1219C16.7672 32.0748 15.6839 32.0042 14.6006 31.9335V31.91Z" fill="black"/>
<path d="M13.2123 26.4934C12.9768 26.5405 12.7413 26.5641 12.5058 26.5876C12.2703 26.6112 12.0348 26.6347 11.7993 26.6583L11.9877 26.5405C11.9641 26.6347 11.9406 26.7289 11.917 26.8231C11.8935 26.9173 11.8464 27.0115 11.7993 27.1057C11.7051 27.2706 11.5873 27.4354 11.3989 27.5767L11.3518 27.5532C11.3047 27.3177 11.3283 27.1293 11.3754 26.9173C11.399 26.8231 11.4225 26.7289 11.4696 26.6347C11.5167 26.5405 11.5638 26.4699 11.6109 26.3757L11.6815 26.2344L11.7993 26.2579C12.0348 26.2815 12.2703 26.305 12.5058 26.3286C12.7413 26.3521 12.9768 26.3992 13.2123 26.4228V26.4934Z" fill="black"/>
<path d="M7.1123 31.9335C7.4891 31.8864 7.84235 31.8628 8.21915 31.8393L9.32599 31.7686C9.70278 31.7451 10.056 31.698 10.4328 31.7215C10.8096 31.7451 11.1629 31.7922 11.5397 31.9335V31.9805C11.1629 32.1218 10.8096 32.169 10.4328 32.1925C10.056 32.2161 9.70278 32.1689 9.32599 32.1454L8.21915 32.0748C7.84235 32.0512 7.4891 32.0276 7.1123 31.9805V31.9335Z" fill="black"/>
<path d="M17.026 33.4171C16.9554 33.7233 16.8612 34.0294 16.7905 34.3591L16.5315 35.2775C16.4373 35.5837 16.3902 35.9134 16.2489 36.196C16.1076 36.4786 15.9427 36.7612 15.7072 37.0202L15.6602 36.9967C15.6602 36.6434 15.7073 36.3373 15.8014 36.0311C15.8721 35.725 16.0605 35.4424 16.1782 35.1362L16.5786 34.2649C16.7199 33.9823 16.8612 33.6762 17.0025 33.3936L17.026 33.4171Z" fill="black"/>
<path d="M25.387 33.5112C25.6695 34.1706 25.9521 34.83 26.2112 35.4894C26.4702 36.1488 26.7528 36.8082 27.0119 37.4676L27.1296 37.7502L26.7999 37.7737C26.5644 37.7973 26.3289 37.7973 26.0699 37.7973C25.8344 37.7973 25.5989 37.7737 25.3398 37.7737C24.8689 37.7502 24.3743 37.6795 23.9033 37.5854V37.5382C24.3743 37.444 24.8689 37.3734 25.3398 37.3499C25.5753 37.3263 25.8108 37.3263 26.0699 37.3263C26.3054 37.3263 26.5409 37.3263 26.7999 37.3499L26.588 37.656C26.376 36.9731 26.1641 36.2901 25.9521 35.6072C25.7402 34.9242 25.5282 34.2413 25.3398 33.5583L25.387 33.5112Z" fill="black"/>
<path d="M32.8994 32.0277C33.2291 31.9806 33.5824 31.957 33.9121 31.9335L34.9247 31.8628C35.2544 31.8393 35.6076 31.7922 35.9373 31.8157C36.267 31.8393 36.6203 31.8864 36.95 32.0277V32.0748C36.6203 32.2161 36.267 32.2632 35.9373 32.2867C35.6076 32.3103 35.2544 32.2632 34.9247 32.2396L33.9121 32.169C33.5824 32.1454 33.2291 32.1219 32.8994 32.0748V32.0277Z" fill="black"/>
<path d="M33.7236 37.5147C34.7598 37.4676 35.796 37.4205 36.8322 37.3969L38.3865 37.3498C38.9046 37.3263 39.4227 37.3027 39.9408 37.3263L39.7288 37.6324C39.6346 37.3027 39.5169 36.9495 39.4227 36.6198C39.3756 36.4549 39.3285 36.2665 39.3049 36.1017C39.2814 35.9369 39.2343 35.7485 39.2107 35.5836L39.2578 35.5601C39.352 35.7249 39.4227 35.8662 39.5169 36.0311C39.5875 36.1959 39.6817 36.3608 39.7524 36.502C39.8937 36.8317 40.035 37.1379 40.1763 37.4676L40.294 37.7737L39.9408 37.7973C39.4227 37.8208 38.9046 37.7973 38.3865 37.7737L36.8322 37.7266C35.796 37.7031 34.7598 37.6324 33.7236 37.6089V37.5147Z" fill="black"/>
<path d="M47.5706 31.9805C47.1467 32.0276 46.6993 32.0512 46.2754 32.0983L44.9801 32.1925C44.5562 32.216 44.1088 32.2867 43.6849 32.2631C43.261 32.2396 42.8135 32.1925 42.3896 32.0747V32.0276C42.8135 31.8863 43.2374 31.8392 43.6849 31.7921C44.1088 31.745 44.5562 31.7921 44.9801 31.8157L46.2754 31.8628C46.6993 31.8863 47.1467 31.9099 47.5706 31.9334V31.9805Z" fill="black"/>
<path d="M50.9382 36.0781C51.1501 36.5491 51.3621 37.0201 51.574 37.4911L51.6447 37.656L51.4327 37.6795L50.6085 37.7266L49.7842 37.7737C49.5016 37.7973 49.219 37.7737 48.96 37.7266C48.6774 37.6795 48.3948 37.6324 48.1357 37.5618V37.5147C48.4183 37.4205 48.7009 37.3734 48.96 37.3498C49.2426 37.3263 49.5252 37.3027 49.7842 37.3027L50.6085 37.3498L51.4327 37.3969L51.315 37.5853C51.1737 37.0908 51.0324 36.5962 50.8911 36.1017L50.9382 36.0781Z" fill="black"/>
<path d="M25.3633 31.9335C26.3524 31.91 27.3415 31.8864 28.3306 31.8864C28.8251 31.8864 29.3196 31.8629 29.8142 31.8864C30.3087 31.91 30.8033 31.9335 31.2978 32.0042V32.0277C30.8033 32.0984 30.3087 32.0984 29.8142 32.1219C29.3196 32.1219 28.8251 32.0984 28.3306 32.0748C27.3415 32.0513 26.3524 32.0042 25.3633 31.9335Z" fill="black"/>
<path d="M20.9591 12.9758C21.2417 13.2113 21.5243 13.4704 21.8069 13.7059C22.0895 13.9649 22.3721 14.2004 22.6311 14.4595C22.9137 14.7185 23.2199 14.9305 23.4318 15.2366C23.5496 15.3779 23.6438 15.5428 23.738 15.7312C23.8322 15.896 23.9028 16.0844 23.9499 16.2963L23.9028 16.3434C23.7144 16.2728 23.526 16.1786 23.3612 16.0608C23.1963 15.9667 23.055 15.8489 22.9137 15.7076C22.6311 15.4721 22.4427 15.1189 22.2308 14.8363C21.9953 14.5301 21.7833 14.2475 21.5714 13.9414C21.3594 13.6352 21.1475 13.3291 20.9355 13.0229L20.9591 12.9758Z" fill="black"/>
<path d="M27.9769 10.4797C28.024 10.9743 28.0711 11.4688 28.0946 11.9634C28.1417 12.4579 28.1653 12.9525 28.1888 13.447C28.2124 13.9416 28.3066 14.4361 28.2359 14.9306C28.1888 15.4252 28.0946 15.9197 27.9062 16.4143H27.8356C27.6472 15.9197 27.5765 15.4252 27.5294 14.9306C27.4823 14.4361 27.5765 13.9416 27.6236 13.447C27.6472 12.9525 27.6943 12.4579 27.7414 11.9634C27.7885 11.4688 27.8356 10.9743 27.9062 10.4797H27.9769Z" fill="black"/>
<path d="M34.9476 12.9522C34.7592 13.2819 34.5708 13.6116 34.3824 13.9178C34.194 14.2475 34.0056 14.5536 33.7937 14.8598C33.5817 15.1659 33.4404 15.5192 33.1814 15.8018C33.0636 15.9431 32.9223 16.0608 32.7575 16.1786C32.6162 16.2963 32.4513 16.4141 32.2629 16.4847L32.2158 16.4376C32.2394 16.2257 32.31 16.0373 32.3807 15.8724C32.4513 15.684 32.5455 15.5192 32.6397 15.3543C32.8281 15.0246 33.1107 14.7891 33.3697 14.5065C33.6288 14.2239 33.8643 13.9649 34.1233 13.6823C34.3824 13.4232 34.6414 13.1406 34.9005 12.8816L34.9476 12.9522Z" fill="black"/>
<path d="M39.7751 13.5412C39.516 13.8709 39.2335 14.2006 38.9744 14.5068C38.6918 14.8365 38.4328 15.1426 38.1502 15.4488C37.8676 15.7549 37.6321 16.1081 37.3024 16.3672C37.1375 16.5085 36.9727 16.6262 36.7843 16.7204C36.5959 16.8382 36.4075 16.9324 36.1955 17.003L36.1484 16.9559C36.2191 16.744 36.3368 16.5556 36.4546 16.3672C36.5723 16.1788 36.6901 16.0139 36.8314 15.8491C37.0904 15.5194 37.4672 15.3075 37.7734 15.0249C38.1031 14.7658 38.4092 14.4832 38.7389 14.2242C39.0686 13.9651 39.3983 13.7061 39.728 13.447L39.7751 13.5412Z" fill="black"/>
<path d="M15.4719 13.4939C15.8016 13.7529 16.1313 14.012 16.461 14.271C16.7907 14.5301 17.1204 14.7891 17.4265 15.0717C17.7562 15.3308 18.1095 15.5663 18.3685 15.896C18.5098 16.0608 18.6276 16.2257 18.7453 16.4141C18.8631 16.6025 18.9573 16.7909 19.0515 17.0028L19.0044 17.0499C18.7924 16.9793 18.5805 16.8851 18.4156 16.7673C18.2272 16.6496 18.0624 16.5318 17.8975 16.4141C17.5678 16.155 17.3323 15.8018 17.0497 15.4956C16.7671 15.1895 16.4845 14.8598 16.2255 14.5536C15.9664 14.2239 15.6839 13.9178 15.4248 13.5881L15.4719 13.4939Z" fill="black"/>
<path d="M22.4426 26.47C19.0279 26.1403 19.6873 25.1041 19.1927 22.6785C19.1456 23.6676 19.1692 24.7273 18.6746 25.6222C18.6511 25.6457 18.6275 25.7164 18.4627 25.9048C17.7326 26.5171 16.1548 26.3522 15.6367 26.4464C15.6603 26.4464 15.6603 26.47 15.6838 26.47C16.3903 26.6584 17.3088 26.4229 17.9682 26.8939C19.3105 27.6946 19.1692 31.1093 19.3576 30.5676C19.3576 30.5676 19.3576 30.5441 19.3811 30.5441C19.4047 30.5205 19.3811 30.5205 19.4047 30.4734C19.6402 27.6946 19.4753 26.6348 22.5368 26.5171C22.5132 26.4935 22.4662 26.4935 22.4426 26.47Z" fill="white"/>
<path d="M22.349 24.1385C21.1951 24.0207 21.407 23.6675 21.2422 22.8433C21.2186 23.173 21.2422 23.5498 21.0538 23.8559C21.0538 23.8559 21.0302 23.8795 20.9831 23.9501C20.7241 24.1621 20.206 24.0914 20.0176 24.1385C20.0176 24.1385 20.0176 24.1385 20.0411 24.1385C20.2766 24.2091 20.5828 24.115 20.8183 24.2798C21.2893 24.5624 21.2186 25.7163 21.2893 25.5279C21.2893 25.5279 21.2893 25.5279 21.2893 25.5044C21.3599 24.5624 21.3128 24.1856 22.349 24.1385Z" fill="white"/>
<path d="M36.9494 31.7686C33.5347 31.4389 34.1941 30.4027 33.6996 27.9771C33.6525 28.9661 33.676 30.0259 33.1815 30.9208C33.1579 30.9443 33.1344 31.015 32.9695 31.2034C32.2395 31.8157 30.6616 31.6508 30.1436 31.745C30.1671 31.745 30.1671 31.7686 30.1906 31.7686C30.8971 31.957 31.8156 31.7215 32.475 32.1925C33.8173 32.9932 33.676 36.4079 33.8644 35.8662C33.8644 35.8662 33.8644 35.8427 33.888 35.8427C33.9115 35.8191 33.888 35.8191 33.9115 35.772C34.147 32.9932 33.9822 31.9334 37.0436 31.8157C37.0201 31.7921 36.973 31.7686 36.9494 31.7686Z" fill="white"/>
<path d="M36.8549 29.4371C35.7009 29.3193 35.9129 28.9661 35.748 28.1418C35.7245 28.4715 35.748 28.8483 35.5596 29.1545C35.5596 29.1545 35.5361 29.178 35.489 29.2487C35.2299 29.4606 34.7118 29.39 34.5234 29.4371C34.5234 29.4371 34.5234 29.4371 34.547 29.4371C34.7825 29.5077 35.0886 29.4135 35.3241 29.5784C35.7951 29.861 35.7245 31.0149 35.7951 30.8265C35.7951 30.8265 35.7951 30.8265 35.7951 30.803C35.8658 29.861 35.8187 29.4842 36.8549 29.4371Z" fill="white"/>
<path d="M10.8801 17.9214C7.46538 17.5917 8.12477 16.5555 7.63023 14.1299C7.58313 15.119 7.60667 16.1787 7.11213 17.0736C7.08858 17.0972 7.06504 17.1678 6.90019 17.3562C6.17015 17.9685 4.59231 17.8036 4.07422 17.8978C4.09777 17.8978 4.09777 17.9214 4.12132 17.9214C4.82781 18.1098 5.74624 17.8743 6.40564 18.3453C7.74797 19.146 7.60668 22.5607 7.79508 22.0191C7.79508 22.0191 7.79507 21.9955 7.81862 21.9955C7.84217 21.972 7.81863 21.972 7.84218 21.9249C8.07768 19.146 7.91283 18.0862 10.9743 17.9685C10.9507 17.9685 10.9036 17.9449 10.8801 17.9214Z" fill="#84BD41"/>
<path d="M12.5053 15.4017C11.3513 15.2839 11.5633 14.9307 11.3984 14.1064C11.3749 14.4361 11.3984 14.8129 11.21 15.1191C11.21 15.1191 11.1865 15.1426 11.1394 15.2133C10.8803 15.4252 10.3622 15.3546 10.1738 15.4017C10.1738 15.4017 10.1738 15.4017 10.1974 15.4017C10.4329 15.4723 10.739 15.3781 10.9745 15.543C11.4455 15.8256 11.3749 16.9795 11.4455 16.7911C11.4455 16.7911 11.4455 16.7911 11.4455 16.7676C11.5162 15.8256 11.4691 15.4488 12.5053 15.4017Z" fill="#84BD41"/>
<path d="M47.0048 14.6479C44.7676 14.4359 45.1915 13.753 44.8618 12.1516C44.8383 12.7875 44.8383 13.494 44.5086 14.0827C44.5086 14.0827 44.485 14.1533 44.3673 14.2711C43.8963 14.6714 42.8601 14.5537 42.5068 14.6243L42.5304 14.6479C43.0014 14.7656 43.5901 14.6243 44.0376 14.9305C44.9325 15.4486 44.8147 17.7094 44.956 17.3561V17.3326C44.956 17.3326 44.956 17.309 44.9796 17.2855C45.1444 15.4486 45.0267 14.7656 47.0519 14.695C47.0519 14.6479 47.0284 14.6479 47.0048 14.6479Z" fill="#84BD41"/>
<path d="M47.4526 12.9052C46.6755 12.8345 46.8403 12.599 46.7226 12.0574C46.7226 12.2693 46.7226 12.5048 46.6048 12.7168C46.6048 12.7168 46.6048 12.7403 46.5577 12.7874C46.3929 12.9287 46.0396 12.8816 45.9219 12.9052C46.0867 12.9523 46.2751 12.9052 46.44 12.9994C46.7461 13.1878 46.699 13.9414 46.7461 13.8236C46.7461 13.8236 46.7461 13.8236 46.7461 13.8001C46.8168 13.1642 46.7697 12.9287 47.4526 12.9052Z" fill="#84BD41"/>
<path d="M24.0443 5.72248C22.8904 5.60473 23.1023 5.25149 22.9375 4.42725C22.9139 4.75694 22.9375 5.13374 22.7491 5.43988C22.7491 5.43988 22.7255 5.46343 22.6784 5.53408C22.4194 5.74603 21.9013 5.67538 21.7129 5.72248C21.7129 5.72248 21.7129 5.72248 21.7364 5.72248C21.9719 5.79313 22.2781 5.69893 22.5136 5.86378C22.9846 6.14638 22.9139 7.30032 22.9846 7.11192C22.9846 7.11192 22.9846 7.11192 22.9846 7.08837C23.0552 6.14638 23.0081 5.76958 24.0443 5.72248C24.0679 5.72248 24.0679 5.72248 24.0443 5.72248Z" fill="#84BD41"/>
<path d="M27.8828 4.56867C26.4463 4.42737 26.7289 4.00347 26.517 2.96729C26.4934 3.39118 26.517 3.83863 26.305 4.21543C26.305 4.21543 26.2815 4.26253 26.2108 4.33318C25.9047 4.59222 25.2453 4.52157 25.0098 4.56867H25.0333C25.3395 4.63932 25.7163 4.54512 25.9989 4.75707C26.5641 5.08676 26.4934 6.5233 26.5876 6.31135C26.5876 6.31135 26.5876 6.31135 26.5876 6.2878C26.5876 6.2878 26.5876 6.2878 26.5876 6.26425C26.6818 5.08676 26.6112 4.63932 27.8828 4.56867C27.9064 4.56867 27.9064 4.56867 27.8828 4.56867Z" fill="#84BD41"/>
<path d="M2.87307 35.9131L2.61403 36.7373C2.51983 37.0199 2.44919 37.279 2.35499 37.5616L2.23724 37.3967C2.96728 37.3732 3.69732 37.3496 4.42736 37.3025C4.78061 37.279 5.1574 37.3025 5.51065 37.3496C5.86389 37.3967 6.2407 37.4438 6.59394 37.538V37.5851C6.2407 37.6793 5.86389 37.7264 5.51065 37.75C5.1574 37.7735 4.78061 37.7971 4.42736 37.7735C3.69732 37.7264 2.96728 37.6793 2.23724 37.6322H2.04883L2.11949 37.4674C2.23724 37.2083 2.35499 36.9493 2.47274 36.6902L2.82598 35.9131H2.87307Z" fill="black"/>
</svg>
