<svg width="54" height="48" viewBox="0 0 54 48" fill="none" xmlns="http://www.w3.org/2000/svg">
<path opacity="0.2" d="M26.6962 47.3401C41.4402 47.3401 53.3925 36.7426 53.3925 23.67C53.3925 10.5974 41.4402 0 26.6962 0C11.9523 0 0 10.5974 0 23.67C0 36.7426 11.9523 47.3401 26.6962 47.3401Z" fill="#84BD41"/>
<path d="M11.5273 11.8215L20.5017 18.5062V43.7976L11.5273 36.3497V11.8215Z" fill="#84BD41"/>
<path d="M34.3451 14.1638L20.502 18.5062V43.7976L34.3451 38.7972V14.1638Z" fill="#84BD41"/>
<path d="M11.5273 11.8217L24.8441 8.2688L34.3448 14.164L20.5017 18.5064L11.5273 11.8217Z" fill="#6F923D"/>
<path d="M20.5805 19.6379L20.7121 39.8763L20.7647 42.1659L20.7911 42.7449V43.0344V43.1134V43.1397C20.7911 43.166 20.8174 43.1923 20.8174 43.1923C20.87 43.2713 20.949 43.2976 21.0279 43.2976C21.0542 43.2976 21.1595 43.245 21.2384 43.2186L21.5016 43.1134C22.9228 42.5607 24.344 41.9817 25.7914 41.508C27.2389 41.0343 28.7127 40.6132 30.2128 40.2711L30.2391 40.35C28.8706 41.0343 27.4494 41.6396 26.0283 42.1923C24.6071 42.7449 23.1333 43.166 21.6859 43.6661L21.4227 43.745C21.3174 43.7713 21.2648 43.7976 21.1069 43.8503C20.791 43.9029 20.5016 43.7187 20.37 43.4555C20.3436 43.3765 20.3173 43.3239 20.291 43.245C20.291 43.2186 20.291 43.166 20.291 43.1397V43.0607V42.7712L20.3173 42.1923L20.37 39.9026L20.5016 19.6643L20.5805 19.6379Z" fill="black"/>
<path d="M25.792 16.7695C27.0289 16.3221 28.2922 15.8747 29.5554 15.4536L33.3189 14.164L33.7926 14.0061L34.0294 13.9272H34.0558L34.1084 13.9009C34.161 13.9009 34.2137 13.8745 34.2663 13.9009C34.3716 13.9009 34.4768 13.9535 34.5558 14.0324C34.6347 14.1114 34.6874 14.1904 34.7137 14.2956C34.74 14.4272 34.7137 14.4272 34.74 14.4799V14.7167L34.7663 15.2167C34.7927 15.8747 34.7927 16.5326 34.7663 17.2169C34.7137 18.5328 34.6347 31.6127 34.4505 32.9549H34.3716C34.1873 31.639 34.1084 18.5591 34.0558 17.2169C34.0294 16.559 34.0294 15.901 34.0558 15.2167L34.0821 14.7167V14.4799C34.0821 14.3483 34.0821 14.4535 34.1347 14.4799C34.161 14.5062 34.161 14.5062 34.1873 14.5062C34.2137 14.5062 34.2663 14.4798 34.1873 14.5062L33.9505 14.5851L33.4768 14.7167L29.6607 15.7957C28.3711 16.1379 27.1079 16.5063 25.8183 16.8484L25.792 16.7695Z" fill="black"/>
<path d="M17.1865 10.2692L20.8447 9.19022L22.6869 8.66386L23.608 8.40068L24.0554 8.2691L24.2923 8.21646C24.3713 8.19014 24.4765 8.16382 24.5555 8.16382C24.7397 8.16382 24.9239 8.19014 25.1082 8.2691C25.2134 8.32173 25.2661 8.34805 25.345 8.40068L25.5556 8.53227L26.3977 9.00599L27.2136 9.47971L28.0294 9.97975C29.1085 10.664 30.1612 11.3746 31.1876 12.1378L31.1612 12.1904C30.0033 11.6378 28.8979 11.0325 27.7926 10.4008L26.9767 9.92711L26.1609 9.42707L25.345 8.90071L25.1345 8.76912C25.0555 8.71649 25.0029 8.69018 24.9503 8.66386C24.845 8.61123 24.7134 8.5849 24.5818 8.5849C24.5292 8.5849 24.4502 8.58491 24.3976 8.61122L24.1607 8.66386L23.687 8.76912L22.7659 9.00599L20.9236 9.45339L17.2128 10.3482L17.1865 10.2692Z" fill="black"/>
<path d="M16.6078 15.6639L13.8444 13.7164L12.4759 12.7427L11.7916 12.2689C11.7653 12.2426 11.7127 12.2689 11.7127 12.2953V12.6637L11.8443 19.4274C11.8706 21.6907 11.9758 23.9277 11.9232 26.191C11.8706 28.4544 11.7916 30.6914 11.5811 32.9547H11.5021C11.2916 30.6914 11.2126 28.4544 11.1337 26.191C11.081 23.9277 11.1863 21.6907 11.2126 19.4274L11.3442 12.6637V12.4532C11.3442 12.3742 11.3442 12.3479 11.3705 12.19C11.4495 11.9268 11.7653 11.8215 11.9758 11.9531L12.0022 11.9794L12.0285 12.0058L12.0811 12.0321L12.1601 12.0847L12.318 12.2163L12.6601 12.4795L14.0023 13.5322L16.6604 15.6113L16.6078 15.6639Z" fill="black"/>
<path d="M28.8974 15.7957L23.976 17.5063L16.8965 10.3479L20.9757 9.18994L28.8974 15.7957Z" fill="white"/>
<path d="M29.2663 34.3235L25.0818 35.8236L23.9238 17.296L28.8452 15.9011L29.2663 34.3235Z" fill="white"/>
<path d="M15.0557 14.5854L19.3191 17.5857L30.241 12.0063L26.6355 9.76929L15.0557 14.5854Z" fill="#AEC185"/>
<path d="M14.2129 30.9551L17.8184 33.5605L19.3449 17.2962L15.0024 14.5854L14.2129 30.9551Z" fill="#AEC185"/>
<path d="M22.74 14.3481C22.74 14.3481 18.1081 6.53171 20.1082 3.32095C20.1082 3.32095 16.9238 2.89986 16.5816 3.63676C16.2132 4.37366 13.4761 7.61075 20.7398 14.0586L22.74 14.3481Z" fill="#CDE0AF"/>
<path d="M20.108 3.32117C20.108 3.32117 22.2924 2.50532 23.1083 12.9008L22.7398 14.3483C22.7398 14.3483 18.2658 7.16356 20.108 3.32117Z" fill="#AEC185"/>
<path d="M22.7402 14.5584C22.7402 14.5584 28.188 9.34754 27.2932 6.29468C27.2932 6.29468 29.925 6.66312 30.0566 7.32106C30.1882 7.979 31.662 11.1898 24.4246 14.7427L22.7402 14.5584Z" fill="#CDE0AF"/>
<path d="M27.2668 6.29489C27.2668 6.29489 25.6878 5.13691 22.7402 13.2954L22.7139 14.5323C22.7402 14.5587 27.8985 9.79515 27.2668 6.29489Z" fill="#AEC185"/>
<path d="M20.6871 14.0849C19.8712 13.3743 19.0817 12.5848 18.3448 11.7689C17.6079 10.9531 16.9236 10.0846 16.3446 9.13716C16.0552 8.66344 15.792 8.1634 15.5814 7.63705C15.4762 7.37387 15.3972 7.08438 15.3446 6.82121C15.2919 6.53171 15.2656 6.2422 15.2656 5.95271C15.2656 5.37372 15.4235 4.76841 15.7393 4.29469C16.0552 3.82097 16.5289 3.42622 17.0815 3.26831L17.1079 3.32093C16.6605 3.61043 16.3183 4.03152 16.0815 4.47892C15.8709 4.95264 15.7657 5.45267 15.792 5.95271C15.8183 6.45274 15.9236 6.9791 16.0815 7.45282C16.2394 7.95286 16.4762 8.42658 16.7131 8.9003C17.2395 9.84774 17.8711 10.7162 18.5553 11.5584C19.2396 12.4006 19.9502 13.2164 20.7134 14.0059L20.6871 14.0849Z" fill="black"/>
<path d="M20.0273 8.21601C19.8957 7.58438 19.7904 6.92643 19.7115 6.26849C19.6325 5.61055 19.5799 4.95261 19.6325 4.26835L19.6588 4.00517L19.7115 3.74199C19.7641 3.55777 19.7904 3.37354 19.9483 3.163C20.0273 3.05773 20.2378 2.97878 20.3957 3.0051C20.5536 3.03142 20.6589 3.11037 20.7379 3.163C20.8958 3.29459 21.001 3.42617 21.1063 3.58408C21.2905 3.87357 21.4484 4.16308 21.58 4.47889C21.7116 4.7947 21.8169 5.11051 21.8958 5.42632L21.8432 5.45265C21.4221 4.92629 21.08 4.37361 20.6852 3.89989C20.58 3.79462 20.501 3.66303 20.3957 3.58408C20.3431 3.55776 20.3168 3.53146 20.2905 3.53146C20.2378 3.55777 20.1589 3.71567 20.1326 3.84726L20.0799 4.05781L20.0273 4.29466C19.9483 4.92629 19.922 5.58423 19.9483 6.21585C19.9483 6.8738 20.001 7.53175 20.0536 8.16337L20.0273 8.21601Z" fill="black"/>
<path d="M22.7393 13.2956C22.9498 12.3745 23.213 11.4797 23.5288 10.5849C23.6867 10.1375 23.8183 9.69006 24.0815 9.26898C24.3446 8.87421 24.6341 8.47944 25.0289 8.18994L25.0815 8.21627C24.9236 8.66367 24.7394 9.08474 24.5552 9.50583C24.371 9.92691 24.1341 10.3217 23.9236 10.7428C23.713 11.1638 23.5288 11.5849 23.3446 12.006C23.1603 12.4271 22.9761 12.8745 22.7919 13.2956H22.7393Z" fill="black"/>
<path d="M28.7931 6.58447C29.1352 6.61079 29.5037 6.71606 29.7932 6.9266C29.9511 7.03187 30.0827 7.18978 30.1616 7.374C30.2406 7.55823 30.2669 7.71614 30.2932 7.90036C30.4248 8.58462 30.4248 9.34783 30.2142 10.0321C30.03 10.7427 29.6616 11.4269 29.1352 11.927C28.6089 12.427 28.0036 12.8218 27.3193 13.0586L27.293 13.006C27.793 12.506 28.3194 12.0849 28.7404 11.5585C29.1615 11.0585 29.5826 10.5321 29.7932 9.9005C30.03 9.26888 30.0827 8.61093 30.0037 7.92667C29.9774 7.76876 29.9774 7.58455 29.9247 7.42664C29.8721 7.26874 29.7932 7.13715 29.6616 7.03188C29.4247 6.82134 29.0826 6.68974 28.7404 6.61078L28.7931 6.58447Z" fill="black"/>
<path d="M22.7139 14.822C22.7139 14.822 24.8193 11.2692 23.8982 9.79536C23.8982 9.79536 25.3456 9.61113 25.5035 9.92695C25.6614 10.2691 26.9247 11.7429 23.6087 14.6641L22.7139 14.822Z" fill="white"/>
<path d="M23.9232 9.79501C23.9232 9.79501 22.9231 9.42655 22.5547 14.1637L22.7126 14.8217C22.7126 14.8217 24.7654 11.532 23.9232 9.79501Z" fill="#DDDDDD"/>
<path d="M22.7126 14.9009C22.7126 14.9009 20.2387 12.5323 20.6335 11.1375C20.6335 11.1375 19.4228 11.2954 19.3702 11.6112C19.3176 11.927 18.6333 13.3745 21.923 14.9799L22.7126 14.9009Z" fill="white"/>
<path d="M20.6615 11.1373C20.6615 11.1373 21.3721 10.6109 22.7143 14.3217V14.8744C22.7143 14.9007 20.372 12.7163 20.6615 11.1373Z" fill="#DDDDDD"/>
<path d="M23.6338 14.6639C23.9759 14.2954 24.2917 13.927 24.5812 13.5322C24.8707 13.1374 25.1602 12.7427 25.3708 12.2953C25.476 12.0847 25.5813 11.8742 25.6339 11.6373C25.6866 11.4268 25.7392 11.2162 25.7655 11.0057C25.7918 10.7951 25.7655 10.5846 25.6866 10.3741C25.6076 10.1635 25.476 9.97929 25.2918 9.79507L25.3181 9.74243C25.5813 9.79507 25.8182 9.95297 26.0024 10.1635C26.1866 10.4004 26.2656 10.6899 26.2919 10.9794C26.3182 11.5584 26.0287 12.0584 25.7655 12.4795C25.476 12.9006 25.1602 13.2953 24.8181 13.6638C24.476 14.0322 24.1075 14.3744 23.7127 14.6902L23.6338 14.6639Z" fill="black"/>
<path d="M23.9242 12.0057C23.9242 11.7162 23.9242 11.4004 23.9242 11.111C23.9242 10.8215 23.8979 10.532 23.8453 10.2425C23.8453 10.1635 23.819 10.1109 23.7927 10.0582L23.7663 9.97929L23.7927 10.0056C23.819 10.0056 23.8453 10.0319 23.8716 10.0056C23.8979 10.0056 23.8979 10.0056 23.8979 10.0056C23.8716 10.0319 23.819 10.0582 23.7927 10.1109C23.6084 10.2951 23.4242 10.532 23.161 10.7425L23.1084 10.7162C23.1084 10.3741 23.1874 10.0846 23.3716 9.79506C23.4242 9.71611 23.4769 9.63716 23.5558 9.58453C23.5821 9.55821 23.6084 9.5582 23.6348 9.53189C23.6874 9.50557 23.6874 9.50557 23.7663 9.47925C23.819 9.47925 23.8979 9.47924 23.9506 9.50556C23.9769 9.50556 24.0032 9.53188 24.0295 9.5582C24.0558 9.58452 24.0558 9.58452 24.0822 9.61084C24.1611 9.68979 24.1611 9.74243 24.1874 9.79506C24.1874 9.8477 24.2137 9.90034 24.2137 9.92665C24.2137 10.0056 24.2401 10.1109 24.2401 10.1898C24.2401 10.5056 24.2137 10.8215 24.1611 11.111C24.1085 11.4004 24.0558 11.7162 23.9242 12.0057Z" fill="black"/>
<path d="M22.6875 14.3483L22.398 13.7693L22.1085 13.2167C22.0033 13.0324 21.8717 12.8745 21.7927 12.664C21.7401 12.4534 21.6875 12.2692 21.6611 12.006L21.7138 11.9797C21.9506 12.0587 22.1348 12.2429 22.2664 12.4271C22.398 12.6114 22.4244 12.8482 22.5033 13.0588C22.5559 13.2693 22.6086 13.4798 22.6612 13.6904C22.6875 13.9009 22.7402 14.1115 22.7665 14.322L22.6875 14.3483Z" fill="black"/>
<path d="M19.9757 11.3216C19.8178 11.3743 19.6862 11.4269 19.5809 11.5322C19.4757 11.6374 19.4757 11.7427 19.4757 11.9006C19.4494 12.1901 19.502 12.5059 19.6073 12.7428C19.7125 13.006 19.9231 13.1902 20.081 13.427C20.2389 13.6639 20.4494 13.8744 20.6336 14.1639L20.6073 14.2166C20.2652 14.1639 19.9494 14.006 19.6862 13.7955C19.423 13.5586 19.2651 13.2165 19.1862 12.8744C19.1072 12.5322 19.1072 12.1638 19.1862 11.848C19.2125 11.769 19.2125 11.6901 19.2651 11.5848C19.3178 11.5058 19.3704 11.4269 19.4493 11.3743C19.6073 11.269 19.7652 11.2427 19.9231 11.2427L19.9757 11.3216Z" fill="black"/>
<path d="M38.5036 29.6913L35.7402 43.245L43.3197 40.2974L47.5306 26.4016L38.5036 29.6913Z" fill="#84BD41"/>
<path d="M23.1328 26.8755L38.5024 29.6915L35.739 43.2451L24.5276 40.666L23.1328 26.8755Z" fill="#84BD41"/>
<path d="M23.1328 26.8753L34.16 23.2434L47.8452 26.2963L38.5024 29.6913L23.1328 26.8753Z" fill="#6F923D"/>
<path d="M43.1882 25.4805L32.2401 28.5597L32.4506 42.4818L28.5029 41.6133L29.1345 27.6385L39.109 24.4541L43.1882 25.4805Z" fill="white"/>
<path d="M27.7393 25.4541L43.3983 28.5333L39.7138 41.7448L42.293 40.7711L45.7932 27.7438L30.1079 24.6909L27.7393 25.4541Z" fill="#CDE0AF"/>
<path d="M36.5813 27.0856C36.5813 27.0856 33.5284 21.9536 34.8443 19.8219C34.8443 19.8219 32.7652 19.5324 32.5283 20.0324C32.2915 20.5325 30.4755 22.6379 35.2654 26.9014L36.5813 27.0856Z" fill="#CDE0AF"/>
<path d="M34.8709 19.8217C34.8709 19.8217 36.3183 19.269 36.8447 26.1379L36.6078 27.0854C36.5815 27.0854 33.6603 22.3482 34.8709 19.8217Z" fill="white"/>
<path d="M36.5811 27.2171C36.5811 27.2171 40.1603 23.7695 39.5813 21.7957C39.5813 21.7957 41.3182 22.0325 41.3972 22.4799C41.4762 22.9273 42.4499 25.0327 37.6864 27.375L36.5811 27.2171Z" fill="#CDE0AF"/>
<path d="M39.5813 21.7696C39.5813 21.7696 38.5549 21.0064 36.6074 26.3752L36.5811 27.191C36.5811 27.2173 39.976 24.0855 39.5813 21.7696Z" fill="white"/>
<path d="M35.6873 43.2451L36.5032 38.5079L37.3454 33.7707L37.7665 31.4021C37.8454 31.0073 37.898 30.6125 37.977 30.2178L38.0033 30.0599V30.0335C38.0033 30.0072 38.0033 30.0072 38.0033 30.0072C38.0033 30.0072 38.0033 30.0335 38.0296 30.0335C38.1349 30.0599 37.8191 29.9809 37.6612 29.9546C36.0821 29.6125 34.5294 29.244 33.0029 28.744L33.0293 28.665C34.6346 28.744 36.24 28.9545 37.8191 29.1914L38.1086 29.244C38.1612 29.244 38.1875 29.244 38.3191 29.2967C38.4244 29.323 38.5033 29.3756 38.5823 29.4546C38.7402 29.5862 38.8455 29.7967 38.8455 30.0072C38.8455 30.0599 38.8455 30.1125 38.8455 30.1651L38.8192 30.2441L38.7928 30.402C38.7139 30.7968 38.6349 31.1915 38.5297 31.5863L37.977 33.9286L36.898 38.6131L35.7663 43.2977L35.6873 43.2451Z" fill="black"/>
<path d="M23.161 26.8755C23.4505 29.1651 23.74 31.4548 24.0032 33.7444L24.4243 37.192C24.5559 38.35 24.7138 39.4817 24.7927 40.6397L24.5822 40.4028C25.0033 40.4818 25.398 40.6134 25.7928 40.6923C26.1876 40.7976 26.6087 40.9029 27.0034 41.0081L28.214 41.3502C28.6088 41.4818 29.0299 41.5871 29.4247 41.7187V41.7713C29.0036 41.7187 28.5825 41.6661 28.1877 41.5871L26.9508 41.3766C26.5297 41.2976 26.1349 41.2187 25.7138 41.1397C25.2928 41.0608 24.898 40.9818 24.4769 40.9029L24.2927 40.8502L24.2664 40.666C24.1348 39.508 24.0558 38.3764 23.9506 37.2184L23.6611 33.7707C23.4505 31.4811 23.2926 29.1651 23.1084 26.8755H23.161Z" fill="black"/>
<path d="M47.5581 26.428L46.5844 29.9282L45.5843 33.4285L44.6105 36.9287C44.2947 38.0867 43.9263 39.2447 43.5315 40.4027L43.5052 40.508L43.3999 40.5343C42.8472 40.7448 42.2946 40.9291 41.7419 41.1133C41.1892 41.2975 40.6366 41.4817 40.0576 41.6659L40.0312 41.6133C40.5576 41.3501 41.084 41.087 41.6103 40.8238C42.1367 40.5606 42.663 40.3237 43.2157 40.0869L43.0841 40.2448C43.3999 39.0868 43.7421 37.9288 44.1105 36.7708L45.2422 33.3232L46.3738 29.8756L47.5055 26.428H47.5581Z" fill="black"/>
<path d="M35.2403 26.9016C34.6877 26.4279 34.1613 25.9279 33.6876 25.4015C33.2139 24.8752 32.7402 24.2962 32.3454 23.6909C32.1612 23.3751 31.9506 23.0593 31.819 22.6908C31.6611 22.3487 31.5822 21.9539 31.6085 21.5592C31.6085 21.1644 31.7401 20.7696 31.977 20.4275C32.2138 20.1117 32.5296 19.8748 32.8981 19.7695L32.9244 19.8222C32.6349 20.0327 32.4243 20.3222 32.2928 20.6117C32.1612 20.9012 32.1085 21.217 32.1349 21.5592C32.1612 21.875 32.2138 22.2171 32.3191 22.5329C32.398 22.8487 32.5559 23.1645 32.7139 23.4803C33.056 24.0857 33.4507 24.691 33.8981 25.2436C34.3192 25.8226 34.793 26.349 35.293 26.8753L35.2403 26.9016Z" fill="black"/>
<path d="M34.7935 23.0328C34.6882 22.6117 34.6093 22.1906 34.5567 21.7432C34.504 21.3221 34.4514 20.8747 34.4777 20.4273C34.4777 20.322 34.504 20.1904 34.504 20.0852C34.5303 19.9536 34.5567 19.822 34.6882 19.6641C34.7672 19.5851 34.9251 19.5062 35.0567 19.5325C35.1883 19.5588 35.2672 19.6115 35.3199 19.6641C35.4251 19.7694 35.5041 19.8483 35.583 19.9536C35.7146 20.1641 35.7936 20.3483 35.8725 20.5589C35.9515 20.7694 36.0041 20.98 36.0304 21.2168L35.9778 21.2432C35.662 20.9273 35.3988 20.5589 35.162 20.2694C35.1093 20.1904 35.0304 20.1378 34.9777 20.0852C34.9514 20.0589 34.9251 20.0589 34.9514 20.0589C34.9777 20.0589 35.0304 20.0325 35.0304 20.0325C35.0304 20.0325 34.9514 20.1115 34.9514 20.1904C34.9251 20.2694 34.8988 20.3747 34.8725 20.4799C34.7935 20.8747 34.7935 21.3221 34.7935 21.7432C34.7935 22.1643 34.8198 22.6117 34.7935 23.0328Z" fill="black"/>
<path d="M36.584 26.4016C36.6366 26.0858 36.7156 25.7963 36.7682 25.4805C36.8471 25.191 36.9261 24.8752 37.0314 24.5857C37.1366 24.2962 37.1893 23.9804 37.3735 23.7172C37.5577 23.454 37.7683 23.1909 38.0578 23.033L38.1104 23.0593C38.0315 23.4014 37.9525 23.6646 37.8472 23.9541C37.742 24.2436 37.5577 24.4804 37.4261 24.7436C37.2946 25.0068 37.163 25.2963 37.0314 25.5595C36.8998 25.8226 36.7682 26.1121 36.6366 26.4016H36.584Z" fill="black"/>
<path d="M40.5831 21.9539C40.82 21.9802 41.0568 22.0328 41.2674 22.1644C41.3727 22.2433 41.4779 22.3223 41.5306 22.4539C41.5832 22.5855 41.6095 22.6907 41.6358 22.796C41.7411 23.2434 41.7411 23.7698 41.6095 24.2435C41.4779 24.7172 41.2674 25.1909 40.8989 25.5331C40.5305 25.8752 40.1094 26.112 39.6357 26.2173L39.6094 26.1647C39.9252 25.7962 40.241 25.5067 40.5042 25.1646C40.7673 24.8225 41.0305 24.5067 41.1884 24.1119C41.3463 23.7171 41.399 23.2697 41.3463 22.8487C41.3463 22.7434 41.32 22.6118 41.32 22.5328C41.2937 22.4539 41.2411 22.3486 41.1621 22.296C41.0042 22.1644 40.7937 22.0591 40.5831 22.0065V21.9539Z" fill="black"/>
<path d="M17.8428 34.2448L20.0535 45.0877L13.9741 42.7191L10.6055 31.613L17.8428 34.2448Z" fill="#84BD41"/>
<path d="M30.1078 32.0078L17.8438 34.2448L20.0544 45.0877L29.0025 43.0086L30.1078 32.0078Z" fill="#84BD41"/>
<path d="M30.1074 32.0077L21.291 29.0864L10.3691 31.534L17.8434 34.2447L30.1074 32.0077Z" fill="#6F923D"/>
<path d="M14.1064 30.9022L22.8439 33.3498L22.6597 44.4822L25.8178 43.7716L25.3178 32.6129L17.3435 30.0601L14.1064 30.9022Z" fill="white"/>
<path d="M26.4221 30.8497L13.9212 33.3235L16.8688 43.877L14.816 43.1138L12 32.6919L24.5536 30.2444L26.4221 30.8497Z" fill="#CDE0AF"/>
<path d="M19.3691 32.165C19.3691 32.165 21.8167 28.0594 20.7377 26.3488C20.7377 26.3488 22.3957 26.1119 22.6062 26.5067C22.7904 26.9015 24.2379 28.5858 20.4219 31.9808L19.3691 32.165Z" fill="#CDE0AF"/>
<path d="M20.7382 26.3488C20.7382 26.3488 19.5803 25.9277 19.1592 31.4018L19.3434 32.165C19.3697 32.165 21.712 28.3753 20.7382 26.3488Z" fill="white"/>
<path d="M19.3694 32.2704C19.3694 32.2704 16.5007 29.5334 16.9745 27.928C16.9745 27.928 15.5796 28.1122 15.527 28.4807C15.448 28.8228 14.6848 30.5071 18.5009 32.3757L19.3694 32.2704Z" fill="#CDE0AF"/>
<path d="M16.9738 27.928C16.9738 27.928 17.7897 27.3227 19.3424 31.6125L19.3687 32.2704C19.3687 32.2704 16.658 29.7702 16.9738 27.928Z" fill="white"/>
<path d="M20.0011 45.0875C19.6853 43.8506 19.3958 42.5873 19.08 41.3504L18.1852 37.6133L17.7378 35.7447C17.6588 35.4289 17.5799 35.1131 17.5272 34.7973L17.5009 34.692L17.4746 34.6131C17.4746 34.5604 17.4746 34.5078 17.4746 34.4815C17.4746 34.2973 17.5799 34.113 17.7115 33.9814C17.7904 33.9288 17.8694 33.8762 17.9483 33.8498C18.0536 33.8235 18.0799 33.8235 18.1326 33.8235L18.3694 33.7972C19.6327 33.613 20.9222 33.4814 22.2118 33.4551L22.2381 33.534C21.0275 33.9814 19.7643 34.2973 18.5273 34.5868C18.3957 34.6131 18.1326 34.692 18.2641 34.6394C18.2905 34.6131 18.2905 34.5867 18.2905 34.5604L18.3168 34.6657C18.3694 34.9815 18.4484 35.2973 18.501 35.6131L18.8168 37.508L19.4748 41.2978C19.6853 42.561 19.8958 43.8243 20.0801 45.0875H20.0011Z" fill="black"/>
<path d="M30.1331 32.0078C30.0015 33.8501 29.8699 35.6923 29.712 37.5345L29.5015 40.2979C29.4225 41.219 29.3699 42.1401 29.2646 43.0613L29.2383 43.2455L29.0541 43.2981C28.7382 43.3771 28.3961 43.4297 28.0803 43.4824L27.0802 43.6403C26.7381 43.6929 26.4223 43.7455 26.0801 43.7982C25.738 43.8508 25.4222 43.8771 25.0801 43.9298V43.8771C25.3959 43.7719 25.7117 43.6666 26.0275 43.5613C26.3433 43.456 26.6591 43.3771 27.0013 43.2718L27.975 43.0086C28.2908 42.9297 28.633 42.8507 28.9488 42.7718L28.7382 43.0086C28.8172 42.0875 28.9488 41.1664 29.0541 40.2716L29.3962 37.5345C29.6067 35.6923 29.8699 33.8764 30.0804 32.0341L30.1331 32.0078Z" fill="black"/>
<path d="M10.6336 31.6128L11.5547 34.3762C11.8705 35.2973 12.16 36.2184 12.4495 37.1395L13.3706 39.9029C13.6864 40.824 13.9496 41.7451 14.1865 42.6926L14.0549 42.5347C14.8971 42.9294 15.7392 43.3242 16.5814 43.7979L16.5551 43.8505C15.634 43.6137 14.7655 43.2979 13.8707 42.9821L13.7654 42.9557L13.7128 42.8505C13.3969 41.9294 13.1075 41.0082 12.8443 40.0871L12.0811 37.2974C11.8179 36.3763 11.5547 35.4289 11.2915 34.5077L10.5283 31.7181L10.6336 31.6128Z" fill="black"/>
<path d="M20.3955 31.9815C20.7903 31.5604 21.1587 31.113 21.5008 30.6656C21.843 30.2182 22.1588 29.7444 22.422 29.2444C22.5535 29.0075 22.6588 28.7444 22.7115 28.4812C22.7904 28.218 22.843 27.9812 22.8694 27.718C22.8957 27.4811 22.8694 27.2179 22.7641 26.9811C22.6588 26.7442 22.5009 26.5337 22.2904 26.3231L22.3167 26.2705C22.6325 26.3231 22.8957 26.5074 23.0799 26.7706C23.2641 27.0337 23.3694 27.3759 23.3957 27.6917C23.422 28.3496 23.0799 28.9286 22.7904 29.4023C22.4746 29.9024 22.1062 30.3498 21.7114 30.7709C21.3166 31.1919 20.8955 31.5867 20.4481 31.9551L20.3955 31.9815Z" fill="black"/>
<path d="M20.7384 28.9286C20.7384 28.5865 20.7647 28.2443 20.7384 27.9022C20.7384 27.5601 20.712 27.2179 20.6594 26.9021C20.6331 26.8232 20.6331 26.7442 20.6068 26.6916C20.6068 26.6653 20.5804 26.6389 20.5541 26.6126C20.5541 26.6126 20.5278 26.56 20.5278 26.6126L20.5541 26.639C20.5804 26.639 20.6068 26.6653 20.6068 26.639C20.6331 26.639 20.6331 26.639 20.6331 26.639C20.6068 26.6653 20.5541 26.7179 20.5015 26.7705C20.2909 27.0074 20.0804 27.2706 19.7909 27.5338L19.7383 27.5074C19.7383 27.3232 19.7909 27.139 19.8435 26.9811C19.8962 26.7969 19.9751 26.6389 20.0541 26.481C20.1067 26.4021 20.1594 26.3231 20.2646 26.2442C20.291 26.2179 20.3173 26.1916 20.3699 26.1916C20.4225 26.1652 20.4489 26.1652 20.5015 26.1389C20.5541 26.1389 20.6331 26.1389 20.6857 26.1652C20.712 26.1652 20.7383 26.1915 20.7647 26.2179C20.791 26.2442 20.791 26.2442 20.8173 26.2705C20.8963 26.3495 20.8963 26.4021 20.9489 26.481C20.9752 26.5337 20.9752 26.5863 20.9752 26.639C21.0015 26.7442 21.0015 26.8232 21.0015 26.9284C21.0015 27.2969 20.9752 27.639 20.9226 27.9812C20.8699 28.3233 20.791 28.6654 20.712 29.0076L20.7384 28.9286Z" fill="black"/>
<path d="M19.3181 31.6131C19.2128 31.4025 19.1075 31.1657 18.976 30.9551L18.6338 30.2972C18.5286 30.0866 18.3707 29.9024 18.2917 29.6656C18.2128 29.4287 18.1601 29.2182 18.1338 28.9287L18.1864 28.9023C18.4496 29.0076 18.6338 29.2182 18.7917 29.4287C18.9496 29.6392 18.976 29.9024 19.0549 30.1393C19.1339 30.3761 19.1865 30.613 19.2391 30.8762C19.2918 31.113 19.3444 31.3762 19.3707 31.6131H19.3181Z" fill="black"/>
<path d="M16.186 28.1125C16.0281 28.1651 15.8439 28.244 15.7386 28.3493C15.686 28.402 15.6333 28.4809 15.6333 28.5335C15.6333 28.5862 15.607 28.6914 15.607 28.7704C15.5807 29.1125 15.6333 29.4547 15.7386 29.7705C15.8702 30.0863 16.0807 30.3231 16.2913 30.5863C16.5018 30.8495 16.7387 31.1127 16.9756 31.4285L16.9492 31.4811C16.5545 31.4022 16.2123 31.2179 15.9228 30.9548C15.607 30.6916 15.4491 30.2968 15.3438 29.9021C15.2386 29.5073 15.2649 29.1125 15.3438 28.7441C15.3702 28.6388 15.3702 28.5599 15.4228 28.4546C15.4754 28.3493 15.5544 28.2704 15.6333 28.2177C15.8176 28.1125 16.0018 28.0598 16.186 28.0598V28.1125Z" fill="black"/>
<path d="M8.23717 24.3488C6.10543 24.1383 6.52651 23.5067 6.2107 21.9802C6.18438 22.5855 6.18438 23.2435 5.89488 23.8225C5.89488 23.8225 5.86856 23.8751 5.76329 24.0067C5.31589 24.4015 4.31581 24.2699 4 24.3488C4 24.3488 4.02633 24.3488 4.02633 24.3751C4.47373 24.4804 5.02639 24.3488 5.44748 24.6383C6.28964 25.1383 6.18439 27.2701 6.31597 26.928C6.31597 26.928 6.31597 26.928 6.31597 26.9016C6.31597 26.9016 6.31597 26.8753 6.31597 26.849C6.47388 25.112 6.36861 24.4541 8.23717 24.3488C8.2898 24.3488 8.26348 24.3488 8.23717 24.3488Z" fill="white"/>
<path d="M8.18576 22.9015C7.44886 22.8226 7.60677 22.612 7.5015 22.0857C7.5015 22.2962 7.5015 22.5331 7.39622 22.7173C7.39622 22.7173 7.39622 22.7436 7.34359 22.7699C7.18568 22.9015 6.84355 22.8752 6.73828 22.8752C6.89619 22.9015 7.08042 22.8752 7.23832 22.9542C7.52782 23.1121 7.5015 23.849 7.52781 23.7437C7.52781 23.7437 7.52781 23.7437 7.52781 23.7174C7.58045 23.1384 7.55413 22.9279 8.18576 22.9015Z" fill="white"/>
<path d="M42.661 15.9538C40.5292 15.7433 40.9503 15.1116 40.6345 13.5852C40.6082 14.1905 40.6082 14.8485 40.3187 15.4274C40.3187 15.4274 40.2924 15.4801 40.1871 15.6117C39.7397 16.0064 38.7396 15.8748 38.4238 15.9538C38.4238 15.9538 38.4501 15.9538 38.4501 15.9801C38.8975 16.0854 39.4502 15.9538 39.8713 16.2433C40.7135 16.7433 40.6082 18.8751 40.7398 18.533C40.7398 18.533 40.7398 18.5329 40.7398 18.5066C40.7398 18.5066 40.7398 18.4803 40.7398 18.454C40.8977 16.717 40.7924 16.0591 42.661 15.9538C42.7136 15.9801 42.6873 15.9538 42.661 15.9538Z" fill="white"/>
<path d="M42.6096 14.5063C41.8727 14.4273 42.0306 14.2168 41.9253 13.6904C41.9253 13.901 41.9253 14.1378 41.8201 14.3221C41.8201 14.3221 41.82 14.3484 41.7674 14.3747C41.6095 14.5063 41.2674 14.48 41.1621 14.48C41.32 14.5063 41.5042 14.48 41.6622 14.5589C41.9516 14.7168 41.9253 15.4537 41.9516 15.3484C41.9516 15.3484 41.9516 15.3485 41.9516 15.3221C42.0043 14.7695 41.978 14.5326 42.6096 14.5063Z" fill="white"/>
</svg>
