<svg width="57" height="52" viewBox="0 0 57 52" fill="none" xmlns="http://www.w3.org/2000/svg">
<path opacity="0.2" d="M27.0684 51.8643C42.0178 51.8643 54.1368 41.1191 54.1368 27.8643C54.1368 14.6094 42.0178 3.86426 27.0684 3.86426C12.1189 3.86426 0 14.6094 0 27.8643C0 41.1191 12.1189 51.8643 27.0684 51.8643Z" fill="#84BD41"/>
<path d="M50.4912 32.1877L35.1574 45.4065L13.6108 37.6735C12.2889 37.2108 11.4297 35.9551 11.4297 34.5671V19.0681L34.5956 26.3384L50.4912 14.772V32.1877Z" fill="#84BD41"/>
<path d="M28.0853 8.79053L50.4912 14.772L34.5956 26.3384L11.4297 19.1012L28.0853 8.79053Z" fill="#6F923D"/>
<path d="M35.5852 25.7441L35.7834 36.22L35.8495 41.4745L35.8826 42.7963V43.4573V43.6225C35.8826 43.6886 35.8826 43.7547 35.8495 43.8539C35.8165 43.986 35.7834 44.1513 35.7173 44.2835C35.453 44.8122 34.8581 45.1427 34.2633 45.0436C33.9328 44.9775 33.8006 44.9114 33.5693 44.8453L32.9414 44.647C29.6367 43.5234 26.299 42.4659 23.0273 41.2432C19.7557 40.0204 16.484 38.7316 13.3115 37.3106L13.3446 37.2114C16.7154 38.1367 20.0531 39.1942 23.3908 40.2848C26.6955 41.3753 29.9672 42.6642 33.2388 43.8869L33.8667 44.1182C34.065 44.1843 34.2963 44.2835 34.4285 44.3165C34.6929 44.3826 35.0234 44.2174 35.1555 43.953C35.1886 43.8869 35.2216 43.8208 35.2216 43.7547C35.2216 43.7217 35.2216 43.6886 35.2216 43.6556C35.2216 43.6225 35.2216 43.5564 35.2216 43.4903V42.8294L35.2547 41.5075L35.3208 36.2531L35.5191 25.7772H35.5852V25.7441Z" fill="black"/>
<path d="M37.2384 24.1576L47.4169 16.3586L48.7057 15.4002L49.0362 15.1689C49.1022 15.1358 49.1353 15.1028 49.2014 15.0367C49.2675 14.9706 49.3666 14.9375 49.4327 14.9045C49.7962 14.7723 50.1928 14.8714 50.4572 15.1358C50.5894 15.268 50.6885 15.4332 50.7546 15.5985C50.7876 15.6976 50.7876 15.7968 50.7876 15.8628V16.0611V16.8543L50.8207 18.4736L50.8868 24.8847L50.9859 31.2958V31.6923C50.9859 31.8576 50.9859 32.0228 50.9529 32.188C50.8868 32.5185 50.7876 32.8159 50.6224 33.1133C50.4572 33.4108 50.2589 33.6421 49.9945 33.8734L49.3666 34.4022L46.8881 36.418C45.2027 37.7399 43.5504 39.0948 41.8319 40.3837L39.2873 42.3334C38.4281 42.9613 37.5689 43.6223 36.7096 44.2502L36.6436 44.1841C37.4036 43.457 38.2298 42.73 38.9899 42.003L41.4023 39.8549C42.9886 38.4339 44.6409 37.0459 46.2602 35.658L48.7057 33.609L49.3336 33.1133C49.4988 32.9812 49.631 32.8159 49.7301 32.6507C49.8293 32.4855 49.8954 32.2872 49.9615 32.0558C49.9945 31.9567 49.9945 31.8576 49.9945 31.7254V31.3288L50.0937 24.9177L50.1597 18.5066L50.1928 16.8873V16.0942V15.8959C50.1928 15.8629 50.1928 15.7967 50.1928 15.7637C50.1598 15.6976 50.1267 15.5985 50.0606 15.5654C49.9284 15.4332 49.7632 15.4002 49.598 15.4663C49.5649 15.4663 49.5319 15.4993 49.4988 15.5324C49.4658 15.5654 49.3997 15.5985 49.3336 15.6315L49.0031 15.8628L47.7143 16.7882L37.2714 24.2568L37.2384 24.1576Z" fill="black"/>
<path d="M31.7861 24.5544L23.0617 22.0097L14.3373 19.4321L13.2468 19.1016L12.685 18.9364C12.5528 18.9033 12.6189 18.9033 12.5858 18.9033L12.6189 20.8201C12.6519 22.3402 12.6519 23.8604 12.6189 25.3805C12.5528 28.4209 12.4537 31.4281 12.1893 34.4684H12.0901C11.8258 31.4281 11.7266 28.4209 11.6605 25.3805C11.6275 23.8604 11.6275 22.3402 11.6605 20.8201L11.6936 19.6965V19.1347C11.6936 19.0355 11.6936 18.9694 11.7266 18.7711C11.7597 18.5729 11.8588 18.4076 11.991 18.3085C12.1232 18.1763 12.2884 18.1102 12.4867 18.0771C12.5858 18.0771 12.685 18.0771 12.7511 18.0771C12.7841 18.0771 12.8502 18.1102 12.8833 18.1102L12.9494 18.1432L13.4781 18.3085L14.5687 18.672L23.1939 21.5471L31.8192 24.4552L31.7861 24.5544Z" fill="black"/>
<path d="M45.8968 13.2193L37.4368 11.1043L33.2068 10.0468L31.0918 9.51807L30.0343 9.2537L29.5055 9.12151C29.3403 9.08846 29.1751 9.05541 29.0098 9.05541C28.6794 9.05541 28.3819 9.12151 28.0845 9.2537C27.9523 9.31979 27.7871 9.41893 27.6549 9.51807L27.1922 9.81549L25.3416 10.9721L23.491 12.1288L21.6073 13.2524C19.0958 14.7064 16.5842 16.1605 13.9735 17.5154L13.9404 17.4493C16.3198 15.797 18.7983 14.2438 21.2438 12.6906L23.0944 11.567L24.9781 10.4434L26.8618 9.35283L27.3244 9.08846C27.4897 8.98932 27.6219 8.89017 27.8201 8.82408C28.1837 8.65885 28.6133 8.55971 29.0098 8.59276C29.2081 8.59276 29.4064 8.6258 29.6047 8.69189L30.1334 8.82408L31.1909 9.12151L33.3059 9.71635L37.5029 10.873L45.8968 13.2193Z" fill="black"/>
<path d="M20.0859 20.4229L28.8764 23.4963L40.9055 12.1943L33.6352 10.1123L20.0859 20.4229Z" fill="#CDE0AF"/>
<path d="M19.8232 26.5039L27.2918 29.2137L28.6798 23.8271L20.0215 20.8198L19.8232 26.5039Z" fill="#CDE0AF"/>
<path d="M19.459 14.6393L28.8443 22.7358L42.0631 17.9771C42.8562 17.6797 43.385 16.9196 43.385 16.0604V6.57588L29.2078 11.0042L19.459 3.93213V14.6393Z" fill="white"/>
<path d="M33.1735 0.297363L19.459 3.93253L29.2078 11.0376L43.385 6.60933L33.1735 0.297363Z" fill="#6F923D"/>
<path d="M28.6492 10.6738L28.8475 17.0849L28.9136 20.2905L28.9466 21.0836V21.4802V21.5793V21.6124C28.9466 21.6454 28.9797 21.6785 28.9797 21.7115C29.0457 21.8106 29.1779 21.8767 29.2771 21.8437C29.3101 21.8437 29.4754 21.7776 29.5745 21.7446L29.938 21.6124C31.9539 20.8523 33.9036 20.0261 35.9526 19.3652C38.0015 18.7042 40.0504 18.1094 42.1654 17.6467L42.1984 17.7459C40.2817 18.7042 38.2989 19.5304 36.283 20.3235C34.3002 21.1167 32.2183 21.7115 30.2024 22.3724L29.8058 22.5046C29.6736 22.5377 29.6075 22.6038 29.3432 22.6368C28.9136 22.7029 28.4839 22.4716 28.2857 22.075C28.2526 21.9759 28.2196 21.8767 28.1865 21.7776C28.1865 21.7115 28.1865 21.6785 28.1865 21.6124V21.5132V21.1167L28.2196 20.3235L28.2857 17.118L28.4839 10.7069L28.6492 10.6738Z" fill="black"/>
<path d="M27.522 9.78187L21.1109 5.25443L20.3178 4.69263L20.1195 4.56045C20.0865 4.5274 20.0534 4.49436 20.0204 4.49436C20.0204 4.49436 19.9873 4.49436 19.9873 4.46131C19.9213 4.42826 19.8552 4.46131 19.8221 4.49436C19.7891 4.52741 19.7891 4.5274 19.7891 4.56045V4.5935V4.72568V5.22139L19.8221 6.21279L19.8882 10.1454L19.9873 14.078V14.3093C19.9873 14.3754 19.9873 14.4084 19.9873 14.4745C20.0204 14.5737 20.0534 14.6728 20.0865 14.7719C20.1526 14.8711 20.2187 14.9372 20.2848 15.0033L20.6813 15.3007C21.177 15.7303 21.6727 16.1269 22.1684 16.5565C24.1513 18.2749 26.101 20.0264 27.9517 21.9101L27.8856 21.9762C25.7045 20.5221 23.5895 18.9359 21.5405 17.3166C21.0118 16.92 20.5161 16.4904 20.0204 16.0938L19.6569 15.7634C19.4916 15.6312 19.3264 15.4329 19.2273 15.2346C19.1281 15.0363 19.029 14.838 18.9959 14.6067C18.9629 14.5076 18.9629 14.3754 18.9629 14.2762V14.0449L19.062 10.1123L19.1281 6.17974L19.1612 5.18834V4.69263V4.56045C19.1612 4.49435 19.1612 4.42826 19.1942 4.36216C19.2273 4.22998 19.2934 4.09779 19.3925 4.03169C19.5908 3.86646 19.8882 3.76732 20.1195 3.86646C20.1856 3.89951 20.2517 3.93256 20.2848 3.96561C20.3509 3.99865 20.3509 4.03169 20.3839 4.03169L20.5822 4.19693L21.3753 4.79178L27.5881 9.61663L27.522 9.78187Z" fill="black"/>
<path d="M30.8926 9.88089C32.6441 9.253 34.3956 8.65815 36.147 8.03026L41.4346 6.21268L42.0955 5.98136L42.426 5.88221H42.459C42.459 5.88221 42.5251 5.84916 42.5581 5.84916C42.6242 5.84916 42.6903 5.81611 42.7895 5.84916C42.9217 5.84916 43.0869 5.91525 43.186 6.01439C43.2852 6.11354 43.3843 6.24573 43.4174 6.41096C43.4504 6.60924 43.4174 6.60924 43.4504 6.67533V7.03885L43.4835 7.73284C43.5165 8.65815 43.5165 9.58347 43.4835 10.5088C43.4174 12.3594 43.3182 14.21 43.0208 16.0937H42.9217C42.6573 14.2431 42.5581 12.3925 42.4921 10.5088C42.459 9.58347 42.459 8.65815 42.4921 7.73284L42.5251 7.03885V6.67533C42.5251 6.47705 42.5251 6.64229 42.5912 6.67533C42.6242 6.70838 42.6573 6.70838 42.6903 6.70838C42.7234 6.70838 42.7895 6.67534 42.6903 6.70838L42.3599 6.80753L41.6989 7.0058L36.3453 8.52596C34.5608 9.02167 32.7763 9.51737 30.9587 10.0131L30.8926 9.88089Z" fill="black"/>
<path d="M22.2686 2.94118L27.3908 1.45406L29.9685 0.727027L31.2573 0.363518L31.8852 0.165235L32.2157 0.0660878C32.3479 0.0330409 32.4801 0 32.6122 0C32.8766 0 33.141 0.0330449 33.3723 0.132186C33.5045 0.19828 33.6037 0.264373 33.7028 0.29742L34.0002 0.462655L35.1569 1.12359L36.3135 1.78453L37.4371 2.47852C38.9242 3.43688 40.4113 4.42829 41.8654 5.48579L41.8323 5.55188C40.213 4.7918 38.6598 3.93258 37.1066 3.04031L35.95 2.34633L34.8264 1.65235L33.7028 0.92531L33.4054 0.760075C33.3062 0.693982 33.2071 0.627888 33.141 0.594841C32.9758 0.528747 32.8105 0.462655 32.6122 0.462655C32.5131 0.462655 32.447 0.462657 32.3479 0.495704L32.0174 0.561792L31.3565 0.727027L30.0676 1.0575L27.4569 1.6854L22.2686 2.94118Z" fill="black"/>
<path d="M38.0968 7.40254L32.7101 9.28622L25.3076 2.3794L29.769 1.09058L38.0968 7.40254Z" fill="#CDE0AF"/>
<path d="M38.2283 11.1367L33.6678 12.789L32.8086 9.48433L38.1292 7.66675L38.2283 11.1367Z" fill="#CDE0AF"/>
<path d="M28.6455 22.9011C29.1412 22.5045 29.6369 22.141 30.1987 21.8436C30.4961 21.7114 30.7605 21.5792 31.091 21.4801C31.3884 21.414 31.7519 21.3479 32.0824 21.5131C32.4129 21.6453 32.6111 22.0088 32.7103 22.3393C32.7433 22.5045 32.7764 22.6698 32.7764 22.835C32.7764 23.0002 32.7764 23.1655 32.7433 23.3307C32.6772 23.9586 32.4789 24.5865 32.2476 25.1813H32.2146C32.2807 24.5534 32.3798 23.9256 32.4129 23.3307C32.4129 23.0333 32.4129 22.7359 32.3798 22.4384C32.3137 22.1741 32.2146 21.9097 31.9502 21.7775C31.7189 21.6453 31.3884 21.6784 31.124 21.7114C30.8266 21.7775 30.5292 21.8766 30.2648 22.0088C29.7361 22.2402 29.2073 22.5706 28.6455 22.9011Z" fill="black"/>
<path d="M35.7507 29.7416L32.6443 23.7932C32.0495 22.6696 30.8598 21.9756 29.5709 22.0417L23.0277 22.4052C21.9371 22.4713 20.9787 23.0662 20.4169 23.9915L12.1883 37.772C11.2629 39.3253 11.7917 41.3081 13.3119 42.2334L23.259 48.1157C24.8122 49.041 26.8611 48.5123 27.7534 46.926L35.6846 32.848C36.2464 31.8897 36.2795 30.733 35.7507 29.7416ZM28.7778 27.891C28.0838 27.6597 27.6873 26.8996 27.9186 26.1726C28.1499 25.4786 28.91 25.082 29.637 25.3133C30.331 25.5447 30.7276 26.3048 30.4963 27.0318C30.2649 27.7588 29.5049 28.1223 28.7778 27.891Z" fill="white"/>
<path d="M23.3243 22.4385C22.9277 22.4385 22.5312 22.5706 22.1676 22.7028C21.8041 22.8681 21.4736 23.0664 21.1762 23.3307C20.8788 23.5951 20.6475 23.8925 20.4492 24.223C20.3501 24.3882 20.2509 24.5535 20.1848 24.7187C20.1187 24.8839 20.0526 25.0822 19.9535 25.2475V25.2805V25.3136C18.7968 27.3955 17.6402 29.4775 16.5166 31.5594C15.9548 32.6169 15.3269 33.6083 14.6329 34.5997C13.972 35.5911 13.278 36.5495 12.4849 37.4748L12.3857 37.4087C12.8154 36.2851 13.3441 35.1946 13.8729 34.1371C14.4347 33.0796 14.9965 32.0551 15.6574 31.0637C16.9793 29.0809 18.235 27.065 19.5239 25.0822L19.4908 25.1153C19.59 24.917 19.6561 24.7187 19.7552 24.5535C19.8874 24.3882 19.9535 24.1899 20.0857 24.0247C20.317 23.6942 20.6475 23.3968 20.9779 23.1325C21.6389 22.6367 22.4651 22.3393 23.3243 22.3724V22.4385Z" fill="black"/>
<path d="M32.482 38.6974C31.8211 40.0524 31.1271 41.3742 30.4662 42.6961L28.3842 46.6948L28.4172 46.6287C28.219 47.1575 27.9215 47.554 27.558 47.9506C27.1945 48.3471 26.7318 48.6776 26.2031 48.8429C25.6743 49.0081 25.1125 49.0742 24.5838 48.975C24.4516 48.975 24.3194 48.942 24.1872 48.8759L23.8237 48.7768C23.5924 48.6776 23.3611 48.5785 23.1297 48.4793H23.0967C22.6671 48.1819 22.2375 47.8845 21.8409 47.554C21.4113 47.2566 21.0147 46.9261 20.6182 46.5626L20.6843 46.4635C21.18 46.6287 21.6757 46.827 22.1383 47.0583C22.601 47.2566 23.0967 47.4879 23.5593 47.7193L23.5263 47.6862L24.1542 47.8845C24.3525 47.9175 24.5838 47.9836 24.7821 47.9836C25.1786 48.0497 25.5752 47.9836 25.9387 47.8845C26.3022 47.7853 26.6658 47.5871 26.9632 47.3227C27.2606 47.0583 27.525 46.6948 27.6902 46.3313L27.7233 46.2652L30.0696 42.4317C30.8627 41.176 31.6558 39.8871 32.449 38.6313L32.482 38.6974Z" fill="black"/>
<path d="M29.3735 25.2471C29.6048 25.2801 29.8361 25.3793 30.0344 25.5114C30.2327 25.6436 30.431 25.8089 30.5301 26.0402C30.6293 26.2715 30.6623 26.5359 30.6293 26.7672C30.6293 26.8994 30.5632 26.9986 30.5632 27.1307L30.431 27.4612C30.2988 27.6595 30.1336 27.8578 29.9022 27.99C29.6709 28.1221 29.4065 28.1552 29.1422 28.1222C28.8778 28.0891 28.6464 27.99 28.4482 27.8578C28.2499 27.7256 28.0846 27.5273 28.0186 27.296H28.0516C28.1838 27.4943 28.349 27.5934 28.5473 27.6926C28.7456 27.7586 28.9439 27.8247 29.1422 27.8247C29.3404 27.8247 29.5387 27.7917 29.704 27.7256C29.8692 27.6595 30.0344 27.5273 30.1666 27.3621L30.2988 27.0647C30.3318 26.9655 30.3649 26.8664 30.3979 26.7342C30.431 26.5359 30.431 26.3046 30.3649 26.1063C30.2327 25.6767 29.8031 25.4123 29.3735 25.2471Z" fill="black"/>
<path d="M29.5391 25.5115C30.4313 23.4295 31.3566 21.3476 32.315 19.2656C32.8107 18.2411 33.2734 17.2167 33.8352 16.1922C33.9674 15.9279 34.0995 15.6965 34.2648 15.4321C34.397 15.2008 34.5622 14.9364 34.7605 14.7051C34.9588 14.4738 35.1901 14.3086 35.4875 14.1764C35.7519 14.0442 36.0824 13.945 36.4128 14.0442C36.4789 14.0772 36.5781 14.1103 36.6442 14.1764C36.7102 14.2425 36.7763 14.3086 36.8094 14.3747C36.8755 14.4407 36.8755 14.5399 36.9085 14.606C36.9416 14.6721 36.9416 14.7712 36.9416 14.8373C36.9746 15.0025 36.9085 15.1347 36.9085 15.3C36.8755 15.4321 36.8424 15.5974 36.8094 15.7296C36.6111 16.2914 36.3467 16.7871 36.0493 17.2828C35.4875 18.2742 34.8596 19.2326 34.1987 20.1579C32.9098 22.0415 31.5549 23.8591 30.1339 25.6437L30.1009 25.6106C31.3566 23.7269 32.6455 21.8433 33.9013 19.9596C34.5291 19.0012 35.157 18.0759 35.7188 17.0845C36.0163 16.5888 36.2806 16.1261 36.4789 15.5974C36.512 15.4652 36.545 15.333 36.5781 15.2008C36.5781 15.0686 36.6442 14.9364 36.6111 14.8043C36.6111 14.5399 36.512 14.3086 36.2806 14.2425C36.0493 14.1764 35.7849 14.2425 35.5536 14.3416C35.3223 14.4738 35.0909 14.606 34.8927 14.8043C34.6944 15.0025 34.5622 15.2339 34.397 15.4652C34.2317 15.6965 34.0995 15.9609 33.9673 16.1922C33.4056 17.1836 32.9098 18.2081 32.4141 19.2325C31.4888 21.3806 30.5305 23.4626 29.5391 25.5115Z" fill="black"/>
<path d="M20.3162 36.3461C20.1613 36.2545 20.081 36.1547 20.0675 36.0596C20.0335 35.9698 20.0201 35.8747 20.0143 35.7668C20.0008 35.6717 20.0261 35.5995 20.0824 35.5632C20.1388 35.5268 20.208 35.4981 20.2849 35.4564C21.477 34.8549 22.6615 34.2662 23.8642 33.7057C25.0669 33.1452 26.2772 32.5718 27.4875 31.9984C27.8567 31.8161 28.2259 31.6337 28.5951 31.4514C28.9566 31.282 29.3129 31.092 29.6768 30.8891C29.8588 30.7876 29.995 30.7636 30.08 30.7965C30.1575 30.8423 30.2431 30.9627 30.2958 31.1681C30.3251 31.3248 30.3233 31.4457 30.2904 31.5308C30.2575 31.6158 30.1653 31.6833 30.0192 31.7536C28.86 32.2701 27.7265 32.8019 26.6242 33.3695C25.509 33.9294 24.3885 34.4688 23.2604 35.0211C22.8143 35.2451 22.3629 35.4485 21.9321 35.6467C21.5013 35.8449 21.0628 36.0559 20.6244 36.267C20.5551 36.2957 20.4935 36.3116 20.4371 36.3479C20.3808 36.3843 20.3344 36.3743 20.3162 36.3461ZM23.627 38.1127C23.5882 38.0898 23.5495 38.0669 23.5237 38.0517C23.4979 38.0364 23.4592 38.0135 23.4486 37.9724C23.3759 37.8597 23.3237 37.7417 23.2792 37.6108C23.2346 37.48 23.203 37.3567 23.2125 37.2229C23.2014 37.0944 23.2237 36.9682 23.2743 36.8239C23.3171 36.6925 23.3935 36.5634 23.5291 36.452C23.869 36.1129 24.2506 35.8508 24.6609 35.6579C24.8481 35.577 25.0124 35.5348 25.1797 35.5466C25.3264 35.5637 25.4578 35.6066 25.5869 35.6829C25.703 35.7516 25.7963 35.8591 25.869 35.9718C25.9341 36.0974 25.9915 36.2359 26.0232 36.3591C26.0683 36.5775 26.0207 36.7758 25.8856 36.9747C25.7224 37.1917 25.5539 37.3882 25.3801 37.5642C25.2063 37.7402 24.9938 37.8933 24.7631 38.0182C24.6657 38.0651 24.5553 38.1043 24.4655 38.1383C24.3681 38.1852 24.2654 38.2116 24.1703 38.2251C23.9544 38.2367 23.7819 38.2043 23.627 38.1127ZM25.4369 36.3783L24.9803 36.5611C24.8212 36.6239 24.6751 36.6942 24.5342 36.7851C24.3804 36.8684 24.2524 36.9669 24.1297 37.086C24.007 37.2051 23.9025 37.3523 23.8162 37.5277C24.1965 37.4739 24.5222 37.3356 24.7782 37.1385C25.0212 36.9338 25.2408 36.6804 25.4369 36.3783ZM27.547 30.0126C27.3432 30.3276 27.1031 30.5863 26.8266 30.7887C26.5296 30.9963 26.222 31.1628 25.8963 31.3012C25.7014 31.395 25.5007 31.3808 25.3071 31.2663C25.1135 31.1518 24.9892 31.0085 24.9493 30.8107C24.8573 30.495 24.8633 30.2198 24.9673 29.9851C25.0713 29.7504 25.2216 29.5257 25.4517 29.3134C25.6026 29.1761 25.7588 29.0594 25.9536 28.9656C26.128 28.8771 26.3152 28.7961 26.5153 28.7229C26.7437 28.6314 26.9596 28.6198 27.1632 28.688C27.3592 28.769 27.5117 28.8941 27.639 29.0913C27.8208 29.3731 27.8148 29.6483 27.621 29.917C27.6057 29.9428 27.5852 29.9481 27.5776 29.961C27.5623 29.9868 27.5546 29.9997 27.547 30.0126ZM27.3196 29.4251C27.2345 29.3922 27.1676 29.3875 27.0854 29.4086C26.8389 29.4718 26.6183 29.5504 26.4081 29.67C26.198 29.7896 26.0137 29.9245 25.8346 30.0799C25.7424 30.1474 25.6632 30.2225 25.6021 30.3257C25.541 30.429 25.5134 30.5346 25.504 30.6684C26.2693 30.4938 26.8839 30.0733 27.3196 29.4251Z" fill="black"/>
<path d="M7.80311 10.9782L7.90858 11.1803C7.94026 11.25 7.97716 11.3162 8.01055 11.3772C8.0334 11.4225 8.05275 11.4626 8.07381 11.4939C8.09487 11.5253 8.11422 11.5654 8.13528 11.5967C8.16516 11.6525 8.17757 11.7048 8.17602 11.7589C8.17447 11.813 8.16419 11.8654 8.1504 11.9126C8.14354 11.9475 8.12616 11.9668 8.10526 11.9809C8.08436 11.9949 8.05995 12.0037 8.03204 12.0073C7.91163 12.02 7.80159 12.0029 7.70021 11.9649C7.59882 11.9268 7.51654 11.8608 7.44633 11.7563C7.38143 11.671 7.32698 11.5787 7.28127 11.4881C7.23555 11.3975 7.19155 11.2981 7.14754 11.1988C7.12999 11.1727 7.11244 11.1465 7.09318 11.1292C7.07391 11.1118 7.04942 11.0979 7.01448 11.091C6.96559 11.086 6.9184 11.0722 6.88167 11.0514C6.83971 11.0341 6.79947 11.008 6.75922 10.982C6.72951 10.9716 6.70673 10.949 6.69441 10.9194C6.68559 10.895 6.682 10.8671 6.69587 10.8426C6.70975 10.8181 6.73416 10.8093 6.76207 10.8057C6.78477 10.8056 6.81619 10.8072 6.86509 10.8123C6.93848 10.8312 6.95758 10.8032 6.93113 10.73C6.88533 10.6167 6.84475 10.4999 6.79544 10.3814C6.74965 10.2681 6.70907 10.1512 6.65976 10.0327C6.59462 9.87934 6.5382 9.72767 6.48873 9.56376C6.44277 9.40507 6.39158 9.2499 6.34211 9.08598C6.32276 9.04591 6.30863 9.00232 6.29451 8.95873C6.2839 8.92036 6.26626 8.87155 6.24863 8.82273C6.21051 8.90142 6.18284 8.9731 6.15517 9.04477C6.13101 9.12167 6.10856 9.18983 6.08963 9.26321C6.05527 9.41521 6.03487 9.56541 6.02842 9.71381C6.02198 9.86222 6.03823 10.0105 6.07717 10.1588C6.08077 10.1867 6.07383 10.1989 6.05293 10.213C6.02159 10.234 5.99016 10.2324 5.95342 10.2116C5.82232 10.1632 5.73645 10.0692 5.69758 9.9437C5.6375 9.74142 5.61578 9.52853 5.64989 9.30845C5.70114 9.00103 5.79615 8.72487 5.93312 8.46602C6.06486 8.21067 6.2508 7.97957 6.48393 7.76227C6.58833 7.66937 6.69453 7.59043 6.81648 7.52365C6.93321 7.46038 7.06047 7.41279 7.19647 7.3669C7.47547 7.28559 7.74265 7.3108 8.00493 7.4303C8.25326 7.5516 8.44583 7.70277 8.58967 7.89427C8.73351 8.08577 8.81988 8.31588 8.85401 8.58109C8.94383 9.27903 8.76973 9.88889 8.3283 10.4282C8.29703 10.4719 8.25704 10.514 8.20659 10.563C8.21541 10.5874 8.23116 10.5996 8.25035 10.5943C8.26782 10.5977 8.287 10.5924 8.30447 10.5958C8.44071 10.618 8.57695 10.6402 8.70797 10.6659C8.83727 10.7004 8.97 10.7173 9.11318 10.7273C9.22322 10.7444 9.32975 10.7562 9.43277 10.7628C9.53578 10.7694 9.64402 10.7725 9.75569 10.7581C9.77839 10.7581 9.80981 10.7597 9.83773 10.7561C9.86565 10.7525 9.88491 10.7699 9.90247 10.796C9.94116 10.8762 9.9379 10.939 9.88925 11.002C9.83717 11.0825 9.77979 11.1438 9.70665 11.193C9.63351 11.2421 9.55858 11.2773 9.46438 11.2951C9.12945 11.3609 8.80293 11.3377 8.49175 11.2131C8.3764 11.1769 8.26628 11.1371 8.15094 11.1009C8.0391 11.0699 7.9307 11.0214 7.82401 10.9642L7.80311 10.9782ZM6.26242 8.77555C6.33915 8.75432 6.3985 8.75236 6.44919 8.77138C6.5034 8.79562 6.54715 8.82688 6.58919 8.86688C6.60323 8.88778 6.62601 8.91039 6.64005 8.93128C6.65409 8.95218 6.67336 8.96957 6.6874 8.99047C6.73303 9.05838 6.77866 9.12629 6.82079 9.18898C6.85769 9.25519 6.8981 9.32661 6.93851 9.39804C7.02635 9.55133 7.10896 9.70814 7.1968 9.86144C7.28464 10.0147 7.36726 10.1715 7.4551 10.3248C7.4604 10.344 7.47093 10.3597 7.47795 10.3701C7.48848 10.3858 7.50424 10.398 7.52171 10.4014C7.65052 10.2997 7.767 10.1683 7.8607 10.0144C8.02045 9.77815 8.13823 9.5246 8.21756 9.25897C8.29167 8.99686 8.3186 8.72094 8.29484 8.42602C8.28356 8.2061 8.20772 7.99166 8.07433 7.79315C7.94453 7.62254 7.78021 7.55855 7.57965 7.6099C7.5465 7.61701 7.5221 7.62582 7.49418 7.62942C7.34423 7.67709 7.21003 7.73693 7.08114 7.81596C6.95576 7.9002 6.8374 7.9949 6.72957 8.10527C6.54346 8.29098 6.39065 8.51498 6.26242 8.77555ZM9.7767 9.37152C9.86112 9.54229 9.94202 9.70783 10.0246 9.86464C10.1072 10.0214 10.2055 10.1677 10.3143 10.307C10.3616 10.3662 10.3653 10.4168 10.3375 10.4658C10.3133 10.52 10.2663 10.5515 10.2034 10.5483C10.1022 10.5556 10.0236 10.5402 9.95364 10.5038C9.88368 10.4674 9.82237 10.41 9.76972 10.3317C9.71706 10.2533 9.66963 10.1714 9.62743 10.086C9.58873 10.0059 9.54653 9.92049 9.50603 9.82637C9.42864 9.66606 9.35999 9.50745 9.30529 9.34705C9.25059 9.18665 9.19761 9.01751 9.15858 8.84658C9.13735 8.76985 9.10739 8.6914 9.07743 8.61296C9.04576 8.54325 9.0158 8.4648 8.99106 8.38285C8.98404 8.3724 8.98224 8.35844 8.97522 8.34799C8.9682 8.33754 8.96118 8.32709 8.96461 8.30962C8.954 8.27126 8.96436 8.24154 9.00967 8.21869C9.10207 8.18693 9.1877 8.2128 9.26133 8.29982C9.27186 8.31549 9.2824 8.33116 9.28942 8.34161C9.29995 8.35728 9.3157 8.36945 9.33317 8.37287C9.34182 8.35189 9.34525 8.33443 9.34517 8.31173C9.34509 8.28904 9.345 8.26635 9.35015 8.24014C9.35006 8.21745 9.3552 8.19125 9.36035 8.16504C9.36026 8.14235 9.36541 8.11615 9.37226 8.08121C9.39462 7.99035 9.44327 7.92733 9.51992 7.88341C9.59486 7.84823 9.6769 7.84618 9.77126 7.87377C9.81844 7.88757 9.86391 7.91009 9.89893 7.93964C9.93746 7.97442 9.96726 8.00747 10.0023 8.03702C10.3003 8.39031 10.3716 8.7898 10.2231 9.22326C10.1816 9.34212 10.098 9.39828 9.96707 9.39527C9.93915 9.39886 9.91123 9.40245 9.8798 9.40082C9.84838 9.39919 9.81866 9.38883 9.7767 9.37152ZM9.63037 8.01394C9.60425 8.03149 9.59209 8.04724 9.58866 8.06471L9.58009 8.10838C9.55251 8.20275 9.54761 8.29703 9.54794 8.3878C9.54827 8.47858 9.55733 8.57106 9.5664 8.66355C9.58077 8.77522 9.59685 8.87816 9.61816 8.97758C9.64298 9.08223 9.67825 9.17986 9.7327 9.27218C9.73972 9.28263 9.74503 9.30181 9.75205 9.31226C9.75907 9.32271 9.77131 9.32965 9.78527 9.32785C9.81319 9.32426 9.83409 9.31021 9.84445 9.2805C9.86176 9.23854 9.87384 9.20009 9.88412 9.14769C9.92877 8.94328 9.92631 8.74778 9.87675 8.56118C9.82197 8.37808 9.73927 8.19858 9.63037 8.01394Z" fill="black"/>
<path d="M50.4317 7.42896L50.268 7.58761C50.2102 7.63781 50.1572 7.69203 50.1083 7.7414C50.0714 7.77621 50.0384 7.80616 50.0144 7.83528C49.9903 7.86439 49.9574 7.89435 49.9334 7.92346C49.8884 7.96797 49.8418 7.99476 49.7895 8.00869C49.7372 8.02261 49.684 8.02767 49.6348 8.02788C49.5994 8.03125 49.576 8.02007 49.5566 8.00403C49.5372 7.988 49.5218 7.96711 49.5104 7.94137C49.464 7.82955 49.449 7.71921 49.4566 7.61119C49.4642 7.50317 49.5041 7.40549 49.5842 7.30845C49.6475 7.22195 49.7205 7.14347 49.7944 7.07386C49.8682 7.00424 49.9509 6.93378 50.0336 6.86331C50.0537 6.83905 50.0737 6.81479 50.0849 6.79138C50.0961 6.76796 50.1024 6.74053 50.0991 6.70509C50.09 6.65677 50.0898 6.60762 50.0993 6.56648C50.1039 6.52133 50.1174 6.47534 50.1309 6.42934C50.1324 6.39791 50.1476 6.36964 50.1725 6.34939C50.1934 6.33399 50.2191 6.3226 50.2465 6.32893C50.274 6.33526 50.2894 6.35614 50.3008 6.38188C50.3073 6.40361 50.3147 6.43421 50.3238 6.48252C50.3265 6.55826 50.3588 6.5686 50.4214 6.5224C50.517 6.44624 50.6174 6.37409 50.717 6.29309C50.8126 6.21693 50.913 6.14478 51.0126 6.06377C51.1411 5.95766 51.2704 5.86041 51.4135 5.76632C51.5525 5.67708 51.6867 5.58384 51.8297 5.48975C51.8627 5.4598 51.9004 5.43385 51.9382 5.4079C51.9719 5.3868 52.0137 5.356 52.0555 5.3252C51.9692 5.31106 51.8926 5.30494 51.816 5.29882C51.7354 5.29755 51.6637 5.29543 51.588 5.29817C51.4325 5.3085 51.2827 5.3317 51.1386 5.36777C50.9945 5.40384 50.8569 5.46164 50.7259 5.54117C50.7002 5.55256 50.6865 5.5494 50.6671 5.53336C50.6379 5.50931 50.6306 5.47872 50.6401 5.43758C50.6491 5.29812 50.7148 5.18905 50.824 5.11606C51.0008 5.00088 51.1987 4.91945 51.4194 4.88951C51.7287 4.85112 52.0205 4.86359 52.3076 4.9212C52.5899 4.9748 52.8644 5.08727 53.1391 5.24889C53.2578 5.32253 53.3638 5.40186 53.4625 5.49976C53.5564 5.59364 53.6382 5.70209 53.7209 5.8194C53.8783 6.06371 53.9302 6.32701 53.8903 6.61246C53.8447 6.88504 53.7546 7.11268 53.612 7.30508C53.4693 7.49748 53.2733 7.64578 53.0288 7.754C52.3853 8.03878 51.7511 8.0455 51.1085 7.77584C51.0577 7.75833 51.006 7.73195 50.9446 7.69756C50.9237 7.71296 50.9165 7.73153 50.9271 7.7484C50.9288 7.76613 50.9393 7.783 50.941 7.80073C50.9585 7.93765 50.976 8.07457 50.9887 8.20749C50.9924 8.34125 51.014 8.47332 51.0452 8.61341C51.0601 8.72375 51.0791 8.82924 51.1021 8.92987C51.1251 9.03051 51.153 9.13516 51.1985 9.23811C51.2051 9.25984 51.2124 9.29044 51.2238 9.31618C51.2352 9.34192 51.224 9.36533 51.204 9.38959C51.1382 9.44951 51.077 9.46427 51.0027 9.43558C50.9107 9.40857 50.8356 9.37101 50.7677 9.31489C50.6998 9.25876 50.6447 9.19694 50.6008 9.11171C50.4424 8.80937 50.3717 8.48974 50.4026 8.15598C50.4045 8.03509 50.4112 7.91821 50.4131 7.79732C50.411 7.68129 50.4266 7.56356 50.4511 7.445L50.4317 7.42896ZM52.1047 5.325C52.1468 5.39251 52.1656 5.44884 52.1618 5.50285C52.154 5.56171 52.1365 5.61256 52.1101 5.66424C52.0941 5.68365 52.0789 5.71192 52.0629 5.73133C52.0468 5.75074 52.0356 5.77416 52.0196 5.79357C51.9675 5.85665 51.9154 5.91972 51.8673 5.97795C51.8143 6.03217 51.7573 6.09124 51.7004 6.15031C51.5784 6.27815 51.4516 6.40199 51.3297 6.52983C51.2077 6.65768 51.0809 6.78151 50.959 6.90936C50.9421 6.91991 50.9301 6.93446 50.9221 6.94417C50.91 6.95872 50.9029 6.97729 50.9045 6.99501C51.0387 7.08953 51.1978 7.16381 51.372 7.20981C51.644 7.29569 51.9206 7.33642 52.1978 7.33686C52.4702 7.33329 52.7423 7.28056 53.0183 7.17382C53.2259 7.10041 53.4099 6.96666 53.5622 6.78228C53.6888 6.60929 53.7034 6.43354 53.597 6.2559C53.5808 6.22615 53.5654 6.20526 53.554 6.17952C53.4656 6.04935 53.3701 5.93773 53.2576 5.83667C53.1412 5.74046 53.0167 5.65395 52.8802 5.582C52.6492 5.45646 52.3909 5.37375 52.1047 5.325ZM52.5337 8.86353C52.3941 8.99306 52.2584 9.11774 52.1316 9.24158C52.0048 9.36541 51.8926 9.50127 51.79 9.64515C51.7468 9.70739 51.6993 9.72532 51.6444 9.71266C51.5856 9.70485 51.5419 9.66877 51.5271 9.60759C51.4913 9.51264 51.4837 9.4329 51.4987 9.35547C51.5137 9.27804 51.5512 9.20294 51.6113 9.13015C51.6715 9.05737 51.7365 8.9886 51.8063 8.92383C51.8721 8.86392 51.942 8.79915 52.0207 8.73354C52.1523 8.61371 52.2848 8.50275 52.423 8.40465C52.5612 8.30656 52.7083 8.20762 52.861 8.12155C52.9285 8.07936 52.9952 8.0283 53.0619 7.97725C53.1197 7.92704 53.1863 7.87599 53.2579 7.82895C53.2659 7.81924 53.2788 7.81355 53.2868 7.80384C53.2948 7.79414 53.3028 7.78443 53.3205 7.78275C53.3543 7.76165 53.3857 7.76313 53.4205 7.80005C53.4773 7.87959 53.4769 7.96905 53.4144 8.0644C53.4024 8.07896 53.3903 8.09352 53.3823 8.10322C53.3703 8.11778 53.3631 8.13634 53.3648 8.15406C53.3874 8.15639 53.4051 8.1547 53.4268 8.14816C53.4486 8.14162 53.4703 8.13508 53.4969 8.13255C53.5186 8.12601 53.5452 8.12348 53.5718 8.12095C53.5935 8.11441 53.6201 8.11188 53.6555 8.10851C53.749 8.10408 53.8233 8.13278 53.8872 8.19376C53.9422 8.25557 53.9676 8.33364 53.968 8.43195C53.9682 8.48111 53.9595 8.53111 53.9412 8.57309C53.9188 8.61993 53.8956 8.6579 53.8772 8.69989C53.6234 9.08617 53.2607 9.26822 52.8029 9.24921C52.6772 9.24329 52.5996 9.17915 52.5652 9.05278C52.5538 9.02704 52.5424 9.0013 52.535 8.97071C52.5276 8.94011 52.5291 8.90868 52.5337 8.86353ZM53.7935 8.33679C53.7692 8.31675 53.7507 8.30957 53.733 8.31126L53.6887 8.31548C53.5903 8.31589 53.4986 8.33804 53.4116 8.3642C53.3247 8.39035 53.2386 8.42537 53.1526 8.46039C53.0496 8.50595 52.9555 8.55068 52.8663 8.59941C52.773 8.65299 52.6895 8.71459 52.6164 8.79307C52.6084 8.80277 52.5916 8.81332 52.5835 8.82303C52.5755 8.83273 52.5724 8.84644 52.578 8.85931C52.5894 8.88505 52.6088 8.90109 52.6403 8.90257C52.6854 8.90721 52.7257 8.90784 52.7789 8.90278C52.9875 8.88739 53.1743 8.82939 53.339 8.72876C53.499 8.62412 53.6475 8.49375 53.7935 8.33679Z" fill="black"/>
</svg>
