<svg width="59" height="59" viewBox="0 0 59 59" fill="none" xmlns="http://www.w3.org/2000/svg">
<path opacity="0.2" d="M26.5045 58.2251C41.1425 58.2251 53.0089 47.7038 53.0089 34.7251C53.0089 21.7464 41.1425 11.2251 26.5045 11.2251C11.8665 11.2251 0 21.7464 0 34.7251C0 47.7038 11.8665 58.2251 26.5045 58.2251Z" fill="#84BD41"/>
<path d="M17.5861 9.78069C17.5861 9.78069 14.5788 6.56079 16.3406 3.31051C18.1025 0.0602371 22.3855 -0.547288 24.8156 1.60944C27.2458 3.79654 27.2458 8.20111 24.3904 9.93257C21.535 11.664 19.6517 11.1476 17.5861 9.78069Z" fill="white"/>
<path d="M17.5554 9.81118C17.0694 9.2644 16.7049 8.65688 16.4011 8.04935C16.067 7.41144 15.824 6.74316 15.7328 6.01413C15.6113 5.31547 15.6721 4.55606 15.8847 3.8574C16.1277 3.15875 16.4922 2.52084 16.9783 1.97407C17.9503 0.880516 19.378 0.181859 20.8664 0.0299766C22.3549 -0.121905 23.9041 0.303366 25.0888 1.30579C26.2431 2.30821 26.9417 3.79665 27.0936 5.31547C27.1543 6.07488 27.0936 6.86467 26.8506 7.5937C26.6076 8.32274 26.2127 9.02139 25.6659 9.59855L25.2406 9.99344L24.7546 10.3276C24.4205 10.5098 24.1167 10.6921 23.7522 10.8136C23.0535 11.087 22.3245 11.2692 21.5651 11.2996C20.8057 11.2996 20.0766 11.1477 19.4084 10.8744C18.7705 10.601 18.1629 10.2364 17.5554 9.81118ZM17.6465 9.75043C18.2237 10.1149 18.8616 10.4491 19.5299 10.6313C20.1982 10.8136 20.8968 10.8744 21.5347 10.7528C22.203 10.6313 22.8105 10.358 23.3877 10.0238C23.6914 9.87193 23.9648 9.68967 24.2382 9.47704L24.6027 9.20365L24.9369 8.86951C25.757 7.92784 26.1519 6.65203 26.0912 5.37622C26.0304 4.10041 25.514 2.82461 24.5724 1.94369C23.6307 1.06278 22.2941 0.637506 20.9576 0.728635C19.621 0.819764 18.3452 1.39691 17.4035 2.33858C16.9479 2.82461 16.553 3.40176 16.2796 4.00929C16.0366 4.64719 15.9151 5.31547 15.9758 6.01413C16.067 7.38107 16.7049 8.71763 17.6465 9.75043Z" fill="black"/>
<path d="M20.9335 6.77417L21.0384 6.97521C21.0699 7.04454 21.1066 7.11039 21.1398 7.17104C21.1625 7.2161 21.1818 7.25597 21.2027 7.28715C21.2237 7.31832 21.2429 7.35819 21.2639 7.38937C21.2936 7.44482 21.3059 7.49686 21.3044 7.5507C21.3029 7.60453 21.2926 7.65665 21.2789 7.70358C21.2721 7.73833 21.2548 7.7575 21.234 7.77146C21.2132 7.78543 21.1889 7.7942 21.1612 7.79777C21.0414 7.81036 20.932 7.7934 20.8311 7.75556C20.7303 7.71773 20.6484 7.65205 20.5786 7.54812C20.5141 7.46328 20.4599 7.37145 20.4144 7.28133C20.369 7.1912 20.3252 7.09239 20.2814 6.99358C20.264 6.9676 20.2465 6.94162 20.2273 6.92433C20.2082 6.90703 20.1838 6.89323 20.1491 6.88641C20.1004 6.88138 20.0535 6.86766 20.017 6.84696C19.9752 6.82975 19.9352 6.80385 19.8952 6.77795C19.8656 6.76764 19.843 6.74515 19.8307 6.71567C19.8219 6.6914 19.8184 6.66363 19.8322 6.63927C19.846 6.61491 19.8702 6.60614 19.898 6.60257C19.9206 6.60249 19.9518 6.60411 20.0005 6.60914C20.0735 6.62798 20.0925 6.60013 20.0662 6.5273C20.0206 6.4146 19.9802 6.29842 19.9312 6.18052C19.8856 6.06783 19.8453 5.95164 19.7962 5.83375C19.7314 5.68119 19.6753 5.53034 19.6261 5.3673C19.5804 5.20946 19.5295 5.05512 19.4803 4.89208C19.461 4.85222 19.447 4.80886 19.4329 4.7655C19.4224 4.72734 19.4049 4.67879 19.3873 4.63024C19.3494 4.70851 19.3219 4.7798 19.2944 4.85109C19.2703 4.92757 19.248 4.99537 19.2292 5.06836C19.195 5.21955 19.1747 5.36894 19.1683 5.51655C19.1619 5.66416 19.178 5.81169 19.2168 5.95914C19.2203 5.9869 19.2134 5.99908 19.1927 6.01305C19.1615 6.034 19.1302 6.03238 19.0937 6.01167C18.9633 5.96353 18.8779 5.87008 18.8392 5.74521C18.7795 5.54401 18.7578 5.33226 18.7918 5.11336C18.8428 4.80758 18.9373 4.5329 19.0735 4.27543C19.2045 4.02146 19.3895 3.79159 19.6214 3.57545C19.7252 3.48304 19.8308 3.40453 19.9521 3.3381C20.0682 3.27518 20.1948 3.22784 20.3301 3.1822C20.6076 3.10132 20.8733 3.1264 21.1342 3.24526C21.3812 3.3659 21.5728 3.51627 21.7158 3.70674C21.8589 3.89721 21.9448 4.1261 21.9788 4.38989C22.0681 5.08409 21.8949 5.69069 21.4559 6.22707C21.4248 6.2706 21.385 6.31241 21.3348 6.36121C21.3436 6.38549 21.3592 6.39758 21.3783 6.39231C21.3957 6.39572 21.4148 6.39044 21.4322 6.39385C21.5677 6.41593 21.7032 6.43801 21.8335 6.46358C21.9621 6.49784 22.0941 6.51472 22.2365 6.52462C22.346 6.54159 22.4519 6.55335 22.5544 6.55993C22.6569 6.5665 22.7645 6.56958 22.8756 6.55529C22.8982 6.55521 22.9294 6.55683 22.9572 6.55326C22.985 6.54968 23.0041 6.56698 23.0216 6.59296C23.0601 6.67269 23.0568 6.73521 23.0085 6.79789C22.9567 6.87795 22.8996 6.93893 22.8268 6.98781C22.7541 7.03669 22.6796 7.07169 22.5859 7.08939C22.2527 7.15484 21.9279 7.13171 21.6184 7.00782C21.5037 6.97178 21.3942 6.93224 21.2794 6.8962C21.1682 6.86535 21.0604 6.81712 20.9543 6.76021L20.9335 6.77417ZM19.401 4.58331C19.4774 4.56219 19.5364 4.56024 19.5868 4.57916C19.6407 4.60327 19.6842 4.63437 19.7261 4.67415C19.74 4.69494 19.7627 4.71743 19.7766 4.73821C19.7906 4.759 19.8098 4.77629 19.8237 4.79707C19.8691 4.86463 19.9145 4.93218 19.9564 4.99453C19.9931 5.06038 20.0333 5.13142 20.0735 5.20246C20.1609 5.35494 20.243 5.51091 20.3304 5.66339C20.4178 5.81587 20.5 5.97184 20.5873 6.12432C20.5926 6.1434 20.6031 6.15898 20.6101 6.16938C20.6205 6.18497 20.6362 6.19706 20.6536 6.20047C20.7817 6.0993 20.8976 5.96866 20.9908 5.81552C21.1497 5.58054 21.2668 5.32835 21.3457 5.06415C21.4194 4.80343 21.4462 4.529 21.4226 4.23564C21.4114 4.01691 21.3359 3.80362 21.2032 3.60616C21.0741 3.43647 20.9107 3.37282 20.7112 3.4239C20.6782 3.43096 20.654 3.43973 20.6262 3.44331C20.4771 3.49073 20.3436 3.55025 20.2154 3.62885C20.0907 3.71265 19.9729 3.80683 19.8657 3.91661C19.6806 4.10133 19.5286 4.32413 19.401 4.58331ZM22.8965 5.17609C22.9805 5.34595 23.0609 5.5106 23.1431 5.66657C23.2253 5.82254 23.3231 5.96804 23.4312 6.10655C23.4783 6.16541 23.482 6.21575 23.4544 6.26447C23.4302 6.31838 23.3835 6.34981 23.321 6.34656C23.2203 6.35387 23.1421 6.33853 23.0725 6.30232C23.0029 6.26611 22.9419 6.20903 22.8896 6.13109C22.8372 6.05315 22.79 5.97171 22.748 5.88678C22.7095 5.80705 22.6676 5.72213 22.6273 5.62851C22.5503 5.46905 22.482 5.31129 22.4276 5.15175C22.3732 4.99221 22.3205 4.82398 22.2817 4.65396C22.2606 4.57764 22.2308 4.49961 22.201 4.42159C22.1695 4.35225 22.1397 4.27422 22.1151 4.19271C22.1081 4.18231 22.1063 4.16843 22.0993 4.15804C22.0923 4.14764 22.0854 4.13725 22.0888 4.11988C22.0782 4.08172 22.0885 4.05216 22.1336 4.02942C22.2255 3.99784 22.3107 4.02357 22.3839 4.11012C22.3944 4.12571 22.4048 4.1413 22.4118 4.15169C22.4223 4.16728 22.438 4.17938 22.4554 4.18279C22.464 4.16192 22.4674 4.14454 22.4673 4.12197C22.4672 4.0994 22.4671 4.07683 22.4722 4.05077C22.4722 4.02819 22.4773 4.00213 22.4824 3.97607C22.4823 3.9535 22.4874 3.92743 22.4942 3.89268C22.5165 3.80231 22.5649 3.73963 22.6411 3.69594C22.7156 3.66095 22.7972 3.65891 22.8911 3.68635C22.938 3.70007 22.9833 3.72248 23.0181 3.75187C23.0564 3.78646 23.0861 3.81934 23.1209 3.84873C23.4173 4.20013 23.4882 4.59749 23.3405 5.02863C23.2992 5.14685 23.2161 5.20271 23.0859 5.19971C23.0581 5.20329 23.0303 5.20686 22.9991 5.20524C22.9678 5.20361 22.9382 5.1933 22.8965 5.17609ZM22.751 3.82577C22.725 3.84323 22.7129 3.8589 22.7095 3.87627L22.701 3.91971C22.6735 4.01357 22.6686 4.10735 22.669 4.19764C22.6693 4.28792 22.6783 4.37992 22.6873 4.47191C22.7016 4.58298 22.7176 4.68536 22.7388 4.78426C22.7635 4.88835 22.7986 4.98545 22.8527 5.07728C22.8597 5.08767 22.865 5.10675 22.872 5.11715C22.879 5.12754 22.8912 5.13444 22.905 5.13265C22.9328 5.12908 22.9536 5.11511 22.9639 5.08556C22.9811 5.04382 22.9931 5.00558 23.0034 4.95346C23.0478 4.75015 23.0453 4.55569 22.996 4.37008C22.9415 4.18797 22.8593 4.00942 22.751 3.82577Z" fill="black"/>
<path d="M30.6756 19.6222H10.5664C9.9285 19.6222 9.41211 19.1058 9.41211 18.4679V15.3999C9.41211 14.762 9.9285 14.2456 10.5664 14.2456H30.6756C31.3135 14.2456 31.8299 14.762 31.8299 15.3999V18.4679C31.8299 19.1058 31.3135 19.6222 30.6756 19.6222Z" fill="#84BD41"/>
<path d="M10.3847 18.863C10.5669 19.1971 10.6581 19.592 10.567 19.9869C10.5366 20.1692 10.4454 20.3818 10.2936 20.5337C10.1721 20.6856 9.9898 20.8071 9.83792 20.8982C9.50378 21.0805 9.20002 21.2324 8.89626 21.445C8.59249 21.6273 8.34947 21.8703 8.10646 22.1437C7.62044 22.66 7.2863 23.2676 7.04328 23.9359C6.7699 24.5738 6.61802 25.2724 6.49651 25.9711L6.34463 27.0343L6.28387 28.0974C6.28387 28.8265 6.2535 29.5251 6.28387 30.2542V34.6284C6.28387 36.0864 6.31426 37.5445 6.46614 38.9418C6.5269 39.6405 6.61803 40.3391 6.76991 40.977C6.83066 41.3112 6.95215 41.6149 7.04328 41.8883C7.16479 42.1617 7.2863 42.4047 7.46856 42.587C7.62044 42.7692 7.83308 42.8907 8.07609 42.9515L8.25834 42.9819L8.53173 43.0122L9.04814 43.073C9.74679 43.1641 10.4758 43.2249 11.2049 43.2856C12.6325 43.4071 14.0906 43.4679 15.5791 43.559V43.7109C14.121 44.045 12.6629 44.2273 11.2049 44.3184C10.4758 44.3792 9.71642 44.3792 8.95701 44.3488C8.77475 44.3488 8.59249 44.3488 8.37985 44.3184L8.10646 44.288C8.01533 44.288 7.86345 44.2577 7.77233 44.2273C7.2863 44.1362 6.83066 43.8932 6.46614 43.559C5.76749 42.8604 5.46371 42.0098 5.28146 41.2504C5.0992 40.4606 5.03846 39.7012 5.00808 38.9418C4.9777 37.423 5.03845 35.9649 5.09921 34.5068L5.31184 30.1326C5.34222 29.4036 5.37259 28.6746 5.43334 27.9152L5.55485 26.7912L5.76749 25.6977C5.94975 24.9687 6.16237 24.2396 6.49651 23.5713C6.83065 22.8727 7.22554 22.2348 7.80269 21.7184C8.07608 21.445 8.37985 21.2324 8.71399 21.0197C9.04813 20.8375 9.38228 20.6552 9.71642 20.5033C9.8683 20.4122 10.0202 20.3514 10.1417 20.2299C10.2632 20.1084 10.3239 19.9869 10.3847 19.8047C10.4758 19.5009 10.4151 19.106 10.2936 18.8022L10.3847 18.863Z" fill="black"/>
<path d="M31.8602 21.0503C32.3159 21.1414 32.7108 21.3541 33.0449 21.5971C33.136 21.6578 33.2272 21.7186 33.3183 21.8097C33.4094 21.8705 33.5006 21.9616 33.5613 22.0223C33.7132 22.1742 33.8651 22.3261 34.017 22.5084C34.5637 23.207 34.9586 23.9968 35.2016 24.8473C35.232 24.9385 35.2624 25.06 35.2927 25.1511L35.3839 25.4549L35.5358 26.0928C35.5965 26.518 35.6876 26.9433 35.7484 27.399C35.7788 27.8242 35.8395 28.2799 35.8699 28.7051L35.9003 30.0113C35.8699 31.7124 35.9003 33.4135 35.9914 35.1146C36.0522 36.8156 36.2041 38.5167 36.1433 40.3089C36.1433 40.7646 36.1129 41.1898 36.0218 41.6759C35.961 42.1315 35.8395 42.6175 35.5965 43.1036C35.3535 43.5896 34.9586 44.0452 34.4726 44.3186C33.9562 44.592 33.5005 44.6831 33.0145 44.7743C31.2223 45.0476 29.4909 45.0477 27.7594 45.0173C26.028 44.9565 24.3269 44.835 22.5954 44.6831C20.8943 44.5009 19.1629 44.2882 17.4922 43.9845V43.8326C19.2236 43.7415 20.9247 43.6807 22.6258 43.6503L27.7594 43.5592C28.1847 43.5592 28.6099 43.5592 29.0352 43.5288C29.4605 43.5288 29.8858 43.5288 30.311 43.4985C30.7363 43.4681 31.1616 43.4681 31.5565 43.4377C31.7691 43.4073 31.9817 43.4073 32.164 43.4073L32.7715 43.3466C33.136 43.2858 33.5309 43.2251 33.7739 43.1036C34.0473 42.982 34.2296 42.7694 34.4118 42.496C34.746 41.9189 34.8675 41.0987 34.9282 40.2786C35.0498 38.6382 34.989 36.9068 34.989 35.1753C34.989 33.4439 35.0194 31.7428 35.1105 30.0113L35.1409 28.7355C35.1409 28.3103 35.1105 27.885 35.1105 27.4597C35.0801 27.0344 35.0194 26.6092 34.989 26.2143L34.8675 25.6068L34.8067 25.303C34.7764 25.2119 34.746 25.0904 34.7156 24.9992C34.503 24.1791 34.1688 23.4197 33.7132 22.721C33.5917 22.5387 33.4702 22.3869 33.3183 22.235C33.2575 22.1438 33.1664 22.0831 33.1057 22.0223C33.0449 21.9616 32.9538 21.8705 32.8626 21.8097C32.5589 21.5363 32.164 21.3237 31.7691 21.2325L31.8602 21.0503Z" fill="black"/>
<path d="M12.0256 14.7925C12.056 15.4 12.1167 16.0075 12.1167 16.6151C12.1167 16.9188 12.1775 17.2226 12.1471 17.5264C12.1168 17.8301 12.0864 18.1339 12.0256 18.4376H11.9953C11.9041 18.1339 11.8737 17.8301 11.8737 17.5264C11.8434 17.2226 11.9041 16.9188 11.9041 16.6151C11.9345 16.0075 11.9649 15.4 12.0256 14.7925Z" fill="black"/>
<path d="M15.1838 14.7927C15.2142 15.4003 15.275 16.0078 15.275 16.6153C15.275 16.9191 15.3357 17.2228 15.3053 17.5266C15.2749 17.8304 15.2446 18.1341 15.1838 18.4379H15.1534C15.0623 18.1341 15.0319 17.8304 15.0319 17.5266C15.0016 17.2228 15.0623 16.9191 15.0623 16.6153C15.0623 16.0078 15.0927 15.4003 15.1838 14.7927Z" fill="black"/>
<path d="M18.6174 14.7925C18.6478 15.4 18.7085 16.0075 18.7085 16.6151C18.7085 16.9188 18.7693 17.2226 18.7389 17.5264C18.7085 17.8301 18.6782 18.1339 18.6174 18.4376H18.587C18.4959 18.1339 18.4655 17.8301 18.4655 17.5264C18.4352 17.2226 18.4959 16.9188 18.4959 16.6151C18.5263 16.0075 18.5567 15.4 18.6174 14.7925Z" fill="black"/>
<path d="M21.7746 14.7925C21.805 15.4 21.8658 16.0075 21.8658 16.6151C21.8658 16.9188 21.9265 17.2226 21.8962 17.5264C21.8658 17.8301 21.8354 18.1339 21.7746 18.4376H21.7443C21.6531 18.1339 21.6228 17.8301 21.6228 17.5264C21.5924 17.2226 21.6531 16.9188 21.6531 16.6151C21.6835 16.0075 21.7139 15.4 21.7746 14.7925Z" fill="black"/>
<path d="M24.9953 14.7927C25.0257 15.4003 25.0865 16.0078 25.0865 16.6153C25.0865 16.9191 25.1472 17.2228 25.1168 17.5266C25.0865 17.8304 25.0561 18.1341 24.9953 18.4379H24.965C24.8738 18.1341 24.8435 17.8304 24.8435 17.5266C24.8131 17.2228 24.8738 16.9191 24.8738 16.6153C24.8738 16.0078 24.9042 15.4003 24.9953 14.7927Z" fill="black"/>
<path d="M28.1252 14.7927C28.1556 15.4003 28.2164 16.0078 28.2164 16.6153C28.2164 16.9191 28.2771 17.2228 28.2467 17.5266C28.2164 17.8304 28.186 18.1341 28.1252 18.4379H28.0949C28.0037 18.1341 27.9733 17.8304 27.9733 17.5266C27.943 17.2228 28.0037 16.9191 28.0037 16.6153C28.0341 16.0078 28.0645 15.4003 28.1252 14.7927Z" fill="black"/>
<path d="M8.46987 35.4177C8.46987 35.4177 9.7153 31.9244 12.8137 31.9548C15.9121 31.9852 18.0384 34.962 17.3701 37.6352C16.7019 40.3083 13.3908 42.0094 10.9911 40.5817C8.59137 39.1236 8.25723 37.4833 8.46987 35.4177Z" fill="white"/>
<path d="M8.43916 35.4179C8.65179 34.8408 8.95555 34.3243 9.32006 33.8383C9.6542 33.3523 10.0795 32.8967 10.5655 32.5625C11.0515 32.198 11.6287 31.955 12.2362 31.8335C12.8437 31.7424 13.4816 31.7727 14.0892 31.9246C15.3042 32.2284 16.3674 33.0182 17.066 34.051C17.7343 35.1141 18.0381 36.4507 17.7647 37.6961C17.461 38.9416 16.6408 40.0351 15.5472 40.7641C15.0005 41.0983 14.3929 41.3717 13.755 41.4628C13.1171 41.5843 12.4185 41.5539 11.7806 41.3717L11.3249 41.1894L10.8996 40.9464C10.6263 40.7641 10.3832 40.5819 10.1402 40.3996C9.65421 40.0047 9.22894 39.5187 8.92517 38.9719C8.62141 38.4252 8.46952 37.8176 8.40877 37.2101C8.31764 36.6026 8.37841 36.0254 8.43916 35.4179ZM8.53028 35.4483C8.49991 36.0254 8.46954 36.633 8.59104 37.2101C8.71255 37.7873 8.95555 38.3037 9.28969 38.7593C9.62384 39.215 10.0795 39.5491 10.5351 39.8529C10.7781 40.0047 11.0211 40.1566 11.2642 40.2781L11.6287 40.43L11.9932 40.5515C12.9956 40.7945 14.1195 40.5819 15.0612 40.0655C16.0029 39.5187 16.7319 38.6378 17.0357 37.5746C17.3091 36.5114 17.1268 35.3571 16.5497 34.3851C15.9725 33.4434 15.0308 32.684 13.9373 32.3499C13.3905 32.198 12.8134 32.1372 12.2666 32.1676C11.6894 32.2284 11.1427 32.4106 10.6566 32.7144C9.68459 33.3523 8.92518 34.3547 8.53028 35.4483Z" fill="black"/>
<path d="M12.5488 35.8185L12.4395 35.9753C12.4 36.0259 12.3652 36.079 12.3328 36.1275C12.308 36.162 12.2858 36.192 12.2706 36.2198C12.2555 36.2476 12.2333 36.2775 12.2181 36.3053C12.1883 36.3492 12.1543 36.3787 12.1134 36.3985C12.0726 36.4184 12.0297 36.4311 11.9893 36.4391C11.9607 36.4476 11.9396 36.4422 11.9211 36.4321C11.9025 36.422 11.8865 36.4073 11.873 36.388C11.8169 36.3034 11.7869 36.215 11.7758 36.125C11.7647 36.0349 11.7818 35.9481 11.8322 35.8554C11.8704 35.7741 11.9179 35.6978 11.9674 35.6287C12.017 35.5596 12.0737 35.4883 12.1305 35.4171C12.1431 35.3939 12.1557 35.3707 12.1611 35.3497C12.1666 35.3286 12.1674 35.305 12.1589 35.2764C12.1437 35.2381 12.1356 35.1977 12.1368 35.1623C12.1334 35.1245 12.1371 35.0844 12.1409 35.0444C12.137 35.0183 12.145 34.9926 12.1622 34.972C12.1769 34.956 12.1963 34.9425 12.2199 34.9433C12.2434 34.9441 12.2595 34.9588 12.273 34.9781C12.2818 34.995 12.2928 35.0189 12.308 35.0572C12.3224 35.1191 12.3507 35.1224 12.3948 35.0744C12.4612 34.9964 12.5322 34.9209 12.6012 34.8383C12.6676 34.7603 12.7386 34.6848 12.8075 34.6022C12.8962 34.4943 12.987 34.3935 13.0896 34.2931C13.1896 34.1974 13.2851 34.0992 13.3876 33.9988C13.4099 33.9689 13.4368 33.9415 13.4637 33.914C13.4881 33.8913 13.5175 33.8592 13.5469 33.8272C13.4737 33.8294 13.4097 33.8367 13.3457 33.8439C13.2792 33.8558 13.2199 33.8656 13.158 33.88C13.0317 33.9134 12.9122 33.9566 12.7995 34.0094C12.6867 34.0622 12.5828 34.1318 12.4878 34.2183C12.4684 34.2318 12.4567 34.2314 12.4381 34.2213C12.4103 34.2062 12.3993 34.1822 12.4005 34.1468C12.3856 34.0306 12.4221 33.9304 12.5003 33.8528C12.6273 33.7296 12.777 33.6309 12.9537 33.5708C13.202 33.4896 13.4441 33.453 13.6895 33.4544C13.9304 33.4531 14.1742 33.5016 14.4261 33.5905C14.5357 33.632 14.6355 33.6803 14.7325 33.745C14.8248 33.8071 14.9095 33.8832 14.9964 33.9664C15.165 34.1422 15.25 34.3505 15.263 34.5917C15.2692 34.8233 15.2317 35.025 15.1452 35.2062C15.0587 35.3873 14.9213 35.5408 14.7375 35.6691C14.2538 36.0067 13.7332 36.114 13.1612 35.9953C13.1166 35.989 13.0698 35.9756 13.0138 35.9572C12.9991 35.9732 12.9962 35.9896 13.0075 36.0018C13.0118 36.0161 13.0232 36.0283 13.0274 36.0426C13.0638 36.1525 13.1001 36.2623 13.1319 36.3696C13.1565 36.479 13.1954 36.5842 13.2435 36.6945C13.2736 36.7829 13.3061 36.8666 13.3412 36.9457C13.3762 37.0248 13.4159 37.1064 13.47 37.1838C13.4788 37.2006 13.4898 37.2246 13.5033 37.244C13.5168 37.2633 13.5114 37.2844 13.4988 37.3075C13.4542 37.3674 13.4063 37.3894 13.3406 37.3777C13.2606 37.3702 13.1928 37.3514 13.1279 37.3161C13.063 37.2808 13.0077 37.2388 12.958 37.1757C12.7791 36.9524 12.6697 36.7008 12.6415 36.4213C12.6236 36.3216 12.6104 36.2243 12.5926 36.1246C12.5722 36.0294 12.5662 35.9301 12.5673 35.8286L12.5488 35.8185ZM13.5874 33.8191C13.6329 33.8679 13.6574 33.9112 13.6629 33.9563C13.6659 34.0059 13.6597 34.0506 13.6463 34.0973C13.6362 34.1159 13.6283 34.1416 13.6182 34.1601C13.6081 34.1787 13.6027 34.1997 13.5926 34.2183C13.5598 34.2785 13.5271 34.3388 13.4969 34.3944C13.462 34.4475 13.4246 34.5052 13.3872 34.563C13.3074 34.6877 13.223 34.81 13.1432 34.9347C13.0634 35.0595 12.9789 35.1817 12.8991 35.3064C12.8869 35.3178 12.8794 35.3317 12.8743 35.341C12.8668 35.3549 12.8639 35.3713 12.8681 35.3856C12.9936 35.4419 13.1364 35.4774 13.2872 35.4873C13.5247 35.5143 13.7588 35.5034 13.9869 35.4593C14.2104 35.4126 14.4258 35.3256 14.6357 35.1935C14.7947 35.0998 14.9246 34.9602 15.0203 34.7841C15.0967 34.6214 15.0805 34.4745 14.9645 34.3454C14.9464 34.3236 14.9304 34.3088 14.9169 34.2895C14.8232 34.1966 14.7267 34.1201 14.618 34.055C14.5067 33.9946 14.3905 33.9434 14.2666 33.9061C14.0564 33.8399 13.8307 33.8133 13.5874 33.8191ZM14.5083 36.6613C14.4142 36.7903 14.3226 36.9147 14.2381 37.0369C14.1537 37.1591 14.0832 37.2889 14.0219 37.4237C13.9963 37.4819 13.9601 37.5042 13.913 37.5026C13.8633 37.5057 13.8216 37.483 13.7996 37.435C13.7549 37.3627 13.7358 37.2983 13.7357 37.2322C13.7356 37.1661 13.7545 37.0983 13.7923 37.0287C13.83 36.9592 13.8725 36.8922 13.9195 36.8277C13.9641 36.7678 14.0111 36.7034 14.0653 36.6367C14.1544 36.517 14.2456 36.4045 14.3435 36.3016C14.4415 36.1987 14.5466 36.0937 14.6584 35.9984C14.7072 35.9528 14.7539 35.9001 14.8005 35.8474C14.84 35.7969 14.8867 35.7442 14.938 35.694C14.943 35.6847 14.9527 35.678 14.9577 35.6687C14.9628 35.6594 14.9678 35.6501 14.9821 35.6459C15.0065 35.6231 15.0326 35.6193 15.0671 35.6441C15.1266 35.7004 15.1406 35.7741 15.1045 35.8626C15.097 35.8765 15.0894 35.8904 15.0844 35.8996C15.0768 35.9136 15.0739 35.93 15.0781 35.9443C15.0971 35.9426 15.1114 35.9383 15.1282 35.9295C15.145 35.9206 15.1619 35.9117 15.1833 35.9054C15.2002 35.8965 15.2216 35.8902 15.2431 35.8838C15.2599 35.875 15.2814 35.8686 15.31 35.8601C15.3862 35.8415 15.4519 35.8532 15.5142 35.8931C15.5695 35.9351 15.6028 35.9953 15.6189 36.0761C15.627 36.1165 15.6279 36.159 15.6195 36.1965C15.6087 36.2386 15.5957 36.2736 15.5873 36.3111C15.4405 36.6696 15.1713 36.8776 14.7917 36.9354C14.6873 36.9507 14.6131 36.9104 14.5645 36.812C14.551 36.7926 14.5375 36.7733 14.5265 36.7493C14.5156 36.7253 14.5117 36.6992 14.5083 36.6613ZM15.4601 36.0258C15.437 36.0132 15.4205 36.0103 15.4062 36.0145L15.3705 36.0251C15.2896 36.0412 15.2177 36.0742 15.1504 36.1096C15.0831 36.1451 15.0179 36.1877 14.9527 36.2304C14.8753 36.2844 14.8051 36.3363 14.7395 36.3907C14.6713 36.4497 14.6125 36.5138 14.565 36.5901C14.56 36.5994 14.5478 36.6108 14.5428 36.62C14.5377 36.6293 14.5373 36.6411 14.5441 36.6508C14.5576 36.6701 14.5761 36.6802 14.6022 36.6764C14.6401 36.6729 14.6734 36.667 14.7163 36.6543C14.8855 36.6081 15.0298 36.5304 15.1492 36.4212C15.2639 36.3095 15.3652 36.1784 15.4601 36.0258Z" fill="black"/>
<path d="M16.5539 38.3037C16.5539 38.3037 16.0983 34.6282 18.8929 33.2612C21.6875 31.8943 24.9074 33.5954 25.515 36.2989C26.1225 39.0024 23.9354 42.0096 21.1104 41.797C18.3158 41.5843 17.3133 40.2478 16.5539 38.3037Z" fill="white"/>
<path d="M16.5216 38.3341C16.4608 37.7265 16.4912 37.1494 16.6127 36.5419C16.7038 35.9647 16.8861 35.3572 17.1595 34.8408C17.4329 34.294 17.8278 33.808 18.3442 33.4435C18.8606 33.0789 19.4377 32.8359 20.0149 32.6841C21.2299 32.4107 22.5361 32.6537 23.6297 33.2612C24.7232 33.8991 25.5738 34.9623 25.8775 36.2077C26.1813 37.4835 25.9079 38.8201 25.27 39.944C24.9358 40.4908 24.5106 40.9768 23.9638 41.3717C23.4474 41.7666 22.8095 42.04 22.1716 42.1615L21.6856 42.2222L21.1996 42.1919C20.8958 42.1615 20.592 42.1007 20.2883 42.04C19.6807 41.8881 19.0732 41.6451 18.5568 41.311C18.0404 40.9464 17.6151 40.4908 17.3114 39.944C16.9469 39.4276 16.7342 38.9112 16.5216 38.3341ZM16.6127 38.3037C16.8253 38.8505 17.0988 39.3669 17.4633 39.8529C17.8278 40.3085 18.2834 40.673 18.7694 40.9161C19.2858 41.1591 19.8326 41.2806 20.3794 41.3413C20.6528 41.3717 20.9565 41.4021 21.2299 41.4021H21.6248L22.0197 41.3413C23.0525 41.1287 23.9334 40.43 24.541 39.5187C25.1485 38.6075 25.3915 37.4835 25.2093 36.4203C24.9966 35.3572 24.2979 34.4155 23.3563 33.808C22.4146 33.2005 21.2299 32.9574 20.1364 33.1701C19.5896 33.2612 19.0428 33.4738 18.5568 33.7472C18.0708 34.051 17.6759 34.4763 17.3721 34.9623C16.7038 35.904 16.4912 37.1494 16.6127 38.3037Z" fill="black"/>
<path d="M20.3457 36.8541L20.3181 37.0432C20.3054 37.1061 20.2979 37.1692 20.2906 37.227C20.2839 37.269 20.2774 37.3058 20.2763 37.3374C20.2752 37.369 20.2686 37.4057 20.2675 37.4374C20.2605 37.4899 20.2432 37.5316 20.2155 37.5676C20.1879 37.6036 20.1552 37.6341 20.1226 37.6594C20.1008 37.6797 20.0795 37.6843 20.0585 37.6836C20.0374 37.6828 20.0165 37.6768 19.9957 37.6655C19.9077 37.615 19.8414 37.5494 19.7912 37.4737C19.741 37.3981 19.7176 37.3128 19.7212 37.2074C19.719 37.1176 19.7274 37.0281 19.7409 36.9441C19.7543 36.8601 19.7732 36.771 19.7921 36.6819C19.793 36.6556 19.794 36.6292 19.7894 36.6079C19.7849 36.5867 19.7751 36.5652 19.7547 36.5434C19.724 36.5159 19.6987 36.4834 19.684 36.4512C19.664 36.4189 19.6494 36.3814 19.6349 36.3439C19.6198 36.3223 19.6154 36.2958 19.6216 36.2696C19.6276 36.2487 19.6389 36.2279 19.6603 36.2181C19.6818 36.2083 19.7027 36.2143 19.7234 36.2256C19.7389 36.2367 19.7594 36.2532 19.7902 36.2807C19.8307 36.3296 19.8574 36.32 19.8754 36.2572C19.9 36.1578 19.9298 36.0585 19.9545 35.9538C19.9791 35.8543 20.0089 35.7551 20.0336 35.6503C20.0647 35.5142 20.1009 35.3834 20.1478 35.2478C20.1945 35.1175 20.236 34.9869 20.2829 34.8513C20.2895 34.8146 20.3013 34.778 20.3131 34.7415C20.3247 34.7102 20.3367 34.6684 20.3487 34.6266C20.2842 34.6613 20.2302 34.6964 20.1762 34.7315C20.122 34.7718 20.0733 34.8071 20.0244 34.8476C19.9264 34.934 19.8387 35.026 19.7615 35.1236C19.6842 35.2213 19.6224 35.33 19.576 35.4498C19.5647 35.4705 19.554 35.4754 19.5329 35.4747C19.5013 35.4736 19.4807 35.4571 19.466 35.4249C19.4007 35.3276 19.3886 35.2216 19.4238 35.1172C19.4824 34.9503 19.5722 34.7951 19.7035 34.6624C19.8893 34.4787 20.0895 34.3378 20.3097 34.2293C20.5246 34.1206 20.7644 34.055 21.0295 34.0219C21.146 34.0101 21.2569 34.0086 21.3725 34.0232C21.4829 34.0375 21.5927 34.0677 21.7076 34.1034C21.9371 34.1852 22.1061 34.3336 22.2256 34.5436C22.3347 34.7479 22.3912 34.9452 22.3948 35.1459C22.3985 35.3466 22.3441 35.5453 22.237 35.7422C21.9552 36.2604 21.5374 36.5891 20.9726 36.7385C20.9299 36.7529 20.8821 36.7618 20.8237 36.7703C20.8177 36.7912 20.8225 36.8072 20.8381 36.8131C20.8483 36.824 20.8639 36.8298 20.8741 36.8407C20.9557 36.9227 21.0374 37.0047 21.1137 37.0865C21.1846 37.1734 21.2664 37.2502 21.3588 37.3272C21.4251 37.3929 21.4917 37.4532 21.5584 37.5083C21.6251 37.5634 21.6971 37.6187 21.78 37.6638C21.7955 37.6749 21.816 37.6914 21.8368 37.7027C21.8575 37.714 21.862 37.7353 21.8611 37.7616C21.848 37.8351 21.8149 37.8762 21.7509 37.8951C21.676 37.9241 21.6069 37.9376 21.5331 37.9351C21.4593 37.9325 21.3911 37.9196 21.3184 37.8854C21.0586 37.7656 20.8482 37.5894 20.6981 37.3519C20.6375 37.2707 20.5823 37.1896 20.5217 37.1083C20.461 37.0323 20.4112 36.9461 20.3668 36.8549L20.3457 36.8541ZM20.3813 34.6013C20.4438 34.6246 20.4851 34.6524 20.5102 34.6902C20.5351 34.7333 20.5495 34.776 20.5584 34.8238C20.5576 34.8449 20.562 34.8715 20.5613 34.8926C20.5605 34.9137 20.5651 34.9349 20.5644 34.956C20.562 35.0246 20.5596 35.0931 20.5574 35.1564C20.55 35.2195 20.5423 35.2878 20.5347 35.3562C20.5191 35.5035 20.4982 35.6505 20.4825 35.7978C20.4669 35.9451 20.446 36.0922 20.4303 36.2394C20.4245 36.2551 20.4239 36.2709 20.4236 36.2814C20.423 36.2972 20.4278 36.3132 20.4379 36.3242C20.5754 36.3183 20.719 36.2863 20.8583 36.2278C21.0828 36.1458 21.2874 36.0315 21.4717 35.89C21.6508 35.7484 21.8047 35.5742 21.9334 35.3622C22.0338 35.2073 22.0876 35.0244 22.0945 34.8241C22.0901 34.6445 22.01 34.5203 21.8485 34.4566C21.8225 34.4452 21.8016 34.4392 21.7809 34.4279C21.6556 34.3866 21.5351 34.3614 21.4087 34.3517C21.2822 34.3473 21.1553 34.3535 21.0278 34.3755C20.8102 34.4102 20.5964 34.4873 20.3813 34.6013ZM22.4754 36.7323C22.4489 36.8898 22.4225 37.042 22.4016 37.189C22.3807 37.3361 22.3756 37.4838 22.381 37.6318C22.3841 37.6952 22.3618 37.7314 22.3188 37.751C22.2758 37.7759 22.2283 37.7743 22.1872 37.7412C22.1149 37.6965 22.069 37.6474 22.0394 37.5883C22.0098 37.5292 21.9963 37.4601 21.9991 37.381C22.0018 37.3019 22.0098 37.223 22.0231 37.1443C22.0362 37.0709 22.0494 36.9921 22.0682 36.9083C22.0943 36.7614 22.1256 36.62 22.1673 36.4842C22.2089 36.3483 22.256 36.2074 22.3135 36.0722C22.3367 36.0096 22.3549 35.9416 22.3731 35.8736C22.3858 35.8107 22.404 35.7427 22.4275 35.6749C22.4278 35.6644 22.4335 35.654 22.4338 35.6435C22.4342 35.6329 22.4346 35.6224 22.4455 35.6122C22.4571 35.5809 22.4787 35.5658 22.5207 35.5726C22.5991 35.5964 22.6445 35.656 22.6518 35.7513C22.6513 35.7671 22.6507 35.7829 22.6504 35.7935C22.6498 35.8093 22.6545 35.8253 22.6647 35.8362C22.6809 35.8262 22.6918 35.816 22.7029 35.8006C22.714 35.7851 22.7251 35.7696 22.7415 35.7544C22.7525 35.7389 22.7689 35.7237 22.7853 35.7084C22.7964 35.6929 22.8127 35.6777 22.8345 35.6573C22.8944 35.6066 22.9584 35.5877 23.032 35.5955C23.1002 35.6084 23.1569 35.6473 23.2074 35.7124C23.2327 35.7449 23.2525 35.7826 23.2618 35.8199C23.2709 35.8624 23.2749 35.8995 23.2842 35.9368C23.313 36.3231 23.1652 36.6295 22.8514 36.8509C22.7649 36.9112 22.6805 36.9083 22.5931 36.842C22.5723 36.8307 22.5516 36.8194 22.5311 36.8029C22.5105 36.7863 22.4954 36.7647 22.4754 36.7323ZM23.0429 35.7384C23.0165 35.7375 23.0005 35.7422 22.9896 35.7524L22.9624 35.7778C22.8973 35.8284 22.8476 35.89 22.8033 35.9518C22.7589 36.0136 22.7196 36.0809 22.6803 36.1482C22.6353 36.2311 22.5956 36.3089 22.5613 36.3869C22.5267 36.4702 22.5027 36.5538 22.4943 36.6432C22.494 36.6538 22.4882 36.6694 22.4878 36.68C22.4874 36.6905 22.4923 36.7012 22.5027 36.7069C22.5234 36.7182 22.5445 36.7189 22.5661 36.7038C22.5985 36.6838 22.6256 36.6636 22.6583 36.6331C22.7891 36.5162 22.8834 36.3822 22.9414 36.2311C22.9942 36.0798 23.0262 35.9173 23.0429 35.7384Z" fill="black"/>
<path d="M14.8495 32.1075C14.8495 32.1075 12.4498 29.2824 14.0597 26.6093C15.6393 23.9362 19.2845 23.6021 21.2589 25.5158C23.2334 27.4295 23.0511 31.1658 20.5906 32.5023C18.0998 33.8997 16.5202 33.3529 14.8495 32.1075Z" fill="white"/>
<path d="M14.8191 32.1378C14.4546 31.6518 14.1508 31.1354 13.9078 30.5886C13.6648 30.0418 13.4825 29.4647 13.4217 28.8571C13.361 28.2496 13.4217 27.6421 13.6344 27.0346C13.8774 26.4574 14.2115 25.941 14.6368 25.4854C15.5177 24.6044 16.7328 24.0577 17.9782 23.9969C19.2236 23.9362 20.5298 24.3614 21.4715 25.2423C22.4132 26.1233 22.9296 27.3991 22.9903 28.6749C23.0207 29.3128 22.9296 29.9811 22.6865 30.5886C22.4739 31.1961 22.079 31.7733 21.6234 32.2289L21.2285 32.5327L20.8032 32.7757C20.5298 32.9276 20.2261 33.0491 19.9527 33.1402C19.3755 33.3528 18.7376 33.4743 18.0997 33.4743C17.4618 33.444 16.8543 33.2921 16.3075 33.0187C15.7911 32.8364 15.3051 32.5327 14.8191 32.1378ZM14.8798 32.077C15.3658 32.4112 15.8822 32.7149 16.429 32.8972C16.9758 33.0795 17.5529 33.1402 18.0997 33.0795C18.6465 32.9883 19.1933 32.8061 19.6793 32.5327C19.9223 32.4112 20.1957 32.2593 20.4083 32.1074L20.7425 31.8948L21.0158 31.6214C21.7449 30.862 22.1398 29.7988 22.1398 28.7356C22.1398 27.6421 21.7449 26.5485 20.9855 25.7891C20.2261 25.0297 19.1021 24.6044 18.0086 24.6044C16.8847 24.6348 15.7607 25.0601 14.9406 25.8195C14.5457 26.2144 14.1812 26.67 13.9381 27.1864C13.6951 27.7028 13.604 28.28 13.604 28.8571C13.6648 30.0418 14.1508 31.1961 14.8798 32.077Z" fill="black"/>
<path d="M17.2173 28.8098L17.2977 28.9832C17.3215 29.0428 17.3498 29.0997 17.3754 29.152C17.3927 29.1909 17.4074 29.2252 17.4238 29.2523C17.4402 29.2793 17.4548 29.3136 17.4712 29.3407C17.4941 29.3886 17.5024 29.4329 17.499 29.4781C17.4956 29.5234 17.4849 29.5668 17.4715 29.6058C17.4644 29.6348 17.4491 29.6502 17.431 29.6612C17.413 29.6721 17.3922 29.6785 17.3687 29.6805C17.2674 29.6863 17.1759 29.6677 17.0925 29.6319C17.0091 29.5961 16.9428 29.5376 16.8881 29.4474C16.8371 29.3734 16.7951 29.294 16.7604 29.2163C16.7257 29.1386 16.6927 29.0537 16.6598 28.9688C16.6461 28.9463 16.6324 28.9237 16.617 28.9084C16.6015 28.8931 16.5816 28.8805 16.5526 28.8734C16.5119 28.8672 16.4729 28.8538 16.4429 28.835C16.4085 28.8188 16.3758 28.7955 16.3431 28.7721C16.3187 28.7622 16.3005 28.7424 16.2913 28.7171C16.2849 28.6963 16.283 28.6728 16.2956 28.6529C16.3081 28.6329 16.3289 28.6265 16.3524 28.6246C16.3714 28.6254 16.3977 28.628 16.4384 28.6341C16.4991 28.6529 16.5162 28.6302 16.497 28.5678C16.463 28.4712 16.4336 28.3718 16.397 28.2706C16.3631 28.1739 16.3337 28.0745 16.2971 27.9734C16.2485 27.8424 16.2072 27.7132 16.1722 27.574C16.14 27.4393 16.1032 27.3074 16.0682 27.1682C16.0536 27.1339 16.0435 27.0969 16.0333 27.0598C16.026 27.0273 16.0131 26.9857 16.0002 26.9441C15.9652 27.0085 15.9393 27.0675 15.9133 27.1264C15.8901 27.1898 15.8686 27.246 15.8499 27.3067C15.8151 27.4326 15.7922 27.5576 15.7809 27.6816C15.7697 27.8056 15.7775 27.9304 15.8043 28.0561C15.8062 28.0796 15.7999 28.0896 15.7819 28.1005C15.7548 28.1169 15.7286 28.1143 15.6986 28.0955C15.5908 28.0498 15.5225 27.9678 15.4949 27.8611C15.4525 27.6894 15.4427 27.5103 15.4799 27.3274C15.5349 27.072 15.6252 26.8445 15.7501 26.6331C15.8704 26.4245 16.0351 26.2382 16.2388 26.0654C16.3299 25.9917 16.4219 25.9298 16.5266 25.8787C16.6268 25.8303 16.7353 25.7954 16.8509 25.7623C17.0877 25.7052 17.3104 25.7368 17.5254 25.8471C17.7285 25.9584 17.8839 26.0925 17.9968 26.2585C18.1097 26.4245 18.173 26.6205 18.1912 26.8439C18.239 27.4318 18.0694 27.9356 17.6786 28.3699C17.6507 28.4053 17.6156 28.4389 17.5714 28.478C17.5779 28.4988 17.5906 28.5096 17.6068 28.5059C17.6213 28.5095 17.6376 28.5058 17.6521 28.5093C17.7653 28.5332 17.8785 28.5572 17.9872 28.5838C18.0941 28.6177 18.2046 28.6372 18.3241 28.6511C18.4156 28.6697 18.5043 28.6838 18.5903 28.6933C18.6763 28.7029 18.7668 28.7098 18.8608 28.7021C18.8799 28.7029 18.9061 28.7055 18.9296 28.7036C18.9531 28.7017 18.9686 28.717 18.9823 28.7396C19.0115 28.8082 19.0063 28.8607 18.9631 28.9116C18.9164 28.9769 18.8659 29.026 18.8027 29.0643C18.7396 29.1025 18.6755 29.1291 18.5959 29.1403C18.3129 29.1823 18.0404 29.15 17.7847 29.0335C17.6896 28.9986 17.5989 28.961 17.5038 28.9262C17.4113 28.8958 17.3225 28.851 17.2354 28.7989L17.2173 28.8098ZM16.0136 26.9052C16.0787 26.8904 16.1285 26.8911 16.1702 26.909C16.2146 26.9314 16.25 26.9593 16.2837 26.9944C16.2946 27.0125 16.3128 27.0323 16.3237 27.0504C16.3347 27.0684 16.3501 27.0837 16.3611 27.1018C16.3966 27.1604 16.4321 27.2191 16.465 27.2732C16.4933 27.3301 16.5243 27.3915 16.5553 27.4529C16.6229 27.5847 16.6859 27.7192 16.7534 27.851C16.821 27.9828 16.884 28.1173 16.9515 28.2491C16.9552 28.2654 16.9634 28.2789 16.9689 28.288C16.9771 28.3015 16.9898 28.3123 17.0043 28.3159C17.1162 28.2357 17.2188 28.1303 17.3033 28.0051C17.4463 27.8135 17.5549 27.6059 17.6317 27.3866C17.7041 27.17 17.7374 26.94 17.7291 26.6922C17.7283 26.5076 17.6732 26.3251 17.5693 26.1536C17.4673 26.0057 17.3322 25.9457 17.1622 25.9808C17.1342 25.9855 17.1134 25.9919 17.0899 25.9938C16.9625 26.0278 16.8478 26.0727 16.7368 26.1338C16.6285 26.1994 16.5257 26.2741 16.4311 26.3623C16.2679 26.5105 16.1312 26.692 16.0136 26.9052ZM18.9328 27.5419C18.9968 27.6882 19.058 27.83 19.1211 27.9645C19.1841 28.099 19.2606 28.2254 19.3462 28.3462C19.3836 28.3976 19.3846 28.4402 19.3595 28.4801C19.3371 28.5245 19.2965 28.5491 19.244 28.5439C19.1589 28.5461 19.0937 28.5301 19.0366 28.4969C18.9794 28.4637 18.9303 28.4132 18.8893 28.3456C18.8483 28.2779 18.8118 28.2075 18.7798 28.1343C18.7505 28.0657 18.7185 27.9925 18.6883 27.9121C18.6298 27.7749 18.5785 27.6394 18.539 27.5029C18.4995 27.3665 18.4618 27.2228 18.4358 27.0782C18.421 27.0131 18.399 26.9462 18.377 26.8794C18.3532 26.8197 18.3312 26.7529 18.3137 26.6833C18.3082 26.6743 18.3073 26.6625 18.3018 26.6535C18.2964 26.6445 18.2909 26.6354 18.2944 26.621C18.2871 26.5884 18.2969 26.5639 18.3357 26.5466C18.4143 26.5236 18.485 26.5486 18.5433 26.6244C18.5515 26.6379 18.5597 26.6514 18.5651 26.6605C18.5734 26.674 18.5861 26.6848 18.6006 26.6884C18.6086 26.6711 18.6122 26.6566 18.613 26.6376C18.6138 26.6186 18.6146 26.5996 18.62 26.5779C18.6208 26.5589 18.6261 26.5371 18.6315 26.5154C18.6323 26.4964 18.6376 26.4747 18.6447 26.4457C18.667 26.3705 18.7102 26.3196 18.7761 26.2859C18.8402 26.2593 18.909 26.2608 18.9869 26.2876C19.0259 26.301 19.0631 26.3217 19.0912 26.3478C19.1221 26.3784 19.1458 26.4073 19.174 26.4334C19.4097 26.7409 19.4537 27.0782 19.3123 27.4353C19.2729 27.5332 19.2008 27.5769 19.0912 27.5693C19.0677 27.5712 19.0442 27.5731 19.018 27.5705C18.9917 27.5679 18.9672 27.558 18.9328 27.5419ZM18.8635 26.3995C18.8409 26.4131 18.8301 26.4259 18.8266 26.4404L18.8177 26.4766C18.7909 26.5545 18.7831 26.6333 18.7798 26.7093C18.7765 26.7853 18.7805 26.8631 18.7844 26.9409C18.7921 27.0349 18.8015 27.1218 18.8155 27.2058C18.8322 27.2944 18.8579 27.3776 18.8998 27.457C18.9053 27.466 18.909 27.4823 18.9145 27.4913C18.9199 27.5003 18.9299 27.5066 18.9417 27.5057C18.9652 27.5038 18.9832 27.4928 18.9931 27.4684C19.0092 27.4339 19.0208 27.4022 19.0315 27.3587C19.0769 27.1893 19.0825 27.0255 19.0483 26.8673C19.0096 26.7119 18.9474 26.5583 18.8635 26.3995Z" fill="black"/>
<path d="M25.8143 40.6131C25.8143 40.6131 23.4146 37.7881 25.0246 35.1149C26.6041 32.4418 30.2493 32.1077 32.2238 34.0214C34.1982 35.9351 34.016 39.6714 31.5555 41.008C29.095 42.3445 27.4851 41.8281 25.8143 40.6131Z" fill="white"/>
<path d="M25.7839 40.6429C25.4194 40.1569 25.1156 39.6405 24.8726 39.0937C24.6296 38.5469 24.4473 37.9698 24.3866 37.3623C24.3258 36.7547 24.3866 36.1472 24.5992 35.5397C24.8422 34.9625 25.1764 34.4461 25.6016 33.9905C26.4826 33.1096 27.6976 32.5628 28.943 32.502C30.1885 32.4413 31.4947 32.8666 32.4363 33.7475C33.378 34.6284 33.8944 35.9042 33.9552 37.18C33.9855 37.8179 33.8944 38.4862 33.6514 39.0937C33.4388 39.7012 33.0439 40.2784 32.5882 40.734L32.1933 41.0378L31.768 41.2808C31.4947 41.4327 31.1909 41.5542 30.9175 41.6453C30.3404 41.858 29.7024 41.9795 29.0645 41.9795C28.4266 41.9491 27.8191 41.7972 27.2723 41.5238C26.7559 41.3416 26.2699 41.0074 25.7839 40.6429ZM25.8446 40.5822C26.3307 40.9163 26.8471 41.2201 27.3938 41.4023C27.9406 41.5846 28.5178 41.6453 29.0645 41.5846C29.6113 41.4935 30.1581 41.3112 30.6441 41.0378C30.8871 40.9163 31.1605 40.7644 31.3732 40.6125L31.7073 40.3999L31.9807 40.1265C32.7097 39.3671 33.1046 38.3039 33.1046 37.2408C33.1046 36.1472 32.7097 35.0537 31.9503 34.2942C31.1909 33.5348 30.067 33.1096 28.9734 33.1096C27.8495 33.1399 26.7256 33.5652 25.9054 34.3246C25.5105 34.7195 25.146 35.1752 24.903 35.6916C24.66 36.208 24.5688 36.7851 24.5688 37.3623C24.5992 38.5166 25.1156 39.6709 25.8446 40.5822Z" fill="black"/>
<path d="M28.1705 37.2901L28.2508 37.4634C28.2746 37.523 28.3029 37.5799 28.3285 37.6323C28.3459 37.6711 28.3605 37.7054 28.3769 37.7325C28.3933 37.7595 28.4079 37.7939 28.4243 37.8209C28.4472 37.8688 28.4555 37.9131 28.4521 37.9583C28.4487 38.0036 28.438 38.0471 28.4246 38.086C28.4175 38.115 28.4022 38.1305 28.3841 38.1414C28.3661 38.1523 28.3453 38.1588 28.3218 38.1607C28.2205 38.1666 28.129 38.148 28.0456 38.1122C27.9622 38.0763 27.8959 38.0178 27.8412 37.9276C27.7902 37.8536 27.7483 37.7742 27.7135 37.6965C27.6788 37.6189 27.6459 37.534 27.6129 37.4491C27.5992 37.4265 27.5856 37.4039 27.5701 37.3886C27.5547 37.3733 27.5347 37.3607 27.5057 37.3536C27.465 37.3475 27.426 37.3341 27.3961 37.3152C27.3616 37.2991 27.3289 37.2757 27.2963 37.2523C27.2718 37.2425 27.2536 37.2226 27.2444 37.1974C27.238 37.1766 27.2361 37.1531 27.2487 37.1331C27.2613 37.1131 27.282 37.1067 27.3056 37.1048C27.3246 37.1056 27.3508 37.1082 27.3916 37.1144C27.4523 37.1331 27.4694 37.1104 27.4501 37.0481C27.4162 36.9514 27.3868 36.852 27.3501 36.7508C27.3162 36.6542 27.2868 36.5548 27.2502 36.4536C27.2017 36.3226 27.1604 36.1934 27.1254 36.0542C27.0931 35.9196 27.0563 35.7876 27.0213 35.6484C27.0067 35.6141 26.9966 35.5771 26.9865 35.54C26.9791 35.5075 26.9662 35.4659 26.9534 35.4244C26.9184 35.4888 26.8924 35.5477 26.8664 35.6066C26.8432 35.67 26.8217 35.7262 26.803 35.7869C26.7683 35.9129 26.7453 36.0378 26.7341 36.1618C26.7229 36.2858 26.7307 36.4107 26.7574 36.5363C26.7594 36.5598 26.7531 36.5698 26.735 36.5807C26.708 36.5971 26.6817 36.5945 26.6518 36.5757C26.5439 36.53 26.4757 36.448 26.4481 36.3413C26.4057 36.1696 26.3958 35.9905 26.433 35.8076C26.488 35.5522 26.5783 35.3247 26.7032 35.1133C26.8235 34.9047 26.9882 34.7185 27.192 34.5457C27.283 34.472 27.375 34.41 27.4798 34.3589C27.58 34.3105 27.6884 34.2756 27.8041 34.2425C28.0409 34.1854 28.2636 34.217 28.4785 34.3273C28.6817 34.4386 28.837 34.5727 28.9499 34.7387C29.0628 34.9047 29.1261 35.1007 29.1443 35.3241C29.1922 35.912 29.0225 36.4159 28.6318 36.8501C28.6039 36.8855 28.5687 36.9191 28.5246 36.9582C28.531 36.979 28.5437 36.9898 28.56 36.9861C28.5745 36.9897 28.5907 36.986 28.6052 36.9895C28.7184 37.0135 28.8316 37.0374 28.9403 37.0641C29.0472 37.098 29.1577 37.1174 29.2772 37.1313C29.3687 37.1499 29.4574 37.164 29.5434 37.1736C29.6294 37.1831 29.7199 37.19 29.814 37.1823C29.833 37.1831 29.8592 37.1857 29.8827 37.1838C29.9063 37.1819 29.9217 37.1972 29.9354 37.2198C29.9646 37.2884 29.9594 37.3409 29.9162 37.3918C29.8695 37.4571 29.819 37.5062 29.7559 37.5445C29.6927 37.5828 29.6286 37.6093 29.549 37.6205C29.266 37.6625 28.9935 37.6302 28.7378 37.5137C28.6427 37.4789 28.552 37.4413 28.4569 37.4064C28.3645 37.376 28.2756 37.3312 28.1885 37.2791L28.1705 37.2901ZM26.9668 35.3854C27.0319 35.3706 27.0816 35.3713 27.1233 35.3892C27.1678 35.4116 27.2032 35.4395 27.2368 35.4747C27.2477 35.4927 27.2659 35.5125 27.2769 35.5306C27.2878 35.5486 27.3032 35.564 27.3142 35.582C27.3497 35.6407 27.3853 35.6993 27.4181 35.7534C27.4464 35.8103 27.4774 35.8717 27.5085 35.9331C27.576 36.0649 27.639 36.1994 27.7066 36.3312C27.7741 36.463 27.8371 36.5976 27.9047 36.7294C27.9084 36.7456 27.9166 36.7592 27.922 36.7682C27.9302 36.7817 27.943 36.7925 27.9574 36.7961C28.0693 36.716 28.172 36.6105 28.2565 36.4853C28.3995 36.2938 28.508 36.0861 28.5849 35.8668C28.6572 35.6502 28.6905 35.4203 28.6822 35.1724C28.6814 34.9878 28.6263 34.8053 28.5224 34.6338C28.4204 34.4859 28.2853 34.4259 28.1154 34.461C28.0873 34.4657 28.0666 34.4721 28.043 34.474C27.9156 34.5081 27.8009 34.5529 27.6899 34.614C27.5816 34.6796 27.4788 34.7543 27.3842 34.8425C27.2211 34.9907 27.0844 35.1722 26.9668 35.3854ZM29.8859 36.0221C29.9499 36.1684 30.0111 36.3102 30.0742 36.4447C30.1372 36.5793 30.2138 36.7056 30.2994 36.8265C30.3367 36.8779 30.3378 36.9204 30.3126 36.9603C30.2902 37.0047 30.2496 37.0294 30.1971 37.0242C30.112 37.0263 30.0468 37.0104 29.9897 36.9771C29.9325 36.9439 29.8834 36.8935 29.8424 36.8258C29.8014 36.7581 29.7649 36.6877 29.7329 36.6145C29.7037 36.5459 29.6717 36.4728 29.6415 36.3924C29.5829 36.2551 29.5317 36.1196 29.4922 35.9832C29.4526 35.8467 29.4149 35.703 29.3889 35.5584C29.3742 35.4933 29.3522 35.4264 29.3301 35.3596C29.3064 35.3 29.2843 35.2331 29.2668 35.1635C29.2614 35.1545 29.2604 35.1427 29.2549 35.1337C29.2495 35.1247 29.244 35.1157 29.2476 35.1012C29.2402 35.0686 29.25 35.0442 29.2889 35.0268C29.3675 35.0038 29.4382 35.0289 29.4964 35.1046C29.5046 35.1181 29.5128 35.1317 29.5183 35.1407C29.5265 35.1542 29.5392 35.165 29.5537 35.1686C29.5617 35.1514 29.5653 35.1369 29.5661 35.1179C29.5669 35.0989 29.5678 35.0799 29.5731 35.0581C29.5739 35.0391 29.5793 35.0174 29.5846 34.9956C29.5854 34.9766 29.5907 34.9549 29.5978 34.9259C29.6201 34.8507 29.6633 34.7999 29.7292 34.7661C29.7934 34.7396 29.8621 34.7411 29.9401 34.7679C29.979 34.7813 30.0162 34.8019 30.0444 34.828C30.0753 34.8586 30.0989 34.8875 30.1271 34.9136C30.3628 35.2211 30.4068 35.5584 30.2654 35.9155C30.2261 36.0134 30.1539 36.0571 30.0444 36.0495C30.0209 36.0514 29.9973 36.0533 29.9711 36.0507C29.9448 36.0481 29.9204 36.0383 29.8859 36.0221ZM29.8166 34.8797C29.794 34.8934 29.7832 34.9061 29.7797 34.9206L29.7708 34.9568C29.744 35.0347 29.7362 35.1135 29.7329 35.1895C29.7296 35.2655 29.7336 35.3433 29.7376 35.4211C29.7452 35.5152 29.7547 35.602 29.7686 35.6861C29.7853 35.7747 29.811 35.8578 29.853 35.9372C29.8584 35.9463 29.8621 35.9625 29.8676 35.9715C29.8731 35.9806 29.883 35.9869 29.8948 35.9859C29.9183 35.984 29.9364 35.9731 29.9462 35.9486C29.9623 35.9141 29.974 35.8824 29.9846 35.8389C30.03 35.6695 30.0356 35.5057 30.0014 35.3476C29.9628 35.1921 29.9005 35.0386 29.8166 34.8797Z" fill="black"/>
<path d="M49.7512 36.7852C49.7512 36.7852 48.4754 35.2057 47.4122 34.8108C46.349 34.4159 42.795 34.7196 38.6334 36.7852C34.4719 38.8812 23.4148 43.8326 19.1014 43.225C16.5802 42.6782 16.5802 43.3769 16.7624 43.6807C16.975 43.9844 27.3942 55.4363 28.427 55.9224C29.4598 56.4084 38.6942 55.3148 44.8606 51.3659C51.027 47.3866 58.1655 47.2347 58.9552 46.9917C59.745 46.7791 49.7512 36.7852 49.7512 36.7852Z" fill="#425F2C"/>
<path d="M38.6638 36.8461C37.1146 37.6359 35.5654 38.3649 33.9858 39.0939C32.4063 39.7926 30.8267 40.4912 29.1864 41.0988C27.5764 41.7367 25.9361 42.3138 24.2654 42.7695C23.4149 43.0125 22.5947 43.2251 21.7138 43.3466C20.8633 43.4985 19.952 43.5896 19.071 43.4681C18.5546 43.377 18.0079 43.2859 17.5218 43.2859C17.4611 43.2859 17.4003 43.2859 17.3396 43.2859C17.2788 43.2859 17.2181 43.3163 17.1877 43.3163C17.0966 43.3466 17.0055 43.377 17.0055 43.4074C17.0055 43.4074 17.0055 43.4074 17.0055 43.4378C17.0055 43.4681 17.0054 43.4681 17.0358 43.4985C17.0358 43.4985 17.0662 43.5289 17.0662 43.5593L17.1269 43.62L17.2485 43.7719C17.9775 44.5617 18.7065 45.3818 19.4356 46.1716C20.8936 47.7512 22.3821 49.3308 23.8705 50.9104C24.6299 51.7001 25.359 52.4595 26.1184 53.2493C26.5133 53.6442 26.8778 54.0087 27.2727 54.3733C27.6676 54.7378 28.0625 55.1327 28.427 55.4364C28.5485 55.5276 28.5789 55.5579 28.6396 55.5579C28.67 55.5579 28.7307 55.5883 28.7915 55.5883L28.9737 55.6187C29.2168 55.6187 29.4901 55.6187 29.7332 55.6187C30.2496 55.5883 30.7963 55.5276 31.3127 55.4668C32.3759 55.3149 33.4087 55.1327 34.4719 54.8897C35.5047 54.6467 36.5375 54.3733 37.5703 54.0695C38.6031 53.7657 39.6055 53.4012 40.6079 53.0063C41.5799 52.6114 42.552 52.1558 43.4937 51.6698C43.7367 51.5483 43.9493 51.4267 44.1923 51.2749L44.891 50.8496C45.377 50.5762 45.8326 50.2724 46.349 50.0598L47.0781 49.6953L47.8375 49.3612C48.3235 49.1181 48.8703 48.9663 49.3563 48.7536C50.3891 48.4195 51.4523 48.0853 52.5155 47.8423C53.5786 47.5993 54.6418 47.3867 55.7354 47.2652C56.2821 47.2044 56.8289 47.1437 57.3453 47.0829C57.8921 47.0222 58.4389 47.0222 58.9553 46.931L58.9856 47.0222C58.4388 47.1437 57.9225 47.2044 57.3757 47.2956C56.8289 47.3867 56.3125 47.4778 55.7657 47.5689C54.7026 47.7816 53.6698 48.0246 52.637 48.3284C50.5714 48.9055 48.5665 49.6953 46.7136 50.7281C46.2275 50.9711 45.8023 51.2749 45.3466 51.5483L44.648 51.9735C44.405 52.1254 44.1619 52.2469 43.9493 52.3988C42.9773 52.9456 42.0052 53.4316 40.9724 53.8569C38.9372 54.7074 36.8412 55.3149 34.6845 55.7706C33.6213 55.9832 32.5278 56.1655 31.4342 56.287C30.8875 56.3477 30.3407 56.3781 29.7939 56.4085C29.5205 56.4085 29.2168 56.4085 28.9434 56.3781C28.7915 56.3477 28.6396 56.3477 28.4573 56.287C28.3966 56.2566 28.3662 56.2566 28.3055 56.2262L28.184 56.1351C28.0928 56.0743 28.0624 56.044 28.0017 55.9832C27.546 55.6187 27.1815 55.2238 26.7866 54.8289C26.3917 54.434 26.0272 54.0391 25.6627 53.6442C24.9033 52.8544 24.1743 52.0647 23.4452 51.2749C21.9568 49.6953 20.4987 48.0853 19.071 46.4754C18.342 45.6552 17.613 44.8654 16.9143 44.0453L16.7928 43.8934L16.7321 43.8023C16.7017 43.7719 16.6713 43.7415 16.6409 43.6808C16.5802 43.5896 16.5498 43.4985 16.5498 43.377C16.5498 43.2555 16.5802 43.134 16.6409 43.0125C16.7928 42.7999 16.9751 42.7695 17.1269 42.7087C17.2181 42.6783 17.2788 42.6783 17.37 42.6783C17.4611 42.6783 17.5218 42.6783 17.5826 42.6783C18.1597 42.6783 18.7065 42.7695 19.2533 42.891H19.2229C20.0431 42.9821 20.8936 42.9214 21.7442 42.7999C22.5947 42.6783 23.4149 42.4961 24.2654 42.2835C25.9361 41.8582 27.5764 41.3114 29.1864 40.7039C30.7963 40.1267 32.4063 39.4584 34.0162 38.7902C35.5958 38.1219 37.1754 37.3929 38.7246 36.6638L38.6638 36.8461Z" fill="black"/>
<path d="M49.2659 36.178C50.1165 36.9374 50.9366 37.6968 51.7568 38.4562L54.1869 40.7952C54.9767 41.585 55.8576 42.314 56.5563 43.1949C56.9208 43.6202 57.2549 44.0758 57.5891 44.5315C57.9232 44.9871 58.227 45.4732 58.47 46.0199L58.4092 46.0807C57.5283 45.3517 56.7082 44.6226 55.888 43.8328C55.0678 43.043 54.3995 42.1621 53.6401 41.3116L51.3923 38.7903L49.1748 36.2387L49.2659 36.178Z" fill="black"/>
<path d="M24.9321 41.9188C25.1448 42.6478 25.2359 43.4072 25.2359 44.1667C25.2359 44.9261 25.084 45.6855 24.7802 46.4145C24.4765 47.1435 23.9904 47.8422 23.2918 48.2371C22.5931 48.6624 21.8337 48.8446 21.0439 48.8143V48.7535C21.7426 48.4497 22.3805 48.146 22.9577 47.7207C23.5044 47.2954 24.0208 46.8094 24.3246 46.1715C24.6587 45.5336 24.841 44.8349 24.9018 44.1059C24.9929 43.3769 24.9625 42.6478 24.841 41.8884L24.9321 41.9188Z" fill="#231F20"/>
<path d="M51.1487 38.6685C50.4197 38.8811 49.6603 38.9722 48.9008 38.9722C48.1414 38.9722 47.382 38.8203 46.653 38.5166C45.924 38.2128 45.2253 37.7268 44.8304 37.0281C44.4051 36.3295 44.2229 35.5701 44.2532 34.7803H44.314C44.6178 35.4789 44.9215 36.1168 45.3468 36.694C45.7721 37.2408 46.2581 37.7572 46.896 38.0609C47.5339 38.3951 48.2326 38.5773 48.9616 38.6381C49.6906 38.7292 50.4197 38.6988 51.1791 38.5773L51.1487 38.6685Z" fill="#231F20"/>
<path d="M52.7889 48.0853C52.6066 47.5082 52.5459 46.9006 52.5459 46.2931C52.5459 45.6856 52.637 45.078 52.88 44.4705C53.123 43.8934 53.4876 43.3162 54.0647 42.9821C54.6115 42.6479 55.2494 42.4961 55.8873 42.5568V42.6176C55.3405 42.8909 54.8241 43.134 54.3989 43.4681C53.9736 43.8022 53.5787 44.1668 53.3053 44.6528C53.0319 45.1388 52.88 45.716 52.8193 46.2931C52.7585 46.8703 52.7585 47.4474 52.8193 48.0549L52.7889 48.0853Z" fill="#231F20"/>
<path d="M25.8438 52.1861C26.4209 52.0039 27.0284 51.9431 27.636 51.9431C28.2435 51.9431 28.851 52.0342 29.4585 52.2773C30.0357 52.5203 30.6128 52.8848 30.947 53.4619C31.2811 54.0087 31.433 54.6466 31.3723 55.2845H31.3115C31.0381 54.7377 30.7951 54.2213 30.461 53.7961C30.1268 53.3708 29.7623 52.9759 29.2763 52.7025C28.7903 52.4291 28.2131 52.2773 27.636 52.2165C27.0588 52.1557 26.4816 52.1557 25.8741 52.2165L25.8438 52.1861Z" fill="#231F20"/>
<path d="M49.7512 34.0513C49.7512 34.0513 48.4754 32.4718 47.4122 32.0769C46.3794 31.682 42.795 31.9857 38.6334 34.0513C34.4719 36.1169 23.4148 41.0987 19.1014 40.4911C16.5802 39.9444 16.5802 40.643 16.7624 40.9468C16.975 41.2506 27.3942 52.7025 28.427 53.1885C29.4598 53.6745 38.6942 52.5809 44.8606 48.632C51.027 44.6527 58.1655 44.5008 58.9552 44.2578C59.745 44.0452 49.7512 34.0513 49.7512 34.0513Z" fill="#5D833A"/>
<path d="M38.6638 34.1119C37.1146 34.9017 35.5654 35.6308 33.9858 36.3598C32.4063 37.0585 30.8267 37.7571 29.1864 38.3646C27.5764 39.0025 25.9361 39.5797 24.2654 40.0353C23.4149 40.2784 22.5947 40.491 21.7138 40.6125C20.8633 40.7644 19.952 40.8555 19.071 40.734C18.5546 40.6429 18.0079 40.5517 17.5218 40.5517C17.4611 40.5517 17.4003 40.5517 17.3396 40.5517C17.2788 40.5517 17.2181 40.5821 17.1877 40.5821C17.0966 40.6125 17.0055 40.6429 17.0055 40.6732C17.0055 40.6732 17.0055 40.6732 17.0055 40.7036C17.0055 40.734 17.0054 40.734 17.0358 40.7644C17.0358 40.7644 17.0662 40.7948 17.0662 40.8251L17.1269 40.8859L17.2485 41.0378C17.9775 41.8276 18.7065 42.6477 19.4356 43.4375C20.8936 45.0171 22.3821 46.5967 23.8705 48.1762C24.6299 48.966 25.359 49.7254 26.1184 50.5152C26.5133 50.9101 26.8778 51.2746 27.2727 51.6391C27.6676 52.0036 28.0625 52.3985 28.427 52.7023C28.5485 52.7934 28.5789 52.8238 28.6396 52.8238C28.67 52.8238 28.7307 52.8542 28.7915 52.8542L28.9737 52.8846C29.2168 52.8846 29.4901 52.8846 29.7332 52.8846C30.2496 52.8542 30.7963 52.7934 31.3127 52.7327C32.3759 52.5808 33.4087 52.3985 34.4719 52.1555C35.5047 51.9125 36.5375 51.6391 37.5703 51.3354C38.6031 51.0316 39.6055 50.6671 40.6079 50.2722C41.5799 49.8773 42.552 49.4217 43.4937 48.9356C43.7367 48.8141 43.9493 48.6926 44.1923 48.5407L44.891 48.1155C45.377 47.8421 45.8326 47.5383 46.349 47.3257L47.0781 46.9612L47.8375 46.627C48.3235 46.384 48.8703 46.2321 49.3563 46.0195C50.3891 45.6854 51.4523 45.3512 52.5155 45.1082C53.5786 44.8652 54.6418 44.6526 55.7354 44.5311C56.2821 44.4703 56.8289 44.4095 57.3453 44.3488C57.8921 44.288 58.4389 44.288 58.9553 44.1969L58.9856 44.288C58.4388 44.4095 57.9225 44.4703 57.3757 44.5614C56.8289 44.6526 56.3125 44.7437 55.7657 44.8348C54.7026 45.0475 53.6698 45.2905 52.637 45.5942C50.5714 46.1714 48.5665 46.9612 46.7136 47.994C46.2275 48.237 45.8023 48.5407 45.3466 48.8141L44.648 49.2394C44.405 49.3913 44.1619 49.5128 43.9493 49.6647C42.9773 50.2114 42.0052 50.6975 40.9724 51.1227C38.9372 51.9733 36.8412 52.5808 34.6845 53.0364C33.6213 53.2491 32.5278 53.4313 31.4342 53.5528C30.8875 53.6136 30.3407 53.644 29.7939 53.6744C29.5205 53.6744 29.2168 53.6744 28.9434 53.644C28.7915 53.6136 28.6396 53.6136 28.4573 53.5528C28.3966 53.5225 28.3662 53.5225 28.3055 53.4921L28.184 53.401C28.0928 53.3402 28.0624 53.3098 28.0017 53.2491C27.546 52.8846 27.1815 52.4897 26.7866 52.0948C26.3917 51.6999 26.0272 51.305 25.6627 50.9101C24.9033 50.1203 24.1743 49.3305 23.4452 48.5407C21.9568 46.9612 20.4987 45.3512 19.071 43.7413C18.342 42.9211 17.613 42.1313 16.9143 41.3112L16.7928 41.1593L16.7321 41.0681C16.7017 41.0378 16.6713 41.0074 16.6409 40.9466C16.5802 40.8555 16.5498 40.7644 16.5498 40.6429C16.5498 40.5214 16.5802 40.3999 16.6409 40.2784C16.7928 40.0657 16.9751 40.0353 17.1269 39.9746C17.2181 39.9442 17.2788 39.9442 17.37 39.9442C17.4611 39.9442 17.5218 39.9442 17.5826 39.9442C18.1597 39.9442 18.7065 40.0353 19.2533 40.1568H19.2229C20.0431 40.248 20.8936 40.1872 21.7442 40.0657C22.5947 39.9442 23.4149 39.762 24.2654 39.5493C25.9361 39.1241 27.5764 38.5773 29.1864 37.9697C30.7963 37.3926 32.4063 36.7243 34.0162 36.056C35.5958 35.3878 37.1754 34.6587 38.7246 33.9297L38.6638 34.1119Z" fill="black"/>
<path d="M49.2659 33.4441C50.1165 34.2035 50.9366 34.9629 51.7568 35.7223L54.1869 38.0613C54.9767 38.8511 55.8576 39.5801 56.5563 40.461C56.9208 40.8863 57.2549 41.342 57.5891 41.7976C57.9232 42.2532 58.227 42.7393 58.47 43.286L58.4092 43.3468C57.5283 42.6178 56.7082 41.8887 55.888 41.0989C55.0678 40.3092 54.3995 39.4282 53.6401 38.5777L51.3923 36.0565L49.1748 33.5048L49.2659 33.4441Z" fill="black"/>
<path d="M24.9321 39.1852C25.1448 39.9142 25.2359 40.6736 25.2359 41.433C25.2359 42.1924 25.084 42.9518 24.7802 43.6809C24.4765 44.4099 23.9904 45.1086 23.2918 45.5035C22.5931 45.9287 21.8337 46.111 21.0439 46.0806V46.0199C21.7426 45.7161 22.3805 45.4123 22.9577 44.9871C23.5044 44.5618 24.0208 44.0758 24.3246 43.4379C24.6587 42.8 24.841 42.1013 24.9018 41.3723C24.9929 40.6432 24.9625 39.9142 24.841 39.1548L24.9321 39.1852Z" fill="#231F20"/>
<path d="M51.1487 35.9348C50.4197 36.1474 49.6603 36.2386 48.9008 36.2386C48.1414 36.2386 47.382 36.0867 46.653 35.7829C45.924 35.4792 45.2253 34.9931 44.8304 34.2945C44.4051 33.5958 44.2229 32.8364 44.2532 32.0466H44.314C44.6178 32.7453 44.9215 33.3832 45.3468 33.9603C45.7721 34.5071 46.2581 35.0235 46.896 35.3273C47.5339 35.6614 48.2326 35.8437 48.9616 35.9044C49.6906 35.9956 50.4197 35.9652 51.1791 35.8437L51.1487 35.9348Z" fill="#231F20"/>
<path d="M52.7889 45.3522C52.6066 44.775 52.5459 44.1675 52.5459 43.5599C52.5459 42.9524 52.637 42.3449 52.88 41.7374C53.123 41.1602 53.4876 40.5831 54.0647 40.2489C54.6115 39.9148 55.2494 39.7629 55.8873 39.8237V39.8844C55.3405 40.1578 54.8241 40.4008 54.3989 40.7349C53.9736 41.0691 53.5787 41.4336 53.3053 41.9196C53.0319 42.4056 52.88 42.9828 52.8193 43.5599C52.7585 44.1371 52.7585 44.7143 52.8193 45.3218L52.7889 45.3522Z" fill="#231F20"/>
<path d="M25.8438 49.4522C26.4209 49.27 27.0284 49.2092 27.636 49.2092C28.2435 49.2092 28.851 49.3004 29.4585 49.5434C30.0357 49.7864 30.6128 50.1509 30.947 50.728C31.2811 51.2748 31.433 51.9127 31.3723 52.5506H31.3115C31.0381 52.0039 30.7951 51.4875 30.461 51.0622C30.1268 50.6369 29.7623 50.242 29.2763 49.9686C28.7903 49.6953 28.2131 49.5434 27.636 49.4826C27.0588 49.4219 26.4816 49.4219 25.8741 49.4826L25.8438 49.4522Z" fill="#231F20"/>
<path d="M49.7512 30.619C49.7512 30.619 48.4754 29.0394 47.4122 28.6445C46.349 28.2496 42.795 28.5534 38.6334 30.619C34.4719 32.7149 23.4148 37.6663 19.1014 37.0588C16.5802 36.512 16.5802 37.2106 16.7624 37.5144C16.975 37.8182 27.3942 49.2701 28.427 49.7561C29.4598 50.2421 38.6942 49.1486 44.8606 45.1996C51.027 41.2203 58.1655 41.0684 58.9552 40.8254C59.745 40.6128 49.7512 30.619 49.7512 30.619Z" fill="#84BD41"/>
<path d="M38.6638 30.6796C37.1146 31.4694 35.5654 32.1984 33.9858 32.9274C32.4063 33.6261 30.8267 34.3247 29.1864 34.9323C27.5764 35.5702 25.9361 36.1473 24.2654 36.603C23.4149 36.846 22.5947 37.0586 21.7138 37.1801C20.8633 37.332 19.952 37.4231 19.071 37.3016C18.5546 37.2105 18.0079 37.1194 17.5218 37.1194C17.4611 37.1194 17.4003 37.1194 17.3396 37.1194C17.2788 37.1194 17.2181 37.1497 17.1877 37.1497C17.0966 37.1801 17.0055 37.2105 17.0055 37.2409C17.0055 37.2409 17.0055 37.2409 17.0055 37.2713C17.0055 37.3016 17.0054 37.3016 17.0358 37.332C17.0358 37.332 17.0662 37.3624 17.0662 37.3928L17.1269 37.4535L17.2485 37.6054C17.9775 38.3952 18.7065 39.2153 19.4356 40.0051C20.8936 41.5847 22.3821 43.1643 23.8705 44.7438C24.6299 45.5336 25.359 46.293 26.1184 47.0828C26.5133 47.4777 26.8778 47.8422 27.2727 48.2068C27.6676 48.5713 28.0625 48.9662 28.427 49.2699C28.5485 49.3611 28.5789 49.3914 28.6396 49.3914C28.67 49.3914 28.7307 49.4218 28.7915 49.4218L28.9737 49.4522C29.2168 49.4522 29.4901 49.4522 29.7332 49.4522C30.2496 49.4218 30.7963 49.3611 31.3127 49.3003C32.3759 49.1484 33.4087 48.9662 34.4719 48.7232C35.5047 48.4801 36.5375 48.2068 37.5703 47.903C38.6031 47.5992 39.6055 47.2347 40.6079 46.8398C41.5799 46.4449 42.552 45.9893 43.4937 45.5033C43.7367 45.3817 43.9493 45.2602 44.1923 45.1084L44.891 44.6831C45.377 44.4097 45.8326 44.1059 46.349 43.8933L47.0781 43.5288L47.8375 43.1947C48.3235 42.9516 48.8703 42.7998 49.3563 42.5871C50.3891 42.253 51.4523 41.9188 52.5155 41.6758C53.5786 41.4328 54.6418 41.2202 55.7354 41.0987C56.2821 41.0379 56.8289 40.9772 57.3453 40.9164C57.8921 40.8557 58.4389 40.8557 58.9553 40.7645L58.9856 40.8557C58.4388 40.9772 57.9225 41.0379 57.3757 41.1291C56.8289 41.2202 56.3125 41.3113 55.7657 41.4024C54.7026 41.6151 53.6698 41.8581 52.637 42.1619C50.5714 42.739 48.5665 43.5288 46.7136 44.5616C46.2275 44.8046 45.8023 45.1084 45.3466 45.3818L44.648 45.807C44.405 45.9589 44.1619 46.0804 43.9493 46.2323C42.9773 46.7791 42.0052 47.2651 40.9724 47.6904C38.9372 48.5409 36.8412 49.1484 34.6845 49.6041C33.6213 49.8167 32.5278 49.999 31.4342 50.1205C30.8875 50.1812 30.3407 50.2116 29.7939 50.242C29.5205 50.242 29.2168 50.242 28.9434 50.2116C28.7915 50.1812 28.6396 50.1812 28.4573 50.1205C28.3966 50.0901 28.3662 50.0901 28.3055 50.0597L28.184 49.9686C28.0928 49.9078 28.0624 49.8775 28.0017 49.8167C27.546 49.4522 27.1815 49.0573 26.7866 48.6624C26.3917 48.2675 26.0272 47.8726 25.6627 47.4777C24.9033 46.6879 24.1743 45.8982 23.4452 45.1084C21.9568 43.5288 20.4987 41.9188 19.071 40.3089C18.342 39.4887 17.613 38.6989 16.9143 37.8788L16.7928 37.7269L16.7321 37.6358C16.7017 37.6054 16.6713 37.575 16.6409 37.5143C16.5802 37.4231 16.5498 37.332 16.5498 37.2105C16.5498 37.089 16.5802 36.9675 16.6409 36.846C16.7928 36.6334 16.9751 36.603 17.1269 36.5422C17.2181 36.5118 17.2788 36.5118 17.37 36.5118C17.4611 36.5118 17.5218 36.5118 17.5826 36.5118C18.1597 36.5118 18.7065 36.603 19.2533 36.7245H19.2229C20.0431 36.8156 20.8936 36.7549 21.7442 36.6334C22.5947 36.5118 23.4149 36.3296 24.2654 36.1169C25.9361 35.6917 27.5764 35.1449 29.1864 34.5374C30.7963 33.9602 32.4063 33.2919 34.0162 32.6237C35.5958 31.9554 37.1754 31.2263 38.7246 30.4973L38.6638 30.6796Z" fill="black"/>
<path d="M49.2659 30.0117C50.1165 30.7711 50.9366 31.5305 51.7568 32.2899L54.1869 34.6289C54.9767 35.4187 55.8576 36.1477 56.5563 37.0287C56.9208 37.4539 57.2549 37.9096 57.5891 38.3652C57.9232 38.8209 58.227 39.3069 58.47 39.8537L58.4092 39.9144C57.5283 39.1854 56.7082 38.4564 55.888 37.6666C55.0678 36.8768 54.3995 35.9959 53.6401 35.1453L51.3923 32.6241L49.1748 30.0725L49.2659 30.0117Z" fill="black"/>
<path d="M37.2792 39.8904L37.4116 40.2401C37.4496 40.3598 37.4968 40.4748 37.5393 40.5807C37.5677 40.6589 37.5914 40.728 37.6195 40.7831C37.6477 40.8383 37.6714 40.9073 37.6996 40.9625C37.7374 41.0591 37.7474 41.1468 37.7343 41.2346C37.7213 41.3225 37.6943 41.4058 37.6626 41.48C37.6446 41.5355 37.6126 41.5635 37.5758 41.5823C37.539 41.6011 37.4976 41.6107 37.4514 41.6111C37.2528 41.6082 37.0769 41.559 36.9192 41.4773C36.7615 41.3956 36.6404 41.272 36.5464 41.0881C36.4573 40.9365 36.3866 40.7755 36.3299 40.619C36.2731 40.4625 36.2208 40.2922 36.1685 40.1218C36.145 40.0758 36.1215 40.0298 36.0935 39.9978C36.0655 39.9657 36.0284 39.9383 35.9728 39.9203C35.8941 39.9026 35.82 39.8709 35.7642 39.8298C35.6992 39.7935 35.6388 39.7432 35.5783 39.6929C35.5319 39.6703 35.4993 39.629 35.485 39.5783C35.4754 39.5369 35.4749 39.4907 35.5023 39.4535C35.5297 39.4163 35.5712 39.4067 35.6173 39.4063C35.6543 39.4106 35.7052 39.4194 35.7838 39.4372C35.8997 39.4823 35.9362 39.4405 35.9074 39.316C35.8549 39.1226 35.8116 38.9244 35.7544 38.7217C35.702 38.5283 35.6586 38.3301 35.6015 38.1275C35.5253 37.8649 35.463 37.6069 35.4144 37.3303C35.3704 37.0629 35.3173 36.8002 35.2687 36.5236C35.245 36.4545 35.2305 36.3808 35.216 36.307C35.2062 36.2424 35.187 36.1595 35.1678 36.0766C35.0904 36.1973 35.0314 36.3086 34.9723 36.42C34.918 36.5405 34.8681 36.6471 34.823 36.763C34.7373 37.0038 34.6748 37.2445 34.6354 37.4849C34.5959 37.7254 34.5935 37.9701 34.628 38.2191C34.6284 38.2653 34.6147 38.2839 34.5779 38.3027C34.5228 38.3309 34.4719 38.3221 34.4162 38.281C34.2121 38.1766 34.0905 38.0069 34.0517 37.7948C33.9933 37.4536 33.9994 37.1027 34.0979 36.7509C34.2414 36.2602 34.45 35.8289 34.7235 35.434C34.9879 35.0439 35.3358 34.7037 35.7579 34.3953C35.946 34.2643 36.1344 34.1565 36.3461 34.0715C36.5485 33.9912 36.7651 33.9385 36.9955 33.8903C37.4658 33.8123 37.896 33.9055 38.2999 34.1512C38.6807 34.3972 38.9648 34.681 39.1618 35.0209C39.3587 35.3609 39.4545 35.7525 39.4584 36.1911C39.4685 37.3454 39.066 38.3047 38.2419 39.0969C38.1824 39.1621 38.1091 39.2228 38.0174 39.2928C38.027 39.3343 38.0502 39.3572 38.0825 39.3523C38.1103 39.3613 38.1426 39.3564 38.1704 39.3654C38.3879 39.4281 38.6055 39.4908 38.8139 39.5582C39.0178 39.6396 39.2306 39.6931 39.4619 39.7372C39.6378 39.7865 39.809 39.8265 39.9755 39.8574C40.142 39.8882 40.3177 39.9144 40.5023 39.9128C40.5393 39.917 40.5902 39.9258 40.6364 39.9254C40.6825 39.925 40.7105 39.9571 40.734 40.0031C40.7814 40.1412 40.7638 40.2429 40.6723 40.3361C40.5718 40.457 40.4664 40.5456 40.3377 40.6114C40.2089 40.6772 40.08 40.7199 39.9231 40.7305C39.3648 40.7724 38.8375 40.6708 38.355 40.4073C38.1742 40.3257 38.0026 40.2395 37.8218 40.158C37.6457 40.0857 37.4786 39.9856 37.316 39.8716L37.2792 39.8904ZM35.1995 36.0024C35.3286 35.9828 35.4256 35.9912 35.5045 36.032C35.5881 36.0821 35.6532 36.1415 35.7139 36.2149C35.7327 36.2517 35.7654 36.2929 35.7842 36.3297C35.803 36.3665 35.8309 36.3985 35.8497 36.4353C35.9108 36.5548 35.9719 36.6743 36.0283 36.7847C36.0755 36.8997 36.1273 37.0239 36.1792 37.1481C36.2924 37.4149 36.3964 37.6864 36.5095 37.9532C36.6227 38.22 36.7267 38.4916 36.8398 38.7584C36.8447 38.7906 36.8588 38.8182 36.8682 38.8366C36.8823 38.8642 36.9056 38.8871 36.9334 38.8961C37.163 38.7555 37.3784 38.5643 37.561 38.3318C37.8673 37.9782 38.1085 37.5882 38.2896 37.1711C38.4614 36.7586 38.5591 36.3145 38.5779 35.8295C38.6024 35.4691 38.5207 35.1051 38.3422 34.7557C38.164 34.4526 37.9089 34.3163 37.5722 34.3608C37.5168 34.3659 37.4754 34.3755 37.4292 34.3759C37.1757 34.4243 36.9454 34.4956 36.7201 34.5992C36.4995 34.7119 36.2882 34.8431 36.0911 35.0018C35.7517 35.268 35.4592 35.603 35.1995 36.0024ZM40.807 37.6585C40.9112 37.9531 41.0106 38.2385 41.1146 38.51C41.2186 38.7815 41.3501 39.0389 41.5001 39.2869C41.5657 39.3925 41.5618 39.4757 41.507 39.55C41.457 39.6336 41.3742 39.6759 41.2725 39.6583C41.1062 39.6505 40.9812 39.6101 40.8743 39.5371C40.7675 39.4642 40.6788 39.3588 40.6084 39.2209C40.5379 39.083 40.4766 38.9404 40.4245 38.7931C40.3771 38.655 40.325 38.5077 40.2774 38.3465C40.1827 38.0703 40.1018 37.7986 40.044 37.5267C39.9862 37.2547 39.9329 36.9689 39.9026 36.6829C39.883 36.5538 39.8495 36.4202 39.816 36.2866C39.778 36.1669 39.7445 36.0333 39.7202 35.895C39.7108 35.8766 39.7106 35.8535 39.7012 35.8351C39.6918 35.8167 39.6824 35.7983 39.6914 35.7706C39.6816 35.706 39.7043 35.6596 39.7825 35.6312C39.9392 35.5975 40.0737 35.6564 40.1766 35.8125C40.1907 35.84 40.2048 35.8676 40.2142 35.886C40.2283 35.9136 40.2516 35.9365 40.2794 35.9455C40.2976 35.913 40.3065 35.8852 40.3108 35.8482C40.3151 35.8112 40.3194 35.7743 40.3329 35.7326C40.3372 35.6956 40.3507 35.6539 40.3642 35.6123C40.3685 35.5753 40.3819 35.5336 40.3999 35.478C40.4541 35.3344 40.5456 35.2413 40.679 35.1847C40.8079 35.142 40.9419 35.1547 41.0902 35.218C41.1644 35.2497 41.2341 35.2952 41.2853 35.3502C41.3413 35.4143 41.3834 35.474 41.4347 35.529C41.8512 36.1625 41.8894 36.827 41.5629 37.504C41.4722 37.6895 41.3251 37.7647 41.1124 37.7343C41.0662 37.7347 41.0201 37.7351 40.9692 37.7263C40.9183 37.7175 40.872 37.6948 40.807 37.6585ZM40.8334 35.4188C40.7875 35.4423 40.7646 35.4656 40.7556 35.4934L40.7331 35.5628C40.6698 35.7112 40.6434 35.8638 40.6263 36.0117C40.6091 36.1596 40.6058 36.312 40.6025 36.4644C40.6042 36.649 40.6103 36.8198 40.6256 36.9859C40.6456 37.1612 40.684 37.3271 40.7547 37.4881C40.7641 37.5065 40.769 37.5387 40.7784 37.5571C40.7878 37.5755 40.8064 37.5892 40.8295 37.589C40.8756 37.5886 40.9124 37.5698 40.9351 37.5234C40.9715 37.4585 40.9986 37.3982 41.0256 37.3149C41.1382 36.9906 41.1723 36.6717 41.128 36.3582C41.0745 36.0493 40.9748 35.7408 40.8334 35.4188Z" fill="black"/>
<path d="M24.9321 35.7525C25.1448 36.4816 25.2359 37.241 25.2359 38.0004C25.2359 38.7598 25.084 39.5192 24.7802 40.2482C24.4765 40.9773 23.9904 41.6759 23.2918 42.0708C22.5931 42.4961 21.8337 42.6784 21.0439 42.648V42.5872C21.7426 42.2835 22.3805 41.9797 22.9577 41.5544C23.5044 41.1292 24.0208 40.6431 24.3246 40.0052C24.6587 39.3673 24.841 38.6687 24.9018 37.9396C24.9929 37.2106 24.9625 36.4816 24.841 35.7222L24.9321 35.7525Z" fill="#231F20"/>
<path d="M51.1487 32.5022C50.4197 32.7148 49.6603 32.806 48.9008 32.806C48.1414 32.806 47.382 32.6541 46.653 32.3503C45.924 32.0465 45.2253 31.5605 44.8304 30.8619C44.4051 30.1632 44.2229 29.4038 44.2532 28.614H44.314C44.6178 29.3127 44.9215 29.9506 45.3468 30.5277C45.7721 31.0745 46.2581 31.5909 46.896 31.8947C47.5339 32.2288 48.2326 32.4111 48.9616 32.4718C49.6906 32.5629 50.4197 32.5326 51.1791 32.4111L51.1487 32.5022Z" fill="#231F20"/>
<path d="M52.7889 41.9186C52.6066 41.3414 52.5459 40.7339 52.5459 40.1264C52.5459 39.5188 52.637 38.9113 52.88 38.3038C53.123 37.7266 53.4876 37.1495 54.0647 36.8153C54.6115 36.4812 55.2494 36.3293 55.8873 36.3901V36.4508C55.3405 36.7242 54.8241 36.9672 54.3989 37.3014C53.9736 37.6355 53.5787 38 53.3053 38.486C53.0319 38.9721 52.88 39.5492 52.8193 40.1264C52.7585 40.7035 52.7585 41.2807 52.8193 41.8882L52.7889 41.9186Z" fill="#231F20"/>
<path d="M25.8438 46.0199C26.4209 45.8376 27.0284 45.7769 27.636 45.7769C28.2435 45.7769 28.851 45.868 29.4585 46.111C30.0357 46.354 30.6128 46.7185 30.947 47.2957C31.2811 47.8425 31.433 48.4804 31.3723 49.1183H31.3115C31.0381 48.5715 30.7951 48.0551 30.461 47.6298C30.1268 47.2045 29.7623 46.8097 29.2763 46.5363C28.7903 46.2629 28.2131 46.111 27.636 46.0502C27.0588 45.9895 26.4816 45.9895 25.8741 46.0502L25.8438 46.0199Z" fill="#231F20"/>
</svg>
