<svg width="54" height="48" viewBox="0 0 54 48" fill="none" xmlns="http://www.w3.org/2000/svg">
<path opacity="0.2" d="M26.7299 47.3997C41.4923 47.3997 53.4597 36.7889 53.4597 23.6998C53.4597 10.6108 41.4923 0 26.7299 0C11.9674 0 0 10.6108 0 23.6998C0 36.7889 11.9674 47.3997 26.7299 47.3997Z" fill="#84BD41"/>
<path d="M10.8517 24.6863L8.97266 28.7263L13.9992 36.1486L14.4455 28.7263L10.8517 24.6863Z" fill="white"/>
<path d="M14.4453 28.7263L26.7298 24.4749L27.223 31.2395L13.999 36.1486L14.4453 28.7263Z" fill="#B0B0B0"/>
<path d="M10.8516 24.6864L21.1395 21.0222L24.5688 25.2266L14.4453 28.7264L10.8516 24.6864Z" fill="#E2E2E2"/>
<path d="M23.2775 15.1499L18.7207 17.1464L31.2635 39.5074L34.7633 34.5983L23.2775 15.1499Z" fill="white"/>
<path d="M41.6221 31.991L40.6591 36.1484L31.2637 39.5073L34.7635 34.5982L41.6221 31.991Z" fill="#CCCCCB"/>
<path d="M23.2773 15.1498L30.2534 13.717L41.6218 31.9911L34.7632 34.5983L23.2773 15.1498Z" fill="#E2E2E2"/>
<path d="M16.3246 28.6323C14.4221 28.4444 14.7744 27.8806 14.516 26.5183C14.4925 27.0585 14.4925 27.6692 14.2341 28.1625C14.2341 28.1625 14.2107 28.2095 14.1167 28.3269C13.7174 28.6793 12.8248 28.5618 12.543 28.6323C12.543 28.6323 12.5665 28.6323 12.5665 28.6558C12.9658 28.7497 13.459 28.6323 13.8348 28.8907C14.5865 29.3369 14.4925 31.2395 14.61 30.9341C14.61 30.9341 14.61 30.9341 14.61 30.9107C14.61 30.9107 14.61 30.8872 14.61 30.8637C14.7509 29.3134 14.6569 28.7262 16.3246 28.6323C16.3716 28.6558 16.3481 28.6323 16.3246 28.6323Z" fill="white"/>
<path d="M16.2772 27.3404C15.6195 27.27 15.7605 27.0821 15.6665 26.6123C15.6665 26.8002 15.6665 27.0116 15.5726 27.176C15.5726 27.176 15.5726 27.1995 15.5256 27.223C15.3847 27.3404 15.0793 27.317 14.9854 27.317C15.1263 27.3404 15.2907 27.317 15.4316 27.3874C15.69 27.5284 15.6665 28.186 15.69 28.0921C15.69 28.0921 15.69 28.0921 15.69 28.0686C15.737 27.5753 15.7135 27.3639 16.2772 27.3404Z" fill="white"/>
<path d="M36.2426 34.1052C34.34 33.9173 34.6923 33.3535 34.434 31.9912C34.4105 32.5314 34.4105 33.1421 34.1521 33.6354C34.1521 33.6354 34.1286 33.6824 34.0347 33.7998C33.6353 34.1522 32.7428 34.0347 32.4609 34.1052C32.4609 34.1052 32.4844 34.1052 32.4844 34.1287C32.8837 34.2226 33.377 34.1052 33.7528 34.3636C34.5044 34.8098 34.4105 36.7124 34.5279 36.4071C34.5279 36.4071 34.5279 36.407 34.5279 36.3836C34.5279 36.3836 34.5279 36.3601 34.5279 36.3366C34.6688 34.7863 34.5749 34.1991 36.2426 34.1052C36.2895 34.1287 36.2661 34.1052 36.2426 34.1052Z" fill="white"/>
<path d="M36.1952 32.8133C35.5375 32.7429 35.6784 32.555 35.5845 32.0852C35.5845 32.2731 35.5845 32.4845 35.4905 32.6489C35.4905 32.6489 35.4905 32.6724 35.4436 32.6959C35.3026 32.8133 34.9973 32.7899 34.9033 32.7899C35.0443 32.8133 35.2087 32.7899 35.3496 32.8603C35.608 33.0013 35.5845 33.6589 35.608 33.565C35.608 33.565 35.608 33.565 35.608 33.5415C35.655 33.0482 35.6315 32.8368 36.1952 32.8133Z" fill="white"/>
<path d="M25.1557 16.5593C23.2531 16.3714 23.6054 15.8076 23.347 14.4453C23.3236 14.9855 23.3236 15.5962 23.0652 16.0895C23.0652 16.0895 23.0417 16.1365 22.9478 16.2539C22.5484 16.6063 21.6559 16.4888 21.374 16.5593C21.374 16.5593 21.3975 16.5593 21.3975 16.5828C21.7968 16.6767 22.2901 16.5593 22.6659 16.8176C23.4175 17.2639 23.3236 19.1665 23.441 18.8611C23.441 18.8611 23.441 18.8611 23.441 18.8377C23.441 18.8377 23.441 18.8142 23.441 18.7907C23.5819 17.2404 23.488 16.6532 25.1792 16.5828C25.1792 16.5828 25.1791 16.5593 25.1557 16.5593Z" fill="white"/>
<path d="M28.2324 14.1167L30.2524 13.6704H30.2994L30.3229 13.7174L32.5543 17.1467L34.7622 20.576C35.5138 21.7269 36.242 22.8544 36.9231 24.0288C37.2755 24.616 37.6043 25.2032 37.9331 25.7905C38.262 26.3777 38.5908 26.9884 38.8962 27.5991L38.8492 27.6225C38.4499 27.0823 38.0506 26.5186 37.6513 25.9549C37.252 25.3911 36.8762 24.8274 36.5003 24.2637C35.7487 23.1363 35.0441 21.9618 34.3629 20.7874L32.2724 17.2876L30.182 13.7879L30.2524 13.8113L28.2324 14.1872V14.1167Z" fill="black"/>
<path d="M20.8341 20.9048L22.126 23.0187L23.3943 25.1327C23.8171 25.8374 24.2634 26.542 24.6392 27.2702C25.015 27.9983 25.3674 28.7499 25.6727 29.525L25.6257 29.5485C25.109 28.8909 24.6627 28.1862 24.2399 27.4816C23.8171 26.7769 23.4648 26.0253 23.0655 25.2971L21.9146 23.1127L20.7871 20.9048H20.8341Z" fill="black"/>
<path d="M12.3077 33.5884C12.9184 34.4105 13.5291 35.2326 14.1398 36.0781L13.9754 36.0312L15.4081 35.444C15.8779 35.256 16.3712 35.0447 16.8409 34.8567C17.3107 34.6688 17.804 34.5044 18.2972 34.3635C18.7905 34.2226 19.2837 34.0816 19.8005 33.9877L19.824 34.0347C19.3777 34.293 18.9079 34.5279 18.4382 34.7393C17.9684 34.9507 17.4986 35.1621 17.0054 35.3265C16.5121 35.4909 16.0188 35.6554 15.5256 35.8198L14.0693 36.313L13.9519 36.36L13.9049 36.2661C13.3412 35.397 12.8244 34.5279 12.2842 33.6588L12.3077 33.5884Z" fill="black"/>
<path d="M10.1475 26.3072L10.7582 24.6395L10.7816 24.5926L10.8286 24.5691C11.7447 24.1933 12.6372 23.8409 13.5533 23.4651C13.9996 23.2772 14.4693 23.1128 14.9391 22.9953C15.4089 22.8544 15.8786 22.737 16.3719 22.6665L16.3954 22.7135C15.9726 22.9719 15.5263 23.1832 15.08 23.3712C14.6338 23.5591 14.164 23.747 13.6942 23.8879C12.7547 24.1698 11.8386 24.4751 10.8991 24.757L10.9696 24.6865L10.1944 26.2837L10.1475 26.3072Z" fill="black"/>
<path d="M17.3584 27.693C17.6403 27.5755 17.9221 27.4581 18.204 27.3172L19.0496 26.9648C19.3314 26.8474 19.6133 26.7065 19.8952 26.636C20.2005 26.5655 20.5059 26.5186 20.8347 26.5655L20.8582 26.6125C20.5998 26.8239 20.3414 26.9648 20.0596 27.0823C19.7777 27.1997 19.4724 27.2467 19.1905 27.3172L18.2979 27.5286C17.9926 27.599 17.7107 27.6695 17.4054 27.7165L17.3584 27.693Z" fill="black"/>
<path d="M29.9474 26.4009C30.2527 26.8472 30.5581 27.3169 30.8634 27.7632L31.756 29.149C32.0613 29.6188 32.3902 30.0416 32.625 30.5349C32.8834 31.0281 33.1183 31.5214 33.2827 32.0616L33.2358 32.0851C32.8364 31.6858 32.5311 31.2395 32.2258 30.7697C31.9204 30.3235 31.6855 29.8067 31.4271 29.3369L30.652 27.8806C30.3937 27.3874 30.1353 26.9176 29.9004 26.4244L29.9474 26.4009Z" fill="black"/>
<path d="M29.6886 36.6653L31.3563 39.4369L31.2153 39.3899L33.1649 38.6383L35.1144 37.8867C35.7721 37.6283 36.4298 37.4169 37.1109 37.2055C37.7921 36.9941 38.4498 36.8297 39.1544 36.6653L39.1779 36.7123C38.5437 37.0411 37.9095 37.323 37.2518 37.5813C36.5942 37.8397 35.96 38.0981 35.2788 38.3095L33.2823 38.9671L31.2858 39.6248L31.1918 39.6483L31.1449 39.5544L29.6416 36.6888L29.6886 36.6653Z" fill="black"/>
<path d="M15.4317 12.0964C15.7841 12.2374 16.1129 12.4018 16.4417 12.5662C16.7706 12.7306 17.0994 12.895 17.4517 13.0595C17.7806 13.2239 18.1564 13.3413 18.4383 13.5997C18.5792 13.7171 18.7201 13.8346 18.8611 13.9755C19.002 14.1164 19.1194 14.2574 19.2134 14.4453L19.1664 14.5157C18.955 14.4923 18.7671 14.4688 18.5792 14.3983C18.3913 14.3513 18.2269 14.2809 18.0624 14.1869C17.7101 14.0225 17.4517 13.7641 17.1464 13.5292C16.841 13.3178 16.5592 13.083 16.2538 12.8481C15.972 12.6132 15.6666 12.3783 15.3848 12.1434L15.4317 12.0964Z" fill="black"/>
<path d="M21.4688 7.75098C21.6567 8.22075 21.8212 8.66702 22.0091 9.13679C22.1735 9.60656 22.3379 10.0763 22.5023 10.5226C22.6668 10.9924 22.8782 11.4387 22.9721 11.9319C23.0661 12.4252 23.113 12.9184 23.0661 13.4352L22.9956 13.4587C22.6668 13.0359 22.4788 12.5896 22.2909 12.1198C22.103 11.6501 22.0561 11.1568 21.9621 10.687C21.8682 10.1938 21.7507 9.72401 21.6802 9.23075C21.5863 8.7375 21.4923 8.26772 21.4219 7.77447L21.4688 7.75098Z" fill="black"/>
<path d="M29.0779 7.91563C29.0074 8.29145 28.89 8.64378 28.8195 8.9961C28.7255 9.34843 28.6316 9.72424 28.5141 10.0766C28.3967 10.4289 28.3497 10.8047 28.1853 11.1335C28.0914 11.298 27.9974 11.4624 27.88 11.6033C27.7625 11.7677 27.6451 11.9087 27.4807 12.0496L27.4102 12.0261C27.3867 11.8147 27.3867 11.6268 27.4102 11.4389C27.4337 11.251 27.4572 11.0631 27.5041 10.8752C27.5981 10.4994 27.8095 10.194 27.9739 9.86517C28.1383 9.53633 28.3028 9.2075 28.4672 8.85517C28.6551 8.52633 28.8195 8.19749 29.0074 7.86865L29.0779 7.91563Z" fill="black"/>
<path d="M36.5713 11.5799C34.3399 11.3685 34.7626 10.6873 34.4338 9.09009C34.4103 9.72428 34.4103 10.4289 34.0815 11.0161C34.0815 11.0161 34.058 11.0866 33.9406 11.204C33.4708 11.6034 32.4373 11.4859 32.085 11.5564L32.1085 11.5799C32.5782 11.6973 33.1654 11.5564 33.6117 11.8617C34.5043 12.3785 34.3868 14.6334 34.5278 14.281V14.2575C34.5278 14.2575 34.5278 14.2341 34.5512 14.2106C34.7157 12.3785 34.5982 11.6973 36.6182 11.6268C36.6182 11.5799 36.5948 11.5799 36.5713 11.5799Z" fill="#84BD41"/>
<path d="M38.3802 13.0359C36.9474 12.895 37.2293 12.4722 37.0179 11.4387C36.9944 11.8615 37.0179 12.3078 36.8065 12.6836C36.8065 12.6836 36.783 12.7306 36.7126 12.801C36.4072 13.0594 35.7495 12.989 35.5146 13.0359H35.5381C35.8435 13.1064 36.2193 13.0124 36.5012 13.2238C37.0649 13.5527 36.9944 14.9855 37.0884 14.7741C37.0884 14.7741 37.0884 14.7741 37.0884 14.7506C37.0884 14.7506 37.0884 14.7506 37.0884 14.7271C37.1823 13.5527 37.1119 13.1064 38.3802 13.0359Z" fill="#84BD41"/>
</svg>
